%TF.GenerationSoftware,KiCad,Pcbnew,10.0.1*%
%TF.CreationDate,2026-07-15T14:14:48-07:00*%
%TF.ProjectId,wig,7769672e-6b69-4636-9164-5f7063625858,rev?*%
%TF.SameCoordinates,Original*%
%TF.FileFunction,Profile,NP*%
%FSLAX46Y46*%
G04 Gerber Fmt 4.6, Leading zero omitted, Abs format (unit mm)*
G04 Created by KiCad (PCBNEW 10.0.1) date 2026-07-15 14:14:48*
%MOMM*%
%LPD*%
G01*
G04 APERTURE LIST*
%TA.AperFunction,Profile*%
%ADD10C,0.100000*%
%TD*%
G04 APERTURE END LIST*
D10*
X189528668Y-28686071D02*
X189618080Y-28693994D01*
X189707153Y-28709907D01*
X189794473Y-28733621D01*
X189879359Y-28764953D01*
X189961147Y-28803656D01*
X190039198Y-28849430D01*
X190076340Y-28875267D01*
X190303507Y-29024797D01*
X191598220Y-29951527D01*
X191635035Y-29977433D01*
X191704448Y-30034762D01*
X191768551Y-30097973D01*
X191826847Y-30166576D01*
X191878884Y-30240039D01*
X191924261Y-30317794D01*
X191962624Y-30399238D01*
X191993677Y-30483739D01*
X192017180Y-30570644D01*
X192032949Y-30659279D01*
X192040864Y-30748957D01*
X192041371Y-30793970D01*
X192041371Y-38845750D01*
X191406371Y-41385750D01*
X191406371Y-70595750D01*
X192041371Y-73135750D01*
X192041333Y-81187570D01*
X192040846Y-81232584D01*
X192032935Y-81322263D01*
X192017169Y-81410899D01*
X191993668Y-81497805D01*
X191962616Y-81582307D01*
X191924252Y-81663752D01*
X191878875Y-81741506D01*
X191826835Y-81814969D01*
X191768537Y-81883571D01*
X191704431Y-81946780D01*
X191635014Y-82004106D01*
X191598207Y-82030023D01*
X190313306Y-82949728D01*
X190076422Y-83105655D01*
X190039291Y-83131516D01*
X189961232Y-83177299D01*
X189879436Y-83216011D01*
X189794542Y-83247350D01*
X189707211Y-83271071D01*
X189618128Y-83286989D01*
X189527987Y-83294979D01*
X189482740Y-83295478D01*
X178052740Y-83295498D01*
X127252740Y-83295497D01*
X115822740Y-83295497D01*
X115795624Y-83295204D01*
X115705986Y-83287253D01*
X115616906Y-83271330D01*
X115529579Y-83247604D01*
X115444689Y-83216260D01*
X115362897Y-83177543D01*
X115284843Y-83131755D01*
X115247689Y-83105928D01*
X115020293Y-82956247D01*
X113725904Y-82029750D01*
X113689094Y-82003837D01*
X113619679Y-81946509D01*
X113555575Y-81883299D01*
X113497278Y-81814696D01*
X113445239Y-81741232D01*
X113399863Y-81663477D01*
X113361500Y-81582033D01*
X113330447Y-81497531D01*
X113306946Y-81410625D01*
X113291178Y-81321989D01*
X113283266Y-81232311D01*
X113282778Y-81187297D01*
X113282740Y-73135477D01*
X113917740Y-70595477D01*
X113917740Y-41385477D01*
X113282740Y-38845477D01*
X113282740Y-30793697D01*
X113283219Y-30748683D01*
X113291140Y-30659005D01*
X113306914Y-30570370D01*
X113330421Y-30483466D01*
X113361478Y-30398965D01*
X113399844Y-30317522D01*
X113445223Y-30239768D01*
X113497262Y-30166305D01*
X113555560Y-30097702D01*
X113619663Y-30034491D01*
X113689076Y-29977160D01*
X113725891Y-29951254D01*
X115011114Y-29031316D01*
X115247771Y-28875540D01*
X115284912Y-28849701D01*
X115362963Y-28803924D01*
X115444750Y-28765216D01*
X115529636Y-28733879D01*
X115616956Y-28710160D01*
X115706030Y-28694242D01*
X115796161Y-28686250D01*
X115841403Y-28685771D01*
X189501371Y-28685770D01*
X189528668Y-28686071D01*
M02*
