%TF.GenerationSoftware,KiCad,Pcbnew,8.0.0*%
%TF.CreationDate,2024-02-28T09:47:00-08:00*%
%TF.ProjectId,SenseBarnacle,53656e73-6542-4617-926e-61636c652e6b,rev?*%
%TF.SameCoordinates,Original*%
%TF.FileFunction,Paste,Top*%
%TF.FilePolarity,Positive*%
%FSLAX46Y46*%
G04 Gerber Fmt 4.6, Leading zero omitted, Abs format (unit mm)*
G04 Created by KiCad (PCBNEW 8.0.0) date 2024-02-28 09:47:00*
%MOMM*%
%LPD*%
G01*
G04 APERTURE LIST*
G04 Aperture macros list*
%AMRoundRect*
0 Rectangle with rounded corners*
0 $1 Rounding radius*
0 $2 $3 $4 $5 $6 $7 $8 $9 X,Y pos of 4 corners*
0 Add a 4 corners polygon primitive as box body*
4,1,4,$2,$3,$4,$5,$6,$7,$8,$9,$2,$3,0*
0 Add four circle primitives for the rounded corners*
1,1,$1+$1,$2,$3*
1,1,$1+$1,$4,$5*
1,1,$1+$1,$6,$7*
1,1,$1+$1,$8,$9*
0 Add four rect primitives between the rounded corners*
20,1,$1+$1,$2,$3,$4,$5,0*
20,1,$1+$1,$4,$5,$6,$7,0*
20,1,$1+$1,$6,$7,$8,$9,0*
20,1,$1+$1,$8,$9,$2,$3,0*%
%AMRotRect*
0 Rectangle, with rotation*
0 The origin of the aperture is its center*
0 $1 length*
0 $2 width*
0 $3 Rotation angle, in degrees counterclockwise*
0 Add horizontal line*
21,1,$1,$2,0,0,$3*%
G04 Aperture macros list end*
%ADD10RoundRect,0.250000X-0.450000X0.350000X-0.450000X-0.350000X0.450000X-0.350000X0.450000X0.350000X0*%
%ADD11R,1.200000X0.500000*%
%ADD12R,0.500000X1.200000*%
%ADD13RoundRect,0.250000X0.450000X-0.350000X0.450000X0.350000X-0.450000X0.350000X-0.450000X-0.350000X0*%
%ADD14RoundRect,0.090000X0.360000X2.410000X-0.360000X2.410000X-0.360000X-2.410000X0.360000X-2.410000X0*%
%ADD15RoundRect,0.160000X-0.160000X0.197500X-0.160000X-0.197500X0.160000X-0.197500X0.160000X0.197500X0*%
%ADD16RoundRect,0.450000X-0.707107X0.070711X0.070711X-0.707107X0.707107X-0.070711X-0.070711X0.707107X0*%
%ADD17RoundRect,0.250000X-0.477297X0.123744X0.123744X-0.477297X0.477297X-0.123744X-0.123744X0.477297X0*%
%ADD18RoundRect,0.250000X-0.292217X-0.292217X0.292217X-0.292217X0.292217X0.292217X-0.292217X0.292217X0*%
%ADD19RoundRect,0.050000X-0.387500X-0.050000X0.387500X-0.050000X0.387500X0.050000X-0.387500X0.050000X0*%
%ADD20RoundRect,0.050000X-0.050000X-0.387500X0.050000X-0.387500X0.050000X0.387500X-0.050000X0.387500X0*%
%ADD21RotRect,0.500000X2.500000X135.000000*%
%ADD22RotRect,2.000000X2.500000X135.000000*%
%ADD23RoundRect,0.250000X-0.337500X-0.475000X0.337500X-0.475000X0.337500X0.475000X-0.337500X0.475000X0*%
G04 APERTURE END LIST*
D10*
%TO.C,R22*%
X74539599Y-39030400D03*
X74539599Y-41030400D03*
%TD*%
D11*
%TO.C,U15*%
X84689199Y-46734200D03*
X84689199Y-47534200D03*
X84689199Y-48334200D03*
X84689199Y-49134200D03*
X84689199Y-49934200D03*
X84689199Y-50734200D03*
X84689199Y-51534200D03*
X84689199Y-52334200D03*
X84689199Y-53134200D03*
X84689199Y-53934200D03*
X84689199Y-54734200D03*
D12*
X86389199Y-56434200D03*
X87189199Y-56434200D03*
X87989199Y-56434200D03*
X88789199Y-56434200D03*
X89589199Y-56434200D03*
X90389199Y-56434200D03*
X91189199Y-56434200D03*
X91989199Y-56434200D03*
X92789199Y-56434200D03*
X93589199Y-56434200D03*
X94389199Y-56434200D03*
D11*
X96089199Y-54734200D03*
X96089199Y-53934200D03*
X96089199Y-53134200D03*
X96089199Y-52334200D03*
X96089199Y-51534200D03*
X96089199Y-50734200D03*
X96089199Y-49934200D03*
X96089199Y-49134200D03*
X96089199Y-48334200D03*
X96089199Y-47534200D03*
X96089199Y-46734200D03*
D12*
X94389199Y-45034200D03*
X93589199Y-45034200D03*
X92789199Y-45034200D03*
X91989199Y-45034200D03*
X91189199Y-45034200D03*
X90389199Y-45034200D03*
X89589199Y-45034200D03*
X88789199Y-45034200D03*
X87989199Y-45034200D03*
X87189199Y-45034200D03*
X86389199Y-45034200D03*
%TD*%
D13*
%TO.C,R15*%
X86207600Y-36982400D03*
X86207600Y-34982400D03*
%TD*%
D14*
%TO.C,J6*%
X57750199Y-21123400D03*
X59020199Y-21123400D03*
X60290199Y-21123400D03*
X61560199Y-21123400D03*
X62830199Y-21123400D03*
X64100199Y-21123400D03*
X65370199Y-21123400D03*
X66640199Y-21123400D03*
X67910199Y-21123400D03*
X69180199Y-21123400D03*
X70450199Y-21123400D03*
X71720199Y-21123400D03*
X72990199Y-21123400D03*
X74260199Y-21123400D03*
X75530199Y-21123400D03*
X76800199Y-21123400D03*
X78070199Y-21123400D03*
X79340199Y-21123400D03*
X80610199Y-21123400D03*
X81880199Y-21123400D03*
X83150199Y-21123400D03*
X84420199Y-21123400D03*
X85690199Y-21123400D03*
X86960199Y-21123400D03*
X88230199Y-21123400D03*
X89500199Y-21123400D03*
X90770199Y-21123400D03*
X92040199Y-21123400D03*
X93310199Y-21123400D03*
X94580199Y-21123400D03*
X95850199Y-21123400D03*
X97120199Y-21123400D03*
X53940199Y-21123400D03*
X55210199Y-21123400D03*
X56480199Y-21123400D03*
%TD*%
D13*
%TO.C,R10*%
X82143600Y-41062400D03*
X82143600Y-39062400D03*
%TD*%
%TO.C,R17*%
X88239600Y-36982400D03*
X88239600Y-34982400D03*
%TD*%
%TO.C,R21*%
X63855600Y-32045400D03*
X63855600Y-30045400D03*
%TD*%
%TO.C,R39*%
X88255599Y-31648400D03*
X88255599Y-29648400D03*
%TD*%
%TO.C,R8*%
X65887600Y-36490400D03*
X65887600Y-34490400D03*
%TD*%
%TO.C,R41*%
X84445599Y-31648400D03*
X84445599Y-29648400D03*
%TD*%
%TO.C,R18*%
X67919600Y-36490400D03*
X67919600Y-34490400D03*
%TD*%
%TO.C,R11*%
X82143600Y-36966400D03*
X82143600Y-34966400D03*
%TD*%
D10*
%TO.C,R35*%
X93970599Y-39173400D03*
X93970599Y-41173400D03*
%TD*%
D13*
%TO.C,R14*%
X86207600Y-41046400D03*
X86207600Y-39046400D03*
%TD*%
D15*
%TO.C,R2*%
X107559599Y-38724400D03*
X107559599Y-39919400D03*
%TD*%
D13*
%TO.C,R25*%
X63855600Y-41030400D03*
X63855600Y-39030400D03*
%TD*%
%TO.C,R13*%
X84175600Y-36982400D03*
X84175600Y-34982400D03*
%TD*%
D16*
%TO.C,U4*%
X39544817Y-53832182D03*
X45272381Y-48104618D03*
D17*
X40888319Y-47432866D03*
X39880692Y-48440493D03*
X38873065Y-49448120D03*
X45944133Y-52488680D03*
X44936506Y-53496307D03*
X43928879Y-54503934D03*
%TD*%
D11*
%TO.C,U13*%
X54844199Y-46734200D03*
X54844199Y-47534200D03*
X54844199Y-48334200D03*
X54844199Y-49134200D03*
X54844199Y-49934200D03*
X54844199Y-50734200D03*
X54844199Y-51534200D03*
X54844199Y-52334200D03*
X54844199Y-53134200D03*
X54844199Y-53934200D03*
X54844199Y-54734200D03*
D12*
X56544199Y-56434200D03*
X57344199Y-56434200D03*
X58144199Y-56434200D03*
X58944199Y-56434200D03*
X59744199Y-56434200D03*
X60544199Y-56434200D03*
X61344199Y-56434200D03*
X62144199Y-56434200D03*
X62944199Y-56434200D03*
X63744199Y-56434200D03*
X64544199Y-56434200D03*
D11*
X66244199Y-54734200D03*
X66244199Y-53934200D03*
X66244199Y-53134200D03*
X66244199Y-52334200D03*
X66244199Y-51534200D03*
X66244199Y-50734200D03*
X66244199Y-49934200D03*
X66244199Y-49134200D03*
X66244199Y-48334200D03*
X66244199Y-47534200D03*
X66244199Y-46734200D03*
D12*
X64544199Y-45034200D03*
X63744199Y-45034200D03*
X62944199Y-45034200D03*
X62144199Y-45034200D03*
X61344199Y-45034200D03*
X60544199Y-45034200D03*
X59744199Y-45034200D03*
X58944199Y-45034200D03*
X58144199Y-45034200D03*
X57344199Y-45034200D03*
X56544199Y-45034200D03*
%TD*%
D18*
%TO.C,U9*%
X106028099Y-47795900D03*
X106028099Y-49070900D03*
X107303099Y-47795900D03*
X107303099Y-49070900D03*
D19*
X103228099Y-45833400D03*
X103228099Y-46233400D03*
X103228099Y-46633400D03*
X103228099Y-47033400D03*
X103228099Y-47433400D03*
X103228099Y-47833400D03*
X103228099Y-48233400D03*
X103228099Y-48633400D03*
X103228099Y-49033400D03*
X103228099Y-49433400D03*
X103228099Y-49833400D03*
X103228099Y-50233400D03*
X103228099Y-50633400D03*
X103228099Y-51033400D03*
D20*
X104065599Y-51870900D03*
X104465599Y-51870900D03*
X104865599Y-51870900D03*
X105265599Y-51870900D03*
X105665599Y-51870900D03*
X106065599Y-51870900D03*
X106465599Y-51870900D03*
X106865599Y-51870900D03*
X107265599Y-51870900D03*
X107665599Y-51870900D03*
X108065599Y-51870900D03*
X108465599Y-51870900D03*
X108865599Y-51870900D03*
X109265599Y-51870900D03*
D19*
X110103099Y-51033400D03*
X110103099Y-50633400D03*
X110103099Y-50233400D03*
X110103099Y-49833400D03*
X110103099Y-49433400D03*
X110103099Y-49033400D03*
X110103099Y-48633400D03*
X110103099Y-48233400D03*
X110103099Y-47833400D03*
X110103099Y-47433400D03*
X110103099Y-47033400D03*
X110103099Y-46633400D03*
X110103099Y-46233400D03*
X110103099Y-45833400D03*
D20*
X109265599Y-44995900D03*
X108865599Y-44995900D03*
X108465599Y-44995900D03*
X108065599Y-44995900D03*
X107665599Y-44995900D03*
X107265599Y-44995900D03*
X106865599Y-44995900D03*
X106465599Y-44995900D03*
X106065599Y-44995900D03*
X105665599Y-44995900D03*
X105265599Y-44995900D03*
X104865599Y-44995900D03*
X104465599Y-44995900D03*
X104065599Y-44995900D03*
%TD*%
D13*
%TO.C,R26*%
X67919600Y-41046400D03*
X67919600Y-39046400D03*
%TD*%
%TO.C,R40*%
X86350599Y-31648400D03*
X86350599Y-29648400D03*
%TD*%
%TO.C,R20*%
X63855600Y-36490400D03*
X63855600Y-34490400D03*
%TD*%
D15*
%TO.C,R1*%
X106543599Y-38724400D03*
X106543599Y-39919400D03*
%TD*%
D11*
%TO.C,U14*%
X69840599Y-46734200D03*
X69840599Y-47534200D03*
X69840599Y-48334200D03*
X69840599Y-49134200D03*
X69840599Y-49934200D03*
X69840599Y-50734200D03*
X69840599Y-51534200D03*
X69840599Y-52334200D03*
X69840599Y-53134200D03*
X69840599Y-53934200D03*
X69840599Y-54734200D03*
D12*
X71540599Y-56434200D03*
X72340599Y-56434200D03*
X73140599Y-56434200D03*
X73940599Y-56434200D03*
X74740599Y-56434200D03*
X75540599Y-56434200D03*
X76340599Y-56434200D03*
X77140599Y-56434200D03*
X77940599Y-56434200D03*
X78740599Y-56434200D03*
X79540599Y-56434200D03*
D11*
X81240599Y-54734200D03*
X81240599Y-53934200D03*
X81240599Y-53134200D03*
X81240599Y-52334200D03*
X81240599Y-51534200D03*
X81240599Y-50734200D03*
X81240599Y-49934200D03*
X81240599Y-49134200D03*
X81240599Y-48334200D03*
X81240599Y-47534200D03*
X81240599Y-46734200D03*
D12*
X79540599Y-45034200D03*
X78740599Y-45034200D03*
X77940599Y-45034200D03*
X77140599Y-45034200D03*
X76340599Y-45034200D03*
X75540599Y-45034200D03*
X74740599Y-45034200D03*
X73940599Y-45034200D03*
X73140599Y-45034200D03*
X72340599Y-45034200D03*
X71540599Y-45034200D03*
%TD*%
D21*
%TO.C,J1*%
X109131716Y-34960025D03*
X108566031Y-34394340D03*
X108000345Y-33828655D03*
X107434660Y-33262969D03*
X106868975Y-32697284D03*
D22*
X111111615Y-36939924D03*
X115000703Y-33050837D03*
X104889076Y-30717385D03*
X108778163Y-26828297D03*
%TD*%
D13*
%TO.C,R42*%
X82540599Y-31648400D03*
X82540599Y-29648400D03*
%TD*%
D10*
%TO.C,R23*%
X72507599Y-39030400D03*
X72507599Y-41030400D03*
%TD*%
D14*
%TO.C,J7*%
X57775599Y-62703200D03*
X59045599Y-62703200D03*
X60315599Y-62703200D03*
X61585599Y-62703200D03*
X62855599Y-62703200D03*
X64125599Y-62703200D03*
X65395599Y-62703200D03*
X66665599Y-62703200D03*
X67935599Y-62703200D03*
X69205599Y-62703200D03*
X70475599Y-62703200D03*
X71745599Y-62703200D03*
X73015599Y-62703200D03*
X74285599Y-62703200D03*
X75555599Y-62703200D03*
X76825599Y-62703200D03*
X78095599Y-62703200D03*
X79365599Y-62703200D03*
X80635599Y-62703200D03*
X81905599Y-62703200D03*
X83175599Y-62703200D03*
X84445599Y-62703200D03*
X85715599Y-62703200D03*
X86985599Y-62703200D03*
X88255599Y-62703200D03*
X89525599Y-62703200D03*
X90795599Y-62703200D03*
X92065599Y-62703200D03*
X93335599Y-62703200D03*
X94605599Y-62703200D03*
X95875599Y-62703200D03*
X97145599Y-62703200D03*
X53965599Y-62703200D03*
X55235599Y-62703200D03*
X56505599Y-62703200D03*
%TD*%
D13*
%TO.C,R9*%
X65887600Y-32045400D03*
X65887600Y-30045400D03*
%TD*%
D23*
%TO.C,C1*%
X113313300Y-38903400D03*
X115388300Y-38903400D03*
%TD*%
D13*
%TO.C,R12*%
X84175600Y-41046400D03*
X84175600Y-39046400D03*
%TD*%
D10*
%TO.C,R24*%
X76571599Y-39030400D03*
X76571599Y-41030400D03*
%TD*%
D13*
%TO.C,R3*%
X65887600Y-41030400D03*
X65887600Y-39030400D03*
%TD*%
D10*
%TO.C,R36*%
X92065599Y-39173400D03*
X92065599Y-41173400D03*
%TD*%
D13*
%TO.C,R19*%
X67919600Y-32045400D03*
X67919600Y-30045400D03*
%TD*%
%TO.C,R16*%
X88239600Y-41046400D03*
X88239600Y-39046400D03*
%TD*%
M02*
