%TF.GenerationSoftware,KiCad,Pcbnew,8.0.0*%
%TF.CreationDate,2024-02-28T09:47:00-08:00*%
%TF.ProjectId,SenseBarnacle,53656e73-6542-4617-926e-61636c652e6b,rev?*%
%TF.SameCoordinates,Original*%
%TF.FileFunction,Copper,L3,Inr*%
%TF.FilePolarity,Positive*%
%FSLAX46Y46*%
G04 Gerber Fmt 4.6, Leading zero omitted, Abs format (unit mm)*
G04 Created by KiCad (PCBNEW 8.0.0) date 2024-02-28 09:47:00*
%MOMM*%
%LPD*%
G01*
G04 APERTURE LIST*
G04 Aperture macros list*
%AMRoundRect*
0 Rectangle with rounded corners*
0 $1 Rounding radius*
0 $2 $3 $4 $5 $6 $7 $8 $9 X,Y pos of 4 corners*
0 Add a 4 corners polygon primitive as box body*
4,1,4,$2,$3,$4,$5,$6,$7,$8,$9,$2,$3,0*
0 Add four circle primitives for the rounded corners*
1,1,$1+$1,$2,$3*
1,1,$1+$1,$4,$5*
1,1,$1+$1,$6,$7*
1,1,$1+$1,$8,$9*
0 Add four rect primitives between the rounded corners*
20,1,$1+$1,$2,$3,$4,$5,0*
20,1,$1+$1,$4,$5,$6,$7,0*
20,1,$1+$1,$6,$7,$8,$9,0*
20,1,$1+$1,$8,$9,$2,$3,0*%
G04 Aperture macros list end*
%TA.AperFunction,ComponentPad*%
%ADD10RoundRect,0.225000X-0.525000X-0.525000X0.525000X-0.525000X0.525000X0.525000X-0.525000X0.525000X0*%
%TD*%
%TA.AperFunction,ComponentPad*%
%ADD11RoundRect,0.525000X-0.225000X-0.225000X0.225000X-0.225000X0.225000X0.225000X-0.225000X0.225000X0*%
%TD*%
%TA.AperFunction,ComponentPad*%
%ADD12RoundRect,0.525000X-0.225000X0.225000X-0.225000X-0.225000X0.225000X-0.225000X0.225000X0.225000X0*%
%TD*%
%TA.AperFunction,ComponentPad*%
%ADD13RoundRect,0.525000X0.225000X-0.225000X0.225000X0.225000X-0.225000X0.225000X-0.225000X-0.225000X0*%
%TD*%
%TA.AperFunction,ComponentPad*%
%ADD14C,1.500000*%
%TD*%
%TA.AperFunction,ComponentPad*%
%ADD15C,0.600000*%
%TD*%
%TA.AperFunction,ComponentPad*%
%ADD16O,1.300000X1.500000*%
%TD*%
%TA.AperFunction,ViaPad*%
%ADD17C,0.350000*%
%TD*%
%TA.AperFunction,Conductor*%
%ADD18C,0.150000*%
%TD*%
%TA.AperFunction,Conductor*%
%ADD19C,0.200000*%
%TD*%
G04 APERTURE END LIST*
D10*
%TO.N,I2C_SDA*%
%TO.C,J5*%
X58410599Y-30648400D03*
D11*
%TO.N,I2C_SCL*%
X58410599Y-33188400D03*
%TO.N,+3V3*%
X58410599Y-35728400D03*
%TO.N,LED_GND*%
X58410599Y-38268400D03*
%TD*%
D12*
%TO.N,LED_5V*%
%TO.C,J3*%
X38725599Y-26838400D03*
%TO.N,+3V3*%
X41265599Y-26838400D03*
%TO.N,LED_GND*%
X43805599Y-26838400D03*
%TO.N,-3.5V*%
X46345599Y-26838400D03*
%TO.N,+18V*%
X48885599Y-26838400D03*
%TD*%
D13*
%TO.N,Select_Probe*%
%TO.C,TP6*%
X35550599Y-46523400D03*
%TD*%
D14*
%TO.N,LED_5V*%
%TO.C,U5*%
X36795199Y-29403800D03*
%TO.N,LED_GND*%
X39335199Y-29403800D03*
%TO.N,-3.5V*%
X46955199Y-29403800D03*
%TO.N,LED_GND*%
X49495199Y-29403800D03*
%TO.N,+18V*%
X52035199Y-29403800D03*
%TD*%
D13*
%TO.N,Button_Probe*%
%TO.C,TP7*%
X35550599Y-43983400D03*
%TD*%
%TO.N,Voltage_Probe*%
%TO.C,TP13*%
X35550599Y-41483400D03*
%TD*%
D14*
%TO.N,LED_5V*%
%TO.C,U12*%
X36820599Y-38268400D03*
%TO.N,LED_GND*%
X39360599Y-38268400D03*
%TO.N,-3.5V*%
X46980599Y-38268400D03*
%TO.N,LED_GND*%
X49520599Y-38268400D03*
%TO.N,+18V*%
X52060599Y-38268400D03*
%TD*%
D15*
%TO.N,LED_GND*%
%TO.C,U9*%
X105390599Y-47158400D03*
X105390599Y-48433400D03*
X105390599Y-49708400D03*
X106665599Y-47158400D03*
X106665599Y-48433400D03*
X106665599Y-49708400D03*
X107940599Y-47158400D03*
X107940599Y-48433400D03*
X107940599Y-49708400D03*
%TD*%
D16*
%TO.N,/SWCLK*%
%TO.C,J2*%
X104130599Y-57318400D03*
%TO.N,LED_GND*%
X106670599Y-57318400D03*
%TO.N,/SWD*%
X109210599Y-57318400D03*
%TD*%
D17*
%TO.N,PDN*%
X98306015Y-31775400D03*
%TO.N,LRCK*%
X79992190Y-31856549D03*
%TO.N,SDOUT1*%
X81538390Y-32911280D03*
%TO.N,Net-(U13-Y1)*%
X60874399Y-38954200D03*
%TO.N,SDIN2*%
X80203363Y-30046125D03*
%TO.N,PDN*%
X101042444Y-48569199D03*
%TO.N,LED_GND*%
X70831199Y-30470600D03*
X73331294Y-42092800D03*
%TO.N,LED_5V*%
X81200948Y-34238022D03*
%TO.N,LED_GND*%
X105527599Y-34534600D03*
%TO.N,LED_5V*%
X55895999Y-59325000D03*
%TO.N,LED_GND*%
X98466399Y-52975000D03*
%TO.N,Net-(U2B-+)*%
X69908408Y-38454594D03*
%TO.N,LED_GND*%
X71542399Y-44085000D03*
X111111615Y-36939924D03*
X73145383Y-52304066D03*
X104976130Y-30630331D03*
%TO.N,Net-(U2B-+)*%
X78849732Y-38737889D03*
%TO.N,LED_GND*%
X45646485Y-56179322D03*
%TO.N,LED_5V*%
X56480199Y-24730200D03*
%TO.N,LED_GND*%
X47818799Y-35753800D03*
X73167999Y-37176200D03*
X109083599Y-26965400D03*
%TO.N,Net-(U13-Y2)*%
X60583012Y-39478696D03*
%TO.N,AOUT1R*%
X71679839Y-39924000D03*
%TO.N,TOP_RAIL_POS*%
X75565398Y-56195587D03*
%TO.N,+3V3*%
X47615599Y-32401000D03*
X102581199Y-43018200D03*
X98974399Y-43526200D03*
%TO.N,I2C_SCL*%
X111471199Y-40478200D03*
%TO.N,Net-(U2C-+)*%
X86833199Y-39817800D03*
%TO.N,+3V3*%
X89169999Y-27270200D03*
%TO.N,LED_GND*%
X54067199Y-59020200D03*
X68087999Y-55870600D03*
X53940199Y-24679400D03*
%TO.N,LED_5V*%
X41417999Y-33010600D03*
%TO.N,+3V3*%
X102022399Y-54041800D03*
%TO.N,Net-(U13-Y2)*%
X78096199Y-39488238D03*
%TO.N,SW_D*%
X111826799Y-48403000D03*
%TO.N,AOUT2L*%
X70983599Y-29505400D03*
%TO.N,Net-(U14-Y2)*%
X76421744Y-53807084D03*
%TO.N,-3.5V*%
X60096400Y-54863998D03*
%TO.N,+18V*%
X89322399Y-43018200D03*
%TO.N,AOUT1R*%
X71515799Y-30304054D03*
%TO.N,Y0_B*%
X85140794Y-34239200D03*
%TO.N,SDIN2*%
X98720399Y-49520600D03*
%TO.N,Net-(U2A--)*%
X71167792Y-34799205D03*
%TO.N,CAD{slash}CSN*%
X73095943Y-27439763D03*
%TO.N,SDIN2*%
X96661503Y-29154588D03*
%TO.N,Net-(U4-Center)*%
X42281599Y-46515400D03*
%TO.N,/QSPI_SCLK*%
X104689635Y-41225855D03*
%TO.N,Y0_A*%
X80584799Y-35703000D03*
%TO.N,Net-(U14-Y1)*%
X76419199Y-54489409D03*
%TO.N,CS_A*%
X108626399Y-53686200D03*
%TO.N,CAD{slash}CSN*%
X97958399Y-30877000D03*
%TO.N,/QSPI_SD0*%
X104105199Y-41240200D03*
%TO.N,Y0_B*%
X69459599Y-43881800D03*
%TO.N,Y3_B*%
X72964799Y-44085000D03*
%TO.N,DATA*%
X78729021Y-43855478D03*
X63160399Y-42256200D03*
%TO.N,CS_B*%
X108727999Y-54346600D03*
%TO.N,/QSPI_SD0*%
X98844534Y-29911802D03*
%TO.N,/QSPI_SD2*%
X100370339Y-30639057D03*
%TO.N,/QSPI_SD3*%
X105289423Y-41224606D03*
%TO.N,CS_B*%
X73353120Y-55670587D03*
%TO.N,/QSPI_SCLK*%
X99075999Y-29151526D03*
%TO.N,ADC_0*%
X70881999Y-33815400D03*
%TO.N,CAD{slash}CSN*%
X101445827Y-48125031D03*
%TO.N,Y3_B*%
X86629999Y-43932600D03*
%TO.N,CLK*%
X94852999Y-46342327D03*
%TO.N,RESET*%
X112353160Y-46424834D03*
%TO.N,CS_C*%
X109997999Y-54753000D03*
%TO.N,CS_A*%
X57877199Y-55176400D03*
%TO.N,RESET*%
X59148440Y-43059573D03*
%TO.N,CS_C*%
X88591431Y-54174432D03*
%TO.N,CLK*%
X64785999Y-43983400D03*
%TO.N,/QSPI_SD2*%
X103484008Y-41209408D03*
%TO.N,RESET*%
X72415596Y-44085000D03*
%TO.N,DATA*%
X92776799Y-43526200D03*
%TO.N,CLK*%
X80584799Y-44796200D03*
%TO.N,RESET*%
X88712799Y-43983400D03*
%TO.N,Net-(U2D--)*%
X79548372Y-33711026D03*
%TO.N,Net-(U4-A)*%
X39614599Y-51984400D03*
%TO.N,/QSPI_SS*%
X99176785Y-30762919D03*
X102225599Y-41240200D03*
%TO.N,Net-(U14-Y4)*%
X67884799Y-55057800D03*
X70206526Y-58625898D03*
%TO.N,/QSPI_SS*%
X113146167Y-40070368D03*
%TO.N,/XOUT*%
X106340599Y-53279800D03*
%TO.N,Net-(JP5-C)*%
X88791853Y-33620766D03*
%TO.N,Net-(JP4-C)*%
X88064892Y-33771723D03*
%TO.N,ADC_0_RP*%
X96449399Y-43091589D03*
%TO.N,AOUT2L*%
X102835199Y-29353000D03*
%TO.N,ADC_0_RP*%
X112145930Y-44236661D03*
%TO.N,Y0_C*%
X85156799Y-38395400D03*
%TO.N,Y3_A*%
X58435999Y-42561000D03*
%TO.N,SDOUT1*%
X98722445Y-51144154D03*
%TO.N,SDIN1*%
X96390999Y-29962600D03*
X98780101Y-48923575D03*
%TO.N,Net-(U2C--)*%
X84994631Y-30664032D03*
%TO.N,Y0_C*%
X84394799Y-43170600D03*
%TO.N,Net-(U2B--)*%
X72759200Y-35487000D03*
%TO.N,Net-(U9-GPIO0)*%
X99998599Y-41525655D03*
%TO.N,Net-(U15-Y4)*%
X67966033Y-44249600D03*
%TO.N,Net-(U9-GPIO0)*%
X45481999Y-42103800D03*
%TO.N,TOP_RAIL_POS*%
X60012514Y-54131519D03*
%TO.N,30*%
X72623825Y-51485920D03*
%TO.N,I2C_SCL*%
X96383599Y-41951400D03*
X112080799Y-50638200D03*
X91830399Y-43918716D03*
%TO.N,TOP_RAIL_POS*%
X96180399Y-57293000D03*
X95985999Y-26203400D03*
%TO.N,Net-(U2A-+)*%
X79144338Y-34987889D03*
%TO.N,-3.5V*%
X64430399Y-55464200D03*
%TO.N,+1V1*%
X106492799Y-43221400D03*
%TO.N,+18V*%
X52390799Y-41748200D03*
X78231294Y-43520410D03*
%TO.N,/XIN*%
X105744263Y-53213569D03*
%TO.N,+18V*%
X61296220Y-42276119D03*
%TO.N,Net-(U13-Y1)*%
X60706000Y-32359600D03*
%TO.N,AOUT1L*%
X72039145Y-32670346D03*
%TO.N,30*%
X94396240Y-58461400D03*
%TO.N,+3V3*%
X83763390Y-33625000D03*
X60655200Y-35052000D03*
%TO.N,Net-(U1C--)*%
X86424038Y-41528000D03*
%TO.N,SDOUT1*%
X96340199Y-32719892D03*
%TO.N,LED_OUT*%
X54219599Y-28743400D03*
X54879999Y-59528200D03*
%TO.N,7*%
X71792847Y-49264671D03*
X65649599Y-58461400D03*
X65395599Y-25568400D03*
X57004251Y-48716824D03*
%TO.N,26*%
X83642917Y-52420082D03*
X89525599Y-25543000D03*
X89097701Y-59807400D03*
%TO.N,43*%
X92431064Y-49572013D03*
X72507599Y-59350400D03*
X74588107Y-50149008D03*
X73059466Y-26181046D03*
%TO.N,27*%
X91021557Y-48002017D03*
X90795599Y-25543000D03*
X91384399Y-58430844D03*
X71217313Y-47970612D03*
%TO.N,ADC_3_RP*%
X93293399Y-43373800D03*
%TO.N,18*%
X77919196Y-46704200D03*
X63727329Y-46922773D03*
%TO.N,56*%
X90337200Y-59674809D03*
X86477599Y-47793400D03*
%TO.N,2*%
X59909199Y-49860200D03*
X59045599Y-25441400D03*
X58576218Y-58797114D03*
%TO.N,21*%
X82168907Y-48138243D03*
X83175599Y-25568400D03*
X83026245Y-58630460D03*
%TO.N,36*%
X64216893Y-43975400D03*
X64333281Y-58542082D03*
X64074799Y-26355800D03*
X68261956Y-45241649D03*
%TO.N,14*%
X64523900Y-53339349D03*
X74506884Y-48049294D03*
X74285595Y-25568408D03*
X74107997Y-53828417D03*
X74620387Y-58825903D03*
%TO.N,54*%
X95754953Y-58272691D03*
%TO.N,I2C_SDA*%
X111742261Y-39482307D03*
%TO.N,BOTTOM_RAIL_POS*%
X72962676Y-57549116D03*
%TO.N,54*%
X86934799Y-26254200D03*
X86350599Y-59604400D03*
X95233693Y-26213243D03*
X94724153Y-53971600D03*
%TO.N,55*%
X88154000Y-26203401D03*
X83675188Y-48151136D03*
X87620599Y-59604400D03*
%TO.N,I2C_SDA*%
X112588799Y-51298600D03*
X82718399Y-26965400D03*
%TO.N,LED_DATA_IN*%
X50380776Y-44293775D03*
X111910131Y-46829468D03*
X48224609Y-57421457D03*
%TO.N,34*%
X62185688Y-54329600D03*
X61839599Y-58461400D03*
X80427602Y-53948242D03*
X61483999Y-26305000D03*
%TO.N,29*%
X72664211Y-50485920D03*
X92574682Y-50154574D03*
X93483888Y-58775200D03*
X93211419Y-25493820D03*
%TO.N,8*%
X56910684Y-49309486D03*
%TO.N,28*%
X92384399Y-58444705D03*
X92065599Y-25492200D03*
X91701660Y-48887202D03*
X70741841Y-49427486D03*
%TO.N,37*%
X82449176Y-55153087D03*
X65014607Y-59223400D03*
X65395599Y-26305000D03*
X65685653Y-57735454D03*
X80742006Y-46417886D03*
%TO.N,10*%
X69080847Y-25486448D03*
%TO.N,18*%
X79017999Y-58848390D03*
X79238599Y-25568400D03*
%TO.N,24*%
X86822545Y-59063000D03*
X82859042Y-50610616D03*
X86985599Y-25543000D03*
%TO.N,13*%
X73596983Y-53052443D03*
%TO.N,41*%
X94499954Y-48428400D03*
%TO.N,9*%
X72075313Y-50211464D03*
X67935599Y-25568400D03*
X57031656Y-49897167D03*
X68207934Y-59006014D03*
X66584799Y-55343382D03*
%TO.N,LED_DATA_IN*%
X55286399Y-25390600D03*
%TO.N,13*%
X72959237Y-58853777D03*
X64595599Y-52797425D03*
X73040999Y-25593800D03*
X73533012Y-47556218D03*
%TO.N,42*%
X71745599Y-26305000D03*
%TO.N,39*%
X67833999Y-26355800D03*
%TO.N,3*%
X59842693Y-58853175D03*
X60315599Y-25441400D03*
X60167025Y-50772021D03*
%TO.N,51*%
X83301180Y-26235567D03*
X79700399Y-47891299D03*
X82667599Y-59604400D03*
%TO.N,46*%
X75850263Y-54080849D03*
X94643599Y-52365400D03*
%TO.N,60*%
X94129736Y-25997600D03*
X95113599Y-59096400D03*
X94081342Y-46844457D03*
%TO.N,25*%
X88317188Y-59607400D03*
%TO.N,BOTTOM_RAIL_NEG*%
X71556548Y-52757651D03*
X83378799Y-55210200D03*
X56353199Y-53432200D03*
%TO.N,59*%
X92278038Y-46261400D03*
X93183693Y-26228654D03*
X93791562Y-59290312D03*
%TO.N,4*%
X61585599Y-25568400D03*
%TO.N,15*%
X75709993Y-58917475D03*
X56353199Y-47742600D03*
X75493480Y-47197411D03*
%TO.N,35*%
X68924400Y-45314029D03*
X62703199Y-26406600D03*
X62660399Y-43975400D03*
X63236599Y-58461400D03*
%TO.N,1*%
X59147199Y-48453800D03*
%TO.N,BOTTOM_RAIL_POS*%
X55354199Y-55921400D03*
%TO.N,51*%
X83556599Y-55827800D03*
X86720722Y-53717773D03*
%TO.N,SW_D*%
X49593548Y-51650949D03*
%TO.N,1*%
X57351021Y-58850288D03*
X57648599Y-25441400D03*
%TO.N,12*%
X72096619Y-58685420D03*
X56632599Y-52365400D03*
X72651740Y-52687399D03*
X68865265Y-54047624D03*
X71745599Y-25568400D03*
%TO.N,33*%
X60706457Y-54004575D03*
X80007999Y-52986166D03*
X60569599Y-58522000D03*
X60264799Y-26152600D03*
%TO.N,39*%
X80274257Y-47716113D03*
X82119475Y-56836619D03*
X67149692Y-57931301D03*
X67756237Y-59400949D03*
%TO.N,TOP_RAIL_NEG*%
X96535999Y-25390600D03*
X60213999Y-57547000D03*
X97247199Y-56531000D03*
X89873473Y-57837510D03*
X73777099Y-58219620D03*
%TO.N,53*%
X97383739Y-52758036D03*
X92154597Y-53094936D03*
X85080599Y-59604400D03*
X96663186Y-27854588D03*
X85500787Y-55633815D03*
X85664799Y-26203400D03*
%TO.N,47*%
X88671736Y-57592467D03*
X78095599Y-26254200D03*
X77587599Y-59350400D03*
X87308808Y-48047083D03*
%TO.N,6*%
X63625599Y-58969400D03*
X64125599Y-25568400D03*
X63625599Y-52936635D03*
%TO.N,31*%
X57673999Y-26203400D03*
X58042499Y-58461400D03*
X58283599Y-51349400D03*
X68595999Y-49977800D03*
%TO.N,23*%
X85715599Y-25543000D03*
X83240192Y-49005200D03*
X85834599Y-59088400D03*
%TO.N,38*%
X80160399Y-46565319D03*
X82063113Y-56067278D03*
X66618756Y-57449357D03*
X66165599Y-59223400D03*
X66614799Y-26305000D03*
%TO.N,50*%
X81749906Y-25964638D03*
X79519199Y-54278658D03*
X86721028Y-53010971D03*
X81397599Y-59604400D03*
%TO.N,40*%
X67559876Y-57407296D03*
X68993603Y-26280800D03*
X75758799Y-52271200D03*
X68782845Y-58447069D03*
X75102099Y-58111155D03*
%TO.N,49*%
X80410720Y-26016677D03*
X90135041Y-58321333D03*
X80127599Y-59604400D03*
X89057745Y-48388254D03*
%TO.N,5*%
X62510599Y-51745065D03*
X62403120Y-58997989D03*
X62855599Y-25568400D03*
%TO.N,57*%
X90652277Y-47526465D03*
X91365690Y-59156661D03*
X90744799Y-26203400D03*
%TO.N,16*%
X76360399Y-47915157D03*
X56403999Y-48301400D03*
X76825599Y-25568400D03*
X76709993Y-58826122D03*
%TO.N,17*%
X67818493Y-47238719D03*
X77020759Y-47004200D03*
X78095599Y-25568400D03*
X78087599Y-58842400D03*
%TO.N,32*%
X59299599Y-53127400D03*
X58994799Y-26254200D03*
X59299599Y-58334400D03*
X68214947Y-51958800D03*
%TO.N,22*%
X84498632Y-59218000D03*
X82249749Y-48714624D03*
X84445599Y-25568400D03*
%TO.N,56*%
X89525599Y-26152600D03*
%TO.N,8*%
X67207934Y-59008107D03*
X65641599Y-56480200D03*
X71228931Y-48970612D03*
X66521199Y-25568400D03*
%TO.N,58*%
X92260283Y-47993896D03*
X92573599Y-59223400D03*
X92014799Y-26254202D03*
%TO.N,SW_D*%
X55647643Y-39487999D03*
%TO.N,30*%
X94343599Y-51034200D03*
%TO.N,11*%
X70301887Y-25505741D03*
X56886599Y-51603400D03*
X69545296Y-56258773D03*
X71668387Y-51725142D03*
X70919842Y-58927600D03*
%TO.N,41*%
X70140363Y-59484504D03*
X72801501Y-48973806D03*
X70293603Y-26221132D03*
X71024949Y-26904000D03*
%TO.N,52*%
X84557034Y-26144641D03*
X97824761Y-27481804D03*
X84242399Y-58105800D03*
X97805999Y-57547000D03*
%TO.N,20*%
X61196599Y-46523400D03*
X81781071Y-25365445D03*
X81778599Y-58961400D03*
X78806799Y-48199800D03*
%TO.N,25*%
X88204799Y-25543000D03*
X83320627Y-51940139D03*
%TO.N,10*%
X56886599Y-50714400D03*
X68647454Y-55748809D03*
X69207934Y-58870511D03*
X71676742Y-50659955D03*
%TO.N,44*%
X73777599Y-59350400D03*
X74822672Y-51461861D03*
X94424954Y-50439739D03*
X74336399Y-26254200D03*
%TO.N,46*%
X76190599Y-59477400D03*
X76825599Y-26203400D03*
%TO.N,19*%
X78427357Y-47819399D03*
X80627599Y-58961400D03*
%TO.N,15*%
X75555599Y-25568418D03*
%TO.N,48*%
X89313472Y-58127113D03*
%TO.N,BOTTOM_RAIL_POS*%
X84818199Y-56582400D03*
%TO.N,42*%
X94499954Y-49190400D03*
X73617494Y-49600760D03*
X71245599Y-59350400D03*
%TO.N,45*%
X74920599Y-59350400D03*
X75344799Y-53179621D03*
X92154597Y-51807773D03*
X75555599Y-26305000D03*
%TO.N,BOTTOM_RAIL_POS*%
X87636502Y-55048303D03*
%TO.N,4*%
X61133120Y-58813812D03*
X61585599Y-50976400D03*
%TO.N,19*%
X62791999Y-46469721D03*
X80410720Y-25309570D03*
%TO.N,LED_GND*%
X88306399Y-50638200D03*
X115179599Y-33061400D03*
%TO.N,30*%
X94253038Y-25284708D03*
%TO.N,/QSPI_SD1*%
X102884339Y-41240196D03*
%TO.N,ADC_2*%
X80533999Y-38954200D03*
%TO.N,MCK*%
X80495750Y-33349200D03*
%TO.N,ADC_1*%
X89644892Y-37940773D03*
%TO.N,BICK*%
X99278375Y-33769892D03*
%TO.N,SDIN1*%
X80733674Y-30266833D03*
%TO.N,LRCK*%
X100853999Y-50181000D03*
%TO.N,AOUT2L*%
X72491600Y-42672000D03*
%TO.N,Net-(U15-Y4)*%
X84851999Y-44999400D03*
%TO.N,Net-(U4-D)*%
X43302124Y-51251834D03*
%TO.N,/QSPI_SD1*%
X99774075Y-30705929D03*
%TO.N,Button_Probe*%
X50511199Y-43069000D03*
%TO.N,ADC_2*%
X79060799Y-33518600D03*
%TO.N,Select_Probe*%
X49834800Y-46024800D03*
%TO.N,ADC_2*%
X89322399Y-38903400D03*
%TO.N,Net-(U4-B)*%
X42154599Y-52746400D03*
%TO.N,AOUT2R*%
X73595943Y-28805014D03*
%TO.N,Y3_B*%
X86135771Y-32793629D03*
%TO.N,ADC_2_RP*%
X111506579Y-44866726D03*
%TO.N,ADC_1*%
X69510399Y-40173400D03*
%TO.N,Voltage_Probe*%
X81724408Y-42017023D03*
%TO.N,ADC_1*%
X68978324Y-33813319D03*
%TO.N,Y3_A*%
X57521599Y-28591000D03*
%TO.N,Y3_C*%
X92099444Y-33854843D03*
%TO.N,BICK*%
X80153262Y-32856549D03*
%TO.N,Net-(U14-Y2)*%
X75291572Y-52511081D03*
%TO.N,GPI0_2*%
X99753399Y-46758311D03*
%TO.N,Y3_C*%
X91830399Y-43323000D03*
%TO.N,Y0_A*%
X58123199Y-43577000D03*
%TO.N,LRCK*%
X98974399Y-32451800D03*
%TO.N,Net-(U9-GPIO1)*%
X100096954Y-40398193D03*
%TO.N,SDOUT2*%
X80889599Y-31232600D03*
%TO.N,BICK*%
X100396799Y-49520600D03*
%TO.N,SDOUT2*%
X98771199Y-50485800D03*
%TO.N,ADC_1_RP*%
X111546750Y-44268070D03*
%TO.N,Net-(U9-GPIO1)*%
X46888400Y-40538400D03*
%TO.N,ADC_1_RP*%
X96449399Y-44072711D03*
%TO.N,/QSPI_SD3*%
X98194547Y-28454600D03*
%TO.N,Y3_A*%
X84553245Y-27322954D03*
%TO.N,Y0_B*%
X69002399Y-33213800D03*
%TO.N,PDN*%
X71964431Y-28778568D03*
%TO.N,Net-(JP3-C)*%
X87493599Y-33772600D03*
%TO.N,MCK*%
X99180249Y-34529065D03*
%TO.N,Net-(U4-C)*%
X41138599Y-50587400D03*
%TO.N,AOUT2R*%
X105970915Y-26203400D03*
%TO.N,AOUT1L*%
X72735531Y-42214800D03*
%TO.N,ADC_2_RP*%
X94593399Y-43620062D03*
%TO.N,Y0_A*%
X56759599Y-33975800D03*
%TO.N,MCK*%
X99807999Y-48691569D03*
%TO.N,SDOUT2*%
X96306770Y-31312015D03*
%TO.N,Y0_A*%
X82258368Y-27232227D03*
%TO.N,GPI0_2*%
X115687606Y-55057814D03*
%TO.N,ADC_0*%
X89506096Y-35350483D03*
%TO.N,Net-(U1B--)*%
X85105999Y-39793600D03*
%TO.N,SW_A*%
X98974399Y-47437800D03*
X56212428Y-40337429D03*
%TO.N,+3V3*%
X87493599Y-27151598D03*
X94097599Y-27422600D03*
%TO.N,SW_A*%
X99945599Y-38751000D03*
%TO.N,SW_PUSH*%
X54879999Y-37430200D03*
X111928399Y-54397400D03*
X49923999Y-46879000D03*
X104968799Y-36668200D03*
%TO.N,SW_C*%
X105375199Y-37277800D03*
X48793446Y-53766500D03*
X111582567Y-49123968D03*
X55127416Y-38534093D03*
%TO.N,Net-(U6-AVDRV)*%
X79658573Y-31328034D03*
X68646799Y-27829000D03*
%TO.N,SW_B*%
X48971200Y-54956198D03*
X99607584Y-38036139D03*
X56373465Y-39819055D03*
X98382986Y-47895286D03*
%TO.N,Net-(U2D-+)*%
X78296599Y-41538238D03*
%TO.N,SW_A*%
X46583600Y-55778400D03*
%TO.N,+3V3*%
X89627199Y-34687000D03*
%TO.N,Net-(U1D--)*%
X88255599Y-40173400D03*
%TO.N,I2C_SDA*%
X95832799Y-38954200D03*
%TO.N,LED_GND*%
X71085199Y-57801000D03*
%TO.N,+1V1*%
X111623599Y-43221400D03*
%TO.N,LED_GND*%
X54304199Y-56896457D03*
X49749199Y-56896457D03*
%TO.N,+1V1*%
X107254799Y-53991000D03*
%TO.N,+3V3*%
X112537999Y-43373800D03*
X99228399Y-36312600D03*
X111318799Y-42611800D03*
%TO.N,LED_GND*%
X75367431Y-31604431D03*
%TO.N,ADC_3_RP*%
X110957984Y-45004699D03*
%TO.N,ADC_3*%
X78305009Y-42851661D03*
X77771227Y-33993257D03*
X88407999Y-42510200D03*
%TO.N,Net-(JP2-C)*%
X86825199Y-33721800D03*
%TO.N,Net-(U14-Y1)*%
X74053519Y-52665691D03*
%TO.N,Net-(U1A--)*%
X80290891Y-40027799D03*
%TO.N,SW_D*%
X105933999Y-37735000D03*
%TO.N,48*%
X78857599Y-59477400D03*
X88425653Y-48344454D03*
X79263999Y-26406600D03*
%TD*%
D18*
%TO.N,AOUT2L*%
X72288999Y-41954918D02*
X72288999Y-37984116D01*
X72015799Y-30511161D02*
X72015799Y-30096947D01*
X72491600Y-42672000D02*
X72140296Y-42320696D01*
X71959200Y-33494574D02*
X71593853Y-33129227D01*
X72140296Y-42320696D02*
X72140296Y-42103621D01*
X72140296Y-42103621D02*
X72288999Y-41954918D01*
X71593853Y-30933107D02*
X72015799Y-30511161D01*
X72288999Y-37984116D02*
X72339799Y-37933316D01*
X72339799Y-37933316D02*
X72339799Y-36198970D01*
X72339799Y-36198970D02*
X71959200Y-35818371D01*
X71959200Y-35818371D02*
X71959200Y-33494574D01*
X71593853Y-33129227D02*
X71593853Y-30933107D01*
X72015799Y-30096947D02*
X71424252Y-29505400D01*
X71424252Y-29505400D02*
X70983599Y-29505400D01*
%TO.N,43*%
X73303050Y-27939763D02*
X73185548Y-27939763D01*
%TO.N,47*%
X75669606Y-32468983D02*
X76192431Y-31946158D01*
%TO.N,50*%
X79360399Y-43355485D02*
X79360399Y-42597835D01*
%TO.N,49*%
X78311199Y-55333827D02*
X78419199Y-55225827D01*
%TO.N,19*%
X77159200Y-34312391D02*
X77159200Y-33898177D01*
%TO.N,13*%
X73040999Y-25593800D02*
X73128245Y-25681046D01*
%TO.N,44*%
X74336399Y-26254200D02*
X74059586Y-26531013D01*
%TO.N,13*%
X73792999Y-40270116D02*
X73945399Y-40422516D01*
X73559200Y-35803559D02*
X73710745Y-35955104D01*
%TO.N,46*%
X75993480Y-46990304D02*
X75993480Y-47404518D01*
%TO.N,20*%
X81542799Y-25464638D02*
X81681878Y-25464638D01*
%TO.N,17*%
X75969606Y-33390715D02*
X75959200Y-33401121D01*
%TO.N,16*%
X75792999Y-36088889D02*
X75792999Y-38263511D01*
%TO.N,13*%
X73637198Y-29605014D02*
X73569599Y-29605014D01*
%TO.N,19*%
X78427357Y-47420377D02*
X78504660Y-47343074D01*
%TO.N,49*%
X77405827Y-30503289D02*
X77405827Y-29433172D01*
%TO.N,48*%
X76259200Y-34685183D02*
X76259200Y-33525385D01*
%TO.N,44*%
X74195943Y-27895398D02*
X74073895Y-28017447D01*
%TO.N,47*%
X75669606Y-30542454D02*
X76205827Y-30006233D01*
%TO.N,15*%
X74769603Y-30733336D02*
X74769601Y-30733338D01*
%TO.N,17*%
X78095599Y-25568400D02*
X78595599Y-26068400D01*
%TO.N,43*%
X72964600Y-32489647D02*
X73259200Y-32784247D01*
%TO.N,14*%
X74495943Y-28015231D02*
X74705827Y-28225115D01*
X74169603Y-30484808D02*
X74169601Y-30484810D01*
X74731294Y-42672699D02*
X74545399Y-42858594D01*
%TO.N,13*%
X73945399Y-47143831D02*
X73533012Y-47556218D01*
%TO.N,44*%
X74195943Y-26984128D02*
X74195943Y-27895398D01*
%TO.N,48*%
X76792431Y-32194686D02*
X76792431Y-31014176D01*
%TO.N,47*%
X76192431Y-31262704D02*
X75669606Y-30739879D01*
%TO.N,44*%
X73869601Y-30360546D02*
X73869601Y-30507080D01*
%TO.N,49*%
X77296199Y-38547612D02*
X77292999Y-38544412D01*
%TO.N,13*%
X73569599Y-29605014D02*
X73569599Y-30382818D01*
%TO.N,43*%
X73595943Y-27232656D02*
X73595943Y-27646870D01*
%TO.N,44*%
X74431294Y-42548435D02*
X74245399Y-42734330D01*
%TO.N,19*%
X78504660Y-47185088D02*
X78760399Y-46929349D01*
%TO.N,43*%
X72838399Y-47461380D02*
X74864599Y-49487580D01*
%TO.N,18*%
X76569606Y-33341213D02*
X76718621Y-33490228D01*
%TO.N,48*%
X76419422Y-30641167D02*
X76805827Y-30254761D01*
%TO.N,46*%
X75423910Y-27605089D02*
X75423910Y-27670406D01*
%TO.N,44*%
X74143799Y-39637852D02*
X74296199Y-39790252D01*
%TO.N,AOUT1L*%
X72259200Y-35694107D02*
X72735531Y-36170438D01*
%TO.N,48*%
X76831294Y-40643053D02*
X76696199Y-40507958D01*
%TO.N,44*%
X74296199Y-40556548D02*
X74245399Y-40607348D01*
%TO.N,16*%
X75389339Y-31001600D02*
X75507063Y-31001600D01*
%TO.N,46*%
X75069603Y-30857600D02*
X75069601Y-30857602D01*
%TO.N,43*%
X74864599Y-49487580D02*
X74864599Y-49756820D01*
%TO.N,15*%
X75305827Y-27976587D02*
X75305827Y-29633441D01*
%TO.N,44*%
X74245399Y-47539754D02*
X73793218Y-47991935D01*
%TO.N,17*%
X75969606Y-32593247D02*
X75969606Y-33390715D01*
X76396199Y-40632222D02*
X76531294Y-40767317D01*
%TO.N,46*%
X75069601Y-31004136D02*
X74764600Y-31309137D01*
%TO.N,15*%
X74759200Y-32904065D02*
X74759200Y-35306503D01*
%TO.N,49*%
X77292999Y-35467569D02*
X77059200Y-35233770D01*
%TO.N,13*%
X73945399Y-41575534D02*
X74131294Y-41761429D01*
%TO.N,14*%
X74359200Y-35755031D02*
X74359200Y-36155177D01*
%TO.N,46*%
X76064599Y-50759965D02*
X76858799Y-51554165D01*
%TO.N,16*%
X75892431Y-31386968D02*
X75892431Y-31821894D01*
%TO.N,14*%
X74159200Y-32411455D02*
X74159200Y-35555031D01*
%TO.N,45*%
X74892999Y-37890719D02*
X74743799Y-38039919D01*
%TO.N,15*%
X74464600Y-31868327D02*
X74769601Y-32173328D01*
%TO.N,19*%
X77159200Y-33898177D02*
X77448199Y-33609178D01*
%TO.N,49*%
X76869606Y-33216949D02*
X76869606Y-32966039D01*
%TO.N,45*%
X75005827Y-28100851D02*
X75005827Y-29509177D01*
%TO.N,47*%
X77111199Y-58520221D02*
X77111199Y-54836771D01*
%TO.N,43*%
X73059466Y-26181046D02*
X73185548Y-26307128D01*
%TO.N,46*%
X75059200Y-35182239D02*
X75259200Y-35382239D01*
%TO.N,47*%
X75948199Y-38896668D02*
X75948199Y-38532575D01*
%TO.N,19*%
X80568523Y-26565981D02*
X80949906Y-26184598D01*
%TO.N,14*%
X74169603Y-29921137D02*
X74169603Y-30484808D01*
%TO.N,19*%
X77705827Y-30627553D02*
X77705827Y-29599673D01*
%TO.N,43*%
X73645399Y-44314707D02*
X72838399Y-45121707D01*
%TO.N,48*%
X77391150Y-47340916D02*
X77494196Y-47237870D01*
%TO.N,45*%
X74892999Y-36461681D02*
X74892999Y-37890719D01*
%TO.N,13*%
X74105827Y-28473643D02*
X74105827Y-29136385D01*
%TO.N,46*%
X75259200Y-35979354D02*
X75492999Y-36213153D01*
%TO.N,45*%
X74469603Y-30045401D02*
X74469603Y-30609072D01*
%TO.N,17*%
X76392999Y-38512039D02*
X76248199Y-38656839D01*
%TO.N,AOUT1L*%
X72039145Y-32670346D02*
X72259200Y-32890401D01*
%TO.N,47*%
X77219199Y-54728771D02*
X77219199Y-53214963D01*
%TO.N,49*%
X78120759Y-47144725D02*
X78460399Y-46805085D01*
%TO.N,14*%
X74592999Y-37766455D02*
X74443799Y-37915655D01*
%TO.N,44*%
X75164599Y-49881084D02*
X75054277Y-49991406D01*
%TO.N,14*%
X74359200Y-36155177D02*
X74263199Y-36251178D01*
%TO.N,20*%
X78271227Y-29602937D02*
X80868523Y-27005641D01*
%TO.N,45*%
X76258799Y-51802693D02*
X76258799Y-52478307D01*
%TO.N,16*%
X76293480Y-46866040D02*
X76293480Y-47848238D01*
%TO.N,43*%
X74588107Y-50033312D02*
X74588107Y-50149008D01*
%TO.N,13*%
X73559466Y-25973939D02*
X73559466Y-26771915D01*
%TO.N,44*%
X74405827Y-28349379D02*
X74405827Y-29260649D01*
%TO.N,46*%
X75467999Y-44103283D02*
X75467999Y-46464823D01*
%TO.N,45*%
X74469601Y-32297592D02*
X74469601Y-32769400D01*
%TO.N,43*%
X73259200Y-36547201D02*
X73692999Y-36981000D01*
%TO.N,19*%
X77359200Y-34512391D02*
X77159200Y-34312391D01*
%TO.N,14*%
X74705827Y-29384913D02*
X74169603Y-29921137D01*
%TO.N,50*%
X79360399Y-42597835D02*
X79751199Y-42207035D01*
X78571227Y-29727201D02*
X81749906Y-26548522D01*
%TO.N,14*%
X74443799Y-39513588D02*
X74596199Y-39665988D01*
%TO.N,48*%
X76259200Y-33525385D02*
X76269606Y-33514979D01*
%TO.N,14*%
X74263199Y-36251178D02*
X74263199Y-36256145D01*
%TO.N,43*%
X73692999Y-37393663D02*
X73492999Y-37593663D01*
%TO.N,14*%
X73864600Y-32116855D02*
X74159200Y-32411455D01*
%TO.N,20*%
X79451199Y-38415128D02*
X78271227Y-37235156D01*
%TO.N,43*%
X73692999Y-36981000D02*
X73692999Y-37393663D01*
%TO.N,51*%
X79133573Y-31545497D02*
X79133573Y-31110571D01*
%TO.N,15*%
X75145399Y-43107122D02*
X75145399Y-44204947D01*
%TO.N,45*%
X75464599Y-51008493D02*
X76258799Y-51802693D01*
%TO.N,13*%
X73649631Y-28017447D02*
X74105827Y-28473643D01*
%TO.N,46*%
X75605827Y-27852323D02*
X75605827Y-29757705D01*
%TO.N,16*%
X75359200Y-33152593D02*
X75359200Y-35057975D01*
%TO.N,14*%
X74705827Y-28225115D02*
X74705827Y-29384913D01*
%TO.N,13*%
X73559466Y-26771915D02*
X73895943Y-27108392D01*
%TO.N,17*%
X78595599Y-26068400D02*
X78595599Y-26461307D01*
%TO.N,47*%
X75659200Y-34933711D02*
X75659200Y-33276857D01*
%TO.N,16*%
X77325599Y-26410507D02*
X75905827Y-27830279D01*
%TO.N,44*%
X74296199Y-39790252D02*
X74296199Y-40556548D01*
%TO.N,13*%
X74105827Y-29136385D02*
X73637198Y-29605014D01*
%TO.N,50*%
X79558799Y-53845211D02*
X79558799Y-50435789D01*
%TO.N,45*%
X75005827Y-29509177D02*
X74469603Y-30045401D01*
%TO.N,51*%
X79700399Y-44439735D02*
X79829021Y-44311113D01*
%TO.N,50*%
X79751199Y-38290864D02*
X78571227Y-37110892D01*
%TO.N,47*%
X76092999Y-38387775D02*
X76092999Y-35964625D01*
%TO.N,49*%
X80127599Y-59604400D02*
X80127599Y-58004200D01*
%TO.N,48*%
X77494196Y-46273196D02*
X76667999Y-45446999D01*
%TO.N,13*%
X73945399Y-40422516D02*
X73945399Y-41575534D01*
%TO.N,45*%
X75299559Y-49074012D02*
X75464599Y-49239052D01*
%TO.N,44*%
X73859200Y-35679295D02*
X74059200Y-35879295D01*
%TO.N,46*%
X75069601Y-30857602D02*
X75069601Y-31004136D01*
%TO.N,15*%
X74769601Y-32893664D02*
X74759200Y-32904065D01*
%TO.N,49*%
X77431294Y-43791075D02*
X77431294Y-40394525D01*
%TO.N,17*%
X78595599Y-26461307D02*
X76505827Y-28551079D01*
%TO.N,19*%
X77448199Y-33371278D02*
X77169606Y-33092685D01*
%TO.N,16*%
X76825599Y-25568400D02*
X77325599Y-26068400D01*
%TO.N,18*%
X79238599Y-25568400D02*
X79763999Y-26093800D01*
%TO.N,45*%
X74469601Y-32769400D02*
X74459200Y-32779801D01*
%TO.N,43*%
X73185548Y-26307128D02*
X73185548Y-26822261D01*
X72838399Y-45121707D02*
X72838399Y-47461380D01*
%TO.N,48*%
X78058799Y-51057109D02*
X77391150Y-50389460D01*
%TO.N,47*%
X76092999Y-35964625D02*
X75859200Y-35730826D01*
%TO.N,44*%
X74245399Y-40607348D02*
X74245399Y-41451270D01*
%TO.N,13*%
X73264600Y-30687817D02*
X73264600Y-32365383D01*
%TO.N,18*%
X77131294Y-40518789D02*
X77131294Y-43666811D01*
%TO.N,50*%
X79275399Y-50152389D02*
X79275399Y-47262877D01*
%TO.N,44*%
X73963199Y-36380409D02*
X74292999Y-36710209D01*
%TO.N,46*%
X76064599Y-48990524D02*
X76064599Y-50759965D01*
D19*
%TO.N,LED_GND*%
X73320399Y-42154600D02*
X73320399Y-42103695D01*
D18*
%TO.N,15*%
X75167999Y-46871930D02*
X75493480Y-47197411D01*
%TO.N,18*%
X76759200Y-35358034D02*
X76992999Y-35591833D01*
%TO.N,44*%
X75123323Y-50474666D02*
X74830430Y-50767559D01*
%TO.N,47*%
X76593480Y-47385591D02*
X76593480Y-46221008D01*
%TO.N,13*%
X73128245Y-25681046D02*
X73266573Y-25681046D01*
%TO.N,47*%
X76231294Y-40891581D02*
X76096199Y-40756486D01*
%TO.N,15*%
X75192999Y-36337417D02*
X75192999Y-38014983D01*
%TO.N,13*%
X73992999Y-37517927D02*
X73792999Y-37717927D01*
%TO.N,17*%
X76492431Y-32070422D02*
X75969606Y-32593247D01*
%TO.N,46*%
X75605827Y-29757705D02*
X75069603Y-30293929D01*
%TO.N,45*%
X74459200Y-35430767D02*
X74659200Y-35630767D01*
%TO.N,46*%
X75850263Y-53735371D02*
X75850263Y-54080849D01*
%TO.N,45*%
X74164600Y-31992591D02*
X74469601Y-32297592D01*
%TO.N,15*%
X75145399Y-44204947D02*
X75167999Y-44227547D01*
%TO.N,45*%
X74795943Y-27890967D02*
X75005827Y-28100851D01*
%TO.N,43*%
X73831294Y-42299907D02*
X73645399Y-42485802D01*
%TO.N,18*%
X76718621Y-33490228D02*
X76559200Y-33649649D01*
%TO.N,14*%
X74169601Y-30631344D02*
X73864600Y-30936345D01*
%TO.N,19*%
X77169606Y-33090303D02*
X77692431Y-32567478D01*
%TO.N,ADC_3*%
X77892999Y-34115029D02*
X77892999Y-38287400D01*
%TO.N,16*%
X75507063Y-31001600D02*
X75892431Y-31386968D01*
%TO.N,50*%
X79529021Y-44186849D02*
X79529021Y-43524107D01*
%TO.N,14*%
X74545399Y-40731612D02*
X74545399Y-41327006D01*
X74567999Y-47988179D02*
X74506884Y-48049294D01*
%TO.N,47*%
X77587599Y-59350400D02*
X77587599Y-58996621D01*
%TO.N,18*%
X77919196Y-46273932D02*
X77919196Y-46704200D01*
%TO.N,48*%
X76792431Y-31014176D02*
X76419422Y-30641167D01*
%TO.N,46*%
X75069603Y-30293929D02*
X75069603Y-30857600D01*
%TO.N,44*%
X74245399Y-42734330D02*
X74245399Y-47539754D01*
%TO.N,47*%
X75859200Y-35133711D02*
X75659200Y-34933711D01*
%TO.N,46*%
X75492999Y-38139247D02*
X75348199Y-38284047D01*
%TO.N,19*%
X77692431Y-30640949D02*
X77705827Y-30627553D01*
%TO.N,15*%
X75145399Y-40980140D02*
X75145399Y-41078478D01*
%TO.N,17*%
X76159200Y-35606562D02*
X76392999Y-35840361D01*
%TO.N,43*%
X73259200Y-32784247D02*
X73259200Y-36547201D01*
%TO.N,17*%
X76248199Y-38656839D02*
X76248199Y-38772404D01*
%TO.N,46*%
X75496199Y-39293196D02*
X75496199Y-41005014D01*
%TO.N,51*%
X79297799Y-29424893D02*
X82487125Y-26235567D01*
%TO.N,16*%
X75796199Y-39168932D02*
X75796199Y-40880750D01*
%TO.N,46*%
X76858799Y-51554165D02*
X76858799Y-52726835D01*
%TO.N,15*%
X75192999Y-38014983D02*
X75048199Y-38159783D01*
%TO.N,48*%
X76696199Y-40507958D02*
X76696199Y-38796140D01*
%TO.N,43*%
X73492999Y-37593663D02*
X73492999Y-41592800D01*
%TO.N,17*%
X76392999Y-35840361D02*
X76392999Y-38512039D01*
%TO.N,14*%
X74596199Y-40680812D02*
X74545399Y-40731612D01*
%TO.N,45*%
X74743799Y-38039919D02*
X74743799Y-39389324D01*
%TO.N,46*%
X75069601Y-33017928D02*
X75059200Y-33028329D01*
%TO.N,17*%
X75959200Y-33401121D02*
X75959200Y-34809447D01*
%TO.N,13*%
X73559200Y-32659983D02*
X73559200Y-35803559D01*
%TO.N,16*%
X75892431Y-31821894D02*
X75369601Y-32344724D01*
%TO.N,13*%
X73945399Y-42610066D02*
X73945399Y-47143831D01*
%TO.N,49*%
X77392431Y-32443214D02*
X77392431Y-30516685D01*
%TO.N,47*%
X75859200Y-35730826D02*
X75859200Y-35133711D01*
%TO.N,48*%
X77711199Y-56436328D02*
X77711199Y-55085299D01*
%TO.N,13*%
X73663199Y-36002650D02*
X73663199Y-36504673D01*
%TO.N,16*%
X75792999Y-38263511D02*
X75648199Y-38408311D01*
%TO.N,17*%
X76248199Y-38772404D02*
X76396199Y-38920404D01*
%TO.N,45*%
X74845399Y-41202742D02*
X75031294Y-41388637D01*
%TO.N,47*%
X76096199Y-39044668D02*
X75948199Y-38896668D01*
%TO.N,43*%
X73831294Y-41931095D02*
X73831294Y-42299907D01*
X73492999Y-41592800D02*
X73831294Y-41931095D01*
%TO.N,44*%
X73859200Y-32535719D02*
X73859200Y-35679295D01*
%TO.N,13*%
X74131294Y-41761429D02*
X74131294Y-42424171D01*
%TO.N,47*%
X76096199Y-40756486D02*
X76096199Y-39044668D01*
%TO.N,18*%
X76559200Y-34560919D02*
X76759200Y-34760919D01*
%TO.N,48*%
X76269605Y-32717512D02*
X76792431Y-32194686D01*
%TO.N,47*%
X77111199Y-54836771D02*
X77219199Y-54728771D01*
%TO.N,45*%
X75031294Y-41388637D02*
X75031294Y-42796963D01*
%TO.N,18*%
X77105827Y-30379025D02*
X76843686Y-30641167D01*
%TO.N,48*%
X78857599Y-59477400D02*
X78565608Y-59185409D01*
X78565608Y-57290737D02*
X77711199Y-56436328D01*
%TO.N,45*%
X75555599Y-26305000D02*
X74795943Y-27064656D01*
%TO.N,17*%
X76531294Y-40767317D02*
X76531294Y-43418283D01*
%TO.N,18*%
X76967999Y-45322735D02*
X77919196Y-46273932D01*
%TO.N,44*%
X73869603Y-30360544D02*
X73869601Y-30360546D01*
%TO.N,18*%
X76996199Y-40383694D02*
X77131294Y-40518789D01*
%TO.N,44*%
X74292999Y-37642191D02*
X74143799Y-37791391D01*
%TO.N,14*%
X74545399Y-41327006D02*
X74731294Y-41512901D01*
%TO.N,43*%
X73595943Y-27646870D02*
X73303050Y-27939763D01*
%TO.N,44*%
X73963199Y-36126914D02*
X73963199Y-36380409D01*
%TO.N,14*%
X74430816Y-26794738D02*
X74495943Y-26859864D01*
%TO.N,15*%
X75145399Y-41078478D02*
X75331294Y-41264373D01*
%TO.N,46*%
X75467999Y-46464823D02*
X75993480Y-46990304D01*
%TO.N,44*%
X74405827Y-29260649D02*
X73869603Y-29796873D01*
%TO.N,14*%
X74731294Y-41512901D02*
X74731294Y-42672699D01*
%TO.N,45*%
X74896199Y-40805076D02*
X74845399Y-40855876D01*
%TO.N,47*%
X76231294Y-43294019D02*
X76231294Y-40891581D01*
%TO.N,16*%
X75745399Y-43355650D02*
X75745399Y-43956419D01*
%TO.N,13*%
X74131294Y-42424171D02*
X73945399Y-42610066D01*
%TO.N,ADC_3*%
X78697199Y-39237889D02*
X78697199Y-42459471D01*
%TO.N,44*%
X74059200Y-35879295D02*
X74059200Y-36030913D01*
%TO.N,17*%
X76531294Y-43418283D02*
X76367999Y-43581578D01*
%TO.N,15*%
X74769603Y-30169665D02*
X74769603Y-30733336D01*
%TO.N,16*%
X75905827Y-27830279D02*
X75905827Y-29881969D01*
%TO.N,46*%
X75445399Y-43231386D02*
X75445399Y-44080683D01*
%TO.N,15*%
X74959200Y-36103618D02*
X75192999Y-36337417D01*
%TO.N,46*%
X74764600Y-31744063D02*
X75069601Y-32049064D01*
%TO.N,15*%
X75095943Y-27766703D02*
X75305827Y-27976587D01*
D19*
%TO.N,LED_GND*%
X73320399Y-42103695D02*
X73331294Y-42092800D01*
D18*
%TO.N,51*%
X79297799Y-32750825D02*
X79297799Y-31709723D01*
%TO.N,43*%
X73645399Y-42485802D02*
X73645399Y-44314707D01*
%TO.N,15*%
X75167999Y-44227547D02*
X75167999Y-46871930D01*
%TO.N,45*%
X75464599Y-49239052D02*
X75464599Y-51008493D01*
%TO.N,14*%
X74567999Y-44476075D02*
X74567999Y-47988179D01*
%TO.N,46*%
X75496199Y-41005014D02*
X75631294Y-41140109D01*
%TO.N,44*%
X74830430Y-51454103D02*
X74822672Y-51461861D01*
%TO.N,16*%
X76119196Y-46691756D02*
X76293480Y-46866040D01*
%TO.N,49*%
X77059200Y-34636655D02*
X76859200Y-34436655D01*
%TO.N,20*%
X81304749Y-26254019D02*
X81304749Y-26226588D01*
%TO.N,14*%
X73864600Y-30936345D02*
X73864600Y-32116855D01*
%TO.N,15*%
X75331294Y-42921227D02*
X75145399Y-43107122D01*
%TO.N,13*%
X73895943Y-27771134D02*
X73649631Y-28017447D01*
%TO.N,50*%
X79529021Y-43524107D02*
X79360399Y-43355485D01*
%TO.N,44*%
X73793218Y-47991935D02*
X75164599Y-49363316D01*
%TO.N,20*%
X79451199Y-42082771D02*
X79451199Y-38415128D01*
%TO.N,19*%
X77169606Y-33092685D02*
X77169606Y-33090303D01*
%TO.N,15*%
X75305827Y-29633441D02*
X74769603Y-30169665D01*
%TO.N,43*%
X73185548Y-26822261D02*
X73595943Y-27232656D01*
%TO.N,14*%
X74263199Y-36256145D02*
X74592999Y-36585945D01*
%TO.N,43*%
X73185548Y-27939763D02*
X72964600Y-28160711D01*
%TO.N,19*%
X80949906Y-26184598D02*
X80949906Y-25848756D01*
%TO.N,ADC_3*%
X78349732Y-38890422D02*
X78697199Y-39237889D01*
%TO.N,46*%
X75911199Y-48837124D02*
X76064599Y-48990524D01*
%TO.N,44*%
X73564600Y-32241119D02*
X73859200Y-32535719D01*
%TO.N,43*%
X72964600Y-28160711D02*
X72964600Y-32489647D01*
%TO.N,13*%
X73895943Y-27108392D02*
X73895943Y-27771134D01*
%TO.N,50*%
X79322275Y-54081734D02*
X79558799Y-53845211D01*
%TO.N,13*%
X73569599Y-30382818D02*
X73264600Y-30687817D01*
X73663199Y-36504673D02*
X73992999Y-36834473D01*
X73710745Y-35955104D02*
X73663199Y-36002650D01*
%TO.N,19*%
X77731294Y-40270261D02*
X77596199Y-40135166D01*
%TO.N,13*%
X73792999Y-37717927D02*
X73792999Y-40270116D01*
%TO.N,15*%
X76055599Y-26512107D02*
X75095943Y-27471763D01*
%TO.N,44*%
X74059586Y-26847771D02*
X74195943Y-26984128D01*
X74292999Y-36710209D02*
X74292999Y-37642191D01*
X74830430Y-50767559D02*
X74830430Y-51454103D01*
%TO.N,45*%
X74469603Y-30609072D02*
X74469601Y-30609074D01*
%TO.N,44*%
X74143799Y-37791391D02*
X74143799Y-39637852D01*
X74245399Y-41451270D02*
X74431294Y-41637165D01*
%TO.N,51*%
X79700399Y-43271221D02*
X79700399Y-42682099D01*
%TO.N,44*%
X74431294Y-41637165D02*
X74431294Y-42548435D01*
%TO.N,47*%
X76785399Y-50632237D02*
X76785399Y-47577510D01*
%TO.N,44*%
X75123323Y-50060452D02*
X75123323Y-50474666D01*
%TO.N,13*%
X73992999Y-36834473D02*
X73992999Y-37517927D01*
%TO.N,14*%
X74285595Y-25568408D02*
X74836399Y-26119212D01*
%TO.N,44*%
X73869603Y-29796873D02*
X73869603Y-30360544D01*
%TO.N,45*%
X74845399Y-44329211D02*
X74867999Y-44351811D01*
%TO.N,51*%
X79700399Y-42682099D02*
X81240399Y-41142099D01*
%TO.N,14*%
X74836399Y-26389155D02*
X74430816Y-26794738D01*
%TO.N,20*%
X79060399Y-47053613D02*
X79060399Y-44231207D01*
%TO.N,14*%
X74596199Y-39665988D02*
X74596199Y-40680812D01*
%TO.N,16*%
X75369601Y-33142192D02*
X75359200Y-33152593D01*
%TO.N,45*%
X74795943Y-27064656D02*
X74795943Y-27890967D01*
%TO.N,17*%
X75995158Y-30641167D02*
X76492431Y-31138440D01*
%TO.N,45*%
X74469601Y-30609074D02*
X74469601Y-30755608D01*
%TO.N,43*%
X74864599Y-49756820D02*
X74588107Y-50033312D01*
%TO.N,48*%
X77391150Y-50389460D02*
X77391150Y-47340916D01*
%TO.N,13*%
X73266573Y-25681046D02*
X73559466Y-25973939D01*
%TO.N,45*%
X74459200Y-32779801D02*
X74459200Y-35430767D01*
%TO.N,51*%
X80134446Y-33587472D02*
X79297799Y-32750825D01*
%TO.N,45*%
X74659200Y-35630767D02*
X74659200Y-36227882D01*
X74659200Y-36227882D02*
X74892999Y-36461681D01*
X74743799Y-39389324D02*
X74896199Y-39541724D01*
%TO.N,18*%
X76759200Y-34760919D02*
X76759200Y-35358034D01*
%TO.N,50*%
X81749906Y-26548522D02*
X81749906Y-25964638D01*
%TO.N,45*%
X74845399Y-40855876D02*
X74845399Y-41202742D01*
X75031294Y-42796963D02*
X74845399Y-42982858D01*
%TO.N,20*%
X78900399Y-47213613D02*
X79060399Y-47053613D01*
%TO.N,19*%
X77448199Y-33609178D02*
X77448199Y-33371278D01*
%TO.N,44*%
X73564600Y-30812081D02*
X73564600Y-32241119D01*
%TO.N,45*%
X74896199Y-39541724D02*
X74896199Y-40805076D01*
%TO.N,48*%
X76459200Y-34885183D02*
X76259200Y-34685183D01*
%TO.N,45*%
X74845399Y-42982858D02*
X74845399Y-44329211D01*
%TO.N,48*%
X77819199Y-54977299D02*
X77819199Y-53463491D01*
%TO.N,45*%
X74867999Y-44351811D02*
X74867999Y-47563000D01*
X74867999Y-47563000D02*
X75299559Y-47994560D01*
%TO.N,15*%
X75048199Y-38159783D02*
X75048199Y-39269460D01*
%TO.N,45*%
X75299559Y-47994560D02*
X75299559Y-49074012D01*
%TO.N,51*%
X82487125Y-26235567D02*
X83301180Y-26235567D01*
%TO.N,14*%
X74592999Y-36585945D02*
X74592999Y-37766455D01*
%TO.N,45*%
X76258799Y-52478307D02*
X75557485Y-53179621D01*
X75557485Y-53179621D02*
X75344799Y-53179621D01*
%TO.N,46*%
X75423910Y-27670406D02*
X75605827Y-27852323D01*
%TO.N,15*%
X75095943Y-27471763D02*
X75095943Y-27766703D01*
%TO.N,ADC_3*%
X78349732Y-38744133D02*
X78349732Y-38890422D01*
%TO.N,51*%
X81240399Y-41142099D02*
X81240399Y-37509136D01*
%TO.N,15*%
X74769601Y-30733338D02*
X74769601Y-30879872D01*
%TO.N,14*%
X74495943Y-26859864D02*
X74495943Y-28015231D01*
%TO.N,15*%
X74769601Y-30879872D02*
X74464600Y-31184873D01*
%TO.N,46*%
X75348199Y-39145196D02*
X75496199Y-39293196D01*
%TO.N,44*%
X74059200Y-36030913D02*
X73963199Y-36126914D01*
%TO.N,AOUT1L*%
X72259200Y-32890401D02*
X72259200Y-35694107D01*
%TO.N,15*%
X74464600Y-31184873D02*
X74464600Y-31868327D01*
%TO.N,13*%
X73264600Y-32365383D02*
X73559200Y-32659983D01*
%TO.N,49*%
X77267999Y-45198471D02*
X77267999Y-43954370D01*
%TO.N,15*%
X74769601Y-32173328D02*
X74769601Y-32893664D01*
X75196199Y-40929340D02*
X75145399Y-40980140D01*
%TO.N,46*%
X74764600Y-31309137D02*
X74764600Y-31744063D01*
%TO.N,48*%
X76696199Y-38796140D02*
X76692999Y-38792940D01*
%TO.N,49*%
X77296199Y-40259430D02*
X77296199Y-38547612D01*
%TO.N,46*%
X76825599Y-26203400D02*
X75423910Y-27605089D01*
%TO.N,45*%
X74164600Y-31060609D02*
X74164600Y-31992591D01*
%TO.N,14*%
X74836399Y-26119212D02*
X74836399Y-26389155D01*
%TO.N,46*%
X75059200Y-33028329D02*
X75059200Y-35182239D01*
%TO.N,18*%
X76569606Y-32841775D02*
X76569606Y-33341213D01*
%TO.N,46*%
X75259200Y-35382239D02*
X75259200Y-35979354D01*
%TO.N,AOUT1L*%
X72735531Y-36170438D02*
X72735531Y-42214800D01*
%TO.N,46*%
X75492999Y-36213153D02*
X75492999Y-38139247D01*
%TO.N,20*%
X80868523Y-27005641D02*
X80868523Y-26690245D01*
%TO.N,46*%
X75631294Y-41140109D02*
X75631294Y-43045491D01*
X75631294Y-43045491D02*
X75445399Y-43231386D01*
X75445399Y-44080683D02*
X75467999Y-44103283D01*
%TO.N,16*%
X75796199Y-40880750D02*
X75931294Y-41015845D01*
%TO.N,48*%
X77494196Y-47237870D02*
X77494196Y-46273196D01*
%TO.N,46*%
X76858799Y-52726835D02*
X75850263Y-53735371D01*
%TO.N,45*%
X74469601Y-30755608D02*
X74164600Y-31060609D01*
%TO.N,14*%
X74443799Y-37915655D02*
X74443799Y-39513588D01*
%TO.N,16*%
X77325599Y-26068400D02*
X77325599Y-26410507D01*
X75905827Y-29881969D02*
X75369603Y-30418193D01*
%TO.N,14*%
X74545399Y-42858594D02*
X74545399Y-44453475D01*
%TO.N,16*%
X75369603Y-30418193D02*
X75369603Y-30981864D01*
X75369603Y-30981864D02*
X75389339Y-31001600D01*
%TO.N,19*%
X77567999Y-45074207D02*
X77567999Y-44078634D01*
%TO.N,16*%
X75369601Y-32344724D02*
X75369601Y-33142192D01*
X75559200Y-35257975D02*
X75559200Y-35855090D01*
%TO.N,20*%
X78271227Y-37235156D02*
X78271227Y-29602937D01*
%TO.N,14*%
X74545399Y-44453475D02*
X74567999Y-44476075D01*
%TO.N,50*%
X78571227Y-37110892D02*
X78571227Y-29727201D01*
%TO.N,16*%
X75559200Y-35855090D02*
X75792999Y-36088889D01*
%TO.N,18*%
X76992999Y-38668676D02*
X76996199Y-38671876D01*
%TO.N,16*%
X75648199Y-38408311D02*
X75648199Y-39020932D01*
X75648199Y-39020932D02*
X75796199Y-39168932D01*
%TO.N,17*%
X76367999Y-43581578D02*
X76367999Y-45571263D01*
%TO.N,15*%
X75048199Y-39269460D02*
X75196199Y-39417460D01*
%TO.N,46*%
X75911199Y-47486799D02*
X75911199Y-48837124D01*
%TO.N,48*%
X76667999Y-43705842D02*
X76831294Y-43542547D01*
%TO.N,46*%
X75348199Y-38284047D02*
X75348199Y-39145196D01*
%TO.N,16*%
X75359200Y-35057975D02*
X75559200Y-35257975D01*
%TO.N,18*%
X77131294Y-43666811D02*
X76967999Y-43830106D01*
%TO.N,16*%
X75931294Y-41015845D02*
X75931294Y-43169755D01*
%TO.N,15*%
X75196199Y-39417460D02*
X75196199Y-40929340D01*
%TO.N,16*%
X75767999Y-43979019D02*
X75767999Y-45819791D01*
X76119196Y-46170988D02*
X76119196Y-46691756D01*
%TO.N,50*%
X79275399Y-47262877D02*
X79360399Y-47177877D01*
%TO.N,47*%
X77587599Y-58996621D02*
X77111199Y-58520221D01*
X77458799Y-52975363D02*
X77458799Y-51305637D01*
X77458799Y-51305637D02*
X76785399Y-50632237D01*
X76785399Y-47577510D02*
X76593480Y-47385591D01*
X76593480Y-46221008D02*
X76067999Y-45695527D01*
X75948199Y-38532575D02*
X76092999Y-38387775D01*
X75659200Y-33276857D02*
X75669606Y-33266451D01*
X75669606Y-33266451D02*
X75669606Y-32468983D01*
%TO.N,50*%
X79751199Y-42207035D02*
X79751199Y-38290864D01*
%TO.N,47*%
X76192431Y-31946158D02*
X76192431Y-31262704D01*
X76205827Y-28143972D02*
X78095599Y-26254200D01*
%TO.N,19*%
X77592999Y-38420148D02*
X77592999Y-35343305D01*
%TO.N,49*%
X80268523Y-26570476D02*
X80268523Y-26158874D01*
%TO.N,17*%
X76505827Y-28551079D02*
X76505827Y-30130497D01*
%TO.N,18*%
X79763999Y-26543664D02*
X77105827Y-29201836D01*
%TO.N,48*%
X76692999Y-38792940D02*
X76692999Y-35716097D01*
%TO.N,17*%
X76505827Y-30130497D02*
X75995158Y-30641167D01*
X76492431Y-31138440D02*
X76492431Y-32070422D01*
%TO.N,18*%
X77092431Y-30889912D02*
X77092431Y-32318950D01*
%TO.N,19*%
X80568523Y-26736977D02*
X80568523Y-26565981D01*
%TO.N,17*%
X76159200Y-35009447D02*
X76159200Y-35606562D01*
%TO.N,49*%
X76869606Y-32966039D02*
X77392431Y-32443214D01*
%TO.N,17*%
X76367999Y-45571263D02*
X77020759Y-46224023D01*
%TO.N,49*%
X77405827Y-29433172D02*
X80268523Y-26570476D01*
%TO.N,17*%
X77020759Y-46224023D02*
X77020759Y-47004200D01*
%TO.N,19*%
X77731294Y-43915339D02*
X77731294Y-40270261D01*
%TO.N,48*%
X78565608Y-59185409D02*
X78565608Y-57290737D01*
%TO.N,19*%
X77359200Y-35109506D02*
X77359200Y-34512391D01*
%TO.N,48*%
X77711199Y-55085299D02*
X77819199Y-54977299D01*
%TO.N,19*%
X77692431Y-32567478D02*
X77692431Y-30640949D01*
%TO.N,48*%
X77819199Y-53463491D02*
X78058799Y-53223891D01*
X76667999Y-45446999D02*
X76667999Y-43705842D01*
X76459200Y-35482298D02*
X76459200Y-34885183D01*
X76269606Y-33514979D02*
X76269605Y-32717512D01*
%TO.N,49*%
X77292999Y-38544412D02*
X77292999Y-35467569D01*
%TO.N,14*%
X74169601Y-30484810D02*
X74169601Y-30631344D01*
%TO.N,18*%
X76843686Y-30641167D02*
X77092431Y-30889912D01*
X79763999Y-26093800D02*
X79763999Y-26543664D01*
%TO.N,44*%
X74073895Y-28017447D02*
X74405827Y-28349379D01*
%TO.N,51*%
X79133573Y-31110571D02*
X79297799Y-30946345D01*
%TO.N,18*%
X76559200Y-33649649D02*
X76559200Y-34560919D01*
%TO.N,49*%
X80268523Y-26158874D02*
X80410720Y-26016677D01*
%TO.N,19*%
X77567999Y-44078634D02*
X77731294Y-43915339D01*
%TO.N,50*%
X79360399Y-44355471D02*
X79529021Y-44186849D01*
%TO.N,18*%
X76996199Y-38671876D02*
X76996199Y-40383694D01*
X76967999Y-43830106D02*
X76967999Y-45322735D01*
%TO.N,14*%
X74159200Y-35555031D02*
X74359200Y-35755031D01*
%TO.N,20*%
X79229021Y-43648371D02*
X79060399Y-43479749D01*
%TO.N,49*%
X80127599Y-58004200D02*
X78311199Y-56187800D01*
%TO.N,47*%
X75669606Y-30739879D02*
X75669606Y-30542454D01*
%TO.N,51*%
X79700399Y-47891299D02*
X79700399Y-44439735D01*
%TO.N,49*%
X78311199Y-56187800D02*
X78311199Y-55333827D01*
X78658799Y-53472419D02*
X78658799Y-50808581D01*
X78419199Y-55225827D02*
X78419199Y-53712019D01*
%TO.N,19*%
X78504660Y-47343074D02*
X78504660Y-47185088D01*
%TO.N,49*%
X78419199Y-53712019D02*
X78658799Y-53472419D01*
X78658799Y-50808581D02*
X77991150Y-50140932D01*
X77991150Y-50140932D02*
X77991150Y-47589444D01*
%TO.N,20*%
X79060399Y-43479749D02*
X79060399Y-42473571D01*
%TO.N,16*%
X75767999Y-45819791D02*
X76119196Y-46170988D01*
%TO.N,49*%
X77991150Y-47589444D02*
X78120759Y-47459835D01*
%TO.N,20*%
X81681878Y-25464638D02*
X81781071Y-25365445D01*
%TO.N,48*%
X76692999Y-35716097D02*
X76459200Y-35482298D01*
%TO.N,19*%
X77596199Y-38423348D02*
X77592999Y-38420148D01*
%TO.N,49*%
X78120759Y-47459835D02*
X78120759Y-47144725D01*
X78460399Y-46390871D02*
X77267999Y-45198471D01*
%TO.N,20*%
X78900399Y-48106200D02*
X78900399Y-47213613D01*
%TO.N,49*%
X77142885Y-33490228D02*
X76869606Y-33216949D01*
%TO.N,20*%
X79060399Y-44231207D02*
X79229021Y-44062585D01*
%TO.N,19*%
X78427357Y-47819399D02*
X78427357Y-47420377D01*
%TO.N,15*%
X75331294Y-41264373D02*
X75331294Y-42921227D01*
%TO.N,49*%
X78460399Y-46805085D02*
X78460399Y-46390871D01*
%TO.N,50*%
X79558799Y-50435789D02*
X79275399Y-50152389D01*
%TO.N,19*%
X78760399Y-46929349D02*
X78760399Y-46266607D01*
%TO.N,ADC_3*%
X77892999Y-38287400D02*
X78349732Y-38744133D01*
%TO.N,15*%
X74759200Y-35306503D02*
X74959200Y-35506503D01*
%TO.N,19*%
X78760399Y-46266607D02*
X77567999Y-45074207D01*
%TO.N,18*%
X76992999Y-35591833D02*
X76992999Y-38668676D01*
%TO.N,19*%
X77705827Y-29599673D02*
X80568523Y-26736977D01*
X80949906Y-25848756D02*
X80410720Y-25309570D01*
%TO.N,49*%
X76859200Y-33773913D02*
X77142885Y-33490228D01*
%TO.N,44*%
X75054277Y-49991406D02*
X75123323Y-50060452D01*
%TO.N,ADC_3*%
X78697199Y-42459471D02*
X78305009Y-42851661D01*
%TO.N,19*%
X77596199Y-40135166D02*
X77596199Y-38423348D01*
%TO.N,ADC_3*%
X77771227Y-33993257D02*
X77892999Y-34115029D01*
%TO.N,16*%
X75745399Y-43956419D02*
X75767999Y-43979019D01*
%TO.N,47*%
X76067999Y-45695527D02*
X76067999Y-43457314D01*
%TO.N,44*%
X73869601Y-30507080D02*
X73564600Y-30812081D01*
%TO.N,48*%
X76805827Y-28864772D02*
X79263999Y-26406600D01*
%TO.N,20*%
X78806799Y-48199800D02*
X78900399Y-48106200D01*
X81304749Y-26226588D02*
X81249906Y-26171745D01*
X81249906Y-25757531D02*
X81542799Y-25464638D01*
%TO.N,17*%
X76396199Y-38920404D02*
X76396199Y-40632222D01*
%TO.N,49*%
X77059200Y-35233770D02*
X77059200Y-34636655D01*
%TO.N,50*%
X79519199Y-54278658D02*
X79322275Y-54081734D01*
%TO.N,51*%
X79297799Y-30946345D02*
X79297799Y-29424893D01*
%TO.N,50*%
X79360399Y-47177877D02*
X79360399Y-44355471D01*
%TO.N,51*%
X79829021Y-44311113D02*
X79829021Y-43399843D01*
X79829021Y-43399843D02*
X79700399Y-43271221D01*
X81240399Y-37509136D02*
X80134446Y-36403183D01*
X80134446Y-36403183D02*
X80134446Y-33587472D01*
%TO.N,19*%
X77592999Y-35343305D02*
X77359200Y-35109506D01*
%TO.N,48*%
X76831294Y-43542547D02*
X76831294Y-40643053D01*
%TO.N,16*%
X76293480Y-47848238D02*
X76360399Y-47915157D01*
%TO.N,49*%
X77431294Y-40394525D02*
X77296199Y-40259430D01*
%TO.N,15*%
X75555599Y-25568418D02*
X76055599Y-26068418D01*
%TO.N,49*%
X77392431Y-30516685D02*
X77405827Y-30503289D01*
%TO.N,20*%
X79060399Y-42473571D02*
X79451199Y-42082771D01*
%TO.N,47*%
X76205827Y-30006233D02*
X76205827Y-28143972D01*
%TO.N,49*%
X77267999Y-43954370D02*
X77431294Y-43791075D01*
%TO.N,20*%
X81249906Y-26171745D02*
X81249906Y-25757531D01*
%TO.N,46*%
X75069601Y-32049064D02*
X75069601Y-33017928D01*
%TO.N,44*%
X74059586Y-26531013D02*
X74059586Y-26847771D01*
%TO.N,18*%
X77105827Y-29201836D02*
X77105827Y-30379025D01*
%TO.N,20*%
X80868523Y-26690245D02*
X81304749Y-26254019D01*
%TO.N,17*%
X75959200Y-34809447D02*
X76159200Y-35009447D01*
%TO.N,15*%
X76055599Y-26068418D02*
X76055599Y-26512107D01*
%TO.N,47*%
X77219199Y-53214963D02*
X77458799Y-52975363D01*
%TO.N,51*%
X79297799Y-31709723D02*
X79133573Y-31545497D01*
%TO.N,20*%
X79229021Y-44062585D02*
X79229021Y-43648371D01*
%TO.N,48*%
X76805827Y-30254761D02*
X76805827Y-28864772D01*
%TO.N,46*%
X75993480Y-47404518D02*
X75911199Y-47486799D01*
%TO.N,48*%
X78058799Y-53223891D02*
X78058799Y-51057109D01*
%TO.N,16*%
X75931294Y-43169755D02*
X75745399Y-43355650D01*
%TO.N,47*%
X76067999Y-43457314D02*
X76231294Y-43294019D01*
%TO.N,18*%
X77092431Y-32318950D02*
X76569606Y-32841775D01*
%TO.N,44*%
X75164599Y-49363316D02*
X75164599Y-49881084D01*
%TO.N,49*%
X76859200Y-34436655D02*
X76859200Y-33773913D01*
%TO.N,15*%
X74959200Y-35506503D02*
X74959200Y-36103618D01*
%TO.N,SW_C*%
X50634800Y-47720599D02*
X48793446Y-49561953D01*
%TO.N,SW_PUSH*%
X53375199Y-38935000D02*
X53375199Y-41962344D01*
%TO.N,SW_B*%
X51234800Y-45375535D02*
X51234800Y-52692598D01*
%TO.N,SW_D*%
X50934800Y-45251271D02*
X53975199Y-42210872D01*
%TO.N,SW_C*%
X50634800Y-45127007D02*
X50634800Y-47720599D01*
%TO.N,SW_B*%
X55712428Y-40897907D02*
X51234800Y-45375535D01*
%TO.N,SW_PUSH*%
X50334800Y-45002743D02*
X50334800Y-46468199D01*
%TO.N,SW_D*%
X53975199Y-41160443D02*
X55647643Y-39487999D01*
%TO.N,SW_C*%
X48793446Y-49561953D02*
X48793446Y-53766500D01*
%TO.N,SW_D*%
X50934800Y-50309697D02*
X50934800Y-45251271D01*
%TO.N,SW_B*%
X55712428Y-40130322D02*
X55712428Y-40897907D01*
%TO.N,SW_C*%
X53675199Y-39986310D02*
X53675199Y-42086608D01*
%TO.N,SW_D*%
X49593548Y-51650949D02*
X50934800Y-50309697D01*
%TO.N,SW_PUSH*%
X54879999Y-37430200D02*
X53375199Y-38935000D01*
%TO.N,SW_B*%
X56023695Y-39819055D02*
X55712428Y-40130322D01*
X56373465Y-39819055D02*
X56023695Y-39819055D01*
%TO.N,SW_PUSH*%
X50334800Y-46468199D02*
X49923999Y-46879000D01*
%TO.N,SW_C*%
X53675199Y-42086608D02*
X50634800Y-45127007D01*
%TO.N,SW_B*%
X51234800Y-52692598D02*
X48971200Y-54956198D01*
%TO.N,SW_D*%
X53975199Y-42210872D02*
X53975199Y-41160443D01*
%TO.N,SW_PUSH*%
X53375199Y-41962344D02*
X50334800Y-45002743D01*
%TO.N,SW_C*%
X55127416Y-38534093D02*
X53675199Y-39986310D01*
%TO.N,2*%
X59693797Y-35462873D02*
X59693797Y-42473559D01*
%TO.N,32*%
X59993797Y-35587137D02*
X60094799Y-35486135D01*
%TO.N,2*%
X60192970Y-49860200D02*
X59909199Y-49860200D01*
X59794799Y-28611136D02*
X59794799Y-35361871D01*
%TO.N,32*%
X60094799Y-28486872D02*
X58994799Y-27386872D01*
X60171220Y-43592428D02*
X60248440Y-43515208D01*
X60094799Y-35486135D02*
X60094799Y-28486872D01*
X59993797Y-42349295D02*
X59993797Y-35587137D01*
X58994799Y-27386872D02*
X58994799Y-26254200D01*
%TO.N,2*%
X59871220Y-43468164D02*
X59871220Y-47081250D01*
%TO.N,31*%
X59393797Y-42597823D02*
X59393797Y-28634398D01*
%TO.N,32*%
X60130413Y-50347021D02*
X61212399Y-49265035D01*
X59299599Y-51038406D02*
X59990984Y-50347021D01*
X60171220Y-46956986D02*
X60171220Y-43592428D01*
X60248440Y-43515208D02*
X60248440Y-42603938D01*
%TO.N,31*%
X59571220Y-43343900D02*
X59648440Y-43266680D01*
X58283599Y-50684907D02*
X59571220Y-49397286D01*
%TO.N,2*%
X60912399Y-48122429D02*
X60912399Y-49140771D01*
X59871220Y-47081250D02*
X60912399Y-48122429D01*
%TO.N,31*%
X59648440Y-42852466D02*
X59393797Y-42597823D01*
%TO.N,32*%
X59990984Y-50347021D02*
X60130413Y-50347021D01*
%TO.N,31*%
X57673999Y-26914600D02*
X57673999Y-26203400D01*
%TO.N,2*%
X60912399Y-49140771D02*
X60192970Y-49860200D01*
X59045599Y-25441400D02*
X58494799Y-25992200D01*
%TO.N,31*%
X59648440Y-43266680D02*
X59648440Y-42852466D01*
%TO.N,2*%
X59693797Y-42473559D02*
X59948440Y-42728202D01*
X58494799Y-27311136D02*
X59794799Y-28611136D01*
%TO.N,31*%
X58283599Y-51349400D02*
X58283599Y-50684907D01*
%TO.N,32*%
X61212399Y-49265035D02*
X61212399Y-47998165D01*
%TO.N,2*%
X58494799Y-25992200D02*
X58494799Y-27311136D01*
X59948440Y-42728202D02*
X59948440Y-43390944D01*
%TO.N,31*%
X59393797Y-28634398D02*
X57673999Y-26914600D01*
%TO.N,2*%
X59948440Y-43390944D02*
X59871220Y-43468164D01*
X59794799Y-35361871D02*
X59693797Y-35462873D01*
%TO.N,32*%
X59299599Y-53127400D02*
X59299599Y-51038406D01*
X60248440Y-42603938D02*
X59993797Y-42349295D01*
%TO.N,31*%
X59571220Y-49397286D02*
X59571220Y-43343900D01*
%TO.N,32*%
X61212399Y-47998165D02*
X60171220Y-46956986D01*
%TO.N,Net-(U13-Y1)*%
X61179199Y-38649400D02*
X61179199Y-32832799D01*
X61179199Y-32832799D02*
X60706000Y-32359600D01*
X60874399Y-38954200D02*
X61179199Y-38649400D01*
%TO.N,SW_A*%
X48758600Y-55778400D02*
X46583600Y-55778400D01*
X56212428Y-40822171D02*
X53970399Y-43064200D01*
X53970399Y-50566601D02*
X48758600Y-55778400D01*
X53970399Y-43064200D02*
X53970399Y-50566601D01*
X56212428Y-40337429D02*
X56212428Y-40822171D01*
%TO.N,LED_DATA_IN*%
X50380776Y-44293775D02*
X46134400Y-48540151D01*
X47621150Y-57421457D02*
X48224609Y-57421457D01*
X46134400Y-48540151D02*
X46134400Y-55934707D01*
X46134400Y-55934707D02*
X47621150Y-57421457D01*
%TO.N,15*%
X76558799Y-52602571D02*
X75207997Y-53953373D01*
X76090398Y-55978124D02*
X76090398Y-56413050D01*
X75764599Y-49114788D02*
X75764599Y-50884229D01*
X75764599Y-50884229D02*
X76558799Y-51678429D01*
X75207997Y-55095723D02*
X76090398Y-55978124D01*
X75599559Y-48949748D02*
X75764599Y-49114788D01*
X75493480Y-47197411D02*
X75599559Y-47303490D01*
X75902099Y-56601349D02*
X75902099Y-58725369D01*
X76558799Y-51678429D02*
X76558799Y-52602571D01*
X75902099Y-58725369D02*
X75709993Y-58917475D01*
X75599559Y-47303490D02*
X75599559Y-48949748D01*
X76090398Y-56413050D02*
X75902099Y-56601349D01*
X75207997Y-53953373D02*
X75207997Y-55095723D01*
%TO.N,33*%
X60569599Y-58522000D02*
X60706457Y-58385142D01*
X60771220Y-43840956D02*
X60771220Y-46708458D01*
X61779199Y-38897928D02*
X61674399Y-39002728D01*
X61674399Y-39002728D02*
X61674399Y-39285571D01*
X60771220Y-46708458D02*
X61812399Y-47749637D01*
X61812399Y-49513563D02*
X60706457Y-50619505D01*
X61674399Y-39285571D02*
X61372799Y-39587171D01*
X60706457Y-50619505D02*
X60706457Y-54004575D01*
X60848440Y-43763736D02*
X60771220Y-43840956D01*
X61372799Y-39587171D02*
X61372799Y-40828328D01*
X61372799Y-40828328D02*
X60848440Y-41352687D01*
%TO.N,3*%
X59842693Y-58853175D02*
X59842693Y-57918157D01*
%TO.N,33*%
X61812399Y-47749637D02*
X61812399Y-49513563D01*
X60706457Y-58385142D02*
X60706457Y-54004575D01*
%TO.N,3*%
X59842693Y-57918157D02*
X59434999Y-57510463D01*
X60167025Y-53356574D02*
X60167025Y-50772021D01*
%TO.N,33*%
X60848440Y-41352687D02*
X60848440Y-43763736D01*
%TO.N,3*%
X59434999Y-57510463D02*
X59434999Y-54088600D01*
X59434999Y-54088600D02*
X60167025Y-53356574D01*
%TO.N,33*%
X60264799Y-26152600D02*
X61779199Y-27667000D01*
X61779199Y-27667000D02*
X61779199Y-38897928D01*
%TO.N,SDOUT1*%
X97501199Y-40255835D02*
X97672799Y-40084235D01*
X97650999Y-44167255D02*
X97498599Y-44014855D01*
X97701799Y-42631145D02*
X97701799Y-42332106D01*
X97501199Y-42131506D02*
X97501199Y-40255835D01*
X97498599Y-44014855D02*
X97498599Y-42834345D01*
X98722445Y-51144154D02*
X97003799Y-49425508D01*
X97498599Y-42834345D02*
X97701799Y-42631145D01*
X97003799Y-46525080D02*
X97501199Y-46027680D01*
X97672799Y-34052492D02*
X96340199Y-32719892D01*
X97672799Y-40084235D02*
X97672799Y-34052492D01*
X97701799Y-42332106D02*
X97501199Y-42131506D01*
X97501199Y-46027680D02*
X97501199Y-44952414D01*
X97003799Y-49425508D02*
X97003799Y-46525080D01*
X97501199Y-44952414D02*
X97650999Y-44802614D01*
X97650999Y-44802614D02*
X97650999Y-44167255D01*
%TO.N,SDOUT2*%
X97798599Y-43890591D02*
X97798599Y-42958609D01*
X98001799Y-44093791D02*
X97798599Y-43890591D01*
X97801199Y-48869134D02*
X97303799Y-48371734D01*
X98275582Y-42481625D02*
X97972799Y-42178842D01*
X98771199Y-50485800D02*
X97801199Y-49515800D01*
X97801199Y-45076678D02*
X98001799Y-44876078D01*
X97798599Y-42958609D02*
X98275582Y-42481625D01*
X97303799Y-47418838D02*
X97371199Y-47351438D01*
X97371199Y-46581944D02*
X97801199Y-46151944D01*
X97371199Y-47351438D02*
X97371199Y-46581944D01*
X97972799Y-42178842D02*
X97972799Y-32978044D01*
X97801199Y-49515800D02*
X97801199Y-48869134D01*
X98001799Y-44876078D02*
X98001799Y-44093791D01*
X97801199Y-46151944D02*
X97801199Y-45076678D01*
X97303799Y-48371734D02*
X97303799Y-47418838D01*
X97972799Y-32978044D02*
X96306770Y-31312015D01*
%TO.N,SDIN1*%
X98301799Y-45000342D02*
X98301799Y-43969527D01*
X98605647Y-42575825D02*
X98605647Y-42387426D01*
X97603799Y-48247470D02*
X97603799Y-47543102D01*
X97671199Y-47475702D02*
X97671199Y-46706208D01*
X97506015Y-32005171D02*
X97506015Y-31864880D01*
X97603799Y-47543102D02*
X97671199Y-47475702D01*
X98272799Y-32771955D02*
X97506015Y-32005171D01*
X98301799Y-43969527D02*
X98098599Y-43766327D01*
X98780101Y-48923575D02*
X98279904Y-48923575D01*
X97506015Y-31864880D02*
X96390999Y-30749864D01*
X96390999Y-30749864D02*
X96390999Y-29962600D01*
X98098599Y-43082873D02*
X98605647Y-42575825D01*
X98605647Y-42387426D02*
X98272799Y-42054578D01*
X98241319Y-45060822D02*
X98301799Y-45000342D01*
X97671199Y-46706208D02*
X98241319Y-46136088D01*
X98272799Y-42054578D02*
X98272799Y-32771955D01*
X98098599Y-43766327D02*
X98098599Y-43082873D01*
X98241319Y-46136088D02*
X98241319Y-45060822D01*
X98279904Y-48923575D02*
X97603799Y-48247470D01*
%TO.N,SDIN2*%
X98720399Y-49520600D02*
X98784117Y-49520600D01*
X96890999Y-29384084D02*
X96661503Y-29154588D01*
X98905647Y-42263162D02*
X98572799Y-41930314D01*
X98601799Y-43845263D02*
X98398599Y-43642063D01*
X98398599Y-43207137D02*
X98905647Y-42700089D01*
X97806015Y-31880907D02*
X97806015Y-31687257D01*
X97971199Y-47599966D02*
X97971199Y-46830472D01*
X98257802Y-48477209D02*
X97903799Y-48123206D01*
X98572799Y-41930314D02*
X98572799Y-32647691D01*
X97971199Y-46830472D02*
X98541319Y-46260352D01*
X98784117Y-49520600D02*
X99205101Y-49099616D01*
X97903799Y-48123206D02*
X97903799Y-47667366D01*
X97903799Y-47667366D02*
X97971199Y-47599966D01*
X98541319Y-46260352D02*
X98541319Y-45185086D01*
X99205101Y-48477209D02*
X98257802Y-48477209D01*
X98601799Y-45124606D02*
X98601799Y-43845263D01*
X98572799Y-32647691D02*
X97806015Y-31880907D01*
X98905647Y-42700089D02*
X98905647Y-42263162D01*
X99205101Y-49099616D02*
X99205101Y-48477209D01*
X96890999Y-30772241D02*
X96890999Y-29384084D01*
X98398599Y-43642063D02*
X98398599Y-43207137D01*
X98541319Y-45185086D02*
X98601799Y-45124606D01*
X97806015Y-31687257D02*
X96890999Y-30772241D01*
%TO.N,Y0_B*%
X68291199Y-33811559D02*
X68888958Y-33213800D01*
X68888958Y-33213800D02*
X69002399Y-33213800D01*
X69459599Y-43881800D02*
X68291199Y-42713400D01*
X68291199Y-42713400D02*
X68291199Y-33811559D01*
%TO.N,Y0_C*%
X85156799Y-38395400D02*
X84394799Y-39157400D01*
X84394799Y-39157400D02*
X84394799Y-43170600D01*
%TO.N,Y3_B*%
X86914588Y-41744557D02*
X86924038Y-41735107D01*
X86924038Y-41320893D02*
X86648599Y-41045454D01*
X86648599Y-41045454D02*
X86648599Y-40395200D01*
X86648599Y-40395200D02*
X86325199Y-40071800D01*
X86629999Y-43932600D02*
X86924038Y-43638561D01*
X86924038Y-41754007D02*
X86914588Y-41744557D01*
X86325199Y-40071800D02*
X86325199Y-32983057D01*
X86924038Y-41735107D02*
X86924038Y-41320893D01*
X86924038Y-43638561D02*
X86924038Y-41754007D01*
X86325199Y-32983057D02*
X86135771Y-32793629D01*
%TO.N,Y3_C*%
X91944892Y-43208507D02*
X91944892Y-34009395D01*
X91830399Y-43323000D02*
X91944892Y-43208507D01*
X91944892Y-34009395D02*
X92099444Y-33854843D01*
%TO.N,AOUT1R*%
X71938199Y-37910652D02*
X71938199Y-38778548D01*
X72023199Y-37825652D02*
X71938199Y-37910652D01*
X71293853Y-33253491D02*
X71659200Y-33618838D01*
X71515799Y-30304054D02*
X71293853Y-30526000D01*
X71659200Y-33618838D02*
X71659200Y-35942635D01*
X71293853Y-30526000D02*
X71293853Y-33253491D01*
X71659200Y-35942635D02*
X72023199Y-36306634D01*
X72023199Y-36306634D02*
X72023199Y-37825652D01*
X71988999Y-38829348D02*
X71988999Y-39614840D01*
X71988999Y-39614840D02*
X71679839Y-39924000D01*
X71938199Y-38778548D02*
X71988999Y-38829348D01*
%TO.N,ADC_2*%
X79779448Y-36472449D02*
X80533999Y-37227000D01*
X80533999Y-37227000D02*
X80533999Y-38954200D01*
X79764129Y-34683111D02*
X79779448Y-34698430D01*
X79471236Y-34274959D02*
X79764129Y-34567852D01*
X79060799Y-33518600D02*
X79060799Y-33979781D01*
X79764129Y-34567852D02*
X79764129Y-34683111D01*
X79060799Y-33979781D02*
X79355977Y-34274959D01*
X79779448Y-34698430D02*
X79779448Y-36472449D01*
X79355977Y-34274959D02*
X79471236Y-34274959D01*
%TO.N,ADC_1*%
X69510399Y-40173400D02*
X69154799Y-39817800D01*
X69154799Y-39817800D02*
X69154799Y-33989794D01*
X69154799Y-33989794D02*
X68978324Y-33813319D01*
%TO.N,Y3_A*%
X58435999Y-42561000D02*
X58435999Y-39814080D01*
X57335599Y-38713680D02*
X57335599Y-28777000D01*
X57335599Y-28777000D02*
X57521599Y-28591000D01*
X58435999Y-39814080D02*
X57335599Y-38713680D01*
%TO.N,Y0_A*%
X57986799Y-39789144D02*
X57986799Y-43440600D01*
X82007199Y-27483396D02*
X82258368Y-27232227D01*
X81038390Y-32704173D02*
X81331283Y-32411280D01*
X81725948Y-34561851D02*
X81725948Y-34020559D01*
X82007199Y-32027995D02*
X82007199Y-27483396D01*
X56759599Y-33975800D02*
X56759599Y-38137680D01*
X56759599Y-38137680D02*
X57035599Y-38413680D01*
X57035599Y-38837944D02*
X57986799Y-39789144D01*
X81624125Y-32411069D02*
X82007199Y-32027995D01*
X80584799Y-35703000D02*
X81725948Y-34561851D01*
X81038390Y-33118387D02*
X81038390Y-32704173D01*
X81172799Y-33467410D02*
X81172799Y-33252796D01*
X81463006Y-32411280D02*
X81463217Y-32411069D01*
X81463217Y-32411069D02*
X81624125Y-32411069D01*
X81331283Y-32411280D02*
X81463006Y-32411280D01*
X81725948Y-34020559D02*
X81172799Y-33467410D01*
X57035599Y-38413680D02*
X57035599Y-38837944D01*
X81172799Y-33252796D02*
X81038390Y-33118387D01*
X57986799Y-43440600D02*
X58123199Y-43577000D01*
%TO.N,13*%
X72853120Y-55877694D02*
X72853120Y-53796306D01*
X73487676Y-57766579D02*
X73487676Y-57331653D01*
X72959237Y-58138799D02*
X73023920Y-58074116D01*
X73354160Y-56378734D02*
X72853120Y-55877694D01*
%TO.N,42*%
X70483599Y-34124107D02*
X70483599Y-34910723D01*
X71723199Y-36430898D02*
X71723199Y-37701388D01*
X71359200Y-35786324D02*
X71359200Y-36066899D01*
X71745599Y-27985493D02*
X70483599Y-29247493D01*
X70483599Y-30075737D02*
X70306199Y-30253137D01*
X70483599Y-29247493D02*
X70483599Y-30075737D01*
X70483599Y-30865463D02*
X70483599Y-33108293D01*
X71745599Y-26305000D02*
X71745599Y-27985493D01*
X71043999Y-46614226D02*
X73617494Y-49187721D01*
X71638199Y-37786388D02*
X71638199Y-39360133D01*
X71638199Y-39360133D02*
X71179839Y-39818493D01*
X70381999Y-33209893D02*
X70381999Y-34022507D01*
X70306199Y-30253137D02*
X70306199Y-30688063D01*
X70483599Y-33108293D02*
X70381999Y-33209893D01*
X71723199Y-37701388D02*
X71638199Y-37786388D01*
X70306199Y-30688063D02*
X70483599Y-30865463D01*
X71179839Y-40095323D02*
X71043999Y-40231163D01*
X73617494Y-49187721D02*
X73617494Y-49600760D01*
X70483599Y-34910723D02*
X71359200Y-35786324D01*
X71359200Y-36066899D02*
X71723199Y-36430898D01*
X71043999Y-40231163D02*
X71043999Y-46614226D01*
X70381999Y-34022507D02*
X70483599Y-34124107D01*
X71179839Y-39818493D02*
X71179839Y-40095323D01*
%TO.N,18*%
X78011199Y-55209563D02*
X78119199Y-55101563D01*
X78011199Y-56312064D02*
X78011199Y-55209563D01*
X78358799Y-53348155D02*
X78358799Y-50932845D01*
X77820759Y-46802637D02*
X77919196Y-46704200D01*
X78358799Y-50932845D02*
X77691150Y-50265196D01*
X77691150Y-50265196D02*
X77691150Y-47465180D01*
X78119199Y-53587755D02*
X78358799Y-53348155D01*
%TO.N,24*%
X85148799Y-27578907D02*
X83308799Y-29418907D01*
X86985599Y-25543000D02*
X85148799Y-27379800D01*
X86822545Y-59063000D02*
X86243320Y-58483775D01*
X83226399Y-34254736D02*
X83226399Y-48303388D01*
X83308799Y-29418907D02*
X83308799Y-32423451D01*
X83183060Y-32549190D02*
X83183060Y-33038603D01*
X82938390Y-33966727D02*
X83226399Y-34254736D01*
X83183060Y-33038603D02*
X82938390Y-33283273D01*
X82607999Y-52848409D02*
X82607999Y-52252816D01*
X86243320Y-58483775D02*
X86243320Y-55220271D01*
X83308799Y-32423451D02*
X83183060Y-32549190D01*
X85774691Y-54751642D02*
X84511232Y-54751642D01*
X82595627Y-52240444D02*
X82595627Y-50874031D01*
X82607999Y-52252816D02*
X82595627Y-52240444D01*
X83734399Y-49735259D02*
X82859042Y-50610616D01*
X82938390Y-33283273D02*
X82938390Y-33966727D01*
X84511232Y-54751642D02*
X82607999Y-52848409D01*
X86243320Y-55220271D02*
X85774691Y-54751642D01*
X83226399Y-48303388D02*
X83734399Y-48811388D01*
X85148799Y-27379800D02*
X85148799Y-27578907D01*
X83734399Y-48811388D02*
X83734399Y-49735259D01*
X82595627Y-50874031D02*
X82859042Y-50610616D01*
%TO.N,13*%
X72959237Y-58853777D02*
X72959237Y-58138799D01*
X72853120Y-53796306D02*
X73596983Y-53052443D01*
X73487676Y-57331653D02*
X73354160Y-57198137D01*
X73023920Y-58074116D02*
X73180139Y-58074116D01*
X73180139Y-58074116D02*
X73487676Y-57766579D01*
X73354160Y-57198137D02*
X73354160Y-56378734D01*
%TO.N,3*%
X60471220Y-43716692D02*
X60471220Y-46832722D01*
X59764799Y-27732608D02*
X61479199Y-29447008D01*
X61479199Y-38773664D02*
X61374399Y-38878464D01*
X61512399Y-49389299D02*
X60167025Y-50734673D01*
%TO.N,51*%
X83437599Y-58834400D02*
X83437599Y-58820147D01*
X80019199Y-54071551D02*
X80019199Y-55916307D01*
X79858799Y-53911151D02*
X80019199Y-54071551D01*
X80351199Y-52622259D02*
X80495627Y-52766687D01*
X80495627Y-53110292D02*
X80507999Y-53122664D01*
X82837078Y-59148400D02*
X83109346Y-59148400D01*
X83437599Y-58820147D02*
X83451245Y-58806501D01*
X82667599Y-59604400D02*
X83437599Y-58834400D01*
X82526245Y-58837567D02*
X82837078Y-59148400D01*
X82526245Y-58423353D02*
X82526245Y-58837567D01*
X79858799Y-53719966D02*
X79858799Y-53911151D01*
X80507999Y-53122664D02*
X80507999Y-53193273D01*
X80351199Y-48542099D02*
X80351199Y-52622259D01*
X80019199Y-55916307D02*
X82526245Y-58423353D01*
X83451245Y-55933154D02*
X83556599Y-55827800D01*
X83451245Y-58806501D02*
X83451245Y-55933154D01*
X80507999Y-53193273D02*
X80215106Y-53486166D01*
X80215106Y-53486166D02*
X80092599Y-53486166D01*
X80092599Y-53486166D02*
X79858799Y-53719966D01*
X79700399Y-47891299D02*
X80351199Y-48542099D01*
X80495627Y-52766687D02*
X80495627Y-53110292D01*
X83109346Y-59148400D02*
X83451245Y-58806501D01*
%TO.N,18*%
X79017999Y-58848390D02*
X79017999Y-57318864D01*
X78119199Y-55101563D02*
X78119199Y-53587755D01*
X77820759Y-47335571D02*
X77820759Y-46802637D01*
X79017999Y-57318864D02*
X78011199Y-56312064D01*
X77691150Y-47465180D02*
X77820759Y-47335571D01*
%TO.N,39*%
X80651199Y-52497995D02*
X80795627Y-52642423D01*
X80927602Y-53741135D02*
X80927602Y-54155349D01*
X67084799Y-54696200D02*
X66743599Y-54355000D01*
X80807999Y-52998400D02*
X80807999Y-53317537D01*
X67149692Y-57931301D02*
X67149692Y-57704219D01*
X80792599Y-55509743D02*
X82119475Y-56836619D01*
X67149692Y-57704219D02*
X67059876Y-57614403D01*
X66743599Y-27446200D02*
X67833999Y-26355800D01*
X80274257Y-47716113D02*
X80651199Y-48093055D01*
X67059876Y-57200189D02*
X67149692Y-57110373D01*
X80792599Y-54290352D02*
X80792599Y-55509743D01*
X66743599Y-54355000D02*
X66743599Y-27446200D01*
X80780268Y-53593801D02*
X80780268Y-53593805D01*
X80795627Y-52642423D02*
X80795627Y-52986028D01*
X67084799Y-55389171D02*
X67084799Y-54696200D01*
X80780268Y-53593805D02*
X80927602Y-53741135D01*
X67149692Y-57110373D02*
X67149692Y-55454064D01*
X80807999Y-53317537D02*
X80656002Y-53469535D01*
X80656002Y-53469535D02*
X80780268Y-53593801D01*
X80651199Y-48093055D02*
X80651199Y-52497995D01*
X80795627Y-52986028D02*
X80807999Y-52998400D01*
X80927602Y-54155349D02*
X80792599Y-54290352D01*
X67149692Y-55454064D02*
X67084799Y-55389171D01*
X67059876Y-57614403D02*
X67059876Y-57200189D01*
%TO.N,3*%
X61072799Y-39454200D02*
X61072799Y-39622192D01*
X60167025Y-50734673D02*
X60167025Y-50772021D01*
X60548440Y-43639472D02*
X60471220Y-43716692D01*
X61374399Y-39152600D02*
X61072799Y-39454200D01*
X60315599Y-25441400D02*
X59764799Y-25992200D01*
X61072799Y-39622192D02*
X60548440Y-40146551D01*
X61479199Y-29447008D02*
X61479199Y-38773664D01*
X59764799Y-25992200D02*
X59764799Y-27732608D01*
X61512399Y-47873901D02*
X61512399Y-49389299D01*
X61374399Y-38878464D02*
X61374399Y-39152600D01*
X60548440Y-40146551D02*
X60548440Y-43639472D01*
X60471220Y-46832722D02*
X61512399Y-47873901D01*
%TO.N,43*%
X72521619Y-59336380D02*
X72521619Y-55133877D01*
%TO.N,27*%
X90401399Y-34396073D02*
X90401399Y-37565909D01*
X91384399Y-57306809D02*
X91384399Y-58430844D01*
X90181199Y-38535837D02*
X90181199Y-47729035D01*
X90454181Y-48002017D02*
X91021557Y-48002017D01*
X90181199Y-47729035D02*
X90454181Y-48002017D01*
X90401399Y-37565909D02*
X90444892Y-37609402D01*
X90795599Y-25543000D02*
X90181199Y-26157400D01*
X90181199Y-34175873D02*
X90401399Y-34396073D01*
X90669742Y-48353832D02*
X90669742Y-56592152D01*
X90669742Y-56592152D02*
X91384399Y-57306809D01*
X90181199Y-26157400D02*
X90181199Y-34175873D01*
X91021557Y-48002017D02*
X90669742Y-48353832D01*
X90444892Y-38272144D02*
X90181199Y-38535837D01*
X90444892Y-37609402D02*
X90444892Y-38272144D01*
%TO.N,7*%
X69466599Y-55106597D02*
X69466599Y-51303857D01*
X64841599Y-55795463D02*
X65243599Y-55393463D01*
X69752403Y-56758773D02*
X70045296Y-56465880D01*
X69845296Y-55485294D02*
X69466599Y-55106597D01*
X65243599Y-26860107D02*
X64895599Y-26512107D01*
X71592847Y-49464671D02*
X71792847Y-49264671D01*
X70045296Y-56465880D02*
X70045296Y-56051666D01*
X64841599Y-57653400D02*
X64841599Y-55795463D01*
X67682845Y-57991434D02*
X68915506Y-56758773D01*
X67682845Y-58108932D02*
X67682845Y-57991434D01*
X64895599Y-26512107D02*
X64895599Y-26068400D01*
X69466599Y-51303857D02*
X71305785Y-49464671D01*
X67330377Y-58461400D02*
X67682845Y-58108932D01*
X65649599Y-58461400D02*
X64841599Y-57653400D01*
X70045296Y-56051666D02*
X69845296Y-55851666D01*
X69845296Y-55851666D02*
X69845296Y-55485294D01*
X71305785Y-49464671D02*
X71592847Y-49464671D01*
X68915506Y-56758773D02*
X69752403Y-56758773D01*
X65243599Y-55393463D02*
X65243599Y-26860107D01*
X64895599Y-26068400D02*
X65395599Y-25568400D01*
X65649599Y-58461400D02*
X67330377Y-58461400D01*
%TO.N,26*%
X87871736Y-55898165D02*
X87871736Y-58040508D01*
X85723599Y-40534771D02*
X86007599Y-40250771D01*
X87871736Y-58040508D02*
X89097701Y-59266473D01*
X89097701Y-59266473D02*
X89097701Y-59807400D01*
X85723599Y-50339400D02*
X85723599Y-40534771D01*
X87143320Y-55169749D02*
X87871736Y-55898165D01*
X84715923Y-52420082D02*
X87143320Y-54847479D01*
X85469599Y-31222181D02*
X88644999Y-28046781D01*
X83642917Y-52420082D02*
X84715923Y-52420082D01*
X88644999Y-27052737D02*
X88895799Y-26801937D01*
X86007599Y-40250771D02*
X86007599Y-33704907D01*
X87143320Y-54847479D02*
X87143320Y-55169749D01*
X88895799Y-26801937D02*
X88895799Y-26172800D01*
X83642917Y-52420082D02*
X85723599Y-50339400D01*
X88644999Y-28046781D02*
X88644999Y-27052737D01*
X85469599Y-33166907D02*
X85469599Y-31222181D01*
X86007599Y-33704907D02*
X85469599Y-33166907D01*
X88895799Y-26172800D02*
X89525599Y-25543000D01*
%TO.N,43*%
X73408785Y-52639600D02*
X73455019Y-52639600D01*
X74356599Y-51890419D02*
X74356599Y-50380516D01*
X72521619Y-55133877D02*
X72309722Y-54921980D01*
X72309722Y-53915440D02*
X73171983Y-53053179D01*
X74356599Y-50380516D02*
X74588107Y-50149008D01*
X73861418Y-52233200D02*
X74013819Y-52233200D01*
X74013819Y-52233200D02*
X74356599Y-51890419D01*
X73455019Y-52639600D02*
X73861418Y-52233200D01*
X73171983Y-52876402D02*
X73408785Y-52639600D01*
X73171983Y-53053179D02*
X73171983Y-52876402D01*
X72309722Y-54921980D02*
X72309722Y-53915440D01*
X72507599Y-59350400D02*
X72521619Y-59336380D01*
%TO.N,LED_OUT*%
X54879999Y-42755641D02*
X54879999Y-59528200D01*
X54219599Y-28743400D02*
X54219599Y-32567171D01*
X56879799Y-40755841D02*
X54879999Y-42755641D01*
X56879799Y-39530672D02*
X56879799Y-40755841D01*
X56159599Y-38810472D02*
X56879799Y-39530672D01*
X56159599Y-34507171D02*
X56159599Y-38810472D01*
X54219599Y-32567171D02*
X56159599Y-34507171D01*
%TO.N,20*%
X80727599Y-57755672D02*
X78911199Y-55939272D01*
X80727599Y-57910400D02*
X80727599Y-57755672D01*
X81778599Y-58961400D02*
X80727599Y-57910400D01*
X79258799Y-53720947D02*
X79258799Y-50560053D01*
X79258799Y-50560053D02*
X78806799Y-50108053D01*
X79019199Y-53960547D02*
X79258799Y-53720947D01*
X78911199Y-55939272D02*
X78911199Y-55582355D01*
X79019199Y-55474355D02*
X79019199Y-53960547D01*
X78806799Y-50108053D02*
X78806799Y-48199800D01*
X78911199Y-55582355D02*
X79019199Y-55474355D01*
%TO.N,25*%
X86843320Y-55294013D02*
X87571736Y-56022429D01*
X86023219Y-54151642D02*
X86843320Y-54971743D01*
X85423599Y-40410507D02*
X85707599Y-40126507D01*
X85423599Y-49837167D02*
X85423599Y-40410507D01*
X88595799Y-26677673D02*
X88595799Y-25934000D01*
X83320627Y-51940139D02*
X85423599Y-49837167D01*
X84759760Y-54151642D02*
X86023219Y-54151642D01*
X83320627Y-51940139D02*
X83207999Y-52052767D01*
X85707599Y-40126507D02*
X85707599Y-33829171D01*
X88595799Y-25934000D02*
X88204799Y-25543000D01*
X83207999Y-52052767D02*
X83207999Y-52599881D01*
X88344999Y-26928473D02*
X88595799Y-26677673D01*
X85169599Y-31097917D02*
X88344999Y-27922517D01*
X87571736Y-56022429D02*
X87571736Y-58861948D01*
X85707599Y-33829171D02*
X85169599Y-33291171D01*
X88344999Y-27922517D02*
X88344999Y-26928473D01*
X86843320Y-54971743D02*
X86843320Y-55294013D01*
X85169599Y-33291171D02*
X85169599Y-31097917D01*
X83207999Y-52599881D02*
X84759760Y-54151642D01*
X87571736Y-58861948D02*
X88317188Y-59607400D01*
%TO.N,60*%
X95113599Y-57633528D02*
X94767599Y-57287528D01*
X94224599Y-53868467D02*
X95103799Y-52989267D01*
X94386292Y-27876370D02*
X94622599Y-27640063D01*
X95113599Y-59096400D02*
X95113599Y-57633528D01*
X95052999Y-47816114D02*
X94081342Y-46844457D01*
X95103799Y-52989267D02*
X95103799Y-51854858D01*
%TO.N,52*%
X95840199Y-31186683D02*
X95941799Y-31085083D01*
X97805999Y-57547000D02*
X97963199Y-57389800D01*
X96703799Y-45325550D02*
X97350999Y-44678350D01*
X97201199Y-42255770D02*
X97201199Y-34986083D01*
X97350999Y-44291519D02*
X97198599Y-44139119D01*
X97249399Y-42303970D02*
X97201199Y-42255770D01*
X97198599Y-42710081D02*
X97249399Y-42659281D01*
X96725704Y-28354588D02*
X96951977Y-28354588D01*
X97249399Y-42659281D02*
X97249399Y-42303970D01*
X97201199Y-34986083D02*
X95840199Y-33625083D01*
X97198599Y-44139119D02*
X97198599Y-42710081D01*
X97963199Y-50809172D02*
X96703799Y-49549772D01*
X97963199Y-57389800D02*
X97963199Y-50809172D01*
X97350999Y-44678350D02*
X97350999Y-44291519D01*
X96703799Y-49549772D02*
X96703799Y-45325550D01*
X95840199Y-33625083D02*
X95840199Y-31186683D01*
X96951977Y-28354588D02*
X97824761Y-27481804D01*
X95941799Y-31085083D02*
X95941799Y-29138493D01*
X95941799Y-29138493D02*
X96725704Y-28354588D01*
%TO.N,60*%
X94386292Y-26968830D02*
X94386292Y-26254156D01*
X94622599Y-27205137D02*
X94386292Y-26968830D01*
X95103799Y-51854858D02*
X95052999Y-51804056D01*
X94767599Y-54936753D02*
X94224599Y-54393753D01*
X94767599Y-57287528D02*
X94767599Y-54936753D01*
X94093399Y-28384741D02*
X94386292Y-28091848D01*
X94093399Y-43827169D02*
X94093399Y-28384741D01*
X94196363Y-43930133D02*
X94093399Y-43827169D01*
X94622599Y-27640063D02*
X94622599Y-27205137D01*
X94196363Y-46729436D02*
X94196363Y-43930133D01*
X95052999Y-51804056D02*
X95052999Y-47816114D01*
X94081342Y-46844457D02*
X94196363Y-46729436D01*
X94386292Y-28091848D02*
X94386292Y-27876370D01*
X94224599Y-54393753D02*
X94224599Y-53868467D01*
X94386292Y-26254156D02*
X94129736Y-25997600D01*
%TO.N,10*%
X68647454Y-55748809D02*
X68647454Y-55459452D01*
%TO.N,1*%
X57229599Y-46536200D02*
X59147199Y-48453800D01*
X57229599Y-39456208D02*
X57229599Y-46536200D01*
%TO.N,12*%
X71123199Y-36679426D02*
X71123199Y-37452860D01*
X69781999Y-35057651D02*
X70759200Y-36034852D01*
X70759200Y-36315427D02*
X71123199Y-36679426D01*
X70579839Y-39846795D02*
X70241841Y-40184793D01*
X70579839Y-39569965D02*
X70579839Y-39846795D01*
X70239199Y-28643365D02*
X69706199Y-29176365D01*
X70759200Y-36034852D02*
X70759200Y-36315427D01*
X69781999Y-31012391D02*
X69781999Y-35057651D01*
X70239199Y-27248507D02*
X70239199Y-28643365D01*
X71745599Y-25568400D02*
X70524949Y-26789050D01*
X70241841Y-49504451D02*
X68865265Y-50881027D01*
X69706199Y-30936591D02*
X69781999Y-31012391D01*
X70524949Y-26962757D02*
X70239199Y-27248507D01*
X71038199Y-37537860D02*
X71038199Y-39111605D01*
X71123199Y-37452860D02*
X71038199Y-37537860D01*
X70524949Y-26789050D02*
X70524949Y-26962757D01*
X71038199Y-39111605D02*
X70579839Y-39569965D01*
X68865265Y-50881027D02*
X68865265Y-54047624D01*
X70241841Y-40184793D02*
X70241841Y-49504451D01*
X69706199Y-29176365D02*
X69706199Y-30936591D01*
%TO.N,35*%
X63029999Y-26733400D02*
X63029999Y-39627027D01*
X62725199Y-39931827D02*
X62725199Y-43910600D01*
X63113999Y-47354181D02*
X62999106Y-47239288D01*
X62725199Y-43910600D02*
X62660399Y-43975400D01*
X63063199Y-49909019D02*
X63063199Y-49807419D01*
X63236599Y-58461400D02*
X62999106Y-58223907D01*
X63113999Y-49756619D02*
X63113999Y-47354181D01*
X63063199Y-49807419D02*
X63113999Y-49756619D01*
X62999106Y-47239288D02*
X62999106Y-46969721D01*
X62999106Y-46969721D02*
X63276653Y-46692174D01*
X62999106Y-58223907D02*
X62999106Y-49973112D01*
X63276653Y-46692174D02*
X63276653Y-44591654D01*
X63029999Y-39627027D02*
X62725199Y-39931827D01*
X62703199Y-26406600D02*
X63029999Y-26733400D01*
X63276653Y-44591654D02*
X62660399Y-43975400D01*
X62999106Y-49973112D02*
X63063199Y-49909019D01*
%TO.N,1*%
X56459599Y-38686208D02*
X57229599Y-39456208D01*
X57351021Y-57533915D02*
X57351021Y-50249978D01*
X56259599Y-34182907D02*
X56459599Y-34382907D01*
X57199799Y-58699066D02*
X57199799Y-57685137D01*
X56459599Y-34382907D02*
X56459599Y-38686208D01*
X57199799Y-57685137D02*
X57351021Y-57533915D01*
X56259599Y-26830400D02*
X56259599Y-34182907D01*
X57351021Y-50249978D02*
X59147199Y-48453800D01*
X57648599Y-25441400D02*
X56259599Y-26830400D01*
X57351021Y-58850288D02*
X57199799Y-58699066D01*
%TO.N,4*%
X62112399Y-49637827D02*
X62112399Y-47625373D01*
%TO.N,19*%
X78958799Y-53596683D02*
X78719199Y-53836283D01*
X80427599Y-57879936D02*
X80427599Y-58761400D01*
X78958799Y-50684317D02*
X78958799Y-53596683D01*
X80427599Y-58761400D02*
X80627599Y-58961400D01*
X78427357Y-47819399D02*
X78376399Y-47870357D01*
X78611199Y-55458091D02*
X78611199Y-56063536D01*
X78719199Y-53836283D02*
X78719199Y-55350091D01*
X78719199Y-55350091D02*
X78611199Y-55458091D01*
X78611199Y-56063536D02*
X80427599Y-57879936D01*
X78376399Y-50101917D02*
X78958799Y-50684317D01*
X78376399Y-47870357D02*
X78376399Y-50101917D01*
%TO.N,59*%
X93962199Y-59119675D02*
X93791562Y-59290312D01*
X92278038Y-46261400D02*
X92278038Y-34354843D01*
X92278038Y-34354843D02*
X93183693Y-33449188D01*
X93340399Y-56910937D02*
X93962199Y-57532737D01*
X92278038Y-46261400D02*
X93340399Y-47323761D01*
X93340399Y-47323761D02*
X93340399Y-56910937D01*
X93183693Y-33449188D02*
X93183693Y-26228654D01*
X93962199Y-57532737D02*
X93962199Y-59119675D01*
%TO.N,4*%
X62112399Y-47625373D02*
X61705999Y-47218973D01*
X61705999Y-47218973D02*
X61705999Y-44576635D01*
X61560399Y-44431035D02*
X61560399Y-43519765D01*
X60983999Y-26447536D02*
X60983999Y-26170000D01*
X61585599Y-50976400D02*
X61705999Y-50856000D01*
X61774399Y-43305765D02*
X61774399Y-39609835D01*
X61560399Y-43519765D02*
X61774399Y-43305765D01*
X60983999Y-26170000D02*
X61585599Y-25568400D01*
X61974399Y-39126992D02*
X62079199Y-39022192D01*
X62079199Y-27542736D02*
X60983999Y-26447536D01*
X61585599Y-50976400D02*
X61133120Y-51428879D01*
X61774399Y-39609835D02*
X61974399Y-39409835D01*
X61133120Y-51428879D02*
X61133120Y-58813812D01*
X61705999Y-50856000D02*
X61705999Y-50044227D01*
X61705999Y-50044227D02*
X62112399Y-49637827D01*
X61974399Y-39409835D02*
X61974399Y-39126992D01*
X61705999Y-44576635D02*
X61560399Y-44431035D01*
X62079199Y-39022192D02*
X62079199Y-27542736D01*
%TO.N,17*%
X77091150Y-47074591D02*
X77020759Y-47004200D01*
X77411199Y-54961035D02*
X77519199Y-54853035D01*
%TO.N,32*%
X59134999Y-58169800D02*
X59299599Y-58334400D01*
X59134999Y-53292000D02*
X59134999Y-58169800D01*
X59299599Y-53127400D02*
X59134999Y-53292000D01*
%TO.N,22*%
X82626399Y-48337974D02*
X82249749Y-48714624D01*
X84445599Y-25568400D02*
X84101180Y-25912819D01*
X82338390Y-33034745D02*
X82338390Y-34215255D01*
X84101180Y-26643648D02*
X83848799Y-26896029D01*
X84793199Y-58923433D02*
X84793199Y-57949493D01*
X82583060Y-32790075D02*
X82338390Y-33034745D01*
X82338390Y-34215255D02*
X82626399Y-34503264D01*
X84793199Y-57949493D02*
X84175545Y-57331839D01*
X82583060Y-32300662D02*
X82583060Y-32790075D01*
X82007999Y-52501344D02*
X81995627Y-52488972D01*
X84498632Y-59218000D02*
X84793199Y-58923433D01*
X83848799Y-26915571D02*
X82708799Y-28055571D01*
X82708799Y-28055571D02*
X82708799Y-32174923D01*
X81995627Y-52488972D02*
X81995627Y-48968746D01*
X81995627Y-48968746D02*
X82249749Y-48714624D01*
X84175545Y-57331839D02*
X84175545Y-55264483D01*
X83848799Y-26896029D02*
X83848799Y-26915571D01*
X84175545Y-55264483D02*
X82007999Y-53096937D01*
X82626399Y-34503264D02*
X82626399Y-48337974D01*
X82007999Y-53096937D02*
X82007999Y-52501344D01*
X84101180Y-25912819D02*
X84101180Y-26643648D01*
X82708799Y-32174923D02*
X82583060Y-32300662D01*
%TO.N,56*%
X86477599Y-47793400D02*
X86477599Y-51353493D01*
X90369742Y-56716416D02*
X90706199Y-57052873D01*
X88171736Y-55301234D02*
X88171736Y-57916244D01*
X89850599Y-34269537D02*
X90101399Y-34520337D01*
X90101399Y-38191373D02*
X89881199Y-38411573D01*
X90706199Y-57052873D02*
X90706199Y-59305810D01*
X89881199Y-38411573D02*
X89881199Y-48504600D01*
X89525599Y-26152600D02*
X89850599Y-26477600D01*
X89091431Y-54381539D02*
X88171736Y-55301234D01*
X89091431Y-53967325D02*
X89091431Y-54381539D01*
X89881199Y-48504600D02*
X90369742Y-48993143D01*
X89850599Y-26477600D02*
X89850599Y-34269537D01*
%TO.N,17*%
X77091150Y-50513724D02*
X77091150Y-47074591D01*
X77758799Y-53099627D02*
X77758799Y-51181373D01*
X77411199Y-58166000D02*
X77411199Y-54961035D01*
X77758799Y-51181373D02*
X77091150Y-50513724D01*
X77519199Y-53339227D02*
X77758799Y-53099627D01*
X77519199Y-54853035D02*
X77519199Y-53339227D01*
X78087599Y-58842400D02*
X77411199Y-58166000D01*
%TO.N,49*%
X90033599Y-49364108D02*
X90033599Y-56869600D01*
%TO.N,5*%
X62763199Y-49683155D02*
X62763199Y-49784755D01*
X62342799Y-51577265D02*
X62510599Y-51745065D01*
X62403120Y-58997989D02*
X62685687Y-58715422D01*
X62813999Y-47478445D02*
X62813999Y-49632355D01*
X62203199Y-26220800D02*
X62203199Y-26549136D01*
X62342799Y-50255955D02*
X62342799Y-51577265D01*
X62425199Y-39807563D02*
X62425199Y-43503493D01*
X62729999Y-39502763D02*
X62425199Y-39807563D01*
X62342799Y-47007245D02*
X62813999Y-47478445D01*
X62729999Y-27075936D02*
X62729999Y-39502763D01*
X62160399Y-44182507D02*
X62342799Y-44364907D01*
X62203199Y-26549136D02*
X62729999Y-27075936D01*
X62685687Y-58715422D02*
X62685687Y-51920153D01*
X62855599Y-25568400D02*
X62203199Y-26220800D01*
X62342799Y-44364907D02*
X62342799Y-47007245D01*
X62160399Y-43768293D02*
X62160399Y-44182507D01*
X62685687Y-51920153D02*
X62510599Y-51745065D01*
X62425199Y-43503493D02*
X62160399Y-43768293D01*
X62712399Y-49886355D02*
X62342799Y-50255955D01*
X62712399Y-49835555D02*
X62712399Y-49886355D01*
X62813999Y-49632355D02*
X62763199Y-49683155D01*
X62763199Y-49784755D02*
X62712399Y-49835555D01*
%TO.N,57*%
X90744799Y-26270763D02*
X90481199Y-26534363D01*
X91521557Y-48209124D02*
X91054597Y-48676084D01*
X90701399Y-34271809D02*
X90701399Y-37441645D01*
X91250565Y-59170367D02*
X91351984Y-59170367D01*
X90701399Y-37441645D02*
X90744892Y-37485138D01*
X91884399Y-58637951D02*
X91365690Y-59156661D01*
X90481199Y-34051609D02*
X90701399Y-34271809D01*
X90481199Y-26534363D02*
X90481199Y-34051609D01*
X90744799Y-26203400D02*
X90744799Y-26270763D01*
X90652277Y-47526465D02*
X91253112Y-47526465D01*
X91054597Y-48676084D02*
X91054597Y-56552743D01*
X90744892Y-38396408D02*
X90481199Y-38660101D01*
X90481199Y-38660101D02*
X90481199Y-47355387D01*
X91351984Y-59170367D02*
X91365690Y-59156661D01*
X91253112Y-47526465D02*
X91521557Y-47794910D01*
X91521557Y-47794910D02*
X91521557Y-48209124D01*
X91054597Y-56552743D02*
X91884399Y-57382545D01*
X90481199Y-47355387D02*
X90652277Y-47526465D01*
X91884399Y-57382545D02*
X91884399Y-58637951D01*
X90744892Y-37485138D02*
X90744892Y-38396408D01*
%TO.N,40*%
X67384799Y-55264907D02*
X67384799Y-54571936D01*
X67043599Y-28230804D02*
X68993603Y-26280800D01*
X67559876Y-55439984D02*
X67384799Y-55264907D01*
X67559876Y-57407296D02*
X67559876Y-55439984D01*
X67043599Y-54230736D02*
X67043599Y-28230804D01*
X67384799Y-54571936D02*
X67043599Y-54230736D01*
%TO.N,49*%
X90406199Y-58050175D02*
X90135041Y-58321333D01*
X90033599Y-56869600D02*
X90406199Y-57242200D01*
X90406199Y-57242200D02*
X90406199Y-58050175D01*
X89057745Y-48388254D02*
X90033599Y-49364108D01*
%TO.N,28*%
X92384399Y-58444705D02*
X92384399Y-57458281D01*
X91044892Y-34191038D02*
X91044892Y-38520672D01*
X91044892Y-38520672D02*
X90781199Y-38784365D01*
X91821557Y-48333388D02*
X91701660Y-48453285D01*
X92384399Y-57458281D02*
X91354597Y-56428479D01*
X91354597Y-49234265D02*
X91701660Y-48887202D01*
X90781199Y-26776600D02*
X90781199Y-33927345D01*
X92065599Y-25492200D02*
X90781199Y-26776600D01*
%TO.N,37*%
X81294599Y-52292867D02*
X81395627Y-52393895D01*
X81294599Y-46970479D02*
X81294599Y-52292867D01*
X81407999Y-52749872D02*
X81407999Y-53373004D01*
X81527602Y-53492607D02*
X81527602Y-53600723D01*
X81407999Y-53373004D02*
X81527602Y-53492607D01*
X65685653Y-57735454D02*
X65141599Y-57191400D01*
X81616599Y-53689720D02*
X81616599Y-54320510D01*
X80742006Y-46417886D02*
X81294599Y-46970479D01*
X65543599Y-26453000D02*
X65395599Y-26305000D01*
X65543599Y-55517727D02*
X65543599Y-26453000D01*
X81395627Y-52737500D02*
X81407999Y-52749872D01*
X81395627Y-52393895D02*
X81395627Y-52737500D01*
X65141599Y-55919727D02*
X65543599Y-55517727D01*
X81616599Y-54320510D02*
X82449176Y-55153087D01*
X81527602Y-53600723D02*
X81616599Y-53689720D01*
X65141599Y-57191400D02*
X65141599Y-55919727D01*
%TO.N,10*%
X68689599Y-55003093D02*
X68396706Y-54710200D01*
X69639199Y-28394837D02*
X69639199Y-26698099D01*
X67343599Y-54106472D02*
X67343599Y-30690437D01*
X69493603Y-25889761D02*
X69090290Y-25486448D01*
X68647454Y-55459452D02*
X68689599Y-55417307D01*
X69493603Y-26552503D02*
X69493603Y-25889761D01*
X68244306Y-54710200D02*
X68091906Y-54557800D01*
X68091906Y-54557800D02*
X67794927Y-54557800D01*
X69090290Y-25486448D02*
X69080847Y-25486448D01*
X68689599Y-55417307D02*
X68689599Y-55003093D01*
X68396706Y-54710200D02*
X68244306Y-54710200D01*
X67343599Y-30690437D02*
X69639199Y-28394837D01*
X67794927Y-54557800D02*
X67343599Y-54106472D01*
X69639199Y-26698099D02*
X69493603Y-26552503D01*
%TO.N,54*%
X95403799Y-44724167D02*
X95249399Y-44569767D01*
X95249399Y-44569767D02*
X95249399Y-43308820D01*
X95249399Y-43308820D02*
X94540199Y-42599619D01*
X94922599Y-27080874D02*
X94686999Y-26845273D01*
X95243335Y-54490782D02*
X95243335Y-56739000D01*
X94724153Y-53971600D02*
X95403799Y-53291954D01*
X94540199Y-42599619D02*
X94540200Y-28362205D01*
X94686999Y-26759937D02*
X95233693Y-26213243D01*
X94686999Y-28215406D02*
X94686999Y-27999927D01*
X95403799Y-53291954D02*
X95403799Y-44724167D01*
X94922599Y-27764327D02*
X94922599Y-27080874D01*
X95067599Y-57163264D02*
X95754953Y-57850618D01*
X94686999Y-27999927D02*
X94922599Y-27764327D01*
X94724153Y-53971600D02*
X95243335Y-54490782D01*
%TO.N,55*%
X83545927Y-34150000D02*
X83238390Y-33842463D01*
X82895627Y-52116180D02*
X82895627Y-51756372D01*
X83675188Y-48151136D02*
X83675188Y-34171998D01*
X83675188Y-34171998D02*
X83653190Y-34150000D01*
X88100779Y-26203401D02*
X88154000Y-26203401D01*
X84034399Y-50617600D02*
X84034399Y-48510347D01*
X84034399Y-48510347D02*
X83675188Y-48151136D01*
X84635496Y-54451642D02*
X82907999Y-52724145D01*
X87276136Y-26626598D02*
X87677582Y-26626598D01*
X82907999Y-52724145D02*
X82907999Y-52128552D01*
X83238390Y-33842463D02*
X83238390Y-33407537D01*
X83675188Y-30227546D02*
X87276136Y-26626598D01*
X87620599Y-59604400D02*
X87271736Y-59255537D01*
X86543320Y-55096007D02*
X85898955Y-54451642D01*
X87677582Y-26626598D02*
X88100779Y-26203401D01*
X83238390Y-33407537D02*
X83675188Y-32970739D01*
X87271736Y-56146693D02*
X86543320Y-55418277D01*
X82895627Y-51756372D02*
X84034399Y-50617600D01*
X82907999Y-52128552D02*
X82895627Y-52116180D01*
X85898955Y-54451642D02*
X84635496Y-54451642D01*
X83675188Y-32970739D02*
X83675188Y-30227546D01*
X83653190Y-34150000D02*
X83545927Y-34150000D01*
X87271736Y-59255537D02*
X87271736Y-56146693D01*
X86543320Y-55418277D02*
X86543320Y-55096007D01*
%TO.N,28*%
X90781199Y-33927345D02*
X91044892Y-34191038D01*
X91701660Y-48453285D02*
X91701660Y-48887202D01*
X91821557Y-47379094D02*
X91821557Y-48333388D01*
X90781199Y-38784365D02*
X90781199Y-46338736D01*
X90781199Y-46338736D02*
X91821557Y-47379094D01*
X91354597Y-56428479D02*
X91354597Y-49234265D01*
%TO.N,54*%
X94540200Y-28362205D02*
X94686999Y-28215406D01*
X95243335Y-56739000D02*
X95067599Y-56914736D01*
X95754953Y-57850618D02*
X95754953Y-58272691D01*
X95067599Y-56914736D02*
X95067599Y-57163264D01*
X94686999Y-26845273D02*
X94686999Y-26759937D01*
%TO.N,56*%
X89930301Y-59674809D02*
X90337200Y-59674809D01*
X86477599Y-51353493D02*
X89091431Y-53967325D01*
X88171736Y-57916244D02*
X89930301Y-59674809D01*
X90369742Y-48993143D02*
X90369742Y-56716416D01*
X90706199Y-59305810D02*
X90337200Y-59674809D01*
X90101399Y-34520337D02*
X90101399Y-38191373D01*
%TO.N,2*%
X58576218Y-58797114D02*
X58791599Y-58581733D01*
X58791599Y-50977800D02*
X59909199Y-49860200D01*
X58791599Y-58581733D02*
X58791599Y-50977800D01*
%TO.N,21*%
X82169771Y-48137379D02*
X82168907Y-48138243D01*
X81707999Y-52625608D02*
X81707999Y-53248740D01*
X82038390Y-34339519D02*
X82169771Y-34470900D01*
X81594599Y-52168603D02*
X81695627Y-52269631D01*
X82283060Y-32176398D02*
X82283060Y-32665811D01*
X81695627Y-52613236D02*
X81707999Y-52625608D01*
X83175599Y-25568400D02*
X83341120Y-25568400D01*
X81695627Y-52269631D02*
X81695627Y-52613236D01*
X81594599Y-48712551D02*
X81594599Y-52168603D01*
X83801180Y-26028460D02*
X83801180Y-26519384D01*
X82169771Y-34470900D02*
X82169771Y-48137379D01*
X83341120Y-25568400D02*
X83801180Y-26028460D01*
X82949176Y-58553391D02*
X83026245Y-58630460D01*
X83801180Y-26519384D02*
X82408799Y-27911765D01*
X82949176Y-54489917D02*
X82949176Y-58553391D01*
X82408799Y-27911765D02*
X82408799Y-32050659D01*
X82408799Y-32050659D02*
X82283060Y-32176398D01*
X82168907Y-48138243D02*
X81594599Y-48712551D01*
X82038390Y-32910481D02*
X82038390Y-34339519D01*
X81707999Y-53248740D02*
X82949176Y-54489917D01*
X82283060Y-32665811D02*
X82038390Y-32910481D01*
%TO.N,36*%
X63905399Y-55246737D02*
X64095599Y-55056537D01*
X64216893Y-46280966D02*
X64216893Y-43975400D01*
X64371599Y-43820694D02*
X64216893Y-43975400D01*
X64074799Y-26355800D02*
X64371599Y-26652600D01*
X64095599Y-55056537D02*
X64095599Y-52590318D01*
X64333281Y-58542082D02*
X64333281Y-56109545D01*
X63905399Y-55681663D02*
X63905399Y-55246737D01*
X64527329Y-52158588D02*
X64527329Y-46591402D01*
X64371599Y-26652600D02*
X64371599Y-43820694D01*
X64095599Y-52590318D02*
X64527329Y-52158588D01*
X64333281Y-56109545D02*
X63905399Y-55681663D01*
X64527329Y-46591402D02*
X64216893Y-46280966D01*
%TO.N,34*%
X61966599Y-58334400D02*
X61966599Y-54548689D01*
%TO.N,29*%
X93211419Y-25493820D02*
X92683693Y-26021546D01*
X91381199Y-45973536D02*
X92879599Y-47471936D01*
X93483888Y-57848026D02*
X93040399Y-57404537D01*
X92683693Y-26194906D02*
X91644892Y-27233707D01*
X91644892Y-38769200D02*
X91381199Y-39032893D01*
X91644892Y-27233707D02*
X91644892Y-38769200D01*
X93483888Y-58775200D02*
X93483888Y-57848026D01*
X91381199Y-39032893D02*
X91381199Y-45973536D01*
X93040399Y-50620291D02*
X92574682Y-50154574D01*
X92879599Y-47471936D02*
X92879599Y-49849657D01*
X92879599Y-49849657D02*
X92574682Y-50154574D01*
X93040399Y-57404537D02*
X93040399Y-50620291D01*
X92683693Y-26021546D02*
X92683693Y-26194906D01*
%TO.N,8*%
X70145296Y-55361030D02*
X70145296Y-55727402D01*
X72292847Y-49564615D02*
X72188153Y-49669309D01*
X66521199Y-25568400D02*
X65843599Y-26246000D01*
X71228931Y-48970612D02*
X71434872Y-48764671D01*
X65843599Y-26246000D02*
X65843599Y-56278200D01*
X71434872Y-48764671D02*
X71999954Y-48764671D01*
X71986073Y-49669309D02*
X71890711Y-49764671D01*
X65843599Y-56278200D02*
X65641599Y-56480200D01*
X69766599Y-54982333D02*
X70145296Y-55361030D01*
X72188153Y-49669309D02*
X71986073Y-49669309D01*
X71430049Y-49764671D02*
X69766599Y-51428121D01*
X69766599Y-51428121D02*
X69766599Y-54982333D01*
X69876667Y-57058773D02*
X69039770Y-57058773D01*
X71999954Y-48764671D02*
X72292847Y-49057564D01*
X71890711Y-49764671D02*
X71430049Y-49764671D01*
X70345296Y-56590144D02*
X69876667Y-57058773D01*
X67982845Y-58233196D02*
X67207934Y-59008107D01*
X67982845Y-58115698D02*
X67982845Y-58233196D01*
X69039770Y-57058773D02*
X67982845Y-58115698D01*
X70145296Y-55727402D02*
X70345296Y-55927402D01*
X70345296Y-55927402D02*
X70345296Y-56590144D01*
X72292847Y-49057564D02*
X72292847Y-49564615D01*
%TO.N,58*%
X91081199Y-38908629D02*
X91344892Y-38644936D01*
%TO.N,9*%
X66443599Y-55202182D02*
X66584799Y-55343382D01*
X67114799Y-26389200D02*
X67114799Y-26512107D01*
X67935599Y-25568400D02*
X67114799Y-26389200D01*
X66443599Y-27183307D02*
X66443599Y-55202182D01*
%TO.N,LED_DATA_IN*%
X53035599Y-41877680D02*
X50619504Y-44293775D01*
X55286399Y-25390600D02*
X53035599Y-27641400D01*
X50619504Y-44293775D02*
X50380776Y-44293775D01*
X53035599Y-27641400D02*
X53035599Y-41877680D01*
%TO.N,34*%
X62042799Y-47131509D02*
X62412399Y-47501109D01*
X62042799Y-44489171D02*
X62042799Y-47131509D01*
X61839599Y-58461400D02*
X61966599Y-58334400D01*
X62412399Y-47501109D02*
X62412399Y-49762091D01*
X62074399Y-39734099D02*
X62074399Y-43430029D01*
X61860399Y-44306771D02*
X62042799Y-44489171D01*
X62412399Y-49762091D02*
X62042799Y-50131691D01*
X62274399Y-39534099D02*
X62074399Y-39734099D01*
X61860399Y-43644029D02*
X61860399Y-44306771D01*
X62074399Y-43430029D02*
X61860399Y-43644029D01*
X62379199Y-39146456D02*
X62274399Y-39251256D01*
X62042799Y-50131691D02*
X62042799Y-54186711D01*
X61966599Y-54548689D02*
X62185688Y-54329600D01*
X62379199Y-27200200D02*
X62379199Y-39146456D01*
X62274399Y-39251256D02*
X62274399Y-39534099D01*
X62042799Y-54186711D02*
X62185688Y-54329600D01*
X61483999Y-26305000D02*
X62379199Y-27200200D01*
%TO.N,11*%
X69793603Y-26014025D02*
X70301887Y-25505741D01*
X69939199Y-28519101D02*
X69939199Y-26573835D01*
%TO.N,41*%
X71338199Y-39235869D02*
X71338199Y-37662124D01*
X70183599Y-29951473D02*
X70183599Y-29123229D01*
X72801501Y-48973806D02*
X72801501Y-48847693D01*
X71423199Y-37577124D02*
X71423199Y-36555162D01*
X70183599Y-29123229D02*
X71024949Y-28281879D01*
X70742399Y-46788591D02*
X70742399Y-40108499D01*
X71024949Y-28281879D02*
X71024949Y-26904000D01*
X70081999Y-33085629D02*
X70183599Y-32984029D01*
X71059200Y-35910588D02*
X70183599Y-35034987D01*
X70183599Y-35034987D02*
X70183599Y-34248371D01*
X71059200Y-36191163D02*
X71059200Y-35910588D01*
X70879839Y-39971059D02*
X70879839Y-39694229D01*
X70081999Y-34146771D02*
X70081999Y-33085629D01*
X71423199Y-36555162D02*
X71059200Y-36191163D01*
X70006199Y-30128873D02*
X70183599Y-29951473D01*
X70742399Y-40108499D02*
X70879839Y-39971059D01*
X70183599Y-30989727D02*
X70006199Y-30812327D01*
X70006199Y-30812327D02*
X70006199Y-30128873D01*
X70879839Y-39694229D02*
X71338199Y-39235869D01*
X70183599Y-32984029D02*
X70183599Y-30989727D01*
X70183599Y-34248371D02*
X70081999Y-34146771D01*
X72801501Y-48847693D02*
X70742399Y-46788591D01*
X71338199Y-37662124D02*
X71423199Y-37577124D01*
%TO.N,9*%
X67114799Y-26512107D02*
X66443599Y-27183307D01*
%TO.N,30*%
X93793399Y-27860863D02*
X93629736Y-27697200D01*
X94396240Y-54989658D02*
X94396240Y-58461400D01*
X93581342Y-47051564D02*
X93581342Y-46637350D01*
X93922629Y-25497600D02*
X94040146Y-25497600D01*
X94343599Y-51034200D02*
X93793399Y-50484000D01*
X93924599Y-51453200D02*
X93924599Y-53854383D01*
X93924153Y-53854829D02*
X93924153Y-54517571D01*
X94040146Y-25497600D02*
X94253038Y-25284708D01*
X93581342Y-46637350D02*
X93793399Y-46425293D01*
X93924153Y-54517571D02*
X94396240Y-54989658D01*
X93793399Y-50484000D02*
X93793399Y-47263621D01*
X93793399Y-46425293D02*
X93793399Y-27860863D01*
X93924599Y-53854383D02*
X93924153Y-53854829D01*
X93629736Y-27697200D02*
X93629736Y-25790493D01*
X94343599Y-51034200D02*
X93924599Y-51453200D01*
X93629736Y-25790493D02*
X93922629Y-25497600D01*
X93793399Y-47263621D02*
X93581342Y-47051564D01*
%TO.N,11*%
X70919842Y-58927600D02*
X71257498Y-58589944D01*
X70823199Y-36803690D02*
X69481999Y-35462490D01*
X69406199Y-29052101D02*
X69939199Y-28519101D01*
X69406199Y-32761301D02*
X69406199Y-29052101D01*
X69545296Y-56258773D02*
X69545296Y-55609558D01*
X70966599Y-52426930D02*
X71668387Y-51725142D01*
X70823199Y-37328596D02*
X70823199Y-36803690D01*
X70966599Y-53040063D02*
X70966599Y-52426930D01*
X69939199Y-26573835D02*
X69793603Y-26428239D01*
X71409722Y-53483186D02*
X70966599Y-53040063D01*
X71545296Y-57518634D02*
X71545296Y-55430346D01*
X69481999Y-35462490D02*
X69481999Y-32837101D01*
X71257498Y-58589944D02*
X71257498Y-58326000D01*
X71610199Y-57583537D02*
X71545296Y-57518634D01*
X69545296Y-55609558D02*
X68989599Y-55053861D01*
X69793603Y-26428239D02*
X69793603Y-26014025D01*
X68989599Y-55053861D02*
X68989599Y-54878829D01*
X71610199Y-57973299D02*
X71610199Y-57583537D01*
X67643599Y-51678429D02*
X69941841Y-49380187D01*
X69481999Y-32837101D02*
X69406199Y-32761301D01*
X69941841Y-49380187D02*
X69941841Y-39783699D01*
X71545296Y-55430346D02*
X71409722Y-55294772D01*
X70738199Y-38987341D02*
X70738199Y-37413596D01*
X67643599Y-53532829D02*
X67643599Y-51678429D01*
X70738199Y-37413596D02*
X70823199Y-37328596D01*
X69941841Y-39783699D02*
X70738199Y-38987341D01*
X71409722Y-55294772D02*
X71409722Y-53483186D01*
X71257498Y-58326000D02*
X71610199Y-57973299D01*
X68989599Y-54878829D02*
X67643599Y-53532829D01*
%TO.N,23*%
X85834599Y-59088400D02*
X85943320Y-58979679D01*
X82883060Y-32424926D02*
X82883060Y-32914339D01*
X84857459Y-26728953D02*
X84440139Y-26728953D01*
X82638390Y-33159009D02*
X82638390Y-34090991D01*
X85943320Y-58979679D02*
X85943320Y-55344535D01*
X84440139Y-26728953D02*
X84148799Y-27020293D01*
X85943320Y-55344535D02*
X85650427Y-55051642D01*
X82926399Y-34379000D02*
X82926399Y-48691407D01*
X82926399Y-48691407D02*
X83240192Y-49005200D01*
X84148799Y-27164693D02*
X83008799Y-28304693D01*
%TO.N,38*%
X81227602Y-53616871D02*
X81227602Y-54736441D01*
X80160399Y-46565319D02*
X80951199Y-47356119D01*
X81080266Y-53469535D02*
X81227602Y-53616871D01*
X81227602Y-54736441D02*
X82237558Y-55746397D01*
X66618756Y-57449357D02*
X66143599Y-56974200D01*
X80951199Y-47356119D02*
X80951199Y-52373731D01*
X66143599Y-26776200D02*
X66614799Y-26305000D01*
X81095627Y-52861764D02*
X81107999Y-52874136D01*
X80951199Y-52373731D02*
X81095627Y-52518159D01*
X81107999Y-53441801D02*
X81080266Y-53469535D01*
X81107999Y-52874136D02*
X81107999Y-53441801D01*
X82237558Y-55746397D02*
X82237558Y-55892833D01*
X82237558Y-55892833D02*
X82063113Y-56067278D01*
X81095627Y-52518159D02*
X81095627Y-52861764D01*
X66143599Y-56974200D02*
X66143599Y-26776200D01*
%TO.N,50*%
X82226245Y-59283754D02*
X82226245Y-58655046D01*
X81397599Y-59604400D02*
X81905599Y-59604400D01*
X79519199Y-55948000D02*
X79519199Y-54278658D01*
X82226245Y-58655046D02*
X79519199Y-55948000D01*
X81905599Y-59604400D02*
X82226245Y-59283754D01*
%TO.N,6*%
X64227329Y-46715666D02*
X63776653Y-46264990D01*
X63605399Y-55805927D02*
X63795599Y-55996127D01*
X63625599Y-47731610D02*
X64227329Y-47129880D01*
X63776653Y-26892282D02*
X63289185Y-26404814D01*
X63795599Y-53106635D02*
X63795599Y-54932273D01*
X63289185Y-26404814D02*
X64125599Y-25568400D01*
X63605399Y-55122473D02*
X63605399Y-55805927D01*
X63795599Y-58799400D02*
X63625599Y-58969400D01*
X63795599Y-54932273D02*
X63605399Y-55122473D01*
X64227329Y-47129880D02*
X64227329Y-46715666D01*
X63795599Y-55996127D02*
X63795599Y-58799400D01*
X63625599Y-52936635D02*
X63795599Y-53106635D01*
X63625599Y-52936635D02*
X63625599Y-47731610D01*
X63776653Y-46264990D02*
X63776653Y-26892282D01*
%TO.N,31*%
X58377199Y-54647493D02*
X58377199Y-58126700D01*
X58377199Y-58126700D02*
X58042499Y-58461400D01*
X58283599Y-51349400D02*
X58283599Y-54553893D01*
X58283599Y-54553893D02*
X58377199Y-54647493D01*
%TO.N,23*%
X85101180Y-26157419D02*
X85101180Y-26485232D01*
X84386968Y-55051642D02*
X82307999Y-52972673D01*
X82638390Y-34090991D02*
X82926399Y-34379000D01*
X84148799Y-27020293D02*
X84148799Y-27164693D01*
X82295627Y-49949765D02*
X83240192Y-49005200D01*
X85101180Y-26485232D02*
X84857459Y-26728953D01*
X82307999Y-52377080D02*
X82295627Y-52364708D01*
X82295627Y-52364708D02*
X82295627Y-49949765D01*
X83008799Y-32299187D02*
X82883060Y-32424926D01*
X82883060Y-32914339D02*
X82638390Y-33159009D01*
X83008799Y-28304693D02*
X83008799Y-32299187D01*
X85715599Y-25543000D02*
X85101180Y-26157419D01*
X82307999Y-52972673D02*
X82307999Y-52377080D01*
X85650427Y-55051642D02*
X84386968Y-55051642D01*
%TO.N,53*%
X95641799Y-28875975D02*
X96663186Y-27854588D01*
X96403799Y-45201286D02*
X97050998Y-44554087D01*
X96898599Y-44263383D02*
X96898599Y-42585817D01*
X97050998Y-44415782D02*
X96898599Y-44263383D01*
X96901199Y-42380034D02*
X96901199Y-35167571D01*
X96949399Y-42428234D02*
X96901199Y-42380034D01*
X95540199Y-31062419D02*
X95641799Y-30960819D01*
X97383739Y-52758036D02*
X96403799Y-51778096D01*
X85080599Y-59604400D02*
X85394695Y-59290304D01*
X96949399Y-42535017D02*
X96949399Y-42428234D01*
X85394695Y-59290304D02*
X85394695Y-55739907D01*
X95641799Y-30960819D02*
X95641799Y-28875975D01*
X96898599Y-42585817D02*
X96949399Y-42535017D01*
X85394695Y-55739907D02*
X85500787Y-55633815D01*
X95540199Y-33806571D02*
X95540199Y-31062419D01*
X96901199Y-35167571D02*
X95540199Y-33806571D01*
X97050998Y-44554087D02*
X97050998Y-44415782D01*
X96403799Y-51778096D02*
X96403799Y-45201286D01*
%TO.N,47*%
X89391431Y-54505803D02*
X89005399Y-54891835D01*
X89005399Y-54891835D02*
X89005399Y-57052873D01*
X89391431Y-50129706D02*
X89391431Y-54505803D01*
X88671736Y-57386536D02*
X88671736Y-57592467D01*
X89005399Y-57052873D02*
X88671736Y-57386536D01*
X87308808Y-48047083D02*
X89391431Y-50129706D01*
%TO.N,58*%
X91344892Y-34066774D02*
X91081199Y-33803081D01*
X92685680Y-55866009D02*
X91654597Y-54834926D01*
X91344892Y-38644936D02*
X91344892Y-34066774D01*
X92884399Y-58912600D02*
X92884399Y-58237598D01*
X91081199Y-46214472D02*
X91081199Y-38908629D01*
X91081199Y-27187802D02*
X92014799Y-26254202D01*
X92685680Y-58038879D02*
X92685680Y-55866009D01*
X92260283Y-47393556D02*
X91081199Y-46214472D01*
X92260283Y-47993896D02*
X92260283Y-47393556D01*
X92573599Y-59223400D02*
X92884399Y-58912600D01*
X92884399Y-58237598D02*
X92685680Y-58038879D01*
X91654597Y-49866440D02*
X91931064Y-49589973D01*
X92223957Y-49072013D02*
X92260283Y-49072013D01*
X91654597Y-54834926D02*
X91654597Y-49866440D01*
X91931064Y-49589973D02*
X91931064Y-49364906D01*
X91931064Y-49364906D02*
X92223957Y-49072013D01*
X91081199Y-33803081D02*
X91081199Y-27187802D01*
X92260283Y-49072013D02*
X92260283Y-47993896D01*
D19*
%TO.N,TOP_RAIL_NEG*%
X96078799Y-43463452D02*
X96078799Y-43700848D01*
X95924399Y-44290174D02*
X96078799Y-44444574D01*
X95773999Y-28083000D02*
X95215199Y-28641800D01*
X96078799Y-44444574D02*
X96078799Y-55362600D01*
X95773999Y-27371800D02*
X95773999Y-28083000D01*
X95924399Y-43016200D02*
X95924399Y-43309052D01*
X96078799Y-55362600D02*
X97247199Y-56531000D01*
X95215199Y-42307000D02*
X95924399Y-43016200D01*
X95215199Y-28641800D02*
X95215199Y-42307000D01*
X96535999Y-25390600D02*
X96535999Y-26609800D01*
X95924399Y-43855248D02*
X95924399Y-44290174D01*
X96078799Y-43700848D02*
X95924399Y-43855248D01*
X96535999Y-26609800D02*
X95773999Y-27371800D01*
X95924399Y-43309052D02*
X96078799Y-43463452D01*
D18*
%TO.N,SW_B*%
X98841319Y-46384616D02*
X98841319Y-45309350D01*
X98382986Y-47895286D02*
X98382986Y-46842949D01*
X98382986Y-46842949D02*
X98841319Y-46384616D01*
X99600999Y-43244152D02*
X99205647Y-42848800D01*
X99600999Y-44549670D02*
X99600999Y-43244152D01*
X99205647Y-42848800D02*
X99205647Y-38438076D01*
X99205647Y-38438076D02*
X99607584Y-38036139D01*
X98841319Y-45309350D02*
X99600999Y-44549670D01*
%TO.N,SW_D*%
X110457984Y-47034185D02*
X110457984Y-44797592D01*
X110457984Y-44797592D02*
X110750877Y-44504699D01*
X111826799Y-48403000D02*
X110457984Y-47034185D01*
X110750877Y-42551878D02*
X105933999Y-37735000D01*
X110750877Y-44504699D02*
X110750877Y-42551878D01*
%TO.N,SW_PUSH*%
X104875199Y-36761800D02*
X104968799Y-36668200D01*
%TO.N,SW_A*%
X99505647Y-39190952D02*
X99945599Y-38751000D01*
X99863333Y-44711600D02*
X99903062Y-44711600D01*
X100210599Y-43969137D02*
X99951799Y-43710337D01*
%TO.N,SW_PUSH*%
X104875199Y-37807571D02*
X104875199Y-36761800D01*
X109857984Y-52326985D02*
X109857984Y-42790356D01*
%TO.N,SW_C*%
X110157984Y-47699385D02*
X111582567Y-49123968D01*
X110353599Y-44477713D02*
X110157984Y-44673328D01*
X105375199Y-37277800D02*
X105375199Y-37883307D01*
X110353599Y-42861707D02*
X110353599Y-44477713D01*
X105375199Y-37883307D02*
X110353599Y-42861707D01*
%TO.N,SW_PUSH*%
X111928399Y-54397400D02*
X109857984Y-52326985D01*
%TO.N,SW_C*%
X110157984Y-44673328D02*
X110157984Y-47699385D01*
%TO.N,SW_PUSH*%
X109857984Y-42790356D02*
X104875199Y-37807571D01*
%TO.N,SW_A*%
X98974399Y-47437800D02*
X99141319Y-47270880D01*
X99951799Y-43032073D02*
X99505647Y-42585921D01*
X99903062Y-44711600D02*
X100210599Y-44404063D01*
X99951799Y-43710337D02*
X99951799Y-43032073D01*
X99505647Y-42585921D02*
X99505647Y-39190952D01*
X99141319Y-45433614D02*
X99863333Y-44711600D01*
X100210599Y-44404063D02*
X100210599Y-43969137D01*
X99141319Y-47270880D02*
X99141319Y-45433614D01*
%TO.N,48*%
X88557745Y-48595361D02*
X89691431Y-49729047D01*
X89691431Y-49729047D02*
X89691431Y-56791105D01*
X88557745Y-48476546D02*
X88557745Y-48595361D01*
X89691431Y-56791105D02*
X89313472Y-57169064D01*
X89313472Y-57169064D02*
X89313472Y-58127113D01*
X88425653Y-48344454D02*
X88557745Y-48476546D01*
D19*
%TO.N,TOP_RAIL_POS*%
X95574399Y-43710273D02*
X95702523Y-43582150D01*
X95728799Y-56841400D02*
X95728799Y-44589549D01*
X95728799Y-44589549D02*
X95574399Y-44435148D01*
X95247599Y-26946253D02*
X95245372Y-26944027D01*
X95017599Y-28344426D02*
X95017599Y-28128947D01*
X95702523Y-43582150D02*
X95574399Y-43454026D01*
X94865199Y-28496825D02*
X95017599Y-28344426D01*
X95574399Y-44435148D02*
X95574399Y-43710273D01*
X95574399Y-43174200D02*
X94865199Y-42465000D01*
X95247599Y-27898946D02*
X95247599Y-26946253D01*
X95245372Y-26944027D02*
X95985999Y-26203400D01*
X95574399Y-43454026D02*
X95574399Y-43174200D01*
X95017599Y-28128947D02*
X95247599Y-27898946D01*
X94865199Y-42465000D02*
X94865199Y-28496825D01*
X96180399Y-57293000D02*
X95728799Y-56841400D01*
D18*
%TO.N,I2C_SCL*%
X113128160Y-47104058D02*
X113167799Y-47064419D01*
X113128160Y-49590839D02*
X113128160Y-47104058D01*
X113167799Y-47064419D02*
X113167799Y-42174800D01*
X112080799Y-50638200D02*
X113128160Y-49590839D01*
X113167799Y-42174800D02*
X111471199Y-40478200D01*
%TO.N,I2C_SDA*%
X113428160Y-50459239D02*
X113428160Y-47228322D01*
X113467799Y-41207845D02*
X111742261Y-39482307D01*
X112588799Y-51298600D02*
X113428160Y-50459239D01*
X113428160Y-47228322D02*
X113467799Y-47188683D01*
X113467799Y-47188683D02*
X113467799Y-41207845D01*
D19*
%TO.N,+3V3*%
X89322399Y-34382200D02*
X89322399Y-27422600D01*
X83763390Y-33625000D02*
X84140799Y-33247591D01*
X84140799Y-30623000D02*
X87493599Y-27270200D01*
X89627199Y-34687000D02*
X89322399Y-34382200D01*
X89322399Y-27422600D02*
X89169999Y-27270200D01*
X87493599Y-27270200D02*
X87493599Y-27151598D01*
X84140799Y-33247591D02*
X84140799Y-30623000D01*
%TO.N,+18V*%
X52035199Y-29403800D02*
X52035199Y-38243000D01*
X52035199Y-38243000D02*
X52060599Y-38268400D01*
%TO.N,+1V1*%
X106492799Y-43221400D02*
X107254799Y-43983400D01*
X107254799Y-43983400D02*
X107254799Y-53991000D01*
%TO.N,LED_GND*%
X73167999Y-41823003D02*
X73320399Y-41975403D01*
X54067199Y-59020200D02*
X54304199Y-58783200D01*
X71965799Y-43560000D02*
X71542399Y-43983400D01*
X49520599Y-38268400D02*
X49520599Y-29429200D01*
X39335199Y-38243000D02*
X39360599Y-38268400D01*
X72321399Y-43560000D02*
X71965799Y-43560000D01*
X73167999Y-37176200D02*
X73167999Y-41823003D01*
X71542399Y-43983400D02*
X71542399Y-44085000D01*
X73320399Y-42357800D02*
X73320399Y-42561000D01*
X73320399Y-42154600D02*
X73320399Y-42357800D01*
X73320399Y-42561000D02*
X72321399Y-43560000D01*
X49520599Y-29429200D02*
X49495199Y-29403800D01*
X54304199Y-58783200D02*
X54304199Y-56896457D01*
X73320399Y-41975403D02*
X73320399Y-42154600D01*
X39335199Y-29403800D02*
X39335199Y-38243000D01*
D18*
%TO.N,/QSPI_SD3*%
X104468799Y-40280611D02*
X105189635Y-41001447D01*
X104468799Y-33282801D02*
X104468799Y-40280611D01*
X105189635Y-41124818D02*
X105289423Y-41224606D01*
X98194547Y-28454600D02*
X99640598Y-28454600D01*
X99640598Y-28454600D02*
X104468799Y-33282801D01*
X105189635Y-41001447D02*
X105189635Y-41124818D01*
%TO.N,/QSPI_SS*%
X102276399Y-41189400D02*
X102225599Y-41240200D01*
X99176785Y-30762919D02*
X102276399Y-33862533D01*
X102276399Y-33862533D02*
X102276399Y-41189400D01*
%TO.N,42*%
X71910199Y-55370985D02*
X71709722Y-55170508D01*
%TO.N,9*%
X71928520Y-50064671D02*
X72075313Y-50211464D01*
%TO.N,42*%
X72007599Y-53049063D02*
X72007599Y-52395039D01*
D19*
%TO.N,LED_GND*%
X73155917Y-52314600D02*
X73145383Y-52304066D01*
D18*
%TO.N,9*%
X70509722Y-53855978D02*
X70066599Y-53412855D01*
%TO.N,12*%
X72096619Y-58685420D02*
X72210199Y-58571840D01*
%TO.N,10*%
X69979820Y-57658773D02*
X70125195Y-57658773D01*
%TO.N,12*%
X72009722Y-55046244D02*
X72009722Y-53471204D01*
%TO.N,10*%
X70945296Y-56838672D02*
X70945296Y-55678874D01*
%TO.N,41*%
X70140363Y-59484504D02*
X70140363Y-59266842D01*
%TO.N,12*%
X72009722Y-53471204D02*
X72651740Y-52829186D01*
%TO.N,41*%
X72283069Y-51159955D02*
X72457104Y-50985920D01*
X71245296Y-55554610D02*
X71109722Y-55419036D01*
%TO.N,9*%
X68207934Y-59006014D02*
X68207934Y-58547186D01*
%TO.N,42*%
X71559599Y-59036400D02*
X71559599Y-58493327D01*
D19*
%TO.N,LED_GND*%
X73879199Y-51908200D02*
X73680565Y-51908200D01*
D18*
%TO.N,9*%
X70645296Y-56714408D02*
X70645296Y-55803138D01*
%TO.N,41*%
X69706526Y-58501706D02*
X71245296Y-56962936D01*
%TO.N,42*%
X72830932Y-51985920D02*
X73684908Y-51131944D01*
D19*
%TO.N,LED_GND*%
X74142494Y-49818223D02*
X74031599Y-49929118D01*
D18*
%TO.N,41*%
X71109722Y-53607450D02*
X70666599Y-53164327D01*
%TO.N,9*%
X68282845Y-58239962D02*
X68575738Y-57947069D01*
%TO.N,41*%
X72457104Y-50985920D02*
X72799364Y-50985920D01*
%TO.N,10*%
X70809722Y-55543300D02*
X70809722Y-53731714D01*
%TO.N,9*%
X69396347Y-57358773D02*
X70000931Y-57358773D01*
D19*
%TO.N,LED_GND*%
X73680565Y-51908200D02*
X73680565Y-51954434D01*
X71542399Y-44085000D02*
X71542399Y-46653007D01*
X74142494Y-49253102D02*
X74142494Y-49818223D01*
D18*
%TO.N,9*%
X70066599Y-51658364D02*
X71660292Y-50064671D01*
%TO.N,10*%
X69207934Y-58430659D02*
X69979820Y-57658773D01*
%TO.N,9*%
X68808051Y-57947069D02*
X69396347Y-57358773D01*
X68282845Y-58472275D02*
X68282845Y-58239962D01*
%TO.N,42*%
X73684908Y-49668174D02*
X73617494Y-49600760D01*
X71709722Y-53346940D02*
X72007599Y-53049063D01*
%TO.N,9*%
X71660292Y-50064671D02*
X71928520Y-50064671D01*
%TO.N,42*%
X73684908Y-51131944D02*
X73684908Y-49668174D01*
%TO.N,9*%
X70645296Y-55803138D02*
X70509722Y-55667564D01*
%TO.N,41*%
X71245296Y-56962936D02*
X71245296Y-55554610D01*
X73384908Y-50075281D02*
X72801501Y-49491874D01*
D19*
%TO.N,LED_GND*%
X74031599Y-49929118D02*
X74031599Y-51755800D01*
D18*
%TO.N,9*%
X68207934Y-58547186D02*
X68282845Y-58472275D01*
%TO.N,42*%
X72007599Y-52395039D02*
X72416718Y-51985920D01*
%TO.N,10*%
X69207934Y-58870511D02*
X69207934Y-58430659D01*
D19*
%TO.N,LED_GND*%
X71542399Y-46653007D02*
X74142494Y-49253102D01*
D18*
%TO.N,/QSPI_SCLK*%
X104168799Y-33407065D02*
X104168799Y-40495093D01*
%TO.N,/QSPI_SD0*%
X100249272Y-29911802D02*
X103814408Y-33476938D01*
%TO.N,41*%
X69706526Y-58833005D02*
X69706526Y-58501706D01*
X70666599Y-53164327D02*
X70666599Y-52094362D01*
%TO.N,/QSPI_SD0*%
X98844534Y-29911802D02*
X100249272Y-29911802D01*
%TO.N,/QSPI_SCLK*%
X99075999Y-29151526D02*
X99913260Y-29151526D01*
D19*
%TO.N,LED_GND*%
X73320399Y-52314600D02*
X73155917Y-52314600D01*
D18*
%TO.N,42*%
X71910199Y-58142727D02*
X71910199Y-55370985D01*
%TO.N,/QSPI_SD0*%
X103814408Y-40938765D02*
X104105199Y-41229556D01*
X104105199Y-41229556D02*
X104105199Y-41240200D01*
X103814408Y-33476938D02*
X103814408Y-40938765D01*
%TO.N,41*%
X71601006Y-51159955D02*
X72283069Y-51159955D01*
X71109722Y-55419036D02*
X71109722Y-53607450D01*
%TO.N,/QSPI_SCLK*%
X104168799Y-40495093D02*
X104689635Y-41015929D01*
X104689635Y-41015929D02*
X104689635Y-41225855D01*
%TO.N,10*%
X70945296Y-55678874D02*
X70809722Y-55543300D01*
%TO.N,/QSPI_SCLK*%
X99913260Y-29151526D02*
X104168799Y-33407065D01*
%TO.N,10*%
X70125195Y-57658773D02*
X70945296Y-56838672D01*
%TO.N,41*%
X72801501Y-49491874D02*
X72801501Y-48973806D01*
%TO.N,10*%
X70366599Y-53288591D02*
X70366599Y-51970098D01*
X70366599Y-51970098D02*
X71676742Y-50659955D01*
%TO.N,9*%
X70066599Y-53412855D02*
X70066599Y-51658364D01*
%TO.N,10*%
X70809722Y-53731714D02*
X70366599Y-53288591D01*
%TO.N,41*%
X72799364Y-50985920D02*
X73384908Y-50400376D01*
X70140363Y-59266842D02*
X69706526Y-58833005D01*
%TO.N,9*%
X70509722Y-55667564D02*
X70509722Y-53855978D01*
%TO.N,41*%
X73384908Y-50400376D02*
X73384908Y-50075281D01*
%TO.N,9*%
X70000931Y-57358773D02*
X70645296Y-56714408D01*
%TO.N,41*%
X70666599Y-52094362D02*
X71601006Y-51159955D01*
%TO.N,42*%
X71245599Y-59350400D02*
X71559599Y-59036400D01*
X71559599Y-58493327D02*
X71910199Y-58142727D01*
%TO.N,12*%
X72210199Y-58571840D02*
X72210199Y-55246721D01*
%TO.N,42*%
X72416718Y-51985920D02*
X72830932Y-51985920D01*
%TO.N,12*%
X72210199Y-55246721D02*
X72009722Y-55046244D01*
%TO.N,9*%
X68575738Y-57947069D02*
X68808051Y-57947069D01*
%TO.N,12*%
X72651740Y-52829186D02*
X72651740Y-52687399D01*
D19*
%TO.N,LED_GND*%
X73680565Y-51954434D02*
X73320399Y-52314600D01*
D18*
%TO.N,42*%
X71709722Y-55170508D02*
X71709722Y-53346940D01*
D19*
%TO.N,LED_GND*%
X74031599Y-51755800D02*
X73879199Y-51908200D01*
D18*
%TO.N,BICK*%
X100800725Y-41908322D02*
X100800725Y-40748524D01*
%TO.N,LRCK*%
X100613592Y-47489109D02*
X101221954Y-46880747D01*
%TO.N,BICK*%
X100396799Y-49520600D02*
X100313592Y-49437393D01*
X100800725Y-40748524D02*
X100921954Y-40627295D01*
%TO.N,MCK*%
X99807999Y-47446174D02*
X100510599Y-46743574D01*
%TO.N,PDN*%
X100927984Y-48454739D02*
X101042444Y-48569199D01*
%TO.N,LRCK*%
X101221954Y-46880747D02*
X101221954Y-41905287D01*
%TO.N,CAD{slash}CSN*%
X101821954Y-47748904D02*
X101445827Y-48125031D01*
%TO.N,PDN*%
X101521954Y-40875823D02*
X101400725Y-40997052D01*
%TO.N,BICK*%
X100810599Y-41918196D02*
X100800725Y-41908322D01*
%TO.N,MCK*%
X100621954Y-40503031D02*
X100621954Y-35970770D01*
%TO.N,LRCK*%
X101100725Y-40872788D02*
X101221954Y-40751559D01*
%TO.N,PDN*%
X101521954Y-41781023D02*
X101521954Y-47005011D01*
%TO.N,CAD{slash}CSN*%
X101821954Y-34029355D02*
X101821954Y-41000087D01*
%TO.N,BICK*%
X100313592Y-49437393D02*
X100313592Y-47364845D01*
%TO.N,MCK*%
X99807999Y-48691569D02*
X99807999Y-47446174D01*
%TO.N,BICK*%
X100921954Y-40627295D02*
X100921954Y-35413471D01*
X100921954Y-35413471D02*
X99278375Y-33769892D01*
%TO.N,MCK*%
X100510599Y-42042460D02*
X100500725Y-42032586D01*
%TO.N,LRCK*%
X100853999Y-50181000D02*
X100853999Y-49101434D01*
X101100725Y-41784058D02*
X101100725Y-40872788D01*
%TO.N,PDN*%
X101400725Y-40997052D02*
X101400725Y-41659794D01*
%TO.N,CAD{slash}CSN*%
X101821954Y-41000087D02*
X101700725Y-41121316D01*
%TO.N,MCK*%
X100500725Y-40624260D02*
X100621954Y-40503031D01*
%TO.N,CAD{slash}CSN*%
X101700725Y-41121316D02*
X101700725Y-41535530D01*
%TO.N,14*%
X74430599Y-56793791D02*
X74522765Y-56885957D01*
%TO.N,40*%
X74557199Y-55734464D02*
X74557199Y-53382965D01*
%TO.N,/QSPI_SD2*%
X103484008Y-33752726D02*
X103484008Y-41209408D01*
%TO.N,46*%
X76202099Y-59132476D02*
X76202099Y-56848027D01*
%TO.N,44*%
X73929512Y-58744620D02*
X73994562Y-58744620D01*
X74553519Y-52803015D02*
X74553519Y-52117763D01*
X74130599Y-56918055D02*
X74130599Y-56156392D01*
%TO.N,45*%
X75120387Y-58618796D02*
X75112747Y-58611155D01*
%TO.N,/QSPI_SD2*%
X100370339Y-30639057D02*
X103484008Y-33752726D01*
%TO.N,44*%
X73994562Y-58744620D02*
X74302099Y-58437083D01*
%TO.N,40*%
X74730599Y-56669527D02*
X74730599Y-55986073D01*
%TO.N,CAD{slash}CSN*%
X98669599Y-30877000D02*
X101821954Y-34029355D01*
%TO.N,LRCK*%
X100853999Y-49101434D02*
X100613592Y-48861027D01*
%TO.N,PDN*%
X101521954Y-34241448D02*
X101521954Y-40875823D01*
X99055906Y-31775400D02*
X101521954Y-34241448D01*
%TO.N,LRCK*%
X101221954Y-40751559D02*
X101221954Y-34699355D01*
%TO.N,PDN*%
X101521954Y-47005011D02*
X100927984Y-47598981D01*
%TO.N,MCK*%
X100500725Y-42032586D02*
X100500725Y-40624260D01*
%TO.N,LRCK*%
X101221954Y-41905287D02*
X101100725Y-41784058D01*
%TO.N,CAD{slash}CSN*%
X101700725Y-41535530D02*
X101821954Y-41656759D01*
%TO.N,PDN*%
X100927984Y-47598981D02*
X100927984Y-48454739D01*
%TO.N,LRCK*%
X101221954Y-34699355D02*
X98974399Y-32451800D01*
%TO.N,BICK*%
X100810599Y-46867838D02*
X100810599Y-41918196D01*
%TO.N,CAD{slash}CSN*%
X101821954Y-41656759D02*
X101821954Y-47748904D01*
%TO.N,MCK*%
X100510599Y-46743574D02*
X100510599Y-42042460D01*
X100621954Y-35970770D02*
X99180249Y-34529065D01*
%TO.N,PDN*%
X98306015Y-31775400D02*
X99055906Y-31775400D01*
X101400725Y-41659794D02*
X101521954Y-41781023D01*
%TO.N,BICK*%
X100313592Y-47364845D02*
X100810599Y-46867838D01*
%TO.N,/QSPI_SD1*%
X99774075Y-30705929D02*
X102884340Y-33816194D01*
X102884340Y-33816194D02*
X102884339Y-41240196D01*
%TO.N,CAD{slash}CSN*%
X97958399Y-30877000D02*
X98669599Y-30877000D01*
%TO.N,45*%
X74857199Y-53507229D02*
X75184807Y-53179621D01*
%TO.N,44*%
X73807997Y-55833790D02*
X73807997Y-54235524D01*
%TO.N,40*%
X74853519Y-52242027D02*
X75260488Y-51835058D01*
X74769703Y-55946968D02*
X74557199Y-55734464D01*
X75322657Y-51835058D02*
X75758799Y-52271200D01*
%TO.N,14*%
X74430599Y-56032128D02*
X74430599Y-56793791D01*
%TO.N,40*%
X75260488Y-51835058D02*
X75322657Y-51835058D01*
%TO.N,14*%
X74602099Y-57877893D02*
X74602099Y-58561347D01*
%TO.N,45*%
X75338136Y-56852800D02*
X75030599Y-56545263D01*
%TO.N,44*%
X74553519Y-52117763D02*
X74822672Y-51848610D01*
%TO.N,40*%
X75102099Y-57041027D02*
X74730599Y-56669527D01*
X74557199Y-53382965D02*
X74853519Y-53086645D01*
%TO.N,16*%
X76360399Y-47915157D02*
X76364599Y-47919357D01*
%TO.N,40*%
X75102099Y-58111155D02*
X75102099Y-57041027D01*
%TO.N,45*%
X75450199Y-56852800D02*
X75338136Y-56852800D01*
%TO.N,44*%
X73929512Y-59198487D02*
X73929512Y-58744620D01*
X74222765Y-57922823D02*
X74222765Y-57010221D01*
%TO.N,45*%
X75120387Y-59033010D02*
X75120387Y-58618796D01*
%TO.N,44*%
X73607997Y-54035524D02*
X73607997Y-53642470D01*
%TO.N,14*%
X74522765Y-58728281D02*
X74620387Y-58825903D01*
%TO.N,45*%
X75193967Y-55946968D02*
X74857199Y-55610200D01*
%TO.N,46*%
X76072521Y-59262054D02*
X76202099Y-59132476D01*
%TO.N,44*%
X74822672Y-51848610D02*
X74822672Y-51461861D01*
%TO.N,45*%
X75030599Y-56545263D02*
X75030599Y-56110337D01*
%TO.N,44*%
X74130599Y-56156392D02*
X73807997Y-55833790D01*
X73807997Y-54235524D02*
X73607997Y-54035524D01*
X73607997Y-53642470D02*
X73922050Y-53328417D01*
%TO.N,45*%
X74920599Y-59350400D02*
X74920599Y-59232798D01*
X75602099Y-58318262D02*
X75602099Y-57904048D01*
X75184807Y-53179621D02*
X75344799Y-53179621D01*
X75450199Y-57752148D02*
X75450199Y-56852800D01*
%TO.N,14*%
X74107997Y-53828417D02*
X74107997Y-55709526D01*
X74522765Y-57798559D02*
X74602099Y-57877893D01*
%TO.N,16*%
X76919199Y-53090699D02*
X76919199Y-54604507D01*
%TO.N,46*%
X76072521Y-59359322D02*
X76072521Y-59262054D01*
X76390398Y-55853860D02*
X75850263Y-55313725D01*
%TO.N,44*%
X74222765Y-57010221D02*
X74130599Y-56918055D01*
%TO.N,14*%
X74522765Y-56885957D02*
X74522765Y-57798559D01*
X74602099Y-58561347D02*
X74522765Y-58640681D01*
X74107997Y-55709526D02*
X74430599Y-56032128D01*
%TO.N,45*%
X75602099Y-57904048D02*
X75450199Y-57752148D01*
%TO.N,44*%
X73777599Y-59350400D02*
X73929512Y-59198487D01*
%TO.N,45*%
X74857199Y-55610200D02*
X74857199Y-53507229D01*
%TO.N,44*%
X74302099Y-58002157D02*
X74222765Y-57922823D01*
%TO.N,45*%
X75112747Y-58611155D02*
X75309206Y-58611155D01*
%TO.N,16*%
X76690398Y-54833308D02*
X76690398Y-58806527D01*
%TO.N,44*%
X74028117Y-53328417D02*
X74553519Y-52803015D01*
X74302099Y-58437083D02*
X74302099Y-58002157D01*
%TO.N,45*%
X74920599Y-59232798D02*
X75120387Y-59033010D01*
%TO.N,16*%
X76364599Y-50635701D02*
X77158799Y-51429901D01*
%TO.N,45*%
X75309206Y-58611155D02*
X75602099Y-58318262D01*
%TO.N,14*%
X74522765Y-58640681D02*
X74522765Y-58728281D01*
%TO.N,40*%
X74730599Y-55986073D02*
X74769703Y-55946968D01*
%TO.N,44*%
X73922050Y-53328417D02*
X74028117Y-53328417D01*
%TO.N,16*%
X76364599Y-47919357D02*
X76364599Y-50635701D01*
%TO.N,46*%
X76380599Y-56669527D02*
X76380599Y-56547113D01*
%TO.N,40*%
X74853519Y-53086645D02*
X74853519Y-52242027D01*
%TO.N,16*%
X77158799Y-51429901D02*
X77158799Y-52851099D01*
%TO.N,46*%
X75850263Y-55313725D02*
X75850263Y-54080849D01*
%TO.N,16*%
X76919199Y-54604507D02*
X76690398Y-54833308D01*
%TO.N,46*%
X76190599Y-59477400D02*
X76072521Y-59359322D01*
%TO.N,16*%
X76690398Y-58806527D02*
X76709993Y-58826122D01*
%TO.N,46*%
X76202099Y-56848027D02*
X76380599Y-56669527D01*
X76380599Y-56547113D02*
X76390398Y-56537314D01*
%TO.N,16*%
X77158799Y-52851099D02*
X76919199Y-53090699D01*
%TO.N,46*%
X76390398Y-56537314D02*
X76390398Y-55853860D01*
%TO.N,45*%
X75030599Y-56110337D02*
X75193967Y-55946968D01*
%TO.N,LRCK*%
X100613592Y-48861027D02*
X100613592Y-47489109D01*
%TD*%
M02*
