M48
; DRILL file {KiCad 8.0.0} date 2024-02-28T09:47:02-0800
; FORMAT={-:-/ absolute / metric / decimal}
; #@! TF.CreationDate,2024-02-28T09:47:02-08:00
; #@! TF.GenerationSoftware,Kicad,Pcbnew,8.0.0
; #@! TF.FileFunction,Plated,1,4,PTH
FMAT,2
METRIC
; #@! TA.AperFunction,Plated,PTH,ViaDrill
T1C0.150
; #@! TA.AperFunction,Plated,PTH,ComponentDrill
T2C0.350
; #@! TA.AperFunction,Plated,PTH,ComponentDrill
T3C0.850
; #@! TA.AperFunction,Plated,PTH,ComponentDrill
T4C0.900
; #@! TA.AperFunction,Plated,PTH,ComponentDrill
T5C0.950
; #@! TA.AperFunction,Plated,PTH,ComponentDrill
T6C1.000
%
G90
G05
T1
X39.615Y-51.984
X41.139Y-50.587
X41.418Y-33.011
X42.155Y-52.746
X42.282Y-46.515
X43.302Y-51.252
X45.482Y-42.104
X45.646Y-56.179
X46.584Y-55.778
X46.888Y-40.538
X47.616Y-32.401
X47.819Y-35.754
X48.225Y-57.421
X48.793Y-53.767
X48.971Y-54.956
X49.594Y-51.651
X49.749Y-56.896
X49.835Y-46.025
X49.924Y-46.879
X50.381Y-44.294
X50.511Y-43.069
X52.391Y-41.748
X53.94Y-24.679
X54.067Y-59.02
X54.22Y-28.743
X54.304Y-56.896
X54.88Y-37.43
X54.88Y-59.528
X55.127Y-38.534
X55.286Y-25.391
X55.354Y-55.921
X55.648Y-39.488
X55.896Y-59.325
X56.212Y-40.337
X56.353Y-47.743
X56.353Y-53.432
X56.373Y-39.819
X56.404Y-48.301
X56.48Y-24.73
X56.633Y-52.365
X56.76Y-33.976
X56.887Y-50.714
X56.887Y-51.603
X56.911Y-49.309
X57.004Y-48.717
X57.032Y-49.897
X57.351Y-58.85
X57.522Y-28.591
X57.649Y-25.441
X57.674Y-26.203
X57.877Y-55.176
X58.042Y-58.461
X58.123Y-43.577
X58.284Y-51.349
X58.436Y-42.561
X58.576Y-58.797
X58.995Y-26.254
X59.046Y-25.441
X59.147Y-48.454
X59.148Y-43.06
X59.3Y-53.127
X59.3Y-58.334
X59.843Y-58.853
X59.909Y-49.86
X60.013Y-54.132
X60.096Y-54.864
X60.167Y-50.772
X60.214Y-57.547
X60.265Y-26.153
X60.316Y-25.441
X60.57Y-58.522
X60.583Y-39.479
X60.655Y-35.052
X60.706Y-32.36
X60.706Y-54.005
X60.874Y-38.954
X61.133Y-58.814
X61.197Y-46.523
X61.296Y-42.276
X61.484Y-26.305
X61.586Y-25.568
X61.586Y-50.976
X61.84Y-58.461
X62.186Y-54.33
X62.403Y-58.998
X62.511Y-51.745
X62.66Y-43.975
X62.703Y-26.407
X62.792Y-46.47
X62.856Y-25.568
X63.16Y-42.256
X63.237Y-58.461
X63.626Y-52.937
X63.626Y-58.969
X63.727Y-46.923
X64.075Y-26.356
X64.126Y-25.568
X64.217Y-43.975
X64.333Y-58.542
X64.43Y-55.464
X64.524Y-53.339
X64.596Y-52.797
X64.786Y-43.983
X65.015Y-59.223
X65.396Y-25.568
X65.396Y-26.305
X65.642Y-56.48
X65.65Y-58.461
X65.686Y-57.735
X66.166Y-59.223
X66.521Y-25.568
X66.585Y-55.343
X66.615Y-26.305
X66.619Y-57.449
X67.15Y-57.931
X67.208Y-59.008
X67.56Y-57.407
X67.756Y-59.401
X67.818Y-47.239
X67.834Y-26.356
X67.885Y-55.058
X67.936Y-25.568
X67.966Y-44.25
X68.088Y-55.871
X68.208Y-59.006
X68.215Y-51.959
X68.262Y-45.242
X68.596Y-49.978
X68.647Y-27.829
X68.647Y-55.749
X68.783Y-58.447
X68.865Y-54.048
X68.924Y-45.314
X68.978Y-33.813
X68.994Y-26.281
X69.002Y-33.214
X69.081Y-25.486
X69.208Y-58.871
X69.46Y-43.882
X69.51Y-40.173
X69.545Y-56.259
X69.908Y-38.455
X70.14Y-59.485
X70.207Y-58.626
X70.294Y-26.221
X70.302Y-25.506
X70.742Y-49.427
X70.831Y-30.471
X70.882Y-33.815
X70.92Y-58.928
X70.984Y-29.505
X71.025Y-26.904
X71.085Y-57.801
X71.168Y-34.799
X71.217Y-47.971
X71.229Y-48.971
X71.246Y-59.35
X71.516Y-30.304
X71.542Y-44.085
X71.557Y-52.758
X71.668Y-51.725
X71.677Y-50.66
X71.68Y-39.924
X71.746Y-25.568
X71.746Y-26.305
X71.793Y-49.265
X71.964Y-28.779
X72.039Y-32.67
X72.075Y-50.211
X72.097Y-58.685
X72.416Y-44.085
X72.492Y-42.672
X72.508Y-59.35
X72.624Y-51.486
X72.652Y-52.687
X72.664Y-50.486
X72.736Y-42.215
X72.759Y-35.487
X72.802Y-48.974
X72.959Y-58.854
X72.963Y-57.549
X72.965Y-44.085
X73.041Y-25.594
X73.059Y-26.181
X73.096Y-27.44
X73.145Y-52.304
X73.168Y-37.176
X73.331Y-42.093
X73.353Y-55.671
X73.533Y-47.556
X73.596Y-28.805
X73.597Y-53.052
X73.617Y-49.601
X73.777Y-58.22
X73.778Y-59.35
X74.054Y-52.666
X74.108Y-53.828
X74.286Y-25.568
X74.336Y-26.254
X74.507Y-48.049
X74.588Y-50.149
X74.62Y-58.826
X74.823Y-51.462
X74.921Y-59.35
X75.102Y-58.111
X75.292Y-52.511
X75.345Y-53.18
X75.367Y-31.604
X75.493Y-47.197
X75.556Y-25.568
X75.556Y-26.305
X75.565Y-56.196
X75.71Y-58.917
X75.759Y-52.271
X75.85Y-54.081
X76.191Y-59.477
X76.36Y-47.915
X76.419Y-54.489
X76.422Y-53.807
X76.71Y-58.826
X76.826Y-25.568
X76.826Y-26.203
X77.021Y-47.004
X77.588Y-59.35
X77.771Y-33.993
X77.919Y-46.704
X78.088Y-58.842
X78.096Y-25.568
X78.096Y-26.254
X78.096Y-39.488
X78.231Y-43.52
X78.297Y-41.538
X78.305Y-42.852
X78.427Y-47.819
X78.729Y-43.855
X78.807Y-48.2
X78.85Y-38.738
X78.858Y-59.477
X79.018Y-58.848
X79.061Y-33.519
X79.144Y-34.988
X79.239Y-25.568
X79.264Y-26.407
X79.519Y-54.279
X79.548Y-33.711
X79.659Y-31.328
X79.7Y-47.891
X79.992Y-31.857
X80.008Y-52.986
X80.128Y-59.604
X80.153Y-32.857
X80.16Y-46.565
X80.203Y-30.046
X80.274Y-47.716
X80.291Y-40.028
X80.411Y-25.31
X80.411Y-26.017
X80.428Y-53.948
X80.496Y-33.349
X80.534Y-38.954
X80.585Y-35.703
X80.585Y-44.796
X80.628Y-58.961
X80.734Y-30.267
X80.742Y-46.418
X80.89Y-31.233
X81.201Y-34.238
X81.398Y-59.604
X81.538Y-32.911
X81.724Y-42.017
X81.75Y-25.965
X81.779Y-58.961
X81.781Y-25.365
X82.063Y-56.067
X82.119Y-56.837
X82.169Y-48.138
X82.25Y-48.715
X82.258Y-27.232
X82.449Y-55.153
X82.668Y-59.604
X82.718Y-26.965
X82.859Y-50.611
X83.026Y-58.63
X83.176Y-25.568
X83.24Y-49.005
X83.301Y-26.236
X83.321Y-51.94
X83.379Y-55.21
X83.557Y-55.828
X83.643Y-52.42
X83.675Y-48.151
X83.763Y-33.625
X84.242Y-58.106
X84.395Y-43.171
X84.446Y-25.568
X84.499Y-59.218
X84.553Y-27.323
X84.557Y-26.145
X84.818Y-56.582
X84.852Y-44.999
X84.995Y-30.664
X85.081Y-59.604
X85.106Y-39.794
X85.141Y-34.239
X85.157Y-38.395
X85.501Y-55.634
X85.665Y-26.203
X85.716Y-25.543
X85.835Y-59.088
X86.136Y-32.794
X86.351Y-59.604
X86.424Y-41.528
X86.478Y-47.793
X86.63Y-43.933
X86.721Y-53.718
X86.721Y-53.011
X86.823Y-59.063
X86.825Y-33.722
X86.833Y-39.818
X86.935Y-26.254
X86.986Y-25.543
X87.309Y-48.047
X87.494Y-27.152
X87.494Y-33.773
X87.621Y-59.604
X87.637Y-55.048
X88.065Y-33.772
X88.154Y-26.203
X88.205Y-25.543
X88.256Y-40.173
X88.306Y-50.638
X88.317Y-59.607
X88.408Y-42.51
X88.426Y-48.344
X88.591Y-54.174
X88.672Y-57.592
X88.713Y-43.983
X88.792Y-33.621
X89.058Y-48.388
X89.098Y-59.807
X89.17Y-27.27
X89.313Y-58.127
X89.322Y-38.903
X89.322Y-43.018
X89.506Y-35.35
X89.526Y-25.543
X89.526Y-26.153
X89.627Y-34.687
X89.645Y-37.941
X89.873Y-57.838
X90.135Y-58.321
X90.337Y-59.675
X90.652Y-47.526
X90.745Y-26.203
X90.796Y-25.543
X91.022Y-48.002
X91.366Y-59.157
X91.384Y-58.431
X91.702Y-48.887
X91.83Y-43.323
X91.83Y-43.919
X92.015Y-26.254
X92.066Y-25.492
X92.099Y-33.855
X92.155Y-51.808
X92.155Y-53.095
X92.26Y-47.994
X92.278Y-46.261
X92.384Y-58.445
X92.431Y-49.572
X92.574Y-59.223
X92.575Y-50.155
X92.777Y-43.526
X93.184Y-26.229
X93.211Y-25.494
X93.293Y-43.374
X93.484Y-58.775
X93.792Y-59.29
X94.081Y-46.844
X94.098Y-27.423
X94.13Y-25.998
X94.253Y-25.285
X94.344Y-51.034
X94.396Y-58.461
X94.425Y-50.44
X94.5Y-48.428
X94.5Y-49.19
X94.593Y-43.62
X94.644Y-52.365
X94.724Y-53.972
X94.853Y-46.342
X95.114Y-59.096
X95.234Y-26.213
X95.755Y-58.273
X95.833Y-38.954
X95.986Y-26.203
X96.18Y-57.293
X96.307Y-31.312
X96.34Y-32.72
X96.384Y-41.951
X96.391Y-29.963
X96.449Y-43.092
X96.449Y-44.073
X96.536Y-25.391
X96.662Y-29.155
X96.663Y-27.855
X97.247Y-56.531
X97.384Y-52.758
X97.806Y-57.547
X97.825Y-27.482
X97.958Y-30.877
X98.195Y-28.455
X98.306Y-31.775
X98.383Y-47.895
X98.466Y-52.975
X98.72Y-49.521
X98.722Y-51.144
X98.771Y-50.486
X98.78Y-48.924
X98.845Y-29.912
X98.974Y-32.452
X98.974Y-43.526
X98.974Y-47.438
X99.076Y-29.152
X99.177Y-30.763
X99.18Y-34.529
X99.228Y-36.313
X99.278Y-33.77
X99.608Y-38.036
X99.753Y-46.758
X99.774Y-30.706
X99.808Y-48.692
X99.946Y-38.751
X99.999Y-41.526
X100.097Y-40.398
X100.37Y-30.639
X100.397Y-49.521
X100.854Y-50.181
X101.042Y-48.569
X101.446Y-48.125
X102.022Y-54.042
X102.226Y-41.24
X102.581Y-43.018
X102.835Y-29.353
X102.884Y-41.24
X103.484Y-41.209
X104.105Y-41.24
X104.69Y-41.226
X104.969Y-36.668
X104.976Y-30.63
X105.289Y-41.225
X105.375Y-37.278
X105.528Y-34.535
X105.744Y-53.214
X105.934Y-37.735
X105.971Y-26.203
X106.341Y-53.28
X106.493Y-43.221
X107.255Y-53.991
X108.626Y-53.686
X108.728Y-54.347
X109.084Y-26.965
X109.998Y-54.753
X110.958Y-45.005
X111.112Y-36.94
X111.319Y-42.612
X111.471Y-40.478
X111.507Y-44.867
X111.547Y-44.268
X111.583Y-49.124
X111.624Y-43.221
X111.742Y-39.482
X111.827Y-48.403
X111.91Y-46.829
X111.928Y-54.397
X112.081Y-50.638
X112.146Y-44.237
X112.353Y-46.425
X112.538Y-43.374
X112.589Y-51.299
X113.146Y-40.07
X115.18Y-33.061
X115.688Y-55.058
T2
X105.391Y-47.158
X105.391Y-48.433
X105.391Y-49.708
X106.666Y-47.158
X106.666Y-48.433
X106.666Y-49.708
X107.941Y-47.158
X107.941Y-48.433
X107.941Y-49.708
T3
X36.795Y-29.404
X36.821Y-38.268
X39.335Y-29.404
X39.361Y-38.268
X46.955Y-29.404
X46.981Y-38.268
X49.495Y-29.404
X49.521Y-38.268
X52.035Y-29.404
X52.061Y-38.268
T4
X38.726Y-26.838
X41.266Y-26.838
X43.806Y-26.838
X46.346Y-26.838
X48.886Y-26.838
T5
X58.411Y-30.648
X58.411Y-33.188
X58.411Y-35.728
X58.411Y-38.268
T6
X35.551Y-41.483
X35.551Y-43.983
X35.551Y-46.523
X104.131Y-57.318
X106.671Y-57.318
X109.211Y-57.318
M30
