%TF.GenerationSoftware,KiCad,Pcbnew,8.0.0*%
%TF.CreationDate,2024-02-28T09:47:00-08:00*%
%TF.ProjectId,SenseBarnacle,53656e73-6542-4617-926e-61636c652e6b,rev?*%
%TF.SameCoordinates,Original*%
%TF.FileFunction,Copper,L4,Bot*%
%TF.FilePolarity,Positive*%
%FSLAX46Y46*%
G04 Gerber Fmt 4.6, Leading zero omitted, Abs format (unit mm)*
G04 Created by KiCad (PCBNEW 8.0.0) date 2024-02-28 09:47:00*
%MOMM*%
%LPD*%
G01*
G04 APERTURE LIST*
G04 Aperture macros list*
%AMRoundRect*
0 Rectangle with rounded corners*
0 $1 Rounding radius*
0 $2 $3 $4 $5 $6 $7 $8 $9 X,Y pos of 4 corners*
0 Add a 4 corners polygon primitive as box body*
4,1,4,$2,$3,$4,$5,$6,$7,$8,$9,$2,$3,0*
0 Add four circle primitives for the rounded corners*
1,1,$1+$1,$2,$3*
1,1,$1+$1,$4,$5*
1,1,$1+$1,$6,$7*
1,1,$1+$1,$8,$9*
0 Add four rect primitives between the rounded corners*
20,1,$1+$1,$2,$3,$4,$5,0*
20,1,$1+$1,$4,$5,$6,$7,0*
20,1,$1+$1,$6,$7,$8,$9,0*
20,1,$1+$1,$8,$9,$2,$3,0*%
%AMRotRect*
0 Rectangle, with rotation*
0 The origin of the aperture is its center*
0 $1 length*
0 $2 width*
0 $3 Rotation angle, in degrees counterclockwise*
0 Add horizontal line*
21,1,$1,$2,0,0,$3*%
%AMFreePoly0*
4,1,19,0.550000,-0.750000,0.000000,-0.750000,0.000000,-0.744911,-0.071157,-0.744911,-0.207708,-0.704816,-0.327430,-0.627875,-0.420627,-0.520320,-0.479746,-0.390866,-0.500000,-0.250000,-0.500000,0.250000,-0.479746,0.390866,-0.420627,0.520320,-0.327430,0.627875,-0.207708,0.704816,-0.071157,0.744911,0.000000,0.744911,0.000000,0.750000,0.550000,0.750000,0.550000,-0.750000,0.550000,-0.750000,
$1*%
%AMFreePoly1*
4,1,19,0.000000,0.744911,0.071157,0.744911,0.207708,0.704816,0.327430,0.627875,0.420627,0.520320,0.479746,0.390866,0.500000,0.250000,0.500000,-0.250000,0.479746,-0.390866,0.420627,-0.520320,0.327430,-0.627875,0.207708,-0.704816,0.071157,-0.744911,0.000000,-0.744911,0.000000,-0.750000,-0.550000,-0.750000,-0.550000,0.750000,0.000000,0.750000,0.000000,0.744911,0.000000,0.744911,
$1*%
G04 Aperture macros list end*
%ADD10C,0.100000*%
%TA.AperFunction,NonConductor*%
%ADD11C,0.100000*%
%TD*%
%ADD12C,0.250000*%
%TA.AperFunction,NonConductor*%
%ADD13C,0.250000*%
%TD*%
%TA.AperFunction,EtchedComponent*%
%ADD14C,0.000000*%
%TD*%
%TA.AperFunction,ComponentPad*%
%ADD15RoundRect,0.225000X-0.525000X-0.525000X0.525000X-0.525000X0.525000X0.525000X-0.525000X0.525000X0*%
%TD*%
%TA.AperFunction,ComponentPad*%
%ADD16RoundRect,0.525000X-0.225000X-0.225000X0.225000X-0.225000X0.225000X0.225000X-0.225000X0.225000X0*%
%TD*%
%TA.AperFunction,ComponentPad*%
%ADD17RoundRect,0.525000X-0.225000X0.225000X-0.225000X-0.225000X0.225000X-0.225000X0.225000X0.225000X0*%
%TD*%
%TA.AperFunction,SMDPad,CuDef*%
%ADD18R,0.406400X0.254000*%
%TD*%
%TA.AperFunction,SMDPad,CuDef*%
%ADD19R,0.254000X0.406400*%
%TD*%
%TA.AperFunction,SMDPad,CuDef*%
%ADD20R,3.708400X3.708400*%
%TD*%
%TA.AperFunction,SMDPad,CuDef*%
%ADD21RoundRect,0.140000X0.140000X0.170000X-0.140000X0.170000X-0.140000X-0.170000X0.140000X-0.170000X0*%
%TD*%
%TA.AperFunction,SMDPad,CuDef*%
%ADD22RoundRect,0.237500X-0.300000X-0.237500X0.300000X-0.237500X0.300000X0.237500X-0.300000X0.237500X0*%
%TD*%
%TA.AperFunction,SMDPad,CuDef*%
%ADD23RoundRect,0.250000X0.565685X0.070711X0.070711X0.565685X-0.565685X-0.070711X-0.070711X-0.565685X0*%
%TD*%
%TA.AperFunction,ComponentPad*%
%ADD24RoundRect,0.525000X0.225000X-0.225000X0.225000X0.225000X-0.225000X0.225000X-0.225000X-0.225000X0*%
%TD*%
%TA.AperFunction,ComponentPad*%
%ADD25C,1.500000*%
%TD*%
%TA.AperFunction,SMDPad,CuDef*%
%ADD26RoundRect,0.090000X0.360000X2.410000X-0.360000X2.410000X-0.360000X-2.410000X0.360000X-2.410000X0*%
%TD*%
%TA.AperFunction,SMDPad,CuDef*%
%ADD27RoundRect,0.250000X0.475000X-0.337500X0.475000X0.337500X-0.475000X0.337500X-0.475000X-0.337500X0*%
%TD*%
%TA.AperFunction,SMDPad,CuDef*%
%ADD28RoundRect,0.237500X-0.250000X-0.237500X0.250000X-0.237500X0.250000X0.237500X-0.250000X0.237500X0*%
%TD*%
%TA.AperFunction,SMDPad,CuDef*%
%ADD29RoundRect,0.500000X0.100000X0.100000X-0.100000X0.100000X-0.100000X-0.100000X0.100000X-0.100000X0*%
%TD*%
%TA.AperFunction,SMDPad,CuDef*%
%ADD30RoundRect,0.250000X-0.475000X0.337500X-0.475000X-0.337500X0.475000X-0.337500X0.475000X0.337500X0*%
%TD*%
%TA.AperFunction,SMDPad,CuDef*%
%ADD31RoundRect,0.250000X-0.350000X-0.450000X0.350000X-0.450000X0.350000X0.450000X-0.350000X0.450000X0*%
%TD*%
%TA.AperFunction,SMDPad,CuDef*%
%ADD32FreePoly0,0.000000*%
%TD*%
%TA.AperFunction,SMDPad,CuDef*%
%ADD33R,1.000000X1.500000*%
%TD*%
%TA.AperFunction,SMDPad,CuDef*%
%ADD34FreePoly1,0.000000*%
%TD*%
%TA.AperFunction,SMDPad,CuDef*%
%ADD35RoundRect,0.237500X0.237500X-0.300000X0.237500X0.300000X-0.237500X0.300000X-0.237500X-0.300000X0*%
%TD*%
%TA.AperFunction,SMDPad,CuDef*%
%ADD36RoundRect,0.150000X0.150000X-0.825000X0.150000X0.825000X-0.150000X0.825000X-0.150000X-0.825000X0*%
%TD*%
%TA.AperFunction,ComponentPad*%
%ADD37C,0.600000*%
%TD*%
%TA.AperFunction,ComponentPad*%
%ADD38O,1.300000X1.500000*%
%TD*%
%TA.AperFunction,SMDPad,CuDef*%
%ADD39RotRect,1.700000X1.000000X135.000000*%
%TD*%
%TA.AperFunction,SMDPad,CuDef*%
%ADD40RoundRect,0.500000X0.100000X-0.100000X0.100000X0.100000X-0.100000X0.100000X-0.100000X-0.100000X0*%
%TD*%
%TA.AperFunction,SMDPad,CuDef*%
%ADD41RoundRect,0.237500X-0.237500X0.300000X-0.237500X-0.300000X0.237500X-0.300000X0.237500X0.300000X0*%
%TD*%
%TA.AperFunction,SMDPad,CuDef*%
%ADD42R,1.200000X1.400000*%
%TD*%
%TA.AperFunction,SMDPad,CuDef*%
%ADD43RoundRect,0.375000X0.375000X-0.625000X0.375000X0.625000X-0.375000X0.625000X-0.375000X-0.625000X0*%
%TD*%
%TA.AperFunction,SMDPad,CuDef*%
%ADD44RoundRect,0.500000X1.400000X-0.500000X1.400000X0.500000X-1.400000X0.500000X-1.400000X-0.500000X0*%
%TD*%
%TA.AperFunction,SMDPad,CuDef*%
%ADD45RoundRect,0.140000X-0.140000X-0.170000X0.140000X-0.170000X0.140000X0.170000X-0.140000X0.170000X0*%
%TD*%
%TA.AperFunction,SMDPad,CuDef*%
%ADD46RoundRect,0.150000X0.650000X0.150000X-0.650000X0.150000X-0.650000X-0.150000X0.650000X-0.150000X0*%
%TD*%
%TA.AperFunction,ViaPad*%
%ADD47C,0.350000*%
%TD*%
%TA.AperFunction,Conductor*%
%ADD48C,0.150000*%
%TD*%
%TA.AperFunction,Conductor*%
%ADD49C,0.200000*%
%TD*%
%TA.AperFunction,Conductor*%
%ADD50C,0.250000*%
%TD*%
G04 APERTURE END LIST*
D10*
D11*
G36*
X83785726Y-65870400D02*
G01*
X83942774Y-65870400D01*
X84644728Y-65689074D01*
X84813500Y-65689074D01*
X84813500Y-65870400D01*
X84905091Y-65870400D01*
X84905091Y-65482737D01*
X84813500Y-65482737D01*
X84813500Y-65657811D01*
X84643751Y-65657811D01*
X83972572Y-65482737D01*
X83827003Y-65482737D01*
X84560708Y-65672563D01*
X83785726Y-65870400D01*
G37*
G36*
X83421327Y-65589217D02*
G01*
X83476129Y-65590042D01*
X83525435Y-65591525D01*
X83579341Y-65594307D01*
X83612515Y-65597073D01*
X83662151Y-65604141D01*
X83705614Y-65615117D01*
X83724621Y-65622479D01*
X83752478Y-65639152D01*
X83769606Y-65658006D01*
X83774602Y-65666948D01*
X83782053Y-65687193D01*
X83785863Y-65708106D01*
X83786947Y-65728836D01*
X83786947Y-65735675D01*
X83786680Y-65746178D01*
X83784543Y-65765717D01*
X83779584Y-65785363D01*
X83769850Y-65806017D01*
X83762308Y-65815840D01*
X83738839Y-65834390D01*
X83705614Y-65849199D01*
X83672847Y-65858160D01*
X83624395Y-65866293D01*
X83576410Y-65870888D01*
X83571220Y-65871243D01*
X83520434Y-65873928D01*
X83469128Y-65875549D01*
X83419477Y-65876376D01*
X83365384Y-65876652D01*
X83334365Y-65876652D01*
X83300837Y-65876545D01*
X83250912Y-65875927D01*
X83200220Y-65874574D01*
X83150694Y-65872256D01*
X83124087Y-65870367D01*
X83076643Y-65865146D01*
X83031015Y-65856624D01*
X82991631Y-65843508D01*
X82965803Y-65826631D01*
X82959328Y-65819224D01*
X82949431Y-65799322D01*
X82946752Y-65779346D01*
X82946752Y-65770358D01*
X83031504Y-65770358D01*
X83031504Y-65778173D01*
X83032832Y-65791200D01*
X83042739Y-65811195D01*
X83049654Y-65817222D01*
X83085970Y-65831418D01*
X83127909Y-65838198D01*
X83178538Y-65842165D01*
X83182377Y-65842363D01*
X83234320Y-65844252D01*
X83285898Y-65845134D01*
X83338761Y-65845389D01*
X83365384Y-65845389D01*
X83391999Y-65845325D01*
X83441153Y-65844812D01*
X83489955Y-65843622D01*
X83540262Y-65841286D01*
X83544323Y-65841022D01*
X83594866Y-65835872D01*
X83640401Y-65825947D01*
X83667979Y-65813525D01*
X83687296Y-65794880D01*
X83693199Y-65782649D01*
X83698065Y-65763167D01*
X83699508Y-65742123D01*
X83699508Y-65739095D01*
X82952369Y-65739095D01*
X82952369Y-65707831D01*
X83038343Y-65707831D01*
X83697798Y-65707831D01*
X83697604Y-65704628D01*
X83693891Y-65684018D01*
X83684609Y-65664356D01*
X83672599Y-65652307D01*
X83639913Y-65637294D01*
X83637837Y-65636701D01*
X83593356Y-65628378D01*
X83543681Y-65624007D01*
X83527115Y-65623137D01*
X83474433Y-65621343D01*
X83423560Y-65620527D01*
X83372467Y-65620295D01*
X83349997Y-65620295D01*
X83343550Y-65620298D01*
X83289270Y-65620629D01*
X83236843Y-65621631D01*
X83184888Y-65623714D01*
X83136903Y-65627772D01*
X83091832Y-65636122D01*
X83072346Y-65643098D01*
X83049089Y-65660839D01*
X83048428Y-65661831D01*
X83040400Y-65681502D01*
X83038343Y-65701677D01*
X83038343Y-65707831D01*
X82952369Y-65707831D01*
X82952369Y-65705584D01*
X82953423Y-65689165D01*
X82958311Y-65668962D01*
X82969222Y-65648627D01*
X82971408Y-65645818D01*
X82994796Y-65627088D01*
X83030527Y-65612479D01*
X83054860Y-65606269D01*
X83102865Y-65598444D01*
X83151671Y-65594014D01*
X83192552Y-65591834D01*
X83244892Y-65590127D01*
X83297060Y-65589270D01*
X83347066Y-65589032D01*
X83376619Y-65589032D01*
X83421327Y-65589217D01*
G37*
G36*
X82386703Y-65870400D02*
G01*
X82478538Y-65870400D01*
X82880318Y-65595284D01*
X82780422Y-65595284D01*
X82428713Y-65840016D01*
X82432132Y-65840016D01*
X82073584Y-65595284D01*
X81976619Y-65595284D01*
X82386703Y-65870400D01*
G37*
G36*
X81789773Y-65870400D02*
G01*
X81877212Y-65870400D01*
X81877212Y-65595284D01*
X81789773Y-65595284D01*
X81789773Y-65870400D01*
G37*
G36*
X81789773Y-65532758D02*
G01*
X81877212Y-65532758D01*
X81877212Y-65482737D01*
X81789773Y-65482737D01*
X81789773Y-65532758D01*
G37*
G36*
X80757115Y-65870400D02*
G01*
X80844553Y-65870400D01*
X80844553Y-65717113D01*
X80845766Y-65697375D01*
X80850324Y-65677710D01*
X80854812Y-65667580D01*
X80872414Y-65649057D01*
X80894868Y-65638369D01*
X80939896Y-65628379D01*
X80981818Y-65624203D01*
X81034304Y-65621673D01*
X81083181Y-65620604D01*
X81133493Y-65620295D01*
X81157429Y-65620295D01*
X81207689Y-65620705D01*
X81258127Y-65622104D01*
X81303486Y-65624496D01*
X81353655Y-65629339D01*
X81398277Y-65637309D01*
X81406068Y-65639248D01*
X81443287Y-65652692D01*
X81466396Y-65668264D01*
X81480421Y-65688065D01*
X81485630Y-65709254D01*
X81485935Y-65716527D01*
X81485935Y-65870400D01*
X81573374Y-65870400D01*
X81573374Y-65595284D01*
X81485935Y-65595284D01*
X81492286Y-65651851D01*
X81493751Y-65651558D01*
X81473104Y-65632897D01*
X81458092Y-65624398D01*
X81421760Y-65611270D01*
X81394100Y-65604859D01*
X81345750Y-65597630D01*
X81297238Y-65593291D01*
X81293472Y-65593037D01*
X81243841Y-65590596D01*
X81191286Y-65589349D01*
X81143263Y-65589032D01*
X81119571Y-65589032D01*
X81068753Y-65589337D01*
X81017094Y-65590410D01*
X80966537Y-65592509D01*
X80943960Y-65593917D01*
X80895635Y-65598721D01*
X80849065Y-65607208D01*
X80832341Y-65611795D01*
X80798539Y-65626096D01*
X80775898Y-65644819D01*
X80773723Y-65647650D01*
X80762970Y-65668271D01*
X80758153Y-65688793D01*
X80757115Y-65705487D01*
X80757115Y-65870400D01*
G37*
G36*
X79052788Y-65768306D02*
G01*
X79054863Y-65788099D01*
X79062832Y-65808652D01*
X79074037Y-65823114D01*
X79100867Y-65840950D01*
X79138787Y-65853917D01*
X79148531Y-65856233D01*
X79193789Y-65864087D01*
X79244628Y-65869380D01*
X79292879Y-65872353D01*
X79347851Y-65874431D01*
X79403202Y-65875708D01*
X79456644Y-65876383D01*
X79506171Y-65876635D01*
X79523444Y-65876652D01*
X79567163Y-65876652D01*
X79620869Y-65876552D01*
X79671010Y-65876251D01*
X79726471Y-65875626D01*
X79776797Y-65874713D01*
X79829022Y-65873282D01*
X79849264Y-65872549D01*
X79898326Y-65869966D01*
X79946150Y-65865790D01*
X79994001Y-65858861D01*
X80008510Y-65855843D01*
X80049022Y-65842635D01*
X80074387Y-65825239D01*
X80078852Y-65819499D01*
X80088080Y-65799688D01*
X80092516Y-65780114D01*
X80093980Y-65760116D01*
X80093995Y-65757755D01*
X80093995Y-65745347D01*
X80003870Y-65745347D01*
X80003870Y-65757364D01*
X80002290Y-65778073D01*
X79996453Y-65797718D01*
X79992634Y-65804649D01*
X79968240Y-65822188D01*
X79939145Y-65830734D01*
X79889711Y-65837690D01*
X79840976Y-65841153D01*
X79809941Y-65842458D01*
X79755911Y-65843875D01*
X79706809Y-65844656D01*
X79651513Y-65845157D01*
X79599186Y-65845363D01*
X79571316Y-65845389D01*
X79529062Y-65845389D01*
X79477854Y-65845253D01*
X79424769Y-65844766D01*
X79371983Y-65843795D01*
X79331225Y-65842556D01*
X79279350Y-65839689D01*
X79231245Y-65834469D01*
X79214721Y-65831614D01*
X79175294Y-65819492D01*
X79159034Y-65808460D01*
X79147184Y-65788429D01*
X79144379Y-65768404D01*
X79144379Y-65760979D01*
X79147554Y-65741268D01*
X79157080Y-65725710D01*
X79188291Y-65709666D01*
X79211790Y-65704021D01*
X79260795Y-65697401D01*
X79313523Y-65693650D01*
X79339041Y-65692493D01*
X79391449Y-65690840D01*
X79445755Y-65689825D01*
X79499233Y-65689287D01*
X79549500Y-65689087D01*
X79567163Y-65689074D01*
X79617138Y-65688962D01*
X79672825Y-65688531D01*
X79723841Y-65687778D01*
X79777457Y-65686491D01*
X79830946Y-65684482D01*
X79882818Y-65681335D01*
X79931933Y-65676515D01*
X79979034Y-65668892D01*
X79982376Y-65668166D01*
X80021385Y-65656252D01*
X80048451Y-65638789D01*
X80050520Y-65636317D01*
X80061039Y-65616706D01*
X80065366Y-65596712D01*
X80065907Y-65585612D01*
X80065907Y-65577699D01*
X80063022Y-65556986D01*
X80053385Y-65537740D01*
X80045391Y-65528753D01*
X80019287Y-65512152D01*
X79979445Y-65498986D01*
X79973095Y-65497490D01*
X79925260Y-65489078D01*
X79875780Y-65483824D01*
X79834609Y-65481076D01*
X79781971Y-65478857D01*
X79728921Y-65477494D01*
X79677668Y-65476772D01*
X79621904Y-65476489D01*
X79613570Y-65476485D01*
X79582551Y-65476485D01*
X79525404Y-65476646D01*
X79472481Y-65477130D01*
X79416078Y-65478103D01*
X79365425Y-65479516D01*
X79326584Y-65481076D01*
X79274852Y-65484238D01*
X79225574Y-65489237D01*
X79177838Y-65497302D01*
X79174421Y-65498076D01*
X79133896Y-65510858D01*
X79107208Y-65527493D01*
X79102125Y-65532954D01*
X79090265Y-65553163D01*
X79084952Y-65573437D01*
X79083807Y-65590009D01*
X79083807Y-65601537D01*
X79173932Y-65601537D01*
X79173932Y-65590986D01*
X79175948Y-65570835D01*
X79183962Y-65550859D01*
X79186145Y-65547706D01*
X79212076Y-65530288D01*
X79238168Y-65522695D01*
X79284522Y-65515719D01*
X79334279Y-65511961D01*
X79358336Y-65510874D01*
X79407685Y-65509363D01*
X79458980Y-65508435D01*
X79509598Y-65507943D01*
X79565569Y-65507751D01*
X79574002Y-65507748D01*
X79603556Y-65507748D01*
X79654064Y-65507888D01*
X79706206Y-65508392D01*
X79757749Y-65509396D01*
X79797240Y-65510679D01*
X79847203Y-65513504D01*
X79896133Y-65519007D01*
X79909103Y-65521328D01*
X79949029Y-65533940D01*
X79961127Y-65542528D01*
X79972462Y-65562464D01*
X79974316Y-65577503D01*
X79974316Y-65585124D01*
X79971996Y-65605323D01*
X79965035Y-65621174D01*
X79935921Y-65637908D01*
X79915942Y-65642863D01*
X79868837Y-65649386D01*
X79817397Y-65653182D01*
X79792355Y-65654391D01*
X79740327Y-65656044D01*
X79685612Y-65657059D01*
X79631201Y-65657597D01*
X79579707Y-65657797D01*
X79561546Y-65657811D01*
X79511905Y-65657927D01*
X79456493Y-65658376D01*
X79405614Y-65659162D01*
X79351985Y-65660503D01*
X79298252Y-65662598D01*
X79245813Y-65665855D01*
X79195705Y-65670797D01*
X79146910Y-65678566D01*
X79143402Y-65679304D01*
X79102136Y-65691266D01*
X79074003Y-65707487D01*
X79070373Y-65711153D01*
X79058352Y-65730358D01*
X79053217Y-65751506D01*
X79052788Y-65760490D01*
X79052788Y-65768306D01*
G37*
G36*
X78526555Y-65589035D02*
G01*
X78575658Y-65589328D01*
X78625050Y-65590215D01*
X78677142Y-65592060D01*
X78685056Y-65592461D01*
X78735639Y-65596481D01*
X78783144Y-65603686D01*
X78813370Y-65611753D01*
X78844205Y-65627720D01*
X78845392Y-65628693D01*
X78859807Y-65647898D01*
X78863500Y-65667483D01*
X78863500Y-65676568D01*
X78778992Y-65676568D01*
X78778992Y-65668557D01*
X78778851Y-65665144D01*
X78769955Y-65645696D01*
X78769373Y-65645138D01*
X78734051Y-65631139D01*
X78705748Y-65626828D01*
X78655893Y-65622933D01*
X78620769Y-65621542D01*
X78570119Y-65620552D01*
X78520827Y-65620295D01*
X78498357Y-65620295D01*
X78491761Y-65620298D01*
X78436413Y-65620600D01*
X78383391Y-65621516D01*
X78331539Y-65623421D01*
X78284335Y-65627361D01*
X78240681Y-65636219D01*
X78219462Y-65645641D01*
X78201357Y-65664747D01*
X78197511Y-65674981D01*
X78193604Y-65695257D01*
X78192565Y-65715940D01*
X78189652Y-65731163D01*
X78225293Y-65718480D01*
X78244407Y-65714315D01*
X78290995Y-65708222D01*
X78338294Y-65704863D01*
X78387470Y-65703044D01*
X78420864Y-65702336D01*
X78471399Y-65701752D01*
X78523758Y-65701579D01*
X78550380Y-65701579D01*
X78562466Y-65701595D01*
X78613709Y-65702064D01*
X78664618Y-65703346D01*
X78713290Y-65705682D01*
X78721313Y-65706206D01*
X78771970Y-65711153D01*
X78818071Y-65719555D01*
X78846628Y-65728606D01*
X78874735Y-65745836D01*
X78875772Y-65746869D01*
X78888362Y-65766897D01*
X78891588Y-65786868D01*
X78891588Y-65791949D01*
X78888368Y-65812806D01*
X78876933Y-65832395D01*
X78859128Y-65845504D01*
X78822223Y-65858676D01*
X78811820Y-65861051D01*
X78764786Y-65868327D01*
X78713779Y-65872549D01*
X78691347Y-65873731D01*
X78640581Y-65875494D01*
X78588162Y-65876396D01*
X78536214Y-65876652D01*
X78511057Y-65876652D01*
X78483594Y-65876553D01*
X78433151Y-65875756D01*
X78381853Y-65873819D01*
X78337661Y-65871107D01*
X78289773Y-65866687D01*
X78269208Y-65863935D01*
X78225782Y-65854866D01*
X78217988Y-65852531D01*
X78187787Y-65840107D01*
X78191099Y-65870400D01*
X78105126Y-65870400D01*
X78105126Y-65789702D01*
X78191099Y-65789702D01*
X78191710Y-65797664D01*
X78200869Y-65816861D01*
X78205257Y-65820601D01*
X78243123Y-65833470D01*
X78289405Y-65839422D01*
X78338866Y-65842556D01*
X78355295Y-65843220D01*
X78407441Y-65844589D01*
X78457706Y-65845212D01*
X78508126Y-65845389D01*
X78532062Y-65845389D01*
X78573370Y-65845249D01*
X78623488Y-65844597D01*
X78672746Y-65843142D01*
X78706912Y-65841158D01*
X78755789Y-65834935D01*
X78762765Y-65833377D01*
X78795356Y-65818620D01*
X78801196Y-65810556D01*
X78805614Y-65790288D01*
X78805614Y-65787357D01*
X78805004Y-65779144D01*
X78795844Y-65759709D01*
X78793116Y-65757165D01*
X78757987Y-65743296D01*
X78725790Y-65738524D01*
X78675677Y-65735089D01*
X78634527Y-65733810D01*
X78585296Y-65733061D01*
X78533528Y-65732842D01*
X78508126Y-65732842D01*
X78502115Y-65732844D01*
X78451039Y-65733042D01*
X78400679Y-65733643D01*
X78349124Y-65734894D01*
X78299743Y-65737333D01*
X78251916Y-65742612D01*
X78239591Y-65744905D01*
X78204044Y-65758732D01*
X78196674Y-65766648D01*
X78191099Y-65786185D01*
X78191099Y-65789702D01*
X78105126Y-65789702D01*
X78105126Y-65720727D01*
X78105246Y-65712782D01*
X78106742Y-65693072D01*
X78111016Y-65671456D01*
X78118803Y-65651558D01*
X78121619Y-65646772D01*
X78141401Y-65627206D01*
X78174735Y-65611307D01*
X78197953Y-65604816D01*
X78245125Y-65597003D01*
X78294170Y-65593037D01*
X78335706Y-65591285D01*
X78389478Y-65589912D01*
X78443536Y-65589223D01*
X78495670Y-65589032D01*
X78520827Y-65589032D01*
X78526555Y-65589035D01*
G37*
G36*
X77085656Y-65870400D02*
G01*
X77173095Y-65870400D01*
X77173095Y-65717113D01*
X77174307Y-65697375D01*
X77178865Y-65677710D01*
X77183353Y-65667580D01*
X77200956Y-65649057D01*
X77223409Y-65638369D01*
X77268438Y-65628379D01*
X77310360Y-65624203D01*
X77362846Y-65621673D01*
X77411723Y-65620604D01*
X77462034Y-65620295D01*
X77485970Y-65620295D01*
X77536231Y-65620705D01*
X77586669Y-65622104D01*
X77632027Y-65624496D01*
X77682196Y-65629339D01*
X77726818Y-65637309D01*
X77734609Y-65639248D01*
X77771828Y-65652692D01*
X77794937Y-65668264D01*
X77808962Y-65688065D01*
X77814171Y-65709254D01*
X77814477Y-65716527D01*
X77814477Y-65870400D01*
X77901916Y-65870400D01*
X77901916Y-65595284D01*
X77814477Y-65595284D01*
X77820827Y-65651851D01*
X77822293Y-65651558D01*
X77801646Y-65632897D01*
X77786633Y-65624398D01*
X77750302Y-65611270D01*
X77722641Y-65604859D01*
X77674292Y-65597630D01*
X77625779Y-65593291D01*
X77622013Y-65593037D01*
X77572382Y-65590596D01*
X77519827Y-65589349D01*
X77471804Y-65589032D01*
X77448112Y-65589032D01*
X77397295Y-65589337D01*
X77345635Y-65590410D01*
X77295079Y-65592509D01*
X77272502Y-65593917D01*
X77224176Y-65598721D01*
X77177607Y-65607208D01*
X77160883Y-65611795D01*
X77127080Y-65626096D01*
X77104440Y-65644819D01*
X77102265Y-65647650D01*
X77091511Y-65668271D01*
X77086694Y-65688793D01*
X77085656Y-65705487D01*
X77085656Y-65870400D01*
G37*
G36*
X76582272Y-65876652D02*
G01*
X76632245Y-65876098D01*
X76683342Y-65874014D01*
X76710499Y-65871963D01*
X76758342Y-65864520D01*
X76790366Y-65853693D01*
X76815887Y-65836293D01*
X76829934Y-65816178D01*
X76836483Y-65796389D01*
X76839830Y-65774895D01*
X76840681Y-65754921D01*
X76840681Y-65626547D01*
X76976968Y-65626547D01*
X76976968Y-65595284D01*
X76840681Y-65595284D01*
X76840681Y-65526506D01*
X76753242Y-65526506D01*
X76753242Y-65595284D01*
X76260848Y-65595284D01*
X76260848Y-65626547D01*
X76753242Y-65626547D01*
X76753242Y-65752284D01*
X76752433Y-65772332D01*
X76749395Y-65792126D01*
X76746403Y-65802207D01*
X76733466Y-65821823D01*
X76721490Y-65830148D01*
X76680436Y-65841132D01*
X76667757Y-65842458D01*
X76617090Y-65844905D01*
X76572502Y-65845389D01*
X76542948Y-65845389D01*
X76492379Y-65844841D01*
X76443309Y-65842661D01*
X76435726Y-65842067D01*
X76389644Y-65834578D01*
X76377108Y-65830246D01*
X76354224Y-65812465D01*
X76351462Y-65807189D01*
X76346364Y-65786709D01*
X76345356Y-65769283D01*
X76345356Y-65739095D01*
X76263535Y-65739095D01*
X76263535Y-65772995D01*
X76265180Y-65792795D01*
X76271366Y-65813039D01*
X76277457Y-65823798D01*
X76296080Y-65841872D01*
X76324595Y-65855843D01*
X76366023Y-65866384D01*
X76412767Y-65872158D01*
X76461932Y-65875068D01*
X76515330Y-65876437D01*
X76550032Y-65876652D01*
X76582272Y-65876652D01*
G37*
G36*
X75719970Y-65589037D02*
G01*
X75774530Y-65589361D01*
X75824368Y-65590191D01*
X75875545Y-65591757D01*
X75925747Y-65594307D01*
X75964581Y-65597513D01*
X76010801Y-65603935D01*
X76054707Y-65614531D01*
X76073739Y-65621716D01*
X76101209Y-65638260D01*
X76117477Y-65657224D01*
X76122051Y-65666225D01*
X76128873Y-65686574D01*
X76132361Y-65707563D01*
X76133353Y-65728348D01*
X76133353Y-65737336D01*
X76133105Y-65747976D01*
X76131121Y-65767735D01*
X76126516Y-65787541D01*
X76117477Y-65808264D01*
X76111765Y-65816519D01*
X76089880Y-65835237D01*
X76054951Y-65850958D01*
X76022184Y-65859501D01*
X75973732Y-65867158D01*
X75925747Y-65871376D01*
X75920554Y-65871701D01*
X75869485Y-65874159D01*
X75817538Y-65875642D01*
X75767025Y-65876400D01*
X75711790Y-65876652D01*
X75679550Y-65876652D01*
X75671371Y-65876647D01*
X75616856Y-65876322D01*
X75567133Y-65875493D01*
X75516174Y-65873927D01*
X75466326Y-65871376D01*
X75432307Y-65868630D01*
X75381766Y-65861680D01*
X75338099Y-65850958D01*
X75319066Y-65843672D01*
X75291597Y-65827091D01*
X75275328Y-65808264D01*
X75270755Y-65799320D01*
X75263933Y-65779055D01*
X75260445Y-65758109D01*
X75259457Y-65737434D01*
X75346891Y-65737434D01*
X75347532Y-65754580D01*
X75350508Y-65775124D01*
X75357149Y-65794880D01*
X75370493Y-65811485D01*
X75401113Y-65827120D01*
X75407762Y-65829124D01*
X75452794Y-65837612D01*
X75501253Y-65841774D01*
X75523094Y-65842816D01*
X75573717Y-65844369D01*
X75627190Y-65845163D01*
X75681015Y-65845389D01*
X75710569Y-65845389D01*
X75738164Y-65845333D01*
X75788936Y-65844881D01*
X75839012Y-65843832D01*
X75890087Y-65841774D01*
X75894193Y-65841541D01*
X75945056Y-65836754D01*
X75990227Y-65827120D01*
X76018437Y-65813466D01*
X76035168Y-65794782D01*
X76041286Y-65778440D01*
X76044865Y-65758566D01*
X76045914Y-65737434D01*
X76045914Y-65728250D01*
X76045288Y-65711110D01*
X76042384Y-65690594D01*
X76035900Y-65670902D01*
X76022390Y-65654230D01*
X75991692Y-65638564D01*
X75985037Y-65636559D01*
X75939753Y-65628072D01*
X75890820Y-65623910D01*
X75868774Y-65622868D01*
X75817884Y-65621315D01*
X75764333Y-65620521D01*
X75710569Y-65620295D01*
X75681015Y-65620295D01*
X75653363Y-65620351D01*
X75602499Y-65620803D01*
X75552357Y-65621852D01*
X75501253Y-65623910D01*
X75497147Y-65624143D01*
X75446284Y-65628930D01*
X75401113Y-65638564D01*
X75373147Y-65652169D01*
X75357149Y-65670902D01*
X75351309Y-65687243D01*
X75347893Y-65707117D01*
X75346891Y-65728250D01*
X75346891Y-65737434D01*
X75259457Y-65737434D01*
X75259452Y-65737336D01*
X75259452Y-65728348D01*
X75259700Y-65717705D01*
X75261685Y-65697921D01*
X75266289Y-65678059D01*
X75275328Y-65657224D01*
X75281047Y-65648892D01*
X75303003Y-65630108D01*
X75338099Y-65614531D01*
X75367220Y-65606848D01*
X75414584Y-65599033D01*
X75466570Y-65594307D01*
X75471703Y-65593983D01*
X75522317Y-65591525D01*
X75573989Y-65590042D01*
X75624362Y-65589284D01*
X75679550Y-65589032D01*
X75711790Y-65589032D01*
X75719970Y-65589037D01*
G37*
G36*
X74058022Y-65876652D02*
G01*
X74108992Y-65876531D01*
X74163580Y-65876094D01*
X74214261Y-65875340D01*
X74266605Y-65874112D01*
X74319408Y-65872009D01*
X74371817Y-65868506D01*
X74418280Y-65863756D01*
X74465811Y-65856422D01*
X74508794Y-65846324D01*
X74522083Y-65842165D01*
X74556122Y-65827512D01*
X74582218Y-65809381D01*
X74585098Y-65806701D01*
X74600899Y-65787548D01*
X74611478Y-65767293D01*
X74615872Y-65754335D01*
X74620380Y-65734155D01*
X74623010Y-65714165D01*
X74624287Y-65692444D01*
X74624421Y-65682235D01*
X74624421Y-65670902D01*
X74623717Y-65648682D01*
X74621604Y-65628111D01*
X74617360Y-65606194D01*
X74611199Y-65586522D01*
X74604393Y-65571446D01*
X74589843Y-65551390D01*
X74565972Y-65532206D01*
X74533991Y-65516284D01*
X74522816Y-65512144D01*
X74479377Y-65500216D01*
X74432043Y-65491847D01*
X74383416Y-65486289D01*
X74349892Y-65483714D01*
X74297941Y-65480897D01*
X74248110Y-65479033D01*
X74193385Y-65477678D01*
X74144041Y-65476936D01*
X74091299Y-65476548D01*
X74058022Y-65476485D01*
X74018699Y-65476485D01*
X73966969Y-65476590D01*
X73909175Y-65476993D01*
X73856052Y-65477698D01*
X73799979Y-65478903D01*
X73750264Y-65480519D01*
X73743681Y-65480783D01*
X73694359Y-65483452D01*
X73645916Y-65487694D01*
X73596834Y-65494664D01*
X73581748Y-65497685D01*
X73541284Y-65509586D01*
X73511952Y-65526116D01*
X73505056Y-65532954D01*
X73492721Y-65553435D01*
X73487196Y-65574115D01*
X73486005Y-65591083D01*
X73486005Y-65601537D01*
X73574909Y-65601537D01*
X73574909Y-65592060D01*
X73576818Y-65571781D01*
X73579794Y-65561481D01*
X73595102Y-65542388D01*
X73599578Y-65539402D01*
X73636550Y-65525703D01*
X73643542Y-65524161D01*
X73690415Y-65517221D01*
X73722188Y-65514391D01*
X73773944Y-65511404D01*
X73822613Y-65509726D01*
X73844798Y-65509213D01*
X73898358Y-65508379D01*
X73947418Y-65507954D01*
X74001192Y-65507761D01*
X74020164Y-65507748D01*
X74056801Y-65507748D01*
X74108198Y-65507876D01*
X74161605Y-65508327D01*
X74215463Y-65509208D01*
X74240227Y-65509799D01*
X74290067Y-65511639D01*
X74341527Y-65515093D01*
X74369187Y-65517908D01*
X74416326Y-65525284D01*
X74453207Y-65535103D01*
X74485800Y-65550611D01*
X74502544Y-65564119D01*
X74516737Y-65582947D01*
X74524957Y-65602459D01*
X74526724Y-65609060D01*
X74530200Y-65628754D01*
X74532108Y-65648782D01*
X74532806Y-65668537D01*
X74532830Y-65673149D01*
X74532830Y-65679988D01*
X74532385Y-65700091D01*
X74530849Y-65720470D01*
X74527893Y-65740507D01*
X74527212Y-65743882D01*
X74520794Y-65764070D01*
X74508780Y-65783878D01*
X74504742Y-65788529D01*
X74480871Y-65806558D01*
X74455893Y-65817545D01*
X74413681Y-65828341D01*
X74371874Y-65834642D01*
X74321324Y-65839299D01*
X74270331Y-65842129D01*
X74242181Y-65843142D01*
X74190785Y-65844327D01*
X74139389Y-65845018D01*
X74089617Y-65845334D01*
X74056556Y-65845389D01*
X74020164Y-65845389D01*
X73962983Y-65845269D01*
X73910507Y-65844908D01*
X73855232Y-65844184D01*
X73806362Y-65843132D01*
X73769571Y-65841970D01*
X73716553Y-65839279D01*
X73668702Y-65835041D01*
X73631818Y-65829464D01*
X73592596Y-65817770D01*
X73573444Y-65804063D01*
X73563534Y-65783591D01*
X73560793Y-65763843D01*
X73560743Y-65760490D01*
X73560743Y-65751600D01*
X73471839Y-65751600D01*
X73471839Y-65763128D01*
X73473986Y-65784057D01*
X73481306Y-65804081D01*
X73493821Y-65820965D01*
X73520535Y-65838519D01*
X73558736Y-65851503D01*
X73576863Y-65855647D01*
X73624124Y-65863263D01*
X73676255Y-65868484D01*
X73730636Y-65871796D01*
X73743681Y-65872353D01*
X73792835Y-65874028D01*
X73847973Y-65875292D01*
X73899997Y-65876048D01*
X73956417Y-65876501D01*
X74006792Y-65876648D01*
X74017233Y-65876652D01*
X74058022Y-65876652D01*
G37*
G36*
X72948048Y-65589035D02*
G01*
X72997151Y-65589328D01*
X73046543Y-65590215D01*
X73098636Y-65592060D01*
X73106549Y-65592461D01*
X73157132Y-65596481D01*
X73204637Y-65603686D01*
X73234863Y-65611753D01*
X73265698Y-65627720D01*
X73266885Y-65628693D01*
X73281300Y-65647898D01*
X73284993Y-65667483D01*
X73284993Y-65676568D01*
X73200485Y-65676568D01*
X73200485Y-65668557D01*
X73200344Y-65665144D01*
X73191448Y-65645696D01*
X73190866Y-65645138D01*
X73155544Y-65631139D01*
X73127241Y-65626828D01*
X73077387Y-65622933D01*
X73042262Y-65621542D01*
X72991613Y-65620552D01*
X72942320Y-65620295D01*
X72919850Y-65620295D01*
X72913254Y-65620298D01*
X72857907Y-65620600D01*
X72804884Y-65621516D01*
X72753032Y-65623421D01*
X72705828Y-65627361D01*
X72662174Y-65636219D01*
X72640956Y-65645641D01*
X72622851Y-65664747D01*
X72619004Y-65674981D01*
X72615097Y-65695257D01*
X72614058Y-65715940D01*
X72611145Y-65731163D01*
X72646787Y-65718480D01*
X72665900Y-65714315D01*
X72712488Y-65708222D01*
X72759787Y-65704863D01*
X72808964Y-65703044D01*
X72842357Y-65702336D01*
X72892893Y-65701752D01*
X72945251Y-65701579D01*
X72971874Y-65701579D01*
X72983959Y-65701595D01*
X73035202Y-65702064D01*
X73086111Y-65703346D01*
X73134784Y-65705682D01*
X73142807Y-65706206D01*
X73193463Y-65711153D01*
X73239564Y-65719555D01*
X73268122Y-65728606D01*
X73296228Y-65745836D01*
X73297265Y-65746869D01*
X73309855Y-65766897D01*
X73313081Y-65786868D01*
X73313081Y-65791949D01*
X73309861Y-65812806D01*
X73298426Y-65832395D01*
X73280622Y-65845504D01*
X73243716Y-65858676D01*
X73233313Y-65861051D01*
X73186279Y-65868327D01*
X73135272Y-65872549D01*
X73112841Y-65873731D01*
X73062075Y-65875494D01*
X73009655Y-65876396D01*
X72957708Y-65876652D01*
X72932551Y-65876652D01*
X72905088Y-65876553D01*
X72854644Y-65875756D01*
X72803346Y-65873819D01*
X72759155Y-65871107D01*
X72711267Y-65866687D01*
X72690702Y-65863935D01*
X72647275Y-65854866D01*
X72639481Y-65852531D01*
X72609280Y-65840107D01*
X72612593Y-65870400D01*
X72526619Y-65870400D01*
X72526619Y-65789702D01*
X72612593Y-65789702D01*
X72613203Y-65797664D01*
X72622362Y-65816861D01*
X72626750Y-65820601D01*
X72664616Y-65833470D01*
X72710898Y-65839422D01*
X72760360Y-65842556D01*
X72776789Y-65843220D01*
X72828935Y-65844589D01*
X72879199Y-65845212D01*
X72929620Y-65845389D01*
X72953556Y-65845389D01*
X72994863Y-65845249D01*
X73044981Y-65844597D01*
X73094239Y-65843142D01*
X73128405Y-65841158D01*
X73177282Y-65834935D01*
X73184258Y-65833377D01*
X73216849Y-65818620D01*
X73222690Y-65810556D01*
X73227108Y-65790288D01*
X73227108Y-65787357D01*
X73226497Y-65779144D01*
X73217338Y-65759709D01*
X73214609Y-65757165D01*
X73179480Y-65743296D01*
X73147284Y-65738524D01*
X73097170Y-65735089D01*
X73056020Y-65733810D01*
X73006789Y-65733061D01*
X72955021Y-65732842D01*
X72929620Y-65732842D01*
X72923608Y-65732844D01*
X72872533Y-65733042D01*
X72822172Y-65733643D01*
X72770618Y-65734894D01*
X72721237Y-65737333D01*
X72673409Y-65742612D01*
X72661084Y-65744905D01*
X72625537Y-65758732D01*
X72618167Y-65766648D01*
X72612593Y-65786185D01*
X72612593Y-65789702D01*
X72526619Y-65789702D01*
X72526619Y-65720727D01*
X72526739Y-65712782D01*
X72528235Y-65693072D01*
X72532510Y-65671456D01*
X72540297Y-65651558D01*
X72543112Y-65646772D01*
X72562894Y-65627206D01*
X72596228Y-65611307D01*
X72619447Y-65604816D01*
X72666618Y-65597003D01*
X72715663Y-65593037D01*
X72757200Y-65591285D01*
X72810971Y-65589912D01*
X72865029Y-65589223D01*
X72917163Y-65589032D01*
X72942320Y-65589032D01*
X72948048Y-65589035D01*
G37*
G36*
X71937846Y-65589240D02*
G01*
X71989911Y-65590062D01*
X72039599Y-65591670D01*
X72043396Y-65591831D01*
X72092550Y-65594759D01*
X72142181Y-65599974D01*
X72168654Y-65604468D01*
X72208615Y-65615996D01*
X72222897Y-65622780D01*
X72241982Y-65637758D01*
X72237436Y-65595284D01*
X72323409Y-65595284D01*
X72323409Y-65964189D01*
X72235970Y-65964189D01*
X72240975Y-65824329D01*
X72234133Y-65831569D01*
X72205928Y-65847734D01*
X72181758Y-65855629D01*
X72137296Y-65864733D01*
X72131978Y-65865525D01*
X72084625Y-65870812D01*
X72036179Y-65873917D01*
X71992657Y-65875474D01*
X71943363Y-65876385D01*
X71893542Y-65876652D01*
X71866919Y-65876652D01*
X71830798Y-65876511D01*
X71777370Y-65875701D01*
X71723686Y-65873928D01*
X71672013Y-65870888D01*
X71640229Y-65867880D01*
X71592973Y-65860461D01*
X71552090Y-65849199D01*
X71534200Y-65841652D01*
X71508107Y-65824783D01*
X71492251Y-65805919D01*
X71487677Y-65797032D01*
X71480855Y-65777038D01*
X71477367Y-65756515D01*
X71476375Y-65736261D01*
X71476375Y-65735675D01*
X71563814Y-65735675D01*
X71564455Y-65752626D01*
X71567430Y-65773061D01*
X71574072Y-65792926D01*
X71587042Y-65809844D01*
X71616082Y-65826045D01*
X71618111Y-65826758D01*
X71661582Y-65836603D01*
X71710115Y-65841481D01*
X71726235Y-65842397D01*
X71777492Y-65844286D01*
X71826985Y-65845145D01*
X71876689Y-65845389D01*
X71906242Y-65845389D01*
X71926062Y-65845355D01*
X71975243Y-65844927D01*
X72029205Y-65843706D01*
X72078922Y-65841481D01*
X72082938Y-65841230D01*
X72133000Y-65836186D01*
X72178329Y-65826240D01*
X72207272Y-65812294D01*
X72225223Y-65793316D01*
X72232176Y-65776764D01*
X72236243Y-65756795D01*
X72237436Y-65735675D01*
X72237436Y-65728250D01*
X72236718Y-65710854D01*
X72233389Y-65690105D01*
X72225956Y-65670316D01*
X72211350Y-65653710D01*
X72179794Y-65638076D01*
X72173021Y-65636074D01*
X72127760Y-65627687D01*
X72079655Y-65623714D01*
X72058097Y-65622729D01*
X72008829Y-65621260D01*
X71957472Y-65620509D01*
X71906242Y-65620295D01*
X71876689Y-65620295D01*
X71870182Y-65620299D01*
X71815399Y-65620676D01*
X71762505Y-65621821D01*
X71710115Y-65624203D01*
X71706267Y-65624454D01*
X71658556Y-65629433D01*
X71616082Y-65639150D01*
X71589581Y-65652755D01*
X71574072Y-65671488D01*
X71568232Y-65687760D01*
X71564816Y-65707427D01*
X71563814Y-65728250D01*
X71563814Y-65735675D01*
X71476375Y-65735675D01*
X71476375Y-65728836D01*
X71476623Y-65718354D01*
X71478607Y-65698827D01*
X71483212Y-65679150D01*
X71492251Y-65658397D01*
X71497898Y-65650057D01*
X71518998Y-65631187D01*
X71552090Y-65615410D01*
X71576072Y-65608315D01*
X71623572Y-65599442D01*
X71672013Y-65594503D01*
X71712665Y-65592109D01*
X71764783Y-65590234D01*
X71816788Y-65589294D01*
X71866675Y-65589032D01*
X71890611Y-65589032D01*
X71937846Y-65589240D01*
G37*
G36*
X70909095Y-65589240D02*
G01*
X70961160Y-65590062D01*
X71010848Y-65591670D01*
X71014645Y-65591831D01*
X71063799Y-65594759D01*
X71113430Y-65599974D01*
X71139903Y-65604468D01*
X71179864Y-65615996D01*
X71194147Y-65622780D01*
X71213232Y-65637758D01*
X71208685Y-65595284D01*
X71294658Y-65595284D01*
X71294658Y-65964189D01*
X71207219Y-65964189D01*
X71212224Y-65824329D01*
X71205382Y-65831569D01*
X71177177Y-65847734D01*
X71153007Y-65855629D01*
X71108545Y-65864733D01*
X71103227Y-65865525D01*
X71055875Y-65870812D01*
X71007429Y-65873917D01*
X70963907Y-65875474D01*
X70914612Y-65876385D01*
X70864791Y-65876652D01*
X70838168Y-65876652D01*
X70802047Y-65876511D01*
X70748619Y-65875701D01*
X70694935Y-65873928D01*
X70643263Y-65870888D01*
X70611478Y-65867880D01*
X70564223Y-65860461D01*
X70523339Y-65849199D01*
X70505449Y-65841652D01*
X70479356Y-65824783D01*
X70463500Y-65805919D01*
X70458926Y-65797032D01*
X70452105Y-65777038D01*
X70448616Y-65756515D01*
X70447624Y-65736261D01*
X70447624Y-65735675D01*
X70535063Y-65735675D01*
X70535704Y-65752626D01*
X70538679Y-65773061D01*
X70545321Y-65792926D01*
X70558291Y-65809844D01*
X70587331Y-65826045D01*
X70589360Y-65826758D01*
X70632832Y-65836603D01*
X70681364Y-65841481D01*
X70697484Y-65842397D01*
X70748741Y-65844286D01*
X70798235Y-65845145D01*
X70847938Y-65845389D01*
X70877491Y-65845389D01*
X70897312Y-65845355D01*
X70946492Y-65844927D01*
X71000455Y-65843706D01*
X71050171Y-65841481D01*
X71054187Y-65841230D01*
X71104249Y-65836186D01*
X71149578Y-65826240D01*
X71178521Y-65812294D01*
X71196473Y-65793316D01*
X71203425Y-65776764D01*
X71207492Y-65756795D01*
X71208685Y-65735675D01*
X71208685Y-65728250D01*
X71207967Y-65710854D01*
X71204638Y-65690105D01*
X71197205Y-65670316D01*
X71182599Y-65653710D01*
X71151043Y-65638076D01*
X71144270Y-65636074D01*
X71099009Y-65627687D01*
X71050904Y-65623714D01*
X71029347Y-65622729D01*
X70980078Y-65621260D01*
X70928721Y-65620509D01*
X70877491Y-65620295D01*
X70847938Y-65620295D01*
X70841431Y-65620299D01*
X70786648Y-65620676D01*
X70733754Y-65621821D01*
X70681364Y-65624203D01*
X70677516Y-65624454D01*
X70629805Y-65629433D01*
X70587331Y-65639150D01*
X70560831Y-65652755D01*
X70545321Y-65671488D01*
X70539481Y-65687760D01*
X70536065Y-65707427D01*
X70535063Y-65728250D01*
X70535063Y-65735675D01*
X70447624Y-65735675D01*
X70447624Y-65728836D01*
X70447872Y-65718354D01*
X70449857Y-65698827D01*
X70454461Y-65679150D01*
X70463500Y-65658397D01*
X70469147Y-65650057D01*
X70490247Y-65631187D01*
X70523339Y-65615410D01*
X70547321Y-65608315D01*
X70594821Y-65599442D01*
X70643263Y-65594503D01*
X70683914Y-65592109D01*
X70736033Y-65590234D01*
X70788037Y-65589294D01*
X70837924Y-65589032D01*
X70861860Y-65589032D01*
X70909095Y-65589240D01*
G37*
G36*
X69463814Y-65870400D02*
G01*
X69551253Y-65870400D01*
X69544902Y-65813247D01*
X69543437Y-65813540D01*
X69561488Y-65831889D01*
X69577631Y-65841286D01*
X69614344Y-65854368D01*
X69642600Y-65860825D01*
X69691399Y-65868054D01*
X69740179Y-65872392D01*
X69743960Y-65872647D01*
X69793442Y-65875087D01*
X69845922Y-65876335D01*
X69893925Y-65876652D01*
X69917617Y-65876652D01*
X69967962Y-65876310D01*
X70019417Y-65875108D01*
X70070155Y-65872757D01*
X70092983Y-65871181D01*
X70141607Y-65865951D01*
X70188350Y-65857002D01*
X70205091Y-65852228D01*
X70238718Y-65837442D01*
X70260130Y-65819768D01*
X70263465Y-65815494D01*
X70273586Y-65796374D01*
X70278760Y-65776024D01*
X70280073Y-65757364D01*
X70280073Y-65595284D01*
X70192634Y-65595284D01*
X70192634Y-65744077D01*
X70191451Y-65764252D01*
X70187002Y-65784524D01*
X70182620Y-65795075D01*
X70166138Y-65813485D01*
X70142320Y-65825654D01*
X70100023Y-65835893D01*
X70055370Y-65840993D01*
X70002642Y-65843839D01*
X69953250Y-65845041D01*
X69902230Y-65845389D01*
X69878294Y-65845389D01*
X69828129Y-65844988D01*
X69778016Y-65843622D01*
X69733214Y-65841286D01*
X69683379Y-65836394D01*
X69636270Y-65827828D01*
X69631120Y-65826533D01*
X69593970Y-65813007D01*
X69571036Y-65797224D01*
X69556836Y-65777192D01*
X69551736Y-65757642D01*
X69551253Y-65748571D01*
X69551253Y-65595284D01*
X69463814Y-65595284D01*
X69463814Y-65870400D01*
G37*
G36*
X68860290Y-65876652D02*
G01*
X68913907Y-65876400D01*
X68963199Y-65875642D01*
X69014238Y-65874159D01*
X69064906Y-65871701D01*
X69070094Y-65871376D01*
X69118022Y-65867129D01*
X69166657Y-65859362D01*
X69199787Y-65850665D01*
X69233328Y-65836029D01*
X69256953Y-65817524D01*
X69264512Y-65807678D01*
X69274385Y-65787024D01*
X69279414Y-65767378D01*
X69281582Y-65747838D01*
X69281853Y-65737336D01*
X69281853Y-65728348D01*
X69280769Y-65707575D01*
X69276959Y-65686629D01*
X69269507Y-65666364D01*
X69264512Y-65657420D01*
X69247178Y-65638607D01*
X69218633Y-65622071D01*
X69199055Y-65614824D01*
X69154320Y-65604038D01*
X69107967Y-65597531D01*
X69069362Y-65594307D01*
X69019842Y-65591757D01*
X68969727Y-65590191D01*
X68913871Y-65589284D01*
X68860290Y-65589032D01*
X68828050Y-65589032D01*
X68773935Y-65589288D01*
X68724674Y-65590058D01*
X68675058Y-65591536D01*
X68640715Y-65593135D01*
X68589287Y-65597174D01*
X68543185Y-65603720D01*
X68522502Y-65608180D01*
X68484950Y-65621052D01*
X68460708Y-65637978D01*
X68448086Y-65657936D01*
X68443398Y-65678776D01*
X68443123Y-65685850D01*
X68443123Y-65695326D01*
X68527631Y-65695326D01*
X68527631Y-65688097D01*
X68531009Y-65667964D01*
X68539599Y-65654000D01*
X68568679Y-65637642D01*
X68583318Y-65633582D01*
X68630839Y-65626302D01*
X68674665Y-65623226D01*
X68724342Y-65621440D01*
X68773348Y-65620581D01*
X68823367Y-65620298D01*
X68829271Y-65620295D01*
X68858824Y-65620295D01*
X68912008Y-65620539D01*
X68964979Y-65621398D01*
X69015316Y-65623077D01*
X69037122Y-65624203D01*
X69085701Y-65628619D01*
X69131214Y-65637464D01*
X69137994Y-65639541D01*
X69169515Y-65655413D01*
X69183667Y-65672074D01*
X69190625Y-65691573D01*
X69193742Y-65711623D01*
X69194414Y-65728250D01*
X69194414Y-65737434D01*
X69193293Y-65757929D01*
X69188988Y-65778922D01*
X69182935Y-65793414D01*
X69165471Y-65811952D01*
X69136528Y-65825752D01*
X69090786Y-65835780D01*
X69039762Y-65841016D01*
X69035656Y-65841286D01*
X68984898Y-65843622D01*
X68935555Y-65844812D01*
X68885790Y-65845325D01*
X68858824Y-65845389D01*
X68829271Y-65845389D01*
X68777173Y-65845149D01*
X68726312Y-65844321D01*
X68675038Y-65842547D01*
X68671246Y-65842360D01*
X68620806Y-65838512D01*
X68578433Y-65831711D01*
X68542336Y-65818234D01*
X68533981Y-65811586D01*
X68523428Y-65791636D01*
X68522013Y-65778466D01*
X68522013Y-65770358D01*
X68437505Y-65770358D01*
X68437505Y-65780714D01*
X68440184Y-65800589D01*
X68450082Y-65820304D01*
X68456556Y-65827608D01*
X68482202Y-65844290D01*
X68521036Y-65857210D01*
X68566444Y-65865561D01*
X68614369Y-65870635D01*
X68641448Y-65872451D01*
X68691890Y-65874666D01*
X68743406Y-65875959D01*
X68794063Y-65876550D01*
X68828050Y-65876652D01*
X68860290Y-65876652D01*
G37*
G36*
X67866710Y-65876652D02*
G01*
X67920327Y-65876400D01*
X67969619Y-65875642D01*
X68020658Y-65874159D01*
X68071326Y-65871701D01*
X68076514Y-65871376D01*
X68124442Y-65867129D01*
X68173077Y-65859362D01*
X68206207Y-65850665D01*
X68239748Y-65836029D01*
X68263373Y-65817524D01*
X68270932Y-65807678D01*
X68280805Y-65787024D01*
X68285834Y-65767378D01*
X68288002Y-65747838D01*
X68288273Y-65737336D01*
X68288273Y-65728348D01*
X68287189Y-65707575D01*
X68283379Y-65686629D01*
X68275927Y-65666364D01*
X68270932Y-65657420D01*
X68253598Y-65638607D01*
X68225053Y-65622071D01*
X68205475Y-65614824D01*
X68160740Y-65604038D01*
X68114387Y-65597531D01*
X68075782Y-65594307D01*
X68026262Y-65591757D01*
X67976147Y-65590191D01*
X67920292Y-65589284D01*
X67866710Y-65589032D01*
X67834470Y-65589032D01*
X67780355Y-65589288D01*
X67731094Y-65590058D01*
X67681478Y-65591536D01*
X67647135Y-65593135D01*
X67595707Y-65597174D01*
X67549605Y-65603720D01*
X67528922Y-65608180D01*
X67491370Y-65621052D01*
X67467129Y-65637978D01*
X67454506Y-65657936D01*
X67449818Y-65678776D01*
X67449543Y-65685850D01*
X67449543Y-65695326D01*
X67534051Y-65695326D01*
X67534051Y-65688097D01*
X67537429Y-65667964D01*
X67546019Y-65654000D01*
X67575099Y-65637642D01*
X67589738Y-65633582D01*
X67637259Y-65626302D01*
X67681085Y-65623226D01*
X67730762Y-65621440D01*
X67779768Y-65620581D01*
X67829787Y-65620298D01*
X67835691Y-65620295D01*
X67865244Y-65620295D01*
X67918428Y-65620539D01*
X67971399Y-65621398D01*
X68021736Y-65623077D01*
X68043542Y-65624203D01*
X68092121Y-65628619D01*
X68137634Y-65637464D01*
X68144414Y-65639541D01*
X68175936Y-65655413D01*
X68190087Y-65672074D01*
X68197045Y-65691573D01*
X68200162Y-65711623D01*
X68200834Y-65728250D01*
X68200834Y-65737434D01*
X68199713Y-65757929D01*
X68195408Y-65778922D01*
X68189355Y-65793414D01*
X68171891Y-65811952D01*
X68142948Y-65825752D01*
X68097206Y-65835780D01*
X68046182Y-65841016D01*
X68042076Y-65841286D01*
X67991318Y-65843622D01*
X67941975Y-65844812D01*
X67892210Y-65845325D01*
X67865244Y-65845389D01*
X67835691Y-65845389D01*
X67783594Y-65845149D01*
X67732732Y-65844321D01*
X67681458Y-65842547D01*
X67677666Y-65842360D01*
X67627226Y-65838512D01*
X67584854Y-65831711D01*
X67548756Y-65818234D01*
X67540401Y-65811586D01*
X67529848Y-65791636D01*
X67528433Y-65778466D01*
X67528433Y-65770358D01*
X67443925Y-65770358D01*
X67443925Y-65780714D01*
X67446604Y-65800589D01*
X67456502Y-65820304D01*
X67462976Y-65827608D01*
X67488622Y-65844290D01*
X67527457Y-65857210D01*
X67572864Y-65865561D01*
X67620789Y-65870635D01*
X67647868Y-65872451D01*
X67698310Y-65874666D01*
X67749826Y-65875959D01*
X67800483Y-65876550D01*
X67834470Y-65876652D01*
X67866710Y-65876652D01*
G37*
G36*
X67176235Y-65870400D02*
G01*
X67263674Y-65870400D01*
X67263674Y-65595284D01*
X67176235Y-65595284D01*
X67176235Y-65870400D01*
G37*
G36*
X67176235Y-65532758D02*
G01*
X67263674Y-65532758D01*
X67263674Y-65482737D01*
X67176235Y-65482737D01*
X67176235Y-65532758D01*
G37*
G36*
X66577472Y-65589037D02*
G01*
X66632032Y-65589361D01*
X66681870Y-65590191D01*
X66733047Y-65591757D01*
X66783249Y-65594307D01*
X66822083Y-65597513D01*
X66868302Y-65603935D01*
X66912209Y-65614531D01*
X66931241Y-65621716D01*
X66958710Y-65638260D01*
X66974979Y-65657224D01*
X66979553Y-65666225D01*
X66986374Y-65686574D01*
X66989863Y-65707563D01*
X66990855Y-65728348D01*
X66990855Y-65737336D01*
X66990607Y-65747976D01*
X66988622Y-65767735D01*
X66984018Y-65787541D01*
X66974979Y-65808264D01*
X66969267Y-65816519D01*
X66947382Y-65835237D01*
X66912453Y-65850958D01*
X66879685Y-65859501D01*
X66831234Y-65867158D01*
X66783249Y-65871376D01*
X66778056Y-65871701D01*
X66726987Y-65874159D01*
X66675039Y-65875642D01*
X66624526Y-65876400D01*
X66569292Y-65876652D01*
X66537052Y-65876652D01*
X66528873Y-65876647D01*
X66474358Y-65876322D01*
X66424634Y-65875493D01*
X66373675Y-65873927D01*
X66323828Y-65871376D01*
X66289809Y-65868630D01*
X66239268Y-65861680D01*
X66195600Y-65850958D01*
X66176568Y-65843672D01*
X66149099Y-65827091D01*
X66132830Y-65808264D01*
X66128256Y-65799320D01*
X66121435Y-65779055D01*
X66117946Y-65758109D01*
X66116959Y-65737434D01*
X66204393Y-65737434D01*
X66205034Y-65754580D01*
X66208009Y-65775124D01*
X66214651Y-65794880D01*
X66227995Y-65811485D01*
X66258615Y-65827120D01*
X66265264Y-65829124D01*
X66310296Y-65837612D01*
X66358754Y-65841774D01*
X66380596Y-65842816D01*
X66431219Y-65844369D01*
X66484692Y-65845163D01*
X66538517Y-65845389D01*
X66568071Y-65845389D01*
X66595666Y-65845333D01*
X66646438Y-65844881D01*
X66696513Y-65843832D01*
X66747589Y-65841774D01*
X66751694Y-65841541D01*
X66802558Y-65836754D01*
X66847729Y-65827120D01*
X66875939Y-65813466D01*
X66892669Y-65794782D01*
X66898788Y-65778440D01*
X66902367Y-65758566D01*
X66903416Y-65737434D01*
X66903416Y-65728250D01*
X66902790Y-65711110D01*
X66899886Y-65690594D01*
X66893402Y-65670902D01*
X66879891Y-65654230D01*
X66849194Y-65638564D01*
X66842539Y-65636559D01*
X66797255Y-65628072D01*
X66748322Y-65623910D01*
X66726276Y-65622868D01*
X66675385Y-65621315D01*
X66621835Y-65620521D01*
X66568071Y-65620295D01*
X66538517Y-65620295D01*
X66510864Y-65620351D01*
X66460001Y-65620803D01*
X66409859Y-65621852D01*
X66358754Y-65623910D01*
X66354649Y-65624143D01*
X66303786Y-65628930D01*
X66258615Y-65638564D01*
X66230649Y-65652169D01*
X66214651Y-65670902D01*
X66208811Y-65687243D01*
X66205395Y-65707117D01*
X66204393Y-65728250D01*
X66204393Y-65737434D01*
X66116959Y-65737434D01*
X66116954Y-65737336D01*
X66116954Y-65728348D01*
X66117202Y-65717705D01*
X66119187Y-65697921D01*
X66123791Y-65678059D01*
X66132830Y-65657224D01*
X66138548Y-65648892D01*
X66160505Y-65630108D01*
X66195600Y-65614531D01*
X66224722Y-65606848D01*
X66272086Y-65599033D01*
X66324072Y-65594307D01*
X66329204Y-65593983D01*
X66379819Y-65591525D01*
X66431491Y-65590042D01*
X66481864Y-65589284D01*
X66537052Y-65589032D01*
X66569292Y-65589032D01*
X66577472Y-65589037D01*
G37*
D12*
D13*
G36*
X45712432Y-40364800D02*
G01*
X45861078Y-40364800D01*
X45861078Y-39755169D01*
X46092767Y-39755169D01*
X46092767Y-39677012D01*
X45861078Y-39677012D01*
X45861078Y-39611555D01*
X45856719Y-39562523D01*
X45843640Y-39517521D01*
X45813709Y-39470780D01*
X45782603Y-39443760D01*
X45716234Y-39410711D01*
X45665513Y-39396377D01*
X45583405Y-39384103D01*
X45497425Y-39380076D01*
X45484065Y-39380012D01*
X45398505Y-39381936D01*
X45372373Y-39383432D01*
X45290005Y-39392728D01*
X45260266Y-39397842D01*
X45260266Y-39474779D01*
X45344012Y-39469458D01*
X45374034Y-39468184D01*
X45457907Y-39466719D01*
X45541958Y-39469037D01*
X45592436Y-39474046D01*
X45666762Y-39496938D01*
X45668420Y-39497982D01*
X45703298Y-39543899D01*
X45711710Y-39593530D01*
X45712432Y-39617416D01*
X45712432Y-39677012D01*
X45325039Y-39677012D01*
X45325039Y-39755169D01*
X45712432Y-39755169D01*
X45712432Y-40364800D01*
G37*
G36*
X43797055Y-40364800D02*
G01*
X43945702Y-40364800D01*
X43934906Y-40221917D01*
X43932415Y-40222650D01*
X43963102Y-40268522D01*
X43990545Y-40292015D01*
X44052956Y-40324721D01*
X44100991Y-40340864D01*
X44183951Y-40358936D01*
X44266876Y-40369782D01*
X44273305Y-40370417D01*
X44357424Y-40376519D01*
X44446639Y-40379639D01*
X44528245Y-40380431D01*
X44568521Y-40380431D01*
X44654107Y-40379576D01*
X44741581Y-40376571D01*
X44827835Y-40370694D01*
X44866644Y-40366753D01*
X44949304Y-40353679D01*
X45028767Y-40331306D01*
X45057226Y-40319370D01*
X45114393Y-40282405D01*
X45150792Y-40238220D01*
X45156462Y-40227535D01*
X45173668Y-40179736D01*
X45182463Y-40128860D01*
X45184697Y-40082211D01*
X45184697Y-39677012D01*
X45036051Y-39677012D01*
X45036051Y-40048993D01*
X45034039Y-40099432D01*
X45026475Y-40150110D01*
X45019027Y-40176488D01*
X44991006Y-40222514D01*
X44950517Y-40252936D01*
X44878610Y-40278533D01*
X44802701Y-40291282D01*
X44713063Y-40298399D01*
X44629096Y-40301404D01*
X44542363Y-40302273D01*
X44501672Y-40302273D01*
X44416391Y-40301272D01*
X44331199Y-40297855D01*
X44255035Y-40292015D01*
X44170316Y-40279787D01*
X44090231Y-40258370D01*
X44081476Y-40255134D01*
X44018321Y-40221317D01*
X43979334Y-40181862D01*
X43955194Y-40131780D01*
X43946523Y-40082905D01*
X43945702Y-40060229D01*
X43945702Y-39677012D01*
X43797055Y-39677012D01*
X43797055Y-40364800D01*
G37*
G36*
X42771065Y-40380431D02*
G01*
X42862213Y-40379800D01*
X42946010Y-40377907D01*
X43032777Y-40374197D01*
X43118912Y-40368053D01*
X43127732Y-40367242D01*
X43209210Y-40356623D01*
X43291889Y-40337206D01*
X43348210Y-40315462D01*
X43405230Y-40278874D01*
X43445391Y-40232611D01*
X43458242Y-40207996D01*
X43475026Y-40156361D01*
X43483576Y-40107245D01*
X43487261Y-40058397D01*
X43487722Y-40032141D01*
X43487722Y-40009670D01*
X43485879Y-39957738D01*
X43479402Y-39905373D01*
X43466735Y-39854711D01*
X43458242Y-39832350D01*
X43428775Y-39785318D01*
X43380247Y-39743979D01*
X43346965Y-39725860D01*
X43270916Y-39698896D01*
X43192116Y-39682629D01*
X43126487Y-39674569D01*
X43042304Y-39668194D01*
X42957107Y-39664278D01*
X42862153Y-39662011D01*
X42771065Y-39661380D01*
X42716256Y-39661380D01*
X42624261Y-39662021D01*
X42540518Y-39663945D01*
X42456171Y-39667641D01*
X42397788Y-39671638D01*
X42310360Y-39681736D01*
X42231987Y-39698102D01*
X42196825Y-39709252D01*
X42132986Y-39741431D01*
X42091776Y-39783746D01*
X42070318Y-39833641D01*
X42062348Y-39885740D01*
X42061881Y-39903425D01*
X42061881Y-39927116D01*
X42205545Y-39927116D01*
X42205545Y-39909042D01*
X42211287Y-39858710D01*
X42225890Y-39823802D01*
X42275326Y-39782906D01*
X42300213Y-39772755D01*
X42380999Y-39754555D01*
X42455503Y-39746865D01*
X42539953Y-39742400D01*
X42623263Y-39740253D01*
X42708296Y-39739545D01*
X42718333Y-39739538D01*
X42768573Y-39739538D01*
X42858986Y-39740148D01*
X42949037Y-39742295D01*
X43034610Y-39746493D01*
X43071679Y-39749308D01*
X43154263Y-39760349D01*
X43231636Y-39782461D01*
X43243162Y-39787654D01*
X43296748Y-39827333D01*
X43320806Y-39868987D01*
X43332635Y-39917733D01*
X43337934Y-39967859D01*
X43339076Y-40009426D01*
X43339076Y-40032385D01*
X43337170Y-40083624D01*
X43329852Y-40136105D01*
X43319561Y-40172336D01*
X43289873Y-40218681D01*
X43240670Y-40253181D01*
X43162908Y-40278251D01*
X43076168Y-40291341D01*
X43069187Y-40292015D01*
X42982899Y-40297855D01*
X42899015Y-40300831D01*
X42814415Y-40302113D01*
X42768573Y-40302273D01*
X42718333Y-40302273D01*
X42629767Y-40301674D01*
X42543302Y-40299604D01*
X42456137Y-40295168D01*
X42449690Y-40294702D01*
X42363943Y-40285081D01*
X42291909Y-40268079D01*
X42230543Y-40234385D01*
X42216340Y-40217765D01*
X42198399Y-40167892D01*
X42195995Y-40134967D01*
X42195995Y-40114695D01*
X42052331Y-40114695D01*
X42052331Y-40140585D01*
X42056885Y-40190273D01*
X42073711Y-40239560D01*
X42084718Y-40257821D01*
X42128315Y-40299526D01*
X42194334Y-40331827D01*
X42271526Y-40352704D01*
X42352999Y-40365389D01*
X42399034Y-40369929D01*
X42484785Y-40375467D01*
X42572362Y-40378698D01*
X42658479Y-40380175D01*
X42716256Y-40380431D01*
X42771065Y-40380431D01*
G37*
G36*
X40427603Y-40364800D02*
G01*
X40667596Y-40364800D01*
X41519198Y-40036537D01*
X41597258Y-40036537D01*
X41597258Y-40364800D01*
X41745904Y-40364800D01*
X41745904Y-39395644D01*
X41597258Y-39395644D01*
X41597258Y-39958379D01*
X41506741Y-39958379D01*
X40767663Y-39677012D01*
X40539711Y-39677012D01*
X41380517Y-39997214D01*
X40427603Y-40364800D01*
G37*
G36*
X44362991Y-42214548D02*
G01*
X44286176Y-42216746D01*
X44216005Y-42216746D01*
X44130436Y-42214505D01*
X44077324Y-42209663D01*
X43998813Y-42190397D01*
X43978919Y-42182064D01*
X43920062Y-42147252D01*
X43889233Y-42122469D01*
X43842936Y-42079604D01*
X43800043Y-42035887D01*
X43793734Y-42029168D01*
X43824044Y-42029168D01*
X44514543Y-41357012D01*
X44344721Y-41357012D01*
X43725639Y-41977877D01*
X43730206Y-41978121D01*
X43173821Y-41357012D01*
X43012303Y-41357012D01*
X43558723Y-41952231D01*
X43602244Y-41998961D01*
X43648235Y-42047214D01*
X43690230Y-42089972D01*
X43732697Y-42131506D01*
X43781118Y-42174296D01*
X43833046Y-42212483D01*
X43871379Y-42235309D01*
X43941031Y-42265473D01*
X44014627Y-42283181D01*
X44098292Y-42291973D01*
X44185464Y-42294858D01*
X44198981Y-42294904D01*
X44276211Y-42294171D01*
X44360140Y-42291606D01*
X44362991Y-42291485D01*
X44362991Y-42214548D01*
G37*
G36*
X42273244Y-41341844D02*
G01*
X42366407Y-41343905D01*
X42450228Y-41347614D01*
X42541867Y-41354569D01*
X42598263Y-41361483D01*
X42682645Y-41379154D01*
X42756532Y-41406593D01*
X42788844Y-41424997D01*
X42836201Y-41466680D01*
X42865318Y-41513816D01*
X42873811Y-41536171D01*
X42886478Y-41586784D01*
X42892955Y-41639066D01*
X42894798Y-41690892D01*
X42894798Y-41707989D01*
X42894344Y-41734245D01*
X42890711Y-41783093D01*
X42882281Y-41832209D01*
X42865733Y-41883843D01*
X42852912Y-41908401D01*
X42813014Y-41954776D01*
X42756532Y-41991799D01*
X42700827Y-42014200D01*
X42618459Y-42034534D01*
X42536884Y-42046021D01*
X42528062Y-42046907D01*
X42441726Y-42053620D01*
X42354506Y-42057673D01*
X42270098Y-42059741D01*
X42178141Y-42060431D01*
X42125409Y-42060431D01*
X42068410Y-42060163D01*
X41983538Y-42058617D01*
X41897363Y-42055236D01*
X41813169Y-42049440D01*
X41767936Y-42044717D01*
X41687281Y-42031666D01*
X41609714Y-42010361D01*
X41542761Y-41977572D01*
X41498852Y-41935379D01*
X41487846Y-41916860D01*
X41471020Y-41867105D01*
X41466466Y-41817165D01*
X41466466Y-41794695D01*
X41610545Y-41794695D01*
X41610545Y-41814234D01*
X41612802Y-41846800D01*
X41629644Y-41896788D01*
X41641400Y-41911855D01*
X41703137Y-41947347D01*
X41774433Y-41964296D01*
X41860503Y-41974213D01*
X41867029Y-41974709D01*
X41955333Y-41979432D01*
X42043014Y-41981636D01*
X42132882Y-41982273D01*
X42178141Y-41982273D01*
X42223386Y-41982113D01*
X42306947Y-41980831D01*
X42389911Y-41977855D01*
X42475433Y-41972015D01*
X42482337Y-41971357D01*
X42568260Y-41958480D01*
X42645670Y-41933669D01*
X42692552Y-41902614D01*
X42725391Y-41856000D01*
X42735427Y-41825423D01*
X42743699Y-41776719D01*
X42746152Y-41724109D01*
X42746152Y-41716537D01*
X41476016Y-41716537D01*
X41476016Y-41638379D01*
X41622171Y-41638379D01*
X42743245Y-41638379D01*
X42742914Y-41630370D01*
X42736602Y-41578845D01*
X42720824Y-41529691D01*
X42700407Y-41499569D01*
X42644840Y-41462036D01*
X42641311Y-41460554D01*
X42565693Y-41439745D01*
X42481246Y-41428819D01*
X42453083Y-41426644D01*
X42363525Y-41422157D01*
X42277039Y-41420118D01*
X42190182Y-41419538D01*
X42151982Y-41419538D01*
X42141024Y-41419546D01*
X42048747Y-41420373D01*
X41959622Y-41422877D01*
X41871298Y-41428086D01*
X41789724Y-41438231D01*
X41713102Y-41459105D01*
X41679976Y-41476545D01*
X41640440Y-41520899D01*
X41639316Y-41523379D01*
X41625667Y-41572556D01*
X41622171Y-41622992D01*
X41622171Y-41638379D01*
X41476016Y-41638379D01*
X41476016Y-41632762D01*
X41477806Y-41591714D01*
X41486116Y-41541205D01*
X41504665Y-41490368D01*
X41508381Y-41483346D01*
X41548141Y-41436520D01*
X41608884Y-41399998D01*
X41650249Y-41384474D01*
X41731859Y-41364911D01*
X41814829Y-41353836D01*
X41884326Y-41348387D01*
X41973304Y-41344117D01*
X42061990Y-41341976D01*
X42147000Y-41341380D01*
X42197240Y-41341380D01*
X42273244Y-41341844D01*
G37*
G36*
X40533898Y-42060431D02*
G01*
X40624547Y-42060045D01*
X40718365Y-42058660D01*
X40801752Y-42056267D01*
X40883092Y-42052371D01*
X40967668Y-42045266D01*
X41050163Y-42032404D01*
X41091529Y-42022085D01*
X41160311Y-41990546D01*
X41192010Y-41957361D01*
X41210695Y-41909245D01*
X41216826Y-41857526D01*
X41216923Y-41849405D01*
X41216923Y-41825958D01*
X41073259Y-41825958D01*
X41073259Y-41845253D01*
X41067537Y-41895061D01*
X41059972Y-41915107D01*
X41004858Y-41953206D01*
X40995614Y-41956139D01*
X40914420Y-41970560D01*
X40835757Y-41976656D01*
X40751489Y-41979854D01*
X40668018Y-41981483D01*
X40582847Y-41982186D01*
X40536389Y-41982273D01*
X40445457Y-41982273D01*
X40358556Y-41981790D01*
X40274556Y-41980121D01*
X40191206Y-41976543D01*
X40185119Y-41976167D01*
X40100623Y-41967985D01*
X40040625Y-41956139D01*
X39980241Y-41921879D01*
X39978343Y-41919014D01*
X39964165Y-41870470D01*
X39963811Y-41859419D01*
X39963811Y-41846719D01*
X39973130Y-41797504D01*
X39977928Y-41789077D01*
X40042688Y-41755944D01*
X40046023Y-41755127D01*
X40129975Y-41742393D01*
X40210862Y-41737054D01*
X40296794Y-41734272D01*
X40381554Y-41732856D01*
X40467814Y-41732245D01*
X40514798Y-41732169D01*
X40604317Y-41731795D01*
X40696748Y-41730451D01*
X40788138Y-41727772D01*
X40858179Y-41724353D01*
X40940333Y-41717195D01*
X41025734Y-41703411D01*
X41060388Y-41694555D01*
X41129109Y-41663372D01*
X41155887Y-41636181D01*
X41174954Y-41586077D01*
X41178723Y-41543857D01*
X41178723Y-41526760D01*
X41170872Y-41476087D01*
X41150904Y-41438589D01*
X41100073Y-41398823D01*
X41054159Y-41380459D01*
X40973401Y-41362019D01*
X40890357Y-41351892D01*
X40868975Y-41350173D01*
X40781254Y-41345167D01*
X40698316Y-41342617D01*
X40605327Y-41341457D01*
X40572097Y-41341380D01*
X40502757Y-41341380D01*
X40413123Y-41341853D01*
X40321838Y-41343517D01*
X40232276Y-41346770D01*
X40192178Y-41348952D01*
X40106559Y-41356645D01*
X40024826Y-41371178D01*
X39995782Y-41379238D01*
X39927963Y-41410974D01*
X39894470Y-41444206D01*
X39872671Y-41492505D01*
X39865519Y-41545085D01*
X39865405Y-41553383D01*
X39865405Y-41575853D01*
X40009069Y-41575853D01*
X40009069Y-41556070D01*
X40016526Y-41507353D01*
X40024847Y-41489636D01*
X40080655Y-41451052D01*
X40089620Y-41448114D01*
X40169840Y-41432315D01*
X40236190Y-41426132D01*
X40326503Y-41421863D01*
X40410989Y-41420059D01*
X40498189Y-41419538D01*
X40562547Y-41419538D01*
X40648314Y-41420001D01*
X40738689Y-41421828D01*
X40819149Y-41425400D01*
X40901569Y-41432666D01*
X40960321Y-41443229D01*
X41019697Y-41475714D01*
X41032518Y-41525316D01*
X41032568Y-41529447D01*
X41032568Y-41545567D01*
X41020292Y-41595142D01*
X41017621Y-41599056D01*
X40953175Y-41630769D01*
X40949941Y-41631541D01*
X40868439Y-41643545D01*
X40790915Y-41648882D01*
X40700080Y-41652007D01*
X40607882Y-41653510D01*
X40523321Y-41653991D01*
X40500681Y-41654011D01*
X40411002Y-41654385D01*
X40318001Y-41655728D01*
X40225472Y-41658407D01*
X40153978Y-41661827D01*
X40069451Y-41668701D01*
X39987140Y-41680694D01*
X39945956Y-41690159D01*
X39876780Y-41718959D01*
X39844229Y-41749266D01*
X39822742Y-41798630D01*
X39817656Y-41845253D01*
X39817656Y-41859419D01*
X39823495Y-41908152D01*
X39844229Y-41954430D01*
X39891248Y-41995411D01*
X39941804Y-42017200D01*
X40019432Y-42036177D01*
X40103977Y-42047761D01*
X40133217Y-42050417D01*
X40223958Y-42056118D01*
X40310461Y-42059023D01*
X40396618Y-42060275D01*
X40442966Y-42060431D01*
X40533898Y-42060431D01*
G37*
D14*
%TA.AperFunction,EtchedComponent*%
%TO.C,JP3*%
G36*
X91127599Y-39719400D02*
G01*
X90627599Y-39719400D01*
X90627599Y-39319400D01*
X91127599Y-39319400D01*
X91127599Y-39719400D01*
G37*
%TD.AperFunction*%
%TA.AperFunction,EtchedComponent*%
G36*
X91127599Y-40519400D02*
G01*
X90627599Y-40519400D01*
X90627599Y-40119400D01*
X91127599Y-40119400D01*
X91127599Y-40519400D01*
G37*
%TD.AperFunction*%
%TA.AperFunction,EtchedComponent*%
%TO.C,JP2*%
G36*
X91127599Y-41751400D02*
G01*
X90627599Y-41751400D01*
X90627599Y-41351400D01*
X91127599Y-41351400D01*
X91127599Y-41751400D01*
G37*
%TD.AperFunction*%
%TA.AperFunction,EtchedComponent*%
G36*
X91127599Y-42551400D02*
G01*
X90627599Y-42551400D01*
X90627599Y-42151400D01*
X91127599Y-42151400D01*
X91127599Y-42551400D01*
G37*
%TD.AperFunction*%
%TA.AperFunction,EtchedComponent*%
%TO.C,JP5*%
G36*
X91127599Y-35655400D02*
G01*
X90627599Y-35655400D01*
X90627599Y-35255400D01*
X91127599Y-35255400D01*
X91127599Y-35655400D01*
G37*
%TD.AperFunction*%
%TA.AperFunction,EtchedComponent*%
G36*
X91127599Y-36455400D02*
G01*
X90627599Y-36455400D01*
X90627599Y-36055400D01*
X91127599Y-36055400D01*
X91127599Y-36455400D01*
G37*
%TD.AperFunction*%
%TA.AperFunction,EtchedComponent*%
%TO.C,JP4*%
G36*
X91127599Y-37687400D02*
G01*
X90627599Y-37687400D01*
X90627599Y-37287400D01*
X91127599Y-37287400D01*
X91127599Y-37687400D01*
G37*
%TD.AperFunction*%
%TA.AperFunction,EtchedComponent*%
G36*
X91127599Y-38487400D02*
G01*
X90627599Y-38487400D01*
X90627599Y-38087400D01*
X91127599Y-38087400D01*
X91127599Y-38487400D01*
G37*
%TD.AperFunction*%
%TD*%
D15*
%TO.P,J5,1,Pin_1*%
%TO.N,I2C_SDA*%
X58410599Y-30648400D03*
D16*
%TO.P,J5,2,Pin_2*%
%TO.N,I2C_SCL*%
X58410599Y-33188400D03*
%TO.P,J5,3,Pin_3*%
%TO.N,+3V3*%
X58410599Y-35728400D03*
%TO.P,J5,4,Pin_4*%
%TO.N,LED_GND*%
X58410599Y-38268400D03*
%TD*%
D17*
%TO.P,J3,1,Pin_1*%
%TO.N,LED_5V*%
X38725599Y-26838400D03*
%TO.P,J3,2,Pin_2*%
%TO.N,+3V3*%
X41265599Y-26838400D03*
%TO.P,J3,3,Pin_3*%
%TO.N,LED_GND*%
X43805599Y-26838400D03*
%TO.P,J3,4,Pin_4*%
%TO.N,-3.5V*%
X46345599Y-26838400D03*
%TO.P,J3,5,Pin_5*%
%TO.N,+18V*%
X48885599Y-26838400D03*
%TD*%
D18*
%TO.P,U6,1,SDIN1*%
%TO.N,SDIN1*%
X77586400Y-29776601D03*
%TO.P,U6,2,SDIN2*%
%TO.N,SDIN2*%
X77586400Y-30276600D03*
%TO.P,U6,3,TVDD*%
%TO.N,+3V3*%
X77586400Y-30776599D03*
%TO.P,U6,4,VSS2*%
%TO.N,LED_GND*%
X77586400Y-31276600D03*
%TO.P,U6,5,AVDRV*%
%TO.N,Net-(U6-AVDRV)*%
X77586400Y-31776600D03*
%TO.P,U6,6,LRCK*%
%TO.N,LRCK*%
X77586400Y-32276601D03*
%TO.P,U6,7,BICK*%
%TO.N,BICK*%
X77586400Y-32776600D03*
%TO.P,U6,8,MCLK*%
%TO.N,MCK*%
X77586400Y-33276599D03*
D19*
%TO.P,U6,9,IN4N/AIN5R/GND6R*%
%TO.N,LED_GND*%
X77039599Y-33823400D03*
%TO.P,U6,10,IN4P/AIN4R/AIN6R*%
%TO.N,ADC_3*%
X76539600Y-33823400D03*
%TO.P,U6,11,IN3N/AIN5L/GND6L*%
%TO.N,LED_GND*%
X76039601Y-33823400D03*
%TO.P,U6,12,IN3P/AIN4L/AIN6L*%
%TO.N,ADC_2*%
X75539600Y-33823400D03*
%TO.P,U6,13,IN2N/AIN2R/GND3R*%
%TO.N,LED_GND*%
X75039600Y-33823400D03*
%TO.P,U6,14,IN2P/AIN1R/AIN3R*%
%TO.N,ADC_1*%
X74539599Y-33823400D03*
%TO.P,U6,15,IN1N/AIN2L/GND3L*%
%TO.N,LED_GND*%
X74039600Y-33823400D03*
%TO.P,U6,16,IN1P/AIN1L/AIN3L*%
%TO.N,ADC_0*%
X73539601Y-33823400D03*
D18*
%TO.P,U6,17,VCOM*%
%TO.N,Net-(U6-VCOM)*%
X72992800Y-33276599D03*
%TO.P,U6,18,AVDD*%
%TO.N,Net-(U6-AVDD)*%
X72992800Y-32776600D03*
%TO.P,U6,19,VSS1*%
%TO.N,LED_GND*%
X72992800Y-32276601D03*
%TO.P,U6,20,VREFL*%
X72992800Y-31776600D03*
%TO.P,U6,21,VREFH*%
%TO.N,Net-(U6-AVDD)*%
X72992800Y-31276600D03*
%TO.P,U6,22,AOUT1L*%
%TO.N,AOUT1L*%
X72992800Y-30776599D03*
%TO.P,U6,23,AOUT1R*%
%TO.N,AOUT1R*%
X72992800Y-30276600D03*
%TO.P,U6,24,AOUT2L*%
%TO.N,AOUT2L*%
X72992800Y-29776601D03*
D19*
%TO.P,U6,25,AOUT2R*%
%TO.N,AOUT2R*%
X73539601Y-29229800D03*
%TO.P,U6,26,PDN*%
%TO.N,PDN*%
X74039600Y-29229800D03*
%TO.P,U6,27,CAD/CSN*%
%TO.N,CAD{slash}CSN*%
X74539599Y-29229800D03*
%TO.P,U6,28,SCL/SCLK*%
%TO.N,I2C_SCL*%
X75039600Y-29229800D03*
%TO.P,U6,29,SI*%
%TO.N,LED_GND*%
X75539600Y-29229800D03*
%TO.P,U6,30,SDA/SO*%
%TO.N,I2C_SDA*%
X76039601Y-29229800D03*
%TO.P,U6,31,SDOUT1*%
%TO.N,SDOUT1*%
X76539600Y-29229800D03*
%TO.P,U6,32,SDOUT2*%
%TO.N,SDOUT2*%
X77039599Y-29229800D03*
D20*
%TO.P,U6,33,EPAD*%
%TO.N,LED_GND*%
X75289600Y-31526600D03*
%TD*%
D21*
%TO.P,C16,1*%
%TO.N,Net-(U2C-+)*%
X76896599Y-40873400D03*
%TO.P,C16,2*%
%TO.N,LED_GND*%
X75936599Y-40873400D03*
%TD*%
D22*
%TO.P,C20,1*%
%TO.N,SW_C*%
X50563098Y-52111400D03*
%TO.P,C20,2*%
%TO.N,LED_GND*%
X52288100Y-52111400D03*
%TD*%
D23*
%TO.P,R32,1*%
%TO.N,SW_C*%
X45605744Y-54011469D03*
%TO.P,R32,2*%
%TO.N,Net-(U4-C)*%
X44191530Y-52597255D03*
%TD*%
%TO.P,R30,1*%
%TO.N,SW_PUSH*%
X48299821Y-51317392D03*
%TO.P,R30,2*%
%TO.N,Net-(U4-Center)*%
X46885607Y-49903178D03*
%TD*%
D24*
%TO.P,TP6,1,1*%
%TO.N,Select_Probe*%
X35550599Y-46523400D03*
%TD*%
D25*
%TO.P,U5,1,Vin*%
%TO.N,LED_5V*%
X36795199Y-29403800D03*
%TO.P,U5,2,GND*%
%TO.N,LED_GND*%
X39335199Y-29403800D03*
%TO.P,U5,3,-3.5V*%
%TO.N,-3.5V*%
X46955199Y-29403800D03*
%TO.P,U5,4,COM*%
%TO.N,LED_GND*%
X49495199Y-29403800D03*
%TO.P,U5,5,+18V*%
%TO.N,+18V*%
X52035199Y-29403800D03*
%TD*%
D24*
%TO.P,TP7,1,1*%
%TO.N,Button_Probe*%
X35550599Y-43983400D03*
%TD*%
D26*
%TO.P,J6,1,Pin_1*%
%TO.N,31*%
X57750199Y-21123400D03*
%TO.P,J6,2,Pin_2*%
%TO.N,32*%
X59020199Y-21123400D03*
%TO.P,J6,3,Pin_3*%
%TO.N,33*%
X60290199Y-21123400D03*
%TO.P,J6,4,Pin_4*%
%TO.N,34*%
X61560199Y-21123400D03*
%TO.P,J6,5,Pin_5*%
%TO.N,35*%
X62830199Y-21123400D03*
%TO.P,J6,6,Pin_6*%
%TO.N,36*%
X64100199Y-21123400D03*
%TO.P,J6,7,Pin_7*%
%TO.N,37*%
X65370199Y-21123400D03*
%TO.P,J6,8,Pin_8*%
%TO.N,38*%
X66640199Y-21123400D03*
%TO.P,J6,9,Pin_9*%
%TO.N,39*%
X67910199Y-21123400D03*
%TO.P,J6,10,Pin_10*%
%TO.N,40*%
X69180199Y-21123400D03*
%TO.P,J6,11,Pin_11*%
%TO.N,41*%
X70450199Y-21123400D03*
%TO.P,J6,12,Pin_12*%
%TO.N,42*%
X71720199Y-21123400D03*
%TO.P,J6,13,Pin_13*%
%TO.N,43*%
X72990199Y-21123400D03*
%TO.P,J6,14,Pin_14*%
%TO.N,44*%
X74260199Y-21123400D03*
%TO.P,J6,15,Pin_15*%
%TO.N,45*%
X75530199Y-21123400D03*
%TO.P,J6,16,Pin_16*%
%TO.N,46*%
X76800199Y-21123400D03*
%TO.P,J6,17,Pin_17*%
%TO.N,47*%
X78070199Y-21123400D03*
%TO.P,J6,18,Pin_18*%
%TO.N,48*%
X79340199Y-21123400D03*
%TO.P,J6,19,Pin_19*%
%TO.N,49*%
X80610199Y-21123400D03*
%TO.P,J6,20,Pin_20*%
%TO.N,50*%
X81880199Y-21123400D03*
%TO.P,J6,21,Pin_21*%
%TO.N,51*%
X83150199Y-21123400D03*
%TO.P,J6,22,Pin_22*%
%TO.N,52*%
X84420199Y-21123400D03*
%TO.P,J6,23,Pin_23*%
%TO.N,53*%
X85690199Y-21123400D03*
%TO.P,J6,24,Pin_24*%
%TO.N,54*%
X86960199Y-21123400D03*
%TO.P,J6,25,Pin_25*%
%TO.N,55*%
X88230199Y-21123400D03*
%TO.P,J6,26,Pin_26*%
%TO.N,56*%
X89500199Y-21123400D03*
%TO.P,J6,27,Pin_27*%
%TO.N,57*%
X90770199Y-21123400D03*
%TO.P,J6,28,Pin_28*%
%TO.N,58*%
X92040199Y-21123400D03*
%TO.P,J6,29,Pin_29*%
%TO.N,59*%
X93310199Y-21123400D03*
%TO.P,J6,30,Pin_30*%
%TO.N,60*%
X94580199Y-21123400D03*
%TO.P,J6,61,Pin_61*%
%TO.N,BOTTOM_RAIL_POS*%
X95850199Y-21123400D03*
%TO.P,J6,62,Pin_62*%
%TO.N,BOTTOM_RAIL_NEG*%
X97120199Y-21123400D03*
%TO.P,J6,68,Pin_68*%
%TO.N,LED_GND*%
X53940199Y-21123400D03*
%TO.P,J6,69,Pin_69*%
%TO.N,LED_DATA_IN*%
X55210199Y-21123400D03*
%TO.P,J6,70,Pin_70*%
%TO.N,LED_5V*%
X56480199Y-21123400D03*
%TD*%
D27*
%TO.P,C21,1*%
%TO.N,LED_GND*%
X65903599Y-31939900D03*
%TO.P,C21,2*%
%TO.N,Net-(U6-AVDRV)*%
X65903599Y-29864900D03*
%TD*%
D23*
%TO.P,R37,1*%
%TO.N,Net-(U4-D)*%
X42049744Y-47915469D03*
%TO.P,R37,2*%
%TO.N,+3V3*%
X40635530Y-46501255D03*
%TD*%
D28*
%TO.P,R7,1*%
%TO.N,/XOUT*%
X113378099Y-54143400D03*
%TO.P,R7,2*%
%TO.N,Net-(C7-Pad1)*%
X115203099Y-54143400D03*
%TD*%
D23*
%TO.P,R6,1*%
%TO.N,SW_A*%
X42911667Y-56705546D03*
%TO.P,R6,2*%
%TO.N,Net-(U4-A)*%
X41497453Y-55291332D03*
%TD*%
D29*
%TO.P,TP5,1,1*%
%TO.N,Y3_A*%
X83770599Y-31943084D03*
%TD*%
D30*
%TO.P,C13,1*%
%TO.N,LED_GND*%
X51679599Y-32785900D03*
%TO.P,C13,2*%
%TO.N,-3.5V*%
X51679599Y-34860900D03*
%TD*%
D27*
%TO.P,C22,1*%
%TO.N,LED_GND*%
X67919600Y-31939900D03*
%TO.P,C22,2*%
%TO.N,Net-(U6-VCOM)*%
X67919600Y-29864900D03*
%TD*%
D31*
%TO.P,R28,1*%
%TO.N,Net-(U9-GPIO1)*%
X47250599Y-42078400D03*
%TO.P,R28,2*%
%TO.N,Button_Probe*%
X49250599Y-42078400D03*
%TD*%
D32*
%TO.P,JP3,1,A*%
%TO.N,ADC_2*%
X90227599Y-39919400D03*
D33*
%TO.P,JP3,2,C*%
%TO.N,Net-(JP3-C)*%
X91527599Y-39919400D03*
D34*
%TO.P,JP3,3,B*%
%TO.N,ADC_2_RP*%
X92827599Y-39919400D03*
%TD*%
D28*
%TO.P,R4,1*%
%TO.N,/QSPI_SS*%
X113743099Y-38903400D03*
%TO.P,R4,2*%
%TO.N,/~{USB_BOOT}*%
X115568099Y-38903400D03*
%TD*%
D35*
%TO.P,C5,1*%
%TO.N,+3V3*%
X69951600Y-31764900D03*
%TO.P,C5,2*%
%TO.N,LED_GND*%
X69951600Y-30039900D03*
%TD*%
%TO.P,C12,1*%
%TO.N,+3V3*%
X99939599Y-44337900D03*
%TO.P,C12,2*%
%TO.N,LED_GND*%
X99939599Y-42612900D03*
%TD*%
D36*
%TO.P,U2,1*%
%TO.N,Net-(U2A--)*%
X64109600Y-37128400D03*
%TO.P,U2,2,-*%
X65379600Y-37128400D03*
%TO.P,U2,3,+*%
%TO.N,Net-(U2A-+)*%
X66649600Y-37128400D03*
%TO.P,U2,4,V+*%
%TO.N,+18V*%
X67919600Y-37128400D03*
%TO.P,U2,5,+*%
%TO.N,Net-(U2B-+)*%
X69189600Y-37128400D03*
%TO.P,U2,6,-*%
%TO.N,Net-(U2B--)*%
X70459600Y-37128400D03*
%TO.P,U2,7*%
X71729600Y-37128400D03*
%TO.P,U2,8*%
%TO.N,Net-(U2C--)*%
X71729600Y-42078400D03*
%TO.P,U2,9,-*%
X70459600Y-42078400D03*
%TO.P,U2,10,+*%
%TO.N,Net-(U2C-+)*%
X69189600Y-42078400D03*
%TO.P,U2,11,V-*%
%TO.N,-3.5V*%
X67919600Y-42078400D03*
%TO.P,U2,12,+*%
%TO.N,Net-(U2D-+)*%
X66649600Y-42078400D03*
%TO.P,U2,13,-*%
%TO.N,Net-(U2D--)*%
X65379600Y-42078400D03*
%TO.P,U2,14*%
X64109600Y-42078400D03*
%TD*%
D22*
%TO.P,C19,1*%
%TO.N,SW_PUSH*%
X50563098Y-48301399D03*
%TO.P,C19,2*%
%TO.N,LED_GND*%
X52288100Y-48301399D03*
%TD*%
D32*
%TO.P,JP2,1,A*%
%TO.N,ADC_3*%
X90227599Y-41951400D03*
D33*
%TO.P,JP2,2,C*%
%TO.N,Net-(JP2-C)*%
X91527599Y-41951400D03*
D34*
%TO.P,JP2,3,B*%
%TO.N,ADC_3_RP*%
X92827599Y-41951400D03*
%TD*%
D30*
%TO.P,C2,1*%
%TO.N,+3V3*%
X49139599Y-32785900D03*
%TO.P,C2,2*%
%TO.N,LED_GND*%
X49139599Y-34860900D03*
%TD*%
D29*
%TO.P,TP14,1,1*%
%TO.N,Y3_B*%
X86310599Y-31943084D03*
%TD*%
D24*
%TO.P,TP13,1,1*%
%TO.N,Voltage_Probe*%
X35550599Y-41483400D03*
%TD*%
D23*
%TO.P,R33,1*%
%TO.N,Net-(U4-B)*%
X39355668Y-50609545D03*
%TO.P,R33,2*%
%TO.N,+3V3*%
X37941454Y-49195331D03*
%TD*%
D25*
%TO.P,U12,1,Vin*%
%TO.N,LED_5V*%
X36820599Y-38268400D03*
%TO.P,U12,2,GND*%
%TO.N,LED_GND*%
X39360599Y-38268400D03*
%TO.P,U12,3,-3.5V*%
%TO.N,-3.5V*%
X46980599Y-38268400D03*
%TO.P,U12,4,COM*%
%TO.N,LED_GND*%
X49520599Y-38268400D03*
%TO.P,U12,5,+18V*%
%TO.N,+18V*%
X52060599Y-38268400D03*
%TD*%
D37*
%TO.P,U9,57,GND*%
%TO.N,LED_GND*%
X105390599Y-47158400D03*
X105390599Y-48433400D03*
X105390599Y-49708400D03*
X106665599Y-47158400D03*
X106665599Y-48433400D03*
X106665599Y-49708400D03*
X107940599Y-47158400D03*
X107940599Y-48433400D03*
X107940599Y-49708400D03*
%TD*%
D22*
%TO.P,C25,1*%
%TO.N,SW_D*%
X50563098Y-50206400D03*
%TO.P,C25,2*%
%TO.N,LED_GND*%
X52288100Y-50206400D03*
%TD*%
D31*
%TO.P,R27,1*%
%TO.N,Net-(U9-GPIO0)*%
X47250599Y-44618400D03*
%TO.P,R27,2*%
%TO.N,Select_Probe*%
X49250599Y-44618400D03*
%TD*%
D22*
%TO.P,C9,1*%
%TO.N,+3V3*%
X110253099Y-41443400D03*
%TO.P,C9,2*%
%TO.N,LED_GND*%
X111978099Y-41443400D03*
%TD*%
D26*
%TO.P,J7,1,Pin_1*%
%TO.N,31*%
X57775599Y-62703200D03*
%TO.P,J7,2,Pin_2*%
%TO.N,32*%
X59045599Y-62703200D03*
%TO.P,J7,3,Pin_3*%
%TO.N,33*%
X60315599Y-62703200D03*
%TO.P,J7,4,Pin_4*%
%TO.N,34*%
X61585599Y-62703200D03*
%TO.P,J7,5,Pin_5*%
%TO.N,35*%
X62855599Y-62703200D03*
%TO.P,J7,6,Pin_6*%
%TO.N,36*%
X64125599Y-62703200D03*
%TO.P,J7,7,Pin_7*%
%TO.N,37*%
X65395599Y-62703200D03*
%TO.P,J7,8,Pin_8*%
%TO.N,38*%
X66665599Y-62703200D03*
%TO.P,J7,9,Pin_9*%
%TO.N,39*%
X67935599Y-62703200D03*
%TO.P,J7,10,Pin_10*%
%TO.N,40*%
X69205599Y-62703200D03*
%TO.P,J7,11,Pin_11*%
%TO.N,41*%
X70475599Y-62703200D03*
%TO.P,J7,12,Pin_12*%
%TO.N,42*%
X71745599Y-62703200D03*
%TO.P,J7,13,Pin_13*%
%TO.N,43*%
X73015599Y-62703200D03*
%TO.P,J7,14,Pin_14*%
%TO.N,44*%
X74285599Y-62703200D03*
%TO.P,J7,15,Pin_15*%
%TO.N,45*%
X75555599Y-62703200D03*
%TO.P,J7,16,Pin_16*%
%TO.N,46*%
X76825599Y-62703200D03*
%TO.P,J7,17,Pin_17*%
%TO.N,47*%
X78095599Y-62703200D03*
%TO.P,J7,18,Pin_18*%
%TO.N,48*%
X79365599Y-62703200D03*
%TO.P,J7,19,Pin_19*%
%TO.N,49*%
X80635599Y-62703200D03*
%TO.P,J7,20,Pin_20*%
%TO.N,50*%
X81905599Y-62703200D03*
%TO.P,J7,21,Pin_21*%
%TO.N,51*%
X83175599Y-62703200D03*
%TO.P,J7,22,Pin_22*%
%TO.N,52*%
X84445599Y-62703200D03*
%TO.P,J7,23,Pin_23*%
%TO.N,53*%
X85715599Y-62703200D03*
%TO.P,J7,24,Pin_24*%
%TO.N,54*%
X86985599Y-62703200D03*
%TO.P,J7,25,Pin_25*%
%TO.N,55*%
X88255599Y-62703200D03*
%TO.P,J7,26,Pin_26*%
%TO.N,56*%
X89525599Y-62703200D03*
%TO.P,J7,27,Pin_27*%
%TO.N,57*%
X90795599Y-62703200D03*
%TO.P,J7,28,Pin_28*%
%TO.N,58*%
X92065599Y-62703200D03*
%TO.P,J7,29,Pin_29*%
%TO.N,59*%
X93335599Y-62703200D03*
%TO.P,J7,30,Pin_30*%
%TO.N,60*%
X94605599Y-62703200D03*
%TO.P,J7,61,Pin_61*%
%TO.N,BOTTOM_RAIL_POS*%
X95875599Y-62703200D03*
%TO.P,J7,62,Pin_62*%
%TO.N,BOTTOM_RAIL_NEG*%
X97145599Y-62703200D03*
%TO.P,J7,68,Pin_68*%
%TO.N,LED_GND*%
X53965599Y-62703200D03*
%TO.P,J7,69,Pin_69*%
%TO.N,LED_DATA_IN*%
X55235599Y-62703200D03*
%TO.P,J7,70,Pin_70*%
%TO.N,LED_5V*%
X56505599Y-62703200D03*
%TD*%
D21*
%TO.P,C15,1*%
%TO.N,Net-(U2B-+)*%
X76896599Y-38903400D03*
%TO.P,C15,2*%
%TO.N,LED_GND*%
X75936599Y-38903400D03*
%TD*%
D32*
%TO.P,JP5,1,A*%
%TO.N,ADC_0*%
X90227599Y-35855400D03*
D33*
%TO.P,JP5,2,C*%
%TO.N,Net-(JP5-C)*%
X91527599Y-35855400D03*
D34*
%TO.P,JP5,3,B*%
%TO.N,ADC_0_RP*%
X92827599Y-35855400D03*
%TD*%
D23*
%TO.P,R31,1*%
%TO.N,Net-(U4-C)*%
X40702706Y-49262507D03*
%TO.P,R31,2*%
%TO.N,+3V3*%
X39288492Y-47848293D03*
%TD*%
D29*
%TO.P,TP11,1,1*%
%TO.N,Y0_B*%
X86310599Y-29403084D03*
%TD*%
D38*
%TO.P,J2,1,Pin_1*%
%TO.N,/SWCLK*%
X104130599Y-57318400D03*
%TO.P,J2,2,Pin_2*%
%TO.N,LED_GND*%
X106670599Y-57318400D03*
%TO.P,J2,3,Pin_3*%
%TO.N,/SWD*%
X109210599Y-57318400D03*
%TD*%
D22*
%TO.P,C10,1*%
%TO.N,+3V3*%
X113809099Y-42967400D03*
%TO.P,C10,2*%
%TO.N,LED_GND*%
X115534099Y-42967400D03*
%TD*%
D39*
%TO.P,SW1,1,1*%
%TO.N,LED_GND*%
X113924488Y-32421283D03*
X109469716Y-27966511D03*
%TO.P,SW1,2,2*%
%TO.N,/~{USB_BOOT}*%
X111237482Y-35108289D03*
X106782710Y-30653517D03*
%TD*%
D29*
%TO.P,TP10,1,1*%
%TO.N,Y0_A*%
X83769200Y-29378400D03*
%TD*%
D23*
%TO.P,R5,1*%
%TO.N,Net-(U4-A)*%
X38008629Y-51956584D03*
%TO.P,R5,2*%
%TO.N,+3V3*%
X36594415Y-50542370D03*
%TD*%
D40*
%TO.P,TP21,1,1*%
%TO.N,LED_DATA_IN*%
X48250599Y-57318400D03*
%TD*%
D41*
%TO.P,C11,1*%
%TO.N,+3V3*%
X99939599Y-53280900D03*
%TO.P,C11,2*%
%TO.N,LED_GND*%
X99939599Y-55005900D03*
%TD*%
D22*
%TO.P,C23,1*%
%TO.N,SW_B*%
X50563098Y-54016399D03*
%TO.P,C23,2*%
%TO.N,LED_GND*%
X52288100Y-54016399D03*
%TD*%
D29*
%TO.P,TP15,1,1*%
%TO.N,Y3_C*%
X88850599Y-31943084D03*
%TD*%
D42*
%TO.P,Y1,1,1*%
%TO.N,/XIN*%
X113610599Y-49743400D03*
%TO.P,Y1,2,2*%
%TO.N,LED_GND*%
X113610599Y-47543400D03*
%TO.P,Y1,3,3*%
%TO.N,Net-(C7-Pad1)*%
X115310599Y-47543400D03*
%TO.P,Y1,4,4*%
%TO.N,LED_GND*%
X115310599Y-49743400D03*
%TD*%
D23*
%TO.P,R29,1*%
%TO.N,Net-(U4-Center)*%
X43396783Y-46568430D03*
%TO.P,R29,2*%
%TO.N,+3V3*%
X41982569Y-45154216D03*
%TD*%
D22*
%TO.P,C3,1*%
%TO.N,+1V1*%
X113787599Y-41443400D03*
%TO.P,C3,2*%
%TO.N,LED_GND*%
X115512599Y-41443400D03*
%TD*%
%TO.P,C18,1*%
%TO.N,SW_A*%
X50563098Y-55921400D03*
%TO.P,C18,2*%
%TO.N,LED_GND*%
X52288100Y-55921400D03*
%TD*%
D43*
%TO.P,U3,1,GND*%
%TO.N,LED_GND*%
X45470599Y-35703400D03*
%TO.P,U3,2,VO*%
%TO.N,+3V3*%
X43170599Y-35703400D03*
D44*
X43170599Y-29403400D03*
D43*
%TO.P,U3,3,VI*%
%TO.N,LED_5V*%
X40870599Y-35703400D03*
%TD*%
D45*
%TO.P,C6,1*%
%TO.N,/XIN*%
X113965599Y-52238400D03*
%TO.P,C6,2*%
%TO.N,LED_GND*%
X114925599Y-52238400D03*
%TD*%
D22*
%TO.P,C4,1*%
%TO.N,+1V1*%
X112285099Y-55667400D03*
%TO.P,C4,2*%
%TO.N,LED_GND*%
X114010099Y-55667400D03*
%TD*%
D27*
%TO.P,C8,1*%
%TO.N,+18V*%
X54219599Y-34860900D03*
%TO.P,C8,2*%
%TO.N,LED_GND*%
X54219599Y-32785900D03*
%TD*%
D29*
%TO.P,TP12,1,1*%
%TO.N,Y0_C*%
X88810599Y-29403084D03*
%TD*%
D32*
%TO.P,JP4,1,A*%
%TO.N,ADC_1*%
X90227599Y-37887400D03*
D33*
%TO.P,JP4,2,C*%
%TO.N,Net-(JP4-C)*%
X91527599Y-37887400D03*
D34*
%TO.P,JP4,3,B*%
%TO.N,ADC_1_RP*%
X92827599Y-37887400D03*
%TD*%
D21*
%TO.P,C17,1*%
%TO.N,Net-(U2D-+)*%
X75864600Y-42843400D03*
%TO.P,C17,2*%
%TO.N,LED_GND*%
X74904600Y-42843400D03*
%TD*%
D23*
%TO.P,R34,1*%
%TO.N,SW_B*%
X44258706Y-55358507D03*
%TO.P,R34,2*%
%TO.N,Net-(U4-B)*%
X42844492Y-53944293D03*
%TD*%
%TO.P,R38,1*%
%TO.N,SW_D*%
X46952782Y-52664431D03*
%TO.P,R38,2*%
%TO.N,Net-(U4-D)*%
X45538568Y-51250217D03*
%TD*%
D46*
%TO.P,U8,1,~{CS}*%
%TO.N,/QSPI_SS*%
X101380599Y-28108400D03*
%TO.P,U8,2,DO(IO1)*%
%TO.N,/QSPI_SD1*%
X101380599Y-29378400D03*
%TO.P,U8,3,IO2*%
%TO.N,/QSPI_SD2*%
X101380599Y-30648400D03*
%TO.P,U8,4,GND*%
%TO.N,LED_GND*%
X101380599Y-31918400D03*
%TO.P,U8,5,DI(IO0)*%
%TO.N,/QSPI_SD0*%
X94180599Y-31918400D03*
%TO.P,U8,6,CLK*%
%TO.N,/QSPI_SCLK*%
X94180599Y-30648400D03*
%TO.P,U8,7,IO3*%
%TO.N,/QSPI_SD3*%
X94180599Y-29378400D03*
%TO.P,U8,8,VCC*%
%TO.N,+3V3*%
X94180599Y-28108400D03*
%TD*%
D36*
%TO.P,U1,1*%
%TO.N,Net-(U1A--)*%
X79284600Y-37063400D03*
%TO.P,U1,2,-*%
X80554600Y-37063400D03*
%TO.P,U1,3,+*%
%TO.N,Y0_A*%
X81824600Y-37063400D03*
%TO.P,U1,4,V+*%
%TO.N,LED_5V*%
X83094600Y-37063400D03*
%TO.P,U1,5,+*%
%TO.N,Y0_B*%
X84364600Y-37063400D03*
%TO.P,U1,6,-*%
%TO.N,Net-(U1B--)*%
X85634600Y-37063400D03*
%TO.P,U1,7*%
X86904600Y-37063400D03*
%TO.P,U1,8*%
%TO.N,Net-(U1C--)*%
X86904600Y-42013400D03*
%TO.P,U1,9,-*%
X85634600Y-42013400D03*
%TO.P,U1,10,+*%
%TO.N,Y0_C*%
X84364600Y-42013400D03*
%TO.P,U1,11,V-*%
%TO.N,-3.5V*%
X83094600Y-42013400D03*
%TO.P,U1,12,+*%
%TO.N,Voltage_Probe*%
X81824600Y-42013400D03*
%TO.P,U1,13,-*%
%TO.N,Net-(U1D--)*%
X80554600Y-42013400D03*
%TO.P,U1,14*%
X79284600Y-42013400D03*
%TD*%
D21*
%TO.P,C14,1*%
%TO.N,Net-(U2A-+)*%
X75864600Y-36933400D03*
%TO.P,C14,2*%
%TO.N,LED_GND*%
X74904600Y-36933400D03*
%TD*%
%TO.P,C7,1*%
%TO.N,Net-(C7-Pad1)*%
X114925599Y-45253400D03*
%TO.P,C7,2*%
%TO.N,LED_GND*%
X113965599Y-45253400D03*
%TD*%
D47*
%TO.N,PDN*%
X98306015Y-31775400D03*
%TO.N,LRCK*%
X79992190Y-31856549D03*
%TO.N,SDOUT1*%
X81538390Y-32911280D03*
%TO.N,Net-(U13-Y1)*%
X60874399Y-38954200D03*
%TO.N,SDIN2*%
X80203363Y-30046125D03*
%TO.N,PDN*%
X101042444Y-48569199D03*
%TO.N,LED_GND*%
X70831199Y-30470600D03*
X73331294Y-42092800D03*
%TO.N,LED_5V*%
X81200948Y-34238022D03*
%TO.N,LED_GND*%
X105527599Y-34534600D03*
%TO.N,LED_5V*%
X55895999Y-59325000D03*
%TO.N,LED_GND*%
X98466399Y-52975000D03*
%TO.N,Net-(U2B-+)*%
X69908408Y-38454594D03*
%TO.N,LED_GND*%
X71542399Y-44085000D03*
X111111615Y-36939924D03*
X73145383Y-52304066D03*
X104976130Y-30630331D03*
%TO.N,Net-(U2B-+)*%
X78849732Y-38737889D03*
%TO.N,LED_GND*%
X45646485Y-56179322D03*
%TO.N,LED_5V*%
X56480199Y-24730200D03*
%TO.N,LED_GND*%
X47818799Y-35753800D03*
X73167999Y-37176200D03*
X109083599Y-26965400D03*
%TO.N,Net-(U13-Y2)*%
X60583012Y-39478696D03*
%TO.N,AOUT1R*%
X71679839Y-39924000D03*
%TO.N,TOP_RAIL_POS*%
X75565398Y-56195587D03*
%TO.N,+3V3*%
X47615599Y-32401000D03*
X102581199Y-43018200D03*
X98974399Y-43526200D03*
%TO.N,I2C_SCL*%
X111471199Y-40478200D03*
%TO.N,Net-(U2C-+)*%
X86833199Y-39817800D03*
%TO.N,+3V3*%
X89169999Y-27270200D03*
%TO.N,LED_GND*%
X54067199Y-59020200D03*
X68087999Y-55870600D03*
X53940199Y-24679400D03*
%TO.N,LED_5V*%
X41417999Y-33010600D03*
%TO.N,+3V3*%
X102022399Y-54041800D03*
%TO.N,Net-(U13-Y2)*%
X78096199Y-39488238D03*
%TO.N,SW_D*%
X111826799Y-48403000D03*
%TO.N,AOUT2L*%
X70983599Y-29505400D03*
%TO.N,Net-(U14-Y2)*%
X76421744Y-53807084D03*
%TO.N,-3.5V*%
X60096400Y-54863998D03*
%TO.N,+18V*%
X89322399Y-43018200D03*
%TO.N,AOUT1R*%
X71515799Y-30304054D03*
%TO.N,Y0_B*%
X85140794Y-34239200D03*
%TO.N,SDIN2*%
X98720399Y-49520600D03*
%TO.N,Net-(U2A--)*%
X71167792Y-34799205D03*
%TO.N,CAD{slash}CSN*%
X73095943Y-27439763D03*
%TO.N,SDIN2*%
X96661503Y-29154588D03*
%TO.N,Net-(U4-Center)*%
X42281599Y-46515400D03*
%TO.N,/QSPI_SCLK*%
X104689635Y-41225855D03*
%TO.N,Y0_A*%
X80584799Y-35703000D03*
%TO.N,Net-(U14-Y1)*%
X76419199Y-54489409D03*
%TO.N,CS_A*%
X108626399Y-53686200D03*
%TO.N,CAD{slash}CSN*%
X97958399Y-30877000D03*
%TO.N,/QSPI_SD0*%
X104105199Y-41240200D03*
%TO.N,Y0_B*%
X69459599Y-43881800D03*
%TO.N,Y3_B*%
X72964799Y-44085000D03*
%TO.N,DATA*%
X78729021Y-43855478D03*
X63160399Y-42256200D03*
%TO.N,CS_B*%
X108727999Y-54346600D03*
%TO.N,/QSPI_SD0*%
X98844534Y-29911802D03*
%TO.N,/QSPI_SD2*%
X100370339Y-30639057D03*
%TO.N,/QSPI_SD3*%
X105289423Y-41224606D03*
%TO.N,CS_B*%
X73353120Y-55670587D03*
%TO.N,/QSPI_SCLK*%
X99075999Y-29151526D03*
%TO.N,ADC_0*%
X70881999Y-33815400D03*
%TO.N,CAD{slash}CSN*%
X101445827Y-48125031D03*
%TO.N,Y3_B*%
X86629999Y-43932600D03*
%TO.N,CLK*%
X94852999Y-46342327D03*
%TO.N,RESET*%
X112353160Y-46424834D03*
%TO.N,CS_C*%
X109997999Y-54753000D03*
%TO.N,CS_A*%
X57877199Y-55176400D03*
%TO.N,RESET*%
X59148440Y-43059573D03*
%TO.N,CS_C*%
X88591431Y-54174432D03*
%TO.N,CLK*%
X64785999Y-43983400D03*
%TO.N,/QSPI_SD2*%
X103484008Y-41209408D03*
%TO.N,RESET*%
X72415596Y-44085000D03*
%TO.N,DATA*%
X92776799Y-43526200D03*
%TO.N,CLK*%
X80584799Y-44796200D03*
%TO.N,RESET*%
X88712799Y-43983400D03*
%TO.N,Net-(U2D--)*%
X79548372Y-33711026D03*
%TO.N,Net-(U4-A)*%
X39614599Y-51984400D03*
%TO.N,/QSPI_SS*%
X99176785Y-30762919D03*
X102225599Y-41240200D03*
%TO.N,Net-(U14-Y4)*%
X67884799Y-55057800D03*
X70206526Y-58625898D03*
%TO.N,/QSPI_SS*%
X113146167Y-40070368D03*
%TO.N,/XOUT*%
X106340599Y-53279800D03*
%TO.N,Net-(JP5-C)*%
X88791853Y-33620766D03*
%TO.N,Net-(JP4-C)*%
X88064892Y-33771723D03*
%TO.N,ADC_0_RP*%
X96449399Y-43091589D03*
%TO.N,AOUT2L*%
X102835199Y-29353000D03*
%TO.N,ADC_0_RP*%
X112145930Y-44236661D03*
%TO.N,Y0_C*%
X85156799Y-38395400D03*
%TO.N,Y3_A*%
X58435999Y-42561000D03*
%TO.N,SDOUT1*%
X98722445Y-51144154D03*
%TO.N,SDIN1*%
X96390999Y-29962600D03*
X98780101Y-48923575D03*
%TO.N,Net-(U2C--)*%
X84994631Y-30664032D03*
%TO.N,Y0_C*%
X84394799Y-43170600D03*
%TO.N,Net-(U2B--)*%
X72759200Y-35487000D03*
%TO.N,Net-(U9-GPIO0)*%
X99998599Y-41525655D03*
%TO.N,Net-(U15-Y4)*%
X67966033Y-44249600D03*
%TO.N,Net-(U9-GPIO0)*%
X45481999Y-42103800D03*
%TO.N,TOP_RAIL_POS*%
X60012514Y-54131519D03*
%TO.N,30*%
X72623825Y-51485920D03*
%TO.N,I2C_SCL*%
X96383599Y-41951400D03*
X112080799Y-50638200D03*
X91830399Y-43918716D03*
%TO.N,TOP_RAIL_POS*%
X96180399Y-57293000D03*
X95985999Y-26203400D03*
%TO.N,Net-(U2A-+)*%
X79144338Y-34987889D03*
%TO.N,-3.5V*%
X64430399Y-55464200D03*
%TO.N,+1V1*%
X106492799Y-43221400D03*
%TO.N,+18V*%
X52390799Y-41748200D03*
X78231294Y-43520410D03*
%TO.N,/XIN*%
X105744263Y-53213569D03*
%TO.N,+18V*%
X61296220Y-42276119D03*
%TO.N,Net-(U13-Y1)*%
X60706000Y-32359600D03*
%TO.N,AOUT1L*%
X72039145Y-32670346D03*
%TO.N,30*%
X94396240Y-58461400D03*
%TO.N,+3V3*%
X83763390Y-33625000D03*
X60655200Y-35052000D03*
%TO.N,Net-(U1C--)*%
X86424038Y-41528000D03*
%TO.N,SDOUT1*%
X96340199Y-32719892D03*
%TO.N,LED_OUT*%
X54219599Y-28743400D03*
X54879999Y-59528200D03*
%TO.N,7*%
X71792847Y-49264671D03*
X65649599Y-58461400D03*
X65395599Y-25568400D03*
X57004251Y-48716824D03*
%TO.N,26*%
X83642917Y-52420082D03*
X89525599Y-25543000D03*
X89097701Y-59807400D03*
%TO.N,43*%
X92431064Y-49572013D03*
X72507599Y-59350400D03*
X74588107Y-50149008D03*
X73059466Y-26181046D03*
%TO.N,27*%
X91021557Y-48002017D03*
X90795599Y-25543000D03*
X91384399Y-58430844D03*
X71217313Y-47970612D03*
%TO.N,ADC_3_RP*%
X93293399Y-43373800D03*
%TO.N,18*%
X77919196Y-46704200D03*
X63727329Y-46922773D03*
%TO.N,56*%
X90337200Y-59674809D03*
X86477599Y-47793400D03*
%TO.N,2*%
X59909199Y-49860200D03*
X59045599Y-25441400D03*
X58576218Y-58797114D03*
%TO.N,21*%
X82168907Y-48138243D03*
X83175599Y-25568400D03*
X83026245Y-58630460D03*
%TO.N,36*%
X64216893Y-43975400D03*
X64333281Y-58542082D03*
X64074799Y-26355800D03*
X68261956Y-45241649D03*
%TO.N,14*%
X64523900Y-53339349D03*
X74506884Y-48049294D03*
X74285595Y-25568408D03*
X74107997Y-53828417D03*
X74620387Y-58825903D03*
%TO.N,54*%
X95754953Y-58272691D03*
%TO.N,I2C_SDA*%
X111742261Y-39482307D03*
%TO.N,BOTTOM_RAIL_POS*%
X72962676Y-57549116D03*
%TO.N,54*%
X86934799Y-26254200D03*
X86350599Y-59604400D03*
X95233693Y-26213243D03*
X94724153Y-53971600D03*
%TO.N,55*%
X88154000Y-26203401D03*
X83675188Y-48151136D03*
X87620599Y-59604400D03*
%TO.N,I2C_SDA*%
X112588799Y-51298600D03*
X82718399Y-26965400D03*
%TO.N,LED_DATA_IN*%
X50380776Y-44293775D03*
X111910131Y-46829468D03*
X48224609Y-57421457D03*
%TO.N,34*%
X62185688Y-54329600D03*
X61839599Y-58461400D03*
X80427602Y-53948242D03*
X61483999Y-26305000D03*
%TO.N,29*%
X72664211Y-50485920D03*
X92574682Y-50154574D03*
X93483888Y-58775200D03*
X93211419Y-25493820D03*
%TO.N,8*%
X56910684Y-49309486D03*
%TO.N,28*%
X92384399Y-58444705D03*
X92065599Y-25492200D03*
X91701660Y-48887202D03*
X70741841Y-49427486D03*
%TO.N,37*%
X82449176Y-55153087D03*
X65014607Y-59223400D03*
X65395599Y-26305000D03*
X65685653Y-57735454D03*
X80742006Y-46417886D03*
%TO.N,10*%
X69080847Y-25486448D03*
%TO.N,18*%
X79017999Y-58848390D03*
X79238599Y-25568400D03*
%TO.N,24*%
X86822545Y-59063000D03*
X82859042Y-50610616D03*
X86985599Y-25543000D03*
%TO.N,13*%
X73596983Y-53052443D03*
%TO.N,41*%
X94499954Y-48428400D03*
%TO.N,9*%
X72075313Y-50211464D03*
X67935599Y-25568400D03*
X57031656Y-49897167D03*
X68207934Y-59006014D03*
X66584799Y-55343382D03*
%TO.N,LED_DATA_IN*%
X55286399Y-25390600D03*
%TO.N,13*%
X72959237Y-58853777D03*
X64595599Y-52797425D03*
X73040999Y-25593800D03*
X73533012Y-47556218D03*
%TO.N,42*%
X71745599Y-26305000D03*
%TO.N,39*%
X67833999Y-26355800D03*
%TO.N,3*%
X59842693Y-58853175D03*
X60315599Y-25441400D03*
X60167025Y-50772021D03*
%TO.N,51*%
X83301180Y-26235567D03*
X79700399Y-47891299D03*
X82667599Y-59604400D03*
%TO.N,46*%
X75850263Y-54080849D03*
X94643599Y-52365400D03*
%TO.N,60*%
X94129736Y-25997600D03*
X95113599Y-59096400D03*
X94081342Y-46844457D03*
%TO.N,25*%
X88317188Y-59607400D03*
%TO.N,BOTTOM_RAIL_NEG*%
X71556548Y-52757651D03*
X83378799Y-55210200D03*
X56353199Y-53432200D03*
%TO.N,59*%
X92278038Y-46261400D03*
X93183693Y-26228654D03*
X93791562Y-59290312D03*
%TO.N,4*%
X61585599Y-25568400D03*
%TO.N,15*%
X75709993Y-58917475D03*
X56353199Y-47742600D03*
X75493480Y-47197411D03*
%TO.N,35*%
X68924400Y-45314029D03*
X62703199Y-26406600D03*
X62660399Y-43975400D03*
X63236599Y-58461400D03*
%TO.N,1*%
X59147199Y-48453800D03*
%TO.N,BOTTOM_RAIL_POS*%
X55354199Y-55921400D03*
%TO.N,51*%
X83556599Y-55827800D03*
X86720722Y-53717773D03*
%TO.N,SW_D*%
X49593548Y-51650949D03*
%TO.N,1*%
X57351021Y-58850288D03*
X57648599Y-25441400D03*
%TO.N,12*%
X72096619Y-58685420D03*
X56632599Y-52365400D03*
X72651740Y-52687399D03*
X68865265Y-54047624D03*
X71745599Y-25568400D03*
%TO.N,33*%
X60706457Y-54004575D03*
X80007999Y-52986166D03*
X60569599Y-58522000D03*
X60264799Y-26152600D03*
%TO.N,39*%
X80274257Y-47716113D03*
X82119475Y-56836619D03*
X67149692Y-57931301D03*
X67756237Y-59400949D03*
%TO.N,TOP_RAIL_NEG*%
X96535999Y-25390600D03*
X60213999Y-57547000D03*
X97247199Y-56531000D03*
X89873473Y-57837510D03*
X73777099Y-58219620D03*
%TO.N,53*%
X97383739Y-52758036D03*
X92154597Y-53094936D03*
X85080599Y-59604400D03*
X96663186Y-27854588D03*
X85500787Y-55633815D03*
X85664799Y-26203400D03*
%TO.N,47*%
X88671736Y-57592467D03*
X78095599Y-26254200D03*
X77587599Y-59350400D03*
X87308808Y-48047083D03*
%TO.N,6*%
X63625599Y-58969400D03*
X64125599Y-25568400D03*
X63625599Y-52936635D03*
%TO.N,31*%
X57673999Y-26203400D03*
X58042499Y-58461400D03*
X58283599Y-51349400D03*
X68595999Y-49977800D03*
%TO.N,23*%
X85715599Y-25543000D03*
X83240192Y-49005200D03*
X85834599Y-59088400D03*
%TO.N,38*%
X80160399Y-46565319D03*
X82063113Y-56067278D03*
X66618756Y-57449357D03*
X66165599Y-59223400D03*
X66614799Y-26305000D03*
%TO.N,50*%
X81749906Y-25964638D03*
X79519199Y-54278658D03*
X86721028Y-53010971D03*
X81397599Y-59604400D03*
%TO.N,40*%
X67559876Y-57407296D03*
X68993603Y-26280800D03*
X75758799Y-52271200D03*
X68782845Y-58447069D03*
X75102099Y-58111155D03*
%TO.N,49*%
X80410720Y-26016677D03*
X90135041Y-58321333D03*
X80127599Y-59604400D03*
X89057745Y-48388254D03*
%TO.N,5*%
X62510599Y-51745065D03*
X62403120Y-58997989D03*
X62855599Y-25568400D03*
%TO.N,57*%
X90652277Y-47526465D03*
X91365690Y-59156661D03*
X90744799Y-26203400D03*
%TO.N,16*%
X76360399Y-47915157D03*
X56403999Y-48301400D03*
X76825599Y-25568400D03*
X76709993Y-58826122D03*
%TO.N,17*%
X67818493Y-47238719D03*
X77020759Y-47004200D03*
X78095599Y-25568400D03*
X78087599Y-58842400D03*
%TO.N,32*%
X59299599Y-53127400D03*
X58994799Y-26254200D03*
X59299599Y-58334400D03*
X68214947Y-51958800D03*
%TO.N,22*%
X84498632Y-59218000D03*
X82249749Y-48714624D03*
X84445599Y-25568400D03*
%TO.N,56*%
X89525599Y-26152600D03*
%TO.N,8*%
X67207934Y-59008107D03*
X65641599Y-56480200D03*
X71228931Y-48970612D03*
X66521199Y-25568400D03*
%TO.N,58*%
X92260283Y-47993896D03*
X92573599Y-59223400D03*
X92014799Y-26254202D03*
%TO.N,SW_D*%
X55647643Y-39487999D03*
%TO.N,30*%
X94343599Y-51034200D03*
%TO.N,11*%
X70301887Y-25505741D03*
X56886599Y-51603400D03*
X69545296Y-56258773D03*
X71668387Y-51725142D03*
X70919842Y-58927600D03*
%TO.N,41*%
X70140363Y-59484504D03*
X72801501Y-48973806D03*
X70293603Y-26221132D03*
X71024949Y-26904000D03*
%TO.N,52*%
X84557034Y-26144641D03*
X97824761Y-27481804D03*
X84242399Y-58105800D03*
X97805999Y-57547000D03*
%TO.N,20*%
X61196599Y-46523400D03*
X81781071Y-25365445D03*
X81778599Y-58961400D03*
X78806799Y-48199800D03*
%TO.N,25*%
X88204799Y-25543000D03*
X83320627Y-51940139D03*
%TO.N,10*%
X56886599Y-50714400D03*
X68647454Y-55748809D03*
X69207934Y-58870511D03*
X71676742Y-50659955D03*
%TO.N,44*%
X73777599Y-59350400D03*
X74822672Y-51461861D03*
X94424954Y-50439739D03*
X74336399Y-26254200D03*
%TO.N,46*%
X76190599Y-59477400D03*
X76825599Y-26203400D03*
%TO.N,19*%
X78427357Y-47819399D03*
X80627599Y-58961400D03*
%TO.N,15*%
X75555599Y-25568418D03*
%TO.N,48*%
X89313472Y-58127113D03*
%TO.N,BOTTOM_RAIL_POS*%
X84818199Y-56582400D03*
%TO.N,42*%
X94499954Y-49190400D03*
X73617494Y-49600760D03*
X71245599Y-59350400D03*
%TO.N,45*%
X74920599Y-59350400D03*
X75344799Y-53179621D03*
X92154597Y-51807773D03*
X75555599Y-26305000D03*
%TO.N,BOTTOM_RAIL_POS*%
X87636502Y-55048303D03*
%TO.N,4*%
X61133120Y-58813812D03*
X61585599Y-50976400D03*
%TO.N,19*%
X62791999Y-46469721D03*
X80410720Y-25309570D03*
%TO.N,LED_GND*%
X88306399Y-50638200D03*
X115179599Y-33061400D03*
%TO.N,30*%
X94253038Y-25284708D03*
%TO.N,/QSPI_SD1*%
X102884339Y-41240196D03*
%TO.N,ADC_2*%
X80533999Y-38954200D03*
%TO.N,MCK*%
X80495750Y-33349200D03*
%TO.N,ADC_1*%
X89644892Y-37940773D03*
%TO.N,BICK*%
X99278375Y-33769892D03*
%TO.N,SDIN1*%
X80733674Y-30266833D03*
%TO.N,LRCK*%
X100853999Y-50181000D03*
%TO.N,AOUT2L*%
X72491600Y-42672000D03*
%TO.N,Net-(U15-Y4)*%
X84851999Y-44999400D03*
%TO.N,Net-(U4-D)*%
X43302124Y-51251834D03*
%TO.N,/QSPI_SD1*%
X99774075Y-30705929D03*
%TO.N,Button_Probe*%
X50511199Y-43069000D03*
%TO.N,ADC_2*%
X79060799Y-33518600D03*
%TO.N,Select_Probe*%
X49834800Y-46024800D03*
%TO.N,ADC_2*%
X89322399Y-38903400D03*
%TO.N,Net-(U4-B)*%
X42154599Y-52746400D03*
%TO.N,AOUT2R*%
X73595943Y-28805014D03*
%TO.N,Y3_B*%
X86135771Y-32793629D03*
%TO.N,ADC_2_RP*%
X111506579Y-44866726D03*
%TO.N,ADC_1*%
X69510399Y-40173400D03*
%TO.N,Voltage_Probe*%
X81724408Y-42017023D03*
%TO.N,ADC_1*%
X68978324Y-33813319D03*
%TO.N,Y3_A*%
X57521599Y-28591000D03*
%TO.N,Y3_C*%
X92099444Y-33854843D03*
%TO.N,BICK*%
X80153262Y-32856549D03*
%TO.N,Net-(U14-Y2)*%
X75291572Y-52511081D03*
%TO.N,GPI0_2*%
X99753399Y-46758311D03*
%TO.N,Y3_C*%
X91830399Y-43323000D03*
%TO.N,Y0_A*%
X58123199Y-43577000D03*
%TO.N,LRCK*%
X98974399Y-32451800D03*
%TO.N,Net-(U9-GPIO1)*%
X100096954Y-40398193D03*
%TO.N,SDOUT2*%
X80889599Y-31232600D03*
%TO.N,BICK*%
X100396799Y-49520600D03*
%TO.N,SDOUT2*%
X98771199Y-50485800D03*
%TO.N,ADC_1_RP*%
X111546750Y-44268070D03*
%TO.N,Net-(U9-GPIO1)*%
X46888400Y-40538400D03*
%TO.N,ADC_1_RP*%
X96449399Y-44072711D03*
%TO.N,/QSPI_SD3*%
X98194547Y-28454600D03*
%TO.N,Y3_A*%
X84553245Y-27322954D03*
%TO.N,Y0_B*%
X69002399Y-33213800D03*
%TO.N,PDN*%
X71964431Y-28778568D03*
%TO.N,Net-(JP3-C)*%
X87493599Y-33772600D03*
%TO.N,MCK*%
X99180249Y-34529065D03*
%TO.N,Net-(U4-C)*%
X41138599Y-50587400D03*
%TO.N,AOUT2R*%
X105970915Y-26203400D03*
%TO.N,AOUT1L*%
X72735531Y-42214800D03*
%TO.N,ADC_2_RP*%
X94593399Y-43620062D03*
%TO.N,Y0_A*%
X56759599Y-33975800D03*
%TO.N,MCK*%
X99807999Y-48691569D03*
%TO.N,SDOUT2*%
X96306770Y-31312015D03*
%TO.N,Y0_A*%
X82258368Y-27232227D03*
%TO.N,GPI0_2*%
X115687606Y-55057814D03*
%TO.N,ADC_0*%
X89506096Y-35350483D03*
%TO.N,Net-(U1B--)*%
X85105999Y-39793600D03*
%TO.N,SW_A*%
X98974399Y-47437800D03*
X56212428Y-40337429D03*
%TO.N,+3V3*%
X87493599Y-27151598D03*
X94097599Y-27422600D03*
%TO.N,SW_A*%
X99945599Y-38751000D03*
%TO.N,SW_PUSH*%
X54879999Y-37430200D03*
X111928399Y-54397400D03*
X49923999Y-46879000D03*
X104968799Y-36668200D03*
%TO.N,SW_C*%
X105375199Y-37277800D03*
X48793446Y-53766500D03*
X111582567Y-49123968D03*
X55127416Y-38534093D03*
%TO.N,Net-(U6-AVDRV)*%
X79658573Y-31328034D03*
X68646799Y-27829000D03*
%TO.N,SW_B*%
X48971200Y-54956198D03*
X99607584Y-38036139D03*
X56373465Y-39819055D03*
X98382986Y-47895286D03*
%TO.N,Net-(U2D-+)*%
X78296599Y-41538238D03*
%TO.N,SW_A*%
X46583600Y-55778400D03*
%TO.N,+3V3*%
X89627199Y-34687000D03*
%TO.N,Net-(U1D--)*%
X88255599Y-40173400D03*
%TO.N,I2C_SDA*%
X95832799Y-38954200D03*
%TO.N,LED_GND*%
X71085199Y-57801000D03*
%TO.N,+1V1*%
X111623599Y-43221400D03*
%TO.N,LED_GND*%
X54304199Y-56896457D03*
X49749199Y-56896457D03*
%TO.N,+1V1*%
X107254799Y-53991000D03*
%TO.N,+3V3*%
X112537999Y-43373800D03*
X99228399Y-36312600D03*
X111318799Y-42611800D03*
%TO.N,LED_GND*%
X75367431Y-31604431D03*
%TO.N,ADC_3_RP*%
X110957984Y-45004699D03*
%TO.N,ADC_3*%
X78305009Y-42851661D03*
X77771227Y-33993257D03*
X88407999Y-42510200D03*
%TO.N,Net-(JP2-C)*%
X86825199Y-33721800D03*
%TO.N,Net-(U14-Y1)*%
X74053519Y-52665691D03*
%TO.N,Net-(U1A--)*%
X80290891Y-40027799D03*
%TO.N,SW_D*%
X105933999Y-37735000D03*
%TO.N,48*%
X78857599Y-59477400D03*
X88425653Y-48344454D03*
X79263999Y-26406600D03*
%TD*%
D48*
%TO.N,Net-(U2C-+)*%
X76361599Y-41408400D02*
X74940805Y-41408400D01*
X74940805Y-41408400D02*
X73070805Y-43278400D01*
X69899018Y-42787818D02*
X69189600Y-42078400D01*
X73070805Y-43278400D02*
X70128619Y-43278400D01*
X76896599Y-40873400D02*
X76361599Y-41408400D01*
X70128619Y-43278400D02*
X69899018Y-43048799D01*
X69899018Y-43048799D02*
X69899018Y-42787818D01*
D49*
%TO.N,-3.5V*%
X82709199Y-43373800D02*
X83094600Y-42988399D01*
X78072374Y-41020000D02*
X78668662Y-41020000D01*
X78668662Y-41020000D02*
X78734600Y-41085938D01*
X74976024Y-41832800D02*
X77259574Y-41832800D01*
X69948062Y-43627800D02*
X73181024Y-43627800D01*
D48*
%TO.N,Net-(U2D-+)*%
X75864600Y-42843400D02*
X76991437Y-42843400D01*
D49*
%TO.N,LED_GND*%
X75936599Y-40873400D02*
X74550694Y-40873400D01*
X74550694Y-40873400D02*
X73331294Y-42092800D01*
%TO.N,-3.5V*%
X67919600Y-43053399D02*
X68223001Y-43356800D01*
X68223001Y-43356800D02*
X69677062Y-43356800D01*
X79100158Y-43373800D02*
X82709199Y-43373800D01*
D48*
%TO.N,Net-(U2D-+)*%
X76991437Y-42843400D02*
X78296599Y-41538238D01*
D49*
%TO.N,-3.5V*%
X69677062Y-43356800D02*
X69948062Y-43627800D01*
X78734600Y-43008242D02*
X79100158Y-43373800D01*
X67919600Y-42078400D02*
X67919600Y-43053399D01*
X73181024Y-43627800D02*
X74976024Y-41832800D01*
X83094600Y-42988399D02*
X83094600Y-42013400D01*
X78734600Y-41085938D02*
X78734600Y-43008242D01*
X77259574Y-41832800D02*
X78072374Y-41020000D01*
D48*
%TO.N,Y0_B*%
X84364600Y-37063400D02*
X84364600Y-35015394D01*
X86310599Y-30003084D02*
X85140794Y-31172889D01*
%TO.N,Net-(U2C--)*%
X79050625Y-35787889D02*
X79475709Y-35787889D01*
%TO.N,Y0_B*%
X85140794Y-31172889D02*
X85140794Y-34239200D01*
%TO.N,Y0_C*%
X88810599Y-29403084D02*
X88810599Y-30744591D01*
X88810599Y-30744591D02*
X85691600Y-33863590D01*
%TO.N,Y0_B*%
X84364600Y-35015394D02*
X85140794Y-34239200D01*
%TO.N,Net-(U2C--)*%
X71788863Y-42078400D02*
X76098863Y-37768400D01*
X80064129Y-34646629D02*
X80997736Y-33713022D01*
%TO.N,Y0_C*%
X85691600Y-33863590D02*
X85691600Y-34446307D01*
X85109600Y-35028307D02*
X85109600Y-38348201D01*
%TO.N,Net-(U2C--)*%
X84075418Y-34348400D02*
X84741663Y-33682155D01*
X82053789Y-34348400D02*
X84075418Y-34348400D01*
X80064129Y-35199469D02*
X80064129Y-34646629D01*
%TO.N,Y0_C*%
X85109600Y-38348201D02*
X85156799Y-38395400D01*
%TO.N,Net-(U2C--)*%
X79475709Y-35787889D02*
X80064129Y-35199469D01*
X81418411Y-33713022D02*
X82053789Y-34348400D01*
%TO.N,Y0_B*%
X86310599Y-29403084D02*
X86310599Y-30003084D01*
%TO.N,Net-(U2C--)*%
X76098863Y-37768400D02*
X77070114Y-37768400D01*
X84741663Y-30917000D02*
X84994631Y-30664032D01*
X77070114Y-37768400D02*
X79050625Y-35787889D01*
%TO.N,Y0_C*%
X85691600Y-34446307D02*
X85109600Y-35028307D01*
%TO.N,Net-(U2C--)*%
X80997736Y-33713022D02*
X81418411Y-33713022D01*
X84741663Y-33682155D02*
X84741663Y-30917000D01*
X71085199Y-42078400D02*
X71788863Y-42078400D01*
%TO.N,SW_A*%
X46583600Y-55778400D02*
X47031400Y-56226200D01*
X47031400Y-56226200D02*
X47412399Y-56226200D01*
%TO.N,Select_Probe*%
X49250599Y-45440599D02*
X49834800Y-46024800D01*
X49250599Y-44618400D02*
X49250599Y-45440599D01*
D49*
%TO.N,Net-(U9-GPIO1)*%
X47250599Y-40900599D02*
X46888400Y-40538400D01*
X47250599Y-42078400D02*
X47250599Y-40900599D01*
%TO.N,+3V3*%
X65618336Y-35804600D02*
X61407800Y-35804600D01*
X69658036Y-31764900D02*
X65618336Y-35804600D01*
X61407800Y-35804600D02*
X60655200Y-35052000D01*
X69951600Y-31764900D02*
X69658036Y-31764900D01*
X59978800Y-35728400D02*
X60655200Y-35052000D01*
X58410599Y-35728400D02*
X59978800Y-35728400D01*
D48*
%TO.N,SW_B*%
X46698693Y-54956200D02*
X49623297Y-54956200D01*
X46296386Y-55358507D02*
X46698693Y-54956200D01*
X49623297Y-54956200D02*
X50563098Y-54016399D01*
X44258706Y-55358507D02*
X46296386Y-55358507D01*
%TO.N,SW_C*%
X45605744Y-54011469D02*
X48548477Y-54011469D01*
X48907998Y-53766500D02*
X48793446Y-53766500D01*
X48548477Y-54011469D02*
X48793446Y-53766500D01*
X50563098Y-52111400D02*
X48907998Y-53766500D01*
%TO.N,Net-(U14-Y1)*%
X74053519Y-52991212D02*
X75643156Y-54580849D01*
X75643156Y-54580849D02*
X76327759Y-54580849D01*
%TO.N,Net-(U14-Y2)*%
X75291572Y-52511081D02*
X76438483Y-53657992D01*
%TO.N,Net-(U14-Y1)*%
X74053519Y-52665691D02*
X74053519Y-52991212D01*
%TO.N,Net-(U14-Y2)*%
X76438483Y-53790345D02*
X76421744Y-53807084D01*
%TO.N,Net-(U14-Y1)*%
X76327759Y-54580849D02*
X76419199Y-54489409D01*
%TO.N,Net-(U14-Y2)*%
X76438483Y-53657992D02*
X76438483Y-53790345D01*
D49*
%TO.N,-3.5V*%
X59883802Y-54651400D02*
X60096400Y-54863998D01*
X58724428Y-44609371D02*
X54168799Y-49165000D01*
X54168799Y-53940200D02*
X54879999Y-54651400D01*
%TO.N,BOTTOM_RAIL_NEG*%
X68792745Y-52472612D02*
X68502818Y-52472612D01*
%TO.N,TOP_RAIL_POS*%
X69687562Y-52822624D02*
X69687556Y-52822618D01*
%TO.N,BOTTOM_RAIL_NEG*%
X59886640Y-53479575D02*
X59680015Y-53686200D01*
%TO.N,-3.5V*%
X64430399Y-55464200D02*
X60696602Y-55464200D01*
%TO.N,BOTTOM_RAIL_NEG*%
X69832521Y-52472618D02*
X69832515Y-52472612D01*
%TO.N,-3.5V*%
X58724428Y-43485826D02*
X58724428Y-44609371D01*
%TO.N,TOP_RAIL_POS*%
X67301226Y-52822624D02*
X65269250Y-54854600D01*
%TO.N,-3.5V*%
X54168799Y-49165000D02*
X54168799Y-53940200D01*
X60696602Y-55464200D02*
X60096400Y-54863998D01*
%TO.N,BOTTOM_RAIL_NEG*%
X68792766Y-52472624D02*
X68792760Y-52472618D01*
X69832530Y-52472618D02*
X69832521Y-52472618D01*
X69376368Y-52472612D02*
X69376362Y-52472618D01*
%TO.N,-3.5V*%
X54879999Y-54651400D02*
X59883802Y-54651400D01*
%TO.N,BOTTOM_RAIL_NEG*%
X68502818Y-52472612D02*
X68502806Y-52472624D01*
%TO.N,TOP_RAIL_POS*%
X69773869Y-52833800D02*
X69698748Y-52833800D01*
X65269250Y-54854600D02*
X60915618Y-54854600D01*
%TO.N,BOTTOM_RAIL_NEG*%
X64598756Y-54006957D02*
X63957244Y-54006957D01*
%TO.N,TOP_RAIL_POS*%
X69687572Y-52822624D02*
X69687562Y-52822624D01*
X73135657Y-56195587D02*
X69773869Y-52833800D01*
%TO.N,BOTTOM_RAIL_NEG*%
X66121913Y-52483800D02*
X64598756Y-54006957D01*
X72075799Y-54168800D02*
X70390799Y-52483800D01*
%TO.N,TOP_RAIL_POS*%
X60192537Y-54131519D02*
X60012514Y-54131519D01*
X69553733Y-52822624D02*
X67301226Y-52822624D01*
%TO.N,BOTTOM_RAIL_NEG*%
X63429862Y-53479575D02*
X59886640Y-53479575D01*
X59680015Y-53686200D02*
X56607199Y-53686200D01*
%TO.N,TOP_RAIL_POS*%
X69698748Y-52833800D02*
X69687572Y-52822624D01*
%TO.N,BOTTOM_RAIL_NEG*%
X69832536Y-52472624D02*
X69832530Y-52472618D01*
X68792751Y-52472618D02*
X68792745Y-52472612D01*
X69832546Y-52472624D02*
X69832536Y-52472624D01*
X56607199Y-53686200D02*
X56353199Y-53432200D01*
X67156252Y-52472624D02*
X67145076Y-52483800D01*
X63957244Y-54006957D02*
X63429862Y-53479575D01*
%TO.N,TOP_RAIL_POS*%
X69687556Y-52822618D02*
X69553733Y-52822624D01*
%TO.N,BOTTOM_RAIL_NEG*%
X69376362Y-52472618D02*
X69227687Y-52472618D01*
%TO.N,TOP_RAIL_POS*%
X60915618Y-54854600D02*
X60192537Y-54131519D01*
%TO.N,BOTTOM_RAIL_NEG*%
X70390799Y-52483800D02*
X69843722Y-52483800D01*
X68502806Y-52472624D02*
X67156252Y-52472624D01*
X67145076Y-52483800D02*
X66121913Y-52483800D01*
%TO.N,TOP_RAIL_POS*%
X75565398Y-56195587D02*
X73135657Y-56195587D01*
%TO.N,BOTTOM_RAIL_NEG*%
X69843722Y-52483800D02*
X69832546Y-52472624D01*
X68792760Y-52472618D02*
X68792751Y-52472618D01*
X69832515Y-52472612D02*
X69376368Y-52472612D01*
X69227681Y-52472624D02*
X68792766Y-52472624D01*
X69227687Y-52472618D02*
X69227681Y-52472624D01*
D48*
%TO.N,BICK*%
X77586400Y-32776600D02*
X77593600Y-32769400D01*
X80066113Y-32769400D02*
X80153262Y-32856549D01*
X77593600Y-32769400D02*
X80066113Y-32769400D01*
%TO.N,CAD{slash}CSN*%
X74539599Y-28286200D02*
X73693162Y-27439763D01*
X74539599Y-29229800D02*
X74539599Y-28286200D01*
X73693162Y-27439763D02*
X73095943Y-27439763D01*
%TO.N,SDOUT1*%
X76539600Y-29229800D02*
X76539600Y-28876600D01*
X80542263Y-28683000D02*
X81458674Y-29599411D01*
X76733200Y-28683000D02*
X80542263Y-28683000D01*
X81458674Y-29599411D02*
X81458674Y-32831564D01*
X76539600Y-28876600D02*
X76733200Y-28683000D01*
X81458674Y-32831564D02*
X81538390Y-32911280D01*
%TO.N,MCK*%
X77586400Y-33276599D02*
X78646493Y-33276599D01*
X78853692Y-33069400D02*
X79613853Y-33069400D01*
D49*
%TO.N,Net-(U6-AVDD)*%
X72992800Y-32776600D02*
X72589600Y-32776600D01*
X72768399Y-31276600D02*
X72992800Y-31276600D01*
X72539600Y-32726600D02*
X72539600Y-31505399D01*
X72589600Y-32776600D02*
X72539600Y-32726600D01*
X72539600Y-31505399D02*
X72768399Y-31276600D01*
D48*
%TO.N,SDOUT2*%
X81158674Y-29723675D02*
X80664799Y-29229800D01*
X81158674Y-30658725D02*
X81158674Y-29723675D01*
X80664799Y-29229800D02*
X77039599Y-29229800D01*
X80889599Y-30927800D02*
X81158674Y-30658725D01*
X80889599Y-31232600D02*
X80889599Y-30927800D01*
%TO.N,SDIN1*%
X80703363Y-29839018D02*
X80703363Y-30085257D01*
X77586400Y-29776601D02*
X79765780Y-29776601D01*
X80733674Y-30115568D02*
X80733674Y-30266833D01*
X79765780Y-29776601D02*
X79996256Y-29546125D01*
X80410470Y-29546125D02*
X80703363Y-29839018D01*
X79996256Y-29546125D02*
X80410470Y-29546125D01*
X80703363Y-30085257D02*
X80733674Y-30115568D01*
%TO.N,PDN*%
X72387865Y-28355134D02*
X71964431Y-28778568D01*
X73846533Y-28355134D02*
X72387865Y-28355134D01*
X74039600Y-28548201D02*
X73846533Y-28355134D01*
X74039600Y-29229800D02*
X74039600Y-28548201D01*
%TO.N,SDIN2*%
X77586400Y-30276600D02*
X79972888Y-30276600D01*
X79972888Y-30276600D02*
X80203363Y-30046125D01*
%TO.N,MCK*%
X79851164Y-33306711D02*
X79853685Y-33306711D01*
X79613853Y-33069400D02*
X79851164Y-33306711D01*
X79853685Y-33306711D02*
X79896174Y-33349200D01*
X79896174Y-33349200D02*
X80495750Y-33349200D01*
X78646493Y-33276599D02*
X78853692Y-33069400D01*
%TO.N,Y0_C*%
X84394799Y-42043599D02*
X84364600Y-42013400D01*
X84394799Y-43170600D02*
X84394799Y-42043599D01*
D49*
%TO.N,Voltage_Probe*%
X81724408Y-42024209D02*
X81724408Y-42017023D01*
X81854799Y-42154600D02*
X81724408Y-42024209D01*
D48*
%TO.N,Y3_B*%
X86310599Y-31943084D02*
X86310599Y-32618801D01*
X86310599Y-32618801D02*
X86135771Y-32793629D01*
%TO.N,Y3_C*%
X90187685Y-31943084D02*
X92099444Y-33854843D01*
X88850599Y-31943084D02*
X90187685Y-31943084D01*
%TO.N,Net-(U2B--)*%
X72759200Y-36098800D02*
X72759200Y-35487000D01*
X71729600Y-37128400D02*
X70459600Y-37128400D01*
X71729600Y-37128400D02*
X72759200Y-36098800D01*
%TO.N,Net-(U2C--)*%
X71085199Y-42078400D02*
X71729600Y-42078400D01*
X70459600Y-42078400D02*
X71085199Y-42078400D01*
%TO.N,Net-(U2D--)*%
X65379600Y-42078400D02*
X64109600Y-42078400D01*
%TO.N,Net-(U2A--)*%
X70983988Y-34615401D02*
X71167792Y-34799205D01*
X65379600Y-37128400D02*
X64109600Y-37128400D01*
X70550628Y-34615400D02*
X70983988Y-34615401D01*
X67793920Y-34382200D02*
X70317428Y-34382200D01*
X65379600Y-36796520D02*
X67793920Y-34382200D01*
X70317428Y-34382200D02*
X70550628Y-34615400D01*
X65379600Y-37128400D02*
X65379600Y-36796520D01*
%TO.N,CLK*%
X80220999Y-45160000D02*
X70116770Y-45160000D01*
X81549999Y-45761400D02*
X94272072Y-45761400D01*
X70116770Y-45160000D02*
X69638570Y-44681800D01*
X80584799Y-44796200D02*
X81549999Y-45761400D01*
X94272072Y-45761400D02*
X94852999Y-46342327D01*
%TO.N,LRCK*%
X79572138Y-32276601D02*
X79992190Y-31856549D01*
X77586400Y-32276601D02*
X79572138Y-32276601D01*
%TO.N,/QSPI_SD1*%
X100699602Y-29378400D02*
X99774075Y-30303927D01*
X101380599Y-29378400D02*
X100699602Y-29378400D01*
X99774075Y-30303927D02*
X99774075Y-30705929D01*
%TO.N,/QSPI_SD3*%
X95701892Y-29378400D02*
X96625692Y-28454600D01*
X94180599Y-29378400D02*
X95701892Y-29378400D01*
X96625692Y-28454600D02*
X98194547Y-28454600D01*
%TO.N,/QSPI_SD2*%
X100379682Y-30648400D02*
X100370339Y-30639057D01*
X101380599Y-30648400D02*
X100379682Y-30648400D01*
%TO.N,/QSPI_SD0*%
X96806770Y-31313336D02*
X98208304Y-29911802D01*
X96407492Y-31918400D02*
X96806770Y-31519122D01*
X94180599Y-31918400D02*
X96407492Y-31918400D01*
X98208304Y-29911802D02*
X98844534Y-29911802D01*
X96806770Y-31519122D02*
X96806770Y-31313336D01*
%TO.N,/QSPI_SCLK*%
X97909180Y-29151526D02*
X99075999Y-29151526D01*
X94180599Y-30648400D02*
X96412306Y-30648400D01*
X96412306Y-30648400D02*
X97909180Y-29151526D01*
%TO.N,CLK*%
X80584799Y-44796200D02*
X80220999Y-45160000D01*
X69638570Y-44681800D02*
X65484399Y-44681800D01*
X65484399Y-44681800D02*
X64785999Y-43983400D01*
%TO.N,AOUT1R*%
X72992800Y-30276600D02*
X71543253Y-30276600D01*
X71543253Y-30276600D02*
X71515799Y-30304054D01*
%TO.N,/~{USB_BOOT}*%
X106782710Y-30653517D02*
X106782710Y-30526517D01*
%TO.N,/QSPI_SS*%
X99176785Y-30476953D02*
X99176785Y-30762919D01*
X113743099Y-38903400D02*
X113743099Y-39473436D01*
X100580600Y-28108400D02*
X100355599Y-28333401D01*
X113743099Y-39473436D02*
X113146167Y-40070368D01*
X100355599Y-28333401D02*
X100355599Y-29298139D01*
X100355599Y-29298139D02*
X99176785Y-30476953D01*
X101380599Y-28108400D02*
X100580600Y-28108400D01*
%TO.N,Net-(U4-A)*%
X41343377Y-55291332D02*
X41497453Y-55291332D01*
X39614599Y-51984400D02*
X37991415Y-51956584D01*
X38008629Y-51956584D02*
X41343377Y-55291332D01*
X37991415Y-51956584D02*
X38008629Y-51956584D01*
%TO.N,/XOUT*%
X112495899Y-53261200D02*
X106359199Y-53261200D01*
X106359199Y-53261200D02*
X106340599Y-53279800D01*
X113378099Y-54143400D02*
X112495899Y-53261200D01*
%TO.N,Net-(U1A--)*%
X80178399Y-39915307D02*
X80290891Y-40027799D01*
X80178399Y-38602693D02*
X80033999Y-38747093D01*
X80554600Y-37063400D02*
X80178399Y-37063400D01*
X80178399Y-37063400D02*
X80178399Y-38602693D01*
X80033999Y-39161307D02*
X80178399Y-39305707D01*
X80178399Y-37063400D02*
X79284600Y-37063400D01*
X80033999Y-38747093D02*
X80033999Y-39161307D01*
X80178399Y-39305707D02*
X80178399Y-39915307D01*
%TO.N,Net-(U1B--)*%
X85634600Y-37063400D02*
X85634600Y-39264999D01*
X85634600Y-37063400D02*
X86904600Y-37063400D01*
X85634600Y-39264999D02*
X85105999Y-39793600D01*
%TO.N,Net-(U1C--)*%
X86904600Y-42013400D02*
X86424038Y-41532838D01*
X85634600Y-42013400D02*
X86120000Y-41528000D01*
X86120000Y-41528000D02*
X86424038Y-41528000D01*
X86424038Y-41532838D02*
X86424038Y-41528000D01*
%TO.N,Net-(U1D--)*%
X80967201Y-40625800D02*
X87803199Y-40625800D01*
X87803199Y-40625800D02*
X88255599Y-40173400D01*
X80554600Y-42013400D02*
X80554600Y-41038401D01*
X80554600Y-41038401D02*
X80967201Y-40625800D01*
X79284600Y-42013400D02*
X80554600Y-42013400D01*
%TO.N,ADC_0*%
X73539601Y-33823400D02*
X70889999Y-33823400D01*
X70889999Y-33823400D02*
X70881999Y-33815400D01*
X89722682Y-35350483D02*
X89506096Y-35350483D01*
X90227599Y-35855400D02*
X89722682Y-35350483D01*
%TO.N,Net-(JP5-C)*%
X91527599Y-35855400D02*
X91527599Y-34654581D01*
X91527599Y-34654581D02*
X90015818Y-33142800D01*
X90015818Y-33142800D02*
X89269819Y-33142800D01*
X89269819Y-33142800D02*
X88791853Y-33620766D01*
%TO.N,ADC_0_RP*%
X95332799Y-39953264D02*
X95829599Y-40450064D01*
X95332799Y-38360600D02*
X95332799Y-39953264D01*
X92827599Y-35855400D02*
X95332799Y-38360600D01*
X96449399Y-42949464D02*
X96449399Y-43091589D01*
X95829599Y-40450064D02*
X95829599Y-42329664D01*
X95829599Y-42329664D02*
X96449399Y-42949464D01*
%TO.N,/~{USB_BOOT}*%
X112888482Y-35108289D02*
X111237482Y-35108289D01*
X111237482Y-34981289D02*
X111237482Y-35108289D01*
X115568099Y-37787906D02*
X112888482Y-35108289D01*
X115568099Y-38903400D02*
X115568099Y-37787906D01*
%TO.N,ADC_2_RP*%
X94593399Y-41685200D02*
X94593399Y-43620062D01*
X92827599Y-39919400D02*
X94593399Y-41685200D01*
%TO.N,ADC_2*%
X76017800Y-34654800D02*
X77924599Y-34654800D01*
X89322399Y-38903400D02*
X89322399Y-39014200D01*
X75539600Y-33823400D02*
X75539600Y-34176600D01*
X75539600Y-34176600D02*
X76017800Y-34654800D01*
X89322399Y-39014200D02*
X90227599Y-39919400D01*
X77924599Y-34654800D02*
X79060799Y-33518600D01*
%TO.N,Net-(JP4-C)*%
X89955788Y-36871400D02*
X88064892Y-34980504D01*
X91411599Y-36871400D02*
X89955788Y-36871400D01*
X91527599Y-36987400D02*
X91411599Y-36871400D01*
X91527599Y-37887400D02*
X91527599Y-36987400D01*
X88064892Y-34980504D02*
X88064892Y-33771723D01*
%TO.N,ADC_1*%
X71372135Y-34331400D02*
X71222620Y-34181885D01*
X71222620Y-34181885D02*
X71089106Y-34315400D01*
X71089106Y-34315400D02*
X70674892Y-34315400D01*
X74539599Y-34176600D02*
X74384799Y-34331400D01*
X74539599Y-33823400D02*
X74539599Y-34176600D01*
X69082005Y-33917000D02*
X68978324Y-33813319D01*
X70381999Y-33917000D02*
X69082005Y-33917000D01*
X90227599Y-37887400D02*
X89698265Y-37887400D01*
X74384799Y-34331400D02*
X71372135Y-34331400D01*
X89698265Y-37887400D02*
X89644892Y-37940773D01*
X70674892Y-34315400D02*
X70381999Y-34022507D01*
X70381999Y-34022507D02*
X70381999Y-33917000D01*
%TO.N,ADC_1_RP*%
X95529599Y-40589400D02*
X95529599Y-43152911D01*
X95529599Y-43152911D02*
X96449399Y-44072711D01*
X92827599Y-37887400D02*
X95529599Y-40589400D01*
%TO.N,Net-(U4-D)*%
X43067979Y-47915469D02*
X45026755Y-49874244D01*
X45538568Y-50386058D02*
X45538568Y-51250217D01*
%TO.N,AOUT2R*%
X73539601Y-29229800D02*
X73539601Y-28861356D01*
X73539601Y-28861356D02*
X73595943Y-28805014D01*
%TO.N,Y3_A*%
X84635599Y-27405308D02*
X84635599Y-30433000D01*
X83770599Y-31298000D02*
X83770599Y-31943084D01*
X84553245Y-27322954D02*
X84635599Y-27405308D01*
X84635599Y-30433000D02*
X83770599Y-31298000D01*
%TO.N,Y0_A*%
X80584799Y-35703000D02*
X81439199Y-35703000D01*
X82258368Y-27826169D02*
X82258368Y-27232227D01*
X81439199Y-35703000D02*
X81824600Y-36088401D01*
X83810599Y-29378400D02*
X82258368Y-27826169D01*
X81824600Y-36088401D02*
X81824600Y-37063400D01*
D49*
%TO.N,Net-(U9-GPIO0)*%
X47250599Y-43872400D02*
X47250599Y-44618400D01*
X45481999Y-42103800D02*
X47250599Y-43872400D01*
D48*
%TO.N,Button_Probe*%
X50241199Y-43069000D02*
X49250599Y-42078400D01*
X50511199Y-43069000D02*
X50241199Y-43069000D01*
%TO.N,Net-(U4-Center)*%
X43550859Y-46568430D02*
X43396783Y-46568430D01*
X42334629Y-46568430D02*
X42281599Y-46515400D01*
X43396783Y-46568430D02*
X42334629Y-46568430D01*
X46885607Y-49903178D02*
X43550859Y-46568430D01*
%TO.N,Net-(U4-C)*%
X41138599Y-50587400D02*
X41138599Y-49698400D01*
X40702706Y-49262507D02*
X44037454Y-52597255D01*
X41138599Y-49698400D02*
X40702706Y-49262507D01*
X44037454Y-52597255D02*
X44191530Y-52597255D01*
%TO.N,Net-(U4-B)*%
X42410459Y-52490540D02*
X42844492Y-52924573D01*
X42844492Y-52924573D02*
X42844492Y-53944293D01*
X42154599Y-52746400D02*
X42410459Y-52490540D01*
X40529464Y-50609545D02*
X42410459Y-52490540D01*
X39355668Y-50609545D02*
X40529464Y-50609545D01*
%TO.N,Net-(U4-D)*%
X42049744Y-47915469D02*
X43067979Y-47915469D01*
X43303741Y-51250217D02*
X45538568Y-51250217D01*
X45026755Y-49874244D02*
X45538568Y-50386058D01*
X43649165Y-51251834D02*
X43302124Y-51251834D01*
X43302124Y-51251834D02*
X43303741Y-51250217D01*
%TO.N,AOUT2L*%
X72992800Y-29776601D02*
X71254800Y-29776601D01*
X71254800Y-29776601D02*
X70983599Y-29505400D01*
%TO.N,AOUT1L*%
X72639600Y-30776599D02*
X72039145Y-31377054D01*
X72992800Y-30776599D02*
X72639600Y-30776599D01*
X72039145Y-31377054D02*
X72039145Y-32670346D01*
%TO.N,42*%
X71720199Y-24924841D02*
X71720199Y-21123400D01*
X71745599Y-62703200D02*
X71745599Y-59850400D01*
X72170599Y-25392359D02*
X71711640Y-24933400D01*
X71745599Y-59850400D02*
X71245599Y-59350400D01*
X71745599Y-26305000D02*
X72170599Y-25880000D01*
X71711640Y-24933400D02*
X71720199Y-24924841D01*
X72170599Y-25880000D02*
X72170599Y-25392359D01*
%TO.N,51*%
X83150199Y-24704800D02*
X83785199Y-25339800D01*
X83785199Y-25339800D02*
X83785199Y-25751548D01*
X83150199Y-21123400D02*
X83150199Y-24704800D01*
X83785199Y-25751548D02*
X83301180Y-26235567D01*
X83175599Y-60112400D02*
X83175599Y-62703200D01*
X82667599Y-59604400D02*
X83175599Y-60112400D01*
%TO.N,33*%
X60315599Y-62703200D02*
X60315599Y-58776000D01*
X60290199Y-24755600D02*
X60290199Y-21123400D01*
X60315599Y-58776000D02*
X60569599Y-58522000D01*
X60264799Y-26152600D02*
X60823599Y-25593800D01*
X60823599Y-25289000D02*
X60290199Y-24755600D01*
X60823599Y-25593800D02*
X60823599Y-25289000D01*
%TO.N,39*%
X68360599Y-25829200D02*
X68360599Y-25392359D01*
X67910199Y-24941959D02*
X67910199Y-21123400D01*
X67833999Y-26355800D02*
X68360599Y-25829200D01*
X67935599Y-59580311D02*
X67756237Y-59400949D01*
X68360599Y-25392359D02*
X67910199Y-24941959D01*
X67935599Y-62703200D02*
X67935599Y-59580311D01*
%TO.N,Net-(JP2-C)*%
X89955788Y-40935400D02*
X87429600Y-38409212D01*
X91527599Y-41051400D02*
X91411599Y-40935400D01*
X91527599Y-41951400D02*
X91527599Y-41051400D01*
X87429600Y-34326201D02*
X86825199Y-33721800D01*
X91411599Y-40935400D02*
X89955788Y-40935400D01*
%TO.N,43*%
X72507599Y-59350400D02*
X73015599Y-59858400D01*
X73015599Y-59858400D02*
X73015599Y-62703200D01*
%TO.N,ADC_3_RP*%
X92827599Y-42908000D02*
X93293399Y-43373800D01*
X92827599Y-41951400D02*
X92827599Y-42908000D01*
%TO.N,ADC_3*%
X76539600Y-33823400D02*
X76539600Y-34176600D01*
X89668799Y-42510200D02*
X88407999Y-42510200D01*
X90227599Y-41951400D02*
X89668799Y-42510200D01*
X77512884Y-34251600D02*
X77771227Y-33993257D01*
X76539600Y-34176600D02*
X76614600Y-34251600D01*
X76614600Y-34251600D02*
X77512884Y-34251600D01*
%TO.N,Net-(JP2-C)*%
X87429600Y-38409212D02*
X87429600Y-34326201D01*
%TO.N,45*%
X74920599Y-59350400D02*
X75555599Y-59985400D01*
X75980599Y-25358400D02*
X75530199Y-24908000D01*
X75530199Y-24908000D02*
X75530199Y-21123400D01*
X75555599Y-26305000D02*
X75980599Y-25880000D01*
X75980599Y-25880000D02*
X75980599Y-25358400D01*
X75555599Y-59985400D02*
X75555599Y-62703200D01*
D49*
%TO.N,BOTTOM_RAIL_NEG*%
X87625025Y-55684200D02*
X95282799Y-55684200D01*
X95977199Y-56277000D02*
X97145599Y-57445400D01*
X72075799Y-54168800D02*
X72075799Y-53276902D01*
D48*
%TO.N,60*%
X95113599Y-59096400D02*
X94605599Y-59604400D01*
X94605599Y-59604400D02*
X94605599Y-62703200D01*
%TO.N,52*%
X84953599Y-25085800D02*
X84420199Y-24552400D01*
X84445599Y-62703200D02*
X83937599Y-62195200D01*
X83937599Y-58410600D02*
X84242399Y-58105800D01*
X84953599Y-25748076D02*
X84557034Y-26144641D01*
X83937599Y-62195200D02*
X83937599Y-58410600D01*
X84420199Y-24552400D02*
X84420199Y-21123400D01*
X84953599Y-25085800D02*
X84953599Y-25748076D01*
%TO.N,46*%
X77250599Y-25778400D02*
X77250599Y-25358400D01*
X77250599Y-25358400D02*
X76800199Y-24908000D01*
X76190599Y-59477400D02*
X76825599Y-60112400D01*
X76825599Y-26203400D02*
X77250599Y-25778400D01*
X76825599Y-60112400D02*
X76825599Y-62703200D01*
X76800199Y-24908000D02*
X76800199Y-21123400D01*
%TO.N,44*%
X74710595Y-25880004D02*
X74710595Y-25155196D01*
X73777599Y-59350400D02*
X74285599Y-59858400D01*
X74285599Y-59858400D02*
X74285599Y-62703200D01*
X74260199Y-24704800D02*
X74260199Y-21123400D01*
X74336399Y-26254200D02*
X74710595Y-25880004D01*
X74710595Y-25155196D02*
X74260199Y-24704800D01*
%TO.N,12*%
X71776199Y-57117980D02*
X68865265Y-54207046D01*
X68865265Y-54207046D02*
X68865265Y-54047624D01*
X71776199Y-58365000D02*
X71776199Y-57117980D01*
X72096619Y-58685420D02*
X71776199Y-58365000D01*
%TO.N,35*%
X63280599Y-25829200D02*
X63280599Y-25392359D01*
X62855599Y-58842400D02*
X63236599Y-58461400D01*
X63280599Y-25392359D02*
X62830199Y-24941959D01*
X62830199Y-24941959D02*
X62830199Y-21123400D01*
X62855599Y-62703200D02*
X62855599Y-58842400D01*
X62703199Y-26406600D02*
X63280599Y-25829200D01*
D49*
%TO.N,BOTTOM_RAIL_NEG*%
X72075799Y-53276902D02*
X71556548Y-52757651D01*
X83378799Y-55210200D02*
X83480184Y-55108815D01*
X95282799Y-55684200D02*
X95875599Y-56277000D01*
X97145599Y-57445400D02*
X97145599Y-62703200D01*
X87049640Y-55108815D02*
X87625025Y-55684200D01*
X95875599Y-56277000D02*
X95977199Y-56277000D01*
X83480184Y-55108815D02*
X87049640Y-55108815D01*
D48*
%TO.N,59*%
X93335599Y-62703200D02*
X93335599Y-59746275D01*
X93335599Y-59746275D02*
X93791562Y-59290312D01*
%TO.N,32*%
X58994799Y-26254200D02*
X59470599Y-25778400D01*
X59470599Y-25778400D02*
X59470599Y-25155200D01*
X59470599Y-25155200D02*
X59020199Y-24704800D01*
X59045599Y-62703200D02*
X59045599Y-58588400D01*
X59045599Y-58588400D02*
X59299599Y-58334400D01*
X59020199Y-24704800D02*
X59020199Y-21123400D01*
%TO.N,49*%
X80127599Y-59604400D02*
X80635599Y-60112400D01*
X80635599Y-60112400D02*
X80635599Y-62703200D01*
%TO.N,57*%
X90795599Y-62703200D02*
X90795599Y-59726752D01*
X90744799Y-26203400D02*
X91278199Y-25670000D01*
X91278199Y-25162000D02*
X90770199Y-24654000D01*
X90795599Y-59726752D02*
X91365690Y-59156661D01*
X90770199Y-24654000D02*
X90770199Y-21123400D01*
X91278199Y-25670000D02*
X91278199Y-25162000D01*
%TO.N,40*%
X68899227Y-59268911D02*
X68707934Y-59077618D01*
X68899227Y-62396828D02*
X68899227Y-59268911D01*
X68707934Y-58663404D02*
X68853557Y-58517781D01*
X69205599Y-62703200D02*
X68899227Y-62396828D01*
X68853557Y-58517781D02*
X68782845Y-58447069D01*
X68707934Y-59077618D02*
X68707934Y-58663404D01*
%TO.N,37*%
X65395599Y-26305000D02*
X65395599Y-26254200D01*
X65852799Y-25797000D02*
X65852799Y-25289000D01*
X65395599Y-59604392D02*
X65014607Y-59223400D01*
X65395599Y-62703200D02*
X65395599Y-59604392D01*
X65395599Y-26254200D02*
X65852799Y-25797000D01*
X65852799Y-25289000D02*
X65370199Y-24806400D01*
X65370199Y-24806400D02*
X65370199Y-21123400D01*
%TO.N,54*%
X86934799Y-26254200D02*
X87442799Y-25746200D01*
X87442799Y-25746200D02*
X87442799Y-25339800D01*
X87442799Y-25339800D02*
X86960199Y-24857200D01*
X86985599Y-62703200D02*
X86985599Y-60239400D01*
X86985599Y-60239400D02*
X86350599Y-59604400D01*
X86960199Y-24857200D02*
X86960199Y-21123400D01*
%TO.N,55*%
X88230199Y-21123400D02*
X88204799Y-21148800D01*
X88629799Y-25366959D02*
X88629799Y-25727602D01*
X87620599Y-59604400D02*
X88255599Y-60239400D01*
X88204799Y-21148800D02*
X88204799Y-24941959D01*
X88255599Y-60239400D02*
X88255599Y-62703200D01*
X88629799Y-25727602D02*
X88154000Y-26203401D01*
X88204799Y-24941959D02*
X88629799Y-25366959D01*
%TO.N,36*%
X64550599Y-25358400D02*
X64100199Y-24908000D01*
X64550599Y-25880000D02*
X64550599Y-25358400D01*
X64125599Y-62703200D02*
X64125599Y-58749764D01*
X64074799Y-26355800D02*
X64550599Y-25880000D01*
X64125599Y-58749764D02*
X64333281Y-58542082D01*
%TO.N,56*%
X90033599Y-25187400D02*
X89500199Y-24654000D01*
X89525599Y-60486410D02*
X90337200Y-59674809D01*
X89525599Y-62703200D02*
X89525599Y-60486410D01*
X89525599Y-26152600D02*
X90033599Y-25644600D01*
X90033599Y-25644600D02*
X90033599Y-25187400D01*
X89500199Y-24654000D02*
X89500199Y-21123400D01*
%TO.N,36*%
X64100199Y-24908000D02*
X64100199Y-21123400D01*
%TO.N,34*%
X61585599Y-58715400D02*
X61839599Y-58461400D01*
X61585599Y-62703200D02*
X61585599Y-58715400D01*
%TO.N,8*%
X66185653Y-57024254D02*
X66185653Y-57985826D01*
X66185653Y-57985826D02*
X67207934Y-59008107D01*
X65641599Y-56480200D02*
X66185653Y-57024254D01*
%TO.N,9*%
X68207934Y-56966517D02*
X68207934Y-59006014D01*
X66584799Y-55343382D02*
X68207934Y-56966517D01*
%TO.N,LED_DATA_IN*%
X55379999Y-62558800D02*
X55379999Y-59321093D01*
X55379999Y-59321093D02*
X53480363Y-57421457D01*
X55286399Y-25390600D02*
X55210199Y-25314400D01*
X55235599Y-62703200D02*
X55379999Y-62558800D01*
X53480363Y-57421457D02*
X48224609Y-57421457D01*
X55210199Y-25314400D02*
X55210199Y-21123400D01*
%TO.N,11*%
X70607799Y-57321276D02*
X70607799Y-57485137D01*
X70407799Y-57685137D02*
X70407799Y-58120063D01*
X69545296Y-56258773D02*
X70607799Y-57321276D01*
X70407799Y-58120063D02*
X70715336Y-58427600D01*
X70607799Y-57485137D02*
X70407799Y-57685137D01*
X70715336Y-58723094D02*
X70919842Y-58927600D01*
X70715336Y-58427600D02*
X70715336Y-58723094D01*
%TO.N,41*%
X70475599Y-59819740D02*
X70140363Y-59484504D01*
X70475599Y-62703200D02*
X70475599Y-59819740D01*
D49*
%TO.N,TOP_RAIL_POS*%
X76656430Y-57286619D02*
X75565398Y-56195587D01*
X85006552Y-56133998D02*
X84904954Y-56032400D01*
D48*
%TO.N,38*%
X66640199Y-24908000D02*
X66640199Y-21123400D01*
X66614799Y-26305000D02*
X67021199Y-25898600D01*
X66665599Y-59723400D02*
X66165599Y-59223400D01*
X66665599Y-62703200D02*
X66665599Y-59723400D01*
X67021199Y-25898600D02*
X67021199Y-25289000D01*
X67021199Y-25289000D02*
X66640199Y-24908000D01*
%TO.N,50*%
X81397599Y-59604400D02*
X81905599Y-60112400D01*
X81905599Y-60112400D02*
X81905599Y-62703200D01*
%TO.N,47*%
X78095599Y-26254200D02*
X78520599Y-25829200D01*
X78520599Y-25307600D02*
X78095599Y-24882600D01*
X78095599Y-59858400D02*
X78095599Y-62703200D01*
X78095599Y-24882600D02*
X78095599Y-24831800D01*
X78070199Y-24806400D02*
X78070199Y-21123400D01*
X78095599Y-24831800D02*
X78070199Y-24806400D01*
X78520599Y-25829200D02*
X78520599Y-25307600D01*
X77587599Y-59350400D02*
X78095599Y-59858400D01*
%TO.N,31*%
X57775599Y-62703200D02*
X57775599Y-58728300D01*
X58080399Y-25695400D02*
X58080399Y-25085800D01*
X57673999Y-26101800D02*
X58080399Y-25695400D01*
X58080399Y-25085800D02*
X57750199Y-24755600D01*
X57750199Y-24755600D02*
X57750199Y-21123400D01*
X57673999Y-26203400D02*
X57673999Y-26101800D01*
X57775599Y-58728300D02*
X58042499Y-58461400D01*
%TO.N,53*%
X85080599Y-59604400D02*
X85715599Y-60239400D01*
X85715599Y-26203400D02*
X86140599Y-25778400D01*
X85715599Y-60239400D02*
X85715599Y-62703200D01*
X86140599Y-25778400D02*
X86140599Y-25358400D01*
X85664799Y-26203400D02*
X85715599Y-26203400D01*
X86140599Y-25358400D02*
X85690199Y-24908000D01*
X85690199Y-24908000D02*
X85690199Y-21123400D01*
%TO.N,58*%
X92522799Y-25746202D02*
X92014799Y-26254202D01*
X92522799Y-25289000D02*
X92522799Y-25746202D01*
X92065599Y-59731400D02*
X92065599Y-62703200D01*
X92573599Y-59223400D02*
X92065599Y-59731400D01*
X92040199Y-24806400D02*
X92522799Y-25289000D01*
X92040199Y-21123400D02*
X92040199Y-24806400D01*
D49*
%TO.N,TOP_RAIL_NEG*%
X89873473Y-57837510D02*
X89024163Y-56988200D01*
X92675199Y-56988200D02*
X93437199Y-57750200D01*
X89024163Y-56988200D02*
X88712799Y-56988200D01*
X88712799Y-56988200D02*
X92675199Y-56988200D01*
D48*
%TO.N,SW_D*%
X48580067Y-52664431D02*
X50563098Y-50681400D01*
X46952782Y-52664431D02*
X48580067Y-52664431D01*
X50563098Y-50681400D02*
X50563098Y-50206400D01*
%TO.N,SW_PUSH*%
X48299821Y-50564676D02*
X50563098Y-48301399D01*
X50563098Y-47518099D02*
X49923999Y-46879000D01*
%TO.N,SW_A*%
X47412399Y-56226200D02*
X50258298Y-56226200D01*
%TO.N,SW_PUSH*%
X50563098Y-48301399D02*
X50563098Y-47518099D01*
%TO.N,SW_A*%
X50258298Y-56226200D02*
X50563098Y-55921400D01*
X42911667Y-56705546D02*
X46933053Y-56705546D01*
X46933053Y-56705546D02*
X47412399Y-56226200D01*
%TO.N,SW_PUSH*%
X48299821Y-51317392D02*
X48299821Y-50564676D01*
%TO.N,Net-(U2B-+)*%
X69908408Y-37847208D02*
X69908408Y-38454594D01*
%TO.N,Net-(U2C-+)*%
X77242200Y-40527799D02*
X80581907Y-40527799D01*
X86357399Y-40293600D02*
X86833199Y-39817800D01*
X80816106Y-40293600D02*
X86357399Y-40293600D01*
%TO.N,Net-(U2B-+)*%
X76896599Y-38903400D02*
X78684221Y-38903400D01*
%TO.N,Net-(U2D-+)*%
X66649600Y-43053399D02*
X67345801Y-43749600D01*
%TO.N,Net-(U2B-+)*%
X78684221Y-38903400D02*
X78849732Y-38737889D01*
X69189600Y-37128400D02*
X69908408Y-37847208D01*
%TO.N,Net-(U2C-+)*%
X76896599Y-40873400D02*
X77242200Y-40527799D01*
%TO.N,Net-(U2D-+)*%
X68467892Y-43749600D02*
X69049292Y-44331000D01*
X67345801Y-43749600D02*
X68467892Y-43749600D01*
X70606422Y-44860000D02*
X73848000Y-44860000D01*
%TO.N,Net-(U2C-+)*%
X80581907Y-40527799D02*
X80816106Y-40293600D01*
%TO.N,Net-(U2D-+)*%
X69049292Y-44331000D02*
X70077422Y-44331000D01*
X73848000Y-44860000D02*
X75864600Y-42843400D01*
X70077422Y-44331000D02*
X70606422Y-44860000D01*
X66649600Y-42078400D02*
X66649600Y-43053399D01*
D49*
%TO.N,-3.5V*%
X46955199Y-29048200D02*
X46955199Y-27448000D01*
X67919600Y-41103401D02*
X67919600Y-42078400D01*
X66005199Y-43343852D02*
X66005199Y-41138600D01*
X65863225Y-43485826D02*
X66005199Y-43343852D01*
X47547099Y-38268400D02*
X46980599Y-38268400D01*
X66563999Y-40579800D02*
X67395999Y-40579800D01*
X51679599Y-34860900D02*
X50114599Y-33295900D01*
D48*
%TO.N,Net-(U2A-+)*%
X71546306Y-35331400D02*
X71987506Y-34890200D01*
D49*
%TO.N,-3.5V*%
X51679599Y-34860900D02*
X50954599Y-34860900D01*
X50114599Y-33295900D02*
X50114599Y-32207600D01*
X59464650Y-43485826D02*
X65863225Y-43485826D01*
X66005199Y-41138600D02*
X66563999Y-40579800D01*
D48*
%TO.N,Net-(U2A-+)*%
X75864600Y-36623401D02*
X77500112Y-34987889D01*
D49*
%TO.N,-3.5V*%
X67395999Y-40579800D02*
X67919600Y-41103401D01*
D48*
%TO.N,Net-(U2A-+)*%
X71987506Y-34890200D02*
X73821400Y-34890200D01*
D49*
%TO.N,-3.5V*%
X50114599Y-32207600D02*
X47980599Y-30073600D01*
X47310799Y-29403800D02*
X47980599Y-30073600D01*
D48*
%TO.N,Net-(U2A-+)*%
X73821400Y-34890200D02*
X75864600Y-36933400D01*
X77500112Y-34987889D02*
X79144338Y-34987889D01*
X66649600Y-37128400D02*
X66649600Y-36153401D01*
D49*
%TO.N,-3.5V*%
X46955199Y-29403800D02*
X46955199Y-38243000D01*
D48*
%TO.N,Net-(U2A-+)*%
X67471601Y-35331400D02*
X71546306Y-35331400D01*
D49*
%TO.N,-3.5V*%
X58823175Y-43584573D02*
X59365903Y-43584573D01*
X46955199Y-29403800D02*
X47310799Y-29403800D01*
X50954599Y-34860900D02*
X47547099Y-38268400D01*
X59365903Y-43584573D02*
X59464650Y-43485826D01*
D48*
%TO.N,Net-(U2A-+)*%
X75864600Y-36933400D02*
X75864600Y-36623401D01*
X66649600Y-36153401D02*
X67471601Y-35331400D01*
%TO.N,48*%
X79365599Y-59985400D02*
X79365599Y-62703200D01*
X78857599Y-59477400D02*
X79365599Y-59985400D01*
D49*
%TO.N,TOP_RAIL_POS*%
X87102049Y-56034200D02*
X87002251Y-56133998D01*
X83329168Y-57286619D02*
X76656430Y-57286619D01*
X94921599Y-56034200D02*
X87102049Y-56034200D01*
X84904954Y-56032400D02*
X84583387Y-56032400D01*
X87002251Y-56133998D02*
X85006552Y-56133998D01*
X84583387Y-56032400D02*
X83329168Y-57286619D01*
X96180399Y-57293000D02*
X94921599Y-56034200D01*
D48*
%TO.N,I2C_SDA*%
X82465475Y-26732227D02*
X82647848Y-26914600D01*
X84729286Y-26897954D02*
X83903445Y-26897954D01*
X80279999Y-26914600D02*
X81868888Y-26914600D01*
X85512399Y-27575000D02*
X84851999Y-26914600D01*
X88833936Y-27676600D02*
X85512399Y-27676600D01*
X84745932Y-26914600D02*
X84729286Y-26897954D01*
X88952536Y-27795200D02*
X88833936Y-27676600D01*
X81868888Y-26914600D02*
X82051261Y-26732227D01*
X83903445Y-26897954D02*
X83835999Y-26965400D01*
X89506062Y-27676600D02*
X89387462Y-27795200D01*
D49*
%TO.N,BOTTOM_RAIL_POS*%
X93123999Y-56384200D02*
X87247024Y-56384200D01*
X86643024Y-56988200D02*
X84953599Y-56988200D01*
X72962676Y-57396723D02*
X72962676Y-57549116D01*
X87247024Y-56384200D02*
X86643024Y-56988200D01*
X95875599Y-62703200D02*
X95875599Y-59135800D01*
X84818199Y-56852800D02*
X84818199Y-56582400D01*
X84953599Y-56988200D02*
X84818199Y-56852800D01*
X72990199Y-57369200D02*
X72962676Y-57396723D01*
X95875599Y-59135800D02*
X93123999Y-56384200D01*
D48*
%TO.N,I2C_SCL*%
X83779181Y-26597954D02*
X85162817Y-26597954D01*
X71232056Y-26404000D02*
X71657056Y-26829000D01*
X76996800Y-26919400D02*
X79850935Y-26919400D01*
X91994599Y-32332419D02*
X92105599Y-32443420D01*
X58410599Y-33188400D02*
X64769999Y-26829000D01*
X74579200Y-26829000D02*
X75833200Y-28083000D01*
X72892655Y-26652400D02*
X73069255Y-26829000D01*
X80155735Y-26614600D02*
X81744624Y-26614600D01*
X81926997Y-26432227D02*
X82869826Y-26432227D01*
X92105599Y-32662811D02*
X96383599Y-36940810D01*
X85162817Y-26597954D02*
X85281063Y-26716200D01*
X71657056Y-26829000D02*
X72301841Y-26829000D01*
X72301841Y-26829000D02*
X72478441Y-26652400D01*
X96383599Y-36940810D02*
X96383599Y-41951400D01*
X92105599Y-32443420D02*
X92105599Y-32662811D01*
X89358462Y-26716200D02*
X91994599Y-29352337D01*
X64769999Y-26829000D02*
X70392842Y-26829000D01*
X91994599Y-29352337D02*
X91994599Y-32332419D01*
X82869826Y-26432227D02*
X83102999Y-26665400D01*
X83711735Y-26665400D02*
X83779181Y-26597954D01*
X75039600Y-28876600D02*
X75833200Y-28083000D01*
X75833200Y-28083000D02*
X76996800Y-26919400D01*
X75039600Y-29229800D02*
X75039600Y-28876600D01*
X72478441Y-26652400D02*
X72892655Y-26652400D01*
X83102999Y-26665400D02*
X83711735Y-26665400D01*
X85281063Y-26716200D02*
X89358462Y-26716200D01*
X73069255Y-26829000D02*
X74579200Y-26829000D01*
X70817842Y-26404000D02*
X71232056Y-26404000D01*
X70392842Y-26829000D02*
X70817842Y-26404000D01*
X79850935Y-26919400D02*
X80155735Y-26614600D01*
X81744624Y-26614600D02*
X81926997Y-26432227D01*
%TO.N,I2C_SDA*%
X91805599Y-32787075D02*
X91805599Y-32567683D01*
X89660135Y-27676600D02*
X89506062Y-27676600D01*
X82051261Y-26732227D02*
X82465475Y-26732227D01*
X91805599Y-32567683D02*
X89660135Y-30422219D01*
X83835999Y-26965400D02*
X82718399Y-26965400D01*
X77696801Y-27219400D02*
X79975199Y-27219400D01*
X85512399Y-27676600D02*
X85512399Y-27575000D01*
X95832799Y-36814275D02*
X91805599Y-32787075D01*
X76039601Y-28876600D02*
X77696801Y-27219400D01*
X89660135Y-30422219D02*
X89660135Y-27676600D01*
X79975199Y-27219400D02*
X80279999Y-26914600D01*
X84851999Y-26914600D02*
X84745932Y-26914600D01*
X95832799Y-38954200D02*
X95832799Y-36814275D01*
X89387462Y-27795200D02*
X88952536Y-27795200D01*
X82667599Y-26914600D02*
X82718399Y-26965400D01*
X76039601Y-29229800D02*
X76039601Y-28876600D01*
X82647848Y-26914600D02*
X82667599Y-26914600D01*
D49*
%TO.N,Net-(U6-AVDRV)*%
X77586400Y-31776600D02*
X79210007Y-31776600D01*
X65903599Y-29864900D02*
X65903599Y-29277400D01*
X67351999Y-27829000D02*
X68646799Y-27829000D01*
%TO.N,Net-(U6-VCOM)*%
X67919600Y-29864900D02*
X69032100Y-30977400D01*
X69032100Y-30977400D02*
X70423599Y-30977400D01*
%TO.N,Net-(U6-AVDRV)*%
X65903599Y-29277400D02*
X67351999Y-27829000D01*
%TO.N,Net-(U6-VCOM)*%
X71757598Y-33276599D02*
X72992800Y-33276599D01*
X71237599Y-31791400D02*
X71237599Y-32756600D01*
%TO.N,Net-(U6-AVDRV)*%
X79210007Y-31776600D02*
X79658573Y-31328034D01*
%TO.N,Net-(U6-VCOM)*%
X70423599Y-30977400D02*
X71237599Y-31791400D01*
X71237599Y-32756600D02*
X71757598Y-33276599D01*
%TO.N,LED_5V*%
X56480199Y-21123400D02*
X56480199Y-24730200D01*
X83094600Y-37063400D02*
X83094600Y-36088401D01*
X56505599Y-59934600D02*
X55895999Y-59325000D01*
X56505599Y-62703200D02*
X56505599Y-59934600D01*
X83094600Y-36088401D02*
X81244221Y-34238022D01*
X40870599Y-33558000D02*
X40870599Y-35703400D01*
X41417999Y-33010600D02*
X40870599Y-33558000D01*
X81244221Y-34238022D02*
X81200948Y-34238022D01*
%TO.N,-3.5V*%
X58724428Y-43485826D02*
X58823175Y-43584573D01*
X46955199Y-38243000D02*
X46980599Y-38268400D01*
X47980599Y-30073600D02*
X46955199Y-29048200D01*
X46955199Y-27448000D02*
X46345599Y-26838400D01*
%TO.N,+18V*%
X63551339Y-40021000D02*
X61296220Y-42276119D01*
X67919600Y-37128400D02*
X67919600Y-38103399D01*
D48*
%TO.N,/XIN*%
X113965599Y-50098400D02*
X113610599Y-49743400D01*
%TO.N,Net-(C7-Pad1)*%
X115310599Y-47543400D02*
X115310599Y-45638400D01*
D49*
%TO.N,+1V1*%
X113401599Y-41443400D02*
X111623599Y-43221400D01*
D48*
%TO.N,/XIN*%
X113965599Y-52238400D02*
X113965599Y-50098400D01*
%TO.N,Net-(C7-Pad1)*%
X115310599Y-45638400D02*
X114925599Y-45253400D01*
%TO.N,/XIN*%
X113965599Y-52238400D02*
X106719432Y-52238400D01*
%TO.N,Net-(C7-Pad1)*%
X116135599Y-53210900D02*
X116135599Y-48368400D01*
D49*
%TO.N,+18V*%
X52035199Y-29403800D02*
X49469799Y-26838400D01*
%TO.N,+1V1*%
X111623599Y-43221400D02*
X106492799Y-43221400D01*
X107254799Y-53991000D02*
X108931199Y-55667400D01*
D48*
%TO.N,Net-(C7-Pad1)*%
X116135599Y-48368400D02*
X115310599Y-47543400D01*
D49*
%TO.N,+18V*%
X67919600Y-38103399D02*
X66001999Y-40021000D01*
D48*
%TO.N,/XIN*%
X106719432Y-52238400D02*
X105744263Y-53213569D01*
D49*
%TO.N,+18V*%
X49469799Y-26838400D02*
X48885599Y-26838400D01*
%TO.N,+1V1*%
X108931199Y-55667400D02*
X112285099Y-55667400D01*
X113787599Y-41443400D02*
X113401599Y-41443400D01*
D48*
%TO.N,Net-(C7-Pad1)*%
X115203099Y-54143400D02*
X116135599Y-53210900D01*
D49*
%TO.N,+18V*%
X66001999Y-40021000D02*
X63551339Y-40021000D01*
%TO.N,+3V3*%
X47615599Y-32401000D02*
X48754699Y-32401000D01*
X38319199Y-41490846D02*
X41982569Y-45154216D01*
X48754699Y-32401000D02*
X49139599Y-32785900D01*
X93130599Y-32238242D02*
X93130599Y-28389600D01*
X93130599Y-28389600D02*
X93411799Y-28108400D01*
X41265599Y-27498400D02*
X41265599Y-26838400D01*
X94097599Y-27422600D02*
X94097599Y-28025400D01*
X97204957Y-36312600D02*
X93130599Y-32238242D01*
X80208573Y-31327880D02*
X81009446Y-32128753D01*
X101261499Y-53280900D02*
X99939599Y-53280900D01*
X38319199Y-34331400D02*
X38319199Y-41490846D01*
X79884956Y-30776599D02*
X80208573Y-31100216D01*
X94097599Y-28025400D02*
X94180599Y-28108400D01*
X110253099Y-41443400D02*
X110253099Y-41546100D01*
X43170599Y-29403400D02*
X41265599Y-27498400D01*
X81009446Y-32128753D02*
X81009446Y-33007599D01*
X80208573Y-31100216D02*
X80208573Y-31327880D01*
X81088390Y-33097677D02*
X81351993Y-33361280D01*
X113402699Y-43373800D02*
X113809099Y-42967400D01*
X81088390Y-33086543D02*
X81088390Y-33097677D01*
X41265599Y-26838400D02*
X41265599Y-31385000D01*
X99228399Y-36312600D02*
X97204957Y-36312600D01*
X102022399Y-54041800D02*
X101261499Y-53280900D01*
X81351993Y-33361280D02*
X83499670Y-33361280D01*
X81009446Y-33007599D02*
X81088390Y-33086543D01*
X41265599Y-31385000D02*
X38319199Y-34331400D01*
X99786099Y-44337900D02*
X98974399Y-43526200D01*
X43170599Y-35703400D02*
X43170599Y-29403400D01*
X93411799Y-28108400D02*
X94180599Y-28108400D01*
X99939599Y-44337900D02*
X99786099Y-44337900D01*
D50*
X36594415Y-50542370D02*
X41982569Y-45154216D01*
D49*
X83499670Y-33361280D02*
X83763390Y-33625000D01*
X110253099Y-41546100D02*
X111318799Y-42611800D01*
X77586400Y-30776599D02*
X79884956Y-30776599D01*
X112537999Y-43373800D02*
X113402699Y-43373800D01*
%TO.N,LED_GND*%
X75039600Y-31776600D02*
X75211769Y-31604431D01*
X67311366Y-28946600D02*
X68858300Y-28946600D01*
X52288100Y-42298200D02*
X52288100Y-48301399D01*
X51679599Y-31588200D02*
X49495199Y-29403800D01*
X113610599Y-47943400D02*
X113610599Y-47543400D01*
X106665599Y-50922600D02*
X106665599Y-49708400D01*
D48*
%TO.N,Net-(JP3-C)*%
X91527599Y-39019400D02*
X91527599Y-39919400D01*
X87729600Y-34143538D02*
X87729600Y-36677212D01*
X87493599Y-33772600D02*
X87493599Y-33907537D01*
X87493599Y-33907537D02*
X87729600Y-34143538D01*
X87729600Y-36677212D02*
X89991788Y-38939400D01*
X89991788Y-38939400D02*
X91447599Y-38939400D01*
X91447599Y-38939400D02*
X91527599Y-39019400D01*
D49*
%TO.N,LED_GND*%
X114315999Y-52848000D02*
X114315999Y-55361500D01*
X77039599Y-33823400D02*
X77039599Y-33276599D01*
X107932923Y-36939924D02*
X111111615Y-36939924D01*
X66944600Y-29313366D02*
X67311366Y-28946600D01*
X43805599Y-26838400D02*
X45470599Y-28503400D01*
X39360599Y-38268400D02*
X42905599Y-38268400D01*
X113610599Y-47543400D02*
X113610599Y-45608400D01*
X65903599Y-31939900D02*
X67919600Y-31939900D01*
X114519199Y-39439800D02*
X114519199Y-38495990D01*
X115310599Y-49743400D02*
X115310599Y-51853400D01*
X53965599Y-62703200D02*
X53965599Y-59121800D01*
X104976130Y-30630331D02*
X103782330Y-31824131D01*
X48711699Y-34860900D02*
X47818799Y-35753800D01*
X113965599Y-44535900D02*
X115534099Y-42967400D01*
X115310599Y-49743400D02*
X115310599Y-49643400D01*
X114925599Y-52238400D02*
X114315999Y-52848000D01*
X98466399Y-53532700D02*
X99939599Y-55005900D01*
X115512599Y-41443400D02*
X115512599Y-40433200D01*
X104358099Y-55005900D02*
X102479599Y-55005900D01*
X65903599Y-31939900D02*
X63359699Y-34483800D01*
X45470599Y-28503400D02*
X45470599Y-35703400D01*
X70400499Y-30039900D02*
X70831199Y-30470600D01*
X67434799Y-55369800D02*
X67434799Y-54745800D01*
X53965599Y-59121800D02*
X54067199Y-59020200D01*
X75695262Y-31276600D02*
X75367431Y-31604431D01*
X68858300Y-28946600D02*
X69951600Y-30039900D01*
X42905599Y-38268400D02*
X45470599Y-35703400D01*
X103782330Y-31824131D02*
X105527599Y-33569400D01*
X76039601Y-33823400D02*
X76039601Y-32276601D01*
X115512599Y-40433200D02*
X114519199Y-39439800D01*
X102582299Y-55005900D02*
X106665599Y-50922600D01*
X112963133Y-36939924D02*
X111111615Y-36939924D01*
X49520599Y-38268400D02*
X49520599Y-39530699D01*
X53329142Y-55921400D02*
X54304199Y-56896457D01*
X102479599Y-55005900D02*
X102582299Y-55005900D01*
X100845099Y-42612900D02*
X105390599Y-47158400D01*
X53940199Y-21123400D02*
X53940199Y-24679400D01*
X105527599Y-34534600D02*
X107932923Y-36939924D01*
X71992399Y-44535000D02*
X71542399Y-44085000D01*
X72992800Y-32276601D02*
X74695261Y-32276601D01*
X73410799Y-36933400D02*
X73167999Y-37176200D01*
X74695261Y-32276601D02*
X75367431Y-31604431D01*
X114315999Y-55361500D02*
X114010099Y-55667400D01*
X75539600Y-31432262D02*
X75367431Y-31604431D01*
X67919600Y-31939900D02*
X66944600Y-30964900D01*
X113610599Y-47543400D02*
X108325599Y-47543400D01*
X67434799Y-54745800D02*
X67572799Y-54607800D01*
D50*
X52288100Y-48301399D02*
X52288100Y-55921400D01*
D49*
X56607199Y-36465000D02*
X58410599Y-38268400D01*
X74904600Y-42843400D02*
X73213000Y-44535000D01*
X63359699Y-34483800D02*
X56607199Y-34483800D01*
X77039599Y-33276599D02*
X75367431Y-31604431D01*
X68755599Y-54607800D02*
X71085199Y-56937400D01*
X74039600Y-32932262D02*
X75367431Y-31604431D01*
X75211769Y-31604431D02*
X75367431Y-31604431D01*
X54219599Y-32785900D02*
X51679599Y-32785900D01*
X75039600Y-33823400D02*
X75039600Y-31776600D01*
X113610599Y-45608400D02*
X113965599Y-45253400D01*
X49520599Y-39530699D02*
X52288100Y-42298200D01*
X108325599Y-47543400D02*
X107940599Y-47158400D01*
X113965599Y-45253400D02*
X113965599Y-44535900D01*
X67935599Y-55870600D02*
X67434799Y-55369800D01*
X115534099Y-41464900D02*
X115512599Y-41443400D01*
X115534099Y-42967400D02*
X115534099Y-41464900D01*
X76039601Y-32276601D02*
X75367431Y-31604431D01*
X111978099Y-41443400D02*
X112515599Y-41443400D01*
X115310599Y-51853400D02*
X114925599Y-52238400D01*
X103688061Y-31918400D02*
X101380599Y-31918400D01*
X49139599Y-34860900D02*
X48711699Y-34860900D01*
X52288100Y-55921400D02*
X53329142Y-55921400D01*
X99939599Y-55005900D02*
X102479599Y-55005900D01*
X67572799Y-54607800D02*
X68755599Y-54607800D01*
X66944600Y-30964900D02*
X66944600Y-29313366D01*
X99939599Y-42612900D02*
X100845099Y-42612900D01*
X106670599Y-57318400D02*
X104358099Y-55005900D01*
X77586400Y-31276600D02*
X75695262Y-31276600D01*
X51679599Y-32785900D02*
X51679599Y-31588200D01*
X68087999Y-55870600D02*
X67935599Y-55870600D01*
X105527599Y-33569400D02*
X105527599Y-34534600D01*
X103782330Y-31824131D02*
X103688061Y-31918400D01*
X112515599Y-41443400D02*
X114519199Y-39439800D01*
X74039600Y-33823400D02*
X74039600Y-32932262D01*
X71085199Y-56937400D02*
X71085199Y-57801000D01*
X114519199Y-38495990D02*
X112963133Y-36939924D01*
X98466399Y-52975000D02*
X98466399Y-53532700D01*
X75936599Y-40873400D02*
X75936599Y-38903400D01*
X72992800Y-31776600D02*
X75039600Y-31776600D01*
X75539600Y-29229800D02*
X75539600Y-31432262D01*
X74904600Y-36933400D02*
X73410799Y-36933400D01*
X56607199Y-34483800D02*
X56607199Y-36465000D01*
X69951600Y-30039900D02*
X70400499Y-30039900D01*
X115310599Y-49643400D02*
X113610599Y-47943400D01*
X73213000Y-44535000D02*
X71992399Y-44535000D01*
D48*
%TO.N,34*%
X62042799Y-25746200D02*
X62042799Y-25390600D01*
X61483999Y-26305000D02*
X62042799Y-25746200D01*
X62042799Y-25390600D02*
X61560199Y-24908000D01*
X61560199Y-24908000D02*
X61560199Y-21123400D01*
D49*
%TO.N,BOTTOM_RAIL_POS*%
X93540217Y-26522600D02*
X92319599Y-27743218D01*
D48*
%TO.N,Net-(U2D--)*%
X65379600Y-42078400D02*
X65379600Y-41103401D01*
X79548372Y-34352095D02*
X79548372Y-33711026D01*
X67059001Y-39424000D02*
X71669379Y-39424000D01*
D49*
%TO.N,BOTTOM_RAIL_POS*%
X92319599Y-27743218D02*
X92319599Y-32197800D01*
D48*
%TO.N,Net-(U2D--)*%
X79351445Y-35487889D02*
X79764129Y-35075205D01*
X78921378Y-35472036D02*
X78937231Y-35487889D01*
X76925014Y-37468400D02*
X78921378Y-35472036D01*
X71669379Y-39424000D02*
X72931779Y-38161600D01*
D49*
%TO.N,BOTTOM_RAIL_POS*%
X91614245Y-55048303D02*
X87636502Y-55048303D01*
X97430647Y-50708752D02*
X95174153Y-52965246D01*
X95016230Y-25688243D02*
X94708693Y-25995780D01*
D48*
%TO.N,Net-(U2D--)*%
X73201019Y-38161600D02*
X73492999Y-37869619D01*
D49*
%TO.N,BOTTOM_RAIL_POS*%
X92430599Y-32308800D02*
X92430599Y-32528191D01*
X97430647Y-37528239D02*
X97430647Y-50708752D01*
D48*
%TO.N,Net-(U2D--)*%
X65379600Y-41103401D02*
X67059001Y-39424000D01*
X73492999Y-37593663D02*
X73618262Y-37468400D01*
X78937231Y-35487889D02*
X79351445Y-35487889D01*
D49*
%TO.N,BOTTOM_RAIL_POS*%
X95174153Y-52965246D02*
X93697302Y-52965246D01*
D48*
%TO.N,Net-(U2D--)*%
X73618262Y-37468400D02*
X76925014Y-37468400D01*
D49*
%TO.N,BOTTOM_RAIL_POS*%
X95850199Y-25150273D02*
X95312229Y-25688243D01*
X92430599Y-32528191D02*
X97430647Y-37528239D01*
X95312229Y-25688243D02*
X95016230Y-25688243D01*
X94470392Y-26522600D02*
X93540217Y-26522600D01*
D48*
%TO.N,Net-(U2D--)*%
X79764129Y-35075205D02*
X79764129Y-34567852D01*
D49*
%TO.N,BOTTOM_RAIL_POS*%
X94708693Y-26284299D02*
X94470392Y-26522600D01*
D48*
%TO.N,Net-(U2D--)*%
X79764129Y-34567852D02*
X79548372Y-34352095D01*
D49*
%TO.N,BOTTOM_RAIL_POS*%
X94708693Y-25995780D02*
X94708693Y-26284299D01*
X93697302Y-52965246D02*
X91614245Y-55048303D01*
X92319599Y-32197800D02*
X92430599Y-32308800D01*
D48*
%TO.N,Net-(U2D--)*%
X73492999Y-37869619D02*
X73492999Y-37593663D01*
X72931779Y-38161600D02*
X73201019Y-38161600D01*
D49*
%TO.N,BOTTOM_RAIL_POS*%
X95850199Y-21123400D02*
X95850199Y-25150273D01*
D48*
%TO.N,50*%
X81749906Y-25964638D02*
X81782919Y-25964638D01*
X82330199Y-25417358D02*
X82330199Y-25154800D01*
X82330199Y-25154800D02*
X81880199Y-24704800D01*
X81782919Y-25964638D02*
X82330199Y-25417358D01*
X81880199Y-24704800D02*
X81880199Y-21123400D01*
D49*
%TO.N,-3.5V*%
X58724428Y-43485826D02*
X58724428Y-43435766D01*
X58340662Y-43052000D02*
X57656999Y-43052000D01*
X58724428Y-43435766D02*
X58340662Y-43052000D01*
X54573831Y-39361968D02*
X54573831Y-38190832D01*
X54573831Y-38190832D02*
X51679599Y-35296600D01*
X56945799Y-42340800D02*
X56945799Y-41733936D01*
X56945799Y-41733936D02*
X54573831Y-39361968D01*
X57656999Y-43052000D02*
X56945799Y-42340800D01*
X51679599Y-35296600D02*
X51679599Y-34860900D01*
D48*
%TO.N,60*%
X94129736Y-25997600D02*
X94266175Y-25861161D01*
X94757999Y-25486854D02*
X94757999Y-25035000D01*
X94757999Y-25035000D02*
X94580199Y-24857200D01*
X94266175Y-25861161D02*
X94383692Y-25861161D01*
X94383692Y-25861161D02*
X94757999Y-25486854D01*
X94580199Y-24857200D02*
X94580199Y-21123400D01*
%TO.N,Net-(U14-Y4)*%
X69147454Y-56055574D02*
X69120296Y-56082732D01*
X70206526Y-58343054D02*
X70206526Y-58625898D01*
X69147454Y-55647768D02*
X69147454Y-56055574D01*
X70107799Y-58244327D02*
X70206526Y-58343054D01*
X68557486Y-55057800D02*
X69147454Y-55647768D01*
X70107799Y-57534800D02*
X70107799Y-58244327D01*
X69120296Y-56082732D02*
X69120296Y-56159103D01*
X69120296Y-56159103D02*
X69053199Y-56226200D01*
X69053199Y-56480200D02*
X70107799Y-57534800D01*
X69053199Y-56226200D02*
X69053199Y-56480200D01*
X67884799Y-55057800D02*
X68557486Y-55057800D01*
D49*
%TO.N,BOTTOM_RAIL_POS*%
X69553774Y-53183800D02*
X69542597Y-53172624D01*
%TO.N,TOP_RAIL_NEG*%
X72101199Y-56226200D02*
X72101199Y-57902600D01*
%TO.N,BOTTOM_RAIL_POS*%
X69628895Y-53183800D02*
X69553774Y-53183800D01*
X64697425Y-55921400D02*
X55354199Y-55921400D01*
%TO.N,TOP_RAIL_NEG*%
X72101199Y-57902600D02*
X72418219Y-58219620D01*
X69397623Y-53522624D02*
X72101199Y-56226200D01*
X63566799Y-57547000D02*
X67591175Y-53522624D01*
%TO.N,BOTTOM_RAIL_POS*%
X72990199Y-57369200D02*
X72990199Y-56545104D01*
%TO.N,TOP_RAIL_NEG*%
X72418219Y-58219620D02*
X73777099Y-58219620D01*
%TO.N,BOTTOM_RAIL_POS*%
X69542597Y-53172624D02*
X67446200Y-53172624D01*
X67446200Y-53172624D02*
X64697425Y-55921400D01*
%TO.N,TOP_RAIL_NEG*%
X60213999Y-57547000D02*
X63566799Y-57547000D01*
X67591175Y-53522624D02*
X69397623Y-53522624D01*
%TO.N,BOTTOM_RAIL_POS*%
X72990199Y-56545104D02*
X69628895Y-53183800D01*
%TO.N,BOTTOM_RAIL_NEG*%
X92776799Y-32160026D02*
X92776799Y-27879800D01*
X96332799Y-27168600D02*
X97120199Y-26381200D01*
X92780599Y-32163826D02*
X92776799Y-32160026D01*
D48*
%TO.N,43*%
X73574399Y-25289000D02*
X72990199Y-24704800D01*
D49*
%TO.N,BOTTOM_RAIL_NEG*%
X94621417Y-27168600D02*
X96332799Y-27168600D01*
D48*
%TO.N,43*%
X72990199Y-24704800D02*
X72990199Y-21123400D01*
D49*
%TO.N,BOTTOM_RAIL_NEG*%
X95875599Y-53025800D02*
X97780647Y-51120752D01*
X94325417Y-26872600D02*
X94621417Y-27168600D01*
X97780647Y-37383264D02*
X92780599Y-32383216D01*
X92780599Y-32383216D02*
X92780599Y-32163826D01*
X97780647Y-51120752D02*
X97780647Y-37383264D01*
D48*
%TO.N,43*%
X73574399Y-25666113D02*
X73574399Y-25289000D01*
D49*
%TO.N,BOTTOM_RAIL_NEG*%
X93783999Y-26872600D02*
X94325417Y-26872600D01*
X92776799Y-27879800D02*
X93783999Y-26872600D01*
X97120199Y-26381200D02*
X97120199Y-21123400D01*
X95875599Y-56277000D02*
X95875599Y-53025800D01*
D48*
%TO.N,43*%
X73059466Y-26181046D02*
X73574399Y-25666113D01*
D49*
%TO.N,LED_GND*%
X52654599Y-35458800D02*
X52654599Y-33760900D01*
X56607199Y-34483800D02*
X55032399Y-36058600D01*
%TO.N,+18V*%
X55489599Y-32096200D02*
X55489599Y-33590900D01*
X52035199Y-29403800D02*
X52797199Y-29403800D01*
%TO.N,TOP_RAIL_NEG*%
X87137999Y-56988200D02*
X86545399Y-57580800D01*
X88712799Y-56988200D02*
X87137999Y-56988200D01*
X75759496Y-57987200D02*
X75319296Y-57547000D01*
X83618536Y-57987200D02*
X75759496Y-57987200D01*
X84024936Y-57580800D02*
X83618536Y-57987200D01*
%TO.N,+18V*%
X52797199Y-29403800D02*
X55489599Y-32096200D01*
%TO.N,TOP_RAIL_NEG*%
X74449719Y-57547000D02*
X73777099Y-58219620D01*
X86545399Y-57580800D02*
X84024936Y-57580800D01*
%TO.N,+18V*%
X55489599Y-33590900D02*
X54219599Y-34860900D01*
%TO.N,TOP_RAIL_NEG*%
X75319296Y-57547000D02*
X74449719Y-57547000D01*
%TO.N,LED_GND*%
X53254399Y-36058600D02*
X52654599Y-35458800D01*
X52654599Y-33760900D02*
X51679599Y-32785900D01*
X55032399Y-36058600D02*
X53254399Y-36058600D01*
D48*
%TO.N,41*%
X70450199Y-24755600D02*
X70450199Y-21123400D01*
X70900601Y-25206002D02*
X70450199Y-24755600D01*
%TO.N,40*%
X69662799Y-25611604D02*
X69662799Y-25187400D01*
X69662799Y-25187400D02*
X69180199Y-24704800D01*
X69180199Y-24704800D02*
X69180199Y-21123400D01*
X68993603Y-26280800D02*
X69662799Y-25611604D01*
%TO.N,41*%
X70900601Y-25614134D02*
X70900601Y-25206002D01*
%TO.N,59*%
X93760599Y-25651748D02*
X93760599Y-25206000D01*
%TO.N,41*%
X70293603Y-26221132D02*
X70900601Y-25614134D01*
%TO.N,59*%
X93760599Y-25206000D02*
X93310199Y-24755600D01*
X93183693Y-26228654D02*
X93760599Y-25651748D01*
X93310199Y-24755600D02*
X93310199Y-21123400D01*
%TO.N,48*%
X79721199Y-25390600D02*
X79340199Y-25009600D01*
X79263999Y-26406600D02*
X79721199Y-25949400D01*
X79340199Y-25009600D02*
X79340199Y-21123400D01*
%TO.N,49*%
X80610199Y-24857200D02*
X80610199Y-21123400D01*
X80889599Y-25136600D02*
X80610199Y-24857200D01*
X80410720Y-26016677D02*
X80889599Y-25537798D01*
X80889599Y-25537798D02*
X80889599Y-25136600D01*
%TO.N,48*%
X79721199Y-25949400D02*
X79721199Y-25390600D01*
D49*
%TO.N,LED_GND*%
X114564605Y-33061400D02*
X115179599Y-33061400D01*
X113924488Y-32421283D02*
X114564605Y-33061400D01*
D48*
%TO.N,10*%
X68538184Y-56655264D02*
X69207934Y-57325014D01*
X68538184Y-56140921D02*
X68538184Y-56655264D01*
X69207934Y-57325014D02*
X69207934Y-58870511D01*
X68647454Y-55748809D02*
X68647454Y-56031651D01*
X68647454Y-56031651D02*
X68538184Y-56140921D01*
%TO.N,/~{USB_BOOT}*%
X106782710Y-30653517D02*
X111237482Y-35108289D01*
D49*
%TO.N,BOTTOM_RAIL_NEG*%
X74612932Y-54748146D02*
X75591786Y-55727000D01*
X81238866Y-55727000D02*
X82262779Y-54703087D01*
X82871686Y-54703087D02*
X83378799Y-55210200D01*
%TO.N,BOTTOM_RAIL_POS*%
X75752637Y-56877800D02*
X75327781Y-56877800D01*
%TO.N,BOTTOM_RAIL_NEG*%
X72655145Y-54748146D02*
X74612932Y-54748146D01*
X72075799Y-54168800D02*
X72655145Y-54748146D01*
%TO.N,LED_GND*%
X109469716Y-27351517D02*
X109083599Y-26965400D01*
X109469716Y-27966511D02*
X109469716Y-27351517D01*
%TO.N,BOTTOM_RAIL_POS*%
X73619599Y-56739800D02*
X72990199Y-57369200D01*
X83474142Y-57636619D02*
X76511456Y-57636619D01*
X75189781Y-56739800D02*
X73619599Y-56739800D01*
X84122561Y-56988200D02*
X83474142Y-57636619D01*
X84953599Y-56988200D02*
X84122561Y-56988200D01*
X75327781Y-56877800D02*
X75189781Y-56739800D01*
X76511456Y-57636619D02*
X75752637Y-56877800D01*
%TO.N,BOTTOM_RAIL_NEG*%
X82262779Y-54703087D02*
X82871686Y-54703087D01*
X75591786Y-55727000D02*
X81238866Y-55727000D01*
%TD*%
M02*
