M48
; DRILL file KiCad 10.0.4 date 2026-07-15T15:05:28
; FORMAT={-:-/ absolute / metric / decimal}
; #@! TF.CreationDate,2026-07-15T15:05:28-07:00
; #@! TF.GenerationSoftware,Kicad,Pcbnew,10.0.4
; #@! TF.FileFunction,Plated,1,2,PTH
FMAT,2
METRIC
; #@! TA.AperFunction,Plated,PTH,ComponentDrill
T1C1.200
%
G90
G05
T1
X115.841Y-36.94
X115.842Y-31.86
X115.842Y-34.4
X115.842Y-42.02
X115.842Y-44.56
X115.842Y-47.1
X115.842Y-49.64
X115.842Y-52.18
X115.842Y-54.72
X115.842Y-57.29
X115.842Y-59.83
X115.842Y-62.37
X115.842Y-64.91
X115.842Y-67.45
X115.842Y-69.99
X115.842Y-75.04
X115.842Y-77.58
X115.842Y-80.12
X118.382Y-31.86
X118.382Y-34.4
X118.382Y-42.02
X118.382Y-44.56
X118.382Y-47.1
X118.382Y-49.64
X118.382Y-52.18
X118.382Y-54.72
X118.382Y-57.29
X118.382Y-59.83
X118.382Y-62.37
X118.382Y-64.91
X118.382Y-67.45
X118.382Y-69.99
X118.382Y-77.58
X118.382Y-80.12
X120.922Y-31.86
X120.922Y-34.4
X120.922Y-42.02
X120.922Y-44.56
X120.922Y-47.1
X120.922Y-49.64
X120.922Y-52.18
X120.922Y-54.72
X120.922Y-57.29
X120.922Y-59.83
X120.922Y-62.37
X120.922Y-64.91
X120.922Y-67.45
X120.922Y-69.99
X120.922Y-77.58
X120.922Y-80.12
X123.462Y-31.86
X123.462Y-34.4
X123.462Y-42.02
X123.462Y-44.56
X123.462Y-47.1
X123.462Y-49.64
X123.462Y-52.18
X123.462Y-54.72
X123.462Y-57.29
X123.462Y-59.83
X123.462Y-62.37
X123.462Y-64.91
X123.462Y-67.45
X123.462Y-69.99
X123.462Y-77.58
X123.462Y-80.12
X126.002Y-31.86
X126.002Y-34.4
X126.002Y-42.02
X126.002Y-44.56
X126.002Y-47.1
X126.002Y-49.64
X126.002Y-52.18
X126.002Y-54.72
X126.002Y-57.29
X126.002Y-59.83
X126.002Y-62.37
X126.002Y-64.91
X126.002Y-67.45
X126.002Y-69.99
X126.002Y-77.58
X126.002Y-80.12
X128.542Y-31.86
X128.542Y-34.4
X128.542Y-42.02
X128.542Y-44.56
X128.542Y-47.1
X128.542Y-49.64
X128.542Y-52.18
X128.542Y-54.72
X128.542Y-57.29
X128.542Y-59.83
X128.542Y-62.37
X128.542Y-64.91
X128.542Y-67.45
X128.542Y-69.99
X128.542Y-77.58
X128.542Y-80.12
X131.082Y-31.86
X131.082Y-34.4
X131.082Y-42.02
X131.082Y-44.56
X131.082Y-47.1
X131.082Y-49.64
X131.082Y-52.18
X131.082Y-54.72
X131.082Y-57.29
X131.082Y-59.83
X131.082Y-62.37
X131.082Y-64.91
X131.082Y-67.45
X131.082Y-69.99
X131.082Y-77.58
X131.082Y-80.12
X133.622Y-31.86
X133.622Y-34.4
X133.622Y-42.02
X133.622Y-44.56
X133.622Y-47.1
X133.622Y-49.64
X133.622Y-52.18
X133.622Y-54.72
X133.622Y-57.29
X133.622Y-59.83
X133.622Y-62.37
X133.622Y-64.91
X133.622Y-67.45
X133.622Y-69.99
X133.622Y-77.58
X133.622Y-80.12
X136.162Y-31.86
X136.162Y-34.4
X136.162Y-42.02
X136.162Y-44.56
X136.162Y-47.1
X136.162Y-49.64
X136.162Y-52.18
X136.162Y-54.72
X136.162Y-57.29
X136.162Y-59.83
X136.162Y-62.37
X136.162Y-64.91
X136.162Y-67.45
X136.162Y-69.99
X136.162Y-77.58
X136.162Y-80.12
X138.702Y-31.86
X138.702Y-34.4
X138.702Y-42.02
X138.702Y-44.56
X138.702Y-47.1
X138.702Y-49.64
X138.702Y-52.18
X138.702Y-54.72
X138.702Y-57.29
X138.702Y-59.83
X138.702Y-62.37
X138.702Y-64.91
X138.702Y-67.45
X138.702Y-69.99
X138.702Y-77.58
X138.702Y-80.12
X141.242Y-31.86
X141.242Y-34.4
X141.242Y-42.02
X141.242Y-44.56
X141.242Y-47.1
X141.242Y-49.64
X141.242Y-52.18
X141.242Y-54.72
X141.242Y-57.29
X141.242Y-59.83
X141.242Y-62.37
X141.242Y-64.91
X141.242Y-67.45
X141.242Y-69.99
X141.242Y-77.58
X141.242Y-80.12
X143.782Y-31.86
X143.782Y-34.4
X143.782Y-42.02
X143.782Y-44.56
X143.782Y-47.1
X143.782Y-49.64
X143.782Y-52.18
X143.782Y-54.72
X143.782Y-57.29
X143.782Y-59.83
X143.782Y-62.37
X143.782Y-64.91
X143.782Y-67.45
X143.782Y-69.99
X143.782Y-77.58
X143.782Y-80.12
X146.322Y-31.86
X146.322Y-34.4
X146.322Y-42.02
X146.322Y-44.56
X146.322Y-47.1
X146.322Y-49.64
X146.322Y-52.18
X146.322Y-54.72
X146.322Y-57.29
X146.322Y-59.83
X146.322Y-62.37
X146.322Y-64.91
X146.322Y-67.45
X146.322Y-69.99
X146.322Y-77.58
X146.322Y-80.12
X148.862Y-31.86
X148.862Y-34.4
X148.862Y-42.02
X148.862Y-44.56
X148.862Y-47.1
X148.862Y-49.64
X148.862Y-52.18
X148.862Y-54.72
X148.862Y-57.29
X148.862Y-59.83
X148.862Y-62.37
X148.862Y-64.91
X148.862Y-67.45
X148.862Y-69.99
X148.862Y-77.58
X148.862Y-80.12
X151.402Y-31.86
X151.402Y-34.4
X151.402Y-42.02
X151.402Y-44.56
X151.402Y-47.1
X151.402Y-49.64
X151.402Y-52.18
X151.402Y-54.72
X151.402Y-57.29
X151.402Y-59.83
X151.402Y-62.37
X151.402Y-64.91
X151.402Y-67.45
X151.402Y-69.99
X151.402Y-77.58
X151.402Y-80.12
X153.942Y-31.86
X153.942Y-34.4
X153.942Y-42.02
X153.942Y-44.56
X153.942Y-47.1
X153.942Y-49.64
X153.942Y-52.18
X153.942Y-54.72
X153.942Y-57.29
X153.942Y-59.83
X153.942Y-62.37
X153.942Y-64.91
X153.942Y-67.45
X153.942Y-69.99
X153.942Y-77.58
X153.942Y-80.12
X156.482Y-31.86
X156.482Y-34.4
X156.482Y-42.02
X156.482Y-44.56
X156.482Y-47.1
X156.482Y-49.64
X156.482Y-52.18
X156.482Y-54.72
X156.482Y-57.29
X156.482Y-59.83
X156.482Y-62.37
X156.482Y-64.91
X156.482Y-67.45
X156.482Y-69.99
X156.482Y-77.58
X156.482Y-80.12
X159.022Y-31.86
X159.022Y-34.4
X159.022Y-42.02
X159.022Y-44.56
X159.022Y-47.1
X159.022Y-49.64
X159.022Y-52.18
X159.022Y-54.72
X159.022Y-57.29
X159.022Y-59.83
X159.022Y-62.37
X159.022Y-64.91
X159.022Y-67.45
X159.022Y-69.99
X159.022Y-77.58
X159.022Y-80.12
X161.562Y-31.86
X161.562Y-34.4
X161.562Y-42.02
X161.562Y-44.56
X161.562Y-47.1
X161.562Y-49.64
X161.562Y-52.18
X161.562Y-54.72
X161.562Y-57.29
X161.562Y-59.83
X161.562Y-62.37
X161.562Y-64.91
X161.562Y-67.45
X161.562Y-69.99
X161.562Y-77.58
X161.562Y-80.12
X164.102Y-31.86
X164.102Y-34.4
X164.102Y-42.02
X164.102Y-44.56
X164.102Y-47.1
X164.102Y-49.64
X164.102Y-52.18
X164.102Y-54.72
X164.102Y-57.29
X164.102Y-59.83
X164.102Y-62.37
X164.102Y-64.91
X164.102Y-67.45
X164.102Y-69.99
X164.102Y-77.58
X164.102Y-80.12
X166.642Y-31.86
X166.642Y-34.4
X166.642Y-42.02
X166.642Y-44.56
X166.642Y-47.1
X166.642Y-49.64
X166.642Y-52.18
X166.642Y-54.72
X166.642Y-57.29
X166.642Y-59.83
X166.642Y-62.37
X166.642Y-64.91
X166.642Y-67.45
X166.642Y-69.99
X166.642Y-77.58
X166.642Y-80.12
X169.182Y-31.86
X169.182Y-34.4
X169.182Y-42.02
X169.182Y-44.56
X169.182Y-47.1
X169.182Y-49.64
X169.182Y-52.18
X169.182Y-54.72
X169.182Y-57.29
X169.182Y-59.83
X169.182Y-62.37
X169.182Y-64.91
X169.182Y-67.45
X169.182Y-69.99
X169.182Y-77.58
X169.182Y-80.12
X171.722Y-31.86
X171.722Y-34.4
X171.722Y-42.02
X171.722Y-44.56
X171.722Y-47.1
X171.722Y-49.64
X171.722Y-52.18
X171.722Y-54.72
X171.722Y-57.29
X171.722Y-59.83
X171.722Y-62.37
X171.722Y-64.91
X171.722Y-67.45
X171.722Y-69.99
X171.722Y-77.58
X171.722Y-80.12
X174.262Y-31.86
X174.262Y-34.4
X174.262Y-42.02
X174.262Y-44.56
X174.262Y-47.1
X174.262Y-49.64
X174.262Y-52.18
X174.262Y-54.72
X174.262Y-57.29
X174.262Y-59.83
X174.262Y-62.37
X174.262Y-64.91
X174.262Y-67.45
X174.262Y-69.99
X174.262Y-77.58
X174.262Y-80.12
X176.802Y-31.86
X176.802Y-34.4
X176.802Y-42.02
X176.802Y-44.56
X176.802Y-47.1
X176.802Y-49.64
X176.802Y-52.18
X176.802Y-54.72
X176.802Y-57.29
X176.802Y-59.83
X176.802Y-62.37
X176.802Y-64.91
X176.802Y-67.45
X176.802Y-69.99
X176.802Y-77.58
X176.802Y-80.12
X179.342Y-31.86
X179.342Y-34.4
X179.342Y-42.02
X179.342Y-44.56
X179.342Y-47.1
X179.342Y-49.64
X179.342Y-52.18
X179.342Y-54.72
X179.342Y-57.29
X179.342Y-59.83
X179.342Y-62.37
X179.342Y-64.91
X179.342Y-67.45
X179.342Y-69.99
X179.342Y-77.58
X179.342Y-80.12
X181.882Y-31.86
X181.882Y-34.4
X181.882Y-42.02
X181.882Y-44.56
X181.882Y-47.1
X181.882Y-49.64
X181.882Y-52.18
X181.882Y-54.72
X181.882Y-57.29
X181.882Y-59.83
X181.882Y-62.37
X181.882Y-64.91
X181.882Y-67.45
X181.882Y-69.99
X181.882Y-77.58
X181.882Y-80.12
X184.422Y-31.86
X184.422Y-34.4
X184.422Y-42.02
X184.422Y-44.56
X184.422Y-47.1
X184.422Y-49.64
X184.422Y-52.18
X184.422Y-54.72
X184.422Y-57.29
X184.422Y-59.83
X184.422Y-62.37
X184.422Y-64.91
X184.422Y-67.45
X184.422Y-69.99
X184.422Y-77.58
X184.422Y-80.12
X186.962Y-31.86
X186.962Y-34.4
X186.962Y-42.02
X186.962Y-44.56
X186.962Y-47.1
X186.962Y-49.64
X186.962Y-52.18
X186.962Y-54.72
X186.962Y-57.29
X186.962Y-59.83
X186.962Y-62.37
X186.962Y-64.91
X186.962Y-67.45
X186.962Y-69.99
X186.962Y-77.58
X186.962Y-80.12
X189.502Y-31.86
X189.502Y-34.4
X189.502Y-36.94
X189.502Y-42.02
X189.502Y-44.56
X189.502Y-47.1
X189.502Y-49.64
X189.502Y-52.18
X189.502Y-54.72
X189.502Y-57.29
X189.502Y-59.83
X189.502Y-62.37
X189.502Y-64.91
X189.502Y-67.45
X189.502Y-69.99
X189.502Y-77.58
X189.502Y-80.12
X189.503Y-75.04
M30
