%TF.GenerationSoftware,KiCad,Pcbnew,8.0.0*%
%TF.CreationDate,2024-02-28T09:47:00-08:00*%
%TF.ProjectId,SenseBarnacle,53656e73-6542-4617-926e-61636c652e6b,rev?*%
%TF.SameCoordinates,Original*%
%TF.FileFunction,Copper,L2,Inr*%
%TF.FilePolarity,Positive*%
%FSLAX46Y46*%
G04 Gerber Fmt 4.6, Leading zero omitted, Abs format (unit mm)*
G04 Created by KiCad (PCBNEW 8.0.0) date 2024-02-28 09:47:00*
%MOMM*%
%LPD*%
G01*
G04 APERTURE LIST*
G04 Aperture macros list*
%AMRoundRect*
0 Rectangle with rounded corners*
0 $1 Rounding radius*
0 $2 $3 $4 $5 $6 $7 $8 $9 X,Y pos of 4 corners*
0 Add a 4 corners polygon primitive as box body*
4,1,4,$2,$3,$4,$5,$6,$7,$8,$9,$2,$3,0*
0 Add four circle primitives for the rounded corners*
1,1,$1+$1,$2,$3*
1,1,$1+$1,$4,$5*
1,1,$1+$1,$6,$7*
1,1,$1+$1,$8,$9*
0 Add four rect primitives between the rounded corners*
20,1,$1+$1,$2,$3,$4,$5,0*
20,1,$1+$1,$4,$5,$6,$7,0*
20,1,$1+$1,$6,$7,$8,$9,0*
20,1,$1+$1,$8,$9,$2,$3,0*%
G04 Aperture macros list end*
%TA.AperFunction,ComponentPad*%
%ADD10RoundRect,0.225000X-0.525000X-0.525000X0.525000X-0.525000X0.525000X0.525000X-0.525000X0.525000X0*%
%TD*%
%TA.AperFunction,ComponentPad*%
%ADD11RoundRect,0.525000X-0.225000X-0.225000X0.225000X-0.225000X0.225000X0.225000X-0.225000X0.225000X0*%
%TD*%
%TA.AperFunction,ComponentPad*%
%ADD12RoundRect,0.525000X-0.225000X0.225000X-0.225000X-0.225000X0.225000X-0.225000X0.225000X0.225000X0*%
%TD*%
%TA.AperFunction,ComponentPad*%
%ADD13RoundRect,0.525000X0.225000X-0.225000X0.225000X0.225000X-0.225000X0.225000X-0.225000X-0.225000X0*%
%TD*%
%TA.AperFunction,ComponentPad*%
%ADD14C,1.500000*%
%TD*%
%TA.AperFunction,ComponentPad*%
%ADD15C,0.600000*%
%TD*%
%TA.AperFunction,ComponentPad*%
%ADD16O,1.300000X1.500000*%
%TD*%
%TA.AperFunction,ViaPad*%
%ADD17C,0.350000*%
%TD*%
%TA.AperFunction,Conductor*%
%ADD18C,0.200000*%
%TD*%
%TA.AperFunction,Conductor*%
%ADD19C,0.150000*%
%TD*%
G04 APERTURE END LIST*
D10*
%TO.N,I2C_SDA*%
%TO.C,J5*%
X58410599Y-30648400D03*
D11*
%TO.N,I2C_SCL*%
X58410599Y-33188400D03*
%TO.N,+3V3*%
X58410599Y-35728400D03*
%TO.N,LED_GND*%
X58410599Y-38268400D03*
%TD*%
D12*
%TO.N,LED_5V*%
%TO.C,J3*%
X38725599Y-26838400D03*
%TO.N,+3V3*%
X41265599Y-26838400D03*
%TO.N,LED_GND*%
X43805599Y-26838400D03*
%TO.N,-3.5V*%
X46345599Y-26838400D03*
%TO.N,+18V*%
X48885599Y-26838400D03*
%TD*%
D13*
%TO.N,Select_Probe*%
%TO.C,TP6*%
X35550599Y-46523400D03*
%TD*%
D14*
%TO.N,LED_5V*%
%TO.C,U5*%
X36795199Y-29403800D03*
%TO.N,LED_GND*%
X39335199Y-29403800D03*
%TO.N,-3.5V*%
X46955199Y-29403800D03*
%TO.N,LED_GND*%
X49495199Y-29403800D03*
%TO.N,+18V*%
X52035199Y-29403800D03*
%TD*%
D13*
%TO.N,Button_Probe*%
%TO.C,TP7*%
X35550599Y-43983400D03*
%TD*%
%TO.N,Voltage_Probe*%
%TO.C,TP13*%
X35550599Y-41483400D03*
%TD*%
D14*
%TO.N,LED_5V*%
%TO.C,U12*%
X36820599Y-38268400D03*
%TO.N,LED_GND*%
X39360599Y-38268400D03*
%TO.N,-3.5V*%
X46980599Y-38268400D03*
%TO.N,LED_GND*%
X49520599Y-38268400D03*
%TO.N,+18V*%
X52060599Y-38268400D03*
%TD*%
D15*
%TO.N,LED_GND*%
%TO.C,U9*%
X105390599Y-47158400D03*
X105390599Y-48433400D03*
X105390599Y-49708400D03*
X106665599Y-47158400D03*
X106665599Y-48433400D03*
X106665599Y-49708400D03*
X107940599Y-47158400D03*
X107940599Y-48433400D03*
X107940599Y-49708400D03*
%TD*%
D16*
%TO.N,/SWCLK*%
%TO.C,J2*%
X104130599Y-57318400D03*
%TO.N,LED_GND*%
X106670599Y-57318400D03*
%TO.N,/SWD*%
X109210599Y-57318400D03*
%TD*%
D17*
%TO.N,PDN*%
X98306015Y-31775400D03*
%TO.N,LRCK*%
X79992190Y-31856549D03*
%TO.N,SDOUT1*%
X81538390Y-32911280D03*
%TO.N,Net-(U13-Y1)*%
X60874399Y-38954200D03*
%TO.N,SDIN2*%
X80203363Y-30046125D03*
%TO.N,PDN*%
X101042444Y-48569199D03*
%TO.N,LED_GND*%
X70831199Y-30470600D03*
X73331294Y-42092800D03*
%TO.N,LED_5V*%
X81200948Y-34238022D03*
%TO.N,LED_GND*%
X105527599Y-34534600D03*
%TO.N,LED_5V*%
X55895999Y-59325000D03*
%TO.N,LED_GND*%
X98466399Y-52975000D03*
%TO.N,Net-(U2B-+)*%
X69908408Y-38454594D03*
%TO.N,LED_GND*%
X71542399Y-44085000D03*
X111111615Y-36939924D03*
X73145383Y-52304066D03*
X104976130Y-30630331D03*
%TO.N,Net-(U2B-+)*%
X78849732Y-38737889D03*
%TO.N,LED_GND*%
X45646485Y-56179322D03*
%TO.N,LED_5V*%
X56480199Y-24730200D03*
%TO.N,LED_GND*%
X47818799Y-35753800D03*
X73167999Y-37176200D03*
X109083599Y-26965400D03*
%TO.N,Net-(U13-Y2)*%
X60583012Y-39478696D03*
%TO.N,AOUT1R*%
X71679839Y-39924000D03*
%TO.N,TOP_RAIL_POS*%
X75565398Y-56195587D03*
%TO.N,+3V3*%
X47615599Y-32401000D03*
X102581199Y-43018200D03*
X98974399Y-43526200D03*
%TO.N,I2C_SCL*%
X111471199Y-40478200D03*
%TO.N,Net-(U2C-+)*%
X86833199Y-39817800D03*
%TO.N,+3V3*%
X89169999Y-27270200D03*
%TO.N,LED_GND*%
X54067199Y-59020200D03*
X68087999Y-55870600D03*
X53940199Y-24679400D03*
%TO.N,LED_5V*%
X41417999Y-33010600D03*
%TO.N,+3V3*%
X102022399Y-54041800D03*
%TO.N,Net-(U13-Y2)*%
X78096199Y-39488238D03*
%TO.N,SW_D*%
X111826799Y-48403000D03*
%TO.N,AOUT2L*%
X70983599Y-29505400D03*
%TO.N,Net-(U14-Y2)*%
X76421744Y-53807084D03*
%TO.N,-3.5V*%
X60096400Y-54863998D03*
%TO.N,+18V*%
X89322399Y-43018200D03*
%TO.N,AOUT1R*%
X71515799Y-30304054D03*
%TO.N,Y0_B*%
X85140794Y-34239200D03*
%TO.N,SDIN2*%
X98720399Y-49520600D03*
%TO.N,Net-(U2A--)*%
X71167792Y-34799205D03*
%TO.N,CAD{slash}CSN*%
X73095943Y-27439763D03*
%TO.N,SDIN2*%
X96661503Y-29154588D03*
%TO.N,Net-(U4-Center)*%
X42281599Y-46515400D03*
%TO.N,/QSPI_SCLK*%
X104689635Y-41225855D03*
%TO.N,Y0_A*%
X80584799Y-35703000D03*
%TO.N,Net-(U14-Y1)*%
X76419199Y-54489409D03*
%TO.N,CS_A*%
X108626399Y-53686200D03*
%TO.N,CAD{slash}CSN*%
X97958399Y-30877000D03*
%TO.N,/QSPI_SD0*%
X104105199Y-41240200D03*
%TO.N,Y0_B*%
X69459599Y-43881800D03*
%TO.N,Y3_B*%
X72964799Y-44085000D03*
%TO.N,DATA*%
X78729021Y-43855478D03*
X63160399Y-42256200D03*
%TO.N,CS_B*%
X108727999Y-54346600D03*
%TO.N,/QSPI_SD0*%
X98844534Y-29911802D03*
%TO.N,/QSPI_SD2*%
X100370339Y-30639057D03*
%TO.N,/QSPI_SD3*%
X105289423Y-41224606D03*
%TO.N,CS_B*%
X73353120Y-55670587D03*
%TO.N,/QSPI_SCLK*%
X99075999Y-29151526D03*
%TO.N,ADC_0*%
X70881999Y-33815400D03*
%TO.N,CAD{slash}CSN*%
X101445827Y-48125031D03*
%TO.N,Y3_B*%
X86629999Y-43932600D03*
%TO.N,CLK*%
X94852999Y-46342327D03*
%TO.N,RESET*%
X112353160Y-46424834D03*
%TO.N,CS_C*%
X109997999Y-54753000D03*
%TO.N,CS_A*%
X57877199Y-55176400D03*
%TO.N,RESET*%
X59148440Y-43059573D03*
%TO.N,CS_C*%
X88591431Y-54174432D03*
%TO.N,CLK*%
X64785999Y-43983400D03*
%TO.N,/QSPI_SD2*%
X103484008Y-41209408D03*
%TO.N,RESET*%
X72415596Y-44085000D03*
%TO.N,DATA*%
X92776799Y-43526200D03*
%TO.N,CLK*%
X80584799Y-44796200D03*
%TO.N,RESET*%
X88712799Y-43983400D03*
%TO.N,Net-(U2D--)*%
X79548372Y-33711026D03*
%TO.N,Net-(U4-A)*%
X39614599Y-51984400D03*
%TO.N,/QSPI_SS*%
X99176785Y-30762919D03*
X102225599Y-41240200D03*
%TO.N,Net-(U14-Y4)*%
X67884799Y-55057800D03*
X70206526Y-58625898D03*
%TO.N,/QSPI_SS*%
X113146167Y-40070368D03*
%TO.N,/XOUT*%
X106340599Y-53279800D03*
%TO.N,Net-(JP5-C)*%
X88791853Y-33620766D03*
%TO.N,Net-(JP4-C)*%
X88064892Y-33771723D03*
%TO.N,ADC_0_RP*%
X96449399Y-43091589D03*
%TO.N,AOUT2L*%
X102835199Y-29353000D03*
%TO.N,ADC_0_RP*%
X112145930Y-44236661D03*
%TO.N,Y0_C*%
X85156799Y-38395400D03*
%TO.N,Y3_A*%
X58435999Y-42561000D03*
%TO.N,SDOUT1*%
X98722445Y-51144154D03*
%TO.N,SDIN1*%
X96390999Y-29962600D03*
X98780101Y-48923575D03*
%TO.N,Net-(U2C--)*%
X84994631Y-30664032D03*
%TO.N,Y0_C*%
X84394799Y-43170600D03*
%TO.N,Net-(U2B--)*%
X72759200Y-35487000D03*
%TO.N,Net-(U9-GPIO0)*%
X99998599Y-41525655D03*
%TO.N,Net-(U15-Y4)*%
X67966033Y-44249600D03*
%TO.N,Net-(U9-GPIO0)*%
X45481999Y-42103800D03*
%TO.N,TOP_RAIL_POS*%
X60012514Y-54131519D03*
%TO.N,30*%
X72623825Y-51485920D03*
%TO.N,I2C_SCL*%
X96383599Y-41951400D03*
X112080799Y-50638200D03*
X91830399Y-43918716D03*
%TO.N,TOP_RAIL_POS*%
X96180399Y-57293000D03*
X95985999Y-26203400D03*
%TO.N,Net-(U2A-+)*%
X79144338Y-34987889D03*
%TO.N,-3.5V*%
X64430399Y-55464200D03*
%TO.N,+1V1*%
X106492799Y-43221400D03*
%TO.N,+18V*%
X52390799Y-41748200D03*
X78231294Y-43520410D03*
%TO.N,/XIN*%
X105744263Y-53213569D03*
%TO.N,+18V*%
X61296220Y-42276119D03*
%TO.N,Net-(U13-Y1)*%
X60706000Y-32359600D03*
%TO.N,AOUT1L*%
X72039145Y-32670346D03*
%TO.N,30*%
X94396240Y-58461400D03*
%TO.N,+3V3*%
X83763390Y-33625000D03*
X60655200Y-35052000D03*
%TO.N,Net-(U1C--)*%
X86424038Y-41528000D03*
%TO.N,SDOUT1*%
X96340199Y-32719892D03*
%TO.N,LED_OUT*%
X54219599Y-28743400D03*
X54879999Y-59528200D03*
%TO.N,7*%
X71792847Y-49264671D03*
X65649599Y-58461400D03*
X65395599Y-25568400D03*
X57004251Y-48716824D03*
%TO.N,26*%
X83642917Y-52420082D03*
X89525599Y-25543000D03*
X89097701Y-59807400D03*
%TO.N,43*%
X92431064Y-49572013D03*
X72507599Y-59350400D03*
X74588107Y-50149008D03*
X73059466Y-26181046D03*
%TO.N,27*%
X91021557Y-48002017D03*
X90795599Y-25543000D03*
X91384399Y-58430844D03*
X71217313Y-47970612D03*
%TO.N,ADC_3_RP*%
X93293399Y-43373800D03*
%TO.N,18*%
X77919196Y-46704200D03*
X63727329Y-46922773D03*
%TO.N,56*%
X90337200Y-59674809D03*
X86477599Y-47793400D03*
%TO.N,2*%
X59909199Y-49860200D03*
X59045599Y-25441400D03*
X58576218Y-58797114D03*
%TO.N,21*%
X82168907Y-48138243D03*
X83175599Y-25568400D03*
X83026245Y-58630460D03*
%TO.N,36*%
X64216893Y-43975400D03*
X64333281Y-58542082D03*
X64074799Y-26355800D03*
X68261956Y-45241649D03*
%TO.N,14*%
X64523900Y-53339349D03*
X74506884Y-48049294D03*
X74285595Y-25568408D03*
X74107997Y-53828417D03*
X74620387Y-58825903D03*
%TO.N,54*%
X95754953Y-58272691D03*
%TO.N,I2C_SDA*%
X111742261Y-39482307D03*
%TO.N,BOTTOM_RAIL_POS*%
X72962676Y-57549116D03*
%TO.N,54*%
X86934799Y-26254200D03*
X86350599Y-59604400D03*
X95233693Y-26213243D03*
X94724153Y-53971600D03*
%TO.N,55*%
X88154000Y-26203401D03*
X83675188Y-48151136D03*
X87620599Y-59604400D03*
%TO.N,I2C_SDA*%
X112588799Y-51298600D03*
X82718399Y-26965400D03*
%TO.N,LED_DATA_IN*%
X50380776Y-44293775D03*
X111910131Y-46829468D03*
X48224609Y-57421457D03*
%TO.N,34*%
X62185688Y-54329600D03*
X61839599Y-58461400D03*
X80427602Y-53948242D03*
X61483999Y-26305000D03*
%TO.N,29*%
X72664211Y-50485920D03*
X92574682Y-50154574D03*
X93483888Y-58775200D03*
X93211419Y-25493820D03*
%TO.N,8*%
X56910684Y-49309486D03*
%TO.N,28*%
X92384399Y-58444705D03*
X92065599Y-25492200D03*
X91701660Y-48887202D03*
X70741841Y-49427486D03*
%TO.N,37*%
X82449176Y-55153087D03*
X65014607Y-59223400D03*
X65395599Y-26305000D03*
X65685653Y-57735454D03*
X80742006Y-46417886D03*
%TO.N,10*%
X69080847Y-25486448D03*
%TO.N,18*%
X79017999Y-58848390D03*
X79238599Y-25568400D03*
%TO.N,24*%
X86822545Y-59063000D03*
X82859042Y-50610616D03*
X86985599Y-25543000D03*
%TO.N,13*%
X73596983Y-53052443D03*
%TO.N,41*%
X94499954Y-48428400D03*
%TO.N,9*%
X72075313Y-50211464D03*
X67935599Y-25568400D03*
X57031656Y-49897167D03*
X68207934Y-59006014D03*
X66584799Y-55343382D03*
%TO.N,LED_DATA_IN*%
X55286399Y-25390600D03*
%TO.N,13*%
X72959237Y-58853777D03*
X64595599Y-52797425D03*
X73040999Y-25593800D03*
X73533012Y-47556218D03*
%TO.N,42*%
X71745599Y-26305000D03*
%TO.N,39*%
X67833999Y-26355800D03*
%TO.N,3*%
X59842693Y-58853175D03*
X60315599Y-25441400D03*
X60167025Y-50772021D03*
%TO.N,51*%
X83301180Y-26235567D03*
X79700399Y-47891299D03*
X82667599Y-59604400D03*
%TO.N,46*%
X75850263Y-54080849D03*
X94643599Y-52365400D03*
%TO.N,60*%
X94129736Y-25997600D03*
X95113599Y-59096400D03*
X94081342Y-46844457D03*
%TO.N,25*%
X88317188Y-59607400D03*
%TO.N,BOTTOM_RAIL_NEG*%
X71556548Y-52757651D03*
X83378799Y-55210200D03*
X56353199Y-53432200D03*
%TO.N,59*%
X92278038Y-46261400D03*
X93183693Y-26228654D03*
X93791562Y-59290312D03*
%TO.N,4*%
X61585599Y-25568400D03*
%TO.N,15*%
X75709993Y-58917475D03*
X56353199Y-47742600D03*
X75493480Y-47197411D03*
%TO.N,35*%
X68924400Y-45314029D03*
X62703199Y-26406600D03*
X62660399Y-43975400D03*
X63236599Y-58461400D03*
%TO.N,1*%
X59147199Y-48453800D03*
%TO.N,BOTTOM_RAIL_POS*%
X55354199Y-55921400D03*
%TO.N,51*%
X83556599Y-55827800D03*
X86720722Y-53717773D03*
%TO.N,SW_D*%
X49593548Y-51650949D03*
%TO.N,1*%
X57351021Y-58850288D03*
X57648599Y-25441400D03*
%TO.N,12*%
X72096619Y-58685420D03*
X56632599Y-52365400D03*
X72651740Y-52687399D03*
X68865265Y-54047624D03*
X71745599Y-25568400D03*
%TO.N,33*%
X60706457Y-54004575D03*
X80007999Y-52986166D03*
X60569599Y-58522000D03*
X60264799Y-26152600D03*
%TO.N,39*%
X80274257Y-47716113D03*
X82119475Y-56836619D03*
X67149692Y-57931301D03*
X67756237Y-59400949D03*
%TO.N,TOP_RAIL_NEG*%
X96535999Y-25390600D03*
X60213999Y-57547000D03*
X97247199Y-56531000D03*
X89873473Y-57837510D03*
X73777099Y-58219620D03*
%TO.N,53*%
X97383739Y-52758036D03*
X92154597Y-53094936D03*
X85080599Y-59604400D03*
X96663186Y-27854588D03*
X85500787Y-55633815D03*
X85664799Y-26203400D03*
%TO.N,47*%
X88671736Y-57592467D03*
X78095599Y-26254200D03*
X77587599Y-59350400D03*
X87308808Y-48047083D03*
%TO.N,6*%
X63625599Y-58969400D03*
X64125599Y-25568400D03*
X63625599Y-52936635D03*
%TO.N,31*%
X57673999Y-26203400D03*
X58042499Y-58461400D03*
X58283599Y-51349400D03*
X68595999Y-49977800D03*
%TO.N,23*%
X85715599Y-25543000D03*
X83240192Y-49005200D03*
X85834599Y-59088400D03*
%TO.N,38*%
X80160399Y-46565319D03*
X82063113Y-56067278D03*
X66618756Y-57449357D03*
X66165599Y-59223400D03*
X66614799Y-26305000D03*
%TO.N,50*%
X81749906Y-25964638D03*
X79519199Y-54278658D03*
X86721028Y-53010971D03*
X81397599Y-59604400D03*
%TO.N,40*%
X67559876Y-57407296D03*
X68993603Y-26280800D03*
X75758799Y-52271200D03*
X68782845Y-58447069D03*
X75102099Y-58111155D03*
%TO.N,49*%
X80410720Y-26016677D03*
X90135041Y-58321333D03*
X80127599Y-59604400D03*
X89057745Y-48388254D03*
%TO.N,5*%
X62510599Y-51745065D03*
X62403120Y-58997989D03*
X62855599Y-25568400D03*
%TO.N,57*%
X90652277Y-47526465D03*
X91365690Y-59156661D03*
X90744799Y-26203400D03*
%TO.N,16*%
X76360399Y-47915157D03*
X56403999Y-48301400D03*
X76825599Y-25568400D03*
X76709993Y-58826122D03*
%TO.N,17*%
X67818493Y-47238719D03*
X77020759Y-47004200D03*
X78095599Y-25568400D03*
X78087599Y-58842400D03*
%TO.N,32*%
X59299599Y-53127400D03*
X58994799Y-26254200D03*
X59299599Y-58334400D03*
X68214947Y-51958800D03*
%TO.N,22*%
X84498632Y-59218000D03*
X82249749Y-48714624D03*
X84445599Y-25568400D03*
%TO.N,56*%
X89525599Y-26152600D03*
%TO.N,8*%
X67207934Y-59008107D03*
X65641599Y-56480200D03*
X71228931Y-48970612D03*
X66521199Y-25568400D03*
%TO.N,58*%
X92260283Y-47993896D03*
X92573599Y-59223400D03*
X92014799Y-26254202D03*
%TO.N,SW_D*%
X55647643Y-39487999D03*
%TO.N,30*%
X94343599Y-51034200D03*
%TO.N,11*%
X70301887Y-25505741D03*
X56886599Y-51603400D03*
X69545296Y-56258773D03*
X71668387Y-51725142D03*
X70919842Y-58927600D03*
%TO.N,41*%
X70140363Y-59484504D03*
X72801501Y-48973806D03*
X70293603Y-26221132D03*
X71024949Y-26904000D03*
%TO.N,52*%
X84557034Y-26144641D03*
X97824761Y-27481804D03*
X84242399Y-58105800D03*
X97805999Y-57547000D03*
%TO.N,20*%
X61196599Y-46523400D03*
X81781071Y-25365445D03*
X81778599Y-58961400D03*
X78806799Y-48199800D03*
%TO.N,25*%
X88204799Y-25543000D03*
X83320627Y-51940139D03*
%TO.N,10*%
X56886599Y-50714400D03*
X68647454Y-55748809D03*
X69207934Y-58870511D03*
X71676742Y-50659955D03*
%TO.N,44*%
X73777599Y-59350400D03*
X74822672Y-51461861D03*
X94424954Y-50439739D03*
X74336399Y-26254200D03*
%TO.N,46*%
X76190599Y-59477400D03*
X76825599Y-26203400D03*
%TO.N,19*%
X78427357Y-47819399D03*
X80627599Y-58961400D03*
%TO.N,15*%
X75555599Y-25568418D03*
%TO.N,48*%
X89313472Y-58127113D03*
%TO.N,BOTTOM_RAIL_POS*%
X84818199Y-56582400D03*
%TO.N,42*%
X94499954Y-49190400D03*
X73617494Y-49600760D03*
X71245599Y-59350400D03*
%TO.N,45*%
X74920599Y-59350400D03*
X75344799Y-53179621D03*
X92154597Y-51807773D03*
X75555599Y-26305000D03*
%TO.N,BOTTOM_RAIL_POS*%
X87636502Y-55048303D03*
%TO.N,4*%
X61133120Y-58813812D03*
X61585599Y-50976400D03*
%TO.N,19*%
X62791999Y-46469721D03*
X80410720Y-25309570D03*
%TO.N,LED_GND*%
X88306399Y-50638200D03*
X115179599Y-33061400D03*
%TO.N,30*%
X94253038Y-25284708D03*
%TO.N,/QSPI_SD1*%
X102884339Y-41240196D03*
%TO.N,ADC_2*%
X80533999Y-38954200D03*
%TO.N,MCK*%
X80495750Y-33349200D03*
%TO.N,ADC_1*%
X89644892Y-37940773D03*
%TO.N,BICK*%
X99278375Y-33769892D03*
%TO.N,SDIN1*%
X80733674Y-30266833D03*
%TO.N,LRCK*%
X100853999Y-50181000D03*
%TO.N,AOUT2L*%
X72491600Y-42672000D03*
%TO.N,Net-(U15-Y4)*%
X84851999Y-44999400D03*
%TO.N,Net-(U4-D)*%
X43302124Y-51251834D03*
%TO.N,/QSPI_SD1*%
X99774075Y-30705929D03*
%TO.N,Button_Probe*%
X50511199Y-43069000D03*
%TO.N,ADC_2*%
X79060799Y-33518600D03*
%TO.N,Select_Probe*%
X49834800Y-46024800D03*
%TO.N,ADC_2*%
X89322399Y-38903400D03*
%TO.N,Net-(U4-B)*%
X42154599Y-52746400D03*
%TO.N,AOUT2R*%
X73595943Y-28805014D03*
%TO.N,Y3_B*%
X86135771Y-32793629D03*
%TO.N,ADC_2_RP*%
X111506579Y-44866726D03*
%TO.N,ADC_1*%
X69510399Y-40173400D03*
%TO.N,Voltage_Probe*%
X81724408Y-42017023D03*
%TO.N,ADC_1*%
X68978324Y-33813319D03*
%TO.N,Y3_A*%
X57521599Y-28591000D03*
%TO.N,Y3_C*%
X92099444Y-33854843D03*
%TO.N,BICK*%
X80153262Y-32856549D03*
%TO.N,Net-(U14-Y2)*%
X75291572Y-52511081D03*
%TO.N,GPI0_2*%
X99753399Y-46758311D03*
%TO.N,Y3_C*%
X91830399Y-43323000D03*
%TO.N,Y0_A*%
X58123199Y-43577000D03*
%TO.N,LRCK*%
X98974399Y-32451800D03*
%TO.N,Net-(U9-GPIO1)*%
X100096954Y-40398193D03*
%TO.N,SDOUT2*%
X80889599Y-31232600D03*
%TO.N,BICK*%
X100396799Y-49520600D03*
%TO.N,SDOUT2*%
X98771199Y-50485800D03*
%TO.N,ADC_1_RP*%
X111546750Y-44268070D03*
%TO.N,Net-(U9-GPIO1)*%
X46888400Y-40538400D03*
%TO.N,ADC_1_RP*%
X96449399Y-44072711D03*
%TO.N,/QSPI_SD3*%
X98194547Y-28454600D03*
%TO.N,Y3_A*%
X84553245Y-27322954D03*
%TO.N,Y0_B*%
X69002399Y-33213800D03*
%TO.N,PDN*%
X71964431Y-28778568D03*
%TO.N,Net-(JP3-C)*%
X87493599Y-33772600D03*
%TO.N,MCK*%
X99180249Y-34529065D03*
%TO.N,Net-(U4-C)*%
X41138599Y-50587400D03*
%TO.N,AOUT2R*%
X105970915Y-26203400D03*
%TO.N,AOUT1L*%
X72735531Y-42214800D03*
%TO.N,ADC_2_RP*%
X94593399Y-43620062D03*
%TO.N,Y0_A*%
X56759599Y-33975800D03*
%TO.N,MCK*%
X99807999Y-48691569D03*
%TO.N,SDOUT2*%
X96306770Y-31312015D03*
%TO.N,Y0_A*%
X82258368Y-27232227D03*
%TO.N,GPI0_2*%
X115687606Y-55057814D03*
%TO.N,ADC_0*%
X89506096Y-35350483D03*
%TO.N,Net-(U1B--)*%
X85105999Y-39793600D03*
%TO.N,SW_A*%
X98974399Y-47437800D03*
X56212428Y-40337429D03*
%TO.N,+3V3*%
X87493599Y-27151598D03*
X94097599Y-27422600D03*
%TO.N,SW_A*%
X99945599Y-38751000D03*
%TO.N,SW_PUSH*%
X54879999Y-37430200D03*
X111928399Y-54397400D03*
X49923999Y-46879000D03*
X104968799Y-36668200D03*
%TO.N,SW_C*%
X105375199Y-37277800D03*
X48793446Y-53766500D03*
X111582567Y-49123968D03*
X55127416Y-38534093D03*
%TO.N,Net-(U6-AVDRV)*%
X79658573Y-31328034D03*
X68646799Y-27829000D03*
%TO.N,SW_B*%
X48971200Y-54956198D03*
X99607584Y-38036139D03*
X56373465Y-39819055D03*
X98382986Y-47895286D03*
%TO.N,Net-(U2D-+)*%
X78296599Y-41538238D03*
%TO.N,SW_A*%
X46583600Y-55778400D03*
%TO.N,+3V3*%
X89627199Y-34687000D03*
%TO.N,Net-(U1D--)*%
X88255599Y-40173400D03*
%TO.N,I2C_SDA*%
X95832799Y-38954200D03*
%TO.N,LED_GND*%
X71085199Y-57801000D03*
%TO.N,+1V1*%
X111623599Y-43221400D03*
%TO.N,LED_GND*%
X54304199Y-56896457D03*
X49749199Y-56896457D03*
%TO.N,+1V1*%
X107254799Y-53991000D03*
%TO.N,+3V3*%
X112537999Y-43373800D03*
X99228399Y-36312600D03*
X111318799Y-42611800D03*
%TO.N,LED_GND*%
X75367431Y-31604431D03*
%TO.N,ADC_3_RP*%
X110957984Y-45004699D03*
%TO.N,ADC_3*%
X78305009Y-42851661D03*
X77771227Y-33993257D03*
X88407999Y-42510200D03*
%TO.N,Net-(JP2-C)*%
X86825199Y-33721800D03*
%TO.N,Net-(U14-Y1)*%
X74053519Y-52665691D03*
%TO.N,Net-(U1A--)*%
X80290891Y-40027799D03*
%TO.N,SW_D*%
X105933999Y-37735000D03*
%TO.N,48*%
X78857599Y-59477400D03*
X88425653Y-48344454D03*
X79263999Y-26406600D03*
%TD*%
D18*
%TO.N,+18V*%
X77780009Y-42815172D02*
X77759761Y-42835420D01*
%TO.N,Net-(U9-GPIO1)*%
X53841721Y-41104600D02*
X53079721Y-40342600D01*
D19*
%TO.N,ADC_3*%
X83428402Y-43021817D02*
X78475165Y-43021817D01*
%TO.N,Net-(U13-Y2)*%
X72728193Y-39209600D02*
X77817561Y-39209600D01*
%TO.N,DATA*%
X89808515Y-44418716D02*
X88865199Y-43475400D01*
D18*
%TO.N,Net-(U9-GPIO0)*%
X56577762Y-41454600D02*
X56984164Y-41048198D01*
D19*
%TO.N,ADC_1*%
X69510399Y-40173400D02*
X69710197Y-40373198D01*
D18*
%TO.N,Voltage_Probe*%
X57637136Y-41449000D02*
X72213093Y-41449000D01*
D19*
%TO.N,Net-(U13-Y2)*%
X60648908Y-39412800D02*
X72524993Y-39412800D01*
D18*
%TO.N,+18V*%
X77759761Y-43048877D02*
X78231294Y-43520410D01*
%TO.N,Voltage_Probe*%
X72213093Y-41449000D02*
X72648855Y-41013238D01*
D19*
%TO.N,DATA*%
X78473428Y-43855478D02*
X78729021Y-43855478D01*
X77309556Y-43650464D02*
X77786892Y-44127800D01*
%TO.N,ADC_1*%
X89466240Y-39360600D02*
X89779599Y-39047241D01*
%TO.N,ADC_3*%
X78475165Y-43021817D02*
X78305009Y-42851661D01*
D18*
%TO.N,Net-(U9-GPIO0)*%
X79122998Y-41127200D02*
X86082375Y-41127200D01*
X99600144Y-41127200D02*
X99998599Y-41525655D01*
X50711607Y-42103800D02*
X52122807Y-40692600D01*
%TO.N,Voltage_Probe*%
X50743781Y-42566600D02*
X52267781Y-41042600D01*
D19*
%TO.N,ADC_1*%
X87237399Y-40328000D02*
X88204799Y-39360600D01*
%TO.N,DATA*%
X88865199Y-43475400D02*
X84797106Y-43475400D01*
%TO.N,ADC_1*%
X88204799Y-39360600D02*
X89466240Y-39360600D01*
D18*
%TO.N,Net-(U9-GPIO0)*%
X86641501Y-41003000D02*
X86765701Y-41127200D01*
D19*
%TO.N,DATA*%
X72454064Y-43650464D02*
X77309556Y-43650464D01*
D18*
%TO.N,Net-(U9-GPIO1)*%
X47084200Y-40342600D02*
X46888400Y-40538400D01*
%TO.N,Net-(U9-GPIO0)*%
X78659036Y-40663238D02*
X79122998Y-41127200D01*
%TO.N,+18V*%
X72518068Y-41639000D02*
X76349884Y-41639000D01*
X78522472Y-42326661D02*
X78087546Y-42326661D01*
%TO.N,Net-(U9-GPIO0)*%
X52934747Y-40692600D02*
X53696747Y-41454600D01*
D19*
%TO.N,ADC_1*%
X79402591Y-40452199D02*
X85802781Y-40452199D01*
%TO.N,DATA*%
X78951899Y-43632600D02*
X78729021Y-43855478D01*
X63160399Y-42256200D02*
X71059800Y-42256200D01*
D18*
%TO.N,Voltage_Probe*%
X72648855Y-41013238D02*
X78458700Y-41013238D01*
D19*
%TO.N,DATA*%
X92776799Y-43679423D02*
X92037506Y-44418716D01*
D18*
%TO.N,Net-(U9-GPIO1)*%
X86061600Y-40653000D02*
X85937400Y-40777200D01*
D19*
%TO.N,ADC_1*%
X85926982Y-40328000D02*
X87237399Y-40328000D01*
D18*
%TO.N,Net-(U9-GPIO0)*%
X72118921Y-41048198D02*
X72503881Y-40663238D01*
%TO.N,Net-(U9-GPIO1)*%
X79267972Y-40777200D02*
X78804010Y-40313238D01*
%TO.N,Voltage_Probe*%
X52267781Y-41042600D02*
X52789773Y-41042600D01*
%TO.N,Net-(U9-GPIO1)*%
X78804010Y-40313238D02*
X72358907Y-40313238D01*
%TO.N,+18V*%
X72358068Y-41799000D02*
X72518068Y-41639000D01*
D19*
%TO.N,ADC_1*%
X69710197Y-40373198D02*
X71836459Y-40373198D01*
D18*
%TO.N,Net-(U9-GPIO0)*%
X52122807Y-40692600D02*
X52934747Y-40692600D01*
D19*
%TO.N,Net-(U13-Y2)*%
X77817561Y-39209600D02*
X78096199Y-39488238D01*
D18*
%TO.N,Net-(U9-GPIO1)*%
X53079721Y-40342600D02*
X47084200Y-40342600D01*
%TO.N,Net-(U9-GPIO0)*%
X86765701Y-41127200D02*
X99600144Y-41127200D01*
%TO.N,Net-(U9-GPIO1)*%
X99842147Y-40653000D02*
X86061600Y-40653000D01*
%TO.N,+18V*%
X83937599Y-42053000D02*
X83523576Y-42467023D01*
%TO.N,Net-(U9-GPIO1)*%
X71973947Y-40698198D02*
X56839189Y-40698198D01*
D19*
%TO.N,DATA*%
X84639906Y-43632600D02*
X78951899Y-43632600D01*
D18*
%TO.N,Net-(U9-GPIO1)*%
X72358907Y-40313238D02*
X71973947Y-40698198D01*
D19*
%TO.N,DATA*%
X78201106Y-44127800D02*
X78473428Y-43855478D01*
D18*
%TO.N,+18V*%
X76349884Y-41639000D02*
X78231294Y-43520410D01*
D19*
%TO.N,DATA*%
X71059800Y-42256200D02*
X72454064Y-43650464D01*
D18*
%TO.N,Voltage_Probe*%
X52789773Y-41042600D02*
X53551773Y-41804600D01*
D19*
%TO.N,ADC_3*%
X83940019Y-42510200D02*
X83428402Y-43021817D01*
D18*
%TO.N,Net-(U9-GPIO0)*%
X86082375Y-41127200D02*
X86206575Y-41003000D01*
%TO.N,Voltage_Probe*%
X36633799Y-42566600D02*
X50743781Y-42566600D01*
%TO.N,+18V*%
X89119199Y-42053000D02*
X83937599Y-42053000D01*
X61296220Y-42276119D02*
X61773339Y-41799000D01*
D19*
%TO.N,ADC_3*%
X88407999Y-42510200D02*
X83940019Y-42510200D01*
D18*
%TO.N,Net-(U9-GPIO1)*%
X85937400Y-40777200D02*
X79267972Y-40777200D01*
D19*
%TO.N,DATA*%
X92037506Y-44418716D02*
X89808515Y-44418716D01*
D18*
%TO.N,+18V*%
X78087546Y-42326661D02*
X77780009Y-42634198D01*
D19*
%TO.N,Net-(U13-Y2)*%
X72524993Y-39412800D02*
X72728193Y-39209600D01*
%TO.N,ADC_1*%
X71836459Y-40373198D02*
X72221419Y-39988238D01*
%TO.N,DATA*%
X92776799Y-43526200D02*
X92776799Y-43679423D01*
D18*
%TO.N,+18V*%
X77780009Y-42634198D02*
X77780009Y-42815172D01*
X89322399Y-43018200D02*
X89322399Y-42256200D01*
X89322399Y-42256200D02*
X89119199Y-42053000D01*
D19*
%TO.N,DATA*%
X77786892Y-44127800D02*
X78201106Y-44127800D01*
D18*
%TO.N,+18V*%
X83523576Y-42467023D02*
X78662834Y-42467023D01*
D19*
%TO.N,ADC_1*%
X72221419Y-39988238D02*
X78938630Y-39988238D01*
%TO.N,DATA*%
X84797106Y-43475400D02*
X84639906Y-43632600D01*
D18*
%TO.N,+18V*%
X78662834Y-42467023D02*
X78522472Y-42326661D01*
X77759761Y-42835420D02*
X77759761Y-43048877D01*
%TO.N,Net-(U9-GPIO0)*%
X45481999Y-42103800D02*
X50711607Y-42103800D01*
D19*
%TO.N,ADC_1*%
X85802781Y-40452199D02*
X85926982Y-40328000D01*
D18*
%TO.N,Net-(U9-GPIO1)*%
X100096954Y-40398193D02*
X99842147Y-40653000D01*
%TO.N,Net-(U9-GPIO0)*%
X72503881Y-40663238D02*
X78659036Y-40663238D01*
%TO.N,Voltage_Probe*%
X35550599Y-41483400D02*
X36633799Y-42566600D01*
X79462485Y-42017023D02*
X81724408Y-42017023D01*
X53551773Y-41804600D02*
X57281536Y-41804600D01*
%TO.N,Net-(U9-GPIO0)*%
X56984164Y-41048198D02*
X72118921Y-41048198D01*
X86206575Y-41003000D02*
X86641501Y-41003000D01*
%TO.N,Voltage_Probe*%
X57281536Y-41804600D02*
X57637136Y-41449000D01*
X78458700Y-41013238D02*
X79462485Y-42017023D01*
%TO.N,+18V*%
X61773339Y-41799000D02*
X72358068Y-41799000D01*
D19*
%TO.N,ADC_1*%
X89779599Y-39047241D02*
X89779599Y-38075480D01*
%TO.N,Net-(U13-Y2)*%
X60583012Y-39478696D02*
X60648908Y-39412800D01*
D18*
%TO.N,Net-(U9-GPIO0)*%
X53696747Y-41454600D02*
X56577762Y-41454600D01*
D19*
%TO.N,ADC_1*%
X89779599Y-38075480D02*
X89644892Y-37940773D01*
D18*
%TO.N,Net-(U9-GPIO1)*%
X56839189Y-40698198D02*
X56432787Y-41104600D01*
X56432787Y-41104600D02*
X53841721Y-41104600D01*
D19*
%TO.N,ADC_1*%
X78938630Y-39988238D02*
X79402591Y-40452199D01*
D18*
%TO.N,+3V3*%
X89627199Y-34687000D02*
X89956096Y-35015897D01*
D19*
%TO.N,Y0_B*%
X78812967Y-35787889D02*
X79475709Y-35787889D01*
X84149594Y-35230400D02*
X85140794Y-34239200D01*
X79944338Y-35303623D02*
X80010719Y-35237242D01*
X80926599Y-34978000D02*
X81178999Y-35230400D01*
D18*
%TO.N,+3V3*%
X78429820Y-36712889D02*
X78192530Y-36475600D01*
D19*
%TO.N,Y0_B*%
X80010719Y-35237242D02*
X80010719Y-35108680D01*
X81178999Y-35230400D02*
X84149594Y-35230400D01*
X75961999Y-33213800D02*
X78095599Y-35347400D01*
D18*
%TO.N,+3V3*%
X84042284Y-36323200D02*
X80248546Y-36323200D01*
X71805203Y-35804600D02*
X61407800Y-35804600D01*
D19*
%TO.N,Y0_B*%
X80010719Y-35108680D02*
X80141399Y-34978000D01*
X78095599Y-35347400D02*
X78372478Y-35347400D01*
D18*
%TO.N,+3V3*%
X84560884Y-35804600D02*
X84042284Y-36323200D01*
X76223051Y-35037000D02*
X72572803Y-35037000D01*
X89956096Y-35015897D02*
X89956096Y-35536880D01*
D19*
%TO.N,ADC_0*%
X80244338Y-35443524D02*
X80244338Y-35427887D01*
X78248214Y-35647400D02*
X78688703Y-36087889D01*
%TO.N,Y0_B*%
X80141399Y-34978000D02*
X80926599Y-34978000D01*
%TO.N,ADC_0*%
X80310719Y-35278000D02*
X80802335Y-35278000D01*
X84555381Y-35350483D02*
X89506096Y-35350483D01*
D18*
%TO.N,+3V3*%
X79858857Y-36712889D02*
X78429820Y-36712889D01*
X61407800Y-35804600D02*
X60655200Y-35052000D01*
X89688376Y-35804600D02*
X84560884Y-35804600D01*
D19*
%TO.N,Y0_B*%
X69002399Y-33213800D02*
X75961999Y-33213800D01*
%TO.N,ADC_0*%
X80802335Y-35278000D02*
X81054735Y-35530400D01*
X79599973Y-36087889D02*
X80244338Y-35443524D01*
D18*
%TO.N,+3V3*%
X80248546Y-36323200D02*
X79858857Y-36712889D01*
X77661651Y-36475600D02*
X76223051Y-35037000D01*
D19*
%TO.N,ADC_0*%
X81054735Y-35530400D02*
X84375464Y-35530400D01*
X80244338Y-35427887D02*
X80310719Y-35361506D01*
X75885335Y-33815400D02*
X77717335Y-35647400D01*
D18*
%TO.N,+3V3*%
X89956096Y-35536880D02*
X89688376Y-35804600D01*
D19*
%TO.N,ADC_0*%
X84375464Y-35530400D02*
X84555381Y-35350483D01*
D18*
%TO.N,+3V3*%
X72572803Y-35037000D02*
X71805203Y-35804600D01*
X78192530Y-36475600D02*
X77661651Y-36475600D01*
D19*
%TO.N,ADC_0*%
X77717335Y-35647400D02*
X78248214Y-35647400D01*
%TO.N,Y0_B*%
X79944338Y-35319260D02*
X79944338Y-35303623D01*
%TO.N,ADC_0*%
X78688703Y-36087889D02*
X79599973Y-36087889D01*
%TO.N,Y0_B*%
X78372478Y-35347400D02*
X78812967Y-35787889D01*
%TO.N,ADC_0*%
X70881999Y-33815400D02*
X75885335Y-33815400D01*
%TO.N,Y0_B*%
X79475709Y-35787889D02*
X79944338Y-35319260D01*
%TO.N,ADC_0*%
X80310719Y-35361506D02*
X80310719Y-35278000D01*
%TO.N,Select_Probe*%
X36300599Y-46523400D02*
X36799199Y-46024800D01*
X35550599Y-46523400D02*
X36300599Y-46523400D01*
X36799199Y-46024800D02*
X49834800Y-46024800D01*
D18*
%TO.N,LED_GND*%
X49749199Y-56896457D02*
X46363620Y-56896457D01*
X46363620Y-56896457D02*
X45646485Y-56179322D01*
D19*
%TO.N,45*%
X80507999Y-52779059D02*
X80223746Y-52494806D01*
X83892153Y-52918846D02*
X80507999Y-52918846D01*
X80507999Y-52918846D02*
X80507999Y-52779059D01*
%TO.N,46*%
X75850263Y-53699462D02*
X75850263Y-54080849D01*
%TO.N,33*%
X60881432Y-53829600D02*
X60706457Y-54004575D01*
X80007999Y-52986166D02*
X76139295Y-52986166D01*
X74771415Y-54354046D02*
X74021053Y-54354046D01*
%TO.N,46*%
X76628851Y-53307084D02*
X76242641Y-53307084D01*
%TO.N,45*%
X80223746Y-52494806D02*
X76178387Y-52494806D01*
X92154597Y-51807773D02*
X85003226Y-51807773D01*
%TO.N,33*%
X74021053Y-54354046D02*
X73709595Y-54042588D01*
%TO.N,45*%
X75493572Y-53179621D02*
X75344799Y-53179621D01*
%TO.N,46*%
X76242641Y-53307084D02*
X75850263Y-53699462D01*
%TO.N,33*%
X68401979Y-53567004D02*
X68139383Y-53829600D01*
%TO.N,45*%
X85003226Y-51807773D02*
X83892153Y-52918846D01*
%TO.N,33*%
X76139295Y-52986166D02*
X74771415Y-54354046D01*
X69071645Y-53567004D02*
X68401979Y-53567004D01*
%TO.N,46*%
X83967341Y-53478658D02*
X76800425Y-53478658D01*
%TO.N,45*%
X76178387Y-52494806D02*
X75493572Y-53179621D01*
%TO.N,46*%
X94643599Y-52365400D02*
X85080599Y-52365400D01*
X76800425Y-53478658D02*
X76628851Y-53307084D01*
%TO.N,33*%
X73709595Y-54042588D02*
X69547229Y-54042588D01*
X68139383Y-53829600D02*
X60881432Y-53829600D01*
X69547229Y-54042588D02*
X69071645Y-53567004D01*
%TO.N,46*%
X85080599Y-52365400D02*
X83967341Y-53478658D01*
%TO.N,BICK*%
X80787686Y-32856549D02*
X80153262Y-32856549D01*
X88584746Y-33120766D02*
X88446376Y-33259136D01*
%TO.N,CAD{slash}CSN*%
X73095943Y-29484144D02*
X73095943Y-27439763D01*
X80229866Y-30732600D02*
X80000300Y-30503034D01*
X84787524Y-31164032D02*
X84356092Y-30732600D01*
X73663399Y-30051600D02*
X73095943Y-29484144D01*
X97958399Y-30877000D02*
X97952538Y-30871139D01*
X84356092Y-30732600D02*
X80229866Y-30732600D01*
X85201738Y-31164032D02*
X84787524Y-31164032D01*
X75900566Y-30051600D02*
X73663399Y-30051600D01*
X76352000Y-30503034D02*
X75900566Y-30051600D01*
X80000300Y-30503034D02*
X76352000Y-30503034D01*
X97952538Y-30871139D02*
X85494631Y-30871139D01*
X85494631Y-30871139D02*
X85201738Y-31164032D01*
%TO.N,SDOUT1*%
X86635771Y-32719892D02*
X86635771Y-32586522D01*
X85928664Y-32293629D02*
X85762493Y-32459800D01*
X85762493Y-32459800D02*
X81989870Y-32459800D01*
X86342878Y-32293629D02*
X85928664Y-32293629D01*
X81989870Y-32459800D02*
X81538390Y-32911280D01*
X86635771Y-32586522D02*
X86342878Y-32293629D01*
X96340199Y-32719892D02*
X86635771Y-32719892D01*
%TO.N,LRCK*%
X98797999Y-32275400D02*
X86748913Y-32275400D01*
X85699783Y-32098246D02*
X80233887Y-32098246D01*
X86467142Y-31993629D02*
X85804400Y-31993629D01*
X86748913Y-32275400D02*
X86467142Y-31993629D01*
X85804400Y-31993629D02*
X85699783Y-32098246D01*
X98974399Y-32451800D02*
X98797999Y-32275400D01*
X80233887Y-32098246D02*
X79992190Y-31856549D01*
%TO.N,SDOUT2*%
X85485469Y-31464032D02*
X85637486Y-31312015D01*
X81121031Y-31464032D02*
X85485469Y-31464032D01*
X85637486Y-31312015D02*
X96306770Y-31312015D01*
X80889599Y-31232600D02*
X81121031Y-31464032D01*
%TO.N,SDIN1*%
X81037907Y-29962600D02*
X96390999Y-29962600D01*
X80733674Y-30266833D02*
X81037907Y-29962600D01*
%TO.N,BICK*%
X88998960Y-33120766D02*
X88584746Y-33120766D01*
X99278375Y-33769892D02*
X98767619Y-33259136D01*
X84445490Y-33129800D02*
X82319609Y-33129800D01*
X88446376Y-33259136D02*
X85894170Y-33259136D01*
X81542675Y-33413022D02*
X81344159Y-33413022D01*
X81344159Y-33413022D02*
X80787686Y-32856549D01*
X82319609Y-33129800D02*
X81897380Y-33552029D01*
X84649527Y-32925763D02*
X84445490Y-33129800D01*
X81897380Y-33552029D02*
X81681682Y-33552029D01*
X81681682Y-33552029D02*
X81542675Y-33413022D01*
X85894170Y-33259136D02*
X85560797Y-32925763D01*
X89137330Y-33259136D02*
X88998960Y-33120766D01*
X85560797Y-32925763D02*
X84649527Y-32925763D01*
X98767619Y-33259136D02*
X89137330Y-33259136D01*
%TO.N,PDN*%
X76227736Y-30803034D02*
X75776302Y-30351600D01*
X85603936Y-31769829D02*
X80746891Y-31769829D01*
X80183573Y-31206511D02*
X80183573Y-31110571D01*
X80746891Y-31769829D02*
X80183573Y-31206511D01*
X79876036Y-30803034D02*
X76227736Y-30803034D01*
X86673177Y-31775400D02*
X86591406Y-31693629D01*
X85680136Y-31693629D02*
X85603936Y-31769829D01*
X75776302Y-30351600D02*
X73537463Y-30351600D01*
X80183573Y-31110571D02*
X79876036Y-30803034D01*
%TO.N,SDIN2*%
X81252088Y-28997400D02*
X80203363Y-30046125D01*
X96661503Y-29154588D02*
X96504315Y-28997400D01*
X96504315Y-28997400D02*
X81252088Y-28997400D01*
%TO.N,MCK*%
X84279762Y-34002635D02*
X83992197Y-34290200D01*
X81418411Y-33713022D02*
X80859572Y-33713022D01*
X88780672Y-34366800D02*
X86577570Y-34366800D01*
X89968926Y-33862000D02*
X89285472Y-33862000D01*
X86577570Y-34366800D02*
X85436533Y-33225763D01*
X89285472Y-33862000D02*
X88780672Y-34366800D01*
X90635991Y-34529065D02*
X89968926Y-33862000D01*
X81995589Y-34290200D02*
X81418411Y-33713022D01*
X83992197Y-34290200D02*
X81995589Y-34290200D01*
X99180249Y-34529065D02*
X90635991Y-34529065D01*
X84773791Y-33225763D02*
X84279762Y-33719792D01*
X80859572Y-33713022D02*
X80495750Y-33349200D01*
X85436533Y-33225763D02*
X84773791Y-33225763D01*
X84279762Y-33719792D02*
X84279762Y-34002635D01*
%TO.N,Y3_B*%
X79378399Y-44427800D02*
X79873599Y-43932600D01*
X79873599Y-43932600D02*
X86629999Y-43932600D01*
X77319828Y-44085000D02*
X77662628Y-44427800D01*
X77662628Y-44427800D02*
X79378399Y-44427800D01*
X72964799Y-44085000D02*
X77319828Y-44085000D01*
D18*
%TO.N,GPI0_2*%
X115687606Y-55057814D02*
X115687606Y-48606207D01*
X110997399Y-46608400D02*
X105162781Y-46608400D01*
X112097399Y-47708400D02*
X110997399Y-46608400D01*
X114789799Y-47708400D02*
X112097399Y-47708400D01*
X115687606Y-48606207D02*
X114789799Y-47708400D01*
X105044581Y-46726600D02*
X99785110Y-46726600D01*
X105162781Y-46608400D02*
X105044581Y-46726600D01*
X99785110Y-46726600D02*
X99753399Y-46758311D01*
D19*
%TO.N,PDN*%
X98306015Y-31775400D02*
X86673177Y-31775400D01*
X86591406Y-31693629D02*
X85680136Y-31693629D01*
X73537463Y-30351600D02*
X71964431Y-28778568D01*
%TO.N,CS_C*%
X109997999Y-54753000D02*
X109591599Y-55159400D01*
X109591599Y-55159400D02*
X89576399Y-55159400D01*
X89576399Y-55159400D02*
X88591431Y-54174432D01*
%TO.N,RESET*%
X98988443Y-45504699D02*
X99095344Y-45611600D01*
X98683643Y-45504699D02*
X98988443Y-45504699D01*
X72355199Y-44085000D02*
X72415596Y-44085000D01*
X99095344Y-45611600D02*
X100275854Y-45611600D01*
X86273692Y-44334200D02*
X79896263Y-44334200D01*
X88212799Y-44483400D02*
X86422892Y-44483400D01*
X72253599Y-43983400D02*
X71127999Y-42857800D01*
X100382755Y-45504699D02*
X111433025Y-45504699D01*
X71127999Y-42857800D02*
X59350213Y-42857800D01*
X98501744Y-45322800D02*
X98683643Y-45504699D01*
X88712799Y-43983400D02*
X88212799Y-44483400D01*
X100275854Y-45611600D02*
X100382755Y-45504699D01*
X89448115Y-44718716D02*
X93682379Y-44718716D01*
X111433025Y-45504699D02*
X112353160Y-46424834D01*
X93682379Y-44718716D02*
X94286463Y-45322800D01*
X79896263Y-44334200D02*
X79337463Y-44893000D01*
X88712799Y-43983400D02*
X89448115Y-44718716D01*
X86422892Y-44483400D02*
X86273692Y-44334200D01*
X59350213Y-42857800D02*
X59148440Y-43059573D01*
X76955335Y-44893000D02*
X76701335Y-44639000D01*
X72253599Y-43983400D02*
X72355199Y-44085000D01*
X76701335Y-44639000D02*
X72909199Y-44639000D01*
X72909199Y-44639000D02*
X72253599Y-43983400D01*
X79337463Y-44893000D02*
X76955335Y-44893000D01*
X94286463Y-45322800D02*
X98501744Y-45322800D01*
%TO.N,ADC_0_RP*%
X112145930Y-44236661D02*
X111652932Y-43743663D01*
X111652932Y-43743663D02*
X99499399Y-43743663D01*
X97409010Y-44051200D02*
X96449399Y-43091589D01*
X99191862Y-44051200D02*
X97409010Y-44051200D01*
X99499399Y-43743663D02*
X99191862Y-44051200D01*
%TO.N,ADC_2_RP*%
X99343872Y-45011600D02*
X99140672Y-44808400D01*
X111168180Y-44528327D02*
X100510599Y-44528327D01*
X96464952Y-44702000D02*
X95383014Y-43620062D01*
X99140672Y-44808400D02*
X98835872Y-44808400D01*
X98835872Y-44808400D02*
X98729472Y-44702000D01*
X98729472Y-44702000D02*
X96464952Y-44702000D01*
X95383014Y-43620062D02*
X94593399Y-43620062D01*
%TO.N,ADC_2*%
X88712799Y-38903400D02*
X89322399Y-38903400D01*
X88661999Y-38954200D02*
X88712799Y-38903400D01*
X80533999Y-38954200D02*
X88661999Y-38954200D01*
%TO.N,ADC_1_RP*%
X100210599Y-44404063D02*
X99903062Y-44711600D01*
X96778688Y-44402000D02*
X96449399Y-44072711D01*
X111546750Y-44268070D02*
X111377943Y-44099263D01*
X98960136Y-44508400D02*
X98853736Y-44402000D01*
X98853736Y-44402000D02*
X96778688Y-44402000D01*
X99468136Y-44711600D02*
X99264936Y-44508400D01*
X99264936Y-44508400D02*
X98960136Y-44508400D01*
X100210599Y-44099263D02*
X100210599Y-44404063D01*
X99903062Y-44711600D02*
X99468136Y-44711600D01*
X111377943Y-44099263D02*
X100210599Y-44099263D01*
%TO.N,AOUT2R*%
X96994557Y-28654588D02*
X82548309Y-28654588D01*
X73817957Y-28583000D02*
X73595943Y-28805014D01*
X82128881Y-28465225D02*
X82011106Y-28583000D01*
X82548309Y-28654588D02*
X82358946Y-28465225D01*
X99738640Y-26203400D02*
X97476815Y-28465225D01*
X82358946Y-28465225D02*
X82128881Y-28465225D01*
X82011106Y-28583000D02*
X73817957Y-28583000D01*
X105970915Y-26203400D02*
X99738640Y-26203400D01*
X97476815Y-28465225D02*
X97183920Y-28465225D01*
X97183920Y-28465225D02*
X96994557Y-28654588D01*
%TO.N,Y3_A*%
X68411399Y-27404000D02*
X72424599Y-27404000D01*
X81975212Y-27657227D02*
X84218972Y-27657227D01*
X72813836Y-27014763D02*
X81332748Y-27014763D01*
X81332748Y-27014763D02*
X81975212Y-27657227D01*
X67224399Y-28591000D02*
X68411399Y-27404000D01*
X72424599Y-27404000D02*
X72813836Y-27014763D01*
X57521599Y-28591000D02*
X67224399Y-28591000D01*
X84218972Y-27657227D02*
X84553245Y-27322954D01*
%TO.N,Y0_A*%
X77602671Y-35957000D02*
X78133550Y-35957000D01*
X80417327Y-35703000D02*
X80584799Y-35703000D01*
X79724237Y-36387889D02*
X80113926Y-35998200D01*
X80113926Y-35998200D02*
X80122127Y-35998200D01*
X75977071Y-34331400D02*
X77602671Y-35957000D01*
X78564439Y-36387889D02*
X79724237Y-36387889D01*
X80122127Y-35998200D02*
X80417327Y-35703000D01*
X57115199Y-34331400D02*
X75977071Y-34331400D01*
X56759599Y-33975800D02*
X57115199Y-34331400D01*
X78133550Y-35957000D02*
X78564439Y-36387889D01*
%TO.N,Button_Probe*%
X49596799Y-43983400D02*
X50511199Y-43069000D01*
X35550599Y-43983400D02*
X49596799Y-43983400D01*
%TO.N,AOUT2L*%
X84579762Y-34126899D02*
X84579762Y-33844056D01*
X84014861Y-34691800D02*
X84579762Y-34126899D01*
X74764600Y-31309137D02*
X75072137Y-31001600D01*
X89409736Y-34162000D02*
X89714219Y-34162000D01*
X71407863Y-29505400D02*
X73755063Y-31852600D01*
X79335808Y-35487889D02*
X79710719Y-35112978D01*
X102594999Y-34978000D02*
X102835199Y-34737800D01*
X75814600Y-32642137D02*
X78219863Y-35047400D01*
X81013863Y-34641000D02*
X81064663Y-34691800D01*
X70983599Y-29505400D02*
X71407863Y-29505400D01*
%TO.N,Net-(U15-Y4)*%
X71100560Y-44260054D02*
X69737652Y-44260054D01*
X68917092Y-44249600D02*
X67966033Y-44249600D01*
X84851999Y-45304200D02*
X84851999Y-44999400D01*
X94300799Y-45761400D02*
X93843599Y-45304200D01*
X76428696Y-45304200D02*
X76080714Y-44956218D01*
X76080714Y-44956218D02*
X71796724Y-44956218D01*
X93843599Y-45304200D02*
X84851999Y-45304200D01*
X69615906Y-44381800D02*
X69049292Y-44381800D01*
X69049292Y-44381800D02*
X68917092Y-44249600D01*
X84851999Y-45304200D02*
X76428696Y-45304200D01*
X69737652Y-44260054D02*
X69615906Y-44381800D01*
X71796724Y-44956218D02*
X71100560Y-44260054D01*
%TO.N,AOUT2L*%
X75072137Y-31001600D02*
X75507063Y-31001600D01*
X73755063Y-31852600D02*
X74503980Y-31852600D01*
X74764600Y-31591980D02*
X74764600Y-31309137D01*
X78219863Y-35047400D02*
X78496742Y-35047400D01*
X102835199Y-34737800D02*
X102835199Y-29353000D01*
X78937231Y-35487889D02*
X79335808Y-35487889D01*
X75507063Y-31001600D02*
X75814600Y-31309137D01*
X84898055Y-33525763D02*
X85312269Y-33525763D01*
X86453306Y-34666800D02*
X88904936Y-34666800D01*
X75814600Y-31309137D02*
X75814600Y-32642137D01*
X88904936Y-34666800D02*
X89409736Y-34162000D01*
X74503980Y-31852600D02*
X74764600Y-31591980D01*
X79710719Y-35112978D02*
X79710719Y-34984416D01*
X80054135Y-34641000D02*
X81013863Y-34641000D01*
X89714219Y-34162000D02*
X90530219Y-34978000D01*
X90530219Y-34978000D02*
X102594999Y-34978000D01*
X81064663Y-34691800D02*
X84014861Y-34691800D01*
X78496742Y-35047400D02*
X78937231Y-35487889D01*
X84579762Y-33844056D02*
X84898055Y-33525763D01*
X85312269Y-33525763D02*
X86453306Y-34666800D01*
X79710719Y-34984416D02*
X80054135Y-34641000D01*
%TO.N,42*%
X91494553Y-48387202D02*
X90993501Y-48888254D01*
X92711965Y-49190400D02*
X91908767Y-48387202D01*
X80351772Y-48935616D02*
X80050783Y-49236605D01*
X73981649Y-49236605D02*
X73617494Y-49600760D01*
X80664427Y-48935616D02*
X80351772Y-48935616D01*
X90993501Y-48888254D02*
X85119413Y-48888254D01*
X94499954Y-49190400D02*
X92711965Y-49190400D01*
X80050783Y-49236605D02*
X73981649Y-49236605D01*
X81948907Y-47651136D02*
X80664427Y-48935616D01*
X85119413Y-48888254D02*
X83882295Y-47651136D01*
X83882295Y-47651136D02*
X81948907Y-47651136D01*
X91908767Y-48387202D02*
X91494553Y-48387202D01*
%TO.N,13*%
X73257172Y-53392254D02*
X73596983Y-53052443D01*
X64595599Y-52797425D02*
X69150594Y-52797425D01*
X69150594Y-52797425D02*
X69745423Y-53392254D01*
X69745423Y-53392254D02*
X73257172Y-53392254D01*
%TO.N,51*%
X84981095Y-55457400D02*
X86720722Y-53717773D01*
X83926999Y-55457400D02*
X84981095Y-55457400D01*
X83556599Y-55827800D02*
X83926999Y-55457400D01*
%TO.N,18*%
X70430626Y-46777400D02*
X71051808Y-46156218D01*
X74999720Y-46559800D02*
X75162109Y-46397411D01*
X63872702Y-46777400D02*
X70430626Y-46777400D01*
X75162109Y-46397411D02*
X75824851Y-46397411D01*
X74112911Y-46156218D02*
X74516493Y-46559800D01*
X74516493Y-46559800D02*
X74999720Y-46559800D01*
X63727329Y-46922773D02*
X63872702Y-46777400D01*
X77774796Y-46559800D02*
X77919196Y-46704200D01*
X71051808Y-46156218D02*
X74112911Y-46156218D01*
X75987240Y-46559800D02*
X77774796Y-46559800D01*
X75824851Y-46397411D02*
X75987240Y-46559800D01*
%TO.N,39*%
X67707934Y-58798907D02*
X67707934Y-59213121D01*
X67811036Y-58695805D02*
X67707934Y-58798907D01*
X67707934Y-59213121D02*
X67756237Y-59261424D01*
X67149692Y-57931301D02*
X67811036Y-58592645D01*
X67756237Y-59261424D02*
X67756237Y-59400949D01*
X67811036Y-58592645D02*
X67811036Y-58695805D01*
%TO.N,27*%
X89691564Y-47239400D02*
X81882341Y-47239400D01*
X71360302Y-47970612D02*
X71217313Y-47970612D01*
X80486125Y-48635616D02*
X80227508Y-48635616D01*
X91021557Y-48002017D02*
X90454181Y-48002017D01*
X81882341Y-47239400D02*
X80486125Y-48635616D01*
X72629048Y-49473806D02*
X72292847Y-49137605D01*
X72292847Y-49137605D02*
X72292847Y-48903157D01*
X72292847Y-48903157D02*
X71360302Y-47970612D01*
X79926519Y-48936605D02*
X73650838Y-48936605D01*
X73113637Y-49473806D02*
X72629048Y-49473806D01*
X80227508Y-48635616D02*
X79926519Y-48936605D01*
X73650838Y-48936605D02*
X73113637Y-49473806D01*
X90454181Y-48002017D02*
X89691564Y-47239400D01*
%TO.N,ADC_3_RP*%
X94817399Y-44897800D02*
X93293399Y-43373800D01*
X98711608Y-45108400D02*
X98607907Y-45004699D01*
X96236488Y-44897800D02*
X94817399Y-44897800D01*
X99016408Y-45108400D02*
X98711608Y-45108400D01*
X100151590Y-45311600D02*
X99219608Y-45311600D01*
X98607907Y-45004699D02*
X96343387Y-45004699D01*
X96343387Y-45004699D02*
X96236488Y-44897800D01*
X100458491Y-45004699D02*
X100151590Y-45311600D01*
X110957984Y-45004699D02*
X100458491Y-45004699D01*
X99219608Y-45311600D02*
X99016408Y-45108400D01*
%TO.N,43*%
X80224315Y-49911600D02*
X74825515Y-49911600D01*
X83602895Y-49572013D02*
X83566498Y-49535616D01*
X83566498Y-49535616D02*
X80600300Y-49535616D01*
X80600300Y-49535616D02*
X80224315Y-49911600D01*
X92431064Y-49572013D02*
X83602895Y-49572013D01*
X74825515Y-49911600D02*
X74588107Y-50149008D01*
%TO.N,7*%
X59354306Y-47852200D02*
X59972718Y-48470612D01*
X71792847Y-48827421D02*
X71792847Y-49264671D01*
X71436038Y-48470612D02*
X71792847Y-48827421D01*
X59972718Y-48470612D02*
X71436038Y-48470612D01*
X57868875Y-47852200D02*
X59354306Y-47852200D01*
X57004251Y-48716824D02*
X57868875Y-47852200D01*
%TO.N,20*%
X74913581Y-45797411D02*
X74672388Y-45556218D01*
X74672388Y-45556218D02*
X70803280Y-45556218D01*
X78900400Y-48106199D02*
X78900400Y-46406608D01*
X70803280Y-45556218D02*
X70317849Y-46041649D01*
X76235768Y-45959800D02*
X76073379Y-45797411D01*
%TO.N,52*%
X96870293Y-28354588D02*
X96456079Y-28354588D01*
X95962936Y-57818000D02*
X95370136Y-57225200D01*
X97824761Y-27481804D02*
X97141340Y-28165225D01*
X97534999Y-57818000D02*
X95962936Y-57818000D01*
X91218625Y-57225200D02*
X90635041Y-57808784D01*
X94439326Y-28247600D02*
X93755872Y-28247600D01*
X90342148Y-58821333D02*
X90059305Y-58821333D01*
X97805999Y-57547000D02*
X97534999Y-57818000D01*
X97059656Y-28165225D02*
X96870293Y-28354588D01*
X89822438Y-59058200D02*
X88889428Y-59058200D01*
X95370136Y-57225200D02*
X91218625Y-57225200D01*
X88889428Y-59058200D02*
X88689428Y-58858200D01*
X90635041Y-58528440D02*
X90342148Y-58821333D01*
X88381834Y-58858200D02*
X87629434Y-58105800D01*
X88689428Y-58858200D02*
X88381834Y-58858200D01*
X93755872Y-28247600D02*
X93673497Y-28165225D01*
X86577618Y-28165225D02*
X84557034Y-26144641D01*
X97141340Y-28165225D02*
X97059656Y-28165225D01*
X90059305Y-58821333D02*
X89822438Y-59058200D01*
X96456079Y-28354588D02*
X96266716Y-28165225D01*
X93673497Y-28165225D02*
X86577618Y-28165225D01*
X94521701Y-28165225D02*
X94439326Y-28247600D01*
X96266716Y-28165225D02*
X94521701Y-28165225D01*
X90635041Y-57808784D02*
X90635041Y-58528440D01*
X87629434Y-58105800D02*
X84242399Y-58105800D01*
%TO.N,20*%
X78806799Y-48199800D02*
X78900400Y-48106199D01*
X78900400Y-46406608D02*
X78453592Y-45959800D01*
X78453592Y-45959800D02*
X76235768Y-45959800D01*
X76073379Y-45797411D02*
X74913581Y-45797411D01*
X70317849Y-46041649D02*
X61678350Y-46041649D01*
X61678350Y-46041649D02*
X61196599Y-46523400D01*
%TO.N,44*%
X94424954Y-50439739D02*
X94295073Y-50569620D01*
X79957418Y-51522000D02*
X75370180Y-51522000D01*
X94016199Y-50569620D02*
X93521019Y-51064800D01*
X75319380Y-51471200D02*
X75065380Y-51471200D01*
X94295073Y-50569620D02*
X94016199Y-50569620D01*
X75370180Y-51522000D02*
X75319380Y-51471200D01*
X74931791Y-51352742D02*
X74822672Y-51461861D01*
X93521019Y-51064800D02*
X80414619Y-51064800D01*
X80414619Y-51064800D02*
X79957418Y-51522000D01*
X74946921Y-51352742D02*
X74931791Y-51352742D01*
X75065380Y-51471200D02*
X74946921Y-51352742D01*
%TO.N,35*%
X68584312Y-45626400D02*
X68469063Y-45741649D01*
X68054849Y-45741649D02*
X67939600Y-45626400D01*
X68924400Y-45314029D02*
X68612029Y-45626400D01*
X67939600Y-45626400D02*
X64934492Y-45626400D01*
X64934492Y-45626400D02*
X63283492Y-43975400D01*
X68612029Y-45626400D02*
X68584312Y-45626400D01*
X63283492Y-43975400D02*
X62660399Y-43975400D01*
X68469063Y-45741649D02*
X68054849Y-45741649D01*
%TO.N,19*%
X75949115Y-46097411D02*
X75037845Y-46097411D01*
X70927544Y-45856218D02*
X70314041Y-46469721D01*
X78427357Y-46357829D02*
X78329328Y-46259800D01*
X74875456Y-46259800D02*
X74640757Y-46259800D01*
X74640757Y-46259800D02*
X74237175Y-45856218D01*
X78329328Y-46259800D02*
X76111504Y-46259800D01*
X74237175Y-45856218D02*
X70927544Y-45856218D01*
X75037845Y-46097411D02*
X74875456Y-46259800D01*
X78427357Y-47819399D02*
X78427357Y-46357829D01*
X76111504Y-46259800D02*
X75949115Y-46097411D01*
X70314041Y-46469721D02*
X62791999Y-46469721D01*
%TO.N,15*%
X70279154Y-47777400D02*
X71300336Y-46756218D01*
X75455869Y-47159800D02*
X75493480Y-47197411D01*
X56353199Y-47742600D02*
X56861199Y-47234600D01*
X73864383Y-46756218D02*
X74267965Y-47159800D01*
X74267965Y-47159800D02*
X75455869Y-47159800D01*
X60991634Y-47777400D02*
X70279154Y-47777400D01*
X56861199Y-47234600D02*
X60448834Y-47234600D01*
X71300336Y-46756218D02*
X73864383Y-46756218D01*
X60448834Y-47234600D02*
X60991634Y-47777400D01*
%TO.N,32*%
X59299599Y-53127400D02*
X62683899Y-53127400D01*
X62683899Y-53127400D02*
X63852499Y-51958800D01*
X63852499Y-51958800D02*
X68214947Y-51958800D01*
%TO.N,16*%
X74033012Y-47349111D02*
X73740119Y-47056218D01*
X74830012Y-47459800D02*
X74033012Y-47459800D01*
X71424600Y-47056218D02*
X70403418Y-48077400D01*
X76360399Y-47915157D02*
X75285369Y-47915157D01*
X60342170Y-47552200D02*
X57153199Y-47552200D01*
X75285369Y-47915157D02*
X74830012Y-47459800D01*
X74033012Y-47459800D02*
X74033012Y-47349111D01*
X60867370Y-48077400D02*
X60342170Y-47552200D01*
X73740119Y-47056218D02*
X71424600Y-47056218D01*
X70403418Y-48077400D02*
X60867370Y-48077400D01*
%TO.N,17*%
X75286373Y-46697411D02*
X75700587Y-46697411D01*
X74392229Y-46859800D02*
X75123984Y-46859800D01*
X75123984Y-46859800D02*
X75286373Y-46697411D01*
X71176072Y-46456218D02*
X73988647Y-46456218D01*
X70393571Y-47238719D02*
X71176072Y-46456218D01*
X76876359Y-46859800D02*
X77020759Y-47004200D01*
X73988647Y-46456218D02*
X74392229Y-46859800D01*
X75700587Y-46697411D02*
X75862976Y-46859800D01*
X67818493Y-47238719D02*
X70393571Y-47238719D01*
X75862976Y-46859800D02*
X76876359Y-46859800D01*
%TO.N,16*%
X57153199Y-47552200D02*
X56403999Y-48301400D01*
%TO.N,40*%
X70715336Y-58427600D02*
X71150262Y-58427600D01*
X74825344Y-57834400D02*
X75102099Y-58111155D01*
X68698388Y-57407296D02*
X67559876Y-57407296D01*
X71503746Y-58074116D02*
X73180139Y-58074116D01*
X69411155Y-58120063D02*
X70407799Y-58120063D01*
X73180139Y-58074116D02*
X73720625Y-57533630D01*
X69125492Y-57834400D02*
X68782845Y-58177047D01*
X68782845Y-58177047D02*
X68782845Y-58447069D01*
X69125492Y-57834400D02*
X69411155Y-58120063D01*
X69125492Y-57834400D02*
X68698388Y-57407296D01*
X71150262Y-58427600D02*
X71503746Y-58074116D01*
X74143432Y-57834400D02*
X74825344Y-57834400D01*
X73842662Y-57533630D02*
X74143432Y-57834400D01*
X70407799Y-58120063D02*
X70715336Y-58427600D01*
X73720625Y-57533630D02*
X73842662Y-57533630D01*
%TO.N,49*%
X79873599Y-58842400D02*
X80665539Y-58050460D01*
X80127599Y-59604400D02*
X79873599Y-59350400D01*
X89013692Y-58758200D02*
X89698174Y-58758200D01*
X87655298Y-57707400D02*
X88506098Y-58558200D01*
X80665539Y-58050460D02*
X83641432Y-58050460D01*
X79873599Y-59350400D02*
X79873599Y-58842400D01*
X84086092Y-57605800D02*
X84500306Y-57605800D01*
X88813692Y-58558200D02*
X89013692Y-58758200D01*
X84500306Y-57605800D02*
X84601906Y-57707400D01*
X89698174Y-58758200D02*
X90135041Y-58321333D01*
X83641432Y-58050460D02*
X84086092Y-57605800D01*
X84601906Y-57707400D02*
X87655298Y-57707400D01*
X88506098Y-58558200D02*
X88813692Y-58558200D01*
%TO.N,37*%
X65014607Y-58406499D02*
X65685653Y-57735454D01*
X65014607Y-59223400D02*
X65014607Y-58406499D01*
%TO.N,28*%
X83015116Y-48576136D02*
X83518235Y-48576136D01*
X83518235Y-48576136D02*
X84193438Y-49251339D01*
X72400287Y-49669309D02*
X72504784Y-49773806D01*
X71890711Y-49764671D02*
X71986073Y-49669309D01*
X73376325Y-50066699D02*
X73858661Y-50066699D01*
X70741841Y-49427486D02*
X71079026Y-49764671D01*
X80175047Y-49536605D02*
X80476036Y-49235616D01*
X82436852Y-49154400D02*
X83015116Y-48576136D01*
X72504784Y-49773806D02*
X73083432Y-49773806D01*
X71079026Y-49764671D02*
X71890711Y-49764671D01*
X80882436Y-49235616D02*
X80963652Y-49154400D01*
X80476036Y-49235616D02*
X80882436Y-49235616D01*
X71986073Y-49669309D02*
X72400287Y-49669309D01*
X73083432Y-49773806D02*
X73376325Y-50066699D01*
X73858661Y-50066699D02*
X74388755Y-49536605D01*
X74388755Y-49536605D02*
X80175047Y-49536605D01*
X84193438Y-49251339D02*
X91337523Y-49251339D01*
X80963652Y-49154400D02*
X82436852Y-49154400D01*
X91337523Y-49251339D02*
X91701660Y-48887202D01*
%TO.N,14*%
X69671493Y-53742588D02*
X74022168Y-53742588D01*
X64596245Y-53267004D02*
X69195909Y-53267004D01*
X74022168Y-53742588D02*
X74107997Y-53828417D01*
X64523900Y-53339349D02*
X64596245Y-53267004D01*
X69195909Y-53267004D02*
X69671493Y-53742588D01*
%TO.N,54*%
X86882186Y-59604400D02*
X87328386Y-59158200D01*
X95379688Y-57897426D02*
X95754953Y-58272691D01*
X89946702Y-59358200D02*
X90183569Y-59121333D01*
X88565164Y-59158200D02*
X88765164Y-59358200D01*
X86934799Y-26254200D02*
X87396799Y-26716200D01*
X88765164Y-59358200D02*
X89946702Y-59358200D01*
X90466412Y-59121333D02*
X90935041Y-58652704D01*
X86350599Y-59604400D02*
X86882186Y-59604400D01*
X90935041Y-58652704D02*
X90935041Y-58099593D01*
X87328386Y-59158200D02*
X88565164Y-59158200D01*
X94730736Y-26716200D02*
X95233693Y-26213243D01*
X90935041Y-58099593D02*
X91137208Y-57897426D01*
X87396799Y-26716200D02*
X94730736Y-26716200D01*
X91137208Y-57897426D02*
X95379688Y-57897426D01*
X90183569Y-59121333D02*
X90466412Y-59121333D01*
%TO.N,36*%
X64216893Y-44121401D02*
X65221892Y-45126400D01*
X64216893Y-43975400D02*
X64216893Y-44121401D01*
X68146707Y-45126400D02*
X68261956Y-45241649D01*
X65221892Y-45126400D02*
X68146707Y-45126400D01*
%TO.N,8*%
X68140364Y-48928600D02*
X71186919Y-48928600D01*
X56910684Y-49309486D02*
X57014535Y-49205635D01*
X71186919Y-48928600D02*
X71228931Y-48970612D01*
X57014535Y-49205635D02*
X67863329Y-49205635D01*
X67863329Y-49205635D02*
X68140364Y-48928600D01*
%TO.N,LED_DATA_IN*%
X94680253Y-46842327D02*
X93497726Y-45659800D01*
X111349251Y-46268588D02*
X95774547Y-46268588D01*
X71071428Y-44694600D02*
X66204306Y-44694600D01*
X71633046Y-45256218D02*
X71071428Y-44694600D01*
X58889106Y-43518200D02*
X58113531Y-44293775D01*
X58113531Y-44293775D02*
X50380776Y-44293775D01*
X111910131Y-46829468D02*
X111349251Y-46268588D01*
X95200808Y-46842327D02*
X94680253Y-46842327D01*
X65027906Y-43518200D02*
X58889106Y-43518200D01*
X95774547Y-46268588D02*
X95200808Y-46842327D01*
X76360032Y-45659800D02*
X76142432Y-45442200D01*
X75403225Y-45256218D02*
X71633046Y-45256218D01*
X93497726Y-45659800D02*
X76360032Y-45659800D01*
X75589207Y-45442200D02*
X75403225Y-45256218D01*
X76142432Y-45442200D02*
X75589207Y-45442200D01*
X66204306Y-44694600D02*
X65027906Y-43518200D01*
%TO.N,41*%
X80361861Y-48335616D02*
X80103244Y-48335616D01*
X93010954Y-46939400D02*
X81758077Y-46939400D01*
X80103244Y-48335616D02*
X79805265Y-48633595D01*
X94499954Y-48428400D02*
X93010954Y-46939400D01*
X81758077Y-46939400D02*
X80361861Y-48335616D01*
X73141712Y-48633595D02*
X72801501Y-48973806D01*
X70342081Y-26221132D02*
X70293603Y-26221132D01*
X79805265Y-48633595D02*
X73141712Y-48633595D01*
X71024949Y-26904000D02*
X70342081Y-26221132D01*
%TO.N,11*%
X62381406Y-52245065D02*
X62717706Y-52245065D01*
X62299071Y-52327400D02*
X62381406Y-52245065D01*
X63803771Y-51159000D02*
X71102245Y-51159000D01*
X56886599Y-51603400D02*
X57610599Y-52327400D01*
X71102245Y-51159000D02*
X71668387Y-51725142D01*
X57610599Y-52327400D02*
X62299071Y-52327400D01*
X62717706Y-52245065D02*
X63803771Y-51159000D01*
%TO.N,38*%
X66165599Y-57902514D02*
X66618756Y-57449357D01*
X66165599Y-59223400D02*
X66165599Y-57902514D01*
%TO.N,50*%
X85378912Y-54353087D02*
X86721028Y-53010971D01*
X82017892Y-54453000D02*
X82117805Y-54353087D01*
X82117805Y-54353087D02*
X85378912Y-54353087D01*
X79693541Y-54453000D02*
X82017892Y-54453000D01*
X79519199Y-54278658D02*
X79693541Y-54453000D01*
%TO.N,31*%
X68392799Y-50181000D02*
X68595999Y-49977800D01*
X58283599Y-51349400D02*
X58688481Y-51754282D01*
X58688481Y-51754282D02*
X61457975Y-51754282D01*
X63031257Y-50181000D02*
X68392799Y-50181000D01*
X61457975Y-51754282D02*
X63031257Y-50181000D01*
%TO.N,53*%
X94586062Y-27676600D02*
X96485198Y-27676600D01*
X85664799Y-26203400D02*
X87307399Y-27846000D01*
X93658179Y-27747600D02*
X93680136Y-27747600D01*
X87220722Y-53913880D02*
X85500787Y-55633815D01*
X93607379Y-27696800D02*
X93658179Y-27747600D01*
X96485198Y-27676600D02*
X96663186Y-27854588D01*
X94315062Y-27947600D02*
X94586062Y-27676600D01*
X92892662Y-27846000D02*
X93041862Y-27696800D01*
X87220722Y-53317842D02*
X87220722Y-53913880D01*
X87799964Y-52738600D02*
X87220722Y-53317842D01*
X92154597Y-53094936D02*
X91798261Y-52738600D01*
X92154597Y-53094936D02*
X97046839Y-53094936D01*
X91798261Y-52738600D02*
X87799964Y-52738600D01*
X97046839Y-53094936D02*
X97383739Y-52758036D01*
%TO.N,47*%
X83837564Y-57005800D02*
X84748834Y-57005800D01*
X84748834Y-57005800D02*
X84850434Y-57107400D01*
X83431164Y-57412200D02*
X83837564Y-57005800D01*
X77587599Y-59350400D02*
X77587599Y-58334400D01*
X77587599Y-58334400D02*
X78509799Y-57412200D01*
X84850434Y-57107400D02*
X88186669Y-57107400D01*
X88186669Y-57107400D02*
X88671736Y-57592467D01*
X78509799Y-57412200D02*
X83431164Y-57412200D01*
D18*
%TO.N,TOP_RAIL_NEG*%
X91179983Y-56531000D02*
X97247199Y-56531000D01*
X89873473Y-57837510D02*
X91179983Y-56531000D01*
D19*
%TO.N,53*%
X93041862Y-27696800D02*
X93607379Y-27696800D01*
X93880136Y-27947600D02*
X94315062Y-27947600D01*
X93680136Y-27747600D02*
X93880136Y-27947600D01*
X87307399Y-27846000D02*
X92892662Y-27846000D01*
%TO.N,SW_B*%
X77232587Y-37791600D02*
X77158003Y-37717016D01*
X77922409Y-37937889D02*
X77776120Y-37791600D01*
X90548008Y-37696998D02*
X89982210Y-37131200D01*
X99607584Y-38036139D02*
X99268443Y-37696998D01*
X89372610Y-37131200D02*
X89321810Y-37182000D01*
X89982210Y-37131200D02*
X89372610Y-37131200D01*
X77158003Y-37717016D02*
X60906527Y-37717016D01*
%TO.N,SW_D*%
X60782263Y-37417016D02*
X58718996Y-39480283D01*
X99675550Y-37396998D02*
X90677744Y-37396998D01*
X105933999Y-37735000D02*
X100013552Y-37735000D01*
X56741800Y-39480283D02*
X56580572Y-39319055D01*
X56580572Y-39319055D02*
X55816587Y-39319055D01*
X69874564Y-36729600D02*
X69187148Y-37417016D01*
X89197546Y-36882000D02*
X85184346Y-36882000D01*
X77900384Y-37491600D02*
X77356851Y-37491600D01*
X77356851Y-37491600D02*
X77255251Y-37390000D01*
X73463862Y-36729600D02*
X69874564Y-36729600D01*
X55816587Y-39319055D02*
X55647643Y-39487999D01*
X74124262Y-37390000D02*
X73463862Y-36729600D01*
X58718996Y-39480283D02*
X56741800Y-39480283D01*
X77255251Y-37390000D02*
X74124262Y-37390000D01*
X84428457Y-37637889D02*
X78046673Y-37637889D01*
X89248346Y-36831200D02*
X89197546Y-36882000D01*
X78046673Y-37637889D02*
X77900384Y-37491600D01*
X100013552Y-37735000D02*
X99675550Y-37396998D01*
X90677744Y-37396998D02*
X90111946Y-36831200D01*
X85184346Y-36882000D02*
X84428457Y-37637889D01*
X69187148Y-37417016D02*
X60782263Y-37417016D01*
X90111946Y-36831200D02*
X89248346Y-36831200D01*
%TO.N,I2C_SCL*%
X92037506Y-43823000D02*
X91935906Y-43823000D01*
X92330399Y-43225307D02*
X92330399Y-43530107D01*
%TO.N,SW_PUSH*%
X90269818Y-36180400D02*
X90219018Y-36180400D01*
X88070179Y-36231200D02*
X87968579Y-36129600D01*
%TO.N,SW_C*%
X77481115Y-37191600D02*
X77125515Y-36836000D01*
X84094882Y-37191600D02*
X80264029Y-37191600D01*
%TO.N,SW_PUSH*%
X83970618Y-36891600D02*
X80139766Y-36891600D01*
X104189018Y-35888419D02*
X90510999Y-35888419D01*
%TO.N,SW_C*%
X87793515Y-36582000D02*
X87641115Y-36429600D01*
%TO.N,SW_PUSH*%
X84732618Y-36129600D02*
X83970618Y-36891600D01*
X104968799Y-36668200D02*
X104189018Y-35888419D01*
X76843379Y-36129600D02*
X69626036Y-36129600D01*
X90219018Y-36180400D02*
X90168218Y-36231200D01*
X87968579Y-36129600D02*
X84732618Y-36129600D01*
%TO.N,SW_C*%
X69062884Y-37117016D02*
X56544493Y-37117016D01*
%TO.N,SW_PUSH*%
X55506799Y-36803400D02*
X54879999Y-37430200D01*
X69626036Y-36129600D02*
X68952236Y-36803400D01*
X78295201Y-37037889D02*
X78148912Y-36891600D01*
X77605379Y-36891600D02*
X76843379Y-36129600D01*
X68952236Y-36803400D02*
X55506799Y-36803400D01*
%TO.N,SW_C*%
X73588126Y-36429600D02*
X69750300Y-36429600D01*
X73994526Y-36836000D02*
X73588126Y-36429600D01*
X90858280Y-37096998D02*
X90292482Y-36531200D01*
%TO.N,SW_PUSH*%
X78148912Y-36891600D02*
X77605379Y-36891600D01*
X80139766Y-36891600D02*
X79993476Y-37037889D01*
X90168218Y-36231200D02*
X88070179Y-36231200D01*
X90510999Y-35939219D02*
X90269818Y-36180400D01*
X90510999Y-35888419D02*
X90510999Y-35939219D01*
%TO.N,SW_C*%
X89073282Y-36582000D02*
X87793515Y-36582000D01*
X56544493Y-37117016D02*
X55127416Y-38534093D01*
%TO.N,SW_PUSH*%
X79993476Y-37037889D02*
X78295201Y-37037889D01*
%TO.N,SW_C*%
X84856882Y-36429600D02*
X84094882Y-37191600D01*
X80264029Y-37191600D02*
X80117740Y-37337889D01*
X89124082Y-36531200D02*
X89073282Y-36582000D01*
X87641115Y-36429600D02*
X84856882Y-36429600D01*
X78024648Y-37191600D02*
X77481115Y-37191600D01*
X90292482Y-36531200D02*
X89124082Y-36531200D01*
X77125515Y-36836000D02*
X73994526Y-36836000D01*
X105375199Y-37277800D02*
X105194397Y-37096998D01*
X80117740Y-37337889D02*
X78170937Y-37337889D01*
X105194397Y-37096998D02*
X90858280Y-37096998D01*
X69750300Y-36429600D02*
X69062884Y-37117016D01*
X78170937Y-37337889D02*
X78024648Y-37191600D01*
%TO.N,SW_A*%
X97090708Y-38751000D02*
X96336706Y-37996998D01*
X85432874Y-37482000D02*
X84676985Y-38237889D01*
X84676985Y-38237889D02*
X77254612Y-38237889D01*
X58913599Y-40305400D02*
X56244457Y-40305400D01*
X99945599Y-38751000D02*
X97090708Y-38751000D01*
X96336706Y-37996998D02*
X90418272Y-37996998D01*
X89852474Y-37431200D02*
X89496874Y-37431200D01*
X77254612Y-38237889D02*
X77033739Y-38017016D01*
X89496874Y-37431200D02*
X89446074Y-37482000D01*
X89446074Y-37482000D02*
X85432874Y-37482000D01*
X77033739Y-38017016D02*
X61201983Y-38017016D01*
X90418272Y-37996998D02*
X89852474Y-37431200D01*
X56244457Y-40305400D02*
X56212428Y-40337429D01*
X61201983Y-38017016D02*
X58913599Y-40305400D01*
%TO.N,48*%
X83517168Y-57750460D02*
X83961828Y-57305800D01*
X84624570Y-57305800D02*
X84726170Y-57407400D01*
X83961828Y-57305800D02*
X84624570Y-57305800D01*
X87779562Y-57407400D02*
X88499275Y-58127113D01*
X78517999Y-59137800D02*
X78517999Y-58641283D01*
X78857599Y-59477400D02*
X78517999Y-59137800D01*
X88499275Y-58127113D02*
X89313472Y-58127113D01*
X78517999Y-58641283D02*
X79408822Y-57750460D01*
X84726170Y-57407400D02*
X87779562Y-57407400D01*
X79408822Y-57750460D02*
X83517168Y-57750460D01*
%TO.N,I2C_SCL*%
X105425999Y-41951400D02*
X96383599Y-41951400D01*
X91840190Y-43918716D02*
X91830399Y-43918716D01*
X106899199Y-40478200D02*
X105425999Y-41951400D01*
X93604306Y-41951400D02*
X92330399Y-43225307D01*
X96383599Y-41951400D02*
X93604306Y-41951400D01*
X92330399Y-43530107D02*
X92037506Y-43823000D01*
X91935906Y-43823000D02*
X91840190Y-43918716D01*
X111471199Y-40478200D02*
X106899199Y-40478200D01*
%TO.N,I2C_SDA*%
X111742261Y-39482307D02*
X96360906Y-39482307D01*
X96360906Y-39482307D02*
X95832799Y-38954200D01*
D18*
%TO.N,Net-(U6-AVDRV)*%
X71186799Y-28743400D02*
X73970999Y-31527600D01*
X76139600Y-31174518D02*
X76139600Y-31588200D01*
X74369360Y-31527600D02*
X74439600Y-31457360D01*
X69561199Y-28743400D02*
X71186799Y-28743400D01*
X68646799Y-27829000D02*
X69561199Y-28743400D01*
X74937518Y-30676600D02*
X75641683Y-30676600D01*
X74439600Y-31174517D02*
X74937518Y-30676600D01*
X73970999Y-31527600D02*
X74369360Y-31527600D01*
X76139600Y-31588200D02*
X79398407Y-31588200D01*
X79398407Y-31588200D02*
X79658573Y-31328034D01*
X74439600Y-31457360D02*
X74439600Y-31174517D01*
D19*
%TO.N,SW_B*%
X89321810Y-37182000D02*
X85308610Y-37182000D01*
X84552721Y-37937889D02*
X77922409Y-37937889D01*
X77776120Y-37791600D02*
X77232587Y-37791600D01*
X85308610Y-37182000D02*
X84552721Y-37937889D01*
X58804488Y-39819055D02*
X56373465Y-39819055D01*
D18*
%TO.N,Net-(U6-AVDRV)*%
X75641683Y-30676600D02*
X76139600Y-31174518D01*
D19*
%TO.N,SW_B*%
X60906527Y-37717016D02*
X58804488Y-39819055D01*
D18*
%TO.N,+3V3*%
X93995999Y-27321000D02*
X92675199Y-27321000D01*
X102581199Y-43018200D02*
X99482399Y-43018200D01*
X94097599Y-27422600D02*
X93995999Y-27321000D01*
X99482399Y-43018200D02*
X98974399Y-43526200D01*
X50942999Y-35728400D02*
X47615599Y-32401000D01*
X58410599Y-35728400D02*
X50942999Y-35728400D01*
X89169999Y-27270200D02*
X87612201Y-27270200D01*
X92675199Y-27321000D02*
X92624399Y-27270200D01*
X92624399Y-27270200D02*
X89169999Y-27270200D01*
X87612201Y-27270200D02*
X87493599Y-27151598D01*
%TO.N,+18V*%
X58218536Y-42036000D02*
X61056101Y-42036000D01*
X52390799Y-41748200D02*
X52986136Y-42343537D01*
X57910999Y-42343537D02*
X58218536Y-42036000D01*
X61056101Y-42036000D02*
X61296220Y-42276119D01*
X52986136Y-42343537D02*
X57910999Y-42343537D01*
D19*
%TO.N,ADC_2_RP*%
X111506579Y-44866726D02*
X111168180Y-44528327D01*
X100027326Y-45011600D02*
X99343872Y-45011600D01*
X100510599Y-44528327D02*
X100027326Y-45011600D01*
D18*
%TO.N,LED_GND*%
X58410599Y-38268400D02*
X56124779Y-38268400D01*
X51069999Y-39817800D02*
X49520599Y-38268400D01*
X54304199Y-56896457D02*
X49749199Y-56896457D01*
X88306399Y-50638200D02*
X93487999Y-50638200D01*
X95621599Y-49927000D02*
X98466399Y-52771800D01*
X55122643Y-39621489D02*
X54926332Y-39817800D01*
X93487999Y-50638200D02*
X94351599Y-49774600D01*
X94503999Y-49927000D02*
X95621599Y-49927000D01*
X56124779Y-38268400D02*
X55122643Y-39270536D01*
X55122643Y-39270536D02*
X55122643Y-39621489D01*
X72538199Y-32177600D02*
X74794262Y-32177600D01*
X47818799Y-35753800D02*
X41875199Y-35753800D01*
X54926332Y-39817800D02*
X51069999Y-39817800D01*
X41875199Y-35753800D02*
X39360599Y-38268400D01*
D19*
%TO.N,SW_B*%
X99268443Y-37696998D02*
X90548008Y-37696998D01*
D18*
%TO.N,LED_GND*%
X74794262Y-32177600D02*
X75367431Y-31604431D01*
X98466399Y-52771800D02*
X98466399Y-52975000D01*
X70831199Y-30470600D02*
X72538199Y-32177600D01*
X94351599Y-49774600D02*
X94503999Y-49927000D01*
D19*
%TO.N,/QSPI_SS*%
X102225599Y-40957190D02*
X102225599Y-41240200D01*
X113053999Y-39978200D02*
X103204589Y-39978200D01*
X113146167Y-40070368D02*
X113053999Y-39978200D01*
X103204589Y-39978200D02*
X102225599Y-40957190D01*
%TO.N,12*%
X62759635Y-52627400D02*
X63928035Y-51459000D01*
%TO.N,10*%
X68752306Y-49528600D02*
X69883661Y-50659955D01*
%TO.N,9*%
X68927370Y-49228600D02*
X69763441Y-50064671D01*
%TO.N,10*%
X69883661Y-50659955D02*
X71676742Y-50659955D01*
%TO.N,9*%
X60943106Y-49533400D02*
X67959828Y-49533400D01*
%TO.N,30*%
X80538882Y-51364800D02*
X80081682Y-51822000D01*
%TO.N,10*%
X68084092Y-49833400D02*
X68388892Y-49528600D01*
D18*
%TO.N,LED_GND*%
X88306399Y-50638200D02*
X83564196Y-50638200D01*
X74658057Y-51027742D02*
X72746413Y-51027742D01*
D19*
%TO.N,9*%
X60129485Y-50347021D02*
X60943106Y-49533400D01*
%TO.N,10*%
X56886599Y-50714400D02*
X59078984Y-50714400D01*
%TO.N,9*%
X68264628Y-49228600D02*
X68927370Y-49228600D01*
%TO.N,30*%
X73028935Y-51485920D02*
X72623825Y-51485920D01*
%TO.N,10*%
X62102490Y-49833400D02*
X68084092Y-49833400D01*
D18*
%TO.N,LED_GND*%
X72118387Y-51339281D02*
X72118387Y-51722945D01*
D19*
%TO.N,9*%
X71928520Y-50064671D02*
X72075313Y-50211464D01*
X57481510Y-50347021D02*
X60129485Y-50347021D01*
%TO.N,29*%
X83442234Y-49835616D02*
X80724564Y-49835616D01*
%TO.N,10*%
X60481608Y-51454282D02*
X62102490Y-49833400D01*
D18*
%TO.N,LED_GND*%
X72446748Y-51010920D02*
X72118387Y-51339281D01*
D19*
%TO.N,9*%
X69763441Y-50064671D02*
X71928520Y-50064671D01*
%TO.N,29*%
X74523438Y-50702742D02*
X72881033Y-50702742D01*
X72881033Y-50702742D02*
X72664211Y-50485920D01*
%TO.N,9*%
X57031656Y-49897167D02*
X57481510Y-50347021D01*
%TO.N,30*%
X94343599Y-51034200D02*
X94012999Y-51364800D01*
D18*
%TO.N,LED_GND*%
X83564196Y-50638200D02*
X83086612Y-50160616D01*
D19*
%TO.N,10*%
X59818866Y-51454282D02*
X60481608Y-51454282D01*
%TO.N,12*%
X56632599Y-52365400D02*
X56894599Y-52627400D01*
%TO.N,10*%
X59078984Y-50714400D02*
X59818866Y-51454282D01*
D18*
%TO.N,LED_GND*%
X74673939Y-51011861D02*
X74658057Y-51027742D01*
X73145383Y-52061987D02*
X73145383Y-52304066D01*
D19*
%TO.N,30*%
X75029779Y-51961861D02*
X73504876Y-51961861D01*
%TO.N,29*%
X79992979Y-50567200D02*
X74658980Y-50567200D01*
X83761192Y-50154574D02*
X83442234Y-49835616D01*
%TO.N,10*%
X68388892Y-49528600D02*
X68752306Y-49528600D01*
%TO.N,30*%
X94012999Y-51364800D02*
X80538882Y-51364800D01*
%TO.N,29*%
X80724564Y-49835616D02*
X79992979Y-50567200D01*
%TO.N,12*%
X70695138Y-51459000D02*
X71461280Y-52225142D01*
X63928035Y-51459000D02*
X70695138Y-51459000D01*
D18*
%TO.N,LED_GND*%
X83086612Y-50160616D02*
X80859183Y-50160616D01*
D19*
%TO.N,12*%
X72160964Y-52225142D02*
X72271743Y-52335920D01*
%TO.N,30*%
X75169640Y-51822000D02*
X75029779Y-51961861D01*
D18*
%TO.N,LED_GND*%
X72406362Y-52010920D02*
X73094316Y-52010920D01*
X80007938Y-51011861D02*
X74673939Y-51011861D01*
D19*
%TO.N,9*%
X67959828Y-49533400D02*
X68264628Y-49228600D01*
%TO.N,12*%
X72300261Y-52335920D02*
X72651740Y-52687399D01*
%TO.N,29*%
X74658980Y-50567200D02*
X74523438Y-50702742D01*
%TO.N,12*%
X71461280Y-52225142D02*
X72160964Y-52225142D01*
D18*
%TO.N,LED_GND*%
X72746413Y-51027742D02*
X72729591Y-51010920D01*
X73094316Y-52010920D02*
X73145383Y-52061987D01*
D19*
%TO.N,30*%
X73504876Y-51961861D02*
X73028935Y-51485920D01*
D18*
%TO.N,LED_GND*%
X80859183Y-50160616D02*
X80007938Y-51011861D01*
D19*
%TO.N,30*%
X80081682Y-51822000D02*
X75169640Y-51822000D01*
D18*
%TO.N,LED_GND*%
X72729591Y-51010920D02*
X72446748Y-51010920D01*
D19*
%TO.N,12*%
X72271743Y-52335920D02*
X72300261Y-52335920D01*
%TO.N,29*%
X92574682Y-50154574D02*
X83761192Y-50154574D01*
%TO.N,12*%
X56894599Y-52627400D02*
X62759635Y-52627400D01*
D18*
%TO.N,LED_GND*%
X72118387Y-51722945D02*
X72406362Y-52010920D01*
D19*
%TO.N,CS_A*%
X75044208Y-55197400D02*
X73997314Y-55197400D01*
X82074382Y-54820774D02*
X77219199Y-54820774D01*
%TO.N,37*%
X76034729Y-55589403D02*
X76874834Y-55589403D01*
X75168472Y-55497400D02*
X75213872Y-55452000D01*
%TO.N,39*%
X75897326Y-57152800D02*
X76000334Y-57049792D01*
%TO.N,CS_B*%
X73571936Y-55889403D02*
X73353120Y-55670587D01*
%TO.N,38*%
X68033743Y-56749792D02*
X75235128Y-56749792D01*
%TO.N,CS_A*%
X108427106Y-53486907D02*
X106992799Y-53486907D01*
%TO.N,37*%
X75897326Y-55452000D02*
X76034729Y-55589403D01*
%TO.N,39*%
X67149692Y-57931301D02*
X67149692Y-57704219D01*
%TO.N,34*%
X73695603Y-54471425D02*
X69073355Y-54471425D01*
%TO.N,CS_A*%
X69306903Y-54771425D02*
X69061323Y-55017005D01*
%TO.N,CS_B*%
X75338136Y-55752000D02*
X75200733Y-55889403D01*
%TO.N,CS_A*%
X82949176Y-54945980D02*
X82656283Y-54653087D01*
%TO.N,CS_B*%
X87820722Y-54173408D02*
X86225402Y-55768728D01*
%TO.N,CS_A*%
X88586970Y-53038600D02*
X87982870Y-53038600D01*
%TO.N,34*%
X80265526Y-53786166D02*
X77829543Y-53786166D01*
%TO.N,CS_B*%
X76999098Y-55889403D02*
X75910465Y-55889403D01*
%TO.N,34*%
X69073355Y-54471425D02*
X68827775Y-54717005D01*
%TO.N,CS_B*%
X83327648Y-56632600D02*
X82148135Y-55453087D01*
%TO.N,34*%
X77829543Y-53786166D02*
X76626306Y-54989403D01*
%TO.N,CS_B*%
X75200733Y-55889403D02*
X73571936Y-55889403D01*
X83986071Y-56632600D02*
X83327648Y-56632600D01*
%TO.N,CS_A*%
X84335409Y-55757400D02*
X83760209Y-56332600D01*
X87520722Y-53500748D02*
X87520722Y-54049144D01*
X76750570Y-55289403D02*
X76158993Y-55289403D01*
X62245449Y-55629012D02*
X58329811Y-55629012D01*
%TO.N,34*%
X76283257Y-54989403D02*
X76145854Y-54852000D01*
%TO.N,CS_A*%
X85632509Y-56209200D02*
X85470663Y-56209200D01*
X108626399Y-53686200D02*
X108427106Y-53486907D01*
X76021590Y-55152000D02*
X75089608Y-55152000D01*
X106766137Y-53713569D02*
X105537156Y-53713569D01*
%TO.N,37*%
X73873050Y-55497400D02*
X75168472Y-55497400D01*
X77311150Y-55153087D02*
X82449176Y-55153087D01*
%TO.N,CS_B*%
X88107134Y-53338600D02*
X87820722Y-53625012D01*
%TO.N,39*%
X76000334Y-57049792D02*
X81906302Y-57049792D01*
%TO.N,CS_A*%
X77219199Y-54820774D02*
X76750570Y-55289403D01*
X87520722Y-54049144D02*
X85925402Y-55644464D01*
X82656283Y-54653087D02*
X82242069Y-54653087D01*
%TO.N,CS_B*%
X75910465Y-55889403D02*
X75773062Y-55752000D01*
X86225402Y-56040571D02*
X85756773Y-56509200D01*
X85756773Y-56509200D02*
X85346399Y-56509200D01*
%TO.N,37*%
X66459876Y-56951661D02*
X67104241Y-56307296D01*
%TO.N,CS_A*%
X68551111Y-55017005D02*
X68091906Y-54557800D01*
X68091906Y-54557800D02*
X63316661Y-54557800D01*
%TO.N,34*%
X68827775Y-54717005D02*
X68368570Y-54257800D01*
%TO.N,CS_B*%
X77435414Y-55453087D02*
X76999098Y-55889403D01*
%TO.N,34*%
X68368570Y-54257800D02*
X62257488Y-54257800D01*
%TO.N,CS_A*%
X75089608Y-55152000D02*
X75044208Y-55197400D01*
%TO.N,34*%
X80427602Y-53948242D02*
X80265526Y-53786166D01*
%TO.N,39*%
X67059876Y-57200189D02*
X67352769Y-56907296D01*
%TO.N,CS_B*%
X82148135Y-55453087D02*
X77435414Y-55453087D01*
%TO.N,CS_A*%
X82949176Y-55821418D02*
X82949176Y-54945980D01*
%TO.N,34*%
X62257488Y-54257800D02*
X62185688Y-54329600D01*
%TO.N,37*%
X75213872Y-55452000D02*
X75897326Y-55452000D01*
%TO.N,CS_A*%
X76158993Y-55289403D02*
X76021590Y-55152000D01*
%TO.N,39*%
X67059876Y-57614403D02*
X67059876Y-57200189D01*
%TO.N,37*%
X70031945Y-55071425D02*
X73447075Y-55071425D01*
%TO.N,CS_B*%
X108727999Y-54346600D02*
X108528706Y-54545893D01*
X87820722Y-53625012D02*
X87820722Y-54173408D01*
%TO.N,CS_A*%
X87982870Y-53038600D02*
X87520722Y-53500748D01*
%TO.N,38*%
X66759876Y-57308237D02*
X66759876Y-57075925D01*
%TO.N,CS_A*%
X105370187Y-53546600D02*
X89094970Y-53546600D01*
X105537156Y-53713569D02*
X105370187Y-53546600D01*
%TO.N,38*%
X75235128Y-56749792D02*
X75338136Y-56852800D01*
%TO.N,39*%
X67149692Y-57704219D02*
X67059876Y-57614403D01*
%TO.N,38*%
X75338136Y-56852800D02*
X75773062Y-56852800D01*
%TO.N,CS_A*%
X73571339Y-54771425D02*
X69306903Y-54771425D01*
X85018863Y-55757400D02*
X84335409Y-55757400D01*
%TO.N,CS_B*%
X88462706Y-53338600D02*
X88107134Y-53338600D01*
%TO.N,CS_A*%
X83760209Y-56332600D02*
X83460358Y-56332600D01*
%TO.N,CS_B*%
X85346399Y-56509200D02*
X84894599Y-56057400D01*
%TO.N,34*%
X74121578Y-54897400D02*
X73695603Y-54471425D01*
%TO.N,CS_A*%
X73997314Y-55197400D02*
X73571339Y-54771425D01*
%TO.N,38*%
X75773062Y-56852800D02*
X75876070Y-56749792D01*
X67228505Y-56607296D02*
X67891247Y-56607296D01*
%TO.N,CS_B*%
X84894599Y-56057400D02*
X84561271Y-56057400D01*
%TO.N,38*%
X75876070Y-56749792D02*
X81380599Y-56749792D01*
%TO.N,37*%
X67104241Y-56307296D02*
X68015511Y-56307296D01*
%TO.N,39*%
X67352769Y-56907296D02*
X67766983Y-56907296D01*
%TO.N,34*%
X76626306Y-54989403D02*
X76283257Y-54989403D01*
%TO.N,39*%
X81906302Y-57049792D02*
X82119475Y-56836619D01*
%TO.N,37*%
X66459876Y-56961231D02*
X66459876Y-56951661D01*
X65685653Y-57735454D02*
X66459876Y-56961231D01*
%TO.N,39*%
X75110864Y-57049792D02*
X75213872Y-57152800D01*
%TO.N,CS_B*%
X75773062Y-55752000D02*
X75338136Y-55752000D01*
%TO.N,38*%
X66759876Y-57075925D02*
X67228505Y-56607296D01*
%TO.N,CS_B*%
X108528706Y-54545893D02*
X89669999Y-54545893D01*
%TO.N,34*%
X74919944Y-54897400D02*
X74121578Y-54897400D01*
%TO.N,38*%
X81380599Y-56749792D02*
X82063113Y-56067278D01*
%TO.N,39*%
X75213872Y-57152800D02*
X75897326Y-57152800D01*
%TO.N,CS_A*%
X58329811Y-55629012D02*
X57877199Y-55176400D01*
%TO.N,34*%
X76145854Y-54852000D02*
X74965344Y-54852000D01*
%TO.N,CS_A*%
X89094970Y-53546600D02*
X88586970Y-53038600D01*
%TO.N,34*%
X74965344Y-54852000D02*
X74919944Y-54897400D01*
%TO.N,37*%
X73447075Y-55071425D02*
X73873050Y-55497400D01*
X68015511Y-56307296D02*
X68103815Y-56395600D01*
%TO.N,CS_A*%
X83460358Y-56332600D02*
X82949176Y-55821418D01*
%TO.N,CS_B*%
X89669999Y-54545893D02*
X88462706Y-53338600D01*
%TO.N,38*%
X66618756Y-57449357D02*
X66759876Y-57308237D01*
%TO.N,CS_B*%
X86225402Y-55768728D02*
X86225402Y-56040571D01*
%TO.N,CS_A*%
X69061323Y-55017005D02*
X68551111Y-55017005D01*
X82242069Y-54653087D02*
X82074382Y-54820774D01*
%TO.N,37*%
X68707770Y-56395600D02*
X70031945Y-55071425D01*
%TO.N,39*%
X67909479Y-57049792D02*
X75110864Y-57049792D01*
%TO.N,CS_A*%
X85470663Y-56209200D02*
X85018863Y-55757400D01*
X85925402Y-55916307D02*
X85632509Y-56209200D01*
X63316661Y-54557800D02*
X62245449Y-55629012D01*
%TO.N,CS_B*%
X84561271Y-56057400D02*
X83986071Y-56632600D01*
%TO.N,CS_A*%
X106992799Y-53486907D02*
X106766137Y-53713569D01*
%TO.N,38*%
X67891247Y-56607296D02*
X68033743Y-56749792D01*
%TO.N,CS_A*%
X85925402Y-55644464D02*
X85925402Y-55916307D01*
%TO.N,37*%
X68103815Y-56395600D02*
X68707770Y-56395600D01*
%TO.N,39*%
X67766983Y-56907296D02*
X67909479Y-57049792D01*
%TO.N,37*%
X76874834Y-55589403D02*
X77311150Y-55153087D01*
%TD*%
M02*
