%TF.GenerationSoftware,KiCad,Pcbnew,8.0.0*%
%TF.CreationDate,2024-02-28T09:47:00-08:00*%
%TF.ProjectId,SenseBarnacle,53656e73-6542-4617-926e-61636c652e6b,rev?*%
%TF.SameCoordinates,Original*%
%TF.FileFunction,Copper,L1,Top*%
%TF.FilePolarity,Positive*%
%FSLAX46Y46*%
G04 Gerber Fmt 4.6, Leading zero omitted, Abs format (unit mm)*
G04 Created by KiCad (PCBNEW 8.0.0) date 2024-02-28 09:47:00*
%MOMM*%
%LPD*%
G01*
G04 APERTURE LIST*
G04 Aperture macros list*
%AMRoundRect*
0 Rectangle with rounded corners*
0 $1 Rounding radius*
0 $2 $3 $4 $5 $6 $7 $8 $9 X,Y pos of 4 corners*
0 Add a 4 corners polygon primitive as box body*
4,1,4,$2,$3,$4,$5,$6,$7,$8,$9,$2,$3,0*
0 Add four circle primitives for the rounded corners*
1,1,$1+$1,$2,$3*
1,1,$1+$1,$4,$5*
1,1,$1+$1,$6,$7*
1,1,$1+$1,$8,$9*
0 Add four rect primitives between the rounded corners*
20,1,$1+$1,$2,$3,$4,$5,0*
20,1,$1+$1,$4,$5,$6,$7,0*
20,1,$1+$1,$6,$7,$8,$9,0*
20,1,$1+$1,$8,$9,$2,$3,0*%
%AMRotRect*
0 Rectangle, with rotation*
0 The origin of the aperture is its center*
0 $1 length*
0 $2 width*
0 $3 Rotation angle, in degrees counterclockwise*
0 Add horizontal line*
21,1,$1,$2,0,0,$3*%
%AMFreePoly0*
4,1,13,0.500000,-0.500000,0.000000,-0.500000,-0.095671,-0.480970,-0.176777,-0.426777,-0.230970,-0.345671,-0.250000,-0.250000,-0.250000,0.250000,-0.230970,0.345671,-0.176777,0.426777,-0.095671,0.480970,0.000000,0.500000,0.500000,0.500000,0.500000,-0.500000,0.500000,-0.500000,$1*%
%AMFreePoly1*
4,1,24,0.508000,0.148282,1.300000,0.150000,1.329264,0.147118,1.383336,0.124720,1.424720,0.083336,1.447118,0.029264,1.447118,-0.029264,1.424720,-0.083336,1.383336,-0.124720,1.329264,-0.147118,0.508000,-0.148898,0.508000,-0.508000,0.000000,-0.508000,-0.097202,-0.488665,-0.179605,-0.433605,-0.234665,-0.351202,-0.254000,-0.254000,-0.254000,0.254000,-0.234665,0.351202,-0.179605,0.433605,
-0.097202,0.488665,0.000000,0.508000,0.508000,0.508000,0.508000,0.148282,0.508000,0.148282,$1*%
%AMFreePoly2*
4,1,13,0.508000,-0.508000,0.000000,-0.508000,-0.097202,-0.488665,-0.179605,-0.433605,-0.234665,-0.351202,-0.254000,-0.254000,-0.254000,0.254000,-0.234665,0.351202,-0.179605,0.433605,-0.097202,0.488665,0.000000,0.508000,0.508000,0.508000,0.508000,-0.508000,0.508000,-0.508000,$1*%
G04 Aperture macros list end*
%ADD10C,0.100000*%
%TA.AperFunction,NonConductor*%
%ADD11C,0.100000*%
%TD*%
%TA.AperFunction,ComponentPad*%
%ADD12RoundRect,0.225000X-0.525000X-0.525000X0.525000X-0.525000X0.525000X0.525000X-0.525000X0.525000X0*%
%TD*%
%TA.AperFunction,ComponentPad*%
%ADD13RoundRect,0.525000X-0.225000X-0.225000X0.225000X-0.225000X0.225000X0.225000X-0.225000X0.225000X0*%
%TD*%
%TA.AperFunction,ComponentPad*%
%ADD14RoundRect,0.525000X-0.225000X0.225000X-0.225000X-0.225000X0.225000X-0.225000X0.225000X0.225000X0*%
%TD*%
%TA.AperFunction,ComponentPad*%
%ADD15RoundRect,0.525000X0.225000X-0.225000X0.225000X0.225000X-0.225000X0.225000X-0.225000X-0.225000X0*%
%TD*%
%TA.AperFunction,SMDPad,CuDef*%
%ADD16FreePoly0,0.000000*%
%TD*%
%TA.AperFunction,SMDPad,CuDef*%
%ADD17FreePoly0,180.000000*%
%TD*%
%TA.AperFunction,ComponentPad*%
%ADD18C,1.500000*%
%TD*%
%TA.AperFunction,SMDPad,CuDef*%
%ADD19RoundRect,0.250000X-0.450000X0.350000X-0.450000X-0.350000X0.450000X-0.350000X0.450000X0.350000X0*%
%TD*%
%TA.AperFunction,SMDPad,CuDef*%
%ADD20R,1.200000X0.500000*%
%TD*%
%TA.AperFunction,SMDPad,CuDef*%
%ADD21R,0.500000X1.200000*%
%TD*%
%TA.AperFunction,SMDPad,CuDef*%
%ADD22RoundRect,0.500000X0.100000X-0.100000X0.100000X0.100000X-0.100000X0.100000X-0.100000X-0.100000X0*%
%TD*%
%TA.AperFunction,SMDPad,CuDef*%
%ADD23RoundRect,0.250000X0.450000X-0.350000X0.450000X0.350000X-0.450000X0.350000X-0.450000X-0.350000X0*%
%TD*%
%TA.AperFunction,SMDPad,CuDef*%
%ADD24RoundRect,0.090000X0.360000X2.410000X-0.360000X2.410000X-0.360000X-2.410000X0.360000X-2.410000X0*%
%TD*%
%TA.AperFunction,SMDPad,CuDef*%
%ADD25FreePoly1,0.000000*%
%TD*%
%TA.AperFunction,SMDPad,CuDef*%
%ADD26FreePoly2,180.000000*%
%TD*%
%TA.AperFunction,SMDPad,CuDef*%
%ADD27RoundRect,0.160000X-0.160000X0.197500X-0.160000X-0.197500X0.160000X-0.197500X0.160000X0.197500X0*%
%TD*%
%TA.AperFunction,SMDPad,CuDef*%
%ADD28RoundRect,0.450000X-0.707107X0.070711X0.070711X-0.707107X0.707107X-0.070711X-0.070711X0.707107X0*%
%TD*%
%TA.AperFunction,SMDPad,CuDef*%
%ADD29RoundRect,0.250000X-0.477297X0.123744X0.123744X-0.477297X0.477297X-0.123744X-0.123744X0.477297X0*%
%TD*%
%TA.AperFunction,SMDPad,CuDef*%
%ADD30RoundRect,0.050000X-0.387500X-0.050000X0.387500X-0.050000X0.387500X0.050000X-0.387500X0.050000X0*%
%TD*%
%TA.AperFunction,SMDPad,CuDef*%
%ADD31RoundRect,0.050000X-0.050000X-0.387500X0.050000X-0.387500X0.050000X0.387500X-0.050000X0.387500X0*%
%TD*%
%TA.AperFunction,ComponentPad*%
%ADD32C,0.600000*%
%TD*%
%TA.AperFunction,SMDPad,CuDef*%
%ADD33RoundRect,0.144000X-1.456000X-1.456000X1.456000X-1.456000X1.456000X1.456000X-1.456000X1.456000X0*%
%TD*%
%TA.AperFunction,SMDPad,CuDef*%
%ADD34RoundRect,0.500000X-0.100000X0.100000X-0.100000X-0.100000X0.100000X-0.100000X0.100000X0.100000X0*%
%TD*%
%TA.AperFunction,SMDPad,CuDef*%
%ADD35RotRect,0.500000X2.500000X135.000000*%
%TD*%
%TA.AperFunction,SMDPad,CuDef*%
%ADD36RotRect,2.000000X2.500000X135.000000*%
%TD*%
%TA.AperFunction,SMDPad,CuDef*%
%ADD37RoundRect,0.250000X-0.337500X-0.475000X0.337500X-0.475000X0.337500X0.475000X-0.337500X0.475000X0*%
%TD*%
%TA.AperFunction,ComponentPad*%
%ADD38O,1.300000X1.500000*%
%TD*%
%TA.AperFunction,ViaPad*%
%ADD39C,0.350000*%
%TD*%
%TA.AperFunction,Conductor*%
%ADD40C,0.200000*%
%TD*%
%TA.AperFunction,Conductor*%
%ADD41C,0.150000*%
%TD*%
G04 APERTURE END LIST*
D10*
D11*
G36*
X69932509Y-18220000D02*
G01*
X69831393Y-18220000D01*
X69706096Y-18132463D01*
X68925984Y-18132463D01*
X68796536Y-18220000D01*
X68696885Y-18220000D01*
X68870459Y-18101200D01*
X68970437Y-18101200D01*
X69663598Y-18101200D01*
X69323612Y-17863600D01*
X69317017Y-17863600D01*
X68970437Y-18101200D01*
X68870459Y-18101200D01*
X69263284Y-17832337D01*
X69377834Y-17832337D01*
X69932509Y-18220000D01*
G37*
G36*
X70109585Y-18220000D02*
G01*
X70022146Y-18220000D01*
X70022146Y-17944884D01*
X70108120Y-17944884D01*
X70103235Y-18003210D01*
X70100304Y-18002623D01*
X70119805Y-17984420D01*
X70136452Y-17974780D01*
X70172650Y-17960995D01*
X70199222Y-17954263D01*
X70246604Y-17946453D01*
X70290081Y-17942344D01*
X70340150Y-17939806D01*
X70388945Y-17938762D01*
X70415377Y-17938632D01*
X70432474Y-17938632D01*
X70485162Y-17938979D01*
X70536453Y-17940182D01*
X70587927Y-17942758D01*
X70591721Y-17943028D01*
X70639365Y-17947968D01*
X70683392Y-17957133D01*
X70685510Y-17957780D01*
X70718769Y-17973397D01*
X70730206Y-17985331D01*
X70738782Y-18005647D01*
X70741187Y-18025608D01*
X70741197Y-18027145D01*
X70741197Y-18033984D01*
X70738755Y-18044926D01*
X70656689Y-18044926D01*
X70656689Y-18031542D01*
X70654139Y-18011545D01*
X70648629Y-17999497D01*
X70622610Y-17982657D01*
X70616878Y-17980935D01*
X70569221Y-17973746D01*
X70543361Y-17972142D01*
X70493385Y-17970606D01*
X70440056Y-17969974D01*
X70409760Y-17969895D01*
X70394372Y-17969895D01*
X70345394Y-17970513D01*
X70293636Y-17972797D01*
X70273228Y-17974291D01*
X70224379Y-17980300D01*
X70183835Y-17989532D01*
X70148381Y-18004081D01*
X70128392Y-18018646D01*
X70114893Y-18037764D01*
X70109879Y-18057702D01*
X70109585Y-18064466D01*
X70109585Y-18220000D01*
G37*
G36*
X71273402Y-18226252D02*
G01*
X71219786Y-18226000D01*
X71170493Y-18225242D01*
X71119454Y-18223759D01*
X71068786Y-18221301D01*
X71063598Y-18220976D01*
X71015670Y-18216729D01*
X70967035Y-18208962D01*
X70933905Y-18200265D01*
X70900364Y-18185629D01*
X70876740Y-18167124D01*
X70869181Y-18157278D01*
X70859308Y-18136624D01*
X70854278Y-18116978D01*
X70852110Y-18097438D01*
X70851839Y-18086936D01*
X70851839Y-18077948D01*
X70852923Y-18057175D01*
X70856733Y-18036229D01*
X70864185Y-18015964D01*
X70869181Y-18007020D01*
X70886514Y-17988207D01*
X70915060Y-17971671D01*
X70934638Y-17964424D01*
X70979372Y-17953638D01*
X71025725Y-17947131D01*
X71064331Y-17943907D01*
X71113850Y-17941357D01*
X71163965Y-17939791D01*
X71219821Y-17938884D01*
X71273402Y-17938632D01*
X71305643Y-17938632D01*
X71359758Y-17938888D01*
X71409018Y-17939658D01*
X71458634Y-17941136D01*
X71492977Y-17942735D01*
X71544405Y-17946774D01*
X71590507Y-17953320D01*
X71611190Y-17957780D01*
X71648743Y-17970652D01*
X71672984Y-17987578D01*
X71685606Y-18007536D01*
X71690294Y-18028376D01*
X71690569Y-18035450D01*
X71690569Y-18044926D01*
X71606061Y-18044926D01*
X71606061Y-18037697D01*
X71602684Y-18017564D01*
X71594093Y-18003600D01*
X71565013Y-17987242D01*
X71550374Y-17983182D01*
X71502853Y-17975902D01*
X71459027Y-17972826D01*
X71409350Y-17971040D01*
X71360344Y-17970181D01*
X71310325Y-17969898D01*
X71304421Y-17969895D01*
X71274868Y-17969895D01*
X71221684Y-17970139D01*
X71168713Y-17970998D01*
X71118376Y-17972677D01*
X71096571Y-17973803D01*
X71047991Y-17978219D01*
X71002478Y-17987064D01*
X70995698Y-17989141D01*
X70964177Y-18005013D01*
X70950025Y-18021674D01*
X70943067Y-18041173D01*
X70939950Y-18061223D01*
X70939278Y-18077850D01*
X70939278Y-18087034D01*
X70940399Y-18107529D01*
X70944704Y-18128522D01*
X70950758Y-18143014D01*
X70968221Y-18161552D01*
X70997164Y-18175352D01*
X71042906Y-18185380D01*
X71093930Y-18190616D01*
X71098036Y-18190886D01*
X71148794Y-18193222D01*
X71198138Y-18194412D01*
X71247902Y-18194925D01*
X71274868Y-18194989D01*
X71304421Y-18194989D01*
X71356519Y-18194749D01*
X71407380Y-18193921D01*
X71458654Y-18192147D01*
X71462446Y-18191960D01*
X71512886Y-18188112D01*
X71555259Y-18181311D01*
X71591356Y-18167834D01*
X71599711Y-18161186D01*
X71610265Y-18141236D01*
X71611679Y-18128066D01*
X71611679Y-18119958D01*
X71696187Y-18119958D01*
X71696187Y-18130314D01*
X71693508Y-18150189D01*
X71683610Y-18169904D01*
X71677136Y-18177208D01*
X71651490Y-18193890D01*
X71612656Y-18206810D01*
X71567249Y-18215161D01*
X71519324Y-18220235D01*
X71492244Y-18222051D01*
X71441802Y-18224266D01*
X71390287Y-18225559D01*
X71339629Y-18226150D01*
X71305643Y-18226252D01*
X71273402Y-18226252D01*
G37*
G36*
X72692698Y-18220000D02*
G01*
X72605259Y-18220000D01*
X72605259Y-18066713D01*
X72604047Y-18046975D01*
X72599488Y-18027310D01*
X72595001Y-18017180D01*
X72577398Y-17998657D01*
X72554945Y-17987969D01*
X72509916Y-17977979D01*
X72467994Y-17973803D01*
X72415508Y-17971273D01*
X72366631Y-17970204D01*
X72316319Y-17969895D01*
X72292384Y-17969895D01*
X72242123Y-17970305D01*
X72191685Y-17971704D01*
X72146326Y-17974096D01*
X72096157Y-17978939D01*
X72051535Y-17986909D01*
X72043744Y-17988848D01*
X72006525Y-18002292D01*
X71983416Y-18017864D01*
X71969392Y-18037665D01*
X71964182Y-18058854D01*
X71963877Y-18066127D01*
X71963877Y-18220000D01*
X71876438Y-18220000D01*
X71876438Y-17832337D01*
X71963877Y-17832337D01*
X71957527Y-18002623D01*
X71956061Y-18002330D01*
X71975486Y-17984157D01*
X71991721Y-17974682D01*
X72027937Y-17961310D01*
X72055712Y-17954752D01*
X72104062Y-17947370D01*
X72152575Y-17942989D01*
X72156340Y-17942735D01*
X72205971Y-17940235D01*
X72258527Y-17938956D01*
X72306550Y-17938632D01*
X72330241Y-17938632D01*
X72381059Y-17938937D01*
X72432719Y-17940010D01*
X72483275Y-17942109D01*
X72505852Y-17943517D01*
X72554178Y-17948321D01*
X72600747Y-17956808D01*
X72617471Y-17961395D01*
X72651274Y-17975696D01*
X72673914Y-17994419D01*
X72676089Y-17997250D01*
X72686843Y-18017871D01*
X72691660Y-18038393D01*
X72692698Y-18055087D01*
X72692698Y-18220000D01*
G37*
G36*
X72985789Y-18220000D02*
G01*
X72898350Y-18220000D01*
X72898350Y-17944884D01*
X72985789Y-17944884D01*
X72985789Y-18220000D01*
G37*
G36*
X72985789Y-17882358D02*
G01*
X72898350Y-17882358D01*
X72898350Y-17832337D01*
X72985789Y-17832337D01*
X72985789Y-17882358D01*
G37*
G36*
X73499920Y-18226252D02*
G01*
X73449947Y-18225698D01*
X73398850Y-18223614D01*
X73371693Y-18221563D01*
X73323850Y-18214120D01*
X73291825Y-18203293D01*
X73266304Y-18185893D01*
X73252258Y-18165778D01*
X73245709Y-18145989D01*
X73242361Y-18124495D01*
X73241511Y-18104521D01*
X73241511Y-17976147D01*
X73105224Y-17976147D01*
X73105224Y-17944884D01*
X73241511Y-17944884D01*
X73241511Y-17876106D01*
X73328950Y-17876106D01*
X73328950Y-17944884D01*
X73821344Y-17944884D01*
X73821344Y-17976147D01*
X73328950Y-17976147D01*
X73328950Y-18101884D01*
X73329758Y-18121932D01*
X73332797Y-18141726D01*
X73335789Y-18151807D01*
X73348726Y-18171423D01*
X73360702Y-18179748D01*
X73401756Y-18190732D01*
X73414435Y-18192058D01*
X73465101Y-18194505D01*
X73509690Y-18194989D01*
X73539243Y-18194989D01*
X73589813Y-18194441D01*
X73638883Y-18192261D01*
X73646466Y-18191667D01*
X73692548Y-18184178D01*
X73705084Y-18179846D01*
X73727968Y-18162065D01*
X73730730Y-18156789D01*
X73735828Y-18136309D01*
X73736836Y-18118883D01*
X73736836Y-18088695D01*
X73818657Y-18088695D01*
X73818657Y-18122595D01*
X73817012Y-18142395D01*
X73810826Y-18162639D01*
X73804735Y-18173398D01*
X73786112Y-18191472D01*
X73757596Y-18205443D01*
X73716168Y-18215984D01*
X73669425Y-18221758D01*
X73620259Y-18224668D01*
X73566862Y-18226037D01*
X73532160Y-18226252D01*
X73499920Y-18226252D01*
G37*
G36*
X74438725Y-17938870D02*
G01*
X74490894Y-17939727D01*
X74543234Y-17941434D01*
X74584114Y-17943614D01*
X74632920Y-17948044D01*
X74680926Y-17955869D01*
X74705259Y-17962079D01*
X74740990Y-17976688D01*
X74764378Y-17995418D01*
X74766564Y-17998227D01*
X74777475Y-18018562D01*
X74782363Y-18038765D01*
X74783416Y-18055184D01*
X74783416Y-18088695D01*
X74036278Y-18088695D01*
X74036278Y-18091723D01*
X74037721Y-18112767D01*
X74042586Y-18132249D01*
X74048490Y-18144480D01*
X74067807Y-18163125D01*
X74095384Y-18175547D01*
X74140920Y-18185472D01*
X74191463Y-18190622D01*
X74195524Y-18190886D01*
X74245831Y-18193222D01*
X74294633Y-18194412D01*
X74343787Y-18194925D01*
X74370402Y-18194989D01*
X74397024Y-18194989D01*
X74449888Y-18194734D01*
X74501465Y-18193852D01*
X74553409Y-18191963D01*
X74557248Y-18191765D01*
X74607877Y-18187798D01*
X74649816Y-18181018D01*
X74686131Y-18166822D01*
X74693047Y-18160795D01*
X74702954Y-18140800D01*
X74704282Y-18127773D01*
X74704282Y-18119958D01*
X74789034Y-18119958D01*
X74789034Y-18128946D01*
X74786355Y-18148922D01*
X74776457Y-18168824D01*
X74769983Y-18176231D01*
X74744154Y-18193108D01*
X74704770Y-18206224D01*
X74659143Y-18214746D01*
X74611698Y-18219967D01*
X74585091Y-18221856D01*
X74535565Y-18224174D01*
X74484874Y-18225527D01*
X74434949Y-18226145D01*
X74401421Y-18226252D01*
X74370402Y-18226252D01*
X74316309Y-18225976D01*
X74266658Y-18225149D01*
X74215351Y-18223528D01*
X74164566Y-18220843D01*
X74159376Y-18220488D01*
X74111391Y-18215893D01*
X74062939Y-18207760D01*
X74030171Y-18198799D01*
X73996947Y-18183990D01*
X73973478Y-18165440D01*
X73965936Y-18155617D01*
X73956202Y-18134963D01*
X73951243Y-18115317D01*
X73949106Y-18095778D01*
X73948839Y-18085275D01*
X73948839Y-18078436D01*
X73949922Y-18057706D01*
X73949972Y-18057431D01*
X74037987Y-18057431D01*
X74697443Y-18057431D01*
X74697443Y-18051277D01*
X74695386Y-18031102D01*
X74687357Y-18011431D01*
X74686696Y-18010439D01*
X74663440Y-17992698D01*
X74643954Y-17985722D01*
X74598882Y-17977372D01*
X74550897Y-17973314D01*
X74498942Y-17971231D01*
X74446516Y-17970229D01*
X74392235Y-17969898D01*
X74385789Y-17969895D01*
X74363319Y-17969895D01*
X74312226Y-17970127D01*
X74261352Y-17970943D01*
X74208671Y-17972737D01*
X74192104Y-17973607D01*
X74142430Y-17977978D01*
X74097948Y-17986301D01*
X74095873Y-17986894D01*
X74063186Y-18001907D01*
X74051176Y-18013956D01*
X74041895Y-18033618D01*
X74038182Y-18054228D01*
X74037987Y-18057431D01*
X73949972Y-18057431D01*
X73953733Y-18036793D01*
X73961184Y-18016548D01*
X73966180Y-18007606D01*
X73983307Y-17988752D01*
X74011164Y-17972079D01*
X74030171Y-17964717D01*
X74073635Y-17953741D01*
X74123271Y-17946673D01*
X74156445Y-17943907D01*
X74210350Y-17941125D01*
X74259657Y-17939642D01*
X74314459Y-17938817D01*
X74359167Y-17938632D01*
X74388720Y-17938632D01*
X74438725Y-17938870D01*
G37*
G36*
X75771623Y-18220000D02*
G01*
X75684184Y-18220000D01*
X75690534Y-18162847D01*
X75692000Y-18163140D01*
X75673949Y-18181489D01*
X75657806Y-18190886D01*
X75621093Y-18203968D01*
X75592837Y-18210425D01*
X75544038Y-18217654D01*
X75495258Y-18221992D01*
X75491476Y-18222247D01*
X75441994Y-18224687D01*
X75389515Y-18225935D01*
X75341511Y-18226252D01*
X75317820Y-18226252D01*
X75267475Y-18225910D01*
X75216020Y-18224708D01*
X75165282Y-18222357D01*
X75142453Y-18220781D01*
X75093830Y-18215551D01*
X75047087Y-18206602D01*
X75030346Y-18201828D01*
X74996718Y-18187042D01*
X74975307Y-18169368D01*
X74971972Y-18165094D01*
X74961851Y-18145974D01*
X74956677Y-18125624D01*
X74955363Y-18106964D01*
X74955363Y-17944884D01*
X75042802Y-17944884D01*
X75042802Y-18093677D01*
X75043986Y-18113852D01*
X75048435Y-18134124D01*
X75052816Y-18144675D01*
X75069299Y-18163085D01*
X75093116Y-18175254D01*
X75135414Y-18185493D01*
X75180067Y-18190593D01*
X75232795Y-18193439D01*
X75282187Y-18194641D01*
X75333207Y-18194989D01*
X75357143Y-18194989D01*
X75407308Y-18194588D01*
X75457421Y-18193222D01*
X75502223Y-18190886D01*
X75552058Y-18185994D01*
X75599167Y-18177428D01*
X75604317Y-18176133D01*
X75641467Y-18162607D01*
X75664400Y-18146824D01*
X75678601Y-18126792D01*
X75683701Y-18107242D01*
X75684184Y-18098171D01*
X75684184Y-17944884D01*
X75771623Y-17944884D01*
X75771623Y-18220000D01*
G37*
G36*
X76282335Y-18226252D02*
G01*
X76232361Y-18225698D01*
X76181264Y-18223614D01*
X76154107Y-18221563D01*
X76106265Y-18214120D01*
X76074240Y-18203293D01*
X76048719Y-18185893D01*
X76034673Y-18165778D01*
X76028124Y-18145989D01*
X76024776Y-18124495D01*
X76023926Y-18104521D01*
X76023926Y-17976147D01*
X75887638Y-17976147D01*
X75887638Y-17944884D01*
X76023926Y-17944884D01*
X76023926Y-17876106D01*
X76111365Y-17876106D01*
X76111365Y-17944884D01*
X76603758Y-17944884D01*
X76603758Y-17976147D01*
X76111365Y-17976147D01*
X76111365Y-18101884D01*
X76112173Y-18121932D01*
X76115212Y-18141726D01*
X76118204Y-18151807D01*
X76131141Y-18171423D01*
X76143116Y-18179748D01*
X76184170Y-18190732D01*
X76196850Y-18192058D01*
X76247516Y-18194505D01*
X76292104Y-18194989D01*
X76321658Y-18194989D01*
X76372228Y-18194441D01*
X76421298Y-18192261D01*
X76428880Y-18191667D01*
X76474962Y-18184178D01*
X76487499Y-18179846D01*
X76510382Y-18162065D01*
X76513144Y-18156789D01*
X76518243Y-18136309D01*
X76519250Y-18118883D01*
X76519250Y-18088695D01*
X76601072Y-18088695D01*
X76601072Y-18122595D01*
X76599427Y-18142395D01*
X76593241Y-18162639D01*
X76587150Y-18173398D01*
X76568526Y-18191472D01*
X76540011Y-18205443D01*
X76498583Y-18215984D01*
X76451839Y-18221758D01*
X76402674Y-18224668D01*
X76349276Y-18226037D01*
X76314575Y-18226252D01*
X76282335Y-18226252D01*
G37*
G36*
X77578532Y-18220000D02*
G01*
X77491093Y-18220000D01*
X77491093Y-18066713D01*
X77489880Y-18046975D01*
X77485322Y-18027310D01*
X77480834Y-18017180D01*
X77463232Y-17998657D01*
X77440779Y-17987969D01*
X77395750Y-17977979D01*
X77353828Y-17973803D01*
X77301342Y-17971273D01*
X77252465Y-17970204D01*
X77202153Y-17969895D01*
X77178218Y-17969895D01*
X77127957Y-17970305D01*
X77077519Y-17971704D01*
X77032160Y-17974096D01*
X76981991Y-17978939D01*
X76937369Y-17986909D01*
X76929578Y-17988848D01*
X76892359Y-18002292D01*
X76869250Y-18017864D01*
X76855225Y-18037665D01*
X76850016Y-18058854D01*
X76849711Y-18066127D01*
X76849711Y-18220000D01*
X76762272Y-18220000D01*
X76762272Y-17832337D01*
X76849711Y-17832337D01*
X76843361Y-18002623D01*
X76841895Y-18002330D01*
X76861320Y-17984157D01*
X76877555Y-17974682D01*
X76913771Y-17961310D01*
X76941546Y-17954752D01*
X76989896Y-17947370D01*
X77038409Y-17942989D01*
X77042174Y-17942735D01*
X77091805Y-17940235D01*
X77144361Y-17938956D01*
X77192384Y-17938632D01*
X77216075Y-17938632D01*
X77266893Y-17938937D01*
X77318552Y-17940010D01*
X77369109Y-17942109D01*
X77391686Y-17943517D01*
X77440012Y-17948321D01*
X77486581Y-17956808D01*
X77503305Y-17961395D01*
X77537108Y-17975696D01*
X77559748Y-17994419D01*
X77561923Y-17997250D01*
X77572676Y-18017871D01*
X77577494Y-18038393D01*
X77578532Y-18055087D01*
X77578532Y-18220000D01*
G37*
G36*
X77871623Y-18220000D02*
G01*
X77784184Y-18220000D01*
X77784184Y-17944884D01*
X77871623Y-17944884D01*
X77871623Y-18220000D01*
G37*
G36*
X77871623Y-17882358D02*
G01*
X77784184Y-17882358D01*
X77784184Y-17832337D01*
X77871623Y-17832337D01*
X77871623Y-17882358D01*
G37*
G36*
X78456096Y-18226252D02*
G01*
X78402773Y-18226098D01*
X78347586Y-18225544D01*
X78298535Y-18224587D01*
X78250688Y-18223028D01*
X78200937Y-18220186D01*
X78152411Y-18215041D01*
X78128078Y-18210914D01*
X78087618Y-18198298D01*
X78068971Y-18185024D01*
X78057980Y-18165778D01*
X78054374Y-18145090D01*
X78054317Y-18141842D01*
X78054317Y-18132463D01*
X78138825Y-18132463D01*
X78138825Y-18140181D01*
X78142191Y-18160104D01*
X78146640Y-18168122D01*
X78179061Y-18183362D01*
X78184498Y-18184535D01*
X78232259Y-18190304D01*
X78278532Y-18192742D01*
X78328101Y-18194021D01*
X78377202Y-18194673D01*
X78427302Y-18194954D01*
X78454631Y-18194989D01*
X78508120Y-18194989D01*
X78559238Y-18194796D01*
X78608650Y-18194128D01*
X78657680Y-18192697D01*
X78661260Y-18192547D01*
X78710964Y-18189274D01*
X78746257Y-18184535D01*
X78781777Y-18170831D01*
X78782893Y-18169685D01*
X78791233Y-18150268D01*
X78791442Y-18145847D01*
X78791442Y-18140767D01*
X78785959Y-18121081D01*
X78783137Y-18117711D01*
X78745043Y-18104457D01*
X78743081Y-18104131D01*
X78693698Y-18099037D01*
X78646117Y-18096901D01*
X78595569Y-18095789D01*
X78545710Y-18095222D01*
X78494969Y-18094978D01*
X78467331Y-18094947D01*
X78414673Y-18094798D01*
X78360302Y-18094260D01*
X78306543Y-18093189D01*
X78265342Y-18091821D01*
X78217016Y-18088958D01*
X78166781Y-18083444D01*
X78146396Y-18079902D01*
X78105972Y-18067428D01*
X78090220Y-18056552D01*
X78079004Y-18036511D01*
X78076787Y-18019623D01*
X78076787Y-18012784D01*
X78081405Y-17992515D01*
X78093151Y-17977515D01*
X78123052Y-17961609D01*
X78150060Y-17954263D01*
X78197565Y-17946887D01*
X78246414Y-17942836D01*
X78258992Y-17942149D01*
X78310592Y-17940146D01*
X78359380Y-17939126D01*
X78414079Y-17938663D01*
X78433626Y-17938632D01*
X78474414Y-17938632D01*
X78527140Y-17938821D01*
X78580837Y-17939486D01*
X78633521Y-17940788D01*
X78657108Y-17941660D01*
X78707472Y-17944738D01*
X78755550Y-17950551D01*
X78772635Y-17953775D01*
X78812528Y-17966469D01*
X78832230Y-17979762D01*
X78845053Y-17999082D01*
X78849260Y-18020114D01*
X78849327Y-18023433D01*
X78849327Y-18032421D01*
X78764819Y-18032421D01*
X78764819Y-18024508D01*
X78760432Y-18005021D01*
X78755538Y-17997934D01*
X78722710Y-17982501D01*
X78717436Y-17981325D01*
X78670247Y-17975006D01*
X78631218Y-17972533D01*
X78578093Y-17970825D01*
X78528396Y-17970103D01*
X78477101Y-17969895D01*
X78439243Y-17969895D01*
X78388792Y-17970080D01*
X78335631Y-17970811D01*
X78288301Y-17972240D01*
X78239819Y-17975146D01*
X78205259Y-17979371D01*
X78170332Y-17992365D01*
X78162790Y-18012206D01*
X78162760Y-18013859D01*
X78162760Y-18020307D01*
X78169982Y-18040136D01*
X78171553Y-18041702D01*
X78209463Y-18054387D01*
X78211365Y-18054696D01*
X78259307Y-18059498D01*
X78304910Y-18061632D01*
X78358342Y-18062883D01*
X78412576Y-18063484D01*
X78462318Y-18063676D01*
X78475636Y-18063684D01*
X78528387Y-18063834D01*
X78583094Y-18064371D01*
X78637523Y-18065443D01*
X78679578Y-18066810D01*
X78729300Y-18069560D01*
X78777718Y-18074357D01*
X78801944Y-18078143D01*
X78842636Y-18089663D01*
X78861783Y-18101786D01*
X78874423Y-18121532D01*
X78877415Y-18140181D01*
X78877415Y-18145847D01*
X78873980Y-18165341D01*
X78861783Y-18183852D01*
X78834126Y-18200244D01*
X78804386Y-18208960D01*
X78758723Y-18216550D01*
X78708991Y-18221184D01*
X78691790Y-18222247D01*
X78638414Y-18224527D01*
X78587529Y-18225689D01*
X78536849Y-18226190D01*
X78509585Y-18226252D01*
X78456096Y-18226252D01*
G37*
G36*
X79628218Y-18220000D02*
G01*
X79536626Y-18220000D01*
X79536626Y-17832337D01*
X80448385Y-17832337D01*
X80448385Y-17863600D01*
X79628218Y-17863600D01*
X79628218Y-18007411D01*
X80414680Y-18007411D01*
X80414680Y-18038674D01*
X79628218Y-18038674D01*
X79628218Y-18220000D01*
G37*
G36*
X80665761Y-18220000D02*
G01*
X80578322Y-18220000D01*
X80578322Y-17832337D01*
X80665761Y-17832337D01*
X80665761Y-18220000D01*
G37*
G36*
X81684254Y-18220000D02*
G01*
X81596815Y-18220000D01*
X81603165Y-18162847D01*
X81604631Y-18163140D01*
X81586580Y-18181489D01*
X81570437Y-18190886D01*
X81533724Y-18203968D01*
X81505468Y-18210425D01*
X81456668Y-18217654D01*
X81407889Y-18221992D01*
X81404107Y-18222247D01*
X81354625Y-18224687D01*
X81302146Y-18225935D01*
X81254142Y-18226252D01*
X81230451Y-18226252D01*
X81180106Y-18225910D01*
X81128650Y-18224708D01*
X81077913Y-18222357D01*
X81055084Y-18220781D01*
X81006461Y-18215551D01*
X80959718Y-18206602D01*
X80942977Y-18201828D01*
X80909349Y-18187042D01*
X80887938Y-18169368D01*
X80884603Y-18165094D01*
X80874482Y-18145974D01*
X80869308Y-18125624D01*
X80867994Y-18106964D01*
X80867994Y-17944884D01*
X80955433Y-17944884D01*
X80955433Y-18093677D01*
X80956616Y-18113852D01*
X80961066Y-18134124D01*
X80965447Y-18144675D01*
X80981930Y-18163085D01*
X81005747Y-18175254D01*
X81048045Y-18185493D01*
X81092698Y-18190593D01*
X81145426Y-18193439D01*
X81194818Y-18194641D01*
X81245838Y-18194989D01*
X81269774Y-18194989D01*
X81319939Y-18194588D01*
X81370052Y-18193222D01*
X81414854Y-18190886D01*
X81464689Y-18185994D01*
X81511797Y-18177428D01*
X81516947Y-18176133D01*
X81554098Y-18162607D01*
X81577031Y-18146824D01*
X81591231Y-18126792D01*
X81596332Y-18107242D01*
X81596815Y-18098171D01*
X81596815Y-17944884D01*
X81684254Y-17944884D01*
X81684254Y-18220000D01*
G37*
G36*
X82697617Y-18220000D02*
G01*
X82580137Y-18220000D01*
X82242837Y-18095631D01*
X81899676Y-18220000D01*
X81784882Y-18220000D01*
X82180311Y-18077362D01*
X81814435Y-17944884D01*
X81928985Y-17944884D01*
X82242593Y-18060265D01*
X82554735Y-17944884D01*
X82669529Y-17944884D01*
X82303654Y-18077362D01*
X82697617Y-18220000D01*
G37*
D12*
%TO.P,J5,1,Pin_1*%
%TO.N,I2C_SDA*%
X58410599Y-30648400D03*
D13*
%TO.P,J5,2,Pin_2*%
%TO.N,I2C_SCL*%
X58410599Y-33188400D03*
%TO.P,J5,3,Pin_3*%
%TO.N,+3V3*%
X58410599Y-35728400D03*
%TO.P,J5,4,Pin_4*%
%TO.N,LED_GND*%
X58410599Y-38268400D03*
%TD*%
D14*
%TO.P,J3,1,Pin_1*%
%TO.N,LED_5V*%
X38725599Y-26838400D03*
%TO.P,J3,2,Pin_2*%
%TO.N,+3V3*%
X41265599Y-26838400D03*
%TO.P,J3,3,Pin_3*%
%TO.N,LED_GND*%
X43805599Y-26838400D03*
%TO.P,J3,4,Pin_4*%
%TO.N,-3.5V*%
X46345599Y-26838400D03*
%TO.P,J3,5,Pin_5*%
%TO.N,+18V*%
X48885599Y-26838400D03*
%TD*%
D15*
%TO.P,TP6,1,1*%
%TO.N,Select_Probe*%
X35550599Y-46523400D03*
%TD*%
D16*
%TO.P,JP1,1,A*%
%TO.N,TOP_RAIL_POS*%
X49799999Y-53381400D03*
D17*
%TO.P,JP1,2,B*%
%TO.N,LED_5V*%
X51425599Y-53381400D03*
%TD*%
D18*
%TO.P,U5,1,Vin*%
%TO.N,LED_5V*%
X36795199Y-29403800D03*
%TO.P,U5,2,GND*%
%TO.N,LED_GND*%
X39335199Y-29403800D03*
%TO.P,U5,3,-3.5V*%
%TO.N,-3.5V*%
X46955199Y-29403800D03*
%TO.P,U5,4,COM*%
%TO.N,LED_GND*%
X49495199Y-29403800D03*
%TO.P,U5,5,+18V*%
%TO.N,+18V*%
X52035199Y-29403800D03*
%TD*%
D19*
%TO.P,R22,1*%
%TO.N,Net-(U13-Y2)*%
X74539599Y-39030400D03*
%TO.P,R22,2*%
%TO.N,AOUT1R*%
X74539599Y-41030400D03*
%TD*%
D15*
%TO.P,TP7,1,1*%
%TO.N,Button_Probe*%
X35550599Y-43983400D03*
%TD*%
D20*
%TO.P,U15,1,X14*%
%TO.N,55*%
X84689199Y-46734200D03*
%TO.P,U15,2,X15*%
%TO.N,56*%
X84689199Y-47534200D03*
%TO.P,U15,3,X6*%
%TO.N,47*%
X84689199Y-48334200D03*
%TO.P,U15,4,X7*%
%TO.N,48*%
X84689199Y-49134200D03*
%TO.P,U15,5,X8*%
%TO.N,49*%
X84689199Y-49934200D03*
%TO.P,U15,6,X9*%
%TO.N,50*%
X84689199Y-50734200D03*
%TO.P,U15,7,X10*%
%TO.N,51*%
X84689199Y-51534200D03*
%TO.P,U15,8,X11*%
%TO.N,52*%
X84689199Y-52334200D03*
%TO.P,U15,9*%
%TO.N,N/C*%
X84689199Y-53134200D03*
%TO.P,U15,10*%
X84689199Y-53934200D03*
%TO.P,U15,11,X23*%
%TO.N,BOTTOM_RAIL_NEG*%
X84689199Y-54734200D03*
D21*
%TO.P,U15,12,VSS/GND*%
%TO.N,LED_GND*%
X86389199Y-56434200D03*
%TO.P,U15,13,X22*%
%TO.N,BOTTOM_RAIL_POS*%
X87189199Y-56434200D03*
%TO.P,U15,14,STB*%
%TO.N,CS_C*%
X87989199Y-56434200D03*
%TO.P,U15,15,X21*%
%TO.N,TOP_RAIL_NEG*%
X88789199Y-56434200D03*
%TO.P,U15,16,VEE*%
%TO.N,-3.5V*%
X89589199Y-56434200D03*
%TO.P,U15,17,X20*%
%TO.N,TOP_RAIL_POS*%
X90389199Y-56434200D03*
%TO.P,U15,18,Y1*%
%TO.N,Net-(U15-Y1)*%
X91189199Y-56434200D03*
%TO.P,U15,19,Y2*%
%TO.N,Net-(U15-Y2)*%
X91989199Y-56434200D03*
%TO.P,U15,20,Y4*%
%TO.N,Net-(U15-Y4)*%
X92789199Y-56434200D03*
%TO.P,U15,21*%
%TO.N,N/C*%
X93589199Y-56434200D03*
%TO.P,U15,22*%
X94389199Y-56434200D03*
D20*
%TO.P,U15,23*%
X96089199Y-54734200D03*
%TO.P,U15,24,X13*%
%TO.N,54*%
X96089199Y-53934200D03*
%TO.P,U15,25,X12*%
%TO.N,53*%
X96089199Y-53134200D03*
%TO.P,U15,26,X5*%
%TO.N,46*%
X96089199Y-52334200D03*
%TO.P,U15,27,X4*%
%TO.N,45*%
X96089199Y-51534200D03*
%TO.P,U15,28,X3*%
%TO.N,44*%
X96089199Y-50734200D03*
%TO.P,U15,29,X2*%
%TO.N,43*%
X96089199Y-49934200D03*
%TO.P,U15,30,X1*%
%TO.N,42*%
X96089199Y-49134200D03*
%TO.P,U15,31,X0*%
%TO.N,41*%
X96089199Y-48334200D03*
%TO.P,U15,32*%
%TO.N,N/C*%
X96089199Y-47534200D03*
%TO.P,U15,33,X16*%
%TO.N,57*%
X96089199Y-46734200D03*
D21*
%TO.P,U15,34,CS/CLK*%
%TO.N,CLK*%
X94389199Y-45034200D03*
%TO.P,U15,35,X17*%
%TO.N,58*%
X93589199Y-45034200D03*
%TO.P,U15,36,DATA*%
%TO.N,DATA*%
X92789199Y-45034200D03*
%TO.P,U15,37,X18*%
%TO.N,59*%
X91989199Y-45034200D03*
%TO.P,U15,38,VDD*%
%TO.N,+18V*%
X91189199Y-45034200D03*
%TO.P,U15,39,X19*%
%TO.N,60*%
X90389199Y-45034200D03*
%TO.P,U15,40*%
%TO.N,N/C*%
X89589199Y-45034200D03*
%TO.P,U15,41,RST*%
%TO.N,RESET*%
X88789199Y-45034200D03*
%TO.P,U15,42,Y3*%
%TO.N,Y3_C*%
X87989199Y-45034200D03*
%TO.P,U15,43,Y0*%
%TO.N,Y0_C*%
X87189199Y-45034200D03*
%TO.P,U15,44*%
%TO.N,N/C*%
X86389199Y-45034200D03*
%TD*%
D22*
%TO.P,TP3,1,1*%
%TO.N,AOUT1R*%
X100890915Y-26203400D03*
%TD*%
D23*
%TO.P,R15,1*%
%TO.N,Net-(U2C-+)*%
X86207600Y-36982400D03*
%TO.P,R15,2*%
%TO.N,LED_GND*%
X86207600Y-34982400D03*
%TD*%
D24*
%TO.P,J6,31,Pin_31*%
%TO.N,1*%
X57750199Y-21123400D03*
%TO.P,J6,32,Pin_32*%
%TO.N,2*%
X59020199Y-21123400D03*
%TO.P,J6,33,Pin_33*%
%TO.N,3*%
X60290199Y-21123400D03*
%TO.P,J6,34,Pin_34*%
%TO.N,4*%
X61560199Y-21123400D03*
%TO.P,J6,35,Pin_35*%
%TO.N,5*%
X62830199Y-21123400D03*
%TO.P,J6,36,Pin_36*%
%TO.N,6*%
X64100199Y-21123400D03*
%TO.P,J6,37,Pin_37*%
%TO.N,7*%
X65370199Y-21123400D03*
%TO.P,J6,38,Pin_38*%
%TO.N,8*%
X66640199Y-21123400D03*
%TO.P,J6,39,Pin_39*%
%TO.N,9*%
X67910199Y-21123400D03*
%TO.P,J6,40,Pin_40*%
%TO.N,10*%
X69180199Y-21123400D03*
%TO.P,J6,41,Pin_41*%
%TO.N,11*%
X70450199Y-21123400D03*
%TO.P,J6,42,Pin_42*%
%TO.N,12*%
X71720199Y-21123400D03*
%TO.P,J6,43,Pin_43*%
%TO.N,13*%
X72990199Y-21123400D03*
%TO.P,J6,44,Pin_44*%
%TO.N,14*%
X74260199Y-21123400D03*
%TO.P,J6,45,Pin_45*%
%TO.N,15*%
X75530199Y-21123400D03*
%TO.P,J6,46,Pin_46*%
%TO.N,16*%
X76800199Y-21123400D03*
%TO.P,J6,47,Pin_47*%
%TO.N,17*%
X78070199Y-21123400D03*
%TO.P,J6,48,Pin_48*%
%TO.N,18*%
X79340199Y-21123400D03*
%TO.P,J6,49,Pin_49*%
%TO.N,19*%
X80610199Y-21123400D03*
%TO.P,J6,50,Pin_50*%
%TO.N,20*%
X81880199Y-21123400D03*
%TO.P,J6,51,Pin_51*%
%TO.N,21*%
X83150199Y-21123400D03*
%TO.P,J6,52,Pin_52*%
%TO.N,22*%
X84420199Y-21123400D03*
%TO.P,J6,53,Pin_53*%
%TO.N,23*%
X85690199Y-21123400D03*
%TO.P,J6,54,Pin_54*%
%TO.N,24*%
X86960199Y-21123400D03*
%TO.P,J6,55,Pin_55*%
%TO.N,25*%
X88230199Y-21123400D03*
%TO.P,J6,56,Pin_56*%
%TO.N,26*%
X89500199Y-21123400D03*
%TO.P,J6,57,Pin_57*%
%TO.N,27*%
X90770199Y-21123400D03*
%TO.P,J6,58,Pin_58*%
%TO.N,28*%
X92040199Y-21123400D03*
%TO.P,J6,59,Pin_59*%
%TO.N,29*%
X93310199Y-21123400D03*
%TO.P,J6,60,Pin_60*%
%TO.N,30*%
X94580199Y-21123400D03*
%TO.P,J6,63,Pin_63*%
%TO.N,TOP_RAIL_POS*%
X95850199Y-21123400D03*
%TO.P,J6,64,Pin_64*%
%TO.N,TOP_RAIL_NEG*%
X97120199Y-21123400D03*
%TO.P,J6,65,Pin_65*%
%TO.N,LED_GND*%
X53940199Y-21123400D03*
%TO.P,J6,66,Pin_66*%
%TO.N,LED_OUT*%
X55210199Y-21123400D03*
%TO.P,J6,67,Pin_67*%
%TO.N,LED_5V*%
X56480199Y-21123400D03*
%TD*%
D23*
%TO.P,R10,1*%
%TO.N,Net-(U1A--)*%
X82143600Y-41062400D03*
%TO.P,R10,2*%
%TO.N,Net-(U2A-+)*%
X82143600Y-39062400D03*
%TD*%
%TO.P,R17,1*%
%TO.N,Net-(U2D-+)*%
X88239600Y-36982400D03*
%TO.P,R17,2*%
%TO.N,LED_GND*%
X88239600Y-34982400D03*
%TD*%
%TO.P,R21,1*%
%TO.N,Net-(U13-Y1)*%
X63855600Y-32045400D03*
%TO.P,R21,2*%
%TO.N,LED_GND*%
X63855600Y-30045400D03*
%TD*%
%TO.P,R39,1*%
%TO.N,Net-(JP5-C)*%
X88255599Y-31648400D03*
%TO.P,R39,2*%
%TO.N,Net-(U2A--)*%
X88255599Y-29648400D03*
%TD*%
%TO.P,R8,1*%
%TO.N,+3V3*%
X65887600Y-36490400D03*
%TO.P,R8,2*%
%TO.N,Net-(U14-Y1)*%
X65887600Y-34490400D03*
%TD*%
%TO.P,R41,1*%
%TO.N,Net-(JP3-C)*%
X84445599Y-31648400D03*
%TO.P,R41,2*%
%TO.N,Net-(U2C--)*%
X84445599Y-29648400D03*
%TD*%
D25*
%TO.P,JP7,1,A*%
%TO.N,LED_GND*%
X49799999Y-56930100D03*
D26*
%TO.P,JP7,2,B*%
%TO.N,TOP_RAIL_NEG*%
X51425599Y-56930100D03*
%TD*%
D23*
%TO.P,R18,1*%
%TO.N,+3V3*%
X67919600Y-36490400D03*
%TO.P,R18,2*%
%TO.N,Net-(U15-Y1)*%
X67919600Y-34490400D03*
%TD*%
D22*
%TO.P,TP4,1,1*%
%TO.N,AOUT1L*%
X98415599Y-26203400D03*
%TD*%
D23*
%TO.P,R11,1*%
%TO.N,Net-(U2A-+)*%
X82143600Y-36966400D03*
%TO.P,R11,2*%
%TO.N,LED_GND*%
X82143600Y-34966400D03*
%TD*%
D19*
%TO.P,R35,1*%
%TO.N,+3V3*%
X93970599Y-39173400D03*
%TO.P,R35,2*%
%TO.N,I2C_SDA*%
X93970599Y-41173400D03*
%TD*%
D23*
%TO.P,R14,1*%
%TO.N,Net-(U1C--)*%
X86207600Y-41046400D03*
%TO.P,R14,2*%
%TO.N,Net-(U2C-+)*%
X86207600Y-39046400D03*
%TD*%
D27*
%TO.P,R2,1*%
%TO.N,/USB_D-*%
X107559599Y-38724400D03*
%TO.P,R2,2*%
%TO.N,Net-(U9-USB_DM)*%
X107559599Y-39919400D03*
%TD*%
D23*
%TO.P,R25,1*%
%TO.N,Net-(U13-Y4)*%
X63855600Y-41030400D03*
%TO.P,R25,2*%
%TO.N,LED_GND*%
X63855600Y-39030400D03*
%TD*%
%TO.P,R13,1*%
%TO.N,Net-(U2B-+)*%
X84175600Y-36982400D03*
%TO.P,R13,2*%
%TO.N,LED_GND*%
X84175600Y-34982400D03*
%TD*%
D22*
%TO.P,TP2,1,1*%
%TO.N,AOUT2L*%
X103390915Y-26203400D03*
%TD*%
D15*
%TO.P,TP13,1,1*%
%TO.N,Voltage_Probe*%
X35550599Y-41483400D03*
%TD*%
D28*
%TO.P,U4,*%
%TO.N,*%
X39544817Y-53832182D03*
X45272381Y-48104618D03*
D29*
%TO.P,U4,1,A*%
%TO.N,Net-(U4-A)*%
X40888319Y-47432866D03*
%TO.P,U4,2,Center*%
%TO.N,Net-(U4-Center)*%
X39880692Y-48440493D03*
%TO.P,U4,3,C*%
%TO.N,Net-(U4-C)*%
X38873065Y-49448120D03*
%TO.P,U4,4,B*%
%TO.N,Net-(U4-B)*%
X45944133Y-52488680D03*
%TO.P,U4,5,Common*%
%TO.N,LED_GND*%
X44936506Y-53496307D03*
%TO.P,U4,6,D*%
%TO.N,Net-(U4-D)*%
X43928879Y-54503934D03*
%TD*%
D18*
%TO.P,U12,1,Vin*%
%TO.N,LED_5V*%
X36820599Y-38268400D03*
%TO.P,U12,2,GND*%
%TO.N,LED_GND*%
X39360599Y-38268400D03*
%TO.P,U12,3,-3.5V*%
%TO.N,-3.5V*%
X46980599Y-38268400D03*
%TO.P,U12,4,COM*%
%TO.N,LED_GND*%
X49520599Y-38268400D03*
%TO.P,U12,5,+18V*%
%TO.N,+18V*%
X52060599Y-38268400D03*
%TD*%
D20*
%TO.P,U13,1,X14*%
%TO.N,15*%
X54844199Y-46734200D03*
%TO.P,U13,2,X15*%
%TO.N,16*%
X54844199Y-47534200D03*
%TO.P,U13,3,X6*%
%TO.N,7*%
X54844199Y-48334200D03*
%TO.P,U13,4,X7*%
%TO.N,8*%
X54844199Y-49134200D03*
%TO.P,U13,5,X8*%
%TO.N,9*%
X54844199Y-49934200D03*
%TO.P,U13,6,X9*%
%TO.N,10*%
X54844199Y-50734200D03*
%TO.P,U13,7,X10*%
%TO.N,11*%
X54844199Y-51534200D03*
%TO.P,U13,8,X11*%
%TO.N,12*%
X54844199Y-52334200D03*
%TO.P,U13,9*%
%TO.N,N/C*%
X54844199Y-53134200D03*
%TO.P,U13,10*%
X54844199Y-53934200D03*
%TO.P,U13,11,X23*%
%TO.N,BOTTOM_RAIL_NEG*%
X54844199Y-54734200D03*
D21*
%TO.P,U13,12,VSS/GND*%
%TO.N,LED_GND*%
X56544199Y-56434200D03*
%TO.P,U13,13,X22*%
%TO.N,BOTTOM_RAIL_POS*%
X57344199Y-56434200D03*
%TO.P,U13,14,STB*%
%TO.N,CS_A*%
X58144199Y-56434200D03*
%TO.P,U13,15,X21*%
%TO.N,TOP_RAIL_NEG*%
X58944199Y-56434200D03*
%TO.P,U13,16,VEE*%
%TO.N,-3.5V*%
X59744199Y-56434200D03*
%TO.P,U13,17,X20*%
%TO.N,TOP_RAIL_POS*%
X60544199Y-56434200D03*
%TO.P,U13,18,Y1*%
%TO.N,Net-(U13-Y1)*%
X61344199Y-56434200D03*
%TO.P,U13,19,Y2*%
%TO.N,Net-(U13-Y2)*%
X62144199Y-56434200D03*
%TO.P,U13,20,Y4*%
%TO.N,Net-(U13-Y4)*%
X62944199Y-56434200D03*
%TO.P,U13,21*%
%TO.N,N/C*%
X63744199Y-56434200D03*
%TO.P,U13,22*%
X64544199Y-56434200D03*
D20*
%TO.P,U13,23*%
X66244199Y-54734200D03*
%TO.P,U13,24,X13*%
%TO.N,14*%
X66244199Y-53934200D03*
%TO.P,U13,25,X12*%
%TO.N,13*%
X66244199Y-53134200D03*
%TO.P,U13,26,X5*%
%TO.N,6*%
X66244199Y-52334200D03*
%TO.P,U13,27,X4*%
%TO.N,5*%
X66244199Y-51534200D03*
%TO.P,U13,28,X3*%
%TO.N,4*%
X66244199Y-50734200D03*
%TO.P,U13,29,X2*%
%TO.N,3*%
X66244199Y-49934200D03*
%TO.P,U13,30,X1*%
%TO.N,2*%
X66244199Y-49134200D03*
%TO.P,U13,31,X0*%
%TO.N,1*%
X66244199Y-48334200D03*
%TO.P,U13,32*%
%TO.N,N/C*%
X66244199Y-47534200D03*
%TO.P,U13,33,X16*%
%TO.N,17*%
X66244199Y-46734200D03*
D21*
%TO.P,U13,34,CS/CLK*%
%TO.N,CLK*%
X64544199Y-45034200D03*
%TO.P,U13,35,X17*%
%TO.N,18*%
X63744199Y-45034200D03*
%TO.P,U13,36,DATA*%
%TO.N,DATA*%
X62944199Y-45034200D03*
%TO.P,U13,37,X18*%
%TO.N,19*%
X62144199Y-45034200D03*
%TO.P,U13,38,VDD*%
%TO.N,+18V*%
X61344199Y-45034200D03*
%TO.P,U13,39,X19*%
%TO.N,20*%
X60544199Y-45034200D03*
%TO.P,U13,40*%
%TO.N,N/C*%
X59744199Y-45034200D03*
%TO.P,U13,41,RST*%
%TO.N,RESET*%
X58944199Y-45034200D03*
%TO.P,U13,42,Y3*%
%TO.N,Y3_A*%
X58144199Y-45034200D03*
%TO.P,U13,43,Y0*%
%TO.N,Y0_A*%
X57344199Y-45034200D03*
%TO.P,U13,44*%
%TO.N,N/C*%
X56544199Y-45034200D03*
%TD*%
D30*
%TO.P,U9,1,IOVDD*%
%TO.N,+3V3*%
X103228099Y-45833400D03*
%TO.P,U9,2,GPIO0*%
%TO.N,Net-(U9-GPIO0)*%
X103228099Y-46233400D03*
%TO.P,U9,3,GPIO1*%
%TO.N,Net-(U9-GPIO1)*%
X103228099Y-46633400D03*
%TO.P,U9,4,GPIO2*%
%TO.N,GPI0_2*%
X103228099Y-47033400D03*
%TO.P,U9,5,GPIO3*%
%TO.N,SW_A*%
X103228099Y-47433400D03*
%TO.P,U9,6,GPIO4*%
%TO.N,SW_B*%
X103228099Y-47833400D03*
%TO.P,U9,7,GPIO5*%
%TO.N,CAD{slash}CSN*%
X103228099Y-48233400D03*
%TO.P,U9,8,GPIO6*%
%TO.N,PDN*%
X103228099Y-48633400D03*
%TO.P,U9,9,GPIO7*%
%TO.N,MCK*%
X103228099Y-49033400D03*
%TO.P,U9,10,IOVDD*%
%TO.N,+3V3*%
X103228099Y-49433400D03*
%TO.P,U9,11,GPIO8*%
%TO.N,BICK*%
X103228099Y-49833400D03*
%TO.P,U9,12,GPIO9*%
%TO.N,LRCK*%
X103228099Y-50233400D03*
%TO.P,U9,13,GPIO10*%
%TO.N,SDIN1*%
X103228099Y-50633400D03*
%TO.P,U9,14,GPIO11*%
%TO.N,SDIN2*%
X103228099Y-51033400D03*
D31*
%TO.P,U9,15,GPIO12*%
%TO.N,SDOUT2*%
X104065599Y-51870900D03*
%TO.P,U9,16,GPIO13*%
%TO.N,SDOUT1*%
X104465599Y-51870900D03*
%TO.P,U9,17,GPIO14*%
%TO.N,DATA*%
X104865599Y-51870900D03*
%TO.P,U9,18,GPIO15*%
%TO.N,CLK*%
X105265599Y-51870900D03*
%TO.P,U9,19,TESTEN*%
%TO.N,LED_GND*%
X105665599Y-51870900D03*
%TO.P,U9,20,XIN*%
%TO.N,/XIN*%
X106065599Y-51870900D03*
%TO.P,U9,21,XOUT*%
%TO.N,/XOUT*%
X106465599Y-51870900D03*
%TO.P,U9,22,IOVDD*%
%TO.N,+3V3*%
X106865599Y-51870900D03*
%TO.P,U9,23,DVDD*%
%TO.N,+1V1*%
X107265599Y-51870900D03*
%TO.P,U9,24,SWCLK*%
%TO.N,/SWCLK*%
X107665599Y-51870900D03*
%TO.P,U9,25,SWD*%
%TO.N,/SWD*%
X108065599Y-51870900D03*
%TO.P,U9,26,RUN*%
%TO.N,/RUN*%
X108465599Y-51870900D03*
%TO.P,U9,27,GPIO16*%
%TO.N,CS_A*%
X108865599Y-51870900D03*
%TO.P,U9,28,GPIO17*%
%TO.N,CS_B*%
X109265599Y-51870900D03*
D30*
%TO.P,U9,29,GPIO18*%
%TO.N,CS_C*%
X110103099Y-51033400D03*
%TO.P,U9,30,GPIO19*%
%TO.N,SW_PUSH*%
X110103099Y-50633400D03*
%TO.P,U9,31,GPIO20*%
%TO.N,I2C_SDA*%
X110103099Y-50233400D03*
%TO.P,U9,32,GPIO21*%
%TO.N,I2C_SCL*%
X110103099Y-49833400D03*
%TO.P,U9,33,IOVDD*%
%TO.N,+3V3*%
X110103099Y-49433400D03*
%TO.P,U9,34,GPIO22*%
%TO.N,SW_C*%
X110103099Y-49033400D03*
%TO.P,U9,35,GPIO23*%
%TO.N,SW_D*%
X110103099Y-48633400D03*
%TO.P,U9,36,GPIO24*%
%TO.N,RESET*%
X110103099Y-48233400D03*
%TO.P,U9,37,GPIO25*%
%TO.N,LED_DATA_IN*%
X110103099Y-47833400D03*
%TO.P,U9,38,GPIO26_ADC0*%
%TO.N,ADC_0_RP*%
X110103099Y-47433400D03*
%TO.P,U9,39,GPIO27_ADC1*%
%TO.N,ADC_1_RP*%
X110103099Y-47033400D03*
%TO.P,U9,40,GPIO28_ADC2*%
%TO.N,ADC_2_RP*%
X110103099Y-46633400D03*
%TO.P,U9,41,GPIO29_ADC3*%
%TO.N,ADC_3_RP*%
X110103099Y-46233400D03*
%TO.P,U9,42,IOVDD*%
%TO.N,+3V3*%
X110103099Y-45833400D03*
D31*
%TO.P,U9,43,ADC_AVDD*%
X109265599Y-44995900D03*
%TO.P,U9,44,VREG_IN*%
X108865599Y-44995900D03*
%TO.P,U9,45,VREG_VOUT*%
%TO.N,+1V1*%
X108465599Y-44995900D03*
%TO.P,U9,46,USB_DM*%
%TO.N,Net-(U9-USB_DM)*%
X108065599Y-44995900D03*
%TO.P,U9,47,USB_DP*%
%TO.N,Net-(U9-USB_DP)*%
X107665599Y-44995900D03*
%TO.P,U9,48,USB_VDD*%
%TO.N,+3V3*%
X107265599Y-44995900D03*
%TO.P,U9,49,IOVDD*%
X106865599Y-44995900D03*
%TO.P,U9,50,DVDD*%
%TO.N,+1V1*%
X106465599Y-44995900D03*
%TO.P,U9,51,QSPI_SD3*%
%TO.N,/QSPI_SD3*%
X106065599Y-44995900D03*
%TO.P,U9,52,QSPI_SCLK*%
%TO.N,/QSPI_SCLK*%
X105665599Y-44995900D03*
%TO.P,U9,53,QSPI_SD0*%
%TO.N,/QSPI_SD0*%
X105265599Y-44995900D03*
%TO.P,U9,54,QSPI_SD2*%
%TO.N,/QSPI_SD2*%
X104865599Y-44995900D03*
%TO.P,U9,55,QSPI_SD1*%
%TO.N,/QSPI_SD1*%
X104465599Y-44995900D03*
%TO.P,U9,56,QSPI_SS*%
%TO.N,/QSPI_SS*%
X104065599Y-44995900D03*
D32*
%TO.P,U9,57,GND*%
%TO.N,LED_GND*%
X105390599Y-47158400D03*
X105390599Y-48433400D03*
X105390599Y-49708400D03*
X106665599Y-47158400D03*
X106665599Y-48433400D03*
D33*
X106665599Y-48433400D03*
D32*
X106665599Y-49708400D03*
X107940599Y-47158400D03*
X107940599Y-48433400D03*
X107940599Y-49708400D03*
%TD*%
D23*
%TO.P,R26,1*%
%TO.N,Net-(U15-Y4)*%
X67919600Y-41046400D03*
%TO.P,R26,2*%
%TO.N,LED_GND*%
X67919600Y-39046400D03*
%TD*%
%TO.P,R40,1*%
%TO.N,Net-(JP4-C)*%
X86350599Y-31648400D03*
%TO.P,R40,2*%
%TO.N,Net-(U2B--)*%
X86350599Y-29648400D03*
%TD*%
D16*
%TO.P,JP6,1,A*%
%TO.N,BOTTOM_RAIL_POS*%
X49799999Y-55159400D03*
D17*
%TO.P,JP6,2,B*%
%TO.N,LED_5V*%
X51425599Y-55159400D03*
%TD*%
D23*
%TO.P,R20,1*%
%TO.N,+3V3*%
X63855600Y-36490400D03*
%TO.P,R20,2*%
%TO.N,Net-(U13-Y1)*%
X63855600Y-34490400D03*
%TD*%
D34*
%TO.P,TP16,1,1*%
%TO.N,GPI0_2*%
X115687599Y-55057800D03*
%TD*%
D27*
%TO.P,R1,1*%
%TO.N,/USB_D+*%
X106543599Y-38724400D03*
%TO.P,R1,2*%
%TO.N,Net-(U9-USB_DP)*%
X106543599Y-39919400D03*
%TD*%
D20*
%TO.P,U14,1,X14*%
%TO.N,35*%
X69840599Y-46734200D03*
%TO.P,U14,2,X15*%
%TO.N,36*%
X69840599Y-47534200D03*
%TO.P,U14,3,X6*%
%TO.N,27*%
X69840599Y-48334200D03*
%TO.P,U14,4,X7*%
%TO.N,28*%
X69840599Y-49134200D03*
%TO.P,U14,5,X8*%
%TO.N,29*%
X69840599Y-49934200D03*
%TO.P,U14,6,X9*%
%TO.N,30*%
X69840599Y-50734200D03*
%TO.P,U14,7,X10*%
%TO.N,31*%
X69840599Y-51534200D03*
%TO.P,U14,8,X11*%
%TO.N,32*%
X69840599Y-52334200D03*
%TO.P,U14,9*%
%TO.N,N/C*%
X69840599Y-53134200D03*
%TO.P,U14,10*%
X69840599Y-53934200D03*
%TO.P,U14,11,X23*%
%TO.N,BOTTOM_RAIL_NEG*%
X69840599Y-54734200D03*
D21*
%TO.P,U14,12,VSS/GND*%
%TO.N,LED_GND*%
X71540599Y-56434200D03*
%TO.P,U14,13,X22*%
%TO.N,BOTTOM_RAIL_POS*%
X72340599Y-56434200D03*
%TO.P,U14,14,STB*%
%TO.N,CS_B*%
X73140599Y-56434200D03*
%TO.P,U14,15,X21*%
%TO.N,TOP_RAIL_NEG*%
X73940599Y-56434200D03*
%TO.P,U14,16,VEE*%
%TO.N,-3.5V*%
X74740599Y-56434200D03*
%TO.P,U14,17,X20*%
%TO.N,TOP_RAIL_POS*%
X75540599Y-56434200D03*
%TO.P,U14,18,Y1*%
%TO.N,Net-(U14-Y1)*%
X76340599Y-56434200D03*
%TO.P,U14,19,Y2*%
%TO.N,Net-(U14-Y2)*%
X77140599Y-56434200D03*
%TO.P,U14,20,Y4*%
%TO.N,Net-(U14-Y4)*%
X77940599Y-56434200D03*
%TO.P,U14,21*%
%TO.N,N/C*%
X78740599Y-56434200D03*
%TO.P,U14,22*%
X79540599Y-56434200D03*
D20*
%TO.P,U14,23*%
X81240599Y-54734200D03*
%TO.P,U14,24,X13*%
%TO.N,34*%
X81240599Y-53934200D03*
%TO.P,U14,25,X12*%
%TO.N,33*%
X81240599Y-53134200D03*
%TO.P,U14,26,X5*%
%TO.N,26*%
X81240599Y-52334200D03*
%TO.P,U14,27,X4*%
%TO.N,25*%
X81240599Y-51534200D03*
%TO.P,U14,28,X3*%
%TO.N,24*%
X81240599Y-50734200D03*
%TO.P,U14,29,X2*%
%TO.N,23*%
X81240599Y-49934200D03*
%TO.P,U14,30,X1*%
%TO.N,22*%
X81240599Y-49134200D03*
%TO.P,U14,31,X0*%
%TO.N,21*%
X81240599Y-48334200D03*
%TO.P,U14,32*%
%TO.N,N/C*%
X81240599Y-47534200D03*
%TO.P,U14,33,X16*%
%TO.N,37*%
X81240599Y-46734200D03*
D21*
%TO.P,U14,34,CS/CLK*%
%TO.N,CLK*%
X79540599Y-45034200D03*
%TO.P,U14,35,X17*%
%TO.N,38*%
X78740599Y-45034200D03*
%TO.P,U14,36,DATA*%
%TO.N,DATA*%
X77940599Y-45034200D03*
%TO.P,U14,37,X18*%
%TO.N,39*%
X77140599Y-45034200D03*
%TO.P,U14,38,VDD*%
%TO.N,+18V*%
X76340599Y-45034200D03*
%TO.P,U14,39,X19*%
%TO.N,40*%
X75540599Y-45034200D03*
%TO.P,U14,40*%
%TO.N,N/C*%
X74740599Y-45034200D03*
%TO.P,U14,41,RST*%
%TO.N,RESET*%
X73940599Y-45034200D03*
%TO.P,U14,42,Y3*%
%TO.N,Y3_B*%
X73140599Y-45034200D03*
%TO.P,U14,43,Y0*%
%TO.N,Y0_B*%
X72340599Y-45034200D03*
%TO.P,U14,44*%
%TO.N,N/C*%
X71540599Y-45034200D03*
%TD*%
D35*
%TO.P,J1,1,VBUS*%
%TO.N,LED_5V*%
X109131716Y-34960025D03*
%TO.P,J1,2,D-*%
%TO.N,/USB_D-*%
X108566031Y-34394340D03*
%TO.P,J1,3,D+*%
%TO.N,/USB_D+*%
X108000345Y-33828655D03*
%TO.P,J1,4,ID*%
%TO.N,unconnected-(J1-ID-Pad4)*%
X107434660Y-33262969D03*
%TO.P,J1,5,GND*%
%TO.N,LED_GND*%
X106868975Y-32697284D03*
D36*
%TO.P,J1,6,Shield*%
X111111615Y-36939924D03*
X115000703Y-33050837D03*
X104889076Y-30717385D03*
X108778163Y-26828297D03*
%TD*%
D23*
%TO.P,R42,1*%
%TO.N,Net-(JP2-C)*%
X82540599Y-31648400D03*
%TO.P,R42,2*%
%TO.N,Net-(U2D--)*%
X82540599Y-29648400D03*
%TD*%
D19*
%TO.P,R23,1*%
%TO.N,Net-(U14-Y2)*%
X72507599Y-39030400D03*
%TO.P,R23,2*%
%TO.N,AOUT1L*%
X72507599Y-41030400D03*
%TD*%
D22*
%TO.P,TP1,1,1*%
%TO.N,AOUT2R*%
X105970915Y-26203400D03*
%TD*%
D24*
%TO.P,J7,31,Pin_31*%
%TO.N,1*%
X57775599Y-62703200D03*
%TO.P,J7,32,Pin_32*%
%TO.N,2*%
X59045599Y-62703200D03*
%TO.P,J7,33,Pin_33*%
%TO.N,3*%
X60315599Y-62703200D03*
%TO.P,J7,34,Pin_34*%
%TO.N,4*%
X61585599Y-62703200D03*
%TO.P,J7,35,Pin_35*%
%TO.N,5*%
X62855599Y-62703200D03*
%TO.P,J7,36,Pin_36*%
%TO.N,6*%
X64125599Y-62703200D03*
%TO.P,J7,37,Pin_37*%
%TO.N,7*%
X65395599Y-62703200D03*
%TO.P,J7,38,Pin_38*%
%TO.N,8*%
X66665599Y-62703200D03*
%TO.P,J7,39,Pin_39*%
%TO.N,9*%
X67935599Y-62703200D03*
%TO.P,J7,40,Pin_40*%
%TO.N,10*%
X69205599Y-62703200D03*
%TO.P,J7,41,Pin_41*%
%TO.N,11*%
X70475599Y-62703200D03*
%TO.P,J7,42,Pin_42*%
%TO.N,12*%
X71745599Y-62703200D03*
%TO.P,J7,43,Pin_43*%
%TO.N,13*%
X73015599Y-62703200D03*
%TO.P,J7,44,Pin_44*%
%TO.N,14*%
X74285599Y-62703200D03*
%TO.P,J7,45,Pin_45*%
%TO.N,15*%
X75555599Y-62703200D03*
%TO.P,J7,46,Pin_46*%
%TO.N,16*%
X76825599Y-62703200D03*
%TO.P,J7,47,Pin_47*%
%TO.N,17*%
X78095599Y-62703200D03*
%TO.P,J7,48,Pin_48*%
%TO.N,18*%
X79365599Y-62703200D03*
%TO.P,J7,49,Pin_49*%
%TO.N,19*%
X80635599Y-62703200D03*
%TO.P,J7,50,Pin_50*%
%TO.N,20*%
X81905599Y-62703200D03*
%TO.P,J7,51,Pin_51*%
%TO.N,21*%
X83175599Y-62703200D03*
%TO.P,J7,52,Pin_52*%
%TO.N,22*%
X84445599Y-62703200D03*
%TO.P,J7,53,Pin_53*%
%TO.N,23*%
X85715599Y-62703200D03*
%TO.P,J7,54,Pin_54*%
%TO.N,24*%
X86985599Y-62703200D03*
%TO.P,J7,55,Pin_55*%
%TO.N,25*%
X88255599Y-62703200D03*
%TO.P,J7,56,Pin_56*%
%TO.N,26*%
X89525599Y-62703200D03*
%TO.P,J7,57,Pin_57*%
%TO.N,27*%
X90795599Y-62703200D03*
%TO.P,J7,58,Pin_58*%
%TO.N,28*%
X92065599Y-62703200D03*
%TO.P,J7,59,Pin_59*%
%TO.N,29*%
X93335599Y-62703200D03*
%TO.P,J7,60,Pin_60*%
%TO.N,30*%
X94605599Y-62703200D03*
%TO.P,J7,63,Pin_63*%
%TO.N,TOP_RAIL_POS*%
X95875599Y-62703200D03*
%TO.P,J7,64,Pin_64*%
%TO.N,TOP_RAIL_NEG*%
X97145599Y-62703200D03*
%TO.P,J7,65,Pin_65*%
%TO.N,LED_GND*%
X53965599Y-62703200D03*
%TO.P,J7,66,Pin_66*%
%TO.N,LED_OUT*%
X55235599Y-62703200D03*
%TO.P,J7,67,Pin_67*%
%TO.N,LED_5V*%
X56505599Y-62703200D03*
%TD*%
D23*
%TO.P,R9,1*%
%TO.N,Net-(U14-Y1)*%
X65887600Y-32045400D03*
%TO.P,R9,2*%
%TO.N,LED_GND*%
X65887600Y-30045400D03*
%TD*%
D37*
%TO.P,C1,1*%
%TO.N,LED_5V*%
X113313300Y-38903400D03*
%TO.P,C1,2*%
%TO.N,LED_GND*%
X115388300Y-38903400D03*
%TD*%
D23*
%TO.P,R12,1*%
%TO.N,Net-(U1B--)*%
X84175600Y-41046400D03*
%TO.P,R12,2*%
%TO.N,Net-(U2B-+)*%
X84175600Y-39046400D03*
%TD*%
D19*
%TO.P,R24,1*%
%TO.N,Net-(U15-Y2)*%
X76571599Y-39030400D03*
%TO.P,R24,2*%
%TO.N,AOUT2L*%
X76571599Y-41030400D03*
%TD*%
D23*
%TO.P,R3,1*%
%TO.N,Net-(U14-Y4)*%
X65887600Y-41030400D03*
%TO.P,R3,2*%
%TO.N,LED_GND*%
X65887600Y-39030400D03*
%TD*%
D19*
%TO.P,R36,1*%
%TO.N,+3V3*%
X92065599Y-39173400D03*
%TO.P,R36,2*%
%TO.N,I2C_SCL*%
X92065599Y-41173400D03*
%TD*%
D23*
%TO.P,R19,1*%
%TO.N,Net-(U15-Y1)*%
X67919600Y-32045400D03*
%TO.P,R19,2*%
%TO.N,LED_GND*%
X67919600Y-30045400D03*
%TD*%
D38*
%TO.P,J2,1,Pin_1*%
%TO.N,/SWCLK*%
X104130599Y-57318400D03*
%TO.P,J2,2,Pin_2*%
%TO.N,LED_GND*%
X106670599Y-57318400D03*
%TO.P,J2,3,Pin_3*%
%TO.N,/SWD*%
X109210599Y-57318400D03*
%TD*%
D23*
%TO.P,R16,1*%
%TO.N,Net-(U1D--)*%
X88239600Y-41046400D03*
%TO.P,R16,2*%
%TO.N,Net-(U2D-+)*%
X88239600Y-39046400D03*
%TD*%
D39*
%TO.N,PDN*%
X98306015Y-31775400D03*
%TO.N,LRCK*%
X79992190Y-31856549D03*
%TO.N,SDOUT1*%
X81538390Y-32911280D03*
%TO.N,Net-(U13-Y1)*%
X60874399Y-38954200D03*
%TO.N,SDIN2*%
X80203363Y-30046125D03*
%TO.N,PDN*%
X101042444Y-48569199D03*
%TO.N,LED_GND*%
X70831199Y-30470600D03*
X73331294Y-42092800D03*
%TO.N,LED_5V*%
X81200948Y-34238022D03*
%TO.N,LED_GND*%
X105527599Y-34534600D03*
%TO.N,LED_5V*%
X55895999Y-59325000D03*
%TO.N,LED_GND*%
X98466399Y-52975000D03*
%TO.N,Net-(U2B-+)*%
X69908408Y-38454594D03*
%TO.N,LED_GND*%
X71542399Y-44085000D03*
X111111615Y-36939924D03*
X73145383Y-52304066D03*
X104976130Y-30630331D03*
%TO.N,Net-(U2B-+)*%
X78849732Y-38737889D03*
%TO.N,LED_GND*%
X45646485Y-56179322D03*
%TO.N,LED_5V*%
X56480199Y-24730200D03*
%TO.N,LED_GND*%
X47818799Y-35753800D03*
X73167999Y-37176200D03*
X109083599Y-26965400D03*
%TO.N,Net-(U13-Y2)*%
X60583012Y-39478696D03*
%TO.N,AOUT1R*%
X71679839Y-39924000D03*
%TO.N,TOP_RAIL_POS*%
X75565398Y-56195587D03*
%TO.N,+3V3*%
X47615599Y-32401000D03*
X102581199Y-43018200D03*
X98974399Y-43526200D03*
%TO.N,I2C_SCL*%
X111471199Y-40478200D03*
%TO.N,Net-(U2C-+)*%
X86833199Y-39817800D03*
%TO.N,+3V3*%
X89169999Y-27270200D03*
%TO.N,LED_GND*%
X54067199Y-59020200D03*
X68087999Y-55870600D03*
X53940199Y-24679400D03*
%TO.N,LED_5V*%
X41417999Y-33010600D03*
%TO.N,+3V3*%
X102022399Y-54041800D03*
%TO.N,Net-(U13-Y2)*%
X78096199Y-39488238D03*
%TO.N,SW_D*%
X111826799Y-48403000D03*
%TO.N,AOUT2L*%
X70983599Y-29505400D03*
%TO.N,Net-(U14-Y2)*%
X76421744Y-53807084D03*
%TO.N,-3.5V*%
X60096400Y-54863998D03*
%TO.N,+18V*%
X89322399Y-43018200D03*
%TO.N,AOUT1R*%
X71515799Y-30304054D03*
%TO.N,Y0_B*%
X85140794Y-34239200D03*
%TO.N,SDIN2*%
X98720399Y-49520600D03*
%TO.N,Net-(U2A--)*%
X71167792Y-34799205D03*
%TO.N,CAD{slash}CSN*%
X73095943Y-27439763D03*
%TO.N,SDIN2*%
X96661503Y-29154588D03*
%TO.N,Net-(U4-Center)*%
X42281599Y-46515400D03*
%TO.N,/QSPI_SCLK*%
X104689635Y-41225855D03*
%TO.N,Y0_A*%
X80584799Y-35703000D03*
%TO.N,Net-(U14-Y1)*%
X76419199Y-54489409D03*
%TO.N,CS_A*%
X108626399Y-53686200D03*
%TO.N,CAD{slash}CSN*%
X97958399Y-30877000D03*
%TO.N,/QSPI_SD0*%
X104105199Y-41240200D03*
%TO.N,Y0_B*%
X69459599Y-43881800D03*
%TO.N,Y3_B*%
X72964799Y-44085000D03*
%TO.N,DATA*%
X78729021Y-43855478D03*
X63160399Y-42256200D03*
%TO.N,CS_B*%
X108727999Y-54346600D03*
%TO.N,/QSPI_SD0*%
X98844534Y-29911802D03*
%TO.N,/QSPI_SD2*%
X100370339Y-30639057D03*
%TO.N,/QSPI_SD3*%
X105289423Y-41224606D03*
%TO.N,CS_B*%
X73353120Y-55670587D03*
%TO.N,/QSPI_SCLK*%
X99075999Y-29151526D03*
%TO.N,ADC_0*%
X70881999Y-33815400D03*
%TO.N,CAD{slash}CSN*%
X101445827Y-48125031D03*
%TO.N,Y3_B*%
X86629999Y-43932600D03*
%TO.N,CLK*%
X94852999Y-46342327D03*
%TO.N,RESET*%
X112353160Y-46424834D03*
%TO.N,CS_C*%
X109997999Y-54753000D03*
%TO.N,CS_A*%
X57877199Y-55176400D03*
%TO.N,RESET*%
X59148440Y-43059573D03*
%TO.N,CS_C*%
X88591431Y-54174432D03*
%TO.N,CLK*%
X64785999Y-43983400D03*
%TO.N,/QSPI_SD2*%
X103484008Y-41209408D03*
%TO.N,RESET*%
X72415596Y-44085000D03*
%TO.N,DATA*%
X92776799Y-43526200D03*
%TO.N,CLK*%
X80584799Y-44796200D03*
%TO.N,RESET*%
X88712799Y-43983400D03*
%TO.N,Net-(U2D--)*%
X79548372Y-33711026D03*
%TO.N,Net-(U4-A)*%
X39614599Y-51984400D03*
%TO.N,/QSPI_SS*%
X99176785Y-30762919D03*
X102225599Y-41240200D03*
%TO.N,Net-(U14-Y4)*%
X67884799Y-55057800D03*
X70206526Y-58625898D03*
%TO.N,/QSPI_SS*%
X113146167Y-40070368D03*
%TO.N,/XOUT*%
X106340599Y-53279800D03*
%TO.N,Net-(JP5-C)*%
X88791853Y-33620766D03*
%TO.N,Net-(JP4-C)*%
X88064892Y-33771723D03*
%TO.N,ADC_0_RP*%
X96449399Y-43091589D03*
%TO.N,AOUT2L*%
X102835199Y-29353000D03*
%TO.N,ADC_0_RP*%
X112145930Y-44236661D03*
%TO.N,Y0_C*%
X85156799Y-38395400D03*
%TO.N,Y3_A*%
X58435999Y-42561000D03*
%TO.N,SDOUT1*%
X98722445Y-51144154D03*
%TO.N,SDIN1*%
X96390999Y-29962600D03*
X98780101Y-48923575D03*
%TO.N,Net-(U2C--)*%
X84994631Y-30664032D03*
%TO.N,Y0_C*%
X84394799Y-43170600D03*
%TO.N,Net-(U2B--)*%
X72759200Y-35487000D03*
%TO.N,Net-(U9-GPIO0)*%
X99998599Y-41525655D03*
%TO.N,Net-(U15-Y4)*%
X67966033Y-44249600D03*
%TO.N,Net-(U9-GPIO0)*%
X45481999Y-42103800D03*
%TO.N,TOP_RAIL_POS*%
X60012514Y-54131519D03*
%TO.N,30*%
X72623825Y-51485920D03*
%TO.N,I2C_SCL*%
X96383599Y-41951400D03*
X112080799Y-50638200D03*
X91830399Y-43918716D03*
%TO.N,TOP_RAIL_POS*%
X96180399Y-57293000D03*
X95985999Y-26203400D03*
%TO.N,Net-(U2A-+)*%
X79144338Y-34987889D03*
%TO.N,-3.5V*%
X64430399Y-55464200D03*
%TO.N,+1V1*%
X106492799Y-43221400D03*
%TO.N,+18V*%
X52390799Y-41748200D03*
X78231294Y-43520410D03*
%TO.N,/XIN*%
X105744263Y-53213569D03*
%TO.N,+18V*%
X61296220Y-42276119D03*
%TO.N,Net-(U13-Y1)*%
X60706000Y-32359600D03*
%TO.N,AOUT1L*%
X72039145Y-32670346D03*
%TO.N,30*%
X94396240Y-58461400D03*
%TO.N,+3V3*%
X83763390Y-33625000D03*
X60655200Y-35052000D03*
%TO.N,Net-(U1C--)*%
X86424038Y-41528000D03*
%TO.N,SDOUT1*%
X96340199Y-32719892D03*
%TO.N,LED_OUT*%
X54219599Y-28743400D03*
X54879999Y-59528200D03*
%TO.N,7*%
X71792847Y-49264671D03*
X65649599Y-58461400D03*
X65395599Y-25568400D03*
X57004251Y-48716824D03*
%TO.N,26*%
X83642917Y-52420082D03*
X89525599Y-25543000D03*
X89097701Y-59807400D03*
%TO.N,43*%
X92431064Y-49572013D03*
X72507599Y-59350400D03*
X74588107Y-50149008D03*
X73059466Y-26181046D03*
%TO.N,27*%
X91021557Y-48002017D03*
X90795599Y-25543000D03*
X91384399Y-58430844D03*
X71217313Y-47970612D03*
%TO.N,ADC_3_RP*%
X93293399Y-43373800D03*
%TO.N,18*%
X77919196Y-46704200D03*
X63727329Y-46922773D03*
%TO.N,56*%
X90337200Y-59674809D03*
X86477599Y-47793400D03*
%TO.N,2*%
X59909199Y-49860200D03*
X59045599Y-25441400D03*
X58576218Y-58797114D03*
%TO.N,21*%
X82168907Y-48138243D03*
X83175599Y-25568400D03*
X83026245Y-58630460D03*
%TO.N,36*%
X64216893Y-43975400D03*
X64333281Y-58542082D03*
X64074799Y-26355800D03*
X68261956Y-45241649D03*
%TO.N,14*%
X64523900Y-53339349D03*
X74506884Y-48049294D03*
X74285595Y-25568408D03*
X74107997Y-53828417D03*
X74620387Y-58825903D03*
%TO.N,54*%
X95754953Y-58272691D03*
%TO.N,I2C_SDA*%
X111742261Y-39482307D03*
%TO.N,BOTTOM_RAIL_POS*%
X72962676Y-57549116D03*
%TO.N,54*%
X86934799Y-26254200D03*
X86350599Y-59604400D03*
X95233693Y-26213243D03*
X94724153Y-53971600D03*
%TO.N,55*%
X88154000Y-26203401D03*
X83675188Y-48151136D03*
X87620599Y-59604400D03*
%TO.N,I2C_SDA*%
X112588799Y-51298600D03*
X82718399Y-26965400D03*
%TO.N,LED_DATA_IN*%
X50380776Y-44293775D03*
X111910131Y-46829468D03*
X48224609Y-57421457D03*
%TO.N,34*%
X62185688Y-54329600D03*
X61839599Y-58461400D03*
X80427602Y-53948242D03*
X61483999Y-26305000D03*
%TO.N,29*%
X72664211Y-50485920D03*
X92574682Y-50154574D03*
X93483888Y-58775200D03*
X93211419Y-25493820D03*
%TO.N,8*%
X56910684Y-49309486D03*
%TO.N,28*%
X92384399Y-58444705D03*
X92065599Y-25492200D03*
X91701660Y-48887202D03*
X70741841Y-49427486D03*
%TO.N,37*%
X82449176Y-55153087D03*
X65014607Y-59223400D03*
X65395599Y-26305000D03*
X65685653Y-57735454D03*
X80742006Y-46417886D03*
%TO.N,10*%
X69080847Y-25486448D03*
%TO.N,18*%
X79017999Y-58848390D03*
X79238599Y-25568400D03*
%TO.N,24*%
X86822545Y-59063000D03*
X82859042Y-50610616D03*
X86985599Y-25543000D03*
%TO.N,13*%
X73596983Y-53052443D03*
%TO.N,41*%
X94499954Y-48428400D03*
%TO.N,9*%
X72075313Y-50211464D03*
X67935599Y-25568400D03*
X57031656Y-49897167D03*
X68207934Y-59006014D03*
X66584799Y-55343382D03*
%TO.N,LED_DATA_IN*%
X55286399Y-25390600D03*
%TO.N,13*%
X72959237Y-58853777D03*
X64595599Y-52797425D03*
X73040999Y-25593800D03*
X73533012Y-47556218D03*
%TO.N,42*%
X71745599Y-26305000D03*
%TO.N,39*%
X67833999Y-26355800D03*
%TO.N,3*%
X59842693Y-58853175D03*
X60315599Y-25441400D03*
X60167025Y-50772021D03*
%TO.N,51*%
X83301180Y-26235567D03*
X79700399Y-47891299D03*
X82667599Y-59604400D03*
%TO.N,46*%
X75850263Y-54080849D03*
X94643599Y-52365400D03*
%TO.N,60*%
X94129736Y-25997600D03*
X95113599Y-59096400D03*
X94081342Y-46844457D03*
%TO.N,25*%
X88317188Y-59607400D03*
%TO.N,BOTTOM_RAIL_NEG*%
X71556548Y-52757651D03*
X83378799Y-55210200D03*
X56353199Y-53432200D03*
%TO.N,59*%
X92278038Y-46261400D03*
X93183693Y-26228654D03*
X93791562Y-59290312D03*
%TO.N,4*%
X61585599Y-25568400D03*
%TO.N,15*%
X75709993Y-58917475D03*
X56353199Y-47742600D03*
X75493480Y-47197411D03*
%TO.N,35*%
X68924400Y-45314029D03*
X62703199Y-26406600D03*
X62660399Y-43975400D03*
X63236599Y-58461400D03*
%TO.N,1*%
X59147199Y-48453800D03*
%TO.N,BOTTOM_RAIL_POS*%
X55354199Y-55921400D03*
%TO.N,51*%
X83556599Y-55827800D03*
X86720722Y-53717773D03*
%TO.N,SW_D*%
X49593548Y-51650949D03*
%TO.N,1*%
X57351021Y-58850288D03*
X57648599Y-25441400D03*
%TO.N,12*%
X72096619Y-58685420D03*
X56632599Y-52365400D03*
X72651740Y-52687399D03*
X68865265Y-54047624D03*
X71745599Y-25568400D03*
%TO.N,33*%
X60706457Y-54004575D03*
X80007999Y-52986166D03*
X60569599Y-58522000D03*
X60264799Y-26152600D03*
%TO.N,39*%
X80274257Y-47716113D03*
X82119475Y-56836619D03*
X67149692Y-57931301D03*
X67756237Y-59400949D03*
%TO.N,TOP_RAIL_NEG*%
X96535999Y-25390600D03*
X60213999Y-57547000D03*
X97247199Y-56531000D03*
X89873473Y-57837510D03*
X73777099Y-58219620D03*
%TO.N,53*%
X97383739Y-52758036D03*
X92154597Y-53094936D03*
X85080599Y-59604400D03*
X96663186Y-27854588D03*
X85500787Y-55633815D03*
X85664799Y-26203400D03*
%TO.N,47*%
X88671736Y-57592467D03*
X78095599Y-26254200D03*
X77587599Y-59350400D03*
X87308808Y-48047083D03*
%TO.N,6*%
X63625599Y-58969400D03*
X64125599Y-25568400D03*
X63625599Y-52936635D03*
%TO.N,31*%
X57673999Y-26203400D03*
X58042499Y-58461400D03*
X58283599Y-51349400D03*
X68595999Y-49977800D03*
%TO.N,23*%
X85715599Y-25543000D03*
X83240192Y-49005200D03*
X85834599Y-59088400D03*
%TO.N,38*%
X80160399Y-46565319D03*
X82063113Y-56067278D03*
X66618756Y-57449357D03*
X66165599Y-59223400D03*
X66614799Y-26305000D03*
%TO.N,50*%
X81749906Y-25964638D03*
X79519199Y-54278658D03*
X86721028Y-53010971D03*
X81397599Y-59604400D03*
%TO.N,40*%
X67559876Y-57407296D03*
X68993603Y-26280800D03*
X75758799Y-52271200D03*
X68782845Y-58447069D03*
X75102099Y-58111155D03*
%TO.N,49*%
X80410720Y-26016677D03*
X90135041Y-58321333D03*
X80127599Y-59604400D03*
X89057745Y-48388254D03*
%TO.N,5*%
X62510599Y-51745065D03*
X62403120Y-58997989D03*
X62855599Y-25568400D03*
%TO.N,57*%
X90652277Y-47526465D03*
X91365690Y-59156661D03*
X90744799Y-26203400D03*
%TO.N,16*%
X76360399Y-47915157D03*
X56403999Y-48301400D03*
X76825599Y-25568400D03*
X76709993Y-58826122D03*
%TO.N,17*%
X67818493Y-47238719D03*
X77020759Y-47004200D03*
X78095599Y-25568400D03*
X78087599Y-58842400D03*
%TO.N,32*%
X59299599Y-53127400D03*
X58994799Y-26254200D03*
X59299599Y-58334400D03*
X68214947Y-51958800D03*
%TO.N,22*%
X84498632Y-59218000D03*
X82249749Y-48714624D03*
X84445599Y-25568400D03*
%TO.N,56*%
X89525599Y-26152600D03*
%TO.N,8*%
X67207934Y-59008107D03*
X65641599Y-56480200D03*
X71228931Y-48970612D03*
X66521199Y-25568400D03*
%TO.N,58*%
X92260283Y-47993896D03*
X92573599Y-59223400D03*
X92014799Y-26254202D03*
%TO.N,SW_D*%
X55647643Y-39487999D03*
%TO.N,30*%
X94343599Y-51034200D03*
%TO.N,11*%
X70301887Y-25505741D03*
X56886599Y-51603400D03*
X69545296Y-56258773D03*
X71668387Y-51725142D03*
X70919842Y-58927600D03*
%TO.N,41*%
X70140363Y-59484504D03*
X72801501Y-48973806D03*
X70293603Y-26221132D03*
X71024949Y-26904000D03*
%TO.N,52*%
X84557034Y-26144641D03*
X97824761Y-27481804D03*
X84242399Y-58105800D03*
X97805999Y-57547000D03*
%TO.N,20*%
X61196599Y-46523400D03*
X81781071Y-25365445D03*
X81778599Y-58961400D03*
X78806799Y-48199800D03*
%TO.N,25*%
X88204799Y-25543000D03*
X83320627Y-51940139D03*
%TO.N,10*%
X56886599Y-50714400D03*
X68647454Y-55748809D03*
X69207934Y-58870511D03*
X71676742Y-50659955D03*
%TO.N,44*%
X73777599Y-59350400D03*
X74822672Y-51461861D03*
X94424954Y-50439739D03*
X74336399Y-26254200D03*
%TO.N,46*%
X76190599Y-59477400D03*
X76825599Y-26203400D03*
%TO.N,19*%
X78427357Y-47819399D03*
X80627599Y-58961400D03*
%TO.N,15*%
X75555599Y-25568418D03*
%TO.N,48*%
X89313472Y-58127113D03*
%TO.N,BOTTOM_RAIL_POS*%
X84818199Y-56582400D03*
%TO.N,42*%
X94499954Y-49190400D03*
X73617494Y-49600760D03*
X71245599Y-59350400D03*
%TO.N,45*%
X74920599Y-59350400D03*
X75344799Y-53179621D03*
X92154597Y-51807773D03*
X75555599Y-26305000D03*
%TO.N,BOTTOM_RAIL_POS*%
X87636502Y-55048303D03*
%TO.N,4*%
X61133120Y-58813812D03*
X61585599Y-50976400D03*
%TO.N,19*%
X62791999Y-46469721D03*
X80410720Y-25309570D03*
%TO.N,LED_GND*%
X88306399Y-50638200D03*
X115179599Y-33061400D03*
%TO.N,30*%
X94253038Y-25284708D03*
%TO.N,/QSPI_SD1*%
X102884339Y-41240196D03*
%TO.N,ADC_2*%
X80533999Y-38954200D03*
%TO.N,MCK*%
X80495750Y-33349200D03*
%TO.N,ADC_1*%
X89644892Y-37940773D03*
%TO.N,BICK*%
X99278375Y-33769892D03*
%TO.N,SDIN1*%
X80733674Y-30266833D03*
%TO.N,LRCK*%
X100853999Y-50181000D03*
%TO.N,AOUT2L*%
X72491600Y-42672000D03*
%TO.N,Net-(U15-Y4)*%
X84851999Y-44999400D03*
%TO.N,Net-(U4-D)*%
X43302124Y-51251834D03*
%TO.N,/QSPI_SD1*%
X99774075Y-30705929D03*
%TO.N,Button_Probe*%
X50511199Y-43069000D03*
%TO.N,ADC_2*%
X79060799Y-33518600D03*
%TO.N,Select_Probe*%
X49834800Y-46024800D03*
%TO.N,ADC_2*%
X89322399Y-38903400D03*
%TO.N,Net-(U4-B)*%
X42154599Y-52746400D03*
%TO.N,AOUT2R*%
X73595943Y-28805014D03*
%TO.N,Y3_B*%
X86135771Y-32793629D03*
%TO.N,ADC_2_RP*%
X111506579Y-44866726D03*
%TO.N,ADC_1*%
X69510399Y-40173400D03*
%TO.N,Voltage_Probe*%
X81724408Y-42017023D03*
%TO.N,ADC_1*%
X68978324Y-33813319D03*
%TO.N,Y3_A*%
X57521599Y-28591000D03*
%TO.N,Y3_C*%
X92099444Y-33854843D03*
%TO.N,BICK*%
X80153262Y-32856549D03*
%TO.N,Net-(U14-Y2)*%
X75291572Y-52511081D03*
%TO.N,GPI0_2*%
X99753399Y-46758311D03*
%TO.N,Y3_C*%
X91830399Y-43323000D03*
%TO.N,Y0_A*%
X58123199Y-43577000D03*
%TO.N,LRCK*%
X98974399Y-32451800D03*
%TO.N,Net-(U9-GPIO1)*%
X100096954Y-40398193D03*
%TO.N,SDOUT2*%
X80889599Y-31232600D03*
%TO.N,BICK*%
X100396799Y-49520600D03*
%TO.N,SDOUT2*%
X98771199Y-50485800D03*
%TO.N,ADC_1_RP*%
X111546750Y-44268070D03*
%TO.N,Net-(U9-GPIO1)*%
X46888400Y-40538400D03*
%TO.N,ADC_1_RP*%
X96449399Y-44072711D03*
%TO.N,/QSPI_SD3*%
X98194547Y-28454600D03*
%TO.N,Y3_A*%
X84553245Y-27322954D03*
%TO.N,Y0_B*%
X69002399Y-33213800D03*
%TO.N,PDN*%
X71964431Y-28778568D03*
%TO.N,Net-(JP3-C)*%
X87493599Y-33772600D03*
%TO.N,MCK*%
X99180249Y-34529065D03*
%TO.N,Net-(U4-C)*%
X41138599Y-50587400D03*
%TO.N,AOUT2R*%
X105970915Y-26203400D03*
%TO.N,AOUT1L*%
X72735531Y-42214800D03*
%TO.N,ADC_2_RP*%
X94593399Y-43620062D03*
%TO.N,Y0_A*%
X56759599Y-33975800D03*
%TO.N,MCK*%
X99807999Y-48691569D03*
%TO.N,SDOUT2*%
X96306770Y-31312015D03*
%TO.N,Y0_A*%
X82258368Y-27232227D03*
%TO.N,GPI0_2*%
X115687606Y-55057814D03*
%TO.N,ADC_0*%
X89506096Y-35350483D03*
%TO.N,Net-(U1B--)*%
X85105999Y-39793600D03*
%TO.N,SW_A*%
X98974399Y-47437800D03*
X56212428Y-40337429D03*
%TO.N,+3V3*%
X87493599Y-27151598D03*
X94097599Y-27422600D03*
%TO.N,SW_A*%
X99945599Y-38751000D03*
%TO.N,SW_PUSH*%
X54879999Y-37430200D03*
X111928399Y-54397400D03*
X49923999Y-46879000D03*
X104968799Y-36668200D03*
%TO.N,SW_C*%
X105375199Y-37277800D03*
X48793446Y-53766500D03*
X111582567Y-49123968D03*
X55127416Y-38534093D03*
%TO.N,Net-(U6-AVDRV)*%
X79658573Y-31328034D03*
X68646799Y-27829000D03*
%TO.N,SW_B*%
X48971200Y-54956198D03*
X99607584Y-38036139D03*
X56373465Y-39819055D03*
X98382986Y-47895286D03*
%TO.N,Net-(U2D-+)*%
X78296599Y-41538238D03*
%TO.N,SW_A*%
X46583600Y-55778400D03*
%TO.N,+3V3*%
X89627199Y-34687000D03*
%TO.N,Net-(U1D--)*%
X88255599Y-40173400D03*
%TO.N,I2C_SDA*%
X95832799Y-38954200D03*
%TO.N,LED_GND*%
X71085199Y-57801000D03*
%TO.N,+1V1*%
X111623599Y-43221400D03*
%TO.N,LED_GND*%
X54304199Y-56896457D03*
X49749199Y-56896457D03*
%TO.N,+1V1*%
X107254799Y-53991000D03*
%TO.N,+3V3*%
X112537999Y-43373800D03*
X99228399Y-36312600D03*
X111318799Y-42611800D03*
%TO.N,LED_GND*%
X75367431Y-31604431D03*
%TO.N,ADC_3_RP*%
X110957984Y-45004699D03*
%TO.N,ADC_3*%
X78305009Y-42851661D03*
X77771227Y-33993257D03*
X88407999Y-42510200D03*
%TO.N,Net-(JP2-C)*%
X86825199Y-33721800D03*
%TO.N,Net-(U14-Y1)*%
X74053519Y-52665691D03*
%TO.N,Net-(U1A--)*%
X80290891Y-40027799D03*
%TO.N,SW_D*%
X105933999Y-37735000D03*
%TO.N,48*%
X78857599Y-59477400D03*
X88425653Y-48344454D03*
X79263999Y-26406600D03*
%TD*%
D40*
%TO.N,LED_5V*%
X109131716Y-34960025D02*
X109131716Y-35045283D01*
X109032799Y-38903400D02*
X113313300Y-38903400D01*
X109131716Y-35045283D02*
X108727999Y-35449000D01*
X108727999Y-35449000D02*
X108727999Y-38598600D01*
X108727999Y-38598600D02*
X109032799Y-38903400D01*
%TO.N,LED_GND*%
X115388300Y-38903400D02*
X115730599Y-38561101D01*
X115730599Y-38561101D02*
X115730599Y-33780733D01*
X115730599Y-33780733D02*
X115000703Y-33050837D01*
D41*
%TO.N,AOUT2L*%
X72491600Y-42672000D02*
X72731980Y-42912380D01*
X72731980Y-42912380D02*
X74689619Y-42912380D01*
X74689619Y-42912380D02*
X76571599Y-41030400D01*
%TO.N,Net-(U15-Y1)*%
X70369906Y-39157400D02*
X69510399Y-39157400D01*
X78097902Y-42351661D02*
X77939234Y-42510328D01*
%TO.N,Net-(U15-Y2)*%
X79138170Y-42827800D02*
X79105009Y-42794639D01*
%TO.N,Net-(U15-Y1)*%
X85514199Y-46259200D02*
X84638599Y-46259200D01*
X73117199Y-38141400D02*
X71385906Y-38141400D01*
%TO.N,Net-(U15-Y2)*%
X81631463Y-42827800D02*
X79138170Y-42827800D01*
%TO.N,Net-(U15-Y1)*%
X73523599Y-38547800D02*
X73117199Y-38141400D01*
%TO.N,Net-(U15-Y2)*%
X84762863Y-45959200D02*
X81631463Y-42827800D01*
X78636380Y-42051661D02*
X77973638Y-42051661D01*
%TO.N,AOUT1L*%
X72507599Y-41030400D02*
X72507599Y-41986868D01*
%TO.N,Net-(U15-Y2)*%
X85638463Y-45959200D02*
X84762863Y-45959200D01*
%TO.N,Net-(U15-Y1)*%
X89931999Y-54427000D02*
X89931999Y-48504600D01*
%TO.N,Net-(U15-Y2)*%
X91989199Y-56434200D02*
X91989199Y-54625800D01*
%TO.N,Net-(U15-Y1)*%
X73980799Y-40021000D02*
X73523599Y-39563800D01*
%TO.N,Net-(U15-Y2)*%
X77973638Y-42051661D02*
X77939234Y-42086064D01*
%TO.N,Net-(U13-Y2)*%
X77225277Y-38205400D02*
X78096199Y-39076322D01*
%TO.N,Net-(U15-Y2)*%
X88227463Y-46375800D02*
X86055063Y-46375800D01*
%TO.N,Net-(U15-Y1)*%
X88103199Y-46675800D02*
X85930799Y-46675800D01*
%TO.N,Net-(U15-Y2)*%
X90231999Y-48380336D02*
X88227463Y-46375800D01*
X86055063Y-46375800D02*
X85638463Y-45959200D01*
X79105009Y-42520290D02*
X78636380Y-42051661D01*
%TO.N,Net-(U15-Y1)*%
X77939234Y-42510328D02*
X77484596Y-42055690D01*
%TO.N,Net-(U15-Y2)*%
X79105009Y-42794639D02*
X79105009Y-42520290D01*
X77784596Y-41622959D02*
X77796599Y-41610956D01*
%TO.N,Net-(U15-Y1)*%
X91189199Y-56434200D02*
X91189199Y-55684200D01*
%TO.N,AOUT1L*%
X72507599Y-41986868D02*
X72735531Y-42214800D01*
%TO.N,Net-(U15-Y1)*%
X69510399Y-39157400D02*
X69357999Y-39005000D01*
X81565499Y-43186100D02*
X79072206Y-43186100D01*
X77496599Y-41486692D02*
X77496599Y-40438000D01*
%TO.N,Net-(U13-Y2)*%
X75364599Y-38205400D02*
X77225277Y-38205400D01*
%TO.N,Net-(U15-Y1)*%
X85930799Y-46675800D02*
X85514199Y-46259200D01*
D40*
%TO.N,+18V*%
X77054389Y-43520410D02*
X78231294Y-43520410D01*
D41*
%TO.N,Net-(U15-Y1)*%
X89931999Y-48504600D02*
X88103199Y-46675800D01*
%TO.N,Net-(U2D-+)*%
X86564459Y-42527800D02*
X79405009Y-42527800D01*
%TO.N,Net-(U15-Y1)*%
X77079599Y-40021000D02*
X73980799Y-40021000D01*
X84638599Y-46259200D02*
X81565499Y-43186100D01*
%TO.N,Net-(U15-Y2)*%
X77796599Y-41610956D02*
X77796599Y-40255400D01*
%TO.N,Net-(U15-Y1)*%
X69357999Y-35928799D02*
X67919600Y-34490400D01*
%TO.N,Net-(U15-Y2)*%
X77784596Y-41931426D02*
X77784596Y-41622959D01*
X90231999Y-52868600D02*
X90231999Y-48380336D01*
%TO.N,Net-(U15-Y1)*%
X78805009Y-42918903D02*
X78805009Y-42644554D01*
%TO.N,DATA*%
X77940599Y-44643900D02*
X78729021Y-43855478D01*
D40*
%TO.N,+18V*%
X76340599Y-45034200D02*
X76340599Y-44234200D01*
X76340599Y-44234200D02*
X77054389Y-43520410D01*
D41*
%TO.N,Net-(U15-Y1)*%
X78805009Y-42644554D02*
X78512116Y-42351661D01*
%TO.N,Net-(U2D-+)*%
X79405009Y-42527800D02*
X79405009Y-42396026D01*
%TO.N,Net-(U15-Y1)*%
X73523599Y-39563800D02*
X73523599Y-38547800D01*
X79072206Y-43186100D02*
X78805009Y-42918903D01*
%TO.N,Net-(U2D-+)*%
X87239599Y-40046401D02*
X87239599Y-41852660D01*
X88239600Y-39046400D02*
X87239599Y-40046401D01*
%TO.N,Net-(U15-Y1)*%
X77496599Y-40438000D02*
X77079599Y-40021000D01*
%TO.N,Net-(U15-Y2)*%
X77939234Y-42086064D02*
X77784596Y-41931426D01*
%TO.N,Net-(U15-Y1)*%
X78512116Y-42351661D02*
X78097902Y-42351661D01*
X77484596Y-42055690D02*
X77484596Y-41498695D01*
%TO.N,Net-(U2D-+)*%
X78486295Y-41751661D02*
X78296599Y-41561965D01*
%TO.N,DATA*%
X77940599Y-45034200D02*
X77940599Y-44643900D01*
%TO.N,Net-(U15-Y1)*%
X77484596Y-41498695D02*
X77496599Y-41486692D01*
X91189199Y-55684200D02*
X89931999Y-54427000D01*
X69357999Y-39005000D02*
X69357999Y-35928799D01*
%TO.N,Net-(U13-Y2)*%
X74539599Y-39030400D02*
X75364599Y-38205400D01*
%TO.N,Net-(U2D-+)*%
X79405009Y-42396026D02*
X78760644Y-41751661D01*
%TO.N,Net-(U15-Y2)*%
X77796599Y-40255400D02*
X76571599Y-39030400D01*
%TO.N,Net-(U13-Y2)*%
X78096199Y-39076322D02*
X78096199Y-39488238D01*
%TO.N,Net-(U2D-+)*%
X78760644Y-41751661D02*
X78486295Y-41751661D01*
X78296599Y-41561965D02*
X78296599Y-41538238D01*
%TO.N,Net-(U15-Y2)*%
X91989199Y-54625800D02*
X90231999Y-52868600D01*
%TO.N,Net-(U2D-+)*%
X87239599Y-41852660D02*
X86564459Y-42527800D01*
%TO.N,Net-(U15-Y1)*%
X71385906Y-38141400D02*
X70369906Y-39157400D01*
D40*
%TO.N,+3V3*%
X63855600Y-36490400D02*
X62093600Y-36490400D01*
X62093600Y-36490400D02*
X60655200Y-35052000D01*
D41*
%TO.N,Net-(U13-Y1)*%
X62836800Y-34490400D02*
X60706000Y-32359600D01*
X63855600Y-34490400D02*
X62836800Y-34490400D01*
D40*
%TO.N,LED_GND*%
X44936506Y-53496307D02*
X44936506Y-55469343D01*
X44936506Y-55469343D02*
X45646485Y-56179322D01*
%TO.N,LED_5V*%
X54371999Y-57801000D02*
X49244737Y-57801000D01*
X48194937Y-54773538D02*
X47818799Y-54397400D01*
X49244737Y-57801000D02*
X48194937Y-56751200D01*
X48194937Y-56751200D02*
X48194937Y-54773538D01*
X55895999Y-59325000D02*
X54371999Y-57801000D01*
X51319699Y-54291500D02*
X51425599Y-54397400D01*
X47818799Y-54397400D02*
X47924699Y-54291500D01*
X47924699Y-54291500D02*
X51319699Y-54291500D01*
D41*
%TO.N,Net-(U14-Y1)*%
X76340599Y-54568009D02*
X76419199Y-54489409D01*
X76340599Y-56434200D02*
X76340599Y-54568009D01*
%TO.N,Net-(U14-Y2)*%
X77140599Y-54525939D02*
X76421744Y-53807084D01*
X77140599Y-56434200D02*
X77140599Y-54525939D01*
D40*
%TO.N,TOP_RAIL_POS*%
X55692799Y-55362600D02*
X56923880Y-54131519D01*
D41*
%TO.N,Net-(U13-Y2)*%
X57114306Y-41545893D02*
X59181503Y-39478696D01*
D40*
%TO.N,TOP_RAIL_POS*%
X51710397Y-52621598D02*
X53994199Y-54905400D01*
%TO.N,-3.5V*%
X59744199Y-55216199D02*
X60096400Y-54863998D01*
%TO.N,TOP_RAIL_POS*%
X60646400Y-54585382D02*
X60192537Y-54131519D01*
%TO.N,-3.5V*%
X59744199Y-56434200D02*
X59744199Y-55216199D01*
%TO.N,TOP_RAIL_POS*%
X49799999Y-53381400D02*
X50559801Y-52621598D01*
D41*
%TO.N,Net-(U13-Y1)*%
X59246379Y-38954200D02*
X57671579Y-40529000D01*
X60874399Y-38954200D02*
X59246379Y-38954200D01*
D40*
%TO.N,TOP_RAIL_POS*%
X53994199Y-54905400D02*
X53994199Y-55234200D01*
X54122599Y-55362600D02*
X55692799Y-55362600D01*
D41*
%TO.N,Net-(U13-Y1)*%
X61206457Y-53320310D02*
X61206457Y-56296458D01*
X54579999Y-45258200D02*
X57504251Y-48182452D01*
D40*
%TO.N,TOP_RAIL_POS*%
X60544199Y-56434200D02*
X60646400Y-56331999D01*
X60192537Y-54131519D02*
X60012514Y-54131519D01*
D41*
%TO.N,Net-(U13-Y2)*%
X62144199Y-56434200D02*
X62144199Y-54973688D01*
%TO.N,Net-(U13-Y1)*%
X57504251Y-49618104D02*
X61206457Y-53320310D01*
D40*
%TO.N,TOP_RAIL_POS*%
X60646400Y-56331999D02*
X60646400Y-54585382D01*
D41*
%TO.N,Net-(U13-Y2)*%
X56486842Y-41545893D02*
X57114306Y-41545893D01*
%TO.N,Net-(U13-Y1)*%
X54579999Y-43028472D02*
X54579999Y-45258200D01*
X57079471Y-40529000D02*
X54579999Y-43028472D01*
%TO.N,Net-(U13-Y2)*%
X61506457Y-53196046D02*
X57804251Y-49493840D01*
%TO.N,Net-(U13-Y1)*%
X57504251Y-48182452D02*
X57504251Y-49618104D01*
%TO.N,Net-(U13-Y2)*%
X62144199Y-54973688D02*
X61506457Y-54335946D01*
X61506457Y-54335946D02*
X61506457Y-53196046D01*
X55291199Y-42741536D02*
X56486842Y-41545893D01*
D40*
%TO.N,TOP_RAIL_POS*%
X53994199Y-55234200D02*
X54122599Y-55362600D01*
D41*
%TO.N,Net-(U13-Y2)*%
X57804251Y-47905788D02*
X55291199Y-45392736D01*
X55291199Y-45392736D02*
X55291199Y-42741536D01*
%TO.N,Net-(U13-Y1)*%
X61206457Y-56296458D02*
X61344199Y-56434200D01*
%TO.N,Net-(U13-Y2)*%
X57804251Y-49493840D02*
X57804251Y-47905788D01*
X59181503Y-39478696D02*
X60583012Y-39478696D01*
D40*
%TO.N,TOP_RAIL_POS*%
X56923880Y-54131519D02*
X60012514Y-54131519D01*
X50559801Y-52621598D02*
X51710397Y-52621598D01*
D41*
%TO.N,Net-(U13-Y1)*%
X57671579Y-40529000D02*
X57079471Y-40529000D01*
%TO.N,CAD{slash}CSN*%
X103228099Y-48233400D02*
X101554196Y-48233400D01*
X101554196Y-48233400D02*
X101445827Y-48125031D01*
%TO.N,SDOUT1*%
X104465599Y-52378464D02*
X104077063Y-52767000D01*
X104077063Y-52767000D02*
X100345291Y-52767000D01*
X104465599Y-51870900D02*
X104465599Y-52378464D01*
X100345291Y-52767000D02*
X98722445Y-51144154D01*
%TO.N,LRCK*%
X102738199Y-50181000D02*
X100853999Y-50181000D01*
X103228099Y-50233400D02*
X102790599Y-50233400D01*
X102790599Y-50233400D02*
X102738199Y-50181000D01*
%TO.N,SDOUT2*%
X104065599Y-52354200D02*
X103952799Y-52467000D01*
X100650799Y-52467000D02*
X98771199Y-50587400D01*
X98771199Y-50587400D02*
X98771199Y-50485800D01*
X103952799Y-52467000D02*
X100650799Y-52467000D01*
X104065599Y-51870900D02*
X104065599Y-52354200D01*
%TO.N,SDIN1*%
X100580127Y-50633400D02*
X98870302Y-48923575D01*
X103228099Y-50633400D02*
X100580127Y-50633400D01*
X98870302Y-48923575D02*
X98780101Y-48923575D01*
%TO.N,BICK*%
X103228099Y-49833400D02*
X101213506Y-49833400D01*
X101213506Y-49833400D02*
X100900706Y-49520600D01*
X100900706Y-49520600D02*
X100396799Y-49520600D01*
%TO.N,SDIN2*%
X99043063Y-49520600D02*
X98720399Y-49520600D01*
X100555863Y-51033400D02*
X99043063Y-49520600D01*
X103228099Y-51033400D02*
X100555863Y-51033400D01*
%TO.N,MCK*%
X100149830Y-49033400D02*
X99807999Y-48691569D01*
X103228099Y-49033400D02*
X100149830Y-49033400D01*
%TO.N,Y0_C*%
X86629999Y-43170600D02*
X87189199Y-43729800D01*
X84394799Y-43170600D02*
X86629999Y-43170600D01*
X87189199Y-43729800D02*
X87189199Y-45034200D01*
%TO.N,Y3_B*%
X73140599Y-44260800D02*
X72964799Y-44085000D01*
X73140599Y-45034200D02*
X73140599Y-44260800D01*
%TO.N,Y3_C*%
X90865199Y-42357800D02*
X91830399Y-43323000D01*
X87989199Y-45034200D02*
X87989199Y-43691000D01*
X89322399Y-42357800D02*
X90865199Y-42357800D01*
X87989199Y-43691000D02*
X89322399Y-42357800D01*
D40*
%TO.N,GPI0_2*%
X101954930Y-46758311D02*
X99753399Y-46758311D01*
X103228099Y-47033400D02*
X102230019Y-47033400D01*
X102230019Y-47033400D02*
X101954930Y-46758311D01*
D41*
%TO.N,PDN*%
X103228099Y-48633400D02*
X101106645Y-48633400D01*
X101106645Y-48633400D02*
X101042444Y-48569199D01*
%TO.N,Net-(U2C--)*%
X84994631Y-30197432D02*
X84994631Y-30664032D01*
X84445599Y-29648400D02*
X84994631Y-30197432D01*
%TO.N,CS_B*%
X73140599Y-56434200D02*
X73140599Y-55883108D01*
X109265599Y-51870900D02*
X109235999Y-51900500D01*
X109235999Y-51900500D02*
X109235999Y-53838600D01*
X73140599Y-55883108D02*
X73353120Y-55670587D01*
X109235999Y-53838600D02*
X108727999Y-54346600D01*
%TO.N,CS_C*%
X88591431Y-55081968D02*
X88591431Y-54174432D01*
X87989199Y-55684200D02*
X88591431Y-55081968D01*
X110103099Y-51033400D02*
X110353599Y-51283900D01*
X110353599Y-51283900D02*
X110353599Y-54397400D01*
X110353599Y-54397400D02*
X109997999Y-54753000D01*
X87989199Y-56434200D02*
X87989199Y-55684200D01*
%TO.N,RESET*%
X110103099Y-48233400D02*
X111382706Y-48233400D01*
X73940599Y-45034200D02*
X73940599Y-44284200D01*
X73940599Y-44284200D02*
X73241399Y-43585000D01*
X72757692Y-43585000D02*
X72415596Y-43927096D01*
X111382706Y-48233400D02*
X112353160Y-47262946D01*
X58944199Y-45034200D02*
X58944199Y-43263814D01*
X73241399Y-43585000D02*
X72757692Y-43585000D01*
X58944199Y-43263814D02*
X59148440Y-43059573D01*
X88712799Y-43983400D02*
X88712799Y-44957800D01*
X112353160Y-47262946D02*
X112353160Y-46424834D01*
X88712799Y-44957800D02*
X88789199Y-45034200D01*
X72415596Y-43927096D02*
X72415596Y-44085000D01*
%TO.N,DATA*%
X93640399Y-44085000D02*
X93335599Y-44085000D01*
X99938184Y-53067000D02*
X97882986Y-51011802D01*
X93640399Y-44085000D02*
X92988399Y-44085000D01*
X92789199Y-44284200D02*
X92789199Y-45034200D01*
X98013999Y-47557166D02*
X98013999Y-45766200D01*
X104865599Y-51870900D02*
X104865599Y-52453528D01*
X96854261Y-44606462D02*
X96144912Y-44606462D01*
X97882986Y-51011802D02*
X97882986Y-47688179D01*
X98013999Y-45766200D02*
X96854261Y-44606462D01*
X63160399Y-44818000D02*
X62944199Y-45034200D01*
X95623450Y-44085000D02*
X93640399Y-44085000D01*
X92988399Y-44085000D02*
X92789199Y-44284200D01*
X97882986Y-47688179D02*
X98013999Y-47557166D01*
X96144912Y-44606462D02*
X95623450Y-44085000D01*
X63160399Y-42256200D02*
X63160399Y-44818000D01*
X93335599Y-44085000D02*
X92776799Y-43526200D01*
X104252127Y-53067000D02*
X99938184Y-53067000D01*
X104865599Y-52453528D02*
X104252127Y-53067000D01*
%TO.N,CS_A*%
X108626399Y-52670200D02*
X108626399Y-53686200D01*
X58144199Y-55443400D02*
X57877199Y-55176400D01*
X108865599Y-51870900D02*
X108865599Y-52431000D01*
X108865599Y-52431000D02*
X108626399Y-52670200D01*
X58144199Y-56434200D02*
X58144199Y-55443400D01*
%TO.N,CLK*%
X97713999Y-46075800D02*
X96672399Y-45034200D01*
X104376391Y-53367000D02*
X99813920Y-53367000D01*
X99813920Y-53367000D02*
X97582986Y-51136066D01*
X96672399Y-45034200D02*
X94389199Y-45034200D01*
X97582986Y-51136066D02*
X97582986Y-47563915D01*
X97582986Y-47563915D02*
X97713999Y-47432902D01*
X79778599Y-44796200D02*
X79540599Y-45034200D01*
X94389199Y-45878527D02*
X94852999Y-46342327D01*
X64785999Y-44792400D02*
X64544199Y-45034200D01*
X94389199Y-45034200D02*
X94389199Y-45878527D01*
X105265599Y-52477792D02*
X104376391Y-53367000D01*
X97713999Y-47432902D02*
X97713999Y-46075800D01*
X80584799Y-44796200D02*
X79778599Y-44796200D01*
X64785999Y-43983400D02*
X64785999Y-44792400D01*
X105265599Y-51870900D02*
X105265599Y-52477792D01*
%TO.N,Net-(U15-Y1)*%
X67919600Y-34490400D02*
X67919600Y-32045400D01*
%TO.N,Net-(U13-Y1)*%
X63855600Y-32045400D02*
X63855600Y-34490400D01*
%TO.N,AOUT1R*%
X96493757Y-28286200D02*
X97704399Y-28286200D01*
X72336599Y-33232400D02*
X73990399Y-31578600D01*
X96392157Y-28184600D02*
X96493757Y-28286200D01*
X71440799Y-30379054D02*
X71440799Y-33010600D01*
X99787199Y-26203400D02*
X100890915Y-26203400D01*
X75409881Y-30123390D02*
X77348671Y-28184600D01*
X73990399Y-31578600D02*
X73990399Y-31085672D01*
X71440799Y-33010600D02*
X71662599Y-33232400D01*
X74952681Y-30123390D02*
X75409881Y-30123390D01*
X77348671Y-28184600D02*
X96392157Y-28184600D01*
X73433199Y-39924000D02*
X71679839Y-39924000D01*
X97704399Y-28286200D02*
X99787199Y-26203400D01*
X74539599Y-41030400D02*
X73433199Y-39924000D01*
X71515799Y-30304054D02*
X71440799Y-30379054D01*
X71662599Y-33232400D02*
X72336599Y-33232400D01*
X73990399Y-31085672D02*
X74952681Y-30123390D01*
%TO.N,Net-(U4-A)*%
X40376599Y-51222400D02*
X41210706Y-51222400D01*
X41210706Y-51222400D02*
X41565599Y-50867507D01*
X39614599Y-51984400D02*
X40376599Y-51222400D01*
X41565599Y-48110146D02*
X40888319Y-47432866D01*
X41565599Y-50867507D02*
X41565599Y-48110146D01*
%TO.N,/XOUT*%
X106465599Y-53154800D02*
X106340599Y-53279800D01*
X106465599Y-51870900D02*
X106465599Y-53154800D01*
%TO.N,Net-(U14-Y1)*%
X74042494Y-49776801D02*
X74022672Y-49796623D01*
X68859599Y-43096429D02*
X68456399Y-43499629D01*
X68456399Y-44162371D02*
X71350246Y-47056218D01*
X73682953Y-47056218D02*
X74042494Y-47415759D01*
X65887600Y-34490400D02*
X65887600Y-32045400D01*
X68505278Y-35597400D02*
X68859599Y-35951721D01*
X65887600Y-34490400D02*
X66994600Y-35597400D01*
X66994600Y-35597400D02*
X68505278Y-35597400D01*
X74022672Y-52634844D02*
X74053519Y-52665691D01*
X74022672Y-49796623D02*
X74022672Y-52634844D01*
X68859599Y-35951721D02*
X68859599Y-43096429D01*
X74042494Y-47415759D02*
X74042494Y-49776801D01*
X68456399Y-43499629D02*
X68456399Y-44162371D01*
X71350246Y-47056218D02*
X73682953Y-47056218D01*
%TO.N,Net-(U1A--)*%
X82143600Y-41062400D02*
X81325492Y-41062400D01*
X81325492Y-41062400D02*
X80290891Y-40027799D01*
%TO.N,Net-(U1B--)*%
X84175600Y-41046400D02*
X85105999Y-40116001D01*
X85105999Y-40116001D02*
X85105999Y-39793600D01*
%TO.N,Net-(U1C--)*%
X86207600Y-41311562D02*
X86424038Y-41528000D01*
X86207600Y-41046400D02*
X86207600Y-41311562D01*
%TO.N,Net-(U1D--)*%
X88255599Y-40173400D02*
X88255599Y-41030401D01*
X88255599Y-41030401D02*
X88239600Y-41046400D01*
%TO.N,Net-(JP5-C)*%
X88255599Y-31648400D02*
X88255599Y-33084512D01*
X88255599Y-33084512D02*
X88791853Y-33620766D01*
%TO.N,ADC_0_RP*%
X110103099Y-47433400D02*
X110613391Y-47433400D01*
X112500370Y-45546421D02*
X112500370Y-44591101D01*
X112500370Y-44591101D02*
X112145930Y-44236661D01*
X110613391Y-47433400D02*
X112500370Y-45546421D01*
%TO.N,Net-(U9-USB_DP)*%
X106543599Y-39919400D02*
X107665599Y-41041400D01*
X107665599Y-41041400D02*
X107665599Y-44995900D01*
%TO.N,Net-(U9-USB_DM)*%
X107559599Y-39919400D02*
X108065599Y-40425400D01*
X108065599Y-40425400D02*
X108065599Y-44995900D01*
%TO.N,Net-(U14-Y4)*%
X68298084Y-45784372D02*
X68255361Y-45741649D01*
X67884799Y-55057800D02*
X68145899Y-54796700D01*
X68255361Y-45741649D02*
X68054849Y-45741649D01*
X68145899Y-54796700D02*
X68145899Y-54339500D01*
X65887600Y-43574400D02*
X65887600Y-41030400D01*
X67714947Y-50151745D02*
X68298084Y-49568608D01*
X68145899Y-54339500D02*
X67714947Y-53908548D01*
X68054849Y-45741649D02*
X65887600Y-43574400D01*
X67714947Y-53908548D02*
X67714947Y-50151745D01*
X68298084Y-49568608D02*
X68298084Y-45784372D01*
%TO.N,Net-(JP4-C)*%
X86384278Y-31648400D02*
X88064892Y-33329014D01*
X88064892Y-33329014D02*
X88064892Y-33771723D01*
X86350599Y-31648400D02*
X86384278Y-31648400D01*
%TO.N,ADC_1_RP*%
X110103099Y-47033400D02*
X110589127Y-47033400D01*
X112099399Y-44820719D02*
X111546750Y-44268070D01*
X110589127Y-47033400D02*
X112099399Y-45523128D01*
X112099399Y-45523128D02*
X112099399Y-44820719D01*
%TO.N,Y3_A*%
X58144199Y-45034200D02*
X58144199Y-44157041D01*
X58144199Y-44157041D02*
X58548199Y-43753041D01*
X58548199Y-42673200D02*
X58435999Y-42561000D01*
X58548199Y-43753041D02*
X58548199Y-42673200D01*
%TO.N,Y0_A*%
X57344199Y-45034200D02*
X57344199Y-44356000D01*
X57344199Y-44356000D02*
X58123199Y-43577000D01*
%TO.N,Y0_B*%
X69681399Y-43660000D02*
X69459599Y-43881800D01*
X71967399Y-44237844D02*
X71967399Y-43908959D01*
X72340599Y-44611044D02*
X71967399Y-44237844D01*
X72340599Y-45034200D02*
X72340599Y-44611044D01*
X71718440Y-43660000D02*
X69681399Y-43660000D01*
X71967399Y-43908959D02*
X71718440Y-43660000D01*
D40*
%TO.N,Net-(U9-GPIO0)*%
X100585599Y-42112655D02*
X99998599Y-41525655D01*
X102764949Y-46233400D02*
X100585599Y-44054050D01*
D41*
%TO.N,Net-(U4-Center)*%
X40572720Y-46475671D02*
X40956430Y-46475671D01*
X39880692Y-47167699D02*
X40572720Y-46475671D01*
X39880692Y-48440493D02*
X39880692Y-47167699D01*
X40996159Y-46515400D02*
X42281599Y-46515400D01*
X40956430Y-46475671D02*
X40996159Y-46515400D01*
%TO.N,Net-(U4-C)*%
X38873065Y-49448120D02*
X39999319Y-49448120D01*
X39999319Y-49448120D02*
X41138599Y-50587400D01*
%TO.N,Net-(U4-B)*%
X44102964Y-50647511D02*
X43199339Y-50647511D01*
X43199339Y-50647511D02*
X42154599Y-51692251D01*
X45944133Y-52488680D02*
X44169853Y-50714400D01*
X44169853Y-50714400D02*
X44102964Y-50647511D01*
X42154599Y-51692251D02*
X42154599Y-52746400D01*
%TO.N,Net-(U4-D)*%
X43302124Y-53877179D02*
X43302124Y-51251834D01*
X43928879Y-54503934D02*
X43302124Y-53877179D01*
%TO.N,Net-(U15-Y4)*%
X90531999Y-48103672D02*
X90531999Y-52744336D01*
X92789199Y-55001536D02*
X92789199Y-56434200D01*
X85141727Y-44999400D02*
X86218127Y-46075800D01*
X90531999Y-52744336D02*
X92789199Y-55001536D01*
X84851999Y-44999400D02*
X85141727Y-44999400D01*
X88504127Y-46075800D02*
X90531999Y-48103672D01*
X86218127Y-46075800D02*
X88504127Y-46075800D01*
D40*
%TO.N,Net-(U9-GPIO0)*%
X100585599Y-44054050D02*
X100585599Y-42112655D01*
X103228099Y-46233400D02*
X102764949Y-46233400D01*
D41*
%TO.N,AOUT1L*%
X72039145Y-32612662D02*
X72039145Y-32670346D01*
X95926066Y-27884600D02*
X76767207Y-27884600D01*
X98415599Y-26203400D02*
X97607266Y-26203400D01*
X76767207Y-27884600D02*
X72039145Y-32612662D01*
X97607266Y-26203400D02*
X95926066Y-27884600D01*
%TO.N,Net-(U14-Y2)*%
X74657459Y-47549294D02*
X74713991Y-47549294D01*
X75006884Y-48125030D02*
X75352399Y-48470545D01*
X74713991Y-47549294D02*
X75006884Y-47842187D01*
X71549935Y-39030400D02*
X69201535Y-41378800D01*
X72062153Y-46756218D02*
X73864383Y-46756218D01*
X69741735Y-44435800D02*
X72062153Y-46756218D01*
X75352399Y-48470545D02*
X75352399Y-51764359D01*
X69154092Y-44435800D02*
X69741735Y-44435800D01*
X75333799Y-52468854D02*
X75291572Y-52511081D01*
X68756399Y-43623893D02*
X68756399Y-44038107D01*
X73864383Y-46756218D02*
X74657459Y-47549294D01*
X69201535Y-41378800D02*
X69201535Y-43178757D01*
X69201535Y-43178757D02*
X68756399Y-43623893D01*
X68756399Y-44038107D02*
X69154092Y-44435800D01*
X72507599Y-39030400D02*
X71549935Y-39030400D01*
X75352399Y-51764359D02*
X75333799Y-51782959D01*
X75333799Y-51782959D02*
X75333799Y-52468854D01*
X75006884Y-47842187D02*
X75006884Y-48125030D01*
%TO.N,AOUT2L*%
X102835199Y-29353000D02*
X103390915Y-28797284D01*
X103390915Y-28797284D02*
X103390915Y-26203400D01*
%TO.N,42*%
X96089199Y-49134200D02*
X94556154Y-49134200D01*
X94556154Y-49134200D02*
X94499954Y-49190400D01*
%TO.N,45*%
X92275784Y-51686585D02*
X92929214Y-51686585D01*
X92275784Y-51686585D02*
X92154597Y-51807773D01*
X92929214Y-51686585D02*
X93081599Y-51534200D01*
X96089199Y-51534200D02*
X93081599Y-51534200D01*
%TO.N,24*%
X81240599Y-50734200D02*
X82735458Y-50734200D01*
X82735458Y-50734200D02*
X82859042Y-50610616D01*
X86985599Y-62703200D02*
X86985599Y-59226054D01*
X86985599Y-59226054D02*
X86822545Y-59063000D01*
X86985599Y-25339800D02*
X86960199Y-25314400D01*
X86985599Y-25543000D02*
X86985599Y-25339800D01*
X86960199Y-25314400D02*
X86960199Y-21123400D01*
%TO.N,13*%
X64932374Y-53134200D02*
X64595599Y-52797425D01*
X73040999Y-25593800D02*
X72990199Y-25543000D01*
X66244199Y-53134200D02*
X64932374Y-53134200D01*
X73015599Y-58910139D02*
X72959237Y-58853777D01*
X72990199Y-25543000D02*
X72990199Y-21123400D01*
X73015599Y-62703200D02*
X73015599Y-58910139D01*
%TO.N,51*%
X86132045Y-53129096D02*
X86720722Y-53717773D01*
X85439199Y-51534200D02*
X86132045Y-52227046D01*
X84689199Y-51534200D02*
X85439199Y-51534200D01*
X86132045Y-52227046D02*
X86132045Y-53129096D01*
%TO.N,18*%
X79365599Y-62703200D02*
X79365599Y-59195990D01*
X63744199Y-46905903D02*
X63727329Y-46922773D01*
X79340199Y-25466800D02*
X79340199Y-21123400D01*
X79238599Y-25568400D02*
X79340199Y-25466800D01*
X79365599Y-59195990D02*
X79017999Y-58848390D01*
X63744199Y-45034200D02*
X63744199Y-46905903D01*
%TO.N,3*%
X60315599Y-25060400D02*
X60290199Y-25035000D01*
X66244199Y-49934200D02*
X61004846Y-49934200D01*
X60315599Y-62703200D02*
X60315599Y-59326081D01*
X61004846Y-49934200D02*
X60167025Y-50772021D01*
X60315599Y-59326081D02*
X59842693Y-58853175D01*
X60290199Y-25035000D02*
X60290199Y-21123400D01*
X60315599Y-25441400D02*
X60315599Y-25060400D01*
%TO.N,27*%
X69840599Y-48334200D02*
X70853725Y-48334200D01*
X90770199Y-25263600D02*
X90770199Y-21123400D01*
X90795599Y-59073419D02*
X91384399Y-58484619D01*
X90795599Y-25543000D02*
X90795599Y-25289000D01*
X90795599Y-25289000D02*
X90770199Y-25263600D01*
X90795599Y-62703200D02*
X90795599Y-59073419D01*
X70853725Y-48334200D02*
X71217313Y-47970612D01*
X91384399Y-58484619D02*
X91384399Y-58430844D01*
%TO.N,ADC_3_RP*%
X110103099Y-46233400D02*
X110540599Y-46233400D01*
X110957984Y-45816015D02*
X110957984Y-45004699D01*
X110540599Y-46233400D02*
X110957984Y-45816015D01*
%TO.N,26*%
X89525599Y-60235298D02*
X89097701Y-59807400D01*
X89525599Y-25543000D02*
X89525599Y-25339800D01*
X89525599Y-62703200D02*
X89525599Y-60235298D01*
X89525599Y-25339800D02*
X89500199Y-25314400D01*
X81326481Y-52420082D02*
X83642917Y-52420082D01*
X89500199Y-25314400D02*
X89500199Y-21123400D01*
X81240599Y-52334200D02*
X81326481Y-52420082D01*
%TO.N,43*%
X96089199Y-49934200D02*
X95822478Y-49667479D01*
X95822478Y-49667479D02*
X92526530Y-49667479D01*
X92526530Y-49667479D02*
X92431064Y-49572013D01*
%TO.N,LED_OUT*%
X54829199Y-27625800D02*
X54829199Y-28133800D01*
X54829199Y-21504400D02*
X54829199Y-27625800D01*
X55235599Y-60137800D02*
X55235599Y-62703200D01*
X54829199Y-28133800D02*
X54219599Y-28743400D01*
X54879999Y-59782200D02*
X55235599Y-60137800D01*
X54879999Y-59528200D02*
X54879999Y-59782200D01*
X55210199Y-21123400D02*
X54829199Y-21504400D01*
%TO.N,7*%
X55594199Y-48334200D02*
X56162999Y-48903000D01*
X65522599Y-62576200D02*
X65522599Y-58588400D01*
X56509506Y-48903000D02*
X56695682Y-48716824D01*
X65395599Y-62703200D02*
X65522599Y-62576200D01*
X56162999Y-48903000D02*
X56509506Y-48903000D01*
X65370199Y-21123400D02*
X65370199Y-25543000D01*
X65522599Y-58588400D02*
X65649599Y-58461400D01*
X54844199Y-48334200D02*
X55594199Y-48334200D01*
X56695682Y-48716824D02*
X57004251Y-48716824D01*
X65370199Y-25543000D02*
X65395599Y-25568400D01*
%TO.N,25*%
X88255599Y-59668989D02*
X88317188Y-59607400D01*
X88204799Y-25543000D02*
X88204799Y-25339800D01*
X81240599Y-51534200D02*
X82914688Y-51534200D01*
X88230199Y-25314400D02*
X88230199Y-21123400D01*
X82914688Y-51534200D02*
X83320627Y-51940139D01*
X88255599Y-62703200D02*
X88255599Y-59668989D01*
X88204799Y-25339800D02*
X88230199Y-25314400D01*
D40*
%TO.N,BOTTOM_RAIL_NEG*%
X71556548Y-53818251D02*
X71556548Y-52757651D01*
X69840599Y-54734200D02*
X70640599Y-54734200D01*
X56353199Y-54025200D02*
X56353199Y-53432200D01*
X55644199Y-54734200D02*
X56353199Y-54025200D01*
X70640599Y-54734200D02*
X71556548Y-53818251D01*
X83378799Y-55210200D02*
X84213199Y-55210200D01*
X54844199Y-54734200D02*
X55644199Y-54734200D01*
X84213199Y-55210200D02*
X84689199Y-54734200D01*
D41*
%TO.N,52*%
X85439199Y-52334200D02*
X85514199Y-52409200D01*
X85016221Y-55209200D02*
X84242399Y-55983022D01*
X85514199Y-52409200D02*
X85514199Y-55209200D01*
X84689199Y-52334200D02*
X85439199Y-52334200D01*
X84242399Y-55983022D02*
X84242399Y-58105800D01*
X85514199Y-55209200D02*
X85016221Y-55209200D01*
%TO.N,20*%
X81905599Y-59088400D02*
X81778599Y-58961400D01*
X81880199Y-21123400D02*
X81880199Y-25266317D01*
X60544199Y-45871000D02*
X61196599Y-46523400D01*
X81905599Y-62703200D02*
X81905599Y-59088400D01*
X60544199Y-45034200D02*
X60544199Y-45871000D01*
X81880199Y-25266317D02*
X81781071Y-25365445D01*
%TO.N,60*%
X92568202Y-46844457D02*
X94081342Y-46844457D01*
X90947999Y-46675800D02*
X91985331Y-46675800D01*
X90389199Y-45034200D02*
X90389199Y-46117000D01*
X90389199Y-46117000D02*
X90947999Y-46675800D01*
X91985331Y-46675800D02*
X92070931Y-46761400D01*
X92485145Y-46761400D02*
X92568202Y-46844457D01*
X92070931Y-46761400D02*
X92485145Y-46761400D01*
%TO.N,44*%
X94719415Y-50734200D02*
X94424954Y-50439739D01*
X96089199Y-50734200D02*
X94719415Y-50734200D01*
%TO.N,46*%
X94674799Y-52334200D02*
X94643599Y-52365400D01*
X96089199Y-52334200D02*
X94674799Y-52334200D01*
%TO.N,12*%
X71745599Y-59036440D02*
X72096619Y-58685420D01*
X71745599Y-62703200D02*
X71745599Y-59036440D01*
X71745599Y-25568400D02*
X71720199Y-25543000D01*
X71720199Y-25543000D02*
X71720199Y-21123400D01*
X54844199Y-52334200D02*
X56601399Y-52334200D01*
X56601399Y-52334200D02*
X56632599Y-52365400D01*
%TO.N,33*%
X81240599Y-53134200D02*
X80156033Y-53134200D01*
X80156033Y-53134200D02*
X80007999Y-52986166D01*
%TO.N,35*%
X69840599Y-46230228D02*
X68924400Y-45314029D01*
X69840599Y-46734200D02*
X69840599Y-46230228D01*
%TO.N,1*%
X57750199Y-25339800D02*
X57750199Y-21123400D01*
X57648599Y-25441400D02*
X57750199Y-25339800D01*
X59266799Y-48334200D02*
X59147199Y-48453800D01*
X66244199Y-48334200D02*
X59266799Y-48334200D01*
X57775599Y-59274866D02*
X57351021Y-58850288D01*
X57775599Y-62703200D02*
X57775599Y-59274866D01*
%TO.N,19*%
X62144199Y-45034200D02*
X62144199Y-45821921D01*
X80610199Y-21123400D02*
X80610199Y-25110091D01*
X80610199Y-25110091D02*
X80410720Y-25309570D01*
X80635599Y-62703200D02*
X80635599Y-58969400D01*
X62144199Y-45821921D02*
X62791999Y-46469721D01*
X80635599Y-58969400D02*
X80627599Y-58961400D01*
%TO.N,15*%
X75555599Y-62703200D02*
X75555599Y-59071869D01*
X54844199Y-46734200D02*
X55344799Y-46734200D01*
X75555599Y-59071869D02*
X75709993Y-58917475D01*
X55344799Y-46734200D02*
X56353199Y-47742600D01*
X75530199Y-21123400D02*
X75530199Y-25543018D01*
X75530199Y-25543018D02*
X75555599Y-25568418D01*
%TO.N,59*%
X91989199Y-45034200D02*
X91989199Y-45972561D01*
X91989199Y-45972561D02*
X92278038Y-46261400D01*
%TO.N,4*%
X61585599Y-62703200D02*
X61585599Y-59266291D01*
X61585599Y-59266291D02*
X61133120Y-58813812D01*
X61560199Y-25543000D02*
X61560199Y-21123400D01*
X61585599Y-25568400D02*
X61560199Y-25543000D01*
X61827799Y-50734200D02*
X61585599Y-50976400D01*
X66244199Y-50734200D02*
X61827799Y-50734200D01*
%TO.N,32*%
X68590347Y-52334200D02*
X68214947Y-51958800D01*
X69840599Y-52334200D02*
X68590347Y-52334200D01*
%TO.N,22*%
X84445599Y-59271033D02*
X84498632Y-59218000D01*
X81240599Y-49134200D02*
X81830173Y-49134200D01*
X84445599Y-25568400D02*
X84420199Y-25543000D01*
X81830173Y-49134200D02*
X82249749Y-48714624D01*
X84445599Y-62703200D02*
X84445599Y-59271033D01*
X84420199Y-25543000D02*
X84420199Y-21123400D01*
%TO.N,56*%
X86218399Y-47534200D02*
X86477599Y-47793400D01*
X84689199Y-47534200D02*
X86218399Y-47534200D01*
%TO.N,17*%
X78070199Y-25543000D02*
X78070199Y-21123400D01*
X67313974Y-46734200D02*
X67818493Y-47238719D01*
X78095599Y-25568400D02*
X78070199Y-25543000D01*
X78095599Y-58850400D02*
X78087599Y-58842400D01*
X78095599Y-62703200D02*
X78095599Y-58850400D01*
X66244199Y-46734200D02*
X67313974Y-46734200D01*
%TO.N,5*%
X62830199Y-25543000D02*
X62830199Y-21123400D01*
X62855599Y-62703200D02*
X62855599Y-59450468D01*
X62855599Y-25568400D02*
X62830199Y-25543000D01*
X62721464Y-51534200D02*
X62510599Y-51745065D01*
X66244199Y-51534200D02*
X62721464Y-51534200D01*
X62855599Y-59450468D02*
X62403120Y-58997989D01*
%TO.N,57*%
X95299954Y-47007171D02*
X93813229Y-48493896D01*
X95299954Y-46757216D02*
X95299954Y-47007171D01*
X96089199Y-46734200D02*
X95322970Y-46734200D01*
X93813229Y-48493896D02*
X92015461Y-48493896D01*
X92015461Y-48493896D02*
X91617424Y-48095859D01*
X91261145Y-47534498D02*
X90660310Y-47534498D01*
X90660310Y-47534498D02*
X90652277Y-47526465D01*
X91617424Y-48095859D02*
X91617424Y-47890777D01*
X91617424Y-47890777D02*
X91261145Y-47534498D01*
X95322970Y-46734200D02*
X95299954Y-46757216D01*
%TO.N,16*%
X76825599Y-58941728D02*
X76709993Y-58826122D01*
X76825599Y-25568400D02*
X76800199Y-25543000D01*
X76825599Y-62703200D02*
X76825599Y-58941728D01*
X54844199Y-47534200D02*
X55437692Y-47534200D01*
X56204892Y-48301400D02*
X56403999Y-48301400D01*
X55437692Y-47534200D02*
X56204892Y-48301400D01*
X76800199Y-25543000D02*
X76800199Y-21123400D01*
%TO.N,49*%
X84689199Y-49934200D02*
X87511799Y-49934200D01*
X87511799Y-49934200D02*
X89057745Y-48388254D01*
%TO.N,37*%
X81058320Y-46734200D02*
X80742006Y-46417886D01*
X81240599Y-46734200D02*
X81058320Y-46734200D01*
%TO.N,10*%
X69205599Y-62703200D02*
X69205599Y-58872846D01*
X69205599Y-58872846D02*
X69207934Y-58870511D01*
X54844199Y-50734200D02*
X56866799Y-50734200D01*
X69180199Y-25387096D02*
X69080847Y-25486448D01*
X69180199Y-21123400D02*
X69180199Y-25387096D01*
X56866799Y-50734200D02*
X56886599Y-50714400D01*
%TO.N,55*%
X84689199Y-46734200D02*
X83939199Y-46734200D01*
X83939199Y-46734200D02*
X83675188Y-46998211D01*
X83675188Y-46998211D02*
X83675188Y-48151136D01*
%TO.N,28*%
X92065599Y-58763505D02*
X92384399Y-58444705D01*
X70448555Y-49134200D02*
X70741841Y-49427486D01*
X92040199Y-25466800D02*
X92040199Y-21123400D01*
X92065599Y-62703200D02*
X92065599Y-58763505D01*
X69840599Y-49134200D02*
X70448555Y-49134200D01*
X92065599Y-25492200D02*
X92040199Y-25466800D01*
%TO.N,14*%
X74107997Y-53828417D02*
X74507062Y-53429352D01*
X74260199Y-21123400D02*
X74260199Y-25543012D01*
X75029779Y-50961861D02*
X75052399Y-50984481D01*
X74285599Y-62703200D02*
X74285599Y-59160691D01*
X74322672Y-51254754D02*
X74615565Y-50961861D01*
X75052399Y-48594809D02*
X74506884Y-48049294D01*
X65118751Y-53934200D02*
X64523900Y-53339349D01*
X74615565Y-50961861D02*
X75029779Y-50961861D01*
X74507062Y-53429352D02*
X74507062Y-51853358D01*
X74507062Y-51853358D02*
X74322672Y-51668968D01*
X66244199Y-53934200D02*
X65118751Y-53934200D01*
X74285599Y-59160691D02*
X74620387Y-58825903D01*
X74322672Y-51668968D02*
X74322672Y-51254754D01*
X74260199Y-25543012D02*
X74285595Y-25568408D01*
X75052399Y-50984481D02*
X75052399Y-48594809D01*
%TO.N,54*%
X94761553Y-53934200D02*
X94724153Y-53971600D01*
X96089199Y-53934200D02*
X94761553Y-53934200D01*
%TO.N,2*%
X59045599Y-59266495D02*
X58576218Y-58797114D01*
X59045599Y-62703200D02*
X59045599Y-59266495D01*
X66244199Y-49134200D02*
X60635199Y-49134200D01*
X59020199Y-25035000D02*
X59020199Y-21123400D01*
X59045599Y-25060400D02*
X59020199Y-25035000D01*
X59045599Y-25441400D02*
X59045599Y-25060400D01*
X60635199Y-49134200D02*
X59909199Y-49860200D01*
%TO.N,21*%
X81240599Y-48334200D02*
X81972950Y-48334200D01*
X81972950Y-48334200D02*
X82168907Y-48138243D01*
X83175599Y-58779814D02*
X83026245Y-58630460D01*
X83150199Y-25543000D02*
X83150199Y-21123400D01*
X83175599Y-62703200D02*
X83175599Y-58779814D01*
X83175599Y-25568400D02*
X83150199Y-25543000D01*
%TO.N,36*%
X68598084Y-47041685D02*
X68598084Y-45660108D01*
X69090599Y-47534200D02*
X68598084Y-47041685D01*
X69840599Y-47534200D02*
X69090599Y-47534200D01*
X68598084Y-45660108D02*
X68261956Y-45323980D01*
X68261956Y-45323980D02*
X68261956Y-45241649D01*
%TO.N,29*%
X93310199Y-21123400D02*
X93310199Y-25395040D01*
X93310199Y-25395040D02*
X93211419Y-25493820D01*
X93335599Y-62703200D02*
X93335599Y-58923489D01*
X93335599Y-58923489D02*
X93483888Y-58775200D01*
%TO.N,8*%
X66640199Y-21123400D02*
X66640199Y-25449400D01*
X66665599Y-59550442D02*
X67207934Y-59008107D01*
X55019485Y-49309486D02*
X56910684Y-49309486D01*
X66640199Y-25449400D02*
X66521199Y-25568400D01*
X66665599Y-62703200D02*
X66665599Y-59550442D01*
X54844199Y-49134200D02*
X55019485Y-49309486D01*
%TO.N,58*%
X93639010Y-47993896D02*
X92260283Y-47993896D01*
X94506342Y-46668416D02*
X94506342Y-46702777D01*
X93589199Y-45784200D02*
X93879199Y-46074200D01*
X94707061Y-47175800D02*
X94457106Y-47175800D01*
X93912126Y-46074200D02*
X94506342Y-46668416D01*
X94786594Y-46983029D02*
X94786594Y-47096267D01*
X94506342Y-46702777D02*
X94786594Y-46983029D01*
X94786594Y-47096267D02*
X94707061Y-47175800D01*
X94457106Y-47175800D02*
X93639010Y-47993896D01*
X93589199Y-45034200D02*
X93589199Y-45784200D01*
X93879199Y-46074200D02*
X93912126Y-46074200D01*
%TO.N,LED_DATA_IN*%
X110103099Y-47833400D02*
X110906199Y-47833400D01*
X110906199Y-47833400D02*
X111910131Y-46829468D01*
%TO.N,34*%
X80441644Y-53934200D02*
X80427602Y-53948242D01*
X81240599Y-53934200D02*
X80441644Y-53934200D01*
%TO.N,41*%
X94594154Y-48334200D02*
X94499954Y-48428400D01*
X96089199Y-48334200D02*
X94594154Y-48334200D01*
%TO.N,9*%
X67935599Y-25568400D02*
X67910199Y-25543000D01*
X68207934Y-59930866D02*
X68207934Y-59006014D01*
X67935599Y-62703200D02*
X67935599Y-60203201D01*
X67935599Y-60203201D02*
X68207934Y-59930866D01*
X54844199Y-49934200D02*
X56994623Y-49934200D01*
X56994623Y-49934200D02*
X57031656Y-49897167D01*
X67910199Y-25543000D02*
X67910199Y-21123400D01*
%TO.N,30*%
X94605599Y-62703200D02*
X94605599Y-58670759D01*
X94605599Y-58670759D02*
X94396240Y-58461400D01*
X94580199Y-24957547D02*
X94253038Y-25284708D01*
X94580199Y-21123400D02*
X94580199Y-24957547D01*
%TO.N,11*%
X70640363Y-62538436D02*
X70640363Y-59207079D01*
X54844199Y-51534200D02*
X56817399Y-51534200D01*
X70450199Y-25357429D02*
X70301887Y-25505741D01*
X70640363Y-59207079D02*
X70919842Y-58927600D01*
X70450199Y-21123400D02*
X70450199Y-25357429D01*
X56817399Y-51534200D02*
X56886599Y-51603400D01*
X70475599Y-62703200D02*
X70640363Y-62538436D01*
%TO.N,38*%
X78740599Y-45784200D02*
X78815599Y-45859200D01*
X78740599Y-45034200D02*
X78740599Y-45784200D01*
X79454280Y-45859200D02*
X80160399Y-46565319D01*
X78815599Y-45859200D02*
X79454280Y-45859200D01*
%TO.N,50*%
X85439199Y-50734200D02*
X86721028Y-52016029D01*
X86721028Y-52016029D02*
X86721028Y-53010971D01*
X84689199Y-50734200D02*
X85439199Y-50734200D01*
%TO.N,40*%
X75306884Y-47923402D02*
X75758799Y-48375317D01*
X74838255Y-47249294D02*
X75306884Y-47717923D01*
X74837707Y-47001601D02*
X74837707Y-47249294D01*
X74837707Y-47249294D02*
X74838255Y-47249294D01*
X75540599Y-46298709D02*
X74837707Y-47001601D01*
X75540599Y-45034200D02*
X75540599Y-46298709D01*
X75306884Y-47717923D02*
X75306884Y-47923402D01*
X75758799Y-48375317D02*
X75758799Y-52271200D01*
%TO.N,6*%
X64125599Y-59469400D02*
X63625599Y-58969400D01*
X64228034Y-52334200D02*
X63625599Y-52936635D01*
X64100199Y-21123400D02*
X64100199Y-25543000D01*
X64125599Y-62703200D02*
X64125599Y-59469400D01*
X64100199Y-25543000D02*
X64125599Y-25568400D01*
X66244199Y-52334200D02*
X64228034Y-52334200D01*
%TO.N,31*%
X69840599Y-51534200D02*
X69090599Y-51534200D01*
X69090599Y-51534200D02*
X68595999Y-51039600D01*
X68595999Y-51039600D02*
X68595999Y-49977800D01*
%TO.N,23*%
X82311192Y-49934200D02*
X83240192Y-49005200D01*
X85715599Y-62703200D02*
X85715599Y-59207400D01*
X85715599Y-25289000D02*
X85690199Y-25263600D01*
X81240599Y-49934200D02*
X82311192Y-49934200D01*
X85715599Y-59207400D02*
X85834599Y-59088400D01*
X85715599Y-25543000D02*
X85715599Y-25289000D01*
X85690199Y-25263600D02*
X85690199Y-21123400D01*
%TO.N,47*%
X87021691Y-48334200D02*
X87308808Y-48047083D01*
X84689199Y-48334200D02*
X87021691Y-48334200D01*
D40*
%TO.N,TOP_RAIL_NEG*%
X97145599Y-56632600D02*
X97145599Y-62703200D01*
X58731942Y-57446457D02*
X52021356Y-57446457D01*
X88789199Y-56967467D02*
X88789199Y-56434200D01*
X97247199Y-56531000D02*
X97145599Y-56632600D01*
X89659242Y-57837510D02*
X88789199Y-56967467D01*
X60201399Y-57534400D02*
X60213999Y-57547000D01*
X58944199Y-57234200D02*
X58731942Y-57446457D01*
X97120199Y-24806400D02*
X96535999Y-25390600D01*
X97120199Y-21123400D02*
X97120199Y-24806400D01*
X59244399Y-57534400D02*
X60201399Y-57534400D01*
X52021356Y-57446457D02*
X51504999Y-56930100D01*
X73940599Y-56434200D02*
X73940599Y-58056120D01*
X73940599Y-58056120D02*
X73777099Y-58219620D01*
X58944199Y-56434200D02*
X58944199Y-57234200D01*
X58944199Y-57234200D02*
X59244399Y-57534400D01*
X89873473Y-57837510D02*
X89659242Y-57837510D01*
D41*
%TO.N,53*%
X96089199Y-53134200D02*
X92193861Y-53134200D01*
X92193861Y-53134200D02*
X92154597Y-53094936D01*
%TO.N,SW_D*%
X110103099Y-48633400D02*
X111596399Y-48633400D01*
X111596399Y-48633400D02*
X111826799Y-48403000D01*
D40*
%TO.N,/USB_D+*%
X106543599Y-35285401D02*
X106543599Y-38724400D01*
X108000345Y-33828655D02*
X106543599Y-35285401D01*
%TO.N,/USB_D-*%
X108566031Y-34394340D02*
X107559599Y-35400772D01*
X107559599Y-35400772D02*
X107559599Y-38724400D01*
D41*
%TO.N,/SWCLK*%
X107779799Y-53773537D02*
X107779799Y-54469200D01*
X104930599Y-57318400D02*
X104130599Y-57318400D01*
X107779799Y-54469200D02*
X104930599Y-57318400D01*
X107665599Y-51870900D02*
X107665599Y-53659337D01*
X107665599Y-53659337D02*
X107779799Y-53773537D01*
%TO.N,/SWD*%
X108065599Y-51870900D02*
X108079799Y-51885100D01*
X108079799Y-51885100D02*
X108079799Y-56187600D01*
X108079799Y-56187600D02*
X109210599Y-57318400D01*
%TO.N,I2C_SCL*%
X91840190Y-43918716D02*
X91830399Y-43918716D01*
X92330399Y-41438200D02*
X92330399Y-43428507D01*
X92330399Y-43428507D02*
X91840190Y-43918716D01*
X92065599Y-41173400D02*
X92330399Y-41438200D01*
X111275999Y-49833400D02*
X112080799Y-50638200D01*
X110103099Y-49833400D02*
X111275999Y-49833400D01*
%TO.N,SW_PUSH*%
X110540599Y-50633400D02*
X111928399Y-52021200D01*
X110103099Y-50633400D02*
X110540599Y-50633400D01*
X111928399Y-52021200D02*
X111928399Y-54397400D01*
%TO.N,SW_C*%
X110103099Y-49033400D02*
X111491999Y-49033400D01*
X111491999Y-49033400D02*
X111582567Y-49123968D01*
%TO.N,Net-(U2B-+)*%
X73385462Y-37701200D02*
X73554862Y-37531800D01*
%TO.N,SW_A*%
X99087168Y-47325031D02*
X98974399Y-47437800D01*
%TO.N,Net-(U2B-+)*%
X70831202Y-37531800D02*
X72781136Y-37531800D01*
X83334600Y-39887400D02*
X80857599Y-39887400D01*
X84175600Y-39046400D02*
X83334600Y-39887400D01*
X84175600Y-39046400D02*
X84175600Y-36982400D01*
X72781136Y-37531800D02*
X72950536Y-37701200D01*
X73554862Y-37531800D02*
X77643643Y-37531800D01*
X79708088Y-38737889D02*
X78849732Y-38737889D01*
X80857599Y-39887400D02*
X79708088Y-38737889D01*
X77643643Y-37531800D02*
X78849732Y-38737889D01*
%TO.N,Net-(U2C-+)*%
X86833199Y-39817800D02*
X86833199Y-39671999D01*
X86833199Y-39671999D02*
X86207600Y-39046400D01*
%TO.N,Net-(U2B-+)*%
X72950536Y-37701200D02*
X73385462Y-37701200D01*
%TO.N,SW_A*%
X103228099Y-47433400D02*
X101885567Y-47433400D01*
%TO.N,Net-(U2C-+)*%
X86207600Y-39046400D02*
X86207600Y-36982400D01*
%TO.N,Net-(U2D-+)*%
X88239600Y-36982400D02*
X88239600Y-39046400D01*
%TO.N,SW_A*%
X101777198Y-47325031D02*
X99087168Y-47325031D01*
X101885567Y-47433400D02*
X101777198Y-47325031D01*
%TO.N,Net-(U2B-+)*%
X69908408Y-38454594D02*
X70831202Y-37531800D01*
%TO.N,Net-(U2A-+)*%
X82143600Y-39062400D02*
X82143600Y-37987151D01*
X82143600Y-37987151D02*
X79144338Y-34987889D01*
X82143600Y-39062400D02*
X82143600Y-36966400D01*
D40*
%TO.N,TOP_RAIL_POS*%
X96180399Y-57293000D02*
X96204953Y-57317554D01*
X96204953Y-57317554D02*
X96204953Y-59351246D01*
X95875599Y-59680600D02*
X95875599Y-62703200D01*
X95850199Y-21123400D02*
X95850199Y-26067600D01*
X96204953Y-59351246D02*
X95875599Y-59680600D01*
X95850199Y-26067600D02*
X95985999Y-26203400D01*
%TO.N,BOTTOM_RAIL_POS*%
X87189199Y-56434200D02*
X87189199Y-55495606D01*
X87189199Y-57234200D02*
X87139199Y-57284200D01*
X49799999Y-55159400D02*
X49464312Y-55495087D01*
X72340599Y-56927039D02*
X72962676Y-57549116D01*
X87189199Y-55495606D02*
X87636502Y-55048303D01*
X55628974Y-55921400D02*
X55354199Y-55921400D01*
X55252599Y-56023000D02*
X55354199Y-55921400D01*
X49749199Y-56023000D02*
X55252599Y-56023000D01*
X57344199Y-55634200D02*
X57275799Y-55565800D01*
X85519999Y-57284200D02*
X84818199Y-56582400D01*
X57275799Y-55565800D02*
X55984574Y-55565800D01*
X87139199Y-57284200D02*
X85519999Y-57284200D01*
X87189199Y-56434200D02*
X87189199Y-57234200D01*
X72340599Y-56434200D02*
X72340599Y-56927039D01*
X57344199Y-56434200D02*
X57344199Y-55634200D01*
X49464312Y-55495087D02*
X49464312Y-55738113D01*
X55984574Y-55565800D02*
X55628974Y-55921400D01*
X49464312Y-55738113D02*
X49749199Y-56023000D01*
D41*
%TO.N,48*%
X87635907Y-49134200D02*
X88425653Y-48344454D01*
X84689199Y-49134200D02*
X87635907Y-49134200D01*
%TO.N,I2C_SDA*%
X82698648Y-26965400D02*
X82718399Y-26965400D01*
X58410599Y-30648400D02*
X59410599Y-30648400D01*
X82051261Y-26732227D02*
X82465475Y-26732227D01*
X82465475Y-26732227D02*
X82698648Y-26965400D01*
X110968892Y-50233400D02*
X112034092Y-51298600D01*
X110103099Y-50233400D02*
X110968892Y-50233400D01*
X63229999Y-26829000D02*
X70392842Y-26829000D01*
X93970599Y-41173400D02*
X94670599Y-41173400D01*
X94670599Y-41173400D02*
X95832799Y-40011200D01*
X112034092Y-51298600D02*
X112588799Y-51298600D01*
X95832799Y-40011200D02*
X95832799Y-38954200D01*
X71232056Y-26404000D02*
X71707801Y-26879745D01*
X70817842Y-26404000D02*
X71232056Y-26404000D01*
X59410599Y-30648400D02*
X63229999Y-26829000D01*
X81903743Y-26879745D02*
X82051261Y-26732227D01*
X71707801Y-26879745D02*
X81903743Y-26879745D01*
X70392842Y-26829000D02*
X70817842Y-26404000D01*
%TO.N,SW_B*%
X103228099Y-47833400D02*
X101861303Y-47833400D01*
X101652934Y-47625031D02*
X99494275Y-47625031D01*
X99224020Y-47895286D02*
X98382986Y-47895286D01*
X101861303Y-47833400D02*
X101652934Y-47625031D01*
X99494275Y-47625031D02*
X99224020Y-47895286D01*
D40*
%TO.N,+3V3*%
X106865599Y-44995900D02*
X106865599Y-45459050D01*
X108067599Y-50892200D02*
X107381149Y-50892200D01*
X93480799Y-42401400D02*
X93020599Y-41941200D01*
X93020599Y-40128400D02*
X92065599Y-39173400D01*
X106865599Y-51407750D02*
X106865599Y-51870900D01*
X106491249Y-45833400D02*
X104308399Y-45833400D01*
X102581199Y-45186500D02*
X102581199Y-43018200D01*
X98974399Y-43526200D02*
X97849599Y-42401400D01*
X109265599Y-44995900D02*
X110481299Y-43780200D01*
X111318799Y-42611800D02*
X111775999Y-42611800D01*
X109639949Y-49433400D02*
X109278374Y-49071825D01*
X97849599Y-42401400D02*
X93480799Y-42401400D01*
X107381149Y-50892200D02*
X106865599Y-51407750D01*
X63855600Y-36490400D02*
X67919600Y-36490400D01*
X103228099Y-49433400D02*
X103691249Y-49433400D01*
X107254799Y-45833400D02*
X108880399Y-45833400D01*
X41265599Y-26838400D02*
X46828199Y-32401000D01*
X109265599Y-44995900D02*
X109265599Y-45812200D01*
X107265599Y-45822600D02*
X107254799Y-45833400D01*
X109286799Y-45833400D02*
X110103099Y-45833400D01*
X104308399Y-45833400D02*
X103228099Y-45833400D01*
X108880399Y-45833400D02*
X109083599Y-45833400D01*
X93020599Y-41941200D02*
X93020599Y-40128400D01*
X107265599Y-44995900D02*
X107265599Y-45822600D01*
X103228099Y-45833400D02*
X102581199Y-45186500D01*
X109354574Y-49148025D02*
X109354574Y-49605225D01*
X106491249Y-45833400D02*
X107254799Y-45833400D01*
X104308399Y-48816250D02*
X104308399Y-45833400D01*
X108865599Y-44995900D02*
X109265599Y-44995900D01*
X109354574Y-49605225D02*
X108067599Y-50892200D01*
X111775999Y-42611800D02*
X112537999Y-43373800D01*
X109278374Y-49071825D02*
X109354574Y-49148025D01*
X112537999Y-43678600D02*
X112537999Y-43373800D01*
X110481299Y-43780200D02*
X112436399Y-43780200D01*
X112436399Y-43780200D02*
X112537999Y-43678600D01*
X106865599Y-45459050D02*
X106491249Y-45833400D01*
X103691249Y-49433400D02*
X104308399Y-48816250D01*
%TO.N,LED_5V*%
X89641462Y-35974000D02*
X81637166Y-35974000D01*
X79405850Y-34511026D02*
X79474624Y-34579800D01*
X71529373Y-35957000D02*
X77339625Y-35957000D01*
X39690799Y-33010600D02*
X41417999Y-33010600D01*
X56480199Y-21123400D02*
X56480199Y-31359600D01*
X38725599Y-26838400D02*
X38725599Y-27473400D01*
%TO.N,+3V3*%
X109083599Y-45833400D02*
X109286799Y-45833400D01*
%TO.N,LED_5V*%
X63414399Y-28286200D02*
X68494399Y-28286200D01*
%TO.N,+3V3*%
X109265599Y-45812200D02*
X109286799Y-45833400D01*
%TO.N,LED_5V*%
X36795199Y-38243000D02*
X36820599Y-38268400D01*
X39690799Y-41138600D02*
X36820599Y-38268400D01*
X54829199Y-33010600D02*
X41417999Y-33010600D01*
%TO.N,+3V3*%
X46828199Y-32401000D02*
X47615599Y-32401000D01*
%TO.N,LED_5V*%
X110150399Y-33163000D02*
X108374023Y-31386624D01*
X108374023Y-31386624D02*
X106694375Y-31386624D01*
X68494399Y-28286200D02*
X70018399Y-29810200D01*
X56480199Y-31359600D02*
X57013599Y-31893000D01*
X81193600Y-35530434D02*
X81193600Y-34245370D01*
%TO.N,-3.5V*%
X74740599Y-55634200D02*
X74740599Y-56434200D01*
X83429599Y-58105800D02*
X83879599Y-58555800D01*
X89322399Y-58867800D02*
X90541599Y-58867800D01*
X89589199Y-57234200D02*
X89589199Y-56434200D01*
X89010399Y-58555800D02*
X89322399Y-58867800D01*
X75352098Y-53704621D02*
X75562262Y-53704621D01*
X67339220Y-56734200D02*
X69865999Y-56734200D01*
X83879599Y-58555800D02*
X89010399Y-58555800D01*
X74326499Y-54730220D02*
X75352098Y-53704621D01*
X90795599Y-58613800D02*
X90795599Y-57885574D01*
X90795599Y-57885574D02*
X90194225Y-57284200D01*
X75869799Y-53397084D02*
X75869799Y-53186920D01*
X74326499Y-55220100D02*
X74326499Y-54730220D01*
X71745599Y-54854600D02*
X73960999Y-54854600D01*
X75869799Y-53186920D02*
X75878519Y-53178200D01*
X64430399Y-55464200D02*
X66106799Y-55464200D01*
X75562262Y-53704621D02*
X75869799Y-53397084D01*
X66106799Y-55501779D02*
X67339220Y-56734200D01*
X89639199Y-57284200D02*
X89589199Y-57234200D01*
X77638399Y-53178200D02*
X82565999Y-58105800D01*
X73960999Y-54854600D02*
X74326499Y-55220100D01*
%TO.N,+18V*%
X52390799Y-41494200D02*
X52060599Y-41164000D01*
%TO.N,-3.5V*%
X66106799Y-55464200D02*
X66106799Y-55501779D01*
D41*
%TO.N,/XIN*%
X106065599Y-52892233D02*
X105744263Y-53213569D01*
D40*
%TO.N,-3.5V*%
X90194225Y-57284200D02*
X89639199Y-57284200D01*
X90541599Y-58867800D02*
X90795599Y-58613800D01*
X75878519Y-53178200D02*
X77638399Y-53178200D01*
X74326499Y-55220100D02*
X74740599Y-55634200D01*
%TO.N,+18V*%
X61344199Y-42324098D02*
X61296220Y-42276119D01*
X91189199Y-44234200D02*
X91189199Y-45034200D01*
X89973199Y-43018200D02*
X91189199Y-44234200D01*
X52390799Y-41748200D02*
X52390799Y-41494200D01*
%TO.N,-3.5V*%
X69865999Y-56734200D02*
X71745599Y-54854600D01*
%TO.N,+18V*%
X89322399Y-43018200D02*
X89973199Y-43018200D01*
X61344199Y-45034200D02*
X61344199Y-42324098D01*
X52060599Y-41164000D02*
X52060599Y-38268400D01*
%TO.N,-3.5V*%
X82565999Y-58105800D02*
X83429599Y-58105800D01*
D41*
%TO.N,/XIN*%
X106065599Y-51870900D02*
X106065599Y-52892233D01*
D40*
%TO.N,+1V1*%
X106465599Y-43248600D02*
X106492799Y-43221400D01*
X108465599Y-44532750D02*
X108465599Y-44995900D01*
X107265599Y-51870900D02*
X107265599Y-53980200D01*
X109776949Y-43221400D02*
X108465599Y-44532750D01*
X107265599Y-53980200D02*
X107254799Y-53991000D01*
X111623599Y-43221400D02*
X109776949Y-43221400D01*
X106465599Y-44995900D02*
X106465599Y-43248600D01*
D41*
%TO.N,ADC_2_RP*%
X111506579Y-45691684D02*
X111506579Y-44866726D01*
X110103099Y-46633400D02*
X110564863Y-46633400D01*
X110564863Y-46633400D02*
X111506579Y-45691684D01*
D40*
%TO.N,+3V3*%
X109278374Y-49071825D02*
X109083599Y-48877050D01*
X93970599Y-39173400D02*
X92065599Y-39173400D01*
X108865599Y-45818600D02*
X108880399Y-45833400D01*
X110103099Y-49433400D02*
X109639949Y-49433400D01*
X109083599Y-48877050D02*
X109083599Y-45833400D01*
X108865599Y-44995900D02*
X108865599Y-45818600D01*
%TO.N,LED_5V*%
X56505599Y-59934600D02*
X55895999Y-59325000D01*
X51425599Y-54397400D02*
X51425599Y-53381400D01*
X110150399Y-33941342D02*
X110150399Y-33163000D01*
X109131716Y-34960025D02*
X110150399Y-33941342D01*
X42789599Y-41138600D02*
X39690799Y-41138600D01*
X36795199Y-29403800D02*
X36795199Y-33010600D01*
X89783062Y-35832400D02*
X89641462Y-35974000D01*
X77339625Y-35957000D02*
X78785599Y-34511026D01*
X51425599Y-55159400D02*
X51425599Y-54397400D01*
X78785599Y-34511026D02*
X79405850Y-34511026D01*
X36795199Y-33010600D02*
X36795199Y-38243000D01*
X39690799Y-33010600D02*
X36795199Y-33010600D01*
X80859170Y-34579800D02*
X81200948Y-34238022D01*
X70018399Y-34446026D02*
X71529373Y-35957000D01*
X79474624Y-34579800D02*
X80859170Y-34579800D01*
X102248599Y-35832400D02*
X89783062Y-35832400D01*
X56480199Y-31359600D02*
X54829199Y-33010600D01*
X106694375Y-31386624D02*
X102248599Y-35832400D01*
X38725599Y-27473400D02*
X36795199Y-29403800D01*
X57013599Y-31893000D02*
X59807599Y-31893000D01*
X36820599Y-38268400D02*
X36820599Y-35880800D01*
X81637166Y-35974000D02*
X81193600Y-35530434D01*
X70018399Y-29810200D02*
X70018399Y-34446026D01*
X47818799Y-54397400D02*
X47818799Y-46167800D01*
X59807599Y-31893000D02*
X63414399Y-28286200D01*
X56505599Y-62703200D02*
X56505599Y-59934600D01*
X47818799Y-46167800D02*
X42789599Y-41138600D01*
X81193600Y-34245370D02*
X81200948Y-34238022D01*
%TO.N,LED_GND*%
X65887600Y-39030400D02*
X67903600Y-39030400D01*
X82540599Y-34966400D02*
X82556599Y-34982400D01*
X58410599Y-38268400D02*
X63093600Y-38268400D01*
X71085199Y-56889600D02*
X71540599Y-56434200D01*
X63093600Y-38268400D02*
X63855600Y-39030400D01*
X54067199Y-59020200D02*
X54067199Y-59274200D01*
X82143600Y-34966400D02*
X82143600Y-34518601D01*
X76673199Y-32959800D02*
X75367431Y-31654032D01*
X54766456Y-56434200D02*
X54304199Y-56896457D01*
X59909199Y-36769800D02*
X58410599Y-38268400D01*
X105390599Y-49708400D02*
X105665599Y-49983400D01*
X59909199Y-32299400D02*
X59909199Y-36769800D01*
X87645999Y-54377400D02*
X88306399Y-53717000D01*
X80585088Y-34161026D02*
X78575393Y-34161026D01*
X69662799Y-31788599D02*
X67919600Y-30045400D01*
X108778163Y-26828297D02*
X104976130Y-30630331D01*
X105578399Y-33987860D02*
X106868975Y-32697284D01*
X73167999Y-37176200D02*
X72507599Y-36515800D01*
X82143600Y-34966400D02*
X82540599Y-34966400D01*
X53940199Y-24679400D02*
X53940199Y-21123400D01*
X105527599Y-34534600D02*
X105578399Y-34483800D01*
X62163199Y-30045400D02*
X59909199Y-32299400D01*
X47818799Y-36566600D02*
X49520599Y-38268400D01*
X75367431Y-31654032D02*
X75367431Y-31604431D01*
X86389199Y-56434200D02*
X86389199Y-55634200D01*
X54067199Y-59274200D02*
X53965599Y-59375800D01*
X105578399Y-34483800D02*
X105578399Y-33987860D01*
X88306399Y-53717000D02*
X88306399Y-50638200D01*
X63855600Y-30045400D02*
X67919600Y-30045400D01*
X78575393Y-34161026D02*
X77374167Y-32959800D01*
X49495199Y-29403800D02*
X53940199Y-24958800D01*
X104889076Y-30717385D02*
X104976130Y-30630331D01*
X49799999Y-56930100D02*
X49782842Y-56930100D01*
X69662799Y-34585400D02*
X69662799Y-31788599D01*
X56544199Y-56434200D02*
X54766456Y-56434200D01*
X86389199Y-55634200D02*
X87645999Y-54377400D01*
X63855600Y-30045400D02*
X62163199Y-30045400D01*
X77374167Y-32959800D02*
X76673199Y-32959800D01*
X80958092Y-33788022D02*
X80585088Y-34161026D01*
X71085199Y-57801000D02*
X71085199Y-56889600D01*
X71593199Y-36515800D02*
X69662799Y-34585400D01*
X82143600Y-34518601D02*
X81413021Y-33788022D01*
X65887600Y-39030400D02*
X63855600Y-39030400D01*
X49782842Y-56930100D02*
X49749199Y-56896457D01*
X53940199Y-24958800D02*
X53940199Y-24679400D01*
X67903600Y-39030400D02*
X67919600Y-39046400D01*
X53965599Y-59375800D02*
X53965599Y-62703200D01*
X115000703Y-33050837D02*
X115000703Y-31846498D01*
X81413021Y-33788022D02*
X80958092Y-33788022D01*
X47818799Y-35753800D02*
X47818799Y-36566600D01*
X82556599Y-34982400D02*
X88239600Y-34982400D01*
X72507599Y-36515800D02*
X71593199Y-36515800D01*
X105665599Y-49983400D02*
X105665599Y-51870900D01*
X111111615Y-36939924D02*
X115000703Y-33050837D01*
D41*
%TO.N,Net-(U2A--)*%
X74290399Y-31702864D02*
X71194058Y-34799205D01*
X74290399Y-31514736D02*
X74290399Y-31702864D01*
X75569873Y-30423390D02*
X75381745Y-30423390D01*
X71194058Y-34799205D02*
X71167792Y-34799205D01*
X77469863Y-28523400D02*
X75569873Y-30423390D01*
%TO.N,/QSPI_SD3*%
X106065599Y-42000782D02*
X105289423Y-41224606D01*
%TO.N,Net-(U2A--)*%
X75381745Y-30423390D02*
X74290399Y-31514736D01*
X88255599Y-29648400D02*
X87130599Y-28523400D01*
%TO.N,/QSPI_SD3*%
X106065599Y-44995900D02*
X106065599Y-42000782D01*
%TO.N,Net-(U2A--)*%
X87130599Y-28523400D02*
X77469863Y-28523400D01*
D40*
%TO.N,LED_GND*%
X70778829Y-55234200D02*
X73176740Y-52836289D01*
D41*
%TO.N,29*%
X72554708Y-49669309D02*
X72664211Y-49778812D01*
X71986073Y-49669309D02*
X72554708Y-49669309D01*
D40*
%TO.N,LED_GND*%
X68721599Y-55234200D02*
X70778829Y-55234200D01*
X68087999Y-55870600D02*
X68087999Y-55490997D01*
X73176740Y-52469936D02*
X73145383Y-52438579D01*
X68334799Y-55244197D02*
X68334799Y-55217400D01*
X68697599Y-55210200D02*
X68721599Y-55234200D01*
X73145383Y-52438579D02*
X73145383Y-52304066D01*
X73176740Y-52836289D02*
X73176740Y-52469936D01*
X68341999Y-55210200D02*
X68697599Y-55210200D01*
D41*
%TO.N,29*%
X72664211Y-49778812D02*
X72664211Y-50485920D01*
X69840599Y-49934200D02*
X71721182Y-49934200D01*
D40*
%TO.N,LED_GND*%
X68087999Y-55490997D02*
X68334799Y-55244197D01*
D41*
%TO.N,29*%
X71721182Y-49934200D02*
X71986073Y-49669309D01*
D40*
%TO.N,LED_GND*%
X68334799Y-55217400D02*
X68341999Y-55210200D01*
D41*
%TO.N,Net-(U2D--)*%
X82540599Y-29648400D02*
X81314599Y-30874400D01*
D40*
%TO.N,Net-(U9-GPIO1)*%
X102669975Y-46633400D02*
X99448599Y-43412024D01*
X103228099Y-46633400D02*
X102669975Y-46633400D01*
D41*
%TO.N,Net-(U2D--)*%
X81314599Y-31463533D02*
X80377132Y-32401000D01*
X79548372Y-32640627D02*
X79548372Y-33711026D01*
X79787999Y-32401000D02*
X79548372Y-32640627D01*
X80377132Y-32401000D02*
X79787999Y-32401000D01*
D40*
%TO.N,Net-(U9-GPIO1)*%
X99448599Y-41046548D02*
X100096954Y-40398193D01*
D41*
%TO.N,Net-(U2D--)*%
X81314599Y-30874400D02*
X81314599Y-31463533D01*
D40*
%TO.N,Net-(U9-GPIO1)*%
X99448599Y-43412024D02*
X99448599Y-41046548D01*
D41*
%TO.N,Net-(U2B--)*%
X74742799Y-31486600D02*
X75506009Y-30723390D01*
X81493727Y-28937000D02*
X81607327Y-28823400D01*
X75506009Y-30723390D02*
X77332389Y-30723390D01*
%TO.N,Net-(U14-Y4)*%
X77940599Y-56434200D02*
X77940599Y-57184200D01*
%TO.N,Net-(U2B--)*%
X79118779Y-28937000D02*
X81493727Y-28937000D01*
%TO.N,Net-(U14-Y4)*%
X74296080Y-57996139D02*
X74302099Y-58002157D01*
%TO.N,Net-(U2B--)*%
X77332389Y-30723390D02*
X79118779Y-28937000D01*
X81607327Y-28823400D02*
X85525599Y-28823400D01*
X74742799Y-33312980D02*
X74742799Y-31486600D01*
X85525599Y-28823400D02*
X86350599Y-29648400D01*
X72759200Y-35296579D02*
X74742799Y-33312980D01*
X72759200Y-35487000D02*
X72759200Y-35296579D01*
%TO.N,Net-(U14-Y4)*%
X73042616Y-58227600D02*
X70604824Y-58227600D01*
X77493980Y-57630819D02*
X74661400Y-57630819D01*
X74302099Y-58002157D02*
X74302099Y-58437083D01*
X73994562Y-58744620D02*
X73559636Y-58744620D01*
X74302099Y-58437083D02*
X73994562Y-58744620D01*
X70604824Y-58227600D02*
X70206526Y-58625898D01*
X74661400Y-57630819D02*
X74296080Y-57996139D01*
X73559636Y-58744620D02*
X73042616Y-58227600D01*
X77940599Y-57184200D02*
X77493980Y-57630819D01*
D40*
%TO.N,LED_GND*%
X115011266Y-33061400D02*
X115179599Y-33061400D01*
X108778163Y-26828297D02*
X115011266Y-33061400D01*
D41*
%TO.N,/QSPI_SD1*%
X104465599Y-44995900D02*
X104465599Y-42821456D01*
%TO.N,/QSPI_SS*%
X104065599Y-44995900D02*
X104065599Y-43080200D01*
%TO.N,/QSPI_SD1*%
X104465599Y-42821456D02*
X102884339Y-41240196D01*
%TO.N,/QSPI_SS*%
X104065599Y-43080200D02*
X102225599Y-41240200D01*
%TO.N,Net-(U15-Y4)*%
X67919600Y-44203167D02*
X67966033Y-44249600D01*
X67919600Y-41046400D02*
X67919600Y-44203167D01*
%TO.N,/QSPI_SCLK*%
X105665599Y-42201819D02*
X104689635Y-41225855D01*
X105665599Y-44995900D02*
X105665599Y-42201819D01*
%TO.N,30*%
X69840599Y-50734200D02*
X71149946Y-50734200D01*
%TO.N,/QSPI_SD0*%
X105265599Y-42553000D02*
X104105199Y-41392600D01*
X105265599Y-44995900D02*
X105265599Y-42553000D01*
X104105199Y-41392600D02*
X104105199Y-41240200D01*
D40*
%TO.N,TOP_RAIL_POS*%
X90389199Y-56984200D02*
X90389199Y-56434200D01*
D41*
%TO.N,Net-(JP2-C)*%
X85176828Y-33298400D02*
X85638228Y-33759800D01*
X84190599Y-33298400D02*
X85176828Y-33298400D01*
X85638228Y-33759800D02*
X86787199Y-33759800D01*
%TO.N,Net-(JP3-C)*%
X86942799Y-33221800D02*
X87493599Y-33772600D01*
D40*
%TO.N,TOP_RAIL_POS*%
X91053599Y-57648600D02*
X90389199Y-56984200D01*
D41*
%TO.N,Net-(JP3-C)*%
X85469599Y-33160464D02*
X85730935Y-33421800D01*
X85730935Y-33421800D02*
X86214706Y-33421800D01*
%TO.N,Net-(JP2-C)*%
X82540599Y-31648400D02*
X84190599Y-33298400D01*
%TO.N,Net-(JP3-C)*%
X85469599Y-32672400D02*
X85469599Y-33160464D01*
D40*
%TO.N,TOP_RAIL_POS*%
X95824799Y-57648600D02*
X91053599Y-57648600D01*
X96180399Y-57293000D02*
X95824799Y-57648600D01*
D41*
%TO.N,Net-(JP3-C)*%
X84445599Y-31648400D02*
X85469599Y-32672400D01*
%TO.N,Net-(JP2-C)*%
X86787199Y-33759800D02*
X86825199Y-33721800D01*
%TO.N,Net-(JP3-C)*%
X86414706Y-33221800D02*
X86942799Y-33221800D01*
X86214706Y-33421800D02*
X86414706Y-33221800D01*
D40*
%TO.N,+3V3*%
X98618799Y-43170600D02*
X98618799Y-36922200D01*
X98974399Y-43526200D02*
X98618799Y-43170600D01*
X98618799Y-36922200D02*
X99228399Y-36312600D01*
D41*
%TO.N,30*%
X72222860Y-51084955D02*
X72623825Y-51485920D01*
X71149946Y-50734200D02*
X71500701Y-51084955D01*
X71500701Y-51084955D02*
X72222860Y-51084955D01*
%TO.N,13*%
X73596983Y-53052443D02*
X73596983Y-50711584D01*
X73117199Y-49393947D02*
X73533012Y-48978134D01*
X73596983Y-50711584D02*
X73117199Y-50231800D01*
X73117199Y-50231800D02*
X73117199Y-49393947D01*
X73533012Y-48978134D02*
X73533012Y-47556218D01*
%TO.N,Net-(U13-Y4)*%
X63155600Y-41030400D02*
X63855600Y-41030400D01*
X57696663Y-41387800D02*
X62798200Y-41387800D01*
X57238570Y-41845893D02*
X57696663Y-41387800D01*
X58181999Y-49447324D02*
X58181999Y-47859272D01*
X56186378Y-42270621D02*
X56611106Y-41845893D01*
X62944199Y-56434200D02*
X62944199Y-54209524D01*
X55903999Y-42912693D02*
X56186378Y-42630314D01*
X62944199Y-54209524D02*
X58181999Y-49447324D01*
X58181999Y-47859272D02*
X55903999Y-45581272D01*
X56186378Y-42630314D02*
X56186378Y-42270621D01*
X56611106Y-41845893D02*
X57238570Y-41845893D01*
X62798200Y-41387800D02*
X63155600Y-41030400D01*
X55903999Y-45581272D02*
X55903999Y-42912693D01*
%TO.N,/QSPI_SD2*%
X104865599Y-44995900D02*
X104865599Y-42601641D01*
X103484008Y-41220050D02*
X103484008Y-41209408D01*
X104865599Y-42601641D02*
X103484008Y-41220050D01*
%TO.N,39*%
X77753292Y-46097978D02*
X78167506Y-46097978D01*
X78167506Y-46097978D02*
X78460399Y-46390871D01*
X77745355Y-46105916D02*
X77753292Y-46097978D01*
X78460399Y-46390871D02*
X78949015Y-46390871D01*
X77140599Y-45501160D02*
X77745355Y-46105916D01*
X78949015Y-46390871D02*
X80274257Y-47716113D01*
X77140599Y-45034200D02*
X77140599Y-45501160D01*
D40*
%TO.N,+3V3*%
X106865599Y-51870900D02*
X106865599Y-53669000D01*
X106492799Y-54041800D02*
X102022399Y-54041800D01*
X106865599Y-53669000D02*
X106492799Y-54041800D01*
%TD*%
M02*
