%TF.GenerationSoftware,KiCad,Pcbnew,8.0.0*%
%TF.CreationDate,2024-02-28T09:47:08-08:00*%
%TF.ProjectId,SenseBarnacle,53656e73-6542-4617-926e-61636c652e6b,rev?*%
%TF.SameCoordinates,Original*%
%TF.FileFunction,Drillmap*%
%TF.FilePolarity,Positive*%
%FSLAX45Y45*%
G04 Gerber Fmt 4.5, Leading zero omitted, Abs format (unit mm)*
G04 Created by KiCad (PCBNEW 8.0.0) date 2024-02-28 09:47:08*
%MOMM*%
%LPD*%
G01*
G04 APERTURE LIST*
%ADD10C,0.050000*%
%ADD11C,0.120000*%
%ADD12C,0.200000*%
%ADD13C,0.100000*%
%ADD14C,0.105000*%
G04 APERTURE END LIST*
D10*
X5279720Y-2503500D02*
X3735400Y-2503500D01*
X11378260Y-5858840D02*
X11683060Y-5554040D01*
X9828860Y-5965520D02*
X9828860Y-5858840D01*
X11111560Y-2503500D02*
X11683060Y-3075000D01*
X5282260Y-5965520D02*
X5282260Y-5858840D01*
X3735400Y-2503500D02*
X3428060Y-2810840D01*
X3428060Y-2810840D02*
X3428060Y-5528640D01*
X5279720Y-2417140D02*
X5279720Y-2503500D01*
X9826320Y-2503500D02*
X11111560Y-2503500D01*
X9828860Y-5858840D02*
X11378260Y-5858840D01*
X11683060Y-3075000D02*
X11683060Y-5554040D01*
X3758260Y-5858840D02*
X3428060Y-5528640D01*
X5282260Y-5858840D02*
X3758260Y-5858840D01*
X9826320Y-2417140D02*
X9826320Y-2503500D01*
D11*
X5279720Y-1744040D02*
X5279720Y-2359940D01*
X5279720Y-2417140D02*
X5279720Y-2359940D01*
X9826320Y-1744040D02*
X5279720Y-1744040D01*
X9826320Y-2359940D02*
X9826320Y-1744040D01*
X9826320Y-2417140D02*
X9826320Y-2359940D01*
X5282260Y-5965520D02*
X5282260Y-6022720D01*
X5282260Y-6638620D02*
X5282260Y-6022720D01*
X9828860Y-5965520D02*
X9828860Y-6022720D01*
X9828860Y-6022720D02*
X9828860Y-6638620D01*
X9828860Y-6638620D02*
X5282260Y-6638620D01*
D12*
D13*
X4339478Y-4923222D02*
X4414478Y-4998222D01*
X4414478Y-4923222D02*
X4339478Y-4998222D01*
X10873319Y-3043454D02*
G75*
G02*
X10783319Y-3043454I-45000J0D01*
G01*
X10783319Y-3043454D02*
G75*
G02*
X10873319Y-3043454I45000J0D01*
G01*
X11184446Y-3354581D02*
G75*
G02*
X11094446Y-3354581I-45000J0D01*
G01*
X11094446Y-3354581D02*
G75*
G02*
X11184446Y-3354581I45000J0D01*
G01*
D14*
X4104742Y-5180458D02*
X4104742Y-5285458D01*
X4052242Y-5232958D02*
X4157242Y-5232958D01*
D12*
X3686337Y-6956104D02*
X3686337Y-6756104D01*
X3686337Y-6756104D02*
X3733956Y-6756104D01*
X3733956Y-6756104D02*
X3762527Y-6765628D01*
X3762527Y-6765628D02*
X3781575Y-6784675D01*
X3781575Y-6784675D02*
X3791099Y-6803723D01*
X3791099Y-6803723D02*
X3800622Y-6841818D01*
X3800622Y-6841818D02*
X3800622Y-6870389D01*
X3800622Y-6870389D02*
X3791099Y-6908485D01*
X3791099Y-6908485D02*
X3781575Y-6927532D01*
X3781575Y-6927532D02*
X3762527Y-6946580D01*
X3762527Y-6946580D02*
X3733956Y-6956104D01*
X3733956Y-6956104D02*
X3686337Y-6956104D01*
X3886337Y-6956104D02*
X3886337Y-6822770D01*
X3886337Y-6860866D02*
X3895860Y-6841818D01*
X3895860Y-6841818D02*
X3905384Y-6832294D01*
X3905384Y-6832294D02*
X3924432Y-6822770D01*
X3924432Y-6822770D02*
X3943480Y-6822770D01*
X4010146Y-6956104D02*
X4010146Y-6822770D01*
X4010146Y-6756104D02*
X4000622Y-6765628D01*
X4000622Y-6765628D02*
X4010146Y-6775151D01*
X4010146Y-6775151D02*
X4019670Y-6765628D01*
X4019670Y-6765628D02*
X4010146Y-6756104D01*
X4010146Y-6756104D02*
X4010146Y-6775151D01*
X4133956Y-6956104D02*
X4114908Y-6946580D01*
X4114908Y-6946580D02*
X4105384Y-6927532D01*
X4105384Y-6927532D02*
X4105384Y-6756104D01*
X4238718Y-6956104D02*
X4219670Y-6946580D01*
X4219670Y-6946580D02*
X4210146Y-6927532D01*
X4210146Y-6927532D02*
X4210146Y-6756104D01*
X4467289Y-6956104D02*
X4467289Y-6756104D01*
X4467289Y-6756104D02*
X4533956Y-6898961D01*
X4533956Y-6898961D02*
X4600622Y-6756104D01*
X4600622Y-6756104D02*
X4600622Y-6956104D01*
X4781575Y-6956104D02*
X4781575Y-6851342D01*
X4781575Y-6851342D02*
X4772051Y-6832294D01*
X4772051Y-6832294D02*
X4753003Y-6822770D01*
X4753003Y-6822770D02*
X4714908Y-6822770D01*
X4714908Y-6822770D02*
X4695861Y-6832294D01*
X4781575Y-6946580D02*
X4762527Y-6956104D01*
X4762527Y-6956104D02*
X4714908Y-6956104D01*
X4714908Y-6956104D02*
X4695861Y-6946580D01*
X4695861Y-6946580D02*
X4686337Y-6927532D01*
X4686337Y-6927532D02*
X4686337Y-6908485D01*
X4686337Y-6908485D02*
X4695861Y-6889437D01*
X4695861Y-6889437D02*
X4714908Y-6879913D01*
X4714908Y-6879913D02*
X4762527Y-6879913D01*
X4762527Y-6879913D02*
X4781575Y-6870389D01*
X4876813Y-6822770D02*
X4876813Y-7022770D01*
X4876813Y-6832294D02*
X4895861Y-6822770D01*
X4895861Y-6822770D02*
X4933956Y-6822770D01*
X4933956Y-6822770D02*
X4953003Y-6832294D01*
X4953003Y-6832294D02*
X4962527Y-6841818D01*
X4962527Y-6841818D02*
X4972051Y-6860866D01*
X4972051Y-6860866D02*
X4972051Y-6918008D01*
X4972051Y-6918008D02*
X4962527Y-6937056D01*
X4962527Y-6937056D02*
X4953003Y-6946580D01*
X4953003Y-6946580D02*
X4933956Y-6956104D01*
X4933956Y-6956104D02*
X4895861Y-6956104D01*
X4895861Y-6956104D02*
X4876813Y-6946580D01*
X5057765Y-6937056D02*
X5067289Y-6946580D01*
X5067289Y-6946580D02*
X5057765Y-6956104D01*
X5057765Y-6956104D02*
X5048242Y-6946580D01*
X5048242Y-6946580D02*
X5057765Y-6937056D01*
X5057765Y-6937056D02*
X5057765Y-6956104D01*
X5057765Y-6832294D02*
X5067289Y-6841818D01*
X5067289Y-6841818D02*
X5057765Y-6851342D01*
X5057765Y-6851342D02*
X5048242Y-6841818D01*
X5048242Y-6841818D02*
X5057765Y-6832294D01*
X5057765Y-6832294D02*
X5057765Y-6851342D01*
D13*
X3350560Y-7247120D02*
X3425560Y-7322120D01*
X3425560Y-7247120D02*
X3350560Y-7322120D01*
D12*
X3724432Y-7176104D02*
X3743480Y-7176104D01*
X3743480Y-7176104D02*
X3762527Y-7185628D01*
X3762527Y-7185628D02*
X3772051Y-7195151D01*
X3772051Y-7195151D02*
X3781575Y-7214199D01*
X3781575Y-7214199D02*
X3791099Y-7252294D01*
X3791099Y-7252294D02*
X3791099Y-7299913D01*
X3791099Y-7299913D02*
X3781575Y-7338008D01*
X3781575Y-7338008D02*
X3772051Y-7357056D01*
X3772051Y-7357056D02*
X3762527Y-7366580D01*
X3762527Y-7366580D02*
X3743480Y-7376104D01*
X3743480Y-7376104D02*
X3724432Y-7376104D01*
X3724432Y-7376104D02*
X3705384Y-7366580D01*
X3705384Y-7366580D02*
X3695860Y-7357056D01*
X3695860Y-7357056D02*
X3686337Y-7338008D01*
X3686337Y-7338008D02*
X3676813Y-7299913D01*
X3676813Y-7299913D02*
X3676813Y-7252294D01*
X3676813Y-7252294D02*
X3686337Y-7214199D01*
X3686337Y-7214199D02*
X3695860Y-7195151D01*
X3695860Y-7195151D02*
X3705384Y-7185628D01*
X3705384Y-7185628D02*
X3724432Y-7176104D01*
X3876813Y-7357056D02*
X3886337Y-7366580D01*
X3886337Y-7366580D02*
X3876813Y-7376104D01*
X3876813Y-7376104D02*
X3867289Y-7366580D01*
X3867289Y-7366580D02*
X3876813Y-7357056D01*
X3876813Y-7357056D02*
X3876813Y-7376104D01*
X3953003Y-7176104D02*
X4086337Y-7176104D01*
X4086337Y-7176104D02*
X4000622Y-7376104D01*
X4257765Y-7176104D02*
X4162527Y-7176104D01*
X4162527Y-7176104D02*
X4153003Y-7271342D01*
X4153003Y-7271342D02*
X4162527Y-7261818D01*
X4162527Y-7261818D02*
X4181575Y-7252294D01*
X4181575Y-7252294D02*
X4229194Y-7252294D01*
X4229194Y-7252294D02*
X4248242Y-7261818D01*
X4248242Y-7261818D02*
X4257765Y-7271342D01*
X4257765Y-7271342D02*
X4267289Y-7290389D01*
X4267289Y-7290389D02*
X4267289Y-7338008D01*
X4267289Y-7338008D02*
X4257765Y-7357056D01*
X4257765Y-7357056D02*
X4248242Y-7366580D01*
X4248242Y-7366580D02*
X4229194Y-7376104D01*
X4229194Y-7376104D02*
X4181575Y-7376104D01*
X4181575Y-7376104D02*
X4162527Y-7366580D01*
X4162527Y-7366580D02*
X4153003Y-7357056D01*
X4391099Y-7176104D02*
X4410146Y-7176104D01*
X4410146Y-7176104D02*
X4429194Y-7185628D01*
X4429194Y-7185628D02*
X4438718Y-7195151D01*
X4438718Y-7195151D02*
X4448242Y-7214199D01*
X4448242Y-7214199D02*
X4457765Y-7252294D01*
X4457765Y-7252294D02*
X4457765Y-7299913D01*
X4457765Y-7299913D02*
X4448242Y-7338008D01*
X4448242Y-7338008D02*
X4438718Y-7357056D01*
X4438718Y-7357056D02*
X4429194Y-7366580D01*
X4429194Y-7366580D02*
X4410146Y-7376104D01*
X4410146Y-7376104D02*
X4391099Y-7376104D01*
X4391099Y-7376104D02*
X4372051Y-7366580D01*
X4372051Y-7366580D02*
X4362527Y-7357056D01*
X4362527Y-7357056D02*
X4353003Y-7338008D01*
X4353003Y-7338008D02*
X4343480Y-7299913D01*
X4343480Y-7299913D02*
X4343480Y-7252294D01*
X4343480Y-7252294D02*
X4353003Y-7214199D01*
X4353003Y-7214199D02*
X4362527Y-7195151D01*
X4362527Y-7195151D02*
X4372051Y-7185628D01*
X4372051Y-7185628D02*
X4391099Y-7176104D01*
X4543480Y-7376104D02*
X4543480Y-7242770D01*
X4543480Y-7261818D02*
X4553003Y-7252294D01*
X4553003Y-7252294D02*
X4572051Y-7242770D01*
X4572051Y-7242770D02*
X4600623Y-7242770D01*
X4600623Y-7242770D02*
X4619670Y-7252294D01*
X4619670Y-7252294D02*
X4629194Y-7271342D01*
X4629194Y-7271342D02*
X4629194Y-7376104D01*
X4629194Y-7271342D02*
X4638718Y-7252294D01*
X4638718Y-7252294D02*
X4657765Y-7242770D01*
X4657765Y-7242770D02*
X4686337Y-7242770D01*
X4686337Y-7242770D02*
X4705384Y-7252294D01*
X4705384Y-7252294D02*
X4714908Y-7271342D01*
X4714908Y-7271342D02*
X4714908Y-7376104D01*
X4810146Y-7376104D02*
X4810146Y-7242770D01*
X4810146Y-7261818D02*
X4819670Y-7252294D01*
X4819670Y-7252294D02*
X4838718Y-7242770D01*
X4838718Y-7242770D02*
X4867289Y-7242770D01*
X4867289Y-7242770D02*
X4886337Y-7252294D01*
X4886337Y-7252294D02*
X4895861Y-7271342D01*
X4895861Y-7271342D02*
X4895861Y-7376104D01*
X4895861Y-7271342D02*
X4905384Y-7252294D01*
X4905384Y-7252294D02*
X4924432Y-7242770D01*
X4924432Y-7242770D02*
X4953003Y-7242770D01*
X4953003Y-7242770D02*
X4972051Y-7252294D01*
X4972051Y-7252294D02*
X4981575Y-7271342D01*
X4981575Y-7271342D02*
X4981575Y-7376104D01*
X5372051Y-7166580D02*
X5200623Y-7423723D01*
X5629194Y-7176104D02*
X5648242Y-7176104D01*
X5648242Y-7176104D02*
X5667289Y-7185628D01*
X5667289Y-7185628D02*
X5676813Y-7195151D01*
X5676813Y-7195151D02*
X5686337Y-7214199D01*
X5686337Y-7214199D02*
X5695861Y-7252294D01*
X5695861Y-7252294D02*
X5695861Y-7299913D01*
X5695861Y-7299913D02*
X5686337Y-7338008D01*
X5686337Y-7338008D02*
X5676813Y-7357056D01*
X5676813Y-7357056D02*
X5667289Y-7366580D01*
X5667289Y-7366580D02*
X5648242Y-7376104D01*
X5648242Y-7376104D02*
X5629194Y-7376104D01*
X5629194Y-7376104D02*
X5610146Y-7366580D01*
X5610146Y-7366580D02*
X5600623Y-7357056D01*
X5600623Y-7357056D02*
X5591099Y-7338008D01*
X5591099Y-7338008D02*
X5581575Y-7299913D01*
X5581575Y-7299913D02*
X5581575Y-7252294D01*
X5581575Y-7252294D02*
X5591099Y-7214199D01*
X5591099Y-7214199D02*
X5600623Y-7195151D01*
X5600623Y-7195151D02*
X5610146Y-7185628D01*
X5610146Y-7185628D02*
X5629194Y-7176104D01*
X5781575Y-7357056D02*
X5791099Y-7366580D01*
X5791099Y-7366580D02*
X5781575Y-7376104D01*
X5781575Y-7376104D02*
X5772051Y-7366580D01*
X5772051Y-7366580D02*
X5781575Y-7357056D01*
X5781575Y-7357056D02*
X5781575Y-7376104D01*
X5914908Y-7176104D02*
X5933956Y-7176104D01*
X5933956Y-7176104D02*
X5953004Y-7185628D01*
X5953004Y-7185628D02*
X5962527Y-7195151D01*
X5962527Y-7195151D02*
X5972051Y-7214199D01*
X5972051Y-7214199D02*
X5981575Y-7252294D01*
X5981575Y-7252294D02*
X5981575Y-7299913D01*
X5981575Y-7299913D02*
X5972051Y-7338008D01*
X5972051Y-7338008D02*
X5962527Y-7357056D01*
X5962527Y-7357056D02*
X5953004Y-7366580D01*
X5953004Y-7366580D02*
X5933956Y-7376104D01*
X5933956Y-7376104D02*
X5914908Y-7376104D01*
X5914908Y-7376104D02*
X5895861Y-7366580D01*
X5895861Y-7366580D02*
X5886337Y-7357056D01*
X5886337Y-7357056D02*
X5876813Y-7338008D01*
X5876813Y-7338008D02*
X5867289Y-7299913D01*
X5867289Y-7299913D02*
X5867289Y-7252294D01*
X5867289Y-7252294D02*
X5876813Y-7214199D01*
X5876813Y-7214199D02*
X5886337Y-7195151D01*
X5886337Y-7195151D02*
X5895861Y-7185628D01*
X5895861Y-7185628D02*
X5914908Y-7176104D01*
X6057765Y-7195151D02*
X6067289Y-7185628D01*
X6067289Y-7185628D02*
X6086337Y-7176104D01*
X6086337Y-7176104D02*
X6133956Y-7176104D01*
X6133956Y-7176104D02*
X6153004Y-7185628D01*
X6153004Y-7185628D02*
X6162527Y-7195151D01*
X6162527Y-7195151D02*
X6172051Y-7214199D01*
X6172051Y-7214199D02*
X6172051Y-7233247D01*
X6172051Y-7233247D02*
X6162527Y-7261818D01*
X6162527Y-7261818D02*
X6048242Y-7376104D01*
X6048242Y-7376104D02*
X6172051Y-7376104D01*
X6267289Y-7376104D02*
X6305384Y-7376104D01*
X6305384Y-7376104D02*
X6324432Y-7366580D01*
X6324432Y-7366580D02*
X6333956Y-7357056D01*
X6333956Y-7357056D02*
X6353004Y-7328485D01*
X6353004Y-7328485D02*
X6362527Y-7290389D01*
X6362527Y-7290389D02*
X6362527Y-7214199D01*
X6362527Y-7214199D02*
X6353004Y-7195151D01*
X6353004Y-7195151D02*
X6343480Y-7185628D01*
X6343480Y-7185628D02*
X6324432Y-7176104D01*
X6324432Y-7176104D02*
X6286337Y-7176104D01*
X6286337Y-7176104D02*
X6267289Y-7185628D01*
X6267289Y-7185628D02*
X6257765Y-7195151D01*
X6257765Y-7195151D02*
X6248242Y-7214199D01*
X6248242Y-7214199D02*
X6248242Y-7261818D01*
X6248242Y-7261818D02*
X6257765Y-7280866D01*
X6257765Y-7280866D02*
X6267289Y-7290389D01*
X6267289Y-7290389D02*
X6286337Y-7299913D01*
X6286337Y-7299913D02*
X6324432Y-7299913D01*
X6324432Y-7299913D02*
X6343480Y-7290389D01*
X6343480Y-7290389D02*
X6353004Y-7280866D01*
X6353004Y-7280866D02*
X6362527Y-7261818D01*
X6543480Y-7176104D02*
X6448242Y-7176104D01*
X6448242Y-7176104D02*
X6438718Y-7271342D01*
X6438718Y-7271342D02*
X6448242Y-7261818D01*
X6448242Y-7261818D02*
X6467289Y-7252294D01*
X6467289Y-7252294D02*
X6514908Y-7252294D01*
X6514908Y-7252294D02*
X6533956Y-7261818D01*
X6533956Y-7261818D02*
X6543480Y-7271342D01*
X6543480Y-7271342D02*
X6553004Y-7290389D01*
X6553004Y-7290389D02*
X6553004Y-7338008D01*
X6553004Y-7338008D02*
X6543480Y-7357056D01*
X6543480Y-7357056D02*
X6533956Y-7366580D01*
X6533956Y-7366580D02*
X6514908Y-7376104D01*
X6514908Y-7376104D02*
X6467289Y-7376104D01*
X6467289Y-7376104D02*
X6448242Y-7366580D01*
X6448242Y-7366580D02*
X6438718Y-7357056D01*
X6629194Y-7176104D02*
X6629194Y-7214199D01*
X6705385Y-7176104D02*
X6705385Y-7214199D01*
X7000623Y-7452294D02*
X6991099Y-7442770D01*
X6991099Y-7442770D02*
X6972051Y-7414199D01*
X6972051Y-7414199D02*
X6962527Y-7395151D01*
X6962527Y-7395151D02*
X6953004Y-7366580D01*
X6953004Y-7366580D02*
X6943480Y-7318961D01*
X6943480Y-7318961D02*
X6943480Y-7280866D01*
X6943480Y-7280866D02*
X6953004Y-7233247D01*
X6953004Y-7233247D02*
X6962527Y-7204675D01*
X6962527Y-7204675D02*
X6972051Y-7185628D01*
X6972051Y-7185628D02*
X6991099Y-7157056D01*
X6991099Y-7157056D02*
X7000623Y-7147532D01*
X7181575Y-7376104D02*
X7067289Y-7376104D01*
X7124432Y-7376104D02*
X7124432Y-7176104D01*
X7124432Y-7176104D02*
X7105385Y-7204675D01*
X7105385Y-7204675D02*
X7086337Y-7223723D01*
X7086337Y-7223723D02*
X7067289Y-7233247D01*
X7419670Y-7376104D02*
X7419670Y-7176104D01*
X7505385Y-7376104D02*
X7505385Y-7271342D01*
X7505385Y-7271342D02*
X7495861Y-7252294D01*
X7495861Y-7252294D02*
X7476813Y-7242770D01*
X7476813Y-7242770D02*
X7448242Y-7242770D01*
X7448242Y-7242770D02*
X7429194Y-7252294D01*
X7429194Y-7252294D02*
X7419670Y-7261818D01*
X7629194Y-7376104D02*
X7610147Y-7366580D01*
X7610147Y-7366580D02*
X7600623Y-7357056D01*
X7600623Y-7357056D02*
X7591099Y-7338008D01*
X7591099Y-7338008D02*
X7591099Y-7280866D01*
X7591099Y-7280866D02*
X7600623Y-7261818D01*
X7600623Y-7261818D02*
X7610147Y-7252294D01*
X7610147Y-7252294D02*
X7629194Y-7242770D01*
X7629194Y-7242770D02*
X7657766Y-7242770D01*
X7657766Y-7242770D02*
X7676813Y-7252294D01*
X7676813Y-7252294D02*
X7686337Y-7261818D01*
X7686337Y-7261818D02*
X7695861Y-7280866D01*
X7695861Y-7280866D02*
X7695861Y-7338008D01*
X7695861Y-7338008D02*
X7686337Y-7357056D01*
X7686337Y-7357056D02*
X7676813Y-7366580D01*
X7676813Y-7366580D02*
X7657766Y-7376104D01*
X7657766Y-7376104D02*
X7629194Y-7376104D01*
X7810147Y-7376104D02*
X7791099Y-7366580D01*
X7791099Y-7366580D02*
X7781575Y-7347532D01*
X7781575Y-7347532D02*
X7781575Y-7176104D01*
X7962528Y-7366580D02*
X7943480Y-7376104D01*
X7943480Y-7376104D02*
X7905385Y-7376104D01*
X7905385Y-7376104D02*
X7886337Y-7366580D01*
X7886337Y-7366580D02*
X7876813Y-7347532D01*
X7876813Y-7347532D02*
X7876813Y-7271342D01*
X7876813Y-7271342D02*
X7886337Y-7252294D01*
X7886337Y-7252294D02*
X7905385Y-7242770D01*
X7905385Y-7242770D02*
X7943480Y-7242770D01*
X7943480Y-7242770D02*
X7962528Y-7252294D01*
X7962528Y-7252294D02*
X7972051Y-7271342D01*
X7972051Y-7271342D02*
X7972051Y-7290389D01*
X7972051Y-7290389D02*
X7876813Y-7309437D01*
X8038718Y-7452294D02*
X8048242Y-7442770D01*
X8048242Y-7442770D02*
X8067289Y-7414199D01*
X8067289Y-7414199D02*
X8076813Y-7395151D01*
X8076813Y-7395151D02*
X8086337Y-7366580D01*
X8086337Y-7366580D02*
X8095861Y-7318961D01*
X8095861Y-7318961D02*
X8095861Y-7280866D01*
X8095861Y-7280866D02*
X8086337Y-7233247D01*
X8086337Y-7233247D02*
X8076813Y-7204675D01*
X8076813Y-7204675D02*
X8067289Y-7185628D01*
X8067289Y-7185628D02*
X8048242Y-7157056D01*
X8048242Y-7157056D02*
X8038718Y-7147532D01*
X8400623Y-7452294D02*
X8391099Y-7442770D01*
X8391099Y-7442770D02*
X8372051Y-7414199D01*
X8372051Y-7414199D02*
X8362528Y-7395151D01*
X8362528Y-7395151D02*
X8353004Y-7366580D01*
X8353004Y-7366580D02*
X8343480Y-7318961D01*
X8343480Y-7318961D02*
X8343480Y-7280866D01*
X8343480Y-7280866D02*
X8353004Y-7233247D01*
X8353004Y-7233247D02*
X8362528Y-7204675D01*
X8362528Y-7204675D02*
X8372051Y-7185628D01*
X8372051Y-7185628D02*
X8391099Y-7157056D01*
X8391099Y-7157056D02*
X8400623Y-7147532D01*
X8476813Y-7242770D02*
X8476813Y-7376104D01*
X8476813Y-7261818D02*
X8486337Y-7252294D01*
X8486337Y-7252294D02*
X8505385Y-7242770D01*
X8505385Y-7242770D02*
X8533956Y-7242770D01*
X8533956Y-7242770D02*
X8553004Y-7252294D01*
X8553004Y-7252294D02*
X8562528Y-7271342D01*
X8562528Y-7271342D02*
X8562528Y-7376104D01*
X8686337Y-7376104D02*
X8667290Y-7366580D01*
X8667290Y-7366580D02*
X8657766Y-7357056D01*
X8657766Y-7357056D02*
X8648242Y-7338008D01*
X8648242Y-7338008D02*
X8648242Y-7280866D01*
X8648242Y-7280866D02*
X8657766Y-7261818D01*
X8657766Y-7261818D02*
X8667290Y-7252294D01*
X8667290Y-7252294D02*
X8686337Y-7242770D01*
X8686337Y-7242770D02*
X8714909Y-7242770D01*
X8714909Y-7242770D02*
X8733956Y-7252294D01*
X8733956Y-7252294D02*
X8743480Y-7261818D01*
X8743480Y-7261818D02*
X8753004Y-7280866D01*
X8753004Y-7280866D02*
X8753004Y-7338008D01*
X8753004Y-7338008D02*
X8743480Y-7357056D01*
X8743480Y-7357056D02*
X8733956Y-7366580D01*
X8733956Y-7366580D02*
X8714909Y-7376104D01*
X8714909Y-7376104D02*
X8686337Y-7376104D01*
X8810147Y-7242770D02*
X8886337Y-7242770D01*
X8838718Y-7176104D02*
X8838718Y-7347532D01*
X8838718Y-7347532D02*
X8848242Y-7366580D01*
X8848242Y-7366580D02*
X8867290Y-7376104D01*
X8867290Y-7376104D02*
X8886337Y-7376104D01*
X9105385Y-7242770D02*
X9105385Y-7442770D01*
X9105385Y-7252294D02*
X9124432Y-7242770D01*
X9124432Y-7242770D02*
X9162528Y-7242770D01*
X9162528Y-7242770D02*
X9181575Y-7252294D01*
X9181575Y-7252294D02*
X9191099Y-7261818D01*
X9191099Y-7261818D02*
X9200623Y-7280866D01*
X9200623Y-7280866D02*
X9200623Y-7338008D01*
X9200623Y-7338008D02*
X9191099Y-7357056D01*
X9191099Y-7357056D02*
X9181575Y-7366580D01*
X9181575Y-7366580D02*
X9162528Y-7376104D01*
X9162528Y-7376104D02*
X9124432Y-7376104D01*
X9124432Y-7376104D02*
X9105385Y-7366580D01*
X9314909Y-7376104D02*
X9295861Y-7366580D01*
X9295861Y-7366580D02*
X9286337Y-7347532D01*
X9286337Y-7347532D02*
X9286337Y-7176104D01*
X9476813Y-7376104D02*
X9476813Y-7271342D01*
X9476813Y-7271342D02*
X9467290Y-7252294D01*
X9467290Y-7252294D02*
X9448242Y-7242770D01*
X9448242Y-7242770D02*
X9410147Y-7242770D01*
X9410147Y-7242770D02*
X9391099Y-7252294D01*
X9476813Y-7366580D02*
X9457766Y-7376104D01*
X9457766Y-7376104D02*
X9410147Y-7376104D01*
X9410147Y-7376104D02*
X9391099Y-7366580D01*
X9391099Y-7366580D02*
X9381575Y-7347532D01*
X9381575Y-7347532D02*
X9381575Y-7328485D01*
X9381575Y-7328485D02*
X9391099Y-7309437D01*
X9391099Y-7309437D02*
X9410147Y-7299913D01*
X9410147Y-7299913D02*
X9457766Y-7299913D01*
X9457766Y-7299913D02*
X9476813Y-7290389D01*
X9543480Y-7242770D02*
X9619671Y-7242770D01*
X9572052Y-7176104D02*
X9572052Y-7347532D01*
X9572052Y-7347532D02*
X9581575Y-7366580D01*
X9581575Y-7366580D02*
X9600623Y-7376104D01*
X9600623Y-7376104D02*
X9619671Y-7376104D01*
X9762528Y-7366580D02*
X9743480Y-7376104D01*
X9743480Y-7376104D02*
X9705385Y-7376104D01*
X9705385Y-7376104D02*
X9686337Y-7366580D01*
X9686337Y-7366580D02*
X9676813Y-7347532D01*
X9676813Y-7347532D02*
X9676813Y-7271342D01*
X9676813Y-7271342D02*
X9686337Y-7252294D01*
X9686337Y-7252294D02*
X9705385Y-7242770D01*
X9705385Y-7242770D02*
X9743480Y-7242770D01*
X9743480Y-7242770D02*
X9762528Y-7252294D01*
X9762528Y-7252294D02*
X9772052Y-7271342D01*
X9772052Y-7271342D02*
X9772052Y-7290389D01*
X9772052Y-7290389D02*
X9676813Y-7309437D01*
X9943480Y-7376104D02*
X9943480Y-7176104D01*
X9943480Y-7366580D02*
X9924433Y-7376104D01*
X9924433Y-7376104D02*
X9886337Y-7376104D01*
X9886337Y-7376104D02*
X9867290Y-7366580D01*
X9867290Y-7366580D02*
X9857766Y-7357056D01*
X9857766Y-7357056D02*
X9848242Y-7338008D01*
X9848242Y-7338008D02*
X9848242Y-7280866D01*
X9848242Y-7280866D02*
X9857766Y-7261818D01*
X9857766Y-7261818D02*
X9867290Y-7252294D01*
X9867290Y-7252294D02*
X9886337Y-7242770D01*
X9886337Y-7242770D02*
X9924433Y-7242770D01*
X9924433Y-7242770D02*
X9943480Y-7252294D01*
X10019671Y-7452294D02*
X10029194Y-7442770D01*
X10029194Y-7442770D02*
X10048242Y-7414199D01*
X10048242Y-7414199D02*
X10057766Y-7395151D01*
X10057766Y-7395151D02*
X10067290Y-7366580D01*
X10067290Y-7366580D02*
X10076813Y-7318961D01*
X10076813Y-7318961D02*
X10076813Y-7280866D01*
X10076813Y-7280866D02*
X10067290Y-7233247D01*
X10067290Y-7233247D02*
X10057766Y-7204675D01*
X10057766Y-7204675D02*
X10048242Y-7185628D01*
X10048242Y-7185628D02*
X10029194Y-7157056D01*
X10029194Y-7157056D02*
X10019671Y-7147532D01*
D13*
X3425560Y-7548620D02*
G75*
G02*
X3335560Y-7548620I-45000J0D01*
G01*
X3335560Y-7548620D02*
G75*
G02*
X3425560Y-7548620I45000J0D01*
G01*
D12*
X3724432Y-7440104D02*
X3743480Y-7440104D01*
X3743480Y-7440104D02*
X3762527Y-7449628D01*
X3762527Y-7449628D02*
X3772051Y-7459151D01*
X3772051Y-7459151D02*
X3781575Y-7478199D01*
X3781575Y-7478199D02*
X3791099Y-7516294D01*
X3791099Y-7516294D02*
X3791099Y-7563913D01*
X3791099Y-7563913D02*
X3781575Y-7602008D01*
X3781575Y-7602008D02*
X3772051Y-7621056D01*
X3772051Y-7621056D02*
X3762527Y-7630580D01*
X3762527Y-7630580D02*
X3743480Y-7640104D01*
X3743480Y-7640104D02*
X3724432Y-7640104D01*
X3724432Y-7640104D02*
X3705384Y-7630580D01*
X3705384Y-7630580D02*
X3695860Y-7621056D01*
X3695860Y-7621056D02*
X3686337Y-7602008D01*
X3686337Y-7602008D02*
X3676813Y-7563913D01*
X3676813Y-7563913D02*
X3676813Y-7516294D01*
X3676813Y-7516294D02*
X3686337Y-7478199D01*
X3686337Y-7478199D02*
X3695860Y-7459151D01*
X3695860Y-7459151D02*
X3705384Y-7449628D01*
X3705384Y-7449628D02*
X3724432Y-7440104D01*
X3876813Y-7621056D02*
X3886337Y-7630580D01*
X3886337Y-7630580D02*
X3876813Y-7640104D01*
X3876813Y-7640104D02*
X3867289Y-7630580D01*
X3867289Y-7630580D02*
X3876813Y-7621056D01*
X3876813Y-7621056D02*
X3876813Y-7640104D01*
X3981575Y-7640104D02*
X4019670Y-7640104D01*
X4019670Y-7640104D02*
X4038718Y-7630580D01*
X4038718Y-7630580D02*
X4048241Y-7621056D01*
X4048241Y-7621056D02*
X4067289Y-7592485D01*
X4067289Y-7592485D02*
X4076813Y-7554389D01*
X4076813Y-7554389D02*
X4076813Y-7478199D01*
X4076813Y-7478199D02*
X4067289Y-7459151D01*
X4067289Y-7459151D02*
X4057765Y-7449628D01*
X4057765Y-7449628D02*
X4038718Y-7440104D01*
X4038718Y-7440104D02*
X4000622Y-7440104D01*
X4000622Y-7440104D02*
X3981575Y-7449628D01*
X3981575Y-7449628D02*
X3972051Y-7459151D01*
X3972051Y-7459151D02*
X3962527Y-7478199D01*
X3962527Y-7478199D02*
X3962527Y-7525818D01*
X3962527Y-7525818D02*
X3972051Y-7544866D01*
X3972051Y-7544866D02*
X3981575Y-7554389D01*
X3981575Y-7554389D02*
X4000622Y-7563913D01*
X4000622Y-7563913D02*
X4038718Y-7563913D01*
X4038718Y-7563913D02*
X4057765Y-7554389D01*
X4057765Y-7554389D02*
X4067289Y-7544866D01*
X4067289Y-7544866D02*
X4076813Y-7525818D01*
X4200622Y-7440104D02*
X4219670Y-7440104D01*
X4219670Y-7440104D02*
X4238718Y-7449628D01*
X4238718Y-7449628D02*
X4248242Y-7459151D01*
X4248242Y-7459151D02*
X4257765Y-7478199D01*
X4257765Y-7478199D02*
X4267289Y-7516294D01*
X4267289Y-7516294D02*
X4267289Y-7563913D01*
X4267289Y-7563913D02*
X4257765Y-7602008D01*
X4257765Y-7602008D02*
X4248242Y-7621056D01*
X4248242Y-7621056D02*
X4238718Y-7630580D01*
X4238718Y-7630580D02*
X4219670Y-7640104D01*
X4219670Y-7640104D02*
X4200622Y-7640104D01*
X4200622Y-7640104D02*
X4181575Y-7630580D01*
X4181575Y-7630580D02*
X4172051Y-7621056D01*
X4172051Y-7621056D02*
X4162527Y-7602008D01*
X4162527Y-7602008D02*
X4153003Y-7563913D01*
X4153003Y-7563913D02*
X4153003Y-7516294D01*
X4153003Y-7516294D02*
X4162527Y-7478199D01*
X4162527Y-7478199D02*
X4172051Y-7459151D01*
X4172051Y-7459151D02*
X4181575Y-7449628D01*
X4181575Y-7449628D02*
X4200622Y-7440104D01*
X4391099Y-7440104D02*
X4410146Y-7440104D01*
X4410146Y-7440104D02*
X4429194Y-7449628D01*
X4429194Y-7449628D02*
X4438718Y-7459151D01*
X4438718Y-7459151D02*
X4448242Y-7478199D01*
X4448242Y-7478199D02*
X4457765Y-7516294D01*
X4457765Y-7516294D02*
X4457765Y-7563913D01*
X4457765Y-7563913D02*
X4448242Y-7602008D01*
X4448242Y-7602008D02*
X4438718Y-7621056D01*
X4438718Y-7621056D02*
X4429194Y-7630580D01*
X4429194Y-7630580D02*
X4410146Y-7640104D01*
X4410146Y-7640104D02*
X4391099Y-7640104D01*
X4391099Y-7640104D02*
X4372051Y-7630580D01*
X4372051Y-7630580D02*
X4362527Y-7621056D01*
X4362527Y-7621056D02*
X4353003Y-7602008D01*
X4353003Y-7602008D02*
X4343480Y-7563913D01*
X4343480Y-7563913D02*
X4343480Y-7516294D01*
X4343480Y-7516294D02*
X4353003Y-7478199D01*
X4353003Y-7478199D02*
X4362527Y-7459151D01*
X4362527Y-7459151D02*
X4372051Y-7449628D01*
X4372051Y-7449628D02*
X4391099Y-7440104D01*
X4543480Y-7640104D02*
X4543480Y-7506770D01*
X4543480Y-7525818D02*
X4553003Y-7516294D01*
X4553003Y-7516294D02*
X4572051Y-7506770D01*
X4572051Y-7506770D02*
X4600623Y-7506770D01*
X4600623Y-7506770D02*
X4619670Y-7516294D01*
X4619670Y-7516294D02*
X4629194Y-7535342D01*
X4629194Y-7535342D02*
X4629194Y-7640104D01*
X4629194Y-7535342D02*
X4638718Y-7516294D01*
X4638718Y-7516294D02*
X4657765Y-7506770D01*
X4657765Y-7506770D02*
X4686337Y-7506770D01*
X4686337Y-7506770D02*
X4705384Y-7516294D01*
X4705384Y-7516294D02*
X4714908Y-7535342D01*
X4714908Y-7535342D02*
X4714908Y-7640104D01*
X4810146Y-7640104D02*
X4810146Y-7506770D01*
X4810146Y-7525818D02*
X4819670Y-7516294D01*
X4819670Y-7516294D02*
X4838718Y-7506770D01*
X4838718Y-7506770D02*
X4867289Y-7506770D01*
X4867289Y-7506770D02*
X4886337Y-7516294D01*
X4886337Y-7516294D02*
X4895861Y-7535342D01*
X4895861Y-7535342D02*
X4895861Y-7640104D01*
X4895861Y-7535342D02*
X4905384Y-7516294D01*
X4905384Y-7516294D02*
X4924432Y-7506770D01*
X4924432Y-7506770D02*
X4953003Y-7506770D01*
X4953003Y-7506770D02*
X4972051Y-7516294D01*
X4972051Y-7516294D02*
X4981575Y-7535342D01*
X4981575Y-7535342D02*
X4981575Y-7640104D01*
X5372051Y-7430580D02*
X5200623Y-7687723D01*
X5629194Y-7440104D02*
X5648242Y-7440104D01*
X5648242Y-7440104D02*
X5667289Y-7449628D01*
X5667289Y-7449628D02*
X5676813Y-7459151D01*
X5676813Y-7459151D02*
X5686337Y-7478199D01*
X5686337Y-7478199D02*
X5695861Y-7516294D01*
X5695861Y-7516294D02*
X5695861Y-7563913D01*
X5695861Y-7563913D02*
X5686337Y-7602008D01*
X5686337Y-7602008D02*
X5676813Y-7621056D01*
X5676813Y-7621056D02*
X5667289Y-7630580D01*
X5667289Y-7630580D02*
X5648242Y-7640104D01*
X5648242Y-7640104D02*
X5629194Y-7640104D01*
X5629194Y-7640104D02*
X5610146Y-7630580D01*
X5610146Y-7630580D02*
X5600623Y-7621056D01*
X5600623Y-7621056D02*
X5591099Y-7602008D01*
X5591099Y-7602008D02*
X5581575Y-7563913D01*
X5581575Y-7563913D02*
X5581575Y-7516294D01*
X5581575Y-7516294D02*
X5591099Y-7478199D01*
X5591099Y-7478199D02*
X5600623Y-7459151D01*
X5600623Y-7459151D02*
X5610146Y-7449628D01*
X5610146Y-7449628D02*
X5629194Y-7440104D01*
X5781575Y-7621056D02*
X5791099Y-7630580D01*
X5791099Y-7630580D02*
X5781575Y-7640104D01*
X5781575Y-7640104D02*
X5772051Y-7630580D01*
X5772051Y-7630580D02*
X5781575Y-7621056D01*
X5781575Y-7621056D02*
X5781575Y-7640104D01*
X5914908Y-7440104D02*
X5933956Y-7440104D01*
X5933956Y-7440104D02*
X5953004Y-7449628D01*
X5953004Y-7449628D02*
X5962527Y-7459151D01*
X5962527Y-7459151D02*
X5972051Y-7478199D01*
X5972051Y-7478199D02*
X5981575Y-7516294D01*
X5981575Y-7516294D02*
X5981575Y-7563913D01*
X5981575Y-7563913D02*
X5972051Y-7602008D01*
X5972051Y-7602008D02*
X5962527Y-7621056D01*
X5962527Y-7621056D02*
X5953004Y-7630580D01*
X5953004Y-7630580D02*
X5933956Y-7640104D01*
X5933956Y-7640104D02*
X5914908Y-7640104D01*
X5914908Y-7640104D02*
X5895861Y-7630580D01*
X5895861Y-7630580D02*
X5886337Y-7621056D01*
X5886337Y-7621056D02*
X5876813Y-7602008D01*
X5876813Y-7602008D02*
X5867289Y-7563913D01*
X5867289Y-7563913D02*
X5867289Y-7516294D01*
X5867289Y-7516294D02*
X5876813Y-7478199D01*
X5876813Y-7478199D02*
X5886337Y-7459151D01*
X5886337Y-7459151D02*
X5895861Y-7449628D01*
X5895861Y-7449628D02*
X5914908Y-7440104D01*
X6048242Y-7440104D02*
X6172051Y-7440104D01*
X6172051Y-7440104D02*
X6105384Y-7516294D01*
X6105384Y-7516294D02*
X6133956Y-7516294D01*
X6133956Y-7516294D02*
X6153004Y-7525818D01*
X6153004Y-7525818D02*
X6162527Y-7535342D01*
X6162527Y-7535342D02*
X6172051Y-7554389D01*
X6172051Y-7554389D02*
X6172051Y-7602008D01*
X6172051Y-7602008D02*
X6162527Y-7621056D01*
X6162527Y-7621056D02*
X6153004Y-7630580D01*
X6153004Y-7630580D02*
X6133956Y-7640104D01*
X6133956Y-7640104D02*
X6076813Y-7640104D01*
X6076813Y-7640104D02*
X6057765Y-7630580D01*
X6057765Y-7630580D02*
X6048242Y-7621056D01*
X6353004Y-7440104D02*
X6257765Y-7440104D01*
X6257765Y-7440104D02*
X6248242Y-7535342D01*
X6248242Y-7535342D02*
X6257765Y-7525818D01*
X6257765Y-7525818D02*
X6276813Y-7516294D01*
X6276813Y-7516294D02*
X6324432Y-7516294D01*
X6324432Y-7516294D02*
X6343480Y-7525818D01*
X6343480Y-7525818D02*
X6353004Y-7535342D01*
X6353004Y-7535342D02*
X6362527Y-7554389D01*
X6362527Y-7554389D02*
X6362527Y-7602008D01*
X6362527Y-7602008D02*
X6353004Y-7621056D01*
X6353004Y-7621056D02*
X6343480Y-7630580D01*
X6343480Y-7630580D02*
X6324432Y-7640104D01*
X6324432Y-7640104D02*
X6276813Y-7640104D01*
X6276813Y-7640104D02*
X6257765Y-7630580D01*
X6257765Y-7630580D02*
X6248242Y-7621056D01*
X6533956Y-7506770D02*
X6533956Y-7640104D01*
X6486337Y-7430580D02*
X6438718Y-7573437D01*
X6438718Y-7573437D02*
X6562527Y-7573437D01*
X6629194Y-7440104D02*
X6629194Y-7478199D01*
X6705385Y-7440104D02*
X6705385Y-7478199D01*
X7000623Y-7716294D02*
X6991099Y-7706770D01*
X6991099Y-7706770D02*
X6972051Y-7678199D01*
X6972051Y-7678199D02*
X6962527Y-7659151D01*
X6962527Y-7659151D02*
X6953004Y-7630580D01*
X6953004Y-7630580D02*
X6943480Y-7582961D01*
X6943480Y-7582961D02*
X6943480Y-7544866D01*
X6943480Y-7544866D02*
X6953004Y-7497247D01*
X6953004Y-7497247D02*
X6962527Y-7468675D01*
X6962527Y-7468675D02*
X6972051Y-7449628D01*
X6972051Y-7449628D02*
X6991099Y-7421056D01*
X6991099Y-7421056D02*
X7000623Y-7411532D01*
X7067289Y-7459151D02*
X7076813Y-7449628D01*
X7076813Y-7449628D02*
X7095861Y-7440104D01*
X7095861Y-7440104D02*
X7143480Y-7440104D01*
X7143480Y-7440104D02*
X7162527Y-7449628D01*
X7162527Y-7449628D02*
X7172051Y-7459151D01*
X7172051Y-7459151D02*
X7181575Y-7478199D01*
X7181575Y-7478199D02*
X7181575Y-7497247D01*
X7181575Y-7497247D02*
X7172051Y-7525818D01*
X7172051Y-7525818D02*
X7057766Y-7640104D01*
X7057766Y-7640104D02*
X7181575Y-7640104D01*
X7419670Y-7640104D02*
X7419670Y-7440104D01*
X7505385Y-7640104D02*
X7505385Y-7535342D01*
X7505385Y-7535342D02*
X7495861Y-7516294D01*
X7495861Y-7516294D02*
X7476813Y-7506770D01*
X7476813Y-7506770D02*
X7448242Y-7506770D01*
X7448242Y-7506770D02*
X7429194Y-7516294D01*
X7429194Y-7516294D02*
X7419670Y-7525818D01*
X7629194Y-7640104D02*
X7610147Y-7630580D01*
X7610147Y-7630580D02*
X7600623Y-7621056D01*
X7600623Y-7621056D02*
X7591099Y-7602008D01*
X7591099Y-7602008D02*
X7591099Y-7544866D01*
X7591099Y-7544866D02*
X7600623Y-7525818D01*
X7600623Y-7525818D02*
X7610147Y-7516294D01*
X7610147Y-7516294D02*
X7629194Y-7506770D01*
X7629194Y-7506770D02*
X7657766Y-7506770D01*
X7657766Y-7506770D02*
X7676813Y-7516294D01*
X7676813Y-7516294D02*
X7686337Y-7525818D01*
X7686337Y-7525818D02*
X7695861Y-7544866D01*
X7695861Y-7544866D02*
X7695861Y-7602008D01*
X7695861Y-7602008D02*
X7686337Y-7621056D01*
X7686337Y-7621056D02*
X7676813Y-7630580D01*
X7676813Y-7630580D02*
X7657766Y-7640104D01*
X7657766Y-7640104D02*
X7629194Y-7640104D01*
X7810147Y-7640104D02*
X7791099Y-7630580D01*
X7791099Y-7630580D02*
X7781575Y-7611532D01*
X7781575Y-7611532D02*
X7781575Y-7440104D01*
X7962528Y-7630580D02*
X7943480Y-7640104D01*
X7943480Y-7640104D02*
X7905385Y-7640104D01*
X7905385Y-7640104D02*
X7886337Y-7630580D01*
X7886337Y-7630580D02*
X7876813Y-7611532D01*
X7876813Y-7611532D02*
X7876813Y-7535342D01*
X7876813Y-7535342D02*
X7886337Y-7516294D01*
X7886337Y-7516294D02*
X7905385Y-7506770D01*
X7905385Y-7506770D02*
X7943480Y-7506770D01*
X7943480Y-7506770D02*
X7962528Y-7516294D01*
X7962528Y-7516294D02*
X7972051Y-7535342D01*
X7972051Y-7535342D02*
X7972051Y-7554389D01*
X7972051Y-7554389D02*
X7876813Y-7573437D01*
X8048242Y-7630580D02*
X8067289Y-7640104D01*
X8067289Y-7640104D02*
X8105385Y-7640104D01*
X8105385Y-7640104D02*
X8124432Y-7630580D01*
X8124432Y-7630580D02*
X8133956Y-7611532D01*
X8133956Y-7611532D02*
X8133956Y-7602008D01*
X8133956Y-7602008D02*
X8124432Y-7582961D01*
X8124432Y-7582961D02*
X8105385Y-7573437D01*
X8105385Y-7573437D02*
X8076813Y-7573437D01*
X8076813Y-7573437D02*
X8057766Y-7563913D01*
X8057766Y-7563913D02*
X8048242Y-7544866D01*
X8048242Y-7544866D02*
X8048242Y-7535342D01*
X8048242Y-7535342D02*
X8057766Y-7516294D01*
X8057766Y-7516294D02*
X8076813Y-7506770D01*
X8076813Y-7506770D02*
X8105385Y-7506770D01*
X8105385Y-7506770D02*
X8124432Y-7516294D01*
X8200623Y-7716294D02*
X8210147Y-7706770D01*
X8210147Y-7706770D02*
X8229194Y-7678199D01*
X8229194Y-7678199D02*
X8238718Y-7659151D01*
X8238718Y-7659151D02*
X8248242Y-7630580D01*
X8248242Y-7630580D02*
X8257766Y-7582961D01*
X8257766Y-7582961D02*
X8257766Y-7544866D01*
X8257766Y-7544866D02*
X8248242Y-7497247D01*
X8248242Y-7497247D02*
X8238718Y-7468675D01*
X8238718Y-7468675D02*
X8229194Y-7449628D01*
X8229194Y-7449628D02*
X8210147Y-7421056D01*
X8210147Y-7421056D02*
X8200623Y-7411532D01*
X8562528Y-7716294D02*
X8553004Y-7706770D01*
X8553004Y-7706770D02*
X8533956Y-7678199D01*
X8533956Y-7678199D02*
X8524432Y-7659151D01*
X8524432Y-7659151D02*
X8514909Y-7630580D01*
X8514909Y-7630580D02*
X8505385Y-7582961D01*
X8505385Y-7582961D02*
X8505385Y-7544866D01*
X8505385Y-7544866D02*
X8514909Y-7497247D01*
X8514909Y-7497247D02*
X8524432Y-7468675D01*
X8524432Y-7468675D02*
X8533956Y-7449628D01*
X8533956Y-7449628D02*
X8553004Y-7421056D01*
X8553004Y-7421056D02*
X8562528Y-7411532D01*
X8638718Y-7506770D02*
X8638718Y-7640104D01*
X8638718Y-7525818D02*
X8648242Y-7516294D01*
X8648242Y-7516294D02*
X8667290Y-7506770D01*
X8667290Y-7506770D02*
X8695861Y-7506770D01*
X8695861Y-7506770D02*
X8714909Y-7516294D01*
X8714909Y-7516294D02*
X8724432Y-7535342D01*
X8724432Y-7535342D02*
X8724432Y-7640104D01*
X8848242Y-7640104D02*
X8829194Y-7630580D01*
X8829194Y-7630580D02*
X8819671Y-7621056D01*
X8819671Y-7621056D02*
X8810147Y-7602008D01*
X8810147Y-7602008D02*
X8810147Y-7544866D01*
X8810147Y-7544866D02*
X8819671Y-7525818D01*
X8819671Y-7525818D02*
X8829194Y-7516294D01*
X8829194Y-7516294D02*
X8848242Y-7506770D01*
X8848242Y-7506770D02*
X8876813Y-7506770D01*
X8876813Y-7506770D02*
X8895861Y-7516294D01*
X8895861Y-7516294D02*
X8905385Y-7525818D01*
X8905385Y-7525818D02*
X8914909Y-7544866D01*
X8914909Y-7544866D02*
X8914909Y-7602008D01*
X8914909Y-7602008D02*
X8905385Y-7621056D01*
X8905385Y-7621056D02*
X8895861Y-7630580D01*
X8895861Y-7630580D02*
X8876813Y-7640104D01*
X8876813Y-7640104D02*
X8848242Y-7640104D01*
X8972052Y-7506770D02*
X9048242Y-7506770D01*
X9000623Y-7440104D02*
X9000623Y-7611532D01*
X9000623Y-7611532D02*
X9010147Y-7630580D01*
X9010147Y-7630580D02*
X9029194Y-7640104D01*
X9029194Y-7640104D02*
X9048242Y-7640104D01*
X9267290Y-7506770D02*
X9267290Y-7706770D01*
X9267290Y-7516294D02*
X9286337Y-7506770D01*
X9286337Y-7506770D02*
X9324433Y-7506770D01*
X9324433Y-7506770D02*
X9343480Y-7516294D01*
X9343480Y-7516294D02*
X9353004Y-7525818D01*
X9353004Y-7525818D02*
X9362528Y-7544866D01*
X9362528Y-7544866D02*
X9362528Y-7602008D01*
X9362528Y-7602008D02*
X9353004Y-7621056D01*
X9353004Y-7621056D02*
X9343480Y-7630580D01*
X9343480Y-7630580D02*
X9324433Y-7640104D01*
X9324433Y-7640104D02*
X9286337Y-7640104D01*
X9286337Y-7640104D02*
X9267290Y-7630580D01*
X9476813Y-7640104D02*
X9457766Y-7630580D01*
X9457766Y-7630580D02*
X9448242Y-7611532D01*
X9448242Y-7611532D02*
X9448242Y-7440104D01*
X9638718Y-7640104D02*
X9638718Y-7535342D01*
X9638718Y-7535342D02*
X9629194Y-7516294D01*
X9629194Y-7516294D02*
X9610147Y-7506770D01*
X9610147Y-7506770D02*
X9572052Y-7506770D01*
X9572052Y-7506770D02*
X9553004Y-7516294D01*
X9638718Y-7630580D02*
X9619671Y-7640104D01*
X9619671Y-7640104D02*
X9572052Y-7640104D01*
X9572052Y-7640104D02*
X9553004Y-7630580D01*
X9553004Y-7630580D02*
X9543480Y-7611532D01*
X9543480Y-7611532D02*
X9543480Y-7592485D01*
X9543480Y-7592485D02*
X9553004Y-7573437D01*
X9553004Y-7573437D02*
X9572052Y-7563913D01*
X9572052Y-7563913D02*
X9619671Y-7563913D01*
X9619671Y-7563913D02*
X9638718Y-7554389D01*
X9705385Y-7506770D02*
X9781575Y-7506770D01*
X9733956Y-7440104D02*
X9733956Y-7611532D01*
X9733956Y-7611532D02*
X9743480Y-7630580D01*
X9743480Y-7630580D02*
X9762528Y-7640104D01*
X9762528Y-7640104D02*
X9781575Y-7640104D01*
X9924433Y-7630580D02*
X9905385Y-7640104D01*
X9905385Y-7640104D02*
X9867290Y-7640104D01*
X9867290Y-7640104D02*
X9848242Y-7630580D01*
X9848242Y-7630580D02*
X9838718Y-7611532D01*
X9838718Y-7611532D02*
X9838718Y-7535342D01*
X9838718Y-7535342D02*
X9848242Y-7516294D01*
X9848242Y-7516294D02*
X9867290Y-7506770D01*
X9867290Y-7506770D02*
X9905385Y-7506770D01*
X9905385Y-7506770D02*
X9924433Y-7516294D01*
X9924433Y-7516294D02*
X9933956Y-7535342D01*
X9933956Y-7535342D02*
X9933956Y-7554389D01*
X9933956Y-7554389D02*
X9838718Y-7573437D01*
X10105385Y-7640104D02*
X10105385Y-7440104D01*
X10105385Y-7630580D02*
X10086337Y-7640104D01*
X10086337Y-7640104D02*
X10048242Y-7640104D01*
X10048242Y-7640104D02*
X10029194Y-7630580D01*
X10029194Y-7630580D02*
X10019671Y-7621056D01*
X10019671Y-7621056D02*
X10010147Y-7602008D01*
X10010147Y-7602008D02*
X10010147Y-7544866D01*
X10010147Y-7544866D02*
X10019671Y-7525818D01*
X10019671Y-7525818D02*
X10029194Y-7516294D01*
X10029194Y-7516294D02*
X10048242Y-7506770D01*
X10048242Y-7506770D02*
X10086337Y-7506770D01*
X10086337Y-7506770D02*
X10105385Y-7516294D01*
X10181575Y-7716294D02*
X10191099Y-7706770D01*
X10191099Y-7706770D02*
X10210147Y-7678199D01*
X10210147Y-7678199D02*
X10219671Y-7659151D01*
X10219671Y-7659151D02*
X10229194Y-7630580D01*
X10229194Y-7630580D02*
X10238718Y-7582961D01*
X10238718Y-7582961D02*
X10238718Y-7544866D01*
X10238718Y-7544866D02*
X10229194Y-7497247D01*
X10229194Y-7497247D02*
X10219671Y-7468675D01*
X10219671Y-7468675D02*
X10210147Y-7449628D01*
X10210147Y-7449628D02*
X10191099Y-7421056D01*
X10191099Y-7421056D02*
X10181575Y-7411532D01*
D14*
X3373060Y-7760120D02*
X3373060Y-7865120D01*
X3320560Y-7812620D02*
X3425560Y-7812620D01*
D12*
X3791099Y-7904104D02*
X3676813Y-7904104D01*
X3733956Y-7904104D02*
X3733956Y-7704104D01*
X3733956Y-7704104D02*
X3714908Y-7732675D01*
X3714908Y-7732675D02*
X3695860Y-7751723D01*
X3695860Y-7751723D02*
X3676813Y-7761247D01*
X3876813Y-7885056D02*
X3886337Y-7894580D01*
X3886337Y-7894580D02*
X3876813Y-7904104D01*
X3876813Y-7904104D02*
X3867289Y-7894580D01*
X3867289Y-7894580D02*
X3876813Y-7885056D01*
X3876813Y-7885056D02*
X3876813Y-7904104D01*
X4010146Y-7704104D02*
X4029194Y-7704104D01*
X4029194Y-7704104D02*
X4048241Y-7713628D01*
X4048241Y-7713628D02*
X4057765Y-7723151D01*
X4057765Y-7723151D02*
X4067289Y-7742199D01*
X4067289Y-7742199D02*
X4076813Y-7780294D01*
X4076813Y-7780294D02*
X4076813Y-7827913D01*
X4076813Y-7827913D02*
X4067289Y-7866008D01*
X4067289Y-7866008D02*
X4057765Y-7885056D01*
X4057765Y-7885056D02*
X4048241Y-7894580D01*
X4048241Y-7894580D02*
X4029194Y-7904104D01*
X4029194Y-7904104D02*
X4010146Y-7904104D01*
X4010146Y-7904104D02*
X3991099Y-7894580D01*
X3991099Y-7894580D02*
X3981575Y-7885056D01*
X3981575Y-7885056D02*
X3972051Y-7866008D01*
X3972051Y-7866008D02*
X3962527Y-7827913D01*
X3962527Y-7827913D02*
X3962527Y-7780294D01*
X3962527Y-7780294D02*
X3972051Y-7742199D01*
X3972051Y-7742199D02*
X3981575Y-7723151D01*
X3981575Y-7723151D02*
X3991099Y-7713628D01*
X3991099Y-7713628D02*
X4010146Y-7704104D01*
X4257765Y-7704104D02*
X4162527Y-7704104D01*
X4162527Y-7704104D02*
X4153003Y-7799342D01*
X4153003Y-7799342D02*
X4162527Y-7789818D01*
X4162527Y-7789818D02*
X4181575Y-7780294D01*
X4181575Y-7780294D02*
X4229194Y-7780294D01*
X4229194Y-7780294D02*
X4248242Y-7789818D01*
X4248242Y-7789818D02*
X4257765Y-7799342D01*
X4257765Y-7799342D02*
X4267289Y-7818389D01*
X4267289Y-7818389D02*
X4267289Y-7866008D01*
X4267289Y-7866008D02*
X4257765Y-7885056D01*
X4257765Y-7885056D02*
X4248242Y-7894580D01*
X4248242Y-7894580D02*
X4229194Y-7904104D01*
X4229194Y-7904104D02*
X4181575Y-7904104D01*
X4181575Y-7904104D02*
X4162527Y-7894580D01*
X4162527Y-7894580D02*
X4153003Y-7885056D01*
X4391099Y-7704104D02*
X4410146Y-7704104D01*
X4410146Y-7704104D02*
X4429194Y-7713628D01*
X4429194Y-7713628D02*
X4438718Y-7723151D01*
X4438718Y-7723151D02*
X4448242Y-7742199D01*
X4448242Y-7742199D02*
X4457765Y-7780294D01*
X4457765Y-7780294D02*
X4457765Y-7827913D01*
X4457765Y-7827913D02*
X4448242Y-7866008D01*
X4448242Y-7866008D02*
X4438718Y-7885056D01*
X4438718Y-7885056D02*
X4429194Y-7894580D01*
X4429194Y-7894580D02*
X4410146Y-7904104D01*
X4410146Y-7904104D02*
X4391099Y-7904104D01*
X4391099Y-7904104D02*
X4372051Y-7894580D01*
X4372051Y-7894580D02*
X4362527Y-7885056D01*
X4362527Y-7885056D02*
X4353003Y-7866008D01*
X4353003Y-7866008D02*
X4343480Y-7827913D01*
X4343480Y-7827913D02*
X4343480Y-7780294D01*
X4343480Y-7780294D02*
X4353003Y-7742199D01*
X4353003Y-7742199D02*
X4362527Y-7723151D01*
X4362527Y-7723151D02*
X4372051Y-7713628D01*
X4372051Y-7713628D02*
X4391099Y-7704104D01*
X4543480Y-7904104D02*
X4543480Y-7770770D01*
X4543480Y-7789818D02*
X4553003Y-7780294D01*
X4553003Y-7780294D02*
X4572051Y-7770770D01*
X4572051Y-7770770D02*
X4600623Y-7770770D01*
X4600623Y-7770770D02*
X4619670Y-7780294D01*
X4619670Y-7780294D02*
X4629194Y-7799342D01*
X4629194Y-7799342D02*
X4629194Y-7904104D01*
X4629194Y-7799342D02*
X4638718Y-7780294D01*
X4638718Y-7780294D02*
X4657765Y-7770770D01*
X4657765Y-7770770D02*
X4686337Y-7770770D01*
X4686337Y-7770770D02*
X4705384Y-7780294D01*
X4705384Y-7780294D02*
X4714908Y-7799342D01*
X4714908Y-7799342D02*
X4714908Y-7904104D01*
X4810146Y-7904104D02*
X4810146Y-7770770D01*
X4810146Y-7789818D02*
X4819670Y-7780294D01*
X4819670Y-7780294D02*
X4838718Y-7770770D01*
X4838718Y-7770770D02*
X4867289Y-7770770D01*
X4867289Y-7770770D02*
X4886337Y-7780294D01*
X4886337Y-7780294D02*
X4895861Y-7799342D01*
X4895861Y-7799342D02*
X4895861Y-7904104D01*
X4895861Y-7799342D02*
X4905384Y-7780294D01*
X4905384Y-7780294D02*
X4924432Y-7770770D01*
X4924432Y-7770770D02*
X4953003Y-7770770D01*
X4953003Y-7770770D02*
X4972051Y-7780294D01*
X4972051Y-7780294D02*
X4981575Y-7799342D01*
X4981575Y-7799342D02*
X4981575Y-7904104D01*
X5372051Y-7694580D02*
X5200623Y-7951723D01*
X5629194Y-7704104D02*
X5648242Y-7704104D01*
X5648242Y-7704104D02*
X5667289Y-7713628D01*
X5667289Y-7713628D02*
X5676813Y-7723151D01*
X5676813Y-7723151D02*
X5686337Y-7742199D01*
X5686337Y-7742199D02*
X5695861Y-7780294D01*
X5695861Y-7780294D02*
X5695861Y-7827913D01*
X5695861Y-7827913D02*
X5686337Y-7866008D01*
X5686337Y-7866008D02*
X5676813Y-7885056D01*
X5676813Y-7885056D02*
X5667289Y-7894580D01*
X5667289Y-7894580D02*
X5648242Y-7904104D01*
X5648242Y-7904104D02*
X5629194Y-7904104D01*
X5629194Y-7904104D02*
X5610146Y-7894580D01*
X5610146Y-7894580D02*
X5600623Y-7885056D01*
X5600623Y-7885056D02*
X5591099Y-7866008D01*
X5591099Y-7866008D02*
X5581575Y-7827913D01*
X5581575Y-7827913D02*
X5581575Y-7780294D01*
X5581575Y-7780294D02*
X5591099Y-7742199D01*
X5591099Y-7742199D02*
X5600623Y-7723151D01*
X5600623Y-7723151D02*
X5610146Y-7713628D01*
X5610146Y-7713628D02*
X5629194Y-7704104D01*
X5781575Y-7885056D02*
X5791099Y-7894580D01*
X5791099Y-7894580D02*
X5781575Y-7904104D01*
X5781575Y-7904104D02*
X5772051Y-7894580D01*
X5772051Y-7894580D02*
X5781575Y-7885056D01*
X5781575Y-7885056D02*
X5781575Y-7904104D01*
X5914908Y-7704104D02*
X5933956Y-7704104D01*
X5933956Y-7704104D02*
X5953004Y-7713628D01*
X5953004Y-7713628D02*
X5962527Y-7723151D01*
X5962527Y-7723151D02*
X5972051Y-7742199D01*
X5972051Y-7742199D02*
X5981575Y-7780294D01*
X5981575Y-7780294D02*
X5981575Y-7827913D01*
X5981575Y-7827913D02*
X5972051Y-7866008D01*
X5972051Y-7866008D02*
X5962527Y-7885056D01*
X5962527Y-7885056D02*
X5953004Y-7894580D01*
X5953004Y-7894580D02*
X5933956Y-7904104D01*
X5933956Y-7904104D02*
X5914908Y-7904104D01*
X5914908Y-7904104D02*
X5895861Y-7894580D01*
X5895861Y-7894580D02*
X5886337Y-7885056D01*
X5886337Y-7885056D02*
X5876813Y-7866008D01*
X5876813Y-7866008D02*
X5867289Y-7827913D01*
X5867289Y-7827913D02*
X5867289Y-7780294D01*
X5867289Y-7780294D02*
X5876813Y-7742199D01*
X5876813Y-7742199D02*
X5886337Y-7723151D01*
X5886337Y-7723151D02*
X5895861Y-7713628D01*
X5895861Y-7713628D02*
X5914908Y-7704104D01*
X6153004Y-7770770D02*
X6153004Y-7904104D01*
X6105384Y-7694580D02*
X6057765Y-7837437D01*
X6057765Y-7837437D02*
X6181575Y-7837437D01*
X6362527Y-7904104D02*
X6248242Y-7904104D01*
X6305384Y-7904104D02*
X6305384Y-7704104D01*
X6305384Y-7704104D02*
X6286337Y-7732675D01*
X6286337Y-7732675D02*
X6267289Y-7751723D01*
X6267289Y-7751723D02*
X6248242Y-7761247D01*
X6429194Y-7704104D02*
X6553004Y-7704104D01*
X6553004Y-7704104D02*
X6486337Y-7780294D01*
X6486337Y-7780294D02*
X6514908Y-7780294D01*
X6514908Y-7780294D02*
X6533956Y-7789818D01*
X6533956Y-7789818D02*
X6543480Y-7799342D01*
X6543480Y-7799342D02*
X6553004Y-7818389D01*
X6553004Y-7818389D02*
X6553004Y-7866008D01*
X6553004Y-7866008D02*
X6543480Y-7885056D01*
X6543480Y-7885056D02*
X6533956Y-7894580D01*
X6533956Y-7894580D02*
X6514908Y-7904104D01*
X6514908Y-7904104D02*
X6457765Y-7904104D01*
X6457765Y-7904104D02*
X6438718Y-7894580D01*
X6438718Y-7894580D02*
X6429194Y-7885056D01*
X6629194Y-7704104D02*
X6629194Y-7742199D01*
X6705385Y-7704104D02*
X6705385Y-7742199D01*
X7000623Y-7980294D02*
X6991099Y-7970770D01*
X6991099Y-7970770D02*
X6972051Y-7942199D01*
X6972051Y-7942199D02*
X6962527Y-7923151D01*
X6962527Y-7923151D02*
X6953004Y-7894580D01*
X6953004Y-7894580D02*
X6943480Y-7846961D01*
X6943480Y-7846961D02*
X6943480Y-7808866D01*
X6943480Y-7808866D02*
X6953004Y-7761247D01*
X6953004Y-7761247D02*
X6962527Y-7732675D01*
X6962527Y-7732675D02*
X6972051Y-7713628D01*
X6972051Y-7713628D02*
X6991099Y-7685056D01*
X6991099Y-7685056D02*
X7000623Y-7675532D01*
X7181575Y-7904104D02*
X7067289Y-7904104D01*
X7124432Y-7904104D02*
X7124432Y-7704104D01*
X7124432Y-7704104D02*
X7105385Y-7732675D01*
X7105385Y-7732675D02*
X7086337Y-7751723D01*
X7086337Y-7751723D02*
X7067289Y-7761247D01*
X7419670Y-7904104D02*
X7419670Y-7704104D01*
X7505385Y-7904104D02*
X7505385Y-7799342D01*
X7505385Y-7799342D02*
X7495861Y-7780294D01*
X7495861Y-7780294D02*
X7476813Y-7770770D01*
X7476813Y-7770770D02*
X7448242Y-7770770D01*
X7448242Y-7770770D02*
X7429194Y-7780294D01*
X7429194Y-7780294D02*
X7419670Y-7789818D01*
X7629194Y-7904104D02*
X7610147Y-7894580D01*
X7610147Y-7894580D02*
X7600623Y-7885056D01*
X7600623Y-7885056D02*
X7591099Y-7866008D01*
X7591099Y-7866008D02*
X7591099Y-7808866D01*
X7591099Y-7808866D02*
X7600623Y-7789818D01*
X7600623Y-7789818D02*
X7610147Y-7780294D01*
X7610147Y-7780294D02*
X7629194Y-7770770D01*
X7629194Y-7770770D02*
X7657766Y-7770770D01*
X7657766Y-7770770D02*
X7676813Y-7780294D01*
X7676813Y-7780294D02*
X7686337Y-7789818D01*
X7686337Y-7789818D02*
X7695861Y-7808866D01*
X7695861Y-7808866D02*
X7695861Y-7866008D01*
X7695861Y-7866008D02*
X7686337Y-7885056D01*
X7686337Y-7885056D02*
X7676813Y-7894580D01*
X7676813Y-7894580D02*
X7657766Y-7904104D01*
X7657766Y-7904104D02*
X7629194Y-7904104D01*
X7810147Y-7904104D02*
X7791099Y-7894580D01*
X7791099Y-7894580D02*
X7781575Y-7875532D01*
X7781575Y-7875532D02*
X7781575Y-7704104D01*
X7962528Y-7894580D02*
X7943480Y-7904104D01*
X7943480Y-7904104D02*
X7905385Y-7904104D01*
X7905385Y-7904104D02*
X7886337Y-7894580D01*
X7886337Y-7894580D02*
X7876813Y-7875532D01*
X7876813Y-7875532D02*
X7876813Y-7799342D01*
X7876813Y-7799342D02*
X7886337Y-7780294D01*
X7886337Y-7780294D02*
X7905385Y-7770770D01*
X7905385Y-7770770D02*
X7943480Y-7770770D01*
X7943480Y-7770770D02*
X7962528Y-7780294D01*
X7962528Y-7780294D02*
X7972051Y-7799342D01*
X7972051Y-7799342D02*
X7972051Y-7818389D01*
X7972051Y-7818389D02*
X7876813Y-7837437D01*
X8038718Y-7980294D02*
X8048242Y-7970770D01*
X8048242Y-7970770D02*
X8067289Y-7942199D01*
X8067289Y-7942199D02*
X8076813Y-7923151D01*
X8076813Y-7923151D02*
X8086337Y-7894580D01*
X8086337Y-7894580D02*
X8095861Y-7846961D01*
X8095861Y-7846961D02*
X8095861Y-7808866D01*
X8095861Y-7808866D02*
X8086337Y-7761247D01*
X8086337Y-7761247D02*
X8076813Y-7732675D01*
X8076813Y-7732675D02*
X8067289Y-7713628D01*
X8067289Y-7713628D02*
X8048242Y-7685056D01*
X8048242Y-7685056D02*
X8038718Y-7675532D01*
X8400623Y-7980294D02*
X8391099Y-7970770D01*
X8391099Y-7970770D02*
X8372051Y-7942199D01*
X8372051Y-7942199D02*
X8362528Y-7923151D01*
X8362528Y-7923151D02*
X8353004Y-7894580D01*
X8353004Y-7894580D02*
X8343480Y-7846961D01*
X8343480Y-7846961D02*
X8343480Y-7808866D01*
X8343480Y-7808866D02*
X8353004Y-7761247D01*
X8353004Y-7761247D02*
X8362528Y-7732675D01*
X8362528Y-7732675D02*
X8372051Y-7713628D01*
X8372051Y-7713628D02*
X8391099Y-7685056D01*
X8391099Y-7685056D02*
X8400623Y-7675532D01*
X8476813Y-7770770D02*
X8476813Y-7904104D01*
X8476813Y-7789818D02*
X8486337Y-7780294D01*
X8486337Y-7780294D02*
X8505385Y-7770770D01*
X8505385Y-7770770D02*
X8533956Y-7770770D01*
X8533956Y-7770770D02*
X8553004Y-7780294D01*
X8553004Y-7780294D02*
X8562528Y-7799342D01*
X8562528Y-7799342D02*
X8562528Y-7904104D01*
X8686337Y-7904104D02*
X8667290Y-7894580D01*
X8667290Y-7894580D02*
X8657766Y-7885056D01*
X8657766Y-7885056D02*
X8648242Y-7866008D01*
X8648242Y-7866008D02*
X8648242Y-7808866D01*
X8648242Y-7808866D02*
X8657766Y-7789818D01*
X8657766Y-7789818D02*
X8667290Y-7780294D01*
X8667290Y-7780294D02*
X8686337Y-7770770D01*
X8686337Y-7770770D02*
X8714909Y-7770770D01*
X8714909Y-7770770D02*
X8733956Y-7780294D01*
X8733956Y-7780294D02*
X8743480Y-7789818D01*
X8743480Y-7789818D02*
X8753004Y-7808866D01*
X8753004Y-7808866D02*
X8753004Y-7866008D01*
X8753004Y-7866008D02*
X8743480Y-7885056D01*
X8743480Y-7885056D02*
X8733956Y-7894580D01*
X8733956Y-7894580D02*
X8714909Y-7904104D01*
X8714909Y-7904104D02*
X8686337Y-7904104D01*
X8810147Y-7770770D02*
X8886337Y-7770770D01*
X8838718Y-7704104D02*
X8838718Y-7875532D01*
X8838718Y-7875532D02*
X8848242Y-7894580D01*
X8848242Y-7894580D02*
X8867290Y-7904104D01*
X8867290Y-7904104D02*
X8886337Y-7904104D01*
X9105385Y-7770770D02*
X9105385Y-7970770D01*
X9105385Y-7780294D02*
X9124432Y-7770770D01*
X9124432Y-7770770D02*
X9162528Y-7770770D01*
X9162528Y-7770770D02*
X9181575Y-7780294D01*
X9181575Y-7780294D02*
X9191099Y-7789818D01*
X9191099Y-7789818D02*
X9200623Y-7808866D01*
X9200623Y-7808866D02*
X9200623Y-7866008D01*
X9200623Y-7866008D02*
X9191099Y-7885056D01*
X9191099Y-7885056D02*
X9181575Y-7894580D01*
X9181575Y-7894580D02*
X9162528Y-7904104D01*
X9162528Y-7904104D02*
X9124432Y-7904104D01*
X9124432Y-7904104D02*
X9105385Y-7894580D01*
X9314909Y-7904104D02*
X9295861Y-7894580D01*
X9295861Y-7894580D02*
X9286337Y-7875532D01*
X9286337Y-7875532D02*
X9286337Y-7704104D01*
X9476813Y-7904104D02*
X9476813Y-7799342D01*
X9476813Y-7799342D02*
X9467290Y-7780294D01*
X9467290Y-7780294D02*
X9448242Y-7770770D01*
X9448242Y-7770770D02*
X9410147Y-7770770D01*
X9410147Y-7770770D02*
X9391099Y-7780294D01*
X9476813Y-7894580D02*
X9457766Y-7904104D01*
X9457766Y-7904104D02*
X9410147Y-7904104D01*
X9410147Y-7904104D02*
X9391099Y-7894580D01*
X9391099Y-7894580D02*
X9381575Y-7875532D01*
X9381575Y-7875532D02*
X9381575Y-7856485D01*
X9381575Y-7856485D02*
X9391099Y-7837437D01*
X9391099Y-7837437D02*
X9410147Y-7827913D01*
X9410147Y-7827913D02*
X9457766Y-7827913D01*
X9457766Y-7827913D02*
X9476813Y-7818389D01*
X9543480Y-7770770D02*
X9619671Y-7770770D01*
X9572052Y-7704104D02*
X9572052Y-7875532D01*
X9572052Y-7875532D02*
X9581575Y-7894580D01*
X9581575Y-7894580D02*
X9600623Y-7904104D01*
X9600623Y-7904104D02*
X9619671Y-7904104D01*
X9762528Y-7894580D02*
X9743480Y-7904104D01*
X9743480Y-7904104D02*
X9705385Y-7904104D01*
X9705385Y-7904104D02*
X9686337Y-7894580D01*
X9686337Y-7894580D02*
X9676813Y-7875532D01*
X9676813Y-7875532D02*
X9676813Y-7799342D01*
X9676813Y-7799342D02*
X9686337Y-7780294D01*
X9686337Y-7780294D02*
X9705385Y-7770770D01*
X9705385Y-7770770D02*
X9743480Y-7770770D01*
X9743480Y-7770770D02*
X9762528Y-7780294D01*
X9762528Y-7780294D02*
X9772052Y-7799342D01*
X9772052Y-7799342D02*
X9772052Y-7818389D01*
X9772052Y-7818389D02*
X9676813Y-7837437D01*
X9943480Y-7904104D02*
X9943480Y-7704104D01*
X9943480Y-7894580D02*
X9924433Y-7904104D01*
X9924433Y-7904104D02*
X9886337Y-7904104D01*
X9886337Y-7904104D02*
X9867290Y-7894580D01*
X9867290Y-7894580D02*
X9857766Y-7885056D01*
X9857766Y-7885056D02*
X9848242Y-7866008D01*
X9848242Y-7866008D02*
X9848242Y-7808866D01*
X9848242Y-7808866D02*
X9857766Y-7789818D01*
X9857766Y-7789818D02*
X9867290Y-7780294D01*
X9867290Y-7780294D02*
X9886337Y-7770770D01*
X9886337Y-7770770D02*
X9924433Y-7770770D01*
X9924433Y-7770770D02*
X9943480Y-7780294D01*
X10019671Y-7980294D02*
X10029194Y-7970770D01*
X10029194Y-7970770D02*
X10048242Y-7942199D01*
X10048242Y-7942199D02*
X10057766Y-7923151D01*
X10057766Y-7923151D02*
X10067290Y-7894580D01*
X10067290Y-7894580D02*
X10076813Y-7846961D01*
X10076813Y-7846961D02*
X10076813Y-7808866D01*
X10076813Y-7808866D02*
X10067290Y-7761247D01*
X10067290Y-7761247D02*
X10057766Y-7732675D01*
X10057766Y-7732675D02*
X10048242Y-7713628D01*
X10048242Y-7713628D02*
X10029194Y-7685056D01*
X10029194Y-7685056D02*
X10019671Y-7675532D01*
M02*
