%TF.GenerationSoftware,KiCad,Pcbnew,8.0.0*%
%TF.CreationDate,2024-02-28T09:47:00-08:00*%
%TF.ProjectId,SenseBarnacle,53656e73-6542-4617-926e-61636c652e6b,rev?*%
%TF.SameCoordinates,Original*%
%TF.FileFunction,Soldermask,Top*%
%TF.FilePolarity,Negative*%
%FSLAX46Y46*%
G04 Gerber Fmt 4.6, Leading zero omitted, Abs format (unit mm)*
G04 Created by KiCad (PCBNEW 8.0.0) date 2024-02-28 09:47:00*
%MOMM*%
%LPD*%
G01*
G04 APERTURE LIST*
G04 Aperture macros list*
%AMRoundRect*
0 Rectangle with rounded corners*
0 $1 Rounding radius*
0 $2 $3 $4 $5 $6 $7 $8 $9 X,Y pos of 4 corners*
0 Add a 4 corners polygon primitive as box body*
4,1,4,$2,$3,$4,$5,$6,$7,$8,$9,$2,$3,0*
0 Add four circle primitives for the rounded corners*
1,1,$1+$1,$2,$3*
1,1,$1+$1,$4,$5*
1,1,$1+$1,$6,$7*
1,1,$1+$1,$8,$9*
0 Add four rect primitives between the rounded corners*
20,1,$1+$1,$2,$3,$4,$5,0*
20,1,$1+$1,$4,$5,$6,$7,0*
20,1,$1+$1,$6,$7,$8,$9,0*
20,1,$1+$1,$8,$9,$2,$3,0*%
%AMRotRect*
0 Rectangle, with rotation*
0 The origin of the aperture is its center*
0 $1 length*
0 $2 width*
0 $3 Rotation angle, in degrees counterclockwise*
0 Add horizontal line*
21,1,$1,$2,0,0,$3*%
%AMFreePoly0*
4,1,13,0.500000,-0.500000,0.000000,-0.500000,-0.095671,-0.480970,-0.176777,-0.426777,-0.230970,-0.345671,-0.250000,-0.250000,-0.250000,0.250000,-0.230970,0.345671,-0.176777,0.426777,-0.095671,0.480970,0.000000,0.500000,0.500000,0.500000,0.500000,-0.500000,0.500000,-0.500000,$1*%
%AMFreePoly1*
4,1,24,0.508000,0.148282,1.300000,0.150000,1.329264,0.147118,1.383336,0.124720,1.424720,0.083336,1.447118,0.029264,1.447118,-0.029264,1.424720,-0.083336,1.383336,-0.124720,1.329264,-0.147118,0.508000,-0.148898,0.508000,-0.508000,0.000000,-0.508000,-0.097202,-0.488665,-0.179605,-0.433605,-0.234665,-0.351202,-0.254000,-0.254000,-0.254000,0.254000,-0.234665,0.351202,-0.179605,0.433605,
-0.097202,0.488665,0.000000,0.508000,0.508000,0.508000,0.508000,0.148282,0.508000,0.148282,$1*%
%AMFreePoly2*
4,1,13,0.508000,-0.508000,0.000000,-0.508000,-0.097202,-0.488665,-0.179605,-0.433605,-0.234665,-0.351202,-0.254000,-0.254000,-0.254000,0.254000,-0.234665,0.351202,-0.179605,0.433605,-0.097202,0.488665,0.000000,0.508000,0.508000,0.508000,0.508000,-0.508000,0.508000,-0.508000,$1*%
G04 Aperture macros list end*
%ADD10C,0.010000*%
%ADD11C,0.012700*%
%ADD12RoundRect,0.225000X-0.525000X-0.525000X0.525000X-0.525000X0.525000X0.525000X-0.525000X0.525000X0*%
%ADD13RoundRect,0.525000X-0.225000X-0.225000X0.225000X-0.225000X0.225000X0.225000X-0.225000X0.225000X0*%
%ADD14RoundRect,0.525000X-0.225000X0.225000X-0.225000X-0.225000X0.225000X-0.225000X0.225000X0.225000X0*%
%ADD15RoundRect,0.525000X0.225000X-0.225000X0.225000X0.225000X-0.225000X0.225000X-0.225000X-0.225000X0*%
%ADD16FreePoly0,0.000000*%
%ADD17FreePoly0,180.000000*%
%ADD18C,1.500000*%
%ADD19RoundRect,0.250000X-0.450000X0.350000X-0.450000X-0.350000X0.450000X-0.350000X0.450000X0.350000X0*%
%ADD20R,1.200000X0.500000*%
%ADD21R,0.500000X1.200000*%
%ADD22RoundRect,0.500000X0.100000X-0.100000X0.100000X0.100000X-0.100000X0.100000X-0.100000X-0.100000X0*%
%ADD23RoundRect,0.250000X0.450000X-0.350000X0.450000X0.350000X-0.450000X0.350000X-0.450000X-0.350000X0*%
%ADD24RoundRect,0.090000X0.360000X2.410000X-0.360000X2.410000X-0.360000X-2.410000X0.360000X-2.410000X0*%
%ADD25FreePoly1,0.000000*%
%ADD26FreePoly2,180.000000*%
%ADD27RoundRect,0.160000X-0.160000X0.197500X-0.160000X-0.197500X0.160000X-0.197500X0.160000X0.197500X0*%
%ADD28RoundRect,0.450000X-0.707107X0.070711X0.070711X-0.707107X0.707107X-0.070711X-0.070711X0.707107X0*%
%ADD29C,1.050000*%
%ADD30C,0.750000*%
%ADD31RoundRect,0.250000X-0.477297X0.123744X0.123744X-0.477297X0.477297X-0.123744X-0.123744X0.477297X0*%
%ADD32RoundRect,0.050000X-0.387500X-0.050000X0.387500X-0.050000X0.387500X0.050000X-0.387500X0.050000X0*%
%ADD33RoundRect,0.050000X-0.050000X-0.387500X0.050000X-0.387500X0.050000X0.387500X-0.050000X0.387500X0*%
%ADD34RoundRect,0.144000X-1.456000X-1.456000X1.456000X-1.456000X1.456000X1.456000X-1.456000X1.456000X0*%
%ADD35RoundRect,0.500000X-0.100000X0.100000X-0.100000X-0.100000X0.100000X-0.100000X0.100000X0.100000X0*%
%ADD36C,0.900000*%
%ADD37RotRect,0.500000X2.500000X135.000000*%
%ADD38RotRect,2.000000X2.500000X135.000000*%
%ADD39RoundRect,0.250000X-0.337500X-0.475000X0.337500X-0.475000X0.337500X0.475000X-0.337500X0.475000X0*%
%ADD40O,1.300000X1.500000*%
G04 APERTURE END LIST*
%TO.C,JP1*%
D10*
X50282599Y-52955000D02*
X50942999Y-52955000D01*
X50942999Y-53793200D01*
X50282599Y-53793200D01*
X50282599Y-52955000D01*
G36*
X50282599Y-52955000D02*
G01*
X50942999Y-52955000D01*
X50942999Y-53793200D01*
X50282599Y-53793200D01*
X50282599Y-52955000D01*
G37*
%TO.C,JP7*%
D11*
X50282599Y-56460200D02*
X50942999Y-56460200D01*
X50942999Y-57400000D01*
X50282599Y-57400000D01*
X50282599Y-56460200D01*
G36*
X50282599Y-56460200D02*
G01*
X50942999Y-56460200D01*
X50942999Y-57400000D01*
X50282599Y-57400000D01*
X50282599Y-56460200D01*
G37*
%TO.C,JP6*%
D10*
X50282599Y-54733000D02*
X50942999Y-54733000D01*
X50942999Y-55571200D01*
X50282599Y-55571200D01*
X50282599Y-54733000D01*
G36*
X50282599Y-54733000D02*
G01*
X50942999Y-54733000D01*
X50942999Y-55571200D01*
X50282599Y-55571200D01*
X50282599Y-54733000D01*
G37*
%TD*%
D12*
%TO.C,J5*%
X58410599Y-30648400D03*
D13*
X58410599Y-33188400D03*
X58410599Y-35728400D03*
X58410599Y-38268400D03*
%TD*%
D14*
%TO.C,J3*%
X38725599Y-26838400D03*
X41265599Y-26838400D03*
X43805599Y-26838400D03*
X46345599Y-26838400D03*
X48885599Y-26838400D03*
%TD*%
D15*
%TO.C,TP6*%
X35550599Y-46523400D03*
%TD*%
D16*
%TO.C,JP1*%
X49799999Y-53381400D03*
D17*
X51425599Y-53381400D03*
%TD*%
D18*
%TO.C,U5*%
X36795199Y-29403800D03*
X39335199Y-29403800D03*
X46955199Y-29403800D03*
X49495199Y-29403800D03*
X52035199Y-29403800D03*
%TD*%
D19*
%TO.C,R22*%
X74539599Y-39030400D03*
X74539599Y-41030400D03*
%TD*%
D15*
%TO.C,TP7*%
X35550599Y-43983400D03*
%TD*%
D20*
%TO.C,U15*%
X84689199Y-46734200D03*
X84689199Y-47534200D03*
X84689199Y-48334200D03*
X84689199Y-49134200D03*
X84689199Y-49934200D03*
X84689199Y-50734200D03*
X84689199Y-51534200D03*
X84689199Y-52334200D03*
X84689199Y-53134200D03*
X84689199Y-53934200D03*
X84689199Y-54734200D03*
D21*
X86389199Y-56434200D03*
X87189199Y-56434200D03*
X87989199Y-56434200D03*
X88789199Y-56434200D03*
X89589199Y-56434200D03*
X90389199Y-56434200D03*
X91189199Y-56434200D03*
X91989199Y-56434200D03*
X92789199Y-56434200D03*
X93589199Y-56434200D03*
X94389199Y-56434200D03*
D20*
X96089199Y-54734200D03*
X96089199Y-53934200D03*
X96089199Y-53134200D03*
X96089199Y-52334200D03*
X96089199Y-51534200D03*
X96089199Y-50734200D03*
X96089199Y-49934200D03*
X96089199Y-49134200D03*
X96089199Y-48334200D03*
X96089199Y-47534200D03*
X96089199Y-46734200D03*
D21*
X94389199Y-45034200D03*
X93589199Y-45034200D03*
X92789199Y-45034200D03*
X91989199Y-45034200D03*
X91189199Y-45034200D03*
X90389199Y-45034200D03*
X89589199Y-45034200D03*
X88789199Y-45034200D03*
X87989199Y-45034200D03*
X87189199Y-45034200D03*
X86389199Y-45034200D03*
%TD*%
D22*
%TO.C,TP3*%
X100890915Y-26203400D03*
%TD*%
D23*
%TO.C,R15*%
X86207600Y-36982400D03*
X86207600Y-34982400D03*
%TD*%
D24*
%TO.C,J6*%
X57750199Y-21123400D03*
X59020199Y-21123400D03*
X60290199Y-21123400D03*
X61560199Y-21123400D03*
X62830199Y-21123400D03*
X64100199Y-21123400D03*
X65370199Y-21123400D03*
X66640199Y-21123400D03*
X67910199Y-21123400D03*
X69180199Y-21123400D03*
X70450199Y-21123400D03*
X71720199Y-21123400D03*
X72990199Y-21123400D03*
X74260199Y-21123400D03*
X75530199Y-21123400D03*
X76800199Y-21123400D03*
X78070199Y-21123400D03*
X79340199Y-21123400D03*
X80610199Y-21123400D03*
X81880199Y-21123400D03*
X83150199Y-21123400D03*
X84420199Y-21123400D03*
X85690199Y-21123400D03*
X86960199Y-21123400D03*
X88230199Y-21123400D03*
X89500199Y-21123400D03*
X90770199Y-21123400D03*
X92040199Y-21123400D03*
X93310199Y-21123400D03*
X94580199Y-21123400D03*
X95850199Y-21123400D03*
X97120199Y-21123400D03*
X53940199Y-21123400D03*
X55210199Y-21123400D03*
X56480199Y-21123400D03*
%TD*%
D23*
%TO.C,R10*%
X82143600Y-41062400D03*
X82143600Y-39062400D03*
%TD*%
%TO.C,R17*%
X88239600Y-36982400D03*
X88239600Y-34982400D03*
%TD*%
%TO.C,R21*%
X63855600Y-32045400D03*
X63855600Y-30045400D03*
%TD*%
%TO.C,R39*%
X88255599Y-31648400D03*
X88255599Y-29648400D03*
%TD*%
%TO.C,R8*%
X65887600Y-36490400D03*
X65887600Y-34490400D03*
%TD*%
%TO.C,R41*%
X84445599Y-31648400D03*
X84445599Y-29648400D03*
%TD*%
D25*
%TO.C,JP7*%
X49799999Y-56930100D03*
D26*
X51425599Y-56930100D03*
%TD*%
D23*
%TO.C,R18*%
X67919600Y-36490400D03*
X67919600Y-34490400D03*
%TD*%
D22*
%TO.C,TP4*%
X98415599Y-26203400D03*
%TD*%
D23*
%TO.C,R11*%
X82143600Y-36966400D03*
X82143600Y-34966400D03*
%TD*%
D19*
%TO.C,R35*%
X93970599Y-39173400D03*
X93970599Y-41173400D03*
%TD*%
D23*
%TO.C,R14*%
X86207600Y-41046400D03*
X86207600Y-39046400D03*
%TD*%
D27*
%TO.C,R2*%
X107559599Y-38724400D03*
X107559599Y-39919400D03*
%TD*%
D23*
%TO.C,R25*%
X63855600Y-41030400D03*
X63855600Y-39030400D03*
%TD*%
%TO.C,R13*%
X84175600Y-36982400D03*
X84175600Y-34982400D03*
%TD*%
D22*
%TO.C,TP2*%
X103390915Y-26203400D03*
%TD*%
D15*
%TO.C,TP13*%
X35550599Y-41483400D03*
%TD*%
D28*
%TO.C,U4*%
X39544817Y-53832182D03*
D29*
X41047418Y-52329581D03*
D30*
X43769780Y-49607219D03*
D28*
X45272381Y-48104618D03*
D31*
X40888319Y-47432866D03*
X39880692Y-48440493D03*
X38873065Y-49448120D03*
X45944133Y-52488680D03*
X44936506Y-53496307D03*
X43928879Y-54503934D03*
%TD*%
D18*
%TO.C,U12*%
X36820599Y-38268400D03*
X39360599Y-38268400D03*
X46980599Y-38268400D03*
X49520599Y-38268400D03*
X52060599Y-38268400D03*
%TD*%
D20*
%TO.C,U13*%
X54844199Y-46734200D03*
X54844199Y-47534200D03*
X54844199Y-48334200D03*
X54844199Y-49134200D03*
X54844199Y-49934200D03*
X54844199Y-50734200D03*
X54844199Y-51534200D03*
X54844199Y-52334200D03*
X54844199Y-53134200D03*
X54844199Y-53934200D03*
X54844199Y-54734200D03*
D21*
X56544199Y-56434200D03*
X57344199Y-56434200D03*
X58144199Y-56434200D03*
X58944199Y-56434200D03*
X59744199Y-56434200D03*
X60544199Y-56434200D03*
X61344199Y-56434200D03*
X62144199Y-56434200D03*
X62944199Y-56434200D03*
X63744199Y-56434200D03*
X64544199Y-56434200D03*
D20*
X66244199Y-54734200D03*
X66244199Y-53934200D03*
X66244199Y-53134200D03*
X66244199Y-52334200D03*
X66244199Y-51534200D03*
X66244199Y-50734200D03*
X66244199Y-49934200D03*
X66244199Y-49134200D03*
X66244199Y-48334200D03*
X66244199Y-47534200D03*
X66244199Y-46734200D03*
D21*
X64544199Y-45034200D03*
X63744199Y-45034200D03*
X62944199Y-45034200D03*
X62144199Y-45034200D03*
X61344199Y-45034200D03*
X60544199Y-45034200D03*
X59744199Y-45034200D03*
X58944199Y-45034200D03*
X58144199Y-45034200D03*
X57344199Y-45034200D03*
X56544199Y-45034200D03*
%TD*%
D32*
%TO.C,U9*%
X103228099Y-45833400D03*
X103228099Y-46233400D03*
X103228099Y-46633400D03*
X103228099Y-47033400D03*
X103228099Y-47433400D03*
X103228099Y-47833400D03*
X103228099Y-48233400D03*
X103228099Y-48633400D03*
X103228099Y-49033400D03*
X103228099Y-49433400D03*
X103228099Y-49833400D03*
X103228099Y-50233400D03*
X103228099Y-50633400D03*
X103228099Y-51033400D03*
D33*
X104065599Y-51870900D03*
X104465599Y-51870900D03*
X104865599Y-51870900D03*
X105265599Y-51870900D03*
X105665599Y-51870900D03*
X106065599Y-51870900D03*
X106465599Y-51870900D03*
X106865599Y-51870900D03*
X107265599Y-51870900D03*
X107665599Y-51870900D03*
X108065599Y-51870900D03*
X108465599Y-51870900D03*
X108865599Y-51870900D03*
X109265599Y-51870900D03*
D32*
X110103099Y-51033400D03*
X110103099Y-50633400D03*
X110103099Y-50233400D03*
X110103099Y-49833400D03*
X110103099Y-49433400D03*
X110103099Y-49033400D03*
X110103099Y-48633400D03*
X110103099Y-48233400D03*
X110103099Y-47833400D03*
X110103099Y-47433400D03*
X110103099Y-47033400D03*
X110103099Y-46633400D03*
X110103099Y-46233400D03*
X110103099Y-45833400D03*
D33*
X109265599Y-44995900D03*
X108865599Y-44995900D03*
X108465599Y-44995900D03*
X108065599Y-44995900D03*
X107665599Y-44995900D03*
X107265599Y-44995900D03*
X106865599Y-44995900D03*
X106465599Y-44995900D03*
X106065599Y-44995900D03*
X105665599Y-44995900D03*
X105265599Y-44995900D03*
X104865599Y-44995900D03*
X104465599Y-44995900D03*
X104065599Y-44995900D03*
D34*
X106665599Y-48433400D03*
%TD*%
D23*
%TO.C,R26*%
X67919600Y-41046400D03*
X67919600Y-39046400D03*
%TD*%
%TO.C,R40*%
X86350599Y-31648400D03*
X86350599Y-29648400D03*
%TD*%
D16*
%TO.C,JP6*%
X49799999Y-55159400D03*
D17*
X51425599Y-55159400D03*
%TD*%
D23*
%TO.C,R20*%
X63855600Y-36490400D03*
X63855600Y-34490400D03*
%TD*%
D35*
%TO.C,TP16*%
X115687599Y-55057800D03*
%TD*%
D27*
%TO.C,R1*%
X106543599Y-38724400D03*
X106543599Y-39919400D03*
%TD*%
D20*
%TO.C,U14*%
X69840599Y-46734200D03*
X69840599Y-47534200D03*
X69840599Y-48334200D03*
X69840599Y-49134200D03*
X69840599Y-49934200D03*
X69840599Y-50734200D03*
X69840599Y-51534200D03*
X69840599Y-52334200D03*
X69840599Y-53134200D03*
X69840599Y-53934200D03*
X69840599Y-54734200D03*
D21*
X71540599Y-56434200D03*
X72340599Y-56434200D03*
X73140599Y-56434200D03*
X73940599Y-56434200D03*
X74740599Y-56434200D03*
X75540599Y-56434200D03*
X76340599Y-56434200D03*
X77140599Y-56434200D03*
X77940599Y-56434200D03*
X78740599Y-56434200D03*
X79540599Y-56434200D03*
D20*
X81240599Y-54734200D03*
X81240599Y-53934200D03*
X81240599Y-53134200D03*
X81240599Y-52334200D03*
X81240599Y-51534200D03*
X81240599Y-50734200D03*
X81240599Y-49934200D03*
X81240599Y-49134200D03*
X81240599Y-48334200D03*
X81240599Y-47534200D03*
X81240599Y-46734200D03*
D21*
X79540599Y-45034200D03*
X78740599Y-45034200D03*
X77940599Y-45034200D03*
X77140599Y-45034200D03*
X76340599Y-45034200D03*
X75540599Y-45034200D03*
X74740599Y-45034200D03*
X73940599Y-45034200D03*
X73140599Y-45034200D03*
X72340599Y-45034200D03*
X71540599Y-45034200D03*
%TD*%
D36*
%TO.C,J1*%
X111394458Y-33545812D03*
X108283188Y-30434542D03*
D37*
X109131716Y-34960025D03*
X108566031Y-34394340D03*
X108000345Y-33828655D03*
X107434660Y-33262969D03*
X106868975Y-32697284D03*
D38*
X111111615Y-36939924D03*
X115000703Y-33050837D03*
X104889076Y-30717385D03*
X108778163Y-26828297D03*
%TD*%
D23*
%TO.C,R42*%
X82540599Y-31648400D03*
X82540599Y-29648400D03*
%TD*%
D19*
%TO.C,R23*%
X72507599Y-39030400D03*
X72507599Y-41030400D03*
%TD*%
D22*
%TO.C,TP1*%
X105970915Y-26203400D03*
%TD*%
D24*
%TO.C,J7*%
X57775599Y-62703200D03*
X59045599Y-62703200D03*
X60315599Y-62703200D03*
X61585599Y-62703200D03*
X62855599Y-62703200D03*
X64125599Y-62703200D03*
X65395599Y-62703200D03*
X66665599Y-62703200D03*
X67935599Y-62703200D03*
X69205599Y-62703200D03*
X70475599Y-62703200D03*
X71745599Y-62703200D03*
X73015599Y-62703200D03*
X74285599Y-62703200D03*
X75555599Y-62703200D03*
X76825599Y-62703200D03*
X78095599Y-62703200D03*
X79365599Y-62703200D03*
X80635599Y-62703200D03*
X81905599Y-62703200D03*
X83175599Y-62703200D03*
X84445599Y-62703200D03*
X85715599Y-62703200D03*
X86985599Y-62703200D03*
X88255599Y-62703200D03*
X89525599Y-62703200D03*
X90795599Y-62703200D03*
X92065599Y-62703200D03*
X93335599Y-62703200D03*
X94605599Y-62703200D03*
X95875599Y-62703200D03*
X97145599Y-62703200D03*
X53965599Y-62703200D03*
X55235599Y-62703200D03*
X56505599Y-62703200D03*
%TD*%
D23*
%TO.C,R9*%
X65887600Y-32045400D03*
X65887600Y-30045400D03*
%TD*%
D39*
%TO.C,C1*%
X113313300Y-38903400D03*
X115388300Y-38903400D03*
%TD*%
D23*
%TO.C,R12*%
X84175600Y-41046400D03*
X84175600Y-39046400D03*
%TD*%
D19*
%TO.C,R24*%
X76571599Y-39030400D03*
X76571599Y-41030400D03*
%TD*%
D23*
%TO.C,R3*%
X65887600Y-41030400D03*
X65887600Y-39030400D03*
%TD*%
D19*
%TO.C,R36*%
X92065599Y-39173400D03*
X92065599Y-41173400D03*
%TD*%
D23*
%TO.C,R19*%
X67919600Y-32045400D03*
X67919600Y-30045400D03*
%TD*%
D40*
%TO.C,J2*%
X104130599Y-57318400D03*
X106670599Y-57318400D03*
X109210599Y-57318400D03*
%TD*%
D23*
%TO.C,R16*%
X88239600Y-41046400D03*
X88239600Y-39046400D03*
%TD*%
M02*
