%TF.GenerationSoftware,KiCad,Pcbnew,8.0.0*%
%TF.CreationDate,2024-02-27T09:21:41-08:00*%
%TF.ProjectId,BarnacleBoard,4261726e-6163-46c6-9542-6f6172642e6b,rev?*%
%TF.SameCoordinates,Original*%
%TF.FileFunction,Legend,Top*%
%TF.FilePolarity,Positive*%
%FSLAX46Y46*%
G04 Gerber Fmt 4.6, Leading zero omitted, Abs format (unit mm)*
G04 Created by KiCad (PCBNEW 8.0.0) date 2024-02-27 09:21:41*
%MOMM*%
%LPD*%
G01*
G04 APERTURE LIST*
G04 Aperture macros list*
%AMRoundRect*
0 Rectangle with rounded corners*
0 $1 Rounding radius*
0 $2 $3 $4 $5 $6 $7 $8 $9 X,Y pos of 4 corners*
0 Add a 4 corners polygon primitive as box body*
4,1,4,$2,$3,$4,$5,$6,$7,$8,$9,$2,$3,0*
0 Add four circle primitives for the rounded corners*
1,1,$1+$1,$2,$3*
1,1,$1+$1,$4,$5*
1,1,$1+$1,$6,$7*
1,1,$1+$1,$8,$9*
0 Add four rect primitives between the rounded corners*
20,1,$1+$1,$2,$3,$4,$5,0*
20,1,$1+$1,$4,$5,$6,$7,0*
20,1,$1+$1,$6,$7,$8,$9,0*
20,1,$1+$1,$8,$9,$2,$3,0*%
%AMFreePoly0*
4,1,24,0.508000,0.148282,1.300000,0.150000,1.329264,0.147118,1.383336,0.124720,1.424720,0.083336,1.447118,0.029264,1.447118,-0.029264,1.424720,-0.083336,1.383336,-0.124720,1.329264,-0.147118,0.508000,-0.148898,0.508000,-0.508000,0.000000,-0.508000,-0.097202,-0.488665,-0.179605,-0.433605,-0.234665,-0.351202,-0.254000,-0.254000,-0.254000,0.254000,-0.234665,0.351202,-0.179605,0.433605,
-0.097202,0.488665,0.000000,0.508000,0.508000,0.508000,0.508000,0.148282,0.508000,0.148282,$1*%
%AMFreePoly1*
4,1,13,0.508000,-0.508000,0.000000,-0.508000,-0.097202,-0.488665,-0.179605,-0.433605,-0.234665,-0.351202,-0.254000,-0.254000,-0.254000,0.254000,-0.234665,0.351202,-0.179605,0.433605,-0.097202,0.488665,0.000000,0.508000,0.508000,0.508000,0.508000,-0.508000,0.508000,-0.508000,$1*%
G04 Aperture macros list end*
%ADD10C,0.250000*%
%ADD11C,0.120000*%
%ADD12C,0.200000*%
%ADD13C,0.150000*%
%ADD14C,0.080000*%
%ADD15C,0.125000*%
%ADD16C,0.225000*%
%ADD17C,0.012700*%
%ADD18C,0.300000*%
%ADD19C,0.010000*%
%ADD20RoundRect,0.150000X0.150000X0.200000X-0.150000X0.200000X-0.150000X-0.200000X0.150000X-0.200000X0*%
%ADD21RoundRect,0.150000X-0.200000X0.150000X-0.200000X-0.150000X0.200000X-0.150000X0.200000X0.150000X0*%
%ADD22RoundRect,0.595000X0.255000X-0.255000X0.255000X0.255000X-0.255000X0.255000X-0.255000X-0.255000X0*%
%ADD23FreePoly0,90.000000*%
%ADD24FreePoly1,270.000000*%
%ADD25C,4.000000*%
%ADD26RoundRect,0.595000X-0.255000X-0.255000X0.255000X-0.255000X0.255000X0.255000X-0.255000X0.255000X0*%
%ADD27FreePoly0,270.000000*%
%ADD28FreePoly1,90.000000*%
%ADD29RoundRect,0.100000X-0.400000X-2.650000X0.400000X-2.650000X0.400000X2.650000X-0.400000X2.650000X0*%
%ADD30C,2.100000*%
%ADD31O,1.800000X1.200000*%
%ADD32O,1.500000X2.000000*%
G04 APERTURE END LIST*
D10*
G36*
X121433045Y-133290344D02*
G01*
X121485080Y-133283800D01*
X121531462Y-133259628D01*
X121546618Y-133243815D01*
X121574278Y-133181442D01*
X121583174Y-133107429D01*
X121583498Y-133087378D01*
X121581738Y-133010776D01*
X121574405Y-132934320D01*
X121568599Y-132904928D01*
X121526332Y-132858047D01*
X121473133Y-132846311D01*
X121438662Y-132844845D01*
X121246932Y-132844845D01*
X121180986Y-132844845D01*
X120993407Y-132844845D01*
X120944154Y-132847524D01*
X120895548Y-132857421D01*
X120877636Y-132863896D01*
X120833253Y-132896725D01*
X120818530Y-132925078D01*
X120800979Y-132994510D01*
X120798257Y-133010808D01*
X120795327Y-133098002D01*
X120795327Y-133134639D01*
X120669297Y-133134639D01*
X120670499Y-133056032D01*
X120674941Y-132977120D01*
X120684023Y-132903807D01*
X120703491Y-132832388D01*
X120736998Y-132775533D01*
X120781952Y-132734157D01*
X120806562Y-132720281D01*
X120854121Y-132700851D01*
X120878613Y-132692437D01*
X120927068Y-132681858D01*
X120948711Y-132680713D01*
X120998266Y-132680713D01*
X121036883Y-132680713D01*
X121086514Y-132680713D01*
X121106736Y-132680713D01*
X121175368Y-132680713D01*
X121454049Y-132680713D01*
X121504613Y-132684704D01*
X121553206Y-132697927D01*
X121569088Y-132704893D01*
X121614761Y-132733195D01*
X121652130Y-132769740D01*
X121685361Y-132827056D01*
X121704745Y-132898340D01*
X121713607Y-132977372D01*
X121715145Y-133034255D01*
X121713680Y-133108627D01*
X121709283Y-133174206D01*
X121698096Y-133248305D01*
X121690721Y-133275689D01*
X121655652Y-133331097D01*
X121606780Y-133357021D01*
X121565913Y-133365448D01*
X121616793Y-133376754D01*
X121664182Y-133405605D01*
X121697315Y-133455940D01*
X121717083Y-133529939D01*
X121725431Y-133607763D01*
X121727816Y-133683108D01*
X121727846Y-133693344D01*
X121725788Y-133778193D01*
X121719617Y-133852076D01*
X121706780Y-133926260D01*
X121684315Y-133992851D01*
X121643582Y-134046886D01*
X121593314Y-134074936D01*
X121544773Y-134090714D01*
X121486942Y-134101984D01*
X121431652Y-134107932D01*
X121382775Y-134110436D01*
X121343407Y-134111000D01*
X121074740Y-134111000D01*
X121053735Y-134111000D01*
X121001495Y-134109354D01*
X120949462Y-134105058D01*
X120899221Y-134099002D01*
X120865913Y-134094147D01*
X120815339Y-134080958D01*
X120767750Y-134055172D01*
X120726429Y-134012926D01*
X120710330Y-133986436D01*
X120685729Y-133915875D01*
X120672609Y-133839591D01*
X120665912Y-133758379D01*
X120663725Y-133678025D01*
X120663680Y-133663669D01*
X120789709Y-133663669D01*
X120791622Y-133739046D01*
X120799154Y-133814250D01*
X120813889Y-133875061D01*
X120852479Y-133921956D01*
X120901939Y-133942701D01*
X120922333Y-133946868D01*
X121193442Y-133946868D01*
X121442814Y-133946868D01*
X121493583Y-133941710D01*
X121543122Y-133918783D01*
X121570309Y-133881655D01*
X121587862Y-133812103D01*
X121595275Y-133736054D01*
X121597394Y-133661098D01*
X121597420Y-133650846D01*
X121593127Y-133573446D01*
X121574045Y-133504707D01*
X121566890Y-133493676D01*
X121518787Y-133463088D01*
X121465659Y-133454819D01*
X121449897Y-133454475D01*
X121440128Y-133454475D01*
X121054224Y-133454475D01*
X121054224Y-133290344D01*
X121433045Y-133290344D01*
G37*
G36*
X122731986Y-132688335D02*
G01*
X122781474Y-132714682D01*
X122823568Y-132759848D01*
X122834754Y-132777067D01*
X122866697Y-132840029D01*
X122889862Y-132908930D01*
X122904249Y-132983770D01*
X122906073Y-132999450D01*
X122912167Y-133072508D01*
X122912912Y-133085912D01*
X122918224Y-133160376D01*
X122919995Y-133220368D01*
X122922682Y-133431394D01*
X122922258Y-133508881D01*
X122920633Y-133593649D01*
X122917788Y-133669452D01*
X122912927Y-133746559D01*
X122905340Y-133819740D01*
X122889050Y-133896197D01*
X122861548Y-133962994D01*
X122822837Y-134020131D01*
X122813749Y-134030399D01*
X122770702Y-134065662D01*
X122723318Y-134088252D01*
X122666864Y-134103128D01*
X122611257Y-134109740D01*
X122570484Y-134111000D01*
X122361900Y-134111000D01*
X122142082Y-134111000D01*
X122090592Y-134107967D01*
X122036755Y-134097073D01*
X121988262Y-134078257D01*
X121940093Y-134047618D01*
X121896682Y-134002016D01*
X121865675Y-133944893D01*
X121847071Y-133876250D01*
X121844838Y-133861139D01*
X121835903Y-133785934D01*
X121828003Y-133706680D01*
X121822123Y-133631062D01*
X121817971Y-133411610D01*
X121817983Y-133409412D01*
X121949618Y-133409412D01*
X121960853Y-133726317D01*
X121969984Y-133799690D01*
X121992149Y-133865636D01*
X122019960Y-133902172D01*
X122069129Y-133931111D01*
X122122130Y-133944075D01*
X122167239Y-133946868D01*
X122366052Y-133946868D01*
X122573170Y-133946868D01*
X122625308Y-133944115D01*
X122677279Y-133933273D01*
X122719227Y-133912064D01*
X122756230Y-133859857D01*
X122773982Y-133786226D01*
X122775403Y-133773578D01*
X122788104Y-133571345D01*
X122790791Y-133382301D01*
X122786638Y-133166879D01*
X122783656Y-133091275D01*
X122774707Y-133016276D01*
X122768564Y-132981865D01*
X122746113Y-132913355D01*
X122709702Y-132874886D01*
X122662284Y-132854350D01*
X122611818Y-132845901D01*
X122583184Y-132844845D01*
X122377287Y-132844845D01*
X122174322Y-132844845D01*
X122125015Y-132847157D01*
X122073428Y-132856552D01*
X122026259Y-132877367D01*
X122019960Y-132881847D01*
X121983209Y-132931248D01*
X121964403Y-133004518D01*
X121962319Y-133023630D01*
X121952549Y-133229527D01*
X121949618Y-133409412D01*
X121817983Y-133409412D01*
X121819193Y-133178236D01*
X121822256Y-133104981D01*
X121829634Y-133028073D01*
X121837755Y-132963547D01*
X121852118Y-132891869D01*
X121877277Y-132823920D01*
X121912120Y-132768279D01*
X121924461Y-132753986D01*
X121972131Y-132715346D01*
X122023722Y-132692806D01*
X122076490Y-132682502D01*
X122112772Y-132680713D01*
X122377287Y-132680713D01*
X122681126Y-132680713D01*
X122731986Y-132688335D01*
G37*
G36*
X116192111Y-134136400D02*
G01*
X115144554Y-134136400D01*
X115144554Y-134063493D01*
X115145366Y-133980803D01*
X115147805Y-133904376D01*
X115153140Y-133817649D01*
X115161014Y-133740707D01*
X115173817Y-133661294D01*
X115193377Y-133586453D01*
X115196577Y-133577328D01*
X115231504Y-133514656D01*
X115276691Y-133474508D01*
X115326287Y-133451006D01*
X115375279Y-133439115D01*
X115431236Y-133434219D01*
X115443263Y-133434079D01*
X115652090Y-133422722D01*
X115701118Y-133427677D01*
X115712907Y-133429683D01*
X115761650Y-133436399D01*
X115768594Y-133436644D01*
X115804742Y-133433713D01*
X115856186Y-133422722D01*
X115909856Y-133410821D01*
X115915628Y-133409533D01*
X115967511Y-133392853D01*
X116012390Y-133363865D01*
X116035307Y-133332230D01*
X116054241Y-133262029D01*
X116060758Y-133188548D01*
X116061685Y-133140621D01*
X116058478Y-133063760D01*
X116045848Y-132988866D01*
X116021141Y-132931061D01*
X115978239Y-132891685D01*
X115926070Y-132874046D01*
X115878992Y-132870245D01*
X115649404Y-132870245D01*
X115470129Y-132870245D01*
X115416117Y-132874881D01*
X115367660Y-132890910D01*
X115322851Y-132928863D01*
X115295493Y-132995778D01*
X115283939Y-133073502D01*
X115280638Y-133152116D01*
X115280597Y-133162970D01*
X115278887Y-133246134D01*
X115154323Y-133246134D01*
X115155096Y-133169473D01*
X115157768Y-133092994D01*
X115162910Y-133019446D01*
X115164093Y-133007265D01*
X115174164Y-132935266D01*
X115191872Y-132863916D01*
X115195845Y-132852659D01*
X115230487Y-132795436D01*
X115273656Y-132758068D01*
X115321566Y-132736092D01*
X115356068Y-132727729D01*
X115518978Y-132706113D01*
X115649404Y-132706113D01*
X115758580Y-132706113D01*
X115814046Y-132707253D01*
X115865528Y-132710670D01*
X115924277Y-132718146D01*
X115976802Y-132729181D01*
X116031613Y-132747123D01*
X116084230Y-132774534D01*
X116090750Y-132779020D01*
X116130721Y-132821748D01*
X116160875Y-132886460D01*
X116178907Y-132959426D01*
X116188424Y-133032568D01*
X116192932Y-133116927D01*
X116193332Y-133153811D01*
X116191014Y-133236346D01*
X116184059Y-133310019D01*
X116170084Y-133384772D01*
X116146385Y-133455434D01*
X116127387Y-133491598D01*
X116088644Y-133537760D01*
X116038116Y-133570733D01*
X115984237Y-133588765D01*
X115930874Y-133596184D01*
X115901706Y-133597111D01*
X115662348Y-133609934D01*
X115464756Y-133620559D01*
X115413964Y-133623977D01*
X115361747Y-133638419D01*
X115317918Y-133671418D01*
X115305265Y-133692000D01*
X115285173Y-133764900D01*
X115276189Y-133844933D01*
X115272808Y-133922208D01*
X115272293Y-133972268D01*
X116192111Y-133972268D01*
X116192111Y-134136400D01*
G37*
G36*
X116618315Y-133175060D02*
G01*
X116728957Y-133151612D01*
X116767303Y-133151612D01*
X116936808Y-133151612D01*
X116990324Y-133152900D01*
X117040811Y-133156764D01*
X117097397Y-133164801D01*
X117149621Y-133176548D01*
X117197483Y-133192004D01*
X117226968Y-133204369D01*
X117277725Y-133235395D01*
X117319535Y-133281412D01*
X117347003Y-133346342D01*
X117353242Y-133384254D01*
X117364477Y-133550949D01*
X117365942Y-133654630D01*
X117364422Y-133733490D01*
X117358583Y-133818086D01*
X117348365Y-133891734D01*
X117330909Y-133963819D01*
X117303660Y-134027956D01*
X117265329Y-134075400D01*
X117219994Y-134105794D01*
X117172372Y-134123585D01*
X117116662Y-134133752D01*
X117064058Y-134136400D01*
X116917268Y-134136400D01*
X116617582Y-134136400D01*
X116560235Y-134133695D01*
X116508726Y-134125580D01*
X116456013Y-134109276D01*
X116405500Y-134081627D01*
X116379201Y-134059463D01*
X116341774Y-134003841D01*
X116318789Y-133933671D01*
X116306615Y-133856268D01*
X116302079Y-133778035D01*
X116301776Y-133749519D01*
X116303242Y-133690901D01*
X116426584Y-133690901D01*
X116429077Y-133769362D01*
X116438892Y-133844401D01*
X116458092Y-133900095D01*
X116501651Y-133943870D01*
X116551126Y-133964819D01*
X116584365Y-133972268D01*
X116828852Y-133972268D01*
X117071141Y-133972268D01*
X117123568Y-133966293D01*
X117171744Y-133943350D01*
X117199613Y-133911085D01*
X117224156Y-133842894D01*
X117233799Y-133768753D01*
X117235517Y-133712150D01*
X117234443Y-133628030D01*
X117230478Y-133545421D01*
X117222368Y-133471490D01*
X117204986Y-133405503D01*
X117160184Y-133362568D01*
X117105506Y-133345667D01*
X117049595Y-133339774D01*
X117022048Y-133339191D01*
X116674735Y-133339191D01*
X116621564Y-133340350D01*
X116571504Y-133344357D01*
X116520618Y-133353845D01*
X116475677Y-133386635D01*
X116447742Y-133450981D01*
X116446368Y-133456427D01*
X116318140Y-133456427D01*
X116331330Y-132706113D01*
X117336633Y-132706113D01*
X117336633Y-132870245D01*
X116448810Y-132870245D01*
X116442704Y-133285702D01*
X116480848Y-133234929D01*
X116504498Y-133216092D01*
X116552740Y-133190472D01*
X116601844Y-133177384D01*
X116618315Y-133175060D01*
G37*
G36*
X109842111Y-134187200D02*
G01*
X108794554Y-134187200D01*
X108794554Y-134114293D01*
X108795366Y-134031603D01*
X108797805Y-133955176D01*
X108803140Y-133868449D01*
X108811014Y-133791507D01*
X108823817Y-133712094D01*
X108843377Y-133637253D01*
X108846577Y-133628128D01*
X108881504Y-133565456D01*
X108926691Y-133525308D01*
X108976287Y-133501806D01*
X109025279Y-133489915D01*
X109081236Y-133485019D01*
X109093263Y-133484879D01*
X109302090Y-133473522D01*
X109351118Y-133478477D01*
X109362907Y-133480483D01*
X109411650Y-133487199D01*
X109418594Y-133487444D01*
X109454742Y-133484513D01*
X109506186Y-133473522D01*
X109559856Y-133461621D01*
X109565628Y-133460333D01*
X109617511Y-133443653D01*
X109662390Y-133414665D01*
X109685307Y-133383030D01*
X109704241Y-133312829D01*
X109710758Y-133239348D01*
X109711685Y-133191421D01*
X109708478Y-133114560D01*
X109695848Y-133039666D01*
X109671141Y-132981861D01*
X109628239Y-132942485D01*
X109576070Y-132924846D01*
X109528992Y-132921045D01*
X109299404Y-132921045D01*
X109120129Y-132921045D01*
X109066117Y-132925681D01*
X109017660Y-132941710D01*
X108972851Y-132979663D01*
X108945493Y-133046578D01*
X108933939Y-133124302D01*
X108930638Y-133202916D01*
X108930597Y-133213770D01*
X108928887Y-133296934D01*
X108804323Y-133296934D01*
X108805096Y-133220273D01*
X108807768Y-133143794D01*
X108812910Y-133070246D01*
X108814093Y-133058065D01*
X108824164Y-132986066D01*
X108841872Y-132914716D01*
X108845845Y-132903459D01*
X108880487Y-132846236D01*
X108923656Y-132808868D01*
X108971566Y-132786892D01*
X109006068Y-132778529D01*
X109168978Y-132756913D01*
X109299404Y-132756913D01*
X109408580Y-132756913D01*
X109464046Y-132758053D01*
X109515528Y-132761470D01*
X109574277Y-132768946D01*
X109626802Y-132779981D01*
X109681613Y-132797923D01*
X109734230Y-132825334D01*
X109740750Y-132829820D01*
X109780721Y-132872548D01*
X109810875Y-132937260D01*
X109828907Y-133010226D01*
X109838424Y-133083368D01*
X109842932Y-133167727D01*
X109843332Y-133204611D01*
X109841014Y-133287146D01*
X109834059Y-133360819D01*
X109820084Y-133435572D01*
X109796385Y-133506234D01*
X109777387Y-133542398D01*
X109738644Y-133588560D01*
X109688116Y-133621533D01*
X109634237Y-133639565D01*
X109580874Y-133646984D01*
X109551706Y-133647911D01*
X109312348Y-133660734D01*
X109114756Y-133671359D01*
X109063964Y-133674777D01*
X109011747Y-133689219D01*
X108967918Y-133722218D01*
X108955265Y-133742800D01*
X108935173Y-133815700D01*
X108926189Y-133895733D01*
X108922808Y-133973008D01*
X108922293Y-134023068D01*
X109842111Y-134023068D01*
X109842111Y-134187200D01*
G37*
G36*
X110844786Y-132764535D02*
G01*
X110894274Y-132790882D01*
X110936368Y-132836048D01*
X110947554Y-132853267D01*
X110979497Y-132916229D01*
X111002662Y-132985130D01*
X111017049Y-133059970D01*
X111018873Y-133075650D01*
X111024967Y-133148708D01*
X111025712Y-133162112D01*
X111031024Y-133236576D01*
X111032795Y-133296568D01*
X111035482Y-133507594D01*
X111035058Y-133585081D01*
X111033433Y-133669849D01*
X111030588Y-133745652D01*
X111025727Y-133822759D01*
X111018140Y-133895940D01*
X111001850Y-133972397D01*
X110974348Y-134039194D01*
X110935637Y-134096331D01*
X110926549Y-134106599D01*
X110883502Y-134141862D01*
X110836118Y-134164452D01*
X110779664Y-134179328D01*
X110724057Y-134185940D01*
X110683284Y-134187200D01*
X110474700Y-134187200D01*
X110254882Y-134187200D01*
X110203392Y-134184167D01*
X110149555Y-134173273D01*
X110101062Y-134154457D01*
X110052893Y-134123818D01*
X110009482Y-134078216D01*
X109978475Y-134021093D01*
X109959871Y-133952450D01*
X109957638Y-133937339D01*
X109948703Y-133862134D01*
X109940803Y-133782880D01*
X109934923Y-133707262D01*
X109930771Y-133487810D01*
X109930783Y-133485612D01*
X110062418Y-133485612D01*
X110073653Y-133802517D01*
X110082784Y-133875890D01*
X110104949Y-133941836D01*
X110132760Y-133978372D01*
X110181929Y-134007311D01*
X110234930Y-134020275D01*
X110280039Y-134023068D01*
X110478852Y-134023068D01*
X110685970Y-134023068D01*
X110738108Y-134020315D01*
X110790079Y-134009473D01*
X110832027Y-133988264D01*
X110869030Y-133936057D01*
X110886782Y-133862426D01*
X110888203Y-133849778D01*
X110900904Y-133647545D01*
X110903591Y-133458501D01*
X110899438Y-133243079D01*
X110896456Y-133167475D01*
X110887507Y-133092476D01*
X110881364Y-133058065D01*
X110858913Y-132989555D01*
X110822502Y-132951086D01*
X110775084Y-132930550D01*
X110724618Y-132922101D01*
X110695984Y-132921045D01*
X110490087Y-132921045D01*
X110287122Y-132921045D01*
X110237815Y-132923357D01*
X110186228Y-132932752D01*
X110139059Y-132953567D01*
X110132760Y-132958047D01*
X110096009Y-133007448D01*
X110077203Y-133080718D01*
X110075119Y-133099830D01*
X110065349Y-133305727D01*
X110062418Y-133485612D01*
X109930783Y-133485612D01*
X109931993Y-133254436D01*
X109935056Y-133181181D01*
X109942434Y-133104273D01*
X109950555Y-133039747D01*
X109964918Y-132968069D01*
X109990077Y-132900120D01*
X110024920Y-132844479D01*
X110037261Y-132830186D01*
X110084931Y-132791546D01*
X110136522Y-132769006D01*
X110189290Y-132758702D01*
X110225572Y-132756913D01*
X110490087Y-132756913D01*
X110793926Y-132756913D01*
X110844786Y-132764535D01*
G37*
G36*
X102581327Y-133226959D02*
G01*
X102977977Y-132756913D01*
X103132583Y-132756913D01*
X103132583Y-134187200D01*
X103006310Y-134187200D01*
X103006310Y-132932402D01*
X102656554Y-133349691D01*
X102581327Y-133226959D01*
G37*
G36*
X103969115Y-133225860D02*
G01*
X104079757Y-133202412D01*
X104118103Y-133202412D01*
X104287608Y-133202412D01*
X104341124Y-133203700D01*
X104391611Y-133207564D01*
X104448197Y-133215601D01*
X104500421Y-133227348D01*
X104548283Y-133242804D01*
X104577768Y-133255169D01*
X104628525Y-133286195D01*
X104670335Y-133332212D01*
X104697803Y-133397142D01*
X104704042Y-133435054D01*
X104715277Y-133601749D01*
X104716742Y-133705430D01*
X104715222Y-133784290D01*
X104709383Y-133868886D01*
X104699165Y-133942534D01*
X104681709Y-134014619D01*
X104654460Y-134078756D01*
X104616129Y-134126200D01*
X104570794Y-134156594D01*
X104523172Y-134174385D01*
X104467462Y-134184552D01*
X104414858Y-134187200D01*
X104268068Y-134187200D01*
X103968382Y-134187200D01*
X103911035Y-134184495D01*
X103859526Y-134176380D01*
X103806813Y-134160076D01*
X103756300Y-134132427D01*
X103730001Y-134110263D01*
X103692574Y-134054641D01*
X103669589Y-133984471D01*
X103657415Y-133907068D01*
X103652879Y-133828835D01*
X103652576Y-133800319D01*
X103654042Y-133741701D01*
X103777384Y-133741701D01*
X103779877Y-133820162D01*
X103789692Y-133895201D01*
X103808892Y-133950895D01*
X103852451Y-133994670D01*
X103901926Y-134015619D01*
X103935165Y-134023068D01*
X104179652Y-134023068D01*
X104421941Y-134023068D01*
X104474368Y-134017093D01*
X104522544Y-133994150D01*
X104550413Y-133961885D01*
X104574956Y-133893694D01*
X104584599Y-133819553D01*
X104586317Y-133762950D01*
X104585243Y-133678830D01*
X104581278Y-133596221D01*
X104573168Y-133522290D01*
X104555786Y-133456303D01*
X104510984Y-133413368D01*
X104456306Y-133396467D01*
X104400395Y-133390574D01*
X104372848Y-133389991D01*
X104025535Y-133389991D01*
X103972364Y-133391150D01*
X103922304Y-133395157D01*
X103871418Y-133404645D01*
X103826477Y-133437435D01*
X103798542Y-133501781D01*
X103797168Y-133507227D01*
X103668940Y-133507227D01*
X103682130Y-132756913D01*
X104687433Y-132756913D01*
X104687433Y-132921045D01*
X103799610Y-132921045D01*
X103793504Y-133336502D01*
X103831648Y-133285729D01*
X103855298Y-133266892D01*
X103903540Y-133241272D01*
X103952644Y-133228184D01*
X103969115Y-133225860D01*
G37*
G36*
X96104327Y-133226959D02*
G01*
X96500977Y-132756913D01*
X96655583Y-132756913D01*
X96655583Y-134187200D01*
X96529310Y-134187200D01*
X96529310Y-132932402D01*
X96179554Y-133349691D01*
X96104327Y-133226959D01*
G37*
G36*
X98068586Y-132764535D02*
G01*
X98118074Y-132790882D01*
X98160168Y-132836048D01*
X98171354Y-132853267D01*
X98203297Y-132916229D01*
X98226462Y-132985130D01*
X98240849Y-133059970D01*
X98242673Y-133075650D01*
X98248767Y-133148708D01*
X98249512Y-133162112D01*
X98254824Y-133236576D01*
X98256595Y-133296568D01*
X98259282Y-133507594D01*
X98258858Y-133585081D01*
X98257233Y-133669849D01*
X98254388Y-133745652D01*
X98249527Y-133822759D01*
X98241940Y-133895940D01*
X98225650Y-133972397D01*
X98198148Y-134039194D01*
X98159437Y-134096331D01*
X98150349Y-134106599D01*
X98107302Y-134141862D01*
X98059918Y-134164452D01*
X98003464Y-134179328D01*
X97947857Y-134185940D01*
X97907084Y-134187200D01*
X97698500Y-134187200D01*
X97478682Y-134187200D01*
X97427192Y-134184167D01*
X97373355Y-134173273D01*
X97324862Y-134154457D01*
X97276693Y-134123818D01*
X97233282Y-134078216D01*
X97202275Y-134021093D01*
X97183671Y-133952450D01*
X97181438Y-133937339D01*
X97172503Y-133862134D01*
X97164603Y-133782880D01*
X97158723Y-133707262D01*
X97154571Y-133487810D01*
X97154583Y-133485612D01*
X97286218Y-133485612D01*
X97297453Y-133802517D01*
X97306584Y-133875890D01*
X97328749Y-133941836D01*
X97356560Y-133978372D01*
X97405729Y-134007311D01*
X97458730Y-134020275D01*
X97503839Y-134023068D01*
X97702652Y-134023068D01*
X97909770Y-134023068D01*
X97961908Y-134020315D01*
X98013879Y-134009473D01*
X98055827Y-133988264D01*
X98092830Y-133936057D01*
X98110582Y-133862426D01*
X98112003Y-133849778D01*
X98124704Y-133647545D01*
X98127391Y-133458501D01*
X98123238Y-133243079D01*
X98120256Y-133167475D01*
X98111307Y-133092476D01*
X98105164Y-133058065D01*
X98082713Y-132989555D01*
X98046302Y-132951086D01*
X97998884Y-132930550D01*
X97948418Y-132922101D01*
X97919784Y-132921045D01*
X97713887Y-132921045D01*
X97510922Y-132921045D01*
X97461615Y-132923357D01*
X97410028Y-132932752D01*
X97362859Y-132953567D01*
X97356560Y-132958047D01*
X97319809Y-133007448D01*
X97301003Y-133080718D01*
X97298919Y-133099830D01*
X97289149Y-133305727D01*
X97286218Y-133485612D01*
X97154583Y-133485612D01*
X97155793Y-133254436D01*
X97158856Y-133181181D01*
X97166234Y-133104273D01*
X97174355Y-133039747D01*
X97188718Y-132968069D01*
X97213877Y-132900120D01*
X97248720Y-132844479D01*
X97261061Y-132830186D01*
X97308731Y-132791546D01*
X97360322Y-132769006D01*
X97413090Y-132758702D01*
X97449372Y-132756913D01*
X97713887Y-132756913D01*
X98017726Y-132756913D01*
X98068586Y-132764535D01*
G37*
G36*
X90601818Y-133149660D02*
G01*
X90712460Y-133126212D01*
X90750806Y-133126212D01*
X90920311Y-133126212D01*
X90973827Y-133127500D01*
X91024315Y-133131364D01*
X91080901Y-133139401D01*
X91133125Y-133151148D01*
X91180987Y-133166604D01*
X91210472Y-133178969D01*
X91261228Y-133209995D01*
X91303039Y-133256012D01*
X91330507Y-133320942D01*
X91336745Y-133358854D01*
X91347980Y-133525549D01*
X91349446Y-133629230D01*
X91347925Y-133708090D01*
X91342086Y-133792686D01*
X91331868Y-133866334D01*
X91314412Y-133938419D01*
X91287164Y-134002556D01*
X91248833Y-134050000D01*
X91203497Y-134080394D01*
X91155876Y-134098185D01*
X91100166Y-134108352D01*
X91047562Y-134111000D01*
X90900772Y-134111000D01*
X90601086Y-134111000D01*
X90543738Y-134108295D01*
X90492230Y-134100180D01*
X90439516Y-134083876D01*
X90389004Y-134056227D01*
X90362705Y-134034063D01*
X90325277Y-133978441D01*
X90302292Y-133908271D01*
X90290119Y-133830868D01*
X90285582Y-133752635D01*
X90285280Y-133724119D01*
X90286745Y-133665501D01*
X90410088Y-133665501D01*
X90412580Y-133743962D01*
X90422395Y-133819001D01*
X90441595Y-133874695D01*
X90485154Y-133918470D01*
X90534630Y-133939419D01*
X90567869Y-133946868D01*
X90812356Y-133946868D01*
X91054645Y-133946868D01*
X91107071Y-133940893D01*
X91155248Y-133917950D01*
X91183116Y-133885685D01*
X91207660Y-133817494D01*
X91217302Y-133743353D01*
X91219020Y-133686750D01*
X91217947Y-133602630D01*
X91213981Y-133520021D01*
X91205872Y-133446090D01*
X91188490Y-133380103D01*
X91143687Y-133337168D01*
X91089009Y-133320267D01*
X91033098Y-133314374D01*
X91005552Y-133313791D01*
X90658238Y-133313791D01*
X90605068Y-133314950D01*
X90555007Y-133318957D01*
X90504121Y-133328445D01*
X90459181Y-133361235D01*
X90431245Y-133425581D01*
X90429871Y-133431027D01*
X90301644Y-133431027D01*
X90314833Y-132680713D01*
X91320137Y-132680713D01*
X91320137Y-132844845D01*
X90432314Y-132844845D01*
X90426208Y-133260302D01*
X90464351Y-133209529D01*
X90488001Y-133190692D01*
X90536244Y-133165072D01*
X90585347Y-133151984D01*
X90601818Y-133149660D01*
G37*
G36*
X85614127Y-133074559D02*
G01*
X86010777Y-132604513D01*
X86165383Y-132604513D01*
X86165383Y-134034800D01*
X86039110Y-134034800D01*
X86039110Y-132780002D01*
X85689354Y-133197291D01*
X85614127Y-133074559D01*
G37*
D11*
X82397600Y-135699500D02*
X82854800Y-135191500D01*
D12*
X84226438Y-133737033D02*
X84835962Y-133737033D01*
X84531200Y-134041795D02*
X84531200Y-133432271D01*
D13*
G36*
X82667187Y-136617600D02*
G01*
X82588833Y-136617600D01*
X82588833Y-136091207D01*
X82667187Y-136091207D01*
X82667187Y-136617600D01*
G37*
G36*
X82667187Y-135967327D02*
G01*
X82588833Y-135967327D01*
X82588833Y-135867285D01*
X82667187Y-135867285D01*
X82667187Y-135967327D01*
G37*
G36*
X82924325Y-136199847D02*
G01*
X82943262Y-136161500D01*
X82972291Y-136130604D01*
X83009908Y-136111528D01*
X83052006Y-136101430D01*
X83091262Y-136096045D01*
X83135476Y-136093053D01*
X83171890Y-136092380D01*
X83181855Y-136092380D01*
X83223657Y-136092929D01*
X83264817Y-136094861D01*
X83306685Y-136099112D01*
X83319608Y-136101172D01*
X83358754Y-136110414D01*
X83396573Y-136128053D01*
X83414960Y-136140837D01*
X83444496Y-136168957D01*
X83463524Y-136203816D01*
X83465763Y-136211375D01*
X83473477Y-136252396D01*
X83476342Y-136292671D01*
X83476510Y-136305946D01*
X83476510Y-136617600D01*
X83397961Y-136617600D01*
X83397961Y-136318255D01*
X83394664Y-136275208D01*
X83383072Y-136236676D01*
X83357570Y-136203812D01*
X83345205Y-136195743D01*
X83306668Y-136180802D01*
X83267650Y-136172834D01*
X83227539Y-136168767D01*
X83181855Y-136167411D01*
X83136206Y-136168366D01*
X83094954Y-136171230D01*
X83052382Y-136176986D01*
X83011056Y-136186747D01*
X82989196Y-136194571D01*
X82954987Y-136219484D01*
X82935032Y-136255479D01*
X82925909Y-136298270D01*
X82924325Y-136330175D01*
X82924325Y-136617600D01*
X82845972Y-136617600D01*
X82845972Y-136091207D01*
X82924325Y-136091207D01*
X82924325Y-136199847D01*
G37*
D11*
X82423000Y-135445500D02*
X82397600Y-135699500D01*
D12*
X81432438Y-133737033D02*
X82041962Y-133737033D01*
X83870800Y-135140700D02*
X82448400Y-134353300D01*
X83870800Y-133565900D02*
X83870800Y-135140700D01*
X81686400Y-134353300D02*
X82372200Y-134353300D01*
X82372200Y-135115300D02*
X82372200Y-133591300D01*
X82448400Y-134353300D02*
X83870800Y-133565900D01*
D11*
X82397600Y-135699500D02*
X82651600Y-135623300D01*
X82969100Y-135826500D02*
X83426300Y-135318500D01*
X82994500Y-135572500D02*
X82969100Y-135826500D01*
X82969100Y-135826500D02*
X83223100Y-135750300D01*
X83223100Y-135750300D02*
X82994500Y-135572500D01*
D12*
X83870800Y-134353300D02*
X84810600Y-134353300D01*
D11*
X82651600Y-135623300D02*
X82423000Y-135445500D01*
X125933198Y-132951402D02*
X123012198Y-132951402D01*
X123012198Y-132951399D02*
X123012198Y-134526200D01*
X125933198Y-133230800D02*
X123012198Y-133230800D01*
X123012198Y-134526200D02*
X125933198Y-134526200D01*
X125933196Y-134526200D02*
X125933196Y-132951402D01*
X123291600Y-132976802D02*
X123291600Y-133205400D01*
D12*
X123088398Y-133091100D02*
X125856998Y-133091100D01*
D10*
X125475951Y-133874135D02*
X124714047Y-133874135D01*
X124205951Y-133874135D02*
X123444047Y-133874135D01*
X123824999Y-133493182D02*
X123824999Y-134255087D01*
D11*
X134721597Y-131622801D02*
X134721596Y-131546600D01*
D14*
X31953203Y-130682999D02*
X31953203Y-131394199D01*
X32461203Y-130682999D02*
X32461203Y-131394199D01*
D11*
X137007597Y-125069600D02*
X134721600Y-125069599D01*
D14*
X31699203Y-130682999D02*
X31699203Y-131394199D01*
X32766001Y-108965999D02*
X32766001Y-108254799D01*
D11*
X30784802Y-130682999D02*
X30784802Y-132130799D01*
D14*
X31750002Y-108966000D02*
X31750002Y-108254800D01*
X33020001Y-108965999D02*
X33020002Y-108254799D01*
D11*
X72288398Y-132054605D02*
X72288395Y-130606807D01*
X70002397Y-130606804D02*
X70002397Y-132054604D01*
X134721596Y-130428999D02*
X134721599Y-131876797D01*
X137007597Y-124790202D02*
X134721599Y-124790199D01*
X72288395Y-130606807D02*
X70002397Y-130606804D01*
D14*
X30784802Y-131406899D02*
X33070802Y-131406901D01*
X32842203Y-130682999D02*
X32842203Y-131394199D01*
X32588203Y-130682999D02*
X32588203Y-131394199D01*
D11*
X137007600Y-126238000D02*
X137007597Y-124790202D01*
X131927600Y-129540000D02*
X131419600Y-129032000D01*
X140309600Y-127508000D02*
X140817600Y-127508000D01*
X131927600Y-127000000D02*
X131927600Y-126492000D01*
D14*
X30937203Y-130682999D02*
X30937203Y-131394199D01*
X31115000Y-108965998D02*
X31115001Y-108254799D01*
X31191203Y-130682999D02*
X31191203Y-131394199D01*
D12*
X134823200Y-124929900D02*
X136906000Y-124929902D01*
D14*
X31318203Y-130682999D02*
X31318203Y-131394199D01*
D11*
X70002397Y-132054604D02*
X72288398Y-132054605D01*
D14*
X30988001Y-108965999D02*
X30988001Y-108254799D01*
X31369002Y-108965997D02*
X31369001Y-108254797D01*
D11*
X30784802Y-132130799D02*
X33121606Y-132130800D01*
D14*
X32639001Y-108965999D02*
X32639001Y-108254799D01*
D11*
X30835598Y-107518198D02*
X30835601Y-108965995D01*
D14*
X31572203Y-130682999D02*
X31572203Y-131394199D01*
X33172402Y-108242099D02*
X30886402Y-108242097D01*
D11*
X139801600Y-130048000D02*
X139801600Y-129540000D01*
X137007597Y-131876800D02*
X137007597Y-130429000D01*
D14*
X32004001Y-108965999D02*
X32004001Y-108254799D01*
D11*
X33172402Y-107518199D02*
X30835598Y-107518198D01*
D12*
X136905996Y-131737099D02*
X134823196Y-131737097D01*
D14*
X32258001Y-108965999D02*
X32258002Y-108254799D01*
D12*
X70103998Y-130746505D02*
X72186798Y-130746507D01*
D14*
X31242001Y-108965999D02*
X31242003Y-108254799D01*
D11*
X72288397Y-130860803D02*
X72288398Y-130937004D01*
D14*
X32969203Y-130682999D02*
X32969203Y-131394199D01*
D11*
X139801600Y-126492000D02*
X139801600Y-127000000D01*
X131419600Y-127508000D02*
X130911600Y-127508000D01*
X139801600Y-129540000D02*
X140309600Y-129032000D01*
D14*
X32385000Y-108965999D02*
X32385002Y-108254800D01*
X31496002Y-108965998D02*
X31496000Y-108254800D01*
X31877001Y-108965999D02*
X31877001Y-108254799D01*
D11*
X33172400Y-108940594D02*
X33172401Y-108711998D01*
X30784803Y-130708402D02*
X30784803Y-130937000D01*
D14*
X32512000Y-108966000D02*
X32512000Y-108254799D01*
D11*
X134721599Y-126237999D02*
X137007600Y-126238000D01*
X33121606Y-132130800D02*
X33121603Y-130683002D01*
X134721598Y-131737097D02*
X134721597Y-131622801D01*
X134721600Y-124815602D02*
X134721600Y-125044200D01*
X140309600Y-129032000D02*
X140817600Y-129032000D01*
X137007599Y-125044198D02*
X137007600Y-125120399D01*
D14*
X32207203Y-130682999D02*
X32207203Y-131394199D01*
D11*
X131927600Y-127000000D02*
X131419600Y-127508000D01*
X134721599Y-124790199D02*
X134721599Y-126237999D01*
D14*
X32893002Y-108966000D02*
X32893001Y-108254799D01*
D11*
X139801600Y-127000000D02*
X140309600Y-127508000D01*
X134721599Y-131876797D02*
X137007597Y-131876800D01*
D14*
X32715203Y-130682999D02*
X32715203Y-131394199D01*
D11*
X137007596Y-131851397D02*
X137007596Y-131622799D01*
X33121603Y-130683002D02*
X30784802Y-130682999D01*
D14*
X31064203Y-130682999D02*
X31064203Y-131394199D01*
D11*
X30835601Y-108965995D02*
X33172403Y-108966000D01*
X33172403Y-108966000D02*
X33172402Y-107518199D01*
D14*
X32080203Y-130682999D02*
X32080203Y-131394199D01*
D11*
X134721599Y-131597399D02*
X137007596Y-131597400D01*
D14*
X32131001Y-108965999D02*
X32131001Y-108254799D01*
D11*
X131419600Y-129032000D02*
X130911600Y-129032000D01*
X72288395Y-130886205D02*
X70002398Y-130886204D01*
D14*
X31623002Y-108966000D02*
X31623001Y-108254799D01*
D11*
X70002398Y-130632207D02*
X70002398Y-130860805D01*
X137007598Y-124929902D02*
X137007599Y-125044198D01*
D14*
X32334203Y-130682999D02*
X32334203Y-131394199D01*
D11*
X131927600Y-130048000D02*
X131927600Y-129540000D01*
X72288396Y-130746507D02*
X72288397Y-130860803D01*
X137007597Y-130429000D02*
X134721596Y-130428999D01*
D14*
X31826203Y-130682999D02*
X31826203Y-131394199D01*
X31445203Y-130682999D02*
X31445203Y-131394199D01*
D10*
X141071648Y-125721666D02*
X141833553Y-125721666D01*
D15*
G36*
X34793969Y-130564199D02*
G01*
X34742678Y-130564199D01*
X34742678Y-129947852D01*
X34738745Y-129947852D01*
X34492548Y-130158487D01*
X34462116Y-130121044D01*
X34724042Y-129896732D01*
X34793969Y-129896732D01*
X34793969Y-130564199D01*
G37*
D10*
X129895677Y-125721666D02*
X130657582Y-125721666D01*
X130276629Y-126102619D02*
X130276629Y-125340714D01*
X141071648Y-130801666D02*
X141833553Y-130801666D01*
X68961048Y-124705666D02*
X69722953Y-124705666D01*
X69342000Y-125086619D02*
X69342000Y-124324714D01*
D15*
G36*
X34815169Y-109088441D02*
G01*
X34813967Y-109123103D01*
X34809351Y-109158878D01*
X34802859Y-109183843D01*
X34785684Y-109214292D01*
X34759485Y-109236339D01*
X34752594Y-109240263D01*
X34719559Y-109253590D01*
X34685052Y-109261942D01*
X34648570Y-109267317D01*
X34644199Y-109267789D01*
X34606190Y-109271005D01*
X34568217Y-109273066D01*
X34532165Y-109274272D01*
X34492879Y-109274961D01*
X34457671Y-109275141D01*
X34427067Y-109275141D01*
X34389318Y-109274912D01*
X34354418Y-109274227D01*
X34317303Y-109272850D01*
X34279633Y-109270515D01*
X34258662Y-109268644D01*
X34221569Y-109263164D01*
X34187401Y-109253858D01*
X34160183Y-109241118D01*
X34132802Y-109217185D01*
X34115414Y-109185138D01*
X34113850Y-109180252D01*
X34106661Y-109146633D01*
X34102986Y-109109014D01*
X34102053Y-109073396D01*
X34102053Y-109056299D01*
X34153344Y-109056299D01*
X34153344Y-109072541D01*
X34154378Y-109108036D01*
X34158198Y-109142579D01*
X34160696Y-109155120D01*
X34176538Y-109187353D01*
X34195574Y-109203504D01*
X34227551Y-109216770D01*
X34261787Y-109223867D01*
X34278323Y-109225901D01*
X34312497Y-109228546D01*
X34348096Y-109230170D01*
X34383278Y-109231030D01*
X34422222Y-109231367D01*
X34428093Y-109231372D01*
X34456645Y-109231372D01*
X34494582Y-109231198D01*
X34529406Y-109230675D01*
X34566099Y-109229624D01*
X34602844Y-109227842D01*
X34622999Y-109226414D01*
X34658208Y-109222314D01*
X34692701Y-109214748D01*
X34714981Y-109206240D01*
X34742792Y-109184601D01*
X34754475Y-109161787D01*
X34760758Y-109127764D01*
X34762779Y-109093071D01*
X34762852Y-109084167D01*
X34762852Y-109070319D01*
X34760874Y-109035111D01*
X34755843Y-109010137D01*
X34737795Y-108979875D01*
X34728316Y-108972182D01*
X34696259Y-108957703D01*
X34670870Y-108952349D01*
X34634303Y-108948609D01*
X34599602Y-108947140D01*
X34574785Y-108946878D01*
X34350302Y-108946878D01*
X34350302Y-108903110D01*
X34574785Y-108903110D01*
X34610056Y-108902196D01*
X34645067Y-108898821D01*
X34658048Y-108896613D01*
X34690950Y-108886623D01*
X34710706Y-108875413D01*
X34733563Y-108848357D01*
X34738233Y-108837115D01*
X34744991Y-108802868D01*
X34746097Y-108777960D01*
X34746097Y-108761718D01*
X34744256Y-108727009D01*
X34737720Y-108695210D01*
X34717815Y-108665954D01*
X34700277Y-108654861D01*
X34667093Y-108643474D01*
X34631999Y-108637122D01*
X34615134Y-108635200D01*
X34580385Y-108632473D01*
X34544115Y-108630798D01*
X34508225Y-108629911D01*
X34468456Y-108629563D01*
X34462458Y-108629558D01*
X34444848Y-108629558D01*
X34408928Y-108629754D01*
X34371683Y-108630459D01*
X34334637Y-108631866D01*
X34306020Y-108633661D01*
X34269460Y-108638422D01*
X34235192Y-108648230D01*
X34223271Y-108653836D01*
X34196217Y-108676646D01*
X34183777Y-108701194D01*
X34176782Y-108735898D01*
X34174270Y-108771397D01*
X34174032Y-108788218D01*
X34174032Y-108804631D01*
X34123766Y-108804631D01*
X34123766Y-108787363D01*
X34124781Y-108751924D01*
X34128287Y-108717623D01*
X34135800Y-108683515D01*
X34136589Y-108681020D01*
X34152129Y-108649964D01*
X34178365Y-108624461D01*
X34184803Y-108620326D01*
X34218127Y-108605416D01*
X34253244Y-108596635D01*
X34282769Y-108592457D01*
X34320807Y-108589234D01*
X34359387Y-108587255D01*
X34396827Y-108586206D01*
X34431653Y-108585816D01*
X34443822Y-108585790D01*
X34463484Y-108585790D01*
X34501984Y-108586036D01*
X34537599Y-108586775D01*
X34575504Y-108588261D01*
X34614015Y-108590780D01*
X34635480Y-108592799D01*
X34669973Y-108597648D01*
X34705778Y-108606036D01*
X34736865Y-108618274D01*
X34765453Y-108638890D01*
X34784767Y-108668169D01*
X34785591Y-108670249D01*
X34794795Y-108705824D01*
X34798101Y-108740506D01*
X34798414Y-108756589D01*
X34798414Y-108774540D01*
X34796467Y-108810166D01*
X34788797Y-108846508D01*
X34773794Y-108877122D01*
X34746962Y-108901009D01*
X34713592Y-108914917D01*
X34683180Y-108921404D01*
X34683180Y-108923455D01*
X34717413Y-108929150D01*
X34738404Y-108934226D01*
X34769732Y-108948650D01*
X34779778Y-108956794D01*
X34799977Y-108985500D01*
X34805766Y-109000050D01*
X34813103Y-109034266D01*
X34815160Y-109069908D01*
X34815169Y-109072712D01*
X34815169Y-109088441D01*
G37*
G36*
X35208058Y-109264199D02*
G01*
X35156767Y-109264199D01*
X35156767Y-108647852D01*
X35152835Y-108647852D01*
X34906638Y-108858487D01*
X34876205Y-108821044D01*
X35138131Y-108596732D01*
X35208058Y-108596732D01*
X35208058Y-109264199D01*
G37*
D10*
X72513450Y-124705666D02*
X73275355Y-124705666D01*
X129895677Y-130801666D02*
X130657582Y-130801666D01*
X130276629Y-131182619D02*
X130276629Y-130420714D01*
D16*
G36*
X22310044Y-114669068D02*
G01*
X22127902Y-114668658D01*
X21939875Y-114667184D01*
X21754018Y-114664246D01*
X21611632Y-114660495D01*
X21430871Y-114651417D01*
X21262222Y-114633716D01*
X21203868Y-114623785D01*
X21084617Y-114589439D01*
X21018625Y-114546358D01*
X21015801Y-114543112D01*
X20989755Y-114499258D01*
X20976440Y-114451238D01*
X20973059Y-114406385D01*
X20973059Y-114373632D01*
X21284224Y-114373632D01*
X21284224Y-114397812D01*
X21287831Y-114445406D01*
X21301154Y-114490384D01*
X21309870Y-114506182D01*
X21371045Y-114547896D01*
X21434678Y-114565753D01*
X21590406Y-114584780D01*
X21740714Y-114592351D01*
X21917748Y-114596236D01*
X22098703Y-114598103D01*
X22287543Y-114598720D01*
X22310044Y-114598726D01*
X22438272Y-114598726D01*
X22626375Y-114598400D01*
X22818409Y-114597229D01*
X23005198Y-114594893D01*
X23145233Y-114591912D01*
X23318821Y-114583730D01*
X23483062Y-114565331D01*
X23524786Y-114557180D01*
X23630246Y-114519811D01*
X23679052Y-114477111D01*
X23681224Y-114473649D01*
X23700692Y-114429861D01*
X23711377Y-114380676D01*
X23715117Y-114334899D01*
X23715418Y-114316259D01*
X23715418Y-113782759D01*
X24035986Y-113782759D01*
X24035986Y-114315819D01*
X24033983Y-114360917D01*
X24027151Y-114406160D01*
X24015470Y-114446831D01*
X23990412Y-114492657D01*
X23942541Y-114537610D01*
X23935114Y-114542672D01*
X23850063Y-114582842D01*
X23760725Y-114607739D01*
X23613494Y-114632491D01*
X23470931Y-114646646D01*
X23302118Y-114656804D01*
X23118991Y-114663072D01*
X23041796Y-114664672D01*
X22857430Y-114667175D01*
X22671767Y-114668548D01*
X22489967Y-114669051D01*
X22447675Y-114669068D01*
X22310044Y-114669068D01*
G37*
G36*
X27593017Y-114655000D02*
G01*
X27286981Y-114655000D01*
X27309207Y-114526406D01*
X27314336Y-114527065D01*
X27251157Y-114568350D01*
X27194657Y-114589494D01*
X27066162Y-114618929D01*
X26967267Y-114633457D01*
X26796468Y-114649722D01*
X26625739Y-114659484D01*
X26612504Y-114660055D01*
X26439317Y-114665547D01*
X26255639Y-114668355D01*
X26087626Y-114669068D01*
X26004706Y-114669068D01*
X25828500Y-114668299D01*
X25648405Y-114665594D01*
X25470824Y-114660304D01*
X25390924Y-114656758D01*
X25220742Y-114644991D01*
X25057141Y-114624855D01*
X24998547Y-114614113D01*
X24880851Y-114580844D01*
X24805912Y-114541078D01*
X24794238Y-114531461D01*
X24758815Y-114488442D01*
X24740707Y-114442654D01*
X24736109Y-114400669D01*
X24736109Y-114035990D01*
X25042145Y-114035990D01*
X25042145Y-114370774D01*
X25046286Y-114416168D01*
X25061860Y-114461779D01*
X25077194Y-114485519D01*
X25134884Y-114526943D01*
X25218244Y-114554323D01*
X25366287Y-114577360D01*
X25522571Y-114588834D01*
X25707119Y-114595239D01*
X25879992Y-114597943D01*
X26058561Y-114598726D01*
X26142337Y-114598726D01*
X26317915Y-114597824D01*
X26493309Y-114594750D01*
X26650118Y-114589494D01*
X26824540Y-114578488D01*
X26989420Y-114559213D01*
X27007445Y-114556301D01*
X27137471Y-114525866D01*
X27217738Y-114490355D01*
X27267439Y-114445282D01*
X27285290Y-114401294D01*
X27286981Y-114380886D01*
X27286981Y-114035990D01*
X27593017Y-114035990D01*
X27593017Y-114655000D01*
G37*
G36*
X33184591Y-114655000D02*
G01*
X32878554Y-114655000D01*
X32878554Y-114310104D01*
X32874615Y-114264866D01*
X32859801Y-114219841D01*
X32845215Y-114196678D01*
X32789046Y-114154676D01*
X32719552Y-114130952D01*
X32572759Y-114108403D01*
X32454549Y-114100397D01*
X32282931Y-114094837D01*
X32101970Y-114092550D01*
X31999769Y-114092264D01*
X31915993Y-114092264D01*
X31738118Y-114093840D01*
X31563597Y-114099106D01*
X31477455Y-114103475D01*
X31314379Y-114117124D01*
X31165435Y-114140184D01*
X31046033Y-114174644D01*
X30978223Y-114209427D01*
X30934395Y-114252055D01*
X30916363Y-114295826D01*
X30914109Y-114320216D01*
X30914109Y-114655000D01*
X30608073Y-114655000D01*
X30608073Y-114308785D01*
X30603527Y-114262269D01*
X30586435Y-114216338D01*
X30569605Y-114192941D01*
X30509167Y-114151148D01*
X30437103Y-114127875D01*
X30280918Y-114105555D01*
X30172954Y-114099078D01*
X29992296Y-114094187D01*
X29816124Y-114092430D01*
X29734416Y-114092264D01*
X29660899Y-114092264D01*
X29482623Y-114093655D01*
X29308211Y-114098301D01*
X29222361Y-114102156D01*
X29057970Y-114114762D01*
X28904357Y-114137107D01*
X28780267Y-114170407D01*
X28710306Y-114203712D01*
X28663060Y-114247491D01*
X28645511Y-114293247D01*
X28644483Y-114308785D01*
X28644483Y-114655000D01*
X28338446Y-114655000D01*
X28338446Y-114035990D01*
X28644483Y-114035990D01*
X28622256Y-114163265D01*
X28617127Y-114162606D01*
X28684494Y-114121283D01*
X28731677Y-114104354D01*
X28864107Y-114073235D01*
X28950519Y-114059731D01*
X29108261Y-114042594D01*
X29271088Y-114031594D01*
X29446492Y-114024982D01*
X29617676Y-114022262D01*
X29710480Y-114021922D01*
X29783998Y-114021922D01*
X29965403Y-114022888D01*
X30139686Y-114026182D01*
X30287504Y-114031814D01*
X30455114Y-114043151D01*
X30604654Y-114061489D01*
X30737101Y-114092094D01*
X30785027Y-114111828D01*
X30839457Y-114153525D01*
X30852560Y-114182170D01*
X30847431Y-114181950D01*
X30896505Y-114139777D01*
X30938045Y-114121500D01*
X31056589Y-114087806D01*
X31149193Y-114070062D01*
X31310554Y-114048969D01*
X31482584Y-114034891D01*
X31658386Y-114026494D01*
X31828959Y-114022733D01*
X31965575Y-114021922D01*
X32054479Y-114021922D01*
X32229855Y-114022791D01*
X32404098Y-114025797D01*
X32584538Y-114032237D01*
X32598164Y-114032913D01*
X32771628Y-114046148D01*
X32920805Y-114068360D01*
X32946088Y-114073799D01*
X33058073Y-114108640D01*
X33127346Y-114150288D01*
X33130735Y-114153374D01*
X33165605Y-114197837D01*
X33181225Y-114241864D01*
X33184591Y-114277571D01*
X33184591Y-114655000D01*
G37*
G36*
X35661306Y-114022511D02*
G01*
X35843322Y-114024627D01*
X36025738Y-114028846D01*
X36168017Y-114034232D01*
X36337562Y-114045344D01*
X36503813Y-114065309D01*
X36587748Y-114081273D01*
X36703571Y-114116772D01*
X36777422Y-114159229D01*
X36797187Y-114177993D01*
X36828822Y-114224689D01*
X36844938Y-114268960D01*
X36851884Y-114312897D01*
X36852752Y-114336482D01*
X36852752Y-114353189D01*
X36849279Y-114398760D01*
X36837070Y-114444936D01*
X36813194Y-114489922D01*
X36797187Y-114509919D01*
X36741688Y-114552361D01*
X36650364Y-114590317D01*
X36587748Y-114607299D01*
X36444657Y-114632638D01*
X36279264Y-114649331D01*
X36168017Y-114656099D01*
X35987163Y-114662938D01*
X35799270Y-114666927D01*
X35612271Y-114668751D01*
X35485847Y-114669068D01*
X35392668Y-114669068D01*
X35218292Y-114668467D01*
X35045763Y-114666417D01*
X34893436Y-114662913D01*
X34723875Y-114655929D01*
X34558141Y-114644031D01*
X34539528Y-114642250D01*
X34383911Y-114621767D01*
X34299315Y-114604002D01*
X34200597Y-114567631D01*
X34176650Y-114551342D01*
X34194169Y-114866025D01*
X33888132Y-114866025D01*
X33888132Y-114351870D01*
X34189039Y-114351870D01*
X34193214Y-114399388D01*
X34207447Y-114444320D01*
X34231782Y-114481563D01*
X34294613Y-114524262D01*
X34395913Y-114555642D01*
X34554564Y-114578019D01*
X34729781Y-114589367D01*
X34743837Y-114589933D01*
X34917845Y-114594939D01*
X35106713Y-114597687D01*
X35278845Y-114598649D01*
X35348216Y-114598726D01*
X35451653Y-114598726D01*
X35625615Y-114598176D01*
X35798842Y-114596244D01*
X35978240Y-114591994D01*
X36034661Y-114589933D01*
X36204525Y-114578958D01*
X36356676Y-114556806D01*
X36363778Y-114555202D01*
X36465418Y-114518749D01*
X36510812Y-114480683D01*
X36534058Y-114435988D01*
X36544472Y-114390008D01*
X36546716Y-114351870D01*
X36546716Y-114335163D01*
X36543209Y-114288310D01*
X36531253Y-114244061D01*
X36510812Y-114207449D01*
X36456529Y-114165299D01*
X36363778Y-114134689D01*
X36215118Y-114112826D01*
X36048129Y-114101622D01*
X36034661Y-114101057D01*
X35851295Y-114095699D01*
X35666167Y-114093123D01*
X35474427Y-114092273D01*
X35451653Y-114092264D01*
X35348216Y-114092264D01*
X35168911Y-114092745D01*
X34989162Y-114094435D01*
X34816723Y-114097741D01*
X34741273Y-114099958D01*
X34572905Y-114108896D01*
X34414491Y-114127766D01*
X34390784Y-114132271D01*
X34280338Y-114167449D01*
X34229217Y-114204811D01*
X34203204Y-114249336D01*
X34191551Y-114296022D01*
X34189039Y-114335163D01*
X34189039Y-114351870D01*
X33888132Y-114351870D01*
X33888132Y-114035990D01*
X34189039Y-114035990D01*
X34173122Y-114131556D01*
X34239923Y-114097855D01*
X34289912Y-114082592D01*
X34429775Y-114056653D01*
X34522431Y-114046542D01*
X34696139Y-114034809D01*
X34868178Y-114028221D01*
X34881468Y-114027857D01*
X35055376Y-114024240D01*
X35237603Y-114022392D01*
X35402926Y-114021922D01*
X35486702Y-114021922D01*
X35661306Y-114022511D01*
G37*
G36*
X39094798Y-114022458D02*
G01*
X39277389Y-114024385D01*
X39460579Y-114028228D01*
X39603659Y-114033133D01*
X39774481Y-114043100D01*
X39942500Y-114060706D01*
X40027665Y-114074678D01*
X40152724Y-114107548D01*
X40234582Y-114149692D01*
X40242232Y-114156011D01*
X40280422Y-114201764D01*
X40297530Y-114247222D01*
X40301217Y-114284166D01*
X40301217Y-114359563D01*
X37686231Y-114359563D01*
X37686231Y-114366378D01*
X37691281Y-114413727D01*
X37708312Y-114457560D01*
X37728973Y-114485080D01*
X37796583Y-114527032D01*
X37893104Y-114554982D01*
X38052479Y-114577312D01*
X38229379Y-114588901D01*
X38243593Y-114589494D01*
X38419667Y-114594750D01*
X38590475Y-114597428D01*
X38762513Y-114598582D01*
X38855665Y-114598726D01*
X38948844Y-114598726D01*
X39133867Y-114598152D01*
X39314388Y-114596169D01*
X39496190Y-114591918D01*
X39509626Y-114591472D01*
X39686828Y-114582546D01*
X39833614Y-114567292D01*
X39960719Y-114535350D01*
X39984922Y-114521789D01*
X40019599Y-114476800D01*
X40024245Y-114447491D01*
X40024245Y-114429905D01*
X40320878Y-114429905D01*
X40320878Y-114450129D01*
X40311502Y-114495075D01*
X40276860Y-114539854D01*
X40254200Y-114556521D01*
X40163800Y-114594494D01*
X40025955Y-114624005D01*
X39866258Y-114643179D01*
X39700204Y-114654926D01*
X39607079Y-114659176D01*
X39433738Y-114664392D01*
X39256318Y-114667435D01*
X39081581Y-114668826D01*
X38964231Y-114669068D01*
X38855665Y-114669068D01*
X38666341Y-114668447D01*
X38492561Y-114666585D01*
X38312989Y-114662938D01*
X38135239Y-114656897D01*
X38117075Y-114656099D01*
X37949127Y-114645760D01*
X37779546Y-114627460D01*
X37664859Y-114607299D01*
X37548574Y-114573978D01*
X37466431Y-114532241D01*
X37440034Y-114510139D01*
X37405965Y-114463668D01*
X37388609Y-114419464D01*
X37381129Y-114375500D01*
X37380194Y-114351870D01*
X37380194Y-114336482D01*
X37383988Y-114289840D01*
X37384163Y-114289221D01*
X37692215Y-114289221D01*
X40000310Y-114289221D01*
X40000310Y-114275373D01*
X39993110Y-114229980D01*
X39965010Y-114185721D01*
X39962696Y-114183489D01*
X39881299Y-114143570D01*
X39813097Y-114127875D01*
X39655348Y-114109088D01*
X39487400Y-114099958D01*
X39305557Y-114095269D01*
X39122065Y-114093015D01*
X38932083Y-114092271D01*
X38909521Y-114092264D01*
X38830875Y-114092264D01*
X38652051Y-114092786D01*
X38473992Y-114094621D01*
X38289608Y-114098659D01*
X38231625Y-114100617D01*
X38057763Y-114110451D01*
X37902079Y-114129179D01*
X37894814Y-114130512D01*
X37780411Y-114164292D01*
X37738377Y-114191402D01*
X37705892Y-114235641D01*
X37692896Y-114282013D01*
X37692215Y-114289221D01*
X37384163Y-114289221D01*
X37397324Y-114242786D01*
X37423404Y-114197234D01*
X37440889Y-114177114D01*
X37500835Y-114134692D01*
X37598335Y-114097177D01*
X37664859Y-114080614D01*
X37816980Y-114055919D01*
X37990708Y-114040015D01*
X38106817Y-114033792D01*
X38295485Y-114027533D01*
X38468058Y-114024194D01*
X38659865Y-114022339D01*
X38816342Y-114021922D01*
X38919779Y-114021922D01*
X39094798Y-114022458D01*
G37*
G36*
X41258649Y-114655000D02*
G01*
X40952612Y-114655000D01*
X40952612Y-114035990D01*
X41253520Y-114035990D01*
X41236423Y-114167222D01*
X41226164Y-114165903D01*
X41294419Y-114124945D01*
X41352682Y-114103255D01*
X41479374Y-114072240D01*
X41572379Y-114057093D01*
X41738213Y-114039520D01*
X41890383Y-114030275D01*
X42065624Y-114024565D01*
X42236407Y-114022216D01*
X42328921Y-114021922D01*
X42388760Y-114021922D01*
X42573167Y-114022704D01*
X42752686Y-114025409D01*
X42932846Y-114031205D01*
X42946122Y-114031814D01*
X43112878Y-114042928D01*
X43266973Y-114063550D01*
X43274385Y-114065006D01*
X43390791Y-114100143D01*
X43430822Y-114126995D01*
X43460838Y-114172707D01*
X43469253Y-114217619D01*
X43469291Y-114221078D01*
X43469291Y-114236465D01*
X43460742Y-114261085D01*
X43173513Y-114261085D01*
X43173513Y-114230969D01*
X43164587Y-114185977D01*
X43145303Y-114158869D01*
X43054234Y-114120978D01*
X43034172Y-114117103D01*
X42867375Y-114100929D01*
X42776862Y-114097320D01*
X42601949Y-114093864D01*
X42415297Y-114092442D01*
X42309259Y-114092264D01*
X42255404Y-114092264D01*
X42083980Y-114093655D01*
X41902825Y-114098794D01*
X41831398Y-114102156D01*
X41660428Y-114115675D01*
X41518523Y-114136448D01*
X41394433Y-114169183D01*
X41324472Y-114201953D01*
X41277226Y-114244969D01*
X41259677Y-114289829D01*
X41258649Y-114305048D01*
X41258649Y-114655000D01*
G37*
G36*
X44271140Y-114655000D02*
G01*
X43965104Y-114655000D01*
X43965104Y-113782759D01*
X44271140Y-113782759D01*
X44271140Y-114655000D01*
G37*
G36*
X47835864Y-114655000D02*
G01*
X47529828Y-114655000D01*
X47552054Y-114526406D01*
X47557183Y-114527065D01*
X47494004Y-114568350D01*
X47437504Y-114589494D01*
X47309010Y-114618929D01*
X47210114Y-114633457D01*
X47039315Y-114649722D01*
X46868586Y-114659484D01*
X46855351Y-114660055D01*
X46682164Y-114665547D01*
X46498487Y-114668355D01*
X46330474Y-114669068D01*
X46247553Y-114669068D01*
X46071347Y-114668299D01*
X45891253Y-114665594D01*
X45713671Y-114660304D01*
X45633771Y-114656758D01*
X45463589Y-114644991D01*
X45299989Y-114624855D01*
X45241395Y-114614113D01*
X45123698Y-114580844D01*
X45048759Y-114541078D01*
X45037086Y-114531461D01*
X45001663Y-114488442D01*
X44983554Y-114442654D01*
X44978956Y-114400669D01*
X44978956Y-114035990D01*
X45284992Y-114035990D01*
X45284992Y-114370774D01*
X45289134Y-114416168D01*
X45304707Y-114461779D01*
X45320041Y-114485519D01*
X45377731Y-114526943D01*
X45461091Y-114554323D01*
X45609134Y-114577360D01*
X45765418Y-114588834D01*
X45949966Y-114595239D01*
X46122839Y-114597943D01*
X46301409Y-114598726D01*
X46385184Y-114598726D01*
X46560762Y-114597824D01*
X46736157Y-114594750D01*
X46892965Y-114589494D01*
X47067388Y-114578488D01*
X47232267Y-114559213D01*
X47250292Y-114556301D01*
X47380318Y-114525866D01*
X47460585Y-114490355D01*
X47510286Y-114445282D01*
X47528138Y-114401294D01*
X47529828Y-114380886D01*
X47529828Y-114035990D01*
X47835864Y-114035990D01*
X47835864Y-114655000D01*
G37*
G36*
X51382637Y-114655000D02*
G01*
X50971454Y-114655000D01*
X49790906Y-114375170D01*
X48589842Y-114655000D01*
X48188062Y-114655000D01*
X49572065Y-114334064D01*
X48291499Y-114035990D01*
X48692424Y-114035990D01*
X49790051Y-114295596D01*
X50882550Y-114035990D01*
X51284329Y-114035990D01*
X50003764Y-114334064D01*
X51382637Y-114655000D01*
G37*
D11*
%TO.C,D45*%
X103613000Y-170060600D02*
X100773000Y-170060600D01*
X103613000Y-170060600D02*
X103613000Y-169410600D01*
X103613000Y-167760600D02*
X100773000Y-167760600D01*
X103613000Y-169875800D02*
X100784500Y-169875800D01*
X100784500Y-172098800D01*
X103613000Y-172098800D01*
X103613000Y-169875800D01*
G36*
X103613000Y-169875800D02*
G01*
X100784500Y-169875800D01*
X100784500Y-172098800D01*
X103613000Y-172098800D01*
X103613000Y-169875800D01*
G37*
X100923000Y-168021600D02*
X100784500Y-168021600D01*
X100784500Y-169799600D01*
X100923000Y-169799600D01*
X100923000Y-168021600D01*
G36*
X100923000Y-168021600D02*
G01*
X100784500Y-168021600D01*
X100784500Y-169799600D01*
X100923000Y-169799600D01*
X100923000Y-168021600D01*
G37*
X103613000Y-168021600D02*
X103463000Y-168021600D01*
X103463000Y-169799600D01*
X103613000Y-169799600D01*
X103613000Y-168021600D01*
G36*
X103613000Y-168021600D02*
G01*
X103463000Y-168021600D01*
X103463000Y-169799600D01*
X103613000Y-169799600D01*
X103613000Y-168021600D01*
G37*
X103607250Y-165710200D02*
X100778750Y-165710200D01*
X100778750Y-167945400D01*
X103607250Y-167945400D01*
X103607250Y-165710200D01*
G36*
X103607250Y-165710200D02*
G01*
X100778750Y-165710200D01*
X100778750Y-167945400D01*
X103607250Y-167945400D01*
X103607250Y-165710200D01*
G37*
%TO.C,D71*%
X135135000Y-182730000D02*
X135135000Y-185570000D01*
X135135000Y-182730000D02*
X134485000Y-182730000D01*
X132835000Y-182730000D02*
X132835000Y-185570000D01*
X134950200Y-182730000D02*
X137173200Y-182730000D01*
X137173200Y-185558500D01*
X134950200Y-185558500D01*
X134950200Y-182730000D01*
G36*
X134950200Y-182730000D02*
G01*
X137173200Y-182730000D01*
X137173200Y-185558500D01*
X134950200Y-185558500D01*
X134950200Y-182730000D01*
G37*
X133096000Y-185420000D02*
X134874000Y-185420000D01*
X134874000Y-185558500D01*
X133096000Y-185558500D01*
X133096000Y-185420000D01*
G36*
X133096000Y-185420000D02*
G01*
X134874000Y-185420000D01*
X134874000Y-185558500D01*
X133096000Y-185558500D01*
X133096000Y-185420000D01*
G37*
X133096000Y-182730000D02*
X134874000Y-182730000D01*
X134874000Y-182880000D01*
X133096000Y-182880000D01*
X133096000Y-182730000D01*
G36*
X133096000Y-182730000D02*
G01*
X134874000Y-182730000D01*
X134874000Y-182880000D01*
X133096000Y-182880000D01*
X133096000Y-182730000D01*
G37*
X130784600Y-182735750D02*
X133019800Y-182735750D01*
X133019800Y-185564250D01*
X130784600Y-185564250D01*
X130784600Y-182735750D01*
G36*
X130784600Y-182735750D02*
G01*
X133019800Y-182735750D01*
X133019800Y-185564250D01*
X130784600Y-185564250D01*
X130784600Y-182735750D01*
G37*
%TO.C,D89*%
X135135000Y-134470000D02*
X135135000Y-137310000D01*
X135135000Y-134470000D02*
X134485000Y-134470000D01*
X132835000Y-134470000D02*
X132835000Y-137310000D01*
X134950200Y-134470000D02*
X137173200Y-134470000D01*
X137173200Y-137298500D01*
X134950200Y-137298500D01*
X134950200Y-134470000D01*
G36*
X134950200Y-134470000D02*
G01*
X137173200Y-134470000D01*
X137173200Y-137298500D01*
X134950200Y-137298500D01*
X134950200Y-134470000D01*
G37*
X133096000Y-137160000D02*
X134874000Y-137160000D01*
X134874000Y-137298500D01*
X133096000Y-137298500D01*
X133096000Y-137160000D01*
G36*
X133096000Y-137160000D02*
G01*
X134874000Y-137160000D01*
X134874000Y-137298500D01*
X133096000Y-137298500D01*
X133096000Y-137160000D01*
G37*
X133096000Y-134470000D02*
X134874000Y-134470000D01*
X134874000Y-134620000D01*
X133096000Y-134620000D01*
X133096000Y-134470000D01*
G36*
X133096000Y-134470000D02*
G01*
X134874000Y-134470000D01*
X134874000Y-134620000D01*
X133096000Y-134620000D01*
X133096000Y-134470000D01*
G37*
X130784600Y-134475750D02*
X133019800Y-134475750D01*
X133019800Y-137304250D01*
X130784600Y-137304250D01*
X130784600Y-134475750D01*
G36*
X130784600Y-134475750D02*
G01*
X133019800Y-134475750D01*
X133019800Y-137304250D01*
X130784600Y-137304250D01*
X130784600Y-134475750D01*
G37*
%TO.C,D32*%
X70576400Y-170058800D02*
X67736400Y-170058800D01*
X70576400Y-170058800D02*
X70576400Y-169408800D01*
X70576400Y-167758800D02*
X67736400Y-167758800D01*
X70576400Y-169874000D02*
X67747900Y-169874000D01*
X67747900Y-172097000D01*
X70576400Y-172097000D01*
X70576400Y-169874000D01*
G36*
X70576400Y-169874000D02*
G01*
X67747900Y-169874000D01*
X67747900Y-172097000D01*
X70576400Y-172097000D01*
X70576400Y-169874000D01*
G37*
X67886400Y-168019800D02*
X67747900Y-168019800D01*
X67747900Y-169797800D01*
X67886400Y-169797800D01*
X67886400Y-168019800D01*
G36*
X67886400Y-168019800D02*
G01*
X67747900Y-168019800D01*
X67747900Y-169797800D01*
X67886400Y-169797800D01*
X67886400Y-168019800D01*
G37*
X70576400Y-168019800D02*
X70426400Y-168019800D01*
X70426400Y-169797800D01*
X70576400Y-169797800D01*
X70576400Y-168019800D01*
G36*
X70576400Y-168019800D02*
G01*
X70426400Y-168019800D01*
X70426400Y-169797800D01*
X70576400Y-169797800D01*
X70576400Y-168019800D01*
G37*
X70570650Y-165708400D02*
X67742150Y-165708400D01*
X67742150Y-167943600D01*
X70570650Y-167943600D01*
X70570650Y-165708400D01*
G36*
X70570650Y-165708400D02*
G01*
X67742150Y-165708400D01*
X67742150Y-167943600D01*
X70570650Y-167943600D01*
X70570650Y-165708400D01*
G37*
%TO.C,D77*%
X89415000Y-180190000D02*
X89415000Y-183030000D01*
X89415000Y-180190000D02*
X88765000Y-180190000D01*
X87115000Y-180190000D02*
X87115000Y-183030000D01*
X89230200Y-180190000D02*
X91453200Y-180190000D01*
X91453200Y-183018500D01*
X89230200Y-183018500D01*
X89230200Y-180190000D01*
G36*
X89230200Y-180190000D02*
G01*
X91453200Y-180190000D01*
X91453200Y-183018500D01*
X89230200Y-183018500D01*
X89230200Y-180190000D01*
G37*
X87376000Y-182880000D02*
X89154000Y-182880000D01*
X89154000Y-183018500D01*
X87376000Y-183018500D01*
X87376000Y-182880000D01*
G36*
X87376000Y-182880000D02*
G01*
X89154000Y-182880000D01*
X89154000Y-183018500D01*
X87376000Y-183018500D01*
X87376000Y-182880000D01*
G37*
X87376000Y-180190000D02*
X89154000Y-180190000D01*
X89154000Y-180340000D01*
X87376000Y-180340000D01*
X87376000Y-180190000D01*
G36*
X87376000Y-180190000D02*
G01*
X89154000Y-180190000D01*
X89154000Y-180340000D01*
X87376000Y-180340000D01*
X87376000Y-180190000D01*
G37*
X85064600Y-180195750D02*
X87299800Y-180195750D01*
X87299800Y-183024250D01*
X85064600Y-183024250D01*
X85064600Y-180195750D01*
G36*
X85064600Y-180195750D02*
G01*
X87299800Y-180195750D01*
X87299800Y-183024250D01*
X85064600Y-183024250D01*
X85064600Y-180195750D01*
G37*
%TO.C,D40*%
X90896400Y-170058800D02*
X88056400Y-170058800D01*
X90896400Y-170058800D02*
X90896400Y-169408800D01*
X90896400Y-167758800D02*
X88056400Y-167758800D01*
X90896400Y-169874000D02*
X88067900Y-169874000D01*
X88067900Y-172097000D01*
X90896400Y-172097000D01*
X90896400Y-169874000D01*
G36*
X90896400Y-169874000D02*
G01*
X88067900Y-169874000D01*
X88067900Y-172097000D01*
X90896400Y-172097000D01*
X90896400Y-169874000D01*
G37*
X88206400Y-168019800D02*
X88067900Y-168019800D01*
X88067900Y-169797800D01*
X88206400Y-169797800D01*
X88206400Y-168019800D01*
G36*
X88206400Y-168019800D02*
G01*
X88067900Y-168019800D01*
X88067900Y-169797800D01*
X88206400Y-169797800D01*
X88206400Y-168019800D01*
G37*
X90896400Y-168019800D02*
X90746400Y-168019800D01*
X90746400Y-169797800D01*
X90896400Y-169797800D01*
X90896400Y-168019800D01*
G36*
X90896400Y-168019800D02*
G01*
X90746400Y-168019800D01*
X90746400Y-169797800D01*
X90896400Y-169797800D01*
X90896400Y-168019800D01*
G37*
X90890650Y-165708400D02*
X88062150Y-165708400D01*
X88062150Y-167943600D01*
X90890650Y-167943600D01*
X90890650Y-165708400D01*
G36*
X90890650Y-165708400D02*
G01*
X88062150Y-165708400D01*
X88062150Y-167943600D01*
X90890650Y-167943600D01*
X90890650Y-165708400D01*
G37*
%TO.C,D83*%
X89415000Y-137010000D02*
X89415000Y-139850000D01*
X89415000Y-137010000D02*
X88765000Y-137010000D01*
X87115000Y-137010000D02*
X87115000Y-139850000D01*
X89230200Y-137010000D02*
X91453200Y-137010000D01*
X91453200Y-139838500D01*
X89230200Y-139838500D01*
X89230200Y-137010000D01*
G36*
X89230200Y-137010000D02*
G01*
X91453200Y-137010000D01*
X91453200Y-139838500D01*
X89230200Y-139838500D01*
X89230200Y-137010000D01*
G37*
X87376000Y-139700000D02*
X89154000Y-139700000D01*
X89154000Y-139838500D01*
X87376000Y-139838500D01*
X87376000Y-139700000D01*
G36*
X87376000Y-139700000D02*
G01*
X89154000Y-139700000D01*
X89154000Y-139838500D01*
X87376000Y-139838500D01*
X87376000Y-139700000D01*
G37*
X87376000Y-137010000D02*
X89154000Y-137010000D01*
X89154000Y-137160000D01*
X87376000Y-137160000D01*
X87376000Y-137010000D01*
G36*
X87376000Y-137010000D02*
G01*
X89154000Y-137010000D01*
X89154000Y-137160000D01*
X87376000Y-137160000D01*
X87376000Y-137010000D01*
G37*
X85064600Y-137015750D02*
X87299800Y-137015750D01*
X87299800Y-139844250D01*
X85064600Y-139844250D01*
X85064600Y-137015750D01*
G36*
X85064600Y-137015750D02*
G01*
X87299800Y-137015750D01*
X87299800Y-139844250D01*
X85064600Y-139844250D01*
X85064600Y-137015750D01*
G37*
%TO.C,JP1*%
X130606800Y-129540000D02*
X129717800Y-129540000D01*
X129463800Y-129286000D02*
X129463800Y-127254000D01*
X130860800Y-127254000D02*
X130860800Y-129286000D01*
X129717800Y-127000000D02*
X130606800Y-127000000D01*
X129717800Y-129540000D02*
G75*
G02*
X129463800Y-129286000I0J254000D01*
G01*
X130860800Y-129286000D02*
G75*
G02*
X130606800Y-129540000I-254000J0D01*
G01*
X129463800Y-127254000D02*
G75*
G02*
X129717800Y-127000000I254000J0D01*
G01*
X130606800Y-127000000D02*
G75*
G02*
X130860800Y-127254000I0J-254000D01*
G01*
%TO.C,D44*%
X101073000Y-170060600D02*
X98233000Y-170060600D01*
X101073000Y-170060600D02*
X101073000Y-169410600D01*
X101073000Y-167760600D02*
X98233000Y-167760600D01*
X101073000Y-169875800D02*
X98244500Y-169875800D01*
X98244500Y-172098800D01*
X101073000Y-172098800D01*
X101073000Y-169875800D01*
G36*
X101073000Y-169875800D02*
G01*
X98244500Y-169875800D01*
X98244500Y-172098800D01*
X101073000Y-172098800D01*
X101073000Y-169875800D01*
G37*
X98383000Y-168021600D02*
X98244500Y-168021600D01*
X98244500Y-169799600D01*
X98383000Y-169799600D01*
X98383000Y-168021600D01*
G36*
X98383000Y-168021600D02*
G01*
X98244500Y-168021600D01*
X98244500Y-169799600D01*
X98383000Y-169799600D01*
X98383000Y-168021600D01*
G37*
X101073000Y-168021600D02*
X100923000Y-168021600D01*
X100923000Y-169799600D01*
X101073000Y-169799600D01*
X101073000Y-168021600D01*
G36*
X101073000Y-168021600D02*
G01*
X100923000Y-168021600D01*
X100923000Y-169799600D01*
X101073000Y-169799600D01*
X101073000Y-168021600D01*
G37*
X101067250Y-165710200D02*
X98238750Y-165710200D01*
X98238750Y-167945400D01*
X101067250Y-167945400D01*
X101067250Y-165710200D01*
G36*
X101067250Y-165710200D02*
G01*
X98238750Y-165710200D01*
X98238750Y-167945400D01*
X101067250Y-167945400D01*
X101067250Y-165710200D01*
G37*
%TO.C,D84*%
X89415000Y-134470000D02*
X89415000Y-137310000D01*
X89415000Y-134470000D02*
X88765000Y-134470000D01*
X87115000Y-134470000D02*
X87115000Y-137310000D01*
X89230200Y-134470000D02*
X91453200Y-134470000D01*
X91453200Y-137298500D01*
X89230200Y-137298500D01*
X89230200Y-134470000D01*
G36*
X89230200Y-134470000D02*
G01*
X91453200Y-134470000D01*
X91453200Y-137298500D01*
X89230200Y-137298500D01*
X89230200Y-134470000D01*
G37*
X87376000Y-137160000D02*
X89154000Y-137160000D01*
X89154000Y-137298500D01*
X87376000Y-137298500D01*
X87376000Y-137160000D01*
G36*
X87376000Y-137160000D02*
G01*
X89154000Y-137160000D01*
X89154000Y-137298500D01*
X87376000Y-137298500D01*
X87376000Y-137160000D01*
G37*
X87376000Y-134470000D02*
X89154000Y-134470000D01*
X89154000Y-134620000D01*
X87376000Y-134620000D01*
X87376000Y-134470000D01*
G36*
X87376000Y-134470000D02*
G01*
X89154000Y-134470000D01*
X89154000Y-134620000D01*
X87376000Y-134620000D01*
X87376000Y-134470000D01*
G37*
X85064600Y-134475750D02*
X87299800Y-134475750D01*
X87299800Y-137304250D01*
X85064600Y-137304250D01*
X85064600Y-134475750D01*
G36*
X85064600Y-134475750D02*
G01*
X87299800Y-134475750D01*
X87299800Y-137304250D01*
X85064600Y-137304250D01*
X85064600Y-134475750D01*
G37*
%TO.C,D56*%
X131577400Y-170059400D02*
X128737400Y-170059400D01*
X131577400Y-170059400D02*
X131577400Y-169409400D01*
X131577400Y-167759400D02*
X128737400Y-167759400D01*
X131577400Y-169874600D02*
X128748900Y-169874600D01*
X128748900Y-172097600D01*
X131577400Y-172097600D01*
X131577400Y-169874600D01*
G36*
X131577400Y-169874600D02*
G01*
X128748900Y-169874600D01*
X128748900Y-172097600D01*
X131577400Y-172097600D01*
X131577400Y-169874600D01*
G37*
X128887400Y-168020400D02*
X128748900Y-168020400D01*
X128748900Y-169798400D01*
X128887400Y-169798400D01*
X128887400Y-168020400D01*
G36*
X128887400Y-168020400D02*
G01*
X128748900Y-168020400D01*
X128748900Y-169798400D01*
X128887400Y-169798400D01*
X128887400Y-168020400D01*
G37*
X131577400Y-168020400D02*
X131427400Y-168020400D01*
X131427400Y-169798400D01*
X131577400Y-169798400D01*
X131577400Y-168020400D01*
G36*
X131577400Y-168020400D02*
G01*
X131427400Y-168020400D01*
X131427400Y-169798400D01*
X131577400Y-169798400D01*
X131577400Y-168020400D01*
G37*
X131571650Y-165709000D02*
X128743150Y-165709000D01*
X128743150Y-167944200D01*
X131571650Y-167944200D01*
X131571650Y-165709000D01*
G36*
X131571650Y-165709000D02*
G01*
X128743150Y-165709000D01*
X128743150Y-167944200D01*
X131571650Y-167944200D01*
X131571650Y-165709000D01*
G37*
%TO.C,D13*%
X98582800Y-152280600D02*
X95742800Y-152280600D01*
X98582800Y-152280600D02*
X98582800Y-151630600D01*
X98582800Y-149980600D02*
X95742800Y-149980600D01*
X98582800Y-152095800D02*
X95754300Y-152095800D01*
X95754300Y-154318800D01*
X98582800Y-154318800D01*
X98582800Y-152095800D01*
G36*
X98582800Y-152095800D02*
G01*
X95754300Y-152095800D01*
X95754300Y-154318800D01*
X98582800Y-154318800D01*
X98582800Y-152095800D01*
G37*
X95892800Y-150241600D02*
X95754300Y-150241600D01*
X95754300Y-152019600D01*
X95892800Y-152019600D01*
X95892800Y-150241600D01*
G36*
X95892800Y-150241600D02*
G01*
X95754300Y-150241600D01*
X95754300Y-152019600D01*
X95892800Y-152019600D01*
X95892800Y-150241600D01*
G37*
X98582800Y-150241600D02*
X98432800Y-150241600D01*
X98432800Y-152019600D01*
X98582800Y-152019600D01*
X98582800Y-150241600D01*
G36*
X98582800Y-150241600D02*
G01*
X98432800Y-150241600D01*
X98432800Y-152019600D01*
X98582800Y-152019600D01*
X98582800Y-150241600D01*
G37*
X98577050Y-147930200D02*
X95748550Y-147930200D01*
X95748550Y-150165400D01*
X98577050Y-150165400D01*
X98577050Y-147930200D01*
G36*
X98577050Y-147930200D02*
G01*
X95748550Y-147930200D01*
X95748550Y-150165400D01*
X98577050Y-150165400D01*
X98577050Y-147930200D01*
G37*
%TO.C,D27*%
X134150600Y-152279400D02*
X131310600Y-152279400D01*
X134150600Y-152279400D02*
X134150600Y-151629400D01*
X134150600Y-149979400D02*
X131310600Y-149979400D01*
X134150600Y-152094600D02*
X131322100Y-152094600D01*
X131322100Y-154317600D01*
X134150600Y-154317600D01*
X134150600Y-152094600D01*
G36*
X134150600Y-152094600D02*
G01*
X131322100Y-152094600D01*
X131322100Y-154317600D01*
X134150600Y-154317600D01*
X134150600Y-152094600D01*
G37*
X131460600Y-150240400D02*
X131322100Y-150240400D01*
X131322100Y-152018400D01*
X131460600Y-152018400D01*
X131460600Y-150240400D01*
G36*
X131460600Y-150240400D02*
G01*
X131322100Y-150240400D01*
X131322100Y-152018400D01*
X131460600Y-152018400D01*
X131460600Y-150240400D01*
G37*
X134150600Y-150240400D02*
X134000600Y-150240400D01*
X134000600Y-152018400D01*
X134150600Y-152018400D01*
X134150600Y-150240400D01*
G36*
X134150600Y-150240400D02*
G01*
X134000600Y-150240400D01*
X134000600Y-152018400D01*
X134150600Y-152018400D01*
X134150600Y-150240400D01*
G37*
X134144850Y-147929000D02*
X131316350Y-147929000D01*
X131316350Y-150164200D01*
X134144850Y-150164200D01*
X134144850Y-147929000D01*
G36*
X134144850Y-147929000D02*
G01*
X131316350Y-147929000D01*
X131316350Y-150164200D01*
X134144850Y-150164200D01*
X134144850Y-147929000D01*
G37*
%TO.C,D4*%
X75706200Y-152280000D02*
X72866200Y-152280000D01*
X75706200Y-152280000D02*
X75706200Y-151630000D01*
X75706200Y-149980000D02*
X72866200Y-149980000D01*
X75706200Y-152095200D02*
X72877700Y-152095200D01*
X72877700Y-154318200D01*
X75706200Y-154318200D01*
X75706200Y-152095200D01*
G36*
X75706200Y-152095200D02*
G01*
X72877700Y-152095200D01*
X72877700Y-154318200D01*
X75706200Y-154318200D01*
X75706200Y-152095200D01*
G37*
X73016200Y-150241000D02*
X72877700Y-150241000D01*
X72877700Y-152019000D01*
X73016200Y-152019000D01*
X73016200Y-150241000D01*
G36*
X73016200Y-150241000D02*
G01*
X72877700Y-150241000D01*
X72877700Y-152019000D01*
X73016200Y-152019000D01*
X73016200Y-150241000D01*
G37*
X75706200Y-150241000D02*
X75556200Y-150241000D01*
X75556200Y-152019000D01*
X75706200Y-152019000D01*
X75706200Y-150241000D01*
G36*
X75706200Y-150241000D02*
G01*
X75556200Y-150241000D01*
X75556200Y-152019000D01*
X75706200Y-152019000D01*
X75706200Y-150241000D01*
G37*
X75700450Y-147929600D02*
X72871950Y-147929600D01*
X72871950Y-150164800D01*
X75700450Y-150164800D01*
X75700450Y-147929600D01*
G36*
X75700450Y-147929600D02*
G01*
X72871950Y-147929600D01*
X72871950Y-150164800D01*
X75700450Y-150164800D01*
X75700450Y-147929600D01*
G37*
%TO.C,D2*%
X70626200Y-152280000D02*
X67786200Y-152280000D01*
X70626200Y-152280000D02*
X70626200Y-151630000D01*
X70626200Y-149980000D02*
X67786200Y-149980000D01*
X70626200Y-152095200D02*
X67797700Y-152095200D01*
X67797700Y-154318200D01*
X70626200Y-154318200D01*
X70626200Y-152095200D01*
G36*
X70626200Y-152095200D02*
G01*
X67797700Y-152095200D01*
X67797700Y-154318200D01*
X70626200Y-154318200D01*
X70626200Y-152095200D01*
G37*
X67936200Y-150241000D02*
X67797700Y-150241000D01*
X67797700Y-152019000D01*
X67936200Y-152019000D01*
X67936200Y-150241000D01*
G36*
X67936200Y-150241000D02*
G01*
X67797700Y-150241000D01*
X67797700Y-152019000D01*
X67936200Y-152019000D01*
X67936200Y-150241000D01*
G37*
X70626200Y-150241000D02*
X70476200Y-150241000D01*
X70476200Y-152019000D01*
X70626200Y-152019000D01*
X70626200Y-150241000D01*
G36*
X70626200Y-150241000D02*
G01*
X70476200Y-150241000D01*
X70476200Y-152019000D01*
X70626200Y-152019000D01*
X70626200Y-150241000D01*
G37*
X70620450Y-147929600D02*
X67791950Y-147929600D01*
X67791950Y-150164800D01*
X70620450Y-150164800D01*
X70620450Y-147929600D01*
G36*
X70620450Y-147929600D02*
G01*
X67791950Y-147929600D01*
X67791950Y-150164800D01*
X70620450Y-150164800D01*
X70620450Y-147929600D01*
G37*
%TO.C,D16*%
X106202800Y-152280600D02*
X103362800Y-152280600D01*
X106202800Y-152280600D02*
X106202800Y-151630600D01*
X106202800Y-149980600D02*
X103362800Y-149980600D01*
X106202800Y-152095800D02*
X103374300Y-152095800D01*
X103374300Y-154318800D01*
X106202800Y-154318800D01*
X106202800Y-152095800D01*
G36*
X106202800Y-152095800D02*
G01*
X103374300Y-152095800D01*
X103374300Y-154318800D01*
X106202800Y-154318800D01*
X106202800Y-152095800D01*
G37*
X103512800Y-150241600D02*
X103374300Y-150241600D01*
X103374300Y-152019600D01*
X103512800Y-152019600D01*
X103512800Y-150241600D01*
G36*
X103512800Y-150241600D02*
G01*
X103374300Y-150241600D01*
X103374300Y-152019600D01*
X103512800Y-152019600D01*
X103512800Y-150241600D01*
G37*
X106202800Y-150241600D02*
X106052800Y-150241600D01*
X106052800Y-152019600D01*
X106202800Y-152019600D01*
X106202800Y-150241600D01*
G36*
X106202800Y-150241600D02*
G01*
X106052800Y-150241600D01*
X106052800Y-152019600D01*
X106202800Y-152019600D01*
X106202800Y-150241600D01*
G37*
X106197050Y-147930200D02*
X103368550Y-147930200D01*
X103368550Y-150165400D01*
X106197050Y-150165400D01*
X106197050Y-147930200D01*
G36*
X106197050Y-147930200D02*
G01*
X103368550Y-147930200D01*
X103368550Y-150165400D01*
X106197050Y-150165400D01*
X106197050Y-147930200D01*
G37*
%TO.C,D55*%
X129037400Y-170059400D02*
X126197400Y-170059400D01*
X129037400Y-170059400D02*
X129037400Y-169409400D01*
X129037400Y-167759400D02*
X126197400Y-167759400D01*
X129037400Y-169874600D02*
X126208900Y-169874600D01*
X126208900Y-172097600D01*
X129037400Y-172097600D01*
X129037400Y-169874600D01*
G36*
X129037400Y-169874600D02*
G01*
X126208900Y-169874600D01*
X126208900Y-172097600D01*
X129037400Y-172097600D01*
X129037400Y-169874600D01*
G37*
X126347400Y-168020400D02*
X126208900Y-168020400D01*
X126208900Y-169798400D01*
X126347400Y-169798400D01*
X126347400Y-168020400D01*
G36*
X126347400Y-168020400D02*
G01*
X126208900Y-168020400D01*
X126208900Y-169798400D01*
X126347400Y-169798400D01*
X126347400Y-168020400D01*
G37*
X129037400Y-168020400D02*
X128887400Y-168020400D01*
X128887400Y-169798400D01*
X129037400Y-169798400D01*
X129037400Y-168020400D01*
G36*
X129037400Y-168020400D02*
G01*
X128887400Y-168020400D01*
X128887400Y-169798400D01*
X129037400Y-169798400D01*
X129037400Y-168020400D01*
G37*
X129031650Y-165709000D02*
X126203150Y-165709000D01*
X126203150Y-167944200D01*
X129031650Y-167944200D01*
X129031650Y-165709000D01*
G36*
X129031650Y-165709000D02*
G01*
X126203150Y-165709000D01*
X126203150Y-167944200D01*
X129031650Y-167944200D01*
X129031650Y-165709000D01*
G37*
%TO.C,D82*%
X74175000Y-137010000D02*
X74175000Y-139850000D01*
X74175000Y-137010000D02*
X73525000Y-137010000D01*
X71875000Y-137010000D02*
X71875000Y-139850000D01*
X73990200Y-137010000D02*
X76213200Y-137010000D01*
X76213200Y-139838500D01*
X73990200Y-139838500D01*
X73990200Y-137010000D01*
G36*
X73990200Y-137010000D02*
G01*
X76213200Y-137010000D01*
X76213200Y-139838500D01*
X73990200Y-139838500D01*
X73990200Y-137010000D01*
G37*
X72136000Y-139700000D02*
X73914000Y-139700000D01*
X73914000Y-139838500D01*
X72136000Y-139838500D01*
X72136000Y-139700000D01*
G36*
X72136000Y-139700000D02*
G01*
X73914000Y-139700000D01*
X73914000Y-139838500D01*
X72136000Y-139838500D01*
X72136000Y-139700000D01*
G37*
X72136000Y-137010000D02*
X73914000Y-137010000D01*
X73914000Y-137160000D01*
X72136000Y-137160000D01*
X72136000Y-137010000D01*
G36*
X72136000Y-137010000D02*
G01*
X73914000Y-137010000D01*
X73914000Y-137160000D01*
X72136000Y-137160000D01*
X72136000Y-137010000D01*
G37*
X69824600Y-137015750D02*
X72059800Y-137015750D01*
X72059800Y-139844250D01*
X69824600Y-139844250D01*
X69824600Y-137015750D01*
G36*
X69824600Y-137015750D02*
G01*
X72059800Y-137015750D01*
X72059800Y-139844250D01*
X69824600Y-139844250D01*
X69824600Y-137015750D01*
G37*
%TO.C,D78*%
X89415000Y-182730000D02*
X89415000Y-185570000D01*
X89415000Y-182730000D02*
X88765000Y-182730000D01*
X87115000Y-182730000D02*
X87115000Y-185570000D01*
X89230200Y-182730000D02*
X91453200Y-182730000D01*
X91453200Y-185558500D01*
X89230200Y-185558500D01*
X89230200Y-182730000D01*
G36*
X89230200Y-182730000D02*
G01*
X91453200Y-182730000D01*
X91453200Y-185558500D01*
X89230200Y-185558500D01*
X89230200Y-182730000D01*
G37*
X87376000Y-185420000D02*
X89154000Y-185420000D01*
X89154000Y-185558500D01*
X87376000Y-185558500D01*
X87376000Y-185420000D01*
G36*
X87376000Y-185420000D02*
G01*
X89154000Y-185420000D01*
X89154000Y-185558500D01*
X87376000Y-185558500D01*
X87376000Y-185420000D01*
G37*
X87376000Y-182730000D02*
X89154000Y-182730000D01*
X89154000Y-182880000D01*
X87376000Y-182880000D01*
X87376000Y-182730000D01*
G36*
X87376000Y-182730000D02*
G01*
X89154000Y-182730000D01*
X89154000Y-182880000D01*
X87376000Y-182880000D01*
X87376000Y-182730000D01*
G37*
X85064600Y-182735750D02*
X87299800Y-182735750D01*
X87299800Y-185564250D01*
X85064600Y-185564250D01*
X85064600Y-182735750D01*
G36*
X85064600Y-182735750D02*
G01*
X87299800Y-182735750D01*
X87299800Y-185564250D01*
X85064600Y-185564250D01*
X85064600Y-182735750D01*
G37*
%TO.C,D86*%
X104655000Y-137010000D02*
X104655000Y-139850000D01*
X104655000Y-137010000D02*
X104005000Y-137010000D01*
X102355000Y-137010000D02*
X102355000Y-139850000D01*
X104470200Y-137010000D02*
X106693200Y-137010000D01*
X106693200Y-139838500D01*
X104470200Y-139838500D01*
X104470200Y-137010000D01*
G36*
X104470200Y-137010000D02*
G01*
X106693200Y-137010000D01*
X106693200Y-139838500D01*
X104470200Y-139838500D01*
X104470200Y-137010000D01*
G37*
X102616000Y-139700000D02*
X104394000Y-139700000D01*
X104394000Y-139838500D01*
X102616000Y-139838500D01*
X102616000Y-139700000D01*
G36*
X102616000Y-139700000D02*
G01*
X104394000Y-139700000D01*
X104394000Y-139838500D01*
X102616000Y-139838500D01*
X102616000Y-139700000D01*
G37*
X102616000Y-137010000D02*
X104394000Y-137010000D01*
X104394000Y-137160000D01*
X102616000Y-137160000D01*
X102616000Y-137010000D01*
G36*
X102616000Y-137010000D02*
G01*
X104394000Y-137010000D01*
X104394000Y-137160000D01*
X102616000Y-137160000D01*
X102616000Y-137010000D01*
G37*
X100304600Y-137015750D02*
X102539800Y-137015750D01*
X102539800Y-139844250D01*
X100304600Y-139844250D01*
X100304600Y-137015750D01*
G36*
X100304600Y-137015750D02*
G01*
X102539800Y-137015750D01*
X102539800Y-139844250D01*
X100304600Y-139844250D01*
X100304600Y-137015750D01*
G37*
%TO.C,D76*%
X104655000Y-180190000D02*
X104655000Y-183030000D01*
X104655000Y-180190000D02*
X104005000Y-180190000D01*
X102355000Y-180190000D02*
X102355000Y-183030000D01*
X104470200Y-180190000D02*
X106693200Y-180190000D01*
X106693200Y-183018500D01*
X104470200Y-183018500D01*
X104470200Y-180190000D01*
G36*
X104470200Y-180190000D02*
G01*
X106693200Y-180190000D01*
X106693200Y-183018500D01*
X104470200Y-183018500D01*
X104470200Y-180190000D01*
G37*
X102616000Y-182880000D02*
X104394000Y-182880000D01*
X104394000Y-183018500D01*
X102616000Y-183018500D01*
X102616000Y-182880000D01*
G36*
X102616000Y-182880000D02*
G01*
X104394000Y-182880000D01*
X104394000Y-183018500D01*
X102616000Y-183018500D01*
X102616000Y-182880000D01*
G37*
X102616000Y-180190000D02*
X104394000Y-180190000D01*
X104394000Y-180340000D01*
X102616000Y-180340000D01*
X102616000Y-180190000D01*
G36*
X102616000Y-180190000D02*
G01*
X104394000Y-180190000D01*
X104394000Y-180340000D01*
X102616000Y-180340000D01*
X102616000Y-180190000D01*
G37*
X100304600Y-180195750D02*
X102539800Y-180195750D01*
X102539800Y-183024250D01*
X100304600Y-183024250D01*
X100304600Y-180195750D01*
G36*
X100304600Y-180195750D02*
G01*
X102539800Y-180195750D01*
X102539800Y-183024250D01*
X100304600Y-183024250D01*
X100304600Y-180195750D01*
G37*
%TO.C,D54*%
X126497400Y-170059400D02*
X123657400Y-170059400D01*
X126497400Y-170059400D02*
X126497400Y-169409400D01*
X126497400Y-167759400D02*
X123657400Y-167759400D01*
X126497400Y-169874600D02*
X123668900Y-169874600D01*
X123668900Y-172097600D01*
X126497400Y-172097600D01*
X126497400Y-169874600D01*
G36*
X126497400Y-169874600D02*
G01*
X123668900Y-169874600D01*
X123668900Y-172097600D01*
X126497400Y-172097600D01*
X126497400Y-169874600D01*
G37*
X123807400Y-168020400D02*
X123668900Y-168020400D01*
X123668900Y-169798400D01*
X123807400Y-169798400D01*
X123807400Y-168020400D01*
G36*
X123807400Y-168020400D02*
G01*
X123668900Y-168020400D01*
X123668900Y-169798400D01*
X123807400Y-169798400D01*
X123807400Y-168020400D01*
G37*
X126497400Y-168020400D02*
X126347400Y-168020400D01*
X126347400Y-169798400D01*
X126497400Y-169798400D01*
X126497400Y-168020400D01*
G36*
X126497400Y-168020400D02*
G01*
X126347400Y-168020400D01*
X126347400Y-169798400D01*
X126497400Y-169798400D01*
X126497400Y-168020400D01*
G37*
X126491650Y-165709000D02*
X123663150Y-165709000D01*
X123663150Y-167944200D01*
X126491650Y-167944200D01*
X126491650Y-165709000D01*
G36*
X126491650Y-165709000D02*
G01*
X123663150Y-165709000D01*
X123663150Y-167944200D01*
X126491650Y-167944200D01*
X126491650Y-165709000D01*
G37*
%TO.C,D31*%
X68028600Y-170058800D02*
X65188600Y-170058800D01*
X68028600Y-170058800D02*
X68028600Y-169408800D01*
X68028600Y-167758800D02*
X65188600Y-167758800D01*
X68028600Y-169874000D02*
X65200100Y-169874000D01*
X65200100Y-172097000D01*
X68028600Y-172097000D01*
X68028600Y-169874000D01*
G36*
X68028600Y-169874000D02*
G01*
X65200100Y-169874000D01*
X65200100Y-172097000D01*
X68028600Y-172097000D01*
X68028600Y-169874000D01*
G37*
X65338600Y-168019800D02*
X65200100Y-168019800D01*
X65200100Y-169797800D01*
X65338600Y-169797800D01*
X65338600Y-168019800D01*
G36*
X65338600Y-168019800D02*
G01*
X65200100Y-168019800D01*
X65200100Y-169797800D01*
X65338600Y-169797800D01*
X65338600Y-168019800D01*
G37*
X68028600Y-168019800D02*
X67878600Y-168019800D01*
X67878600Y-169797800D01*
X68028600Y-169797800D01*
X68028600Y-168019800D01*
G36*
X68028600Y-168019800D02*
G01*
X67878600Y-168019800D01*
X67878600Y-169797800D01*
X68028600Y-169797800D01*
X68028600Y-168019800D01*
G37*
X68022850Y-165708400D02*
X65194350Y-165708400D01*
X65194350Y-167943600D01*
X68022850Y-167943600D01*
X68022850Y-165708400D01*
G36*
X68022850Y-165708400D02*
G01*
X65194350Y-165708400D01*
X65194350Y-167943600D01*
X68022850Y-167943600D01*
X68022850Y-165708400D01*
G37*
%TO.C,D23*%
X123990600Y-152279400D02*
X121150600Y-152279400D01*
X123990600Y-152279400D02*
X123990600Y-151629400D01*
X123990600Y-149979400D02*
X121150600Y-149979400D01*
X123990600Y-152094600D02*
X121162100Y-152094600D01*
X121162100Y-154317600D01*
X123990600Y-154317600D01*
X123990600Y-152094600D01*
G36*
X123990600Y-152094600D02*
G01*
X121162100Y-152094600D01*
X121162100Y-154317600D01*
X123990600Y-154317600D01*
X123990600Y-152094600D01*
G37*
X121300600Y-150240400D02*
X121162100Y-150240400D01*
X121162100Y-152018400D01*
X121300600Y-152018400D01*
X121300600Y-150240400D01*
G36*
X121300600Y-150240400D02*
G01*
X121162100Y-150240400D01*
X121162100Y-152018400D01*
X121300600Y-152018400D01*
X121300600Y-150240400D01*
G37*
X123990600Y-150240400D02*
X123840600Y-150240400D01*
X123840600Y-152018400D01*
X123990600Y-152018400D01*
X123990600Y-150240400D01*
G36*
X123990600Y-150240400D02*
G01*
X123840600Y-150240400D01*
X123840600Y-152018400D01*
X123990600Y-152018400D01*
X123990600Y-150240400D01*
G37*
X123984850Y-147929000D02*
X121156350Y-147929000D01*
X121156350Y-150164200D01*
X123984850Y-150164200D01*
X123984850Y-147929000D01*
G36*
X123984850Y-147929000D02*
G01*
X121156350Y-147929000D01*
X121156350Y-150164200D01*
X123984850Y-150164200D01*
X123984850Y-147929000D01*
G37*
%TO.C,D38*%
X85816400Y-170058800D02*
X82976400Y-170058800D01*
X85816400Y-170058800D02*
X85816400Y-169408800D01*
X85816400Y-167758800D02*
X82976400Y-167758800D01*
X85816400Y-169874000D02*
X82987900Y-169874000D01*
X82987900Y-172097000D01*
X85816400Y-172097000D01*
X85816400Y-169874000D01*
G36*
X85816400Y-169874000D02*
G01*
X82987900Y-169874000D01*
X82987900Y-172097000D01*
X85816400Y-172097000D01*
X85816400Y-169874000D01*
G37*
X83126400Y-168019800D02*
X82987900Y-168019800D01*
X82987900Y-169797800D01*
X83126400Y-169797800D01*
X83126400Y-168019800D01*
G36*
X83126400Y-168019800D02*
G01*
X82987900Y-168019800D01*
X82987900Y-169797800D01*
X83126400Y-169797800D01*
X83126400Y-168019800D01*
G37*
X85816400Y-168019800D02*
X85666400Y-168019800D01*
X85666400Y-169797800D01*
X85816400Y-169797800D01*
X85816400Y-168019800D01*
G36*
X85816400Y-168019800D02*
G01*
X85666400Y-168019800D01*
X85666400Y-169797800D01*
X85816400Y-169797800D01*
X85816400Y-168019800D01*
G37*
X85810650Y-165708400D02*
X82982150Y-165708400D01*
X82982150Y-167943600D01*
X85810650Y-167943600D01*
X85810650Y-165708400D01*
G36*
X85810650Y-165708400D02*
G01*
X82982150Y-165708400D01*
X82982150Y-167943600D01*
X85810650Y-167943600D01*
X85810650Y-165708400D01*
G37*
%TO.C,D43*%
X98533000Y-170060600D02*
X95693000Y-170060600D01*
X98533000Y-170060600D02*
X98533000Y-169410600D01*
X98533000Y-167760600D02*
X95693000Y-167760600D01*
X98533000Y-169875800D02*
X95704500Y-169875800D01*
X95704500Y-172098800D01*
X98533000Y-172098800D01*
X98533000Y-169875800D01*
G36*
X98533000Y-169875800D02*
G01*
X95704500Y-169875800D01*
X95704500Y-172098800D01*
X98533000Y-172098800D01*
X98533000Y-169875800D01*
G37*
X95843000Y-168021600D02*
X95704500Y-168021600D01*
X95704500Y-169799600D01*
X95843000Y-169799600D01*
X95843000Y-168021600D01*
G36*
X95843000Y-168021600D02*
G01*
X95704500Y-168021600D01*
X95704500Y-169799600D01*
X95843000Y-169799600D01*
X95843000Y-168021600D01*
G37*
X98533000Y-168021600D02*
X98383000Y-168021600D01*
X98383000Y-169799600D01*
X98533000Y-169799600D01*
X98533000Y-168021600D01*
G36*
X98533000Y-168021600D02*
G01*
X98383000Y-168021600D01*
X98383000Y-169799600D01*
X98533000Y-169799600D01*
X98533000Y-168021600D01*
G37*
X98527250Y-165710200D02*
X95698750Y-165710200D01*
X95698750Y-167945400D01*
X98527250Y-167945400D01*
X98527250Y-165710200D01*
G36*
X98527250Y-165710200D02*
G01*
X95698750Y-165710200D01*
X95698750Y-167945400D01*
X98527250Y-167945400D01*
X98527250Y-165710200D01*
G37*
%TO.C,D90*%
X135135000Y-137010000D02*
X135135000Y-139850000D01*
X135135000Y-137010000D02*
X134485000Y-137010000D01*
X132835000Y-137010000D02*
X132835000Y-139850000D01*
X134950200Y-137010000D02*
X137173200Y-137010000D01*
X137173200Y-139838500D01*
X134950200Y-139838500D01*
X134950200Y-137010000D01*
G36*
X134950200Y-137010000D02*
G01*
X137173200Y-137010000D01*
X137173200Y-139838500D01*
X134950200Y-139838500D01*
X134950200Y-137010000D01*
G37*
X133096000Y-139700000D02*
X134874000Y-139700000D01*
X134874000Y-139838500D01*
X133096000Y-139838500D01*
X133096000Y-139700000D01*
G36*
X133096000Y-139700000D02*
G01*
X134874000Y-139700000D01*
X134874000Y-139838500D01*
X133096000Y-139838500D01*
X133096000Y-139700000D01*
G37*
X133096000Y-137010000D02*
X134874000Y-137010000D01*
X134874000Y-137160000D01*
X133096000Y-137160000D01*
X133096000Y-137010000D01*
G36*
X133096000Y-137010000D02*
G01*
X134874000Y-137010000D01*
X134874000Y-137160000D01*
X133096000Y-137160000D01*
X133096000Y-137010000D01*
G37*
X130784600Y-137015750D02*
X133019800Y-137015750D01*
X133019800Y-139844250D01*
X130784600Y-139844250D01*
X130784600Y-137015750D01*
G36*
X130784600Y-137015750D02*
G01*
X133019800Y-137015750D01*
X133019800Y-139844250D01*
X130784600Y-139844250D01*
X130784600Y-137015750D01*
G37*
%TO.C,D29*%
X139230600Y-152279400D02*
X136390600Y-152279400D01*
X139230600Y-152279400D02*
X139230600Y-151629400D01*
X139230600Y-149979400D02*
X136390600Y-149979400D01*
X139230600Y-152094600D02*
X136402100Y-152094600D01*
X136402100Y-154317600D01*
X139230600Y-154317600D01*
X139230600Y-152094600D01*
G36*
X139230600Y-152094600D02*
G01*
X136402100Y-152094600D01*
X136402100Y-154317600D01*
X139230600Y-154317600D01*
X139230600Y-152094600D01*
G37*
X136540600Y-150240400D02*
X136402100Y-150240400D01*
X136402100Y-152018400D01*
X136540600Y-152018400D01*
X136540600Y-150240400D01*
G36*
X136540600Y-150240400D02*
G01*
X136402100Y-150240400D01*
X136402100Y-152018400D01*
X136540600Y-152018400D01*
X136540600Y-150240400D01*
G37*
X139230600Y-150240400D02*
X139080600Y-150240400D01*
X139080600Y-152018400D01*
X139230600Y-152018400D01*
X139230600Y-150240400D01*
G36*
X139230600Y-150240400D02*
G01*
X139080600Y-150240400D01*
X139080600Y-152018400D01*
X139230600Y-152018400D01*
X139230600Y-150240400D01*
G37*
X139224850Y-147929000D02*
X136396350Y-147929000D01*
X136396350Y-150164200D01*
X139224850Y-150164200D01*
X139224850Y-147929000D01*
G36*
X139224850Y-147929000D02*
G01*
X136396350Y-147929000D01*
X136396350Y-150164200D01*
X139224850Y-150164200D01*
X139224850Y-147929000D01*
G37*
%TO.C,D80*%
X74174400Y-180190000D02*
X74174400Y-183030000D01*
X74174400Y-180190000D02*
X73524400Y-180190000D01*
X71874400Y-180190000D02*
X71874400Y-183030000D01*
X73989600Y-180190000D02*
X76212600Y-180190000D01*
X76212600Y-183018500D01*
X73989600Y-183018500D01*
X73989600Y-180190000D01*
G36*
X73989600Y-180190000D02*
G01*
X76212600Y-180190000D01*
X76212600Y-183018500D01*
X73989600Y-183018500D01*
X73989600Y-180190000D01*
G37*
X72135400Y-182880000D02*
X73913400Y-182880000D01*
X73913400Y-183018500D01*
X72135400Y-183018500D01*
X72135400Y-182880000D01*
G36*
X72135400Y-182880000D02*
G01*
X73913400Y-182880000D01*
X73913400Y-183018500D01*
X72135400Y-183018500D01*
X72135400Y-182880000D01*
G37*
X72135400Y-180190000D02*
X73913400Y-180190000D01*
X73913400Y-180340000D01*
X72135400Y-180340000D01*
X72135400Y-180190000D01*
G36*
X72135400Y-180190000D02*
G01*
X73913400Y-180190000D01*
X73913400Y-180340000D01*
X72135400Y-180340000D01*
X72135400Y-180190000D01*
G37*
X69824000Y-180195750D02*
X72059200Y-180195750D01*
X72059200Y-183024250D01*
X69824000Y-183024250D01*
X69824000Y-180195750D01*
G36*
X69824000Y-180195750D02*
G01*
X72059200Y-180195750D01*
X72059200Y-183024250D01*
X69824000Y-183024250D01*
X69824000Y-180195750D01*
G37*
%TO.C,JP2*%
X141122400Y-127000000D02*
X142011400Y-127000000D01*
X142265400Y-127254000D02*
X142265400Y-129286000D01*
X140868400Y-129286000D02*
X140868400Y-127254000D01*
X142011400Y-129540000D02*
X141122400Y-129540000D01*
X142011400Y-127000000D02*
G75*
G02*
X142265400Y-127254000I0J-254000D01*
G01*
X140868400Y-127254000D02*
G75*
G02*
X141122400Y-127000000I254000J0D01*
G01*
X142265400Y-129286000D02*
G75*
G02*
X142011400Y-129540000I-254000J0D01*
G01*
X141122400Y-129540000D02*
G75*
G02*
X140868400Y-129286000I0J254000D01*
G01*
%TO.C,D34*%
X75656400Y-170058800D02*
X72816400Y-170058800D01*
X75656400Y-170058800D02*
X75656400Y-169408800D01*
X75656400Y-167758800D02*
X72816400Y-167758800D01*
X75656400Y-169874000D02*
X72827900Y-169874000D01*
X72827900Y-172097000D01*
X75656400Y-172097000D01*
X75656400Y-169874000D01*
G36*
X75656400Y-169874000D02*
G01*
X72827900Y-169874000D01*
X72827900Y-172097000D01*
X75656400Y-172097000D01*
X75656400Y-169874000D01*
G37*
X72966400Y-168019800D02*
X72827900Y-168019800D01*
X72827900Y-169797800D01*
X72966400Y-169797800D01*
X72966400Y-168019800D01*
G36*
X72966400Y-168019800D02*
G01*
X72827900Y-168019800D01*
X72827900Y-169797800D01*
X72966400Y-169797800D01*
X72966400Y-168019800D01*
G37*
X75656400Y-168019800D02*
X75506400Y-168019800D01*
X75506400Y-169797800D01*
X75656400Y-169797800D01*
X75656400Y-168019800D01*
G36*
X75656400Y-168019800D02*
G01*
X75506400Y-168019800D01*
X75506400Y-169797800D01*
X75656400Y-169797800D01*
X75656400Y-168019800D01*
G37*
X75650650Y-165708400D02*
X72822150Y-165708400D01*
X72822150Y-167943600D01*
X75650650Y-167943600D01*
X75650650Y-165708400D01*
G36*
X75650650Y-165708400D02*
G01*
X72822150Y-165708400D01*
X72822150Y-167943600D01*
X75650650Y-167943600D01*
X75650650Y-165708400D01*
G37*
%TO.C,D37*%
X83276400Y-170058800D02*
X80436400Y-170058800D01*
X83276400Y-170058800D02*
X83276400Y-169408800D01*
X83276400Y-167758800D02*
X80436400Y-167758800D01*
X83276400Y-169874000D02*
X80447900Y-169874000D01*
X80447900Y-172097000D01*
X83276400Y-172097000D01*
X83276400Y-169874000D01*
G36*
X83276400Y-169874000D02*
G01*
X80447900Y-169874000D01*
X80447900Y-172097000D01*
X83276400Y-172097000D01*
X83276400Y-169874000D01*
G37*
X80586400Y-168019800D02*
X80447900Y-168019800D01*
X80447900Y-169797800D01*
X80586400Y-169797800D01*
X80586400Y-168019800D01*
G36*
X80586400Y-168019800D02*
G01*
X80447900Y-168019800D01*
X80447900Y-169797800D01*
X80586400Y-169797800D01*
X80586400Y-168019800D01*
G37*
X83276400Y-168019800D02*
X83126400Y-168019800D01*
X83126400Y-169797800D01*
X83276400Y-169797800D01*
X83276400Y-168019800D01*
G36*
X83276400Y-168019800D02*
G01*
X83126400Y-168019800D01*
X83126400Y-169797800D01*
X83276400Y-169797800D01*
X83276400Y-168019800D01*
G37*
X83270650Y-165708400D02*
X80442150Y-165708400D01*
X80442150Y-167943600D01*
X83270650Y-167943600D01*
X83270650Y-165708400D01*
G36*
X83270650Y-165708400D02*
G01*
X80442150Y-165708400D01*
X80442150Y-167943600D01*
X83270650Y-167943600D01*
X83270650Y-165708400D01*
G37*
%TO.C,J1*%
X81407000Y-132715000D02*
X81280000Y-132588000D01*
X81407000Y-132715000D02*
X84963000Y-132715000D01*
X84963000Y-132715000D02*
X85090000Y-132588000D01*
X85725000Y-132715000D02*
X85598000Y-132842000D01*
X85725000Y-133223000D02*
X85725000Y-132715000D01*
X123317000Y-132715000D02*
X123190000Y-132588000D01*
X123317000Y-132715000D02*
X125603000Y-132715000D01*
X125603000Y-132715000D02*
X125730000Y-132588000D01*
%TO.C,D87*%
X119895000Y-137010000D02*
X119895000Y-139850000D01*
X119895000Y-137010000D02*
X119245000Y-137010000D01*
X117595000Y-137010000D02*
X117595000Y-139850000D01*
X119710200Y-137010000D02*
X121933200Y-137010000D01*
X121933200Y-139838500D01*
X119710200Y-139838500D01*
X119710200Y-137010000D01*
G36*
X119710200Y-137010000D02*
G01*
X121933200Y-137010000D01*
X121933200Y-139838500D01*
X119710200Y-139838500D01*
X119710200Y-137010000D01*
G37*
X117856000Y-139700000D02*
X119634000Y-139700000D01*
X119634000Y-139838500D01*
X117856000Y-139838500D01*
X117856000Y-139700000D01*
G36*
X117856000Y-139700000D02*
G01*
X119634000Y-139700000D01*
X119634000Y-139838500D01*
X117856000Y-139838500D01*
X117856000Y-139700000D01*
G37*
X117856000Y-137010000D02*
X119634000Y-137010000D01*
X119634000Y-137160000D01*
X117856000Y-137160000D01*
X117856000Y-137010000D01*
G36*
X117856000Y-137010000D02*
G01*
X119634000Y-137010000D01*
X119634000Y-137160000D01*
X117856000Y-137160000D01*
X117856000Y-137010000D01*
G37*
X115544600Y-137015750D02*
X117779800Y-137015750D01*
X117779800Y-139844250D01*
X115544600Y-139844250D01*
X115544600Y-137015750D01*
G36*
X115544600Y-137015750D02*
G01*
X117779800Y-137015750D01*
X117779800Y-139844250D01*
X115544600Y-139844250D01*
X115544600Y-137015750D01*
G37*
%TO.C,D14*%
X101122800Y-152280600D02*
X98282800Y-152280600D01*
X101122800Y-152280600D02*
X101122800Y-151630600D01*
X101122800Y-149980600D02*
X98282800Y-149980600D01*
X101122800Y-152095800D02*
X98294300Y-152095800D01*
X98294300Y-154318800D01*
X101122800Y-154318800D01*
X101122800Y-152095800D01*
G36*
X101122800Y-152095800D02*
G01*
X98294300Y-152095800D01*
X98294300Y-154318800D01*
X101122800Y-154318800D01*
X101122800Y-152095800D01*
G37*
X98432800Y-150241600D02*
X98294300Y-150241600D01*
X98294300Y-152019600D01*
X98432800Y-152019600D01*
X98432800Y-150241600D01*
G36*
X98432800Y-150241600D02*
G01*
X98294300Y-150241600D01*
X98294300Y-152019600D01*
X98432800Y-152019600D01*
X98432800Y-150241600D01*
G37*
X101122800Y-150241600D02*
X100972800Y-150241600D01*
X100972800Y-152019600D01*
X101122800Y-152019600D01*
X101122800Y-150241600D01*
G36*
X101122800Y-150241600D02*
G01*
X100972800Y-150241600D01*
X100972800Y-152019600D01*
X101122800Y-152019600D01*
X101122800Y-150241600D01*
G37*
X101117050Y-147930200D02*
X98288550Y-147930200D01*
X98288550Y-150165400D01*
X101117050Y-150165400D01*
X101117050Y-147930200D01*
G36*
X101117050Y-147930200D02*
G01*
X98288550Y-147930200D01*
X98288550Y-150165400D01*
X101117050Y-150165400D01*
X101117050Y-147930200D01*
G37*
%TO.C,D85*%
X104655000Y-134470000D02*
X104655000Y-137310000D01*
X104655000Y-134470000D02*
X104005000Y-134470000D01*
X102355000Y-134470000D02*
X102355000Y-137310000D01*
X104470200Y-134470000D02*
X106693200Y-134470000D01*
X106693200Y-137298500D01*
X104470200Y-137298500D01*
X104470200Y-134470000D01*
G36*
X104470200Y-134470000D02*
G01*
X106693200Y-134470000D01*
X106693200Y-137298500D01*
X104470200Y-137298500D01*
X104470200Y-134470000D01*
G37*
X102616000Y-137160000D02*
X104394000Y-137160000D01*
X104394000Y-137298500D01*
X102616000Y-137298500D01*
X102616000Y-137160000D01*
G36*
X102616000Y-137160000D02*
G01*
X104394000Y-137160000D01*
X104394000Y-137298500D01*
X102616000Y-137298500D01*
X102616000Y-137160000D01*
G37*
X102616000Y-134470000D02*
X104394000Y-134470000D01*
X104394000Y-134620000D01*
X102616000Y-134620000D01*
X102616000Y-134470000D01*
G36*
X102616000Y-134470000D02*
G01*
X104394000Y-134470000D01*
X104394000Y-134620000D01*
X102616000Y-134620000D01*
X102616000Y-134470000D01*
G37*
X100304600Y-134475750D02*
X102539800Y-134475750D01*
X102539800Y-137304250D01*
X100304600Y-137304250D01*
X100304600Y-134475750D01*
G36*
X100304600Y-134475750D02*
G01*
X102539800Y-134475750D01*
X102539800Y-137304250D01*
X100304600Y-137304250D01*
X100304600Y-134475750D01*
G37*
%TO.C,D11*%
X93495000Y-152280600D02*
X90655000Y-152280600D01*
X93495000Y-152280600D02*
X93495000Y-151630600D01*
X93495000Y-149980600D02*
X90655000Y-149980600D01*
X93495000Y-152095800D02*
X90666500Y-152095800D01*
X90666500Y-154318800D01*
X93495000Y-154318800D01*
X93495000Y-152095800D01*
G36*
X93495000Y-152095800D02*
G01*
X90666500Y-152095800D01*
X90666500Y-154318800D01*
X93495000Y-154318800D01*
X93495000Y-152095800D01*
G37*
X90805000Y-150241600D02*
X90666500Y-150241600D01*
X90666500Y-152019600D01*
X90805000Y-152019600D01*
X90805000Y-150241600D01*
G36*
X90805000Y-150241600D02*
G01*
X90666500Y-150241600D01*
X90666500Y-152019600D01*
X90805000Y-152019600D01*
X90805000Y-150241600D01*
G37*
X93495000Y-150241600D02*
X93345000Y-150241600D01*
X93345000Y-152019600D01*
X93495000Y-152019600D01*
X93495000Y-150241600D01*
G36*
X93495000Y-150241600D02*
G01*
X93345000Y-150241600D01*
X93345000Y-152019600D01*
X93495000Y-152019600D01*
X93495000Y-150241600D01*
G37*
X93489250Y-147930200D02*
X90660750Y-147930200D01*
X90660750Y-150165400D01*
X93489250Y-150165400D01*
X93489250Y-147930200D01*
G36*
X93489250Y-147930200D02*
G01*
X90660750Y-147930200D01*
X90660750Y-150165400D01*
X93489250Y-150165400D01*
X93489250Y-147930200D01*
G37*
%TO.C,D20*%
X116362800Y-152280600D02*
X113522800Y-152280600D01*
X116362800Y-152280600D02*
X116362800Y-151630600D01*
X116362800Y-149980600D02*
X113522800Y-149980600D01*
X116362800Y-152095800D02*
X113534300Y-152095800D01*
X113534300Y-154318800D01*
X116362800Y-154318800D01*
X116362800Y-152095800D01*
G36*
X116362800Y-152095800D02*
G01*
X113534300Y-152095800D01*
X113534300Y-154318800D01*
X116362800Y-154318800D01*
X116362800Y-152095800D01*
G37*
X113672800Y-150241600D02*
X113534300Y-150241600D01*
X113534300Y-152019600D01*
X113672800Y-152019600D01*
X113672800Y-150241600D01*
G36*
X113672800Y-150241600D02*
G01*
X113534300Y-150241600D01*
X113534300Y-152019600D01*
X113672800Y-152019600D01*
X113672800Y-150241600D01*
G37*
X116362800Y-150241600D02*
X116212800Y-150241600D01*
X116212800Y-152019600D01*
X116362800Y-152019600D01*
X116362800Y-150241600D01*
G36*
X116362800Y-150241600D02*
G01*
X116212800Y-150241600D01*
X116212800Y-152019600D01*
X116362800Y-152019600D01*
X116362800Y-150241600D01*
G37*
X116357050Y-147930200D02*
X113528550Y-147930200D01*
X113528550Y-150165400D01*
X116357050Y-150165400D01*
X116357050Y-147930200D01*
G36*
X116357050Y-147930200D02*
G01*
X113528550Y-147930200D01*
X113528550Y-150165400D01*
X116357050Y-150165400D01*
X116357050Y-147930200D01*
G37*
%TO.C,D26*%
X131610600Y-152279400D02*
X128770600Y-152279400D01*
X131610600Y-152279400D02*
X131610600Y-151629400D01*
X131610600Y-149979400D02*
X128770600Y-149979400D01*
X131610600Y-152094600D02*
X128782100Y-152094600D01*
X128782100Y-154317600D01*
X131610600Y-154317600D01*
X131610600Y-152094600D01*
G36*
X131610600Y-152094600D02*
G01*
X128782100Y-152094600D01*
X128782100Y-154317600D01*
X131610600Y-154317600D01*
X131610600Y-152094600D01*
G37*
X128920600Y-150240400D02*
X128782100Y-150240400D01*
X128782100Y-152018400D01*
X128920600Y-152018400D01*
X128920600Y-150240400D01*
G36*
X128920600Y-150240400D02*
G01*
X128782100Y-150240400D01*
X128782100Y-152018400D01*
X128920600Y-152018400D01*
X128920600Y-150240400D01*
G37*
X131610600Y-150240400D02*
X131460600Y-150240400D01*
X131460600Y-152018400D01*
X131610600Y-152018400D01*
X131610600Y-150240400D01*
G36*
X131610600Y-150240400D02*
G01*
X131460600Y-150240400D01*
X131460600Y-152018400D01*
X131610600Y-152018400D01*
X131610600Y-150240400D01*
G37*
X131604850Y-147929000D02*
X128776350Y-147929000D01*
X128776350Y-150164200D01*
X131604850Y-150164200D01*
X131604850Y-147929000D01*
G36*
X131604850Y-147929000D02*
G01*
X128776350Y-147929000D01*
X128776350Y-150164200D01*
X131604850Y-150164200D01*
X131604850Y-147929000D01*
G37*
%TO.C,D15*%
X103662800Y-152280600D02*
X100822800Y-152280600D01*
X103662800Y-152280600D02*
X103662800Y-151630600D01*
X103662800Y-149980600D02*
X100822800Y-149980600D01*
X103662800Y-152095800D02*
X100834300Y-152095800D01*
X100834300Y-154318800D01*
X103662800Y-154318800D01*
X103662800Y-152095800D01*
G36*
X103662800Y-152095800D02*
G01*
X100834300Y-152095800D01*
X100834300Y-154318800D01*
X103662800Y-154318800D01*
X103662800Y-152095800D01*
G37*
X100972800Y-150241600D02*
X100834300Y-150241600D01*
X100834300Y-152019600D01*
X100972800Y-152019600D01*
X100972800Y-150241600D01*
G36*
X100972800Y-150241600D02*
G01*
X100834300Y-150241600D01*
X100834300Y-152019600D01*
X100972800Y-152019600D01*
X100972800Y-150241600D01*
G37*
X103662800Y-150241600D02*
X103512800Y-150241600D01*
X103512800Y-152019600D01*
X103662800Y-152019600D01*
X103662800Y-150241600D01*
G36*
X103662800Y-150241600D02*
G01*
X103512800Y-150241600D01*
X103512800Y-152019600D01*
X103662800Y-152019600D01*
X103662800Y-150241600D01*
G37*
X103657050Y-147930200D02*
X100828550Y-147930200D01*
X100828550Y-150165400D01*
X103657050Y-150165400D01*
X103657050Y-147930200D01*
G36*
X103657050Y-147930200D02*
G01*
X100828550Y-147930200D01*
X100828550Y-150165400D01*
X103657050Y-150165400D01*
X103657050Y-147930200D01*
G37*
%TO.C,D88*%
X119895000Y-134470000D02*
X119895000Y-137310000D01*
X119895000Y-134470000D02*
X119245000Y-134470000D01*
X117595000Y-134470000D02*
X117595000Y-137310000D01*
X119710200Y-134470000D02*
X121933200Y-134470000D01*
X121933200Y-137298500D01*
X119710200Y-137298500D01*
X119710200Y-134470000D01*
G36*
X119710200Y-134470000D02*
G01*
X121933200Y-134470000D01*
X121933200Y-137298500D01*
X119710200Y-137298500D01*
X119710200Y-134470000D01*
G37*
X117856000Y-137160000D02*
X119634000Y-137160000D01*
X119634000Y-137298500D01*
X117856000Y-137298500D01*
X117856000Y-137160000D01*
G36*
X117856000Y-137160000D02*
G01*
X119634000Y-137160000D01*
X119634000Y-137298500D01*
X117856000Y-137298500D01*
X117856000Y-137160000D01*
G37*
X117856000Y-134470000D02*
X119634000Y-134470000D01*
X119634000Y-134620000D01*
X117856000Y-134620000D01*
X117856000Y-134470000D01*
G36*
X117856000Y-134470000D02*
G01*
X119634000Y-134470000D01*
X119634000Y-134620000D01*
X117856000Y-134620000D01*
X117856000Y-134470000D01*
G37*
X115544600Y-134475750D02*
X117779800Y-134475750D01*
X117779800Y-137304250D01*
X115544600Y-137304250D01*
X115544600Y-134475750D01*
G36*
X115544600Y-134475750D02*
G01*
X117779800Y-134475750D01*
X117779800Y-137304250D01*
X115544600Y-137304250D01*
X115544600Y-134475750D01*
G37*
%TO.C,D60*%
X141737400Y-170059400D02*
X138897400Y-170059400D01*
X141737400Y-170059400D02*
X141737400Y-169409400D01*
X141737400Y-167759400D02*
X138897400Y-167759400D01*
X141737400Y-169874600D02*
X138908900Y-169874600D01*
X138908900Y-172097600D01*
X141737400Y-172097600D01*
X141737400Y-169874600D01*
G36*
X141737400Y-169874600D02*
G01*
X138908900Y-169874600D01*
X138908900Y-172097600D01*
X141737400Y-172097600D01*
X141737400Y-169874600D01*
G37*
X139047400Y-168020400D02*
X138908900Y-168020400D01*
X138908900Y-169798400D01*
X139047400Y-169798400D01*
X139047400Y-168020400D01*
G36*
X139047400Y-168020400D02*
G01*
X138908900Y-168020400D01*
X138908900Y-169798400D01*
X139047400Y-169798400D01*
X139047400Y-168020400D01*
G37*
X141737400Y-168020400D02*
X141587400Y-168020400D01*
X141587400Y-169798400D01*
X141737400Y-169798400D01*
X141737400Y-168020400D01*
G36*
X141737400Y-168020400D02*
G01*
X141587400Y-168020400D01*
X141587400Y-169798400D01*
X141737400Y-169798400D01*
X141737400Y-168020400D01*
G37*
X141731650Y-165709000D02*
X138903150Y-165709000D01*
X138903150Y-167944200D01*
X141731650Y-167944200D01*
X141731650Y-165709000D01*
G36*
X141731650Y-165709000D02*
G01*
X138903150Y-165709000D01*
X138903150Y-167944200D01*
X141731650Y-167944200D01*
X141731650Y-165709000D01*
G37*
%TO.C,D17*%
X108742800Y-152280600D02*
X105902800Y-152280600D01*
X108742800Y-152280600D02*
X108742800Y-151630600D01*
X108742800Y-149980600D02*
X105902800Y-149980600D01*
X108742800Y-152095800D02*
X105914300Y-152095800D01*
X105914300Y-154318800D01*
X108742800Y-154318800D01*
X108742800Y-152095800D01*
G36*
X108742800Y-152095800D02*
G01*
X105914300Y-152095800D01*
X105914300Y-154318800D01*
X108742800Y-154318800D01*
X108742800Y-152095800D01*
G37*
X106052800Y-150241600D02*
X105914300Y-150241600D01*
X105914300Y-152019600D01*
X106052800Y-152019600D01*
X106052800Y-150241600D01*
G36*
X106052800Y-150241600D02*
G01*
X105914300Y-150241600D01*
X105914300Y-152019600D01*
X106052800Y-152019600D01*
X106052800Y-150241600D01*
G37*
X108742800Y-150241600D02*
X108592800Y-150241600D01*
X108592800Y-152019600D01*
X108742800Y-152019600D01*
X108742800Y-150241600D01*
G36*
X108742800Y-150241600D02*
G01*
X108592800Y-150241600D01*
X108592800Y-152019600D01*
X108742800Y-152019600D01*
X108742800Y-150241600D01*
G37*
X108737050Y-147930200D02*
X105908550Y-147930200D01*
X105908550Y-150165400D01*
X108737050Y-150165400D01*
X108737050Y-147930200D01*
G36*
X108737050Y-147930200D02*
G01*
X105908550Y-147930200D01*
X105908550Y-150165400D01*
X108737050Y-150165400D01*
X108737050Y-147930200D01*
G37*
%TO.C,D48*%
X111233000Y-170060600D02*
X108393000Y-170060600D01*
X111233000Y-170060600D02*
X111233000Y-169410600D01*
X111233000Y-167760600D02*
X108393000Y-167760600D01*
X111233000Y-169875800D02*
X108404500Y-169875800D01*
X108404500Y-172098800D01*
X111233000Y-172098800D01*
X111233000Y-169875800D01*
G36*
X111233000Y-169875800D02*
G01*
X108404500Y-169875800D01*
X108404500Y-172098800D01*
X111233000Y-172098800D01*
X111233000Y-169875800D01*
G37*
X108543000Y-168021600D02*
X108404500Y-168021600D01*
X108404500Y-169799600D01*
X108543000Y-169799600D01*
X108543000Y-168021600D01*
G36*
X108543000Y-168021600D02*
G01*
X108404500Y-168021600D01*
X108404500Y-169799600D01*
X108543000Y-169799600D01*
X108543000Y-168021600D01*
G37*
X111233000Y-168021600D02*
X111083000Y-168021600D01*
X111083000Y-169799600D01*
X111233000Y-169799600D01*
X111233000Y-168021600D01*
G36*
X111233000Y-168021600D02*
G01*
X111083000Y-168021600D01*
X111083000Y-169799600D01*
X111233000Y-169799600D01*
X111233000Y-168021600D01*
G37*
X111227250Y-165710200D02*
X108398750Y-165710200D01*
X108398750Y-167945400D01*
X111227250Y-167945400D01*
X111227250Y-165710200D01*
G36*
X111227250Y-165710200D02*
G01*
X108398750Y-165710200D01*
X108398750Y-167945400D01*
X111227250Y-167945400D01*
X111227250Y-165710200D01*
G37*
%TO.C,D19*%
X113822800Y-152280600D02*
X110982800Y-152280600D01*
X113822800Y-152280600D02*
X113822800Y-151630600D01*
X113822800Y-149980600D02*
X110982800Y-149980600D01*
X113822800Y-152095800D02*
X110994300Y-152095800D01*
X110994300Y-154318800D01*
X113822800Y-154318800D01*
X113822800Y-152095800D01*
G36*
X113822800Y-152095800D02*
G01*
X110994300Y-152095800D01*
X110994300Y-154318800D01*
X113822800Y-154318800D01*
X113822800Y-152095800D01*
G37*
X111132800Y-150241600D02*
X110994300Y-150241600D01*
X110994300Y-152019600D01*
X111132800Y-152019600D01*
X111132800Y-150241600D01*
G36*
X111132800Y-150241600D02*
G01*
X110994300Y-150241600D01*
X110994300Y-152019600D01*
X111132800Y-152019600D01*
X111132800Y-150241600D01*
G37*
X113822800Y-150241600D02*
X113672800Y-150241600D01*
X113672800Y-152019600D01*
X113822800Y-152019600D01*
X113822800Y-150241600D01*
G36*
X113822800Y-150241600D02*
G01*
X113672800Y-150241600D01*
X113672800Y-152019600D01*
X113822800Y-152019600D01*
X113822800Y-150241600D01*
G37*
X113817050Y-147930200D02*
X110988550Y-147930200D01*
X110988550Y-150165400D01*
X113817050Y-150165400D01*
X113817050Y-147930200D01*
G36*
X113817050Y-147930200D02*
G01*
X110988550Y-147930200D01*
X110988550Y-150165400D01*
X113817050Y-150165400D01*
X113817050Y-147930200D01*
G37*
%TO.C,D79*%
X74175000Y-182730000D02*
X74175000Y-185570000D01*
X74175000Y-182730000D02*
X73525000Y-182730000D01*
X71875000Y-182730000D02*
X71875000Y-185570000D01*
X73990200Y-182730000D02*
X76213200Y-182730000D01*
X76213200Y-185558500D01*
X73990200Y-185558500D01*
X73990200Y-182730000D01*
G36*
X73990200Y-182730000D02*
G01*
X76213200Y-182730000D01*
X76213200Y-185558500D01*
X73990200Y-185558500D01*
X73990200Y-182730000D01*
G37*
X72136000Y-185420000D02*
X73914000Y-185420000D01*
X73914000Y-185558500D01*
X72136000Y-185558500D01*
X72136000Y-185420000D01*
G36*
X72136000Y-185420000D02*
G01*
X73914000Y-185420000D01*
X73914000Y-185558500D01*
X72136000Y-185558500D01*
X72136000Y-185420000D01*
G37*
X72136000Y-182730000D02*
X73914000Y-182730000D01*
X73914000Y-182880000D01*
X72136000Y-182880000D01*
X72136000Y-182730000D01*
G36*
X72136000Y-182730000D02*
G01*
X73914000Y-182730000D01*
X73914000Y-182880000D01*
X72136000Y-182880000D01*
X72136000Y-182730000D01*
G37*
X69824600Y-182735750D02*
X72059800Y-182735750D01*
X72059800Y-185564250D01*
X69824600Y-185564250D01*
X69824600Y-182735750D01*
G36*
X69824600Y-182735750D02*
G01*
X72059800Y-182735750D01*
X72059800Y-185564250D01*
X69824600Y-185564250D01*
X69824600Y-182735750D01*
G37*
%TO.C,D39*%
X88356400Y-170058800D02*
X85516400Y-170058800D01*
X88356400Y-170058800D02*
X88356400Y-169408800D01*
X88356400Y-167758800D02*
X85516400Y-167758800D01*
X88356400Y-169874000D02*
X85527900Y-169874000D01*
X85527900Y-172097000D01*
X88356400Y-172097000D01*
X88356400Y-169874000D01*
G36*
X88356400Y-169874000D02*
G01*
X85527900Y-169874000D01*
X85527900Y-172097000D01*
X88356400Y-172097000D01*
X88356400Y-169874000D01*
G37*
X85666400Y-168019800D02*
X85527900Y-168019800D01*
X85527900Y-169797800D01*
X85666400Y-169797800D01*
X85666400Y-168019800D01*
G36*
X85666400Y-168019800D02*
G01*
X85527900Y-168019800D01*
X85527900Y-169797800D01*
X85666400Y-169797800D01*
X85666400Y-168019800D01*
G37*
X88356400Y-168019800D02*
X88206400Y-168019800D01*
X88206400Y-169797800D01*
X88356400Y-169797800D01*
X88356400Y-168019800D01*
G36*
X88356400Y-168019800D02*
G01*
X88206400Y-168019800D01*
X88206400Y-169797800D01*
X88356400Y-169797800D01*
X88356400Y-168019800D01*
G37*
X88350650Y-165708400D02*
X85522150Y-165708400D01*
X85522150Y-167943600D01*
X88350650Y-167943600D01*
X88350650Y-165708400D01*
G36*
X88350650Y-165708400D02*
G01*
X85522150Y-165708400D01*
X85522150Y-167943600D01*
X88350650Y-167943600D01*
X88350650Y-165708400D01*
G37*
%TO.C,D53*%
X123957400Y-170059400D02*
X121117400Y-170059400D01*
X123957400Y-170059400D02*
X123957400Y-169409400D01*
X123957400Y-167759400D02*
X121117400Y-167759400D01*
X123957400Y-169874600D02*
X121128900Y-169874600D01*
X121128900Y-172097600D01*
X123957400Y-172097600D01*
X123957400Y-169874600D01*
G36*
X123957400Y-169874600D02*
G01*
X121128900Y-169874600D01*
X121128900Y-172097600D01*
X123957400Y-172097600D01*
X123957400Y-169874600D01*
G37*
X121267400Y-168020400D02*
X121128900Y-168020400D01*
X121128900Y-169798400D01*
X121267400Y-169798400D01*
X121267400Y-168020400D01*
G36*
X121267400Y-168020400D02*
G01*
X121128900Y-168020400D01*
X121128900Y-169798400D01*
X121267400Y-169798400D01*
X121267400Y-168020400D01*
G37*
X123957400Y-168020400D02*
X123807400Y-168020400D01*
X123807400Y-169798400D01*
X123957400Y-169798400D01*
X123957400Y-168020400D01*
G36*
X123957400Y-168020400D02*
G01*
X123807400Y-168020400D01*
X123807400Y-169798400D01*
X123957400Y-169798400D01*
X123957400Y-168020400D01*
G37*
X123951650Y-165709000D02*
X121123150Y-165709000D01*
X121123150Y-167944200D01*
X123951650Y-167944200D01*
X123951650Y-165709000D01*
G36*
X123951650Y-165709000D02*
G01*
X121123150Y-165709000D01*
X121123150Y-167944200D01*
X123951650Y-167944200D01*
X123951650Y-165709000D01*
G37*
%TO.C,D46*%
X106153000Y-170060600D02*
X103313000Y-170060600D01*
X106153000Y-170060600D02*
X106153000Y-169410600D01*
X106153000Y-167760600D02*
X103313000Y-167760600D01*
X106153000Y-169875800D02*
X103324500Y-169875800D01*
X103324500Y-172098800D01*
X106153000Y-172098800D01*
X106153000Y-169875800D01*
G36*
X106153000Y-169875800D02*
G01*
X103324500Y-169875800D01*
X103324500Y-172098800D01*
X106153000Y-172098800D01*
X106153000Y-169875800D01*
G37*
X103463000Y-168021600D02*
X103324500Y-168021600D01*
X103324500Y-169799600D01*
X103463000Y-169799600D01*
X103463000Y-168021600D01*
G36*
X103463000Y-168021600D02*
G01*
X103324500Y-168021600D01*
X103324500Y-169799600D01*
X103463000Y-169799600D01*
X103463000Y-168021600D01*
G37*
X106153000Y-168021600D02*
X106003000Y-168021600D01*
X106003000Y-169799600D01*
X106153000Y-169799600D01*
X106153000Y-168021600D01*
G36*
X106153000Y-168021600D02*
G01*
X106003000Y-168021600D01*
X106003000Y-169799600D01*
X106153000Y-169799600D01*
X106153000Y-168021600D01*
G37*
X106147250Y-165710200D02*
X103318750Y-165710200D01*
X103318750Y-167945400D01*
X106147250Y-167945400D01*
X106147250Y-165710200D01*
G36*
X106147250Y-165710200D02*
G01*
X103318750Y-165710200D01*
X103318750Y-167945400D01*
X106147250Y-167945400D01*
X106147250Y-165710200D01*
G37*
%TO.C,D36*%
X80736400Y-170058800D02*
X77896400Y-170058800D01*
X80736400Y-170058800D02*
X80736400Y-169408800D01*
X80736400Y-167758800D02*
X77896400Y-167758800D01*
X80736400Y-169874000D02*
X77907900Y-169874000D01*
X77907900Y-172097000D01*
X80736400Y-172097000D01*
X80736400Y-169874000D01*
G36*
X80736400Y-169874000D02*
G01*
X77907900Y-169874000D01*
X77907900Y-172097000D01*
X80736400Y-172097000D01*
X80736400Y-169874000D01*
G37*
X78046400Y-168019800D02*
X77907900Y-168019800D01*
X77907900Y-169797800D01*
X78046400Y-169797800D01*
X78046400Y-168019800D01*
G36*
X78046400Y-168019800D02*
G01*
X77907900Y-168019800D01*
X77907900Y-169797800D01*
X78046400Y-169797800D01*
X78046400Y-168019800D01*
G37*
X80736400Y-168019800D02*
X80586400Y-168019800D01*
X80586400Y-169797800D01*
X80736400Y-169797800D01*
X80736400Y-168019800D01*
G36*
X80736400Y-168019800D02*
G01*
X80586400Y-168019800D01*
X80586400Y-169797800D01*
X80736400Y-169797800D01*
X80736400Y-168019800D01*
G37*
X80730650Y-165708400D02*
X77902150Y-165708400D01*
X77902150Y-167943600D01*
X80730650Y-167943600D01*
X80730650Y-165708400D01*
G36*
X80730650Y-165708400D02*
G01*
X77902150Y-165708400D01*
X77902150Y-167943600D01*
X80730650Y-167943600D01*
X80730650Y-165708400D01*
G37*
%TO.C,D28*%
X136690600Y-152279400D02*
X133850600Y-152279400D01*
X136690600Y-152279400D02*
X136690600Y-151629400D01*
X136690600Y-149979400D02*
X133850600Y-149979400D01*
X136690600Y-152094600D02*
X133862100Y-152094600D01*
X133862100Y-154317600D01*
X136690600Y-154317600D01*
X136690600Y-152094600D01*
G36*
X136690600Y-152094600D02*
G01*
X133862100Y-152094600D01*
X133862100Y-154317600D01*
X136690600Y-154317600D01*
X136690600Y-152094600D01*
G37*
X134000600Y-150240400D02*
X133862100Y-150240400D01*
X133862100Y-152018400D01*
X134000600Y-152018400D01*
X134000600Y-150240400D01*
G36*
X134000600Y-150240400D02*
G01*
X133862100Y-150240400D01*
X133862100Y-152018400D01*
X134000600Y-152018400D01*
X134000600Y-150240400D01*
G37*
X136690600Y-150240400D02*
X136540600Y-150240400D01*
X136540600Y-152018400D01*
X136690600Y-152018400D01*
X136690600Y-150240400D01*
G36*
X136690600Y-150240400D02*
G01*
X136540600Y-150240400D01*
X136540600Y-152018400D01*
X136690600Y-152018400D01*
X136690600Y-150240400D01*
G37*
X136684850Y-147929000D02*
X133856350Y-147929000D01*
X133856350Y-150164200D01*
X136684850Y-150164200D01*
X136684850Y-147929000D01*
G36*
X136684850Y-147929000D02*
G01*
X133856350Y-147929000D01*
X133856350Y-150164200D01*
X136684850Y-150164200D01*
X136684850Y-147929000D01*
G37*
%TO.C,D33*%
X73116400Y-170058800D02*
X70276400Y-170058800D01*
X73116400Y-170058800D02*
X73116400Y-169408800D01*
X73116400Y-167758800D02*
X70276400Y-167758800D01*
X73116400Y-169874000D02*
X70287900Y-169874000D01*
X70287900Y-172097000D01*
X73116400Y-172097000D01*
X73116400Y-169874000D01*
G36*
X73116400Y-169874000D02*
G01*
X70287900Y-169874000D01*
X70287900Y-172097000D01*
X73116400Y-172097000D01*
X73116400Y-169874000D01*
G37*
X70426400Y-168019800D02*
X70287900Y-168019800D01*
X70287900Y-169797800D01*
X70426400Y-169797800D01*
X70426400Y-168019800D01*
G36*
X70426400Y-168019800D02*
G01*
X70287900Y-168019800D01*
X70287900Y-169797800D01*
X70426400Y-169797800D01*
X70426400Y-168019800D01*
G37*
X73116400Y-168019800D02*
X72966400Y-168019800D01*
X72966400Y-169797800D01*
X73116400Y-169797800D01*
X73116400Y-168019800D01*
G36*
X73116400Y-168019800D02*
G01*
X72966400Y-168019800D01*
X72966400Y-169797800D01*
X73116400Y-169797800D01*
X73116400Y-168019800D01*
G37*
X73110650Y-165708400D02*
X70282150Y-165708400D01*
X70282150Y-167943600D01*
X73110650Y-167943600D01*
X73110650Y-165708400D01*
G36*
X73110650Y-165708400D02*
G01*
X70282150Y-165708400D01*
X70282150Y-167943600D01*
X73110650Y-167943600D01*
X73110650Y-165708400D01*
G37*
%TO.C,D50*%
X116320800Y-170060600D02*
X113480800Y-170060600D01*
X116320800Y-170060600D02*
X116320800Y-169410600D01*
X116320800Y-167760600D02*
X113480800Y-167760600D01*
X116320800Y-169875800D02*
X113492300Y-169875800D01*
X113492300Y-172098800D01*
X116320800Y-172098800D01*
X116320800Y-169875800D01*
G36*
X116320800Y-169875800D02*
G01*
X113492300Y-169875800D01*
X113492300Y-172098800D01*
X116320800Y-172098800D01*
X116320800Y-169875800D01*
G37*
X113630800Y-168021600D02*
X113492300Y-168021600D01*
X113492300Y-169799600D01*
X113630800Y-169799600D01*
X113630800Y-168021600D01*
G36*
X113630800Y-168021600D02*
G01*
X113492300Y-168021600D01*
X113492300Y-169799600D01*
X113630800Y-169799600D01*
X113630800Y-168021600D01*
G37*
X116320800Y-168021600D02*
X116170800Y-168021600D01*
X116170800Y-169799600D01*
X116320800Y-169799600D01*
X116320800Y-168021600D01*
G36*
X116320800Y-168021600D02*
G01*
X116170800Y-168021600D01*
X116170800Y-169799600D01*
X116320800Y-169799600D01*
X116320800Y-168021600D01*
G37*
X116315050Y-165710200D02*
X113486550Y-165710200D01*
X113486550Y-167945400D01*
X116315050Y-167945400D01*
X116315050Y-165710200D01*
G36*
X116315050Y-165710200D02*
G01*
X113486550Y-165710200D01*
X113486550Y-167945400D01*
X116315050Y-167945400D01*
X116315050Y-165710200D01*
G37*
%TO.C,D25*%
X129070600Y-152279400D02*
X126230600Y-152279400D01*
X129070600Y-152279400D02*
X129070600Y-151629400D01*
X129070600Y-149979400D02*
X126230600Y-149979400D01*
X129070600Y-152094600D02*
X126242100Y-152094600D01*
X126242100Y-154317600D01*
X129070600Y-154317600D01*
X129070600Y-152094600D01*
G36*
X129070600Y-152094600D02*
G01*
X126242100Y-152094600D01*
X126242100Y-154317600D01*
X129070600Y-154317600D01*
X129070600Y-152094600D01*
G37*
X126380600Y-150240400D02*
X126242100Y-150240400D01*
X126242100Y-152018400D01*
X126380600Y-152018400D01*
X126380600Y-150240400D01*
G36*
X126380600Y-150240400D02*
G01*
X126242100Y-150240400D01*
X126242100Y-152018400D01*
X126380600Y-152018400D01*
X126380600Y-150240400D01*
G37*
X129070600Y-150240400D02*
X128920600Y-150240400D01*
X128920600Y-152018400D01*
X129070600Y-152018400D01*
X129070600Y-150240400D01*
G36*
X129070600Y-150240400D02*
G01*
X128920600Y-150240400D01*
X128920600Y-152018400D01*
X129070600Y-152018400D01*
X129070600Y-150240400D01*
G37*
X129064850Y-147929000D02*
X126236350Y-147929000D01*
X126236350Y-150164200D01*
X129064850Y-150164200D01*
X129064850Y-147929000D01*
G36*
X129064850Y-147929000D02*
G01*
X126236350Y-147929000D01*
X126236350Y-150164200D01*
X129064850Y-150164200D01*
X129064850Y-147929000D01*
G37*
%TO.C,D52*%
X121417400Y-170059400D02*
X118577400Y-170059400D01*
X121417400Y-170059400D02*
X121417400Y-169409400D01*
X121417400Y-167759400D02*
X118577400Y-167759400D01*
X121417400Y-169874600D02*
X118588900Y-169874600D01*
X118588900Y-172097600D01*
X121417400Y-172097600D01*
X121417400Y-169874600D01*
G36*
X121417400Y-169874600D02*
G01*
X118588900Y-169874600D01*
X118588900Y-172097600D01*
X121417400Y-172097600D01*
X121417400Y-169874600D01*
G37*
X118727400Y-168020400D02*
X118588900Y-168020400D01*
X118588900Y-169798400D01*
X118727400Y-169798400D01*
X118727400Y-168020400D01*
G36*
X118727400Y-168020400D02*
G01*
X118588900Y-168020400D01*
X118588900Y-169798400D01*
X118727400Y-169798400D01*
X118727400Y-168020400D01*
G37*
X121417400Y-168020400D02*
X121267400Y-168020400D01*
X121267400Y-169798400D01*
X121417400Y-169798400D01*
X121417400Y-168020400D01*
G36*
X121417400Y-168020400D02*
G01*
X121267400Y-168020400D01*
X121267400Y-169798400D01*
X121417400Y-169798400D01*
X121417400Y-168020400D01*
G37*
X121411650Y-165709000D02*
X118583150Y-165709000D01*
X118583150Y-167944200D01*
X121411650Y-167944200D01*
X121411650Y-165709000D01*
G36*
X121411650Y-165709000D02*
G01*
X118583150Y-165709000D01*
X118583150Y-167944200D01*
X121411650Y-167944200D01*
X121411650Y-165709000D01*
G37*
%TO.C,D7*%
X83326200Y-152280000D02*
X80486200Y-152280000D01*
X83326200Y-152280000D02*
X83326200Y-151630000D01*
X83326200Y-149980000D02*
X80486200Y-149980000D01*
X83326200Y-152095200D02*
X80497700Y-152095200D01*
X80497700Y-154318200D01*
X83326200Y-154318200D01*
X83326200Y-152095200D01*
G36*
X83326200Y-152095200D02*
G01*
X80497700Y-152095200D01*
X80497700Y-154318200D01*
X83326200Y-154318200D01*
X83326200Y-152095200D01*
G37*
X80636200Y-150241000D02*
X80497700Y-150241000D01*
X80497700Y-152019000D01*
X80636200Y-152019000D01*
X80636200Y-150241000D01*
G36*
X80636200Y-150241000D02*
G01*
X80497700Y-150241000D01*
X80497700Y-152019000D01*
X80636200Y-152019000D01*
X80636200Y-150241000D01*
G37*
X83326200Y-150241000D02*
X83176200Y-150241000D01*
X83176200Y-152019000D01*
X83326200Y-152019000D01*
X83326200Y-150241000D01*
G36*
X83326200Y-150241000D02*
G01*
X83176200Y-150241000D01*
X83176200Y-152019000D01*
X83326200Y-152019000D01*
X83326200Y-150241000D01*
G37*
X83320450Y-147929600D02*
X80491950Y-147929600D01*
X80491950Y-150164800D01*
X83320450Y-150164800D01*
X83320450Y-147929600D01*
G36*
X83320450Y-147929600D02*
G01*
X80491950Y-147929600D01*
X80491950Y-150164800D01*
X83320450Y-150164800D01*
X83320450Y-147929600D01*
G37*
%TO.C,D58*%
X136657400Y-170059400D02*
X133817400Y-170059400D01*
X136657400Y-170059400D02*
X136657400Y-169409400D01*
X136657400Y-167759400D02*
X133817400Y-167759400D01*
X136657400Y-169874600D02*
X133828900Y-169874600D01*
X133828900Y-172097600D01*
X136657400Y-172097600D01*
X136657400Y-169874600D01*
G36*
X136657400Y-169874600D02*
G01*
X133828900Y-169874600D01*
X133828900Y-172097600D01*
X136657400Y-172097600D01*
X136657400Y-169874600D01*
G37*
X133967400Y-168020400D02*
X133828900Y-168020400D01*
X133828900Y-169798400D01*
X133967400Y-169798400D01*
X133967400Y-168020400D01*
G36*
X133967400Y-168020400D02*
G01*
X133828900Y-168020400D01*
X133828900Y-169798400D01*
X133967400Y-169798400D01*
X133967400Y-168020400D01*
G37*
X136657400Y-168020400D02*
X136507400Y-168020400D01*
X136507400Y-169798400D01*
X136657400Y-169798400D01*
X136657400Y-168020400D01*
G36*
X136657400Y-168020400D02*
G01*
X136507400Y-168020400D01*
X136507400Y-169798400D01*
X136657400Y-169798400D01*
X136657400Y-168020400D01*
G37*
X136651650Y-165709000D02*
X133823150Y-165709000D01*
X133823150Y-167944200D01*
X136651650Y-167944200D01*
X136651650Y-165709000D01*
G36*
X136651650Y-165709000D02*
G01*
X133823150Y-165709000D01*
X133823150Y-167944200D01*
X136651650Y-167944200D01*
X136651650Y-165709000D01*
G37*
%TO.C,D18*%
X111282800Y-152280600D02*
X108442800Y-152280600D01*
X111282800Y-152280600D02*
X111282800Y-151630600D01*
X111282800Y-149980600D02*
X108442800Y-149980600D01*
X111282800Y-152095800D02*
X108454300Y-152095800D01*
X108454300Y-154318800D01*
X111282800Y-154318800D01*
X111282800Y-152095800D01*
G36*
X111282800Y-152095800D02*
G01*
X108454300Y-152095800D01*
X108454300Y-154318800D01*
X111282800Y-154318800D01*
X111282800Y-152095800D01*
G37*
X108592800Y-150241600D02*
X108454300Y-150241600D01*
X108454300Y-152019600D01*
X108592800Y-152019600D01*
X108592800Y-150241600D01*
G36*
X108592800Y-150241600D02*
G01*
X108454300Y-150241600D01*
X108454300Y-152019600D01*
X108592800Y-152019600D01*
X108592800Y-150241600D01*
G37*
X111282800Y-150241600D02*
X111132800Y-150241600D01*
X111132800Y-152019600D01*
X111282800Y-152019600D01*
X111282800Y-150241600D01*
G36*
X111282800Y-150241600D02*
G01*
X111132800Y-150241600D01*
X111132800Y-152019600D01*
X111282800Y-152019600D01*
X111282800Y-150241600D01*
G37*
X111277050Y-147930200D02*
X108448550Y-147930200D01*
X108448550Y-150165400D01*
X111277050Y-150165400D01*
X111277050Y-147930200D01*
G36*
X111277050Y-147930200D02*
G01*
X108448550Y-147930200D01*
X108448550Y-150165400D01*
X111277050Y-150165400D01*
X111277050Y-147930200D01*
G37*
%TO.C,D73*%
X119895000Y-180190000D02*
X119895000Y-183030000D01*
X119895000Y-180190000D02*
X119245000Y-180190000D01*
X117595000Y-180190000D02*
X117595000Y-183030000D01*
X119710200Y-180190000D02*
X121933200Y-180190000D01*
X121933200Y-183018500D01*
X119710200Y-183018500D01*
X119710200Y-180190000D01*
G36*
X119710200Y-180190000D02*
G01*
X121933200Y-180190000D01*
X121933200Y-183018500D01*
X119710200Y-183018500D01*
X119710200Y-180190000D01*
G37*
X117856000Y-182880000D02*
X119634000Y-182880000D01*
X119634000Y-183018500D01*
X117856000Y-183018500D01*
X117856000Y-182880000D01*
G36*
X117856000Y-182880000D02*
G01*
X119634000Y-182880000D01*
X119634000Y-183018500D01*
X117856000Y-183018500D01*
X117856000Y-182880000D01*
G37*
X117856000Y-180190000D02*
X119634000Y-180190000D01*
X119634000Y-180340000D01*
X117856000Y-180340000D01*
X117856000Y-180190000D01*
G36*
X117856000Y-180190000D02*
G01*
X119634000Y-180190000D01*
X119634000Y-180340000D01*
X117856000Y-180340000D01*
X117856000Y-180190000D01*
G37*
X115544600Y-180195750D02*
X117779800Y-180195750D01*
X117779800Y-183024250D01*
X115544600Y-183024250D01*
X115544600Y-180195750D01*
G36*
X115544600Y-180195750D02*
G01*
X117779800Y-180195750D01*
X117779800Y-183024250D01*
X115544600Y-183024250D01*
X115544600Y-180195750D01*
G37*
%TO.C,D30*%
X141770600Y-152279400D02*
X138930600Y-152279400D01*
X141770600Y-152279400D02*
X141770600Y-151629400D01*
X141770600Y-149979400D02*
X138930600Y-149979400D01*
X141770600Y-152094600D02*
X138942100Y-152094600D01*
X138942100Y-154317600D01*
X141770600Y-154317600D01*
X141770600Y-152094600D01*
G36*
X141770600Y-152094600D02*
G01*
X138942100Y-152094600D01*
X138942100Y-154317600D01*
X141770600Y-154317600D01*
X141770600Y-152094600D01*
G37*
X139080600Y-150240400D02*
X138942100Y-150240400D01*
X138942100Y-152018400D01*
X139080600Y-152018400D01*
X139080600Y-150240400D01*
G36*
X139080600Y-150240400D02*
G01*
X138942100Y-150240400D01*
X138942100Y-152018400D01*
X139080600Y-152018400D01*
X139080600Y-150240400D01*
G37*
X141770600Y-150240400D02*
X141620600Y-150240400D01*
X141620600Y-152018400D01*
X141770600Y-152018400D01*
X141770600Y-150240400D01*
G36*
X141770600Y-150240400D02*
G01*
X141620600Y-150240400D01*
X141620600Y-152018400D01*
X141770600Y-152018400D01*
X141770600Y-150240400D01*
G37*
X141764850Y-147929000D02*
X138936350Y-147929000D01*
X138936350Y-150164200D01*
X141764850Y-150164200D01*
X141764850Y-147929000D01*
G36*
X141764850Y-147929000D02*
G01*
X138936350Y-147929000D01*
X138936350Y-150164200D01*
X141764850Y-150164200D01*
X141764850Y-147929000D01*
G37*
%TO.C,D3*%
X73166200Y-152280000D02*
X70326200Y-152280000D01*
X73166200Y-152280000D02*
X73166200Y-151630000D01*
X73166200Y-149980000D02*
X70326200Y-149980000D01*
X73166200Y-152095200D02*
X70337700Y-152095200D01*
X70337700Y-154318200D01*
X73166200Y-154318200D01*
X73166200Y-152095200D01*
G36*
X73166200Y-152095200D02*
G01*
X70337700Y-152095200D01*
X70337700Y-154318200D01*
X73166200Y-154318200D01*
X73166200Y-152095200D01*
G37*
X70476200Y-150241000D02*
X70337700Y-150241000D01*
X70337700Y-152019000D01*
X70476200Y-152019000D01*
X70476200Y-150241000D01*
G36*
X70476200Y-150241000D02*
G01*
X70337700Y-150241000D01*
X70337700Y-152019000D01*
X70476200Y-152019000D01*
X70476200Y-150241000D01*
G37*
X73166200Y-150241000D02*
X73016200Y-150241000D01*
X73016200Y-152019000D01*
X73166200Y-152019000D01*
X73166200Y-150241000D01*
G36*
X73166200Y-150241000D02*
G01*
X73016200Y-150241000D01*
X73016200Y-152019000D01*
X73166200Y-152019000D01*
X73166200Y-150241000D01*
G37*
X73160450Y-147929600D02*
X70331950Y-147929600D01*
X70331950Y-150164800D01*
X73160450Y-150164800D01*
X73160450Y-147929600D01*
G36*
X73160450Y-147929600D02*
G01*
X70331950Y-147929600D01*
X70331950Y-150164800D01*
X73160450Y-150164800D01*
X73160450Y-147929600D01*
G37*
%TO.C,D9*%
X88406200Y-152280000D02*
X85566200Y-152280000D01*
X88406200Y-152280000D02*
X88406200Y-151630000D01*
X88406200Y-149980000D02*
X85566200Y-149980000D01*
X88406200Y-152095200D02*
X85577700Y-152095200D01*
X85577700Y-154318200D01*
X88406200Y-154318200D01*
X88406200Y-152095200D01*
G36*
X88406200Y-152095200D02*
G01*
X85577700Y-152095200D01*
X85577700Y-154318200D01*
X88406200Y-154318200D01*
X88406200Y-152095200D01*
G37*
X85716200Y-150241000D02*
X85577700Y-150241000D01*
X85577700Y-152019000D01*
X85716200Y-152019000D01*
X85716200Y-150241000D01*
G36*
X85716200Y-150241000D02*
G01*
X85577700Y-150241000D01*
X85577700Y-152019000D01*
X85716200Y-152019000D01*
X85716200Y-150241000D01*
G37*
X88406200Y-150241000D02*
X88256200Y-150241000D01*
X88256200Y-152019000D01*
X88406200Y-152019000D01*
X88406200Y-150241000D01*
G36*
X88406200Y-150241000D02*
G01*
X88256200Y-150241000D01*
X88256200Y-152019000D01*
X88406200Y-152019000D01*
X88406200Y-150241000D01*
G37*
X88400450Y-147929600D02*
X85571950Y-147929600D01*
X85571950Y-150164800D01*
X88400450Y-150164800D01*
X88400450Y-147929600D01*
G36*
X88400450Y-147929600D02*
G01*
X85571950Y-147929600D01*
X85571950Y-150164800D01*
X88400450Y-150164800D01*
X88400450Y-147929600D01*
G37*
%TO.C,D12*%
X96042800Y-152280600D02*
X93202800Y-152280600D01*
X96042800Y-152280600D02*
X96042800Y-151630600D01*
X96042800Y-149980600D02*
X93202800Y-149980600D01*
X96042800Y-152095800D02*
X93214300Y-152095800D01*
X93214300Y-154318800D01*
X96042800Y-154318800D01*
X96042800Y-152095800D01*
G36*
X96042800Y-152095800D02*
G01*
X93214300Y-152095800D01*
X93214300Y-154318800D01*
X96042800Y-154318800D01*
X96042800Y-152095800D01*
G37*
X93352800Y-150241600D02*
X93214300Y-150241600D01*
X93214300Y-152019600D01*
X93352800Y-152019600D01*
X93352800Y-150241600D01*
G36*
X93352800Y-150241600D02*
G01*
X93214300Y-150241600D01*
X93214300Y-152019600D01*
X93352800Y-152019600D01*
X93352800Y-150241600D01*
G37*
X96042800Y-150241600D02*
X95892800Y-150241600D01*
X95892800Y-152019600D01*
X96042800Y-152019600D01*
X96042800Y-150241600D01*
G36*
X96042800Y-150241600D02*
G01*
X95892800Y-150241600D01*
X95892800Y-152019600D01*
X96042800Y-152019600D01*
X96042800Y-150241600D01*
G37*
X96037050Y-147930200D02*
X93208550Y-147930200D01*
X93208550Y-150165400D01*
X96037050Y-150165400D01*
X96037050Y-147930200D01*
G36*
X96037050Y-147930200D02*
G01*
X93208550Y-147930200D01*
X93208550Y-150165400D01*
X96037050Y-150165400D01*
X96037050Y-147930200D01*
G37*
%TO.C,D81*%
X74175000Y-134470000D02*
X74175000Y-137310000D01*
X74175000Y-134470000D02*
X73525000Y-134470000D01*
X71875000Y-134470000D02*
X71875000Y-137310000D01*
X73990200Y-134470000D02*
X76213200Y-134470000D01*
X76213200Y-137298500D01*
X73990200Y-137298500D01*
X73990200Y-134470000D01*
G36*
X73990200Y-134470000D02*
G01*
X76213200Y-134470000D01*
X76213200Y-137298500D01*
X73990200Y-137298500D01*
X73990200Y-134470000D01*
G37*
X72136000Y-137160000D02*
X73914000Y-137160000D01*
X73914000Y-137298500D01*
X72136000Y-137298500D01*
X72136000Y-137160000D01*
G36*
X72136000Y-137160000D02*
G01*
X73914000Y-137160000D01*
X73914000Y-137298500D01*
X72136000Y-137298500D01*
X72136000Y-137160000D01*
G37*
X72136000Y-134470000D02*
X73914000Y-134470000D01*
X73914000Y-134620000D01*
X72136000Y-134620000D01*
X72136000Y-134470000D01*
G36*
X72136000Y-134470000D02*
G01*
X73914000Y-134470000D01*
X73914000Y-134620000D01*
X72136000Y-134620000D01*
X72136000Y-134470000D01*
G37*
X69824600Y-134475750D02*
X72059800Y-134475750D01*
X72059800Y-137304250D01*
X69824600Y-137304250D01*
X69824600Y-134475750D01*
G36*
X69824600Y-134475750D02*
G01*
X72059800Y-134475750D01*
X72059800Y-137304250D01*
X69824600Y-137304250D01*
X69824600Y-134475750D01*
G37*
%TO.C,D21*%
X118902800Y-152279400D02*
X116062800Y-152279400D01*
X118902800Y-152279400D02*
X118902800Y-151629400D01*
X118902800Y-149979400D02*
X116062800Y-149979400D01*
X118902800Y-152094600D02*
X116074300Y-152094600D01*
X116074300Y-154317600D01*
X118902800Y-154317600D01*
X118902800Y-152094600D01*
G36*
X118902800Y-152094600D02*
G01*
X116074300Y-152094600D01*
X116074300Y-154317600D01*
X118902800Y-154317600D01*
X118902800Y-152094600D01*
G37*
X116212800Y-150240400D02*
X116074300Y-150240400D01*
X116074300Y-152018400D01*
X116212800Y-152018400D01*
X116212800Y-150240400D01*
G36*
X116212800Y-150240400D02*
G01*
X116074300Y-150240400D01*
X116074300Y-152018400D01*
X116212800Y-152018400D01*
X116212800Y-150240400D01*
G37*
X118902800Y-150240400D02*
X118752800Y-150240400D01*
X118752800Y-152018400D01*
X118902800Y-152018400D01*
X118902800Y-150240400D01*
G36*
X118902800Y-150240400D02*
G01*
X118752800Y-150240400D01*
X118752800Y-152018400D01*
X118902800Y-152018400D01*
X118902800Y-150240400D01*
G37*
X118897050Y-147929000D02*
X116068550Y-147929000D01*
X116068550Y-150164200D01*
X118897050Y-150164200D01*
X118897050Y-147929000D01*
G36*
X118897050Y-147929000D02*
G01*
X116068550Y-147929000D01*
X116068550Y-150164200D01*
X118897050Y-150164200D01*
X118897050Y-147929000D01*
G37*
%TO.C,D51*%
X118869600Y-170059400D02*
X116029600Y-170059400D01*
X118869600Y-170059400D02*
X118869600Y-169409400D01*
X118869600Y-167759400D02*
X116029600Y-167759400D01*
X118869600Y-169874600D02*
X116041100Y-169874600D01*
X116041100Y-172097600D01*
X118869600Y-172097600D01*
X118869600Y-169874600D01*
G36*
X118869600Y-169874600D02*
G01*
X116041100Y-169874600D01*
X116041100Y-172097600D01*
X118869600Y-172097600D01*
X118869600Y-169874600D01*
G37*
X116179600Y-168020400D02*
X116041100Y-168020400D01*
X116041100Y-169798400D01*
X116179600Y-169798400D01*
X116179600Y-168020400D01*
G36*
X116179600Y-168020400D02*
G01*
X116041100Y-168020400D01*
X116041100Y-169798400D01*
X116179600Y-169798400D01*
X116179600Y-168020400D01*
G37*
X118869600Y-168020400D02*
X118719600Y-168020400D01*
X118719600Y-169798400D01*
X118869600Y-169798400D01*
X118869600Y-168020400D01*
G36*
X118869600Y-168020400D02*
G01*
X118719600Y-168020400D01*
X118719600Y-169798400D01*
X118869600Y-169798400D01*
X118869600Y-168020400D01*
G37*
X118863850Y-165709000D02*
X116035350Y-165709000D01*
X116035350Y-167944200D01*
X118863850Y-167944200D01*
X118863850Y-165709000D01*
G36*
X118863850Y-165709000D02*
G01*
X116035350Y-165709000D01*
X116035350Y-167944200D01*
X118863850Y-167944200D01*
X118863850Y-165709000D01*
G37*
%TO.C,D1*%
X68086200Y-152280000D02*
X65246200Y-152280000D01*
X68086200Y-152280000D02*
X68086200Y-151630000D01*
X68086200Y-149980000D02*
X65246200Y-149980000D01*
X68086200Y-152095200D02*
X65257700Y-152095200D01*
X65257700Y-154318200D01*
X68086200Y-154318200D01*
X68086200Y-152095200D01*
G36*
X68086200Y-152095200D02*
G01*
X65257700Y-152095200D01*
X65257700Y-154318200D01*
X68086200Y-154318200D01*
X68086200Y-152095200D01*
G37*
X65396200Y-150241000D02*
X65257700Y-150241000D01*
X65257700Y-152019000D01*
X65396200Y-152019000D01*
X65396200Y-150241000D01*
G36*
X65396200Y-150241000D02*
G01*
X65257700Y-150241000D01*
X65257700Y-152019000D01*
X65396200Y-152019000D01*
X65396200Y-150241000D01*
G37*
X68086200Y-150241000D02*
X67936200Y-150241000D01*
X67936200Y-152019000D01*
X68086200Y-152019000D01*
X68086200Y-150241000D01*
G36*
X68086200Y-150241000D02*
G01*
X67936200Y-150241000D01*
X67936200Y-152019000D01*
X68086200Y-152019000D01*
X68086200Y-150241000D01*
G37*
X68080450Y-147929600D02*
X65251950Y-147929600D01*
X65251950Y-150164800D01*
X68080450Y-150164800D01*
X68080450Y-147929600D01*
G36*
X68080450Y-147929600D02*
G01*
X65251950Y-147929600D01*
X65251950Y-150164800D01*
X68080450Y-150164800D01*
X68080450Y-147929600D01*
G37*
%TO.C,D59*%
X139197400Y-170059400D02*
X136357400Y-170059400D01*
X139197400Y-170059400D02*
X139197400Y-169409400D01*
X139197400Y-167759400D02*
X136357400Y-167759400D01*
X139197400Y-169874600D02*
X136368900Y-169874600D01*
X136368900Y-172097600D01*
X139197400Y-172097600D01*
X139197400Y-169874600D01*
G36*
X139197400Y-169874600D02*
G01*
X136368900Y-169874600D01*
X136368900Y-172097600D01*
X139197400Y-172097600D01*
X139197400Y-169874600D01*
G37*
X136507400Y-168020400D02*
X136368900Y-168020400D01*
X136368900Y-169798400D01*
X136507400Y-169798400D01*
X136507400Y-168020400D01*
G36*
X136507400Y-168020400D02*
G01*
X136368900Y-168020400D01*
X136368900Y-169798400D01*
X136507400Y-169798400D01*
X136507400Y-168020400D01*
G37*
X139197400Y-168020400D02*
X139047400Y-168020400D01*
X139047400Y-169798400D01*
X139197400Y-169798400D01*
X139197400Y-168020400D01*
G36*
X139197400Y-168020400D02*
G01*
X139047400Y-168020400D01*
X139047400Y-169798400D01*
X139197400Y-169798400D01*
X139197400Y-168020400D01*
G37*
X139191650Y-165709000D02*
X136363150Y-165709000D01*
X136363150Y-167944200D01*
X139191650Y-167944200D01*
X139191650Y-165709000D01*
G36*
X139191650Y-165709000D02*
G01*
X136363150Y-165709000D01*
X136363150Y-167944200D01*
X139191650Y-167944200D01*
X139191650Y-165709000D01*
G37*
%TO.C,D8*%
X85866200Y-152280000D02*
X83026200Y-152280000D01*
X85866200Y-152280000D02*
X85866200Y-151630000D01*
X85866200Y-149980000D02*
X83026200Y-149980000D01*
X85866200Y-152095200D02*
X83037700Y-152095200D01*
X83037700Y-154318200D01*
X85866200Y-154318200D01*
X85866200Y-152095200D01*
G36*
X85866200Y-152095200D02*
G01*
X83037700Y-152095200D01*
X83037700Y-154318200D01*
X85866200Y-154318200D01*
X85866200Y-152095200D01*
G37*
X83176200Y-150241000D02*
X83037700Y-150241000D01*
X83037700Y-152019000D01*
X83176200Y-152019000D01*
X83176200Y-150241000D01*
G36*
X83176200Y-150241000D02*
G01*
X83037700Y-150241000D01*
X83037700Y-152019000D01*
X83176200Y-152019000D01*
X83176200Y-150241000D01*
G37*
X85866200Y-150241000D02*
X85716200Y-150241000D01*
X85716200Y-152019000D01*
X85866200Y-152019000D01*
X85866200Y-150241000D01*
G36*
X85866200Y-150241000D02*
G01*
X85716200Y-150241000D01*
X85716200Y-152019000D01*
X85866200Y-152019000D01*
X85866200Y-150241000D01*
G37*
X85860450Y-147929600D02*
X83031950Y-147929600D01*
X83031950Y-150164800D01*
X85860450Y-150164800D01*
X85860450Y-147929600D01*
G36*
X85860450Y-147929600D02*
G01*
X83031950Y-147929600D01*
X83031950Y-150164800D01*
X85860450Y-150164800D01*
X85860450Y-147929600D01*
G37*
%TO.C,D35*%
X78196400Y-170058800D02*
X75356400Y-170058800D01*
X78196400Y-170058800D02*
X78196400Y-169408800D01*
X78196400Y-167758800D02*
X75356400Y-167758800D01*
X78196400Y-169874000D02*
X75367900Y-169874000D01*
X75367900Y-172097000D01*
X78196400Y-172097000D01*
X78196400Y-169874000D01*
G36*
X78196400Y-169874000D02*
G01*
X75367900Y-169874000D01*
X75367900Y-172097000D01*
X78196400Y-172097000D01*
X78196400Y-169874000D01*
G37*
X75506400Y-168019800D02*
X75367900Y-168019800D01*
X75367900Y-169797800D01*
X75506400Y-169797800D01*
X75506400Y-168019800D01*
G36*
X75506400Y-168019800D02*
G01*
X75367900Y-168019800D01*
X75367900Y-169797800D01*
X75506400Y-169797800D01*
X75506400Y-168019800D01*
G37*
X78196400Y-168019800D02*
X78046400Y-168019800D01*
X78046400Y-169797800D01*
X78196400Y-169797800D01*
X78196400Y-168019800D01*
G36*
X78196400Y-168019800D02*
G01*
X78046400Y-168019800D01*
X78046400Y-169797800D01*
X78196400Y-169797800D01*
X78196400Y-168019800D01*
G37*
X78190650Y-165708400D02*
X75362150Y-165708400D01*
X75362150Y-167943600D01*
X78190650Y-167943600D01*
X78190650Y-165708400D01*
G36*
X78190650Y-165708400D02*
G01*
X75362150Y-165708400D01*
X75362150Y-167943600D01*
X78190650Y-167943600D01*
X78190650Y-165708400D01*
G37*
%TO.C,D10*%
X90946200Y-152280000D02*
X88106200Y-152280000D01*
X90946200Y-152280000D02*
X90946200Y-151630000D01*
X90946200Y-149980000D02*
X88106200Y-149980000D01*
X90946200Y-152095200D02*
X88117700Y-152095200D01*
X88117700Y-154318200D01*
X90946200Y-154318200D01*
X90946200Y-152095200D01*
G36*
X90946200Y-152095200D02*
G01*
X88117700Y-152095200D01*
X88117700Y-154318200D01*
X90946200Y-154318200D01*
X90946200Y-152095200D01*
G37*
X88256200Y-150241000D02*
X88117700Y-150241000D01*
X88117700Y-152019000D01*
X88256200Y-152019000D01*
X88256200Y-150241000D01*
G36*
X88256200Y-150241000D02*
G01*
X88117700Y-150241000D01*
X88117700Y-152019000D01*
X88256200Y-152019000D01*
X88256200Y-150241000D01*
G37*
X90946200Y-150241000D02*
X90796200Y-150241000D01*
X90796200Y-152019000D01*
X90946200Y-152019000D01*
X90946200Y-150241000D01*
G36*
X90946200Y-150241000D02*
G01*
X90796200Y-150241000D01*
X90796200Y-152019000D01*
X90946200Y-152019000D01*
X90946200Y-150241000D01*
G37*
X90940450Y-147929600D02*
X88111950Y-147929600D01*
X88111950Y-150164800D01*
X90940450Y-150164800D01*
X90940450Y-147929600D01*
G36*
X90940450Y-147929600D02*
G01*
X88111950Y-147929600D01*
X88111950Y-150164800D01*
X90940450Y-150164800D01*
X90940450Y-147929600D01*
G37*
%TO.C,D47*%
X108693000Y-170060600D02*
X105853000Y-170060600D01*
X108693000Y-170060600D02*
X108693000Y-169410600D01*
X108693000Y-167760600D02*
X105853000Y-167760600D01*
X108693000Y-169875800D02*
X105864500Y-169875800D01*
X105864500Y-172098800D01*
X108693000Y-172098800D01*
X108693000Y-169875800D01*
G36*
X108693000Y-169875800D02*
G01*
X105864500Y-169875800D01*
X105864500Y-172098800D01*
X108693000Y-172098800D01*
X108693000Y-169875800D01*
G37*
X106003000Y-168021600D02*
X105864500Y-168021600D01*
X105864500Y-169799600D01*
X106003000Y-169799600D01*
X106003000Y-168021600D01*
G36*
X106003000Y-168021600D02*
G01*
X105864500Y-168021600D01*
X105864500Y-169799600D01*
X106003000Y-169799600D01*
X106003000Y-168021600D01*
G37*
X108693000Y-168021600D02*
X108543000Y-168021600D01*
X108543000Y-169799600D01*
X108693000Y-169799600D01*
X108693000Y-168021600D01*
G36*
X108693000Y-168021600D02*
G01*
X108543000Y-168021600D01*
X108543000Y-169799600D01*
X108693000Y-169799600D01*
X108693000Y-168021600D01*
G37*
X108687250Y-165710200D02*
X105858750Y-165710200D01*
X105858750Y-167945400D01*
X108687250Y-167945400D01*
X108687250Y-165710200D01*
G36*
X108687250Y-165710200D02*
G01*
X105858750Y-165710200D01*
X105858750Y-167945400D01*
X108687250Y-167945400D01*
X108687250Y-165710200D01*
G37*
%TO.C,D72*%
X135135000Y-180190000D02*
X135135000Y-183030000D01*
X135135000Y-180190000D02*
X134485000Y-180190000D01*
X132835000Y-180190000D02*
X132835000Y-183030000D01*
X134950200Y-180190000D02*
X137173200Y-180190000D01*
X137173200Y-183018500D01*
X134950200Y-183018500D01*
X134950200Y-180190000D01*
G36*
X134950200Y-180190000D02*
G01*
X137173200Y-180190000D01*
X137173200Y-183018500D01*
X134950200Y-183018500D01*
X134950200Y-180190000D01*
G37*
X133096000Y-182880000D02*
X134874000Y-182880000D01*
X134874000Y-183018500D01*
X133096000Y-183018500D01*
X133096000Y-182880000D01*
G36*
X133096000Y-182880000D02*
G01*
X134874000Y-182880000D01*
X134874000Y-183018500D01*
X133096000Y-183018500D01*
X133096000Y-182880000D01*
G37*
X133096000Y-180190000D02*
X134874000Y-180190000D01*
X134874000Y-180340000D01*
X133096000Y-180340000D01*
X133096000Y-180190000D01*
G36*
X133096000Y-180190000D02*
G01*
X134874000Y-180190000D01*
X134874000Y-180340000D01*
X133096000Y-180340000D01*
X133096000Y-180190000D01*
G37*
X130784600Y-180195750D02*
X133019800Y-180195750D01*
X133019800Y-183024250D01*
X130784600Y-183024250D01*
X130784600Y-180195750D01*
G36*
X130784600Y-180195750D02*
G01*
X133019800Y-180195750D01*
X133019800Y-183024250D01*
X130784600Y-183024250D01*
X130784600Y-180195750D01*
G37*
%TO.C,D24*%
X126530600Y-152279400D02*
X123690600Y-152279400D01*
X126530600Y-152279400D02*
X126530600Y-151629400D01*
X126530600Y-149979400D02*
X123690600Y-149979400D01*
X126530600Y-152094600D02*
X123702100Y-152094600D01*
X123702100Y-154317600D01*
X126530600Y-154317600D01*
X126530600Y-152094600D01*
G36*
X126530600Y-152094600D02*
G01*
X123702100Y-152094600D01*
X123702100Y-154317600D01*
X126530600Y-154317600D01*
X126530600Y-152094600D01*
G37*
X123840600Y-150240400D02*
X123702100Y-150240400D01*
X123702100Y-152018400D01*
X123840600Y-152018400D01*
X123840600Y-150240400D01*
G36*
X123840600Y-150240400D02*
G01*
X123702100Y-150240400D01*
X123702100Y-152018400D01*
X123840600Y-152018400D01*
X123840600Y-150240400D01*
G37*
X126530600Y-150240400D02*
X126380600Y-150240400D01*
X126380600Y-152018400D01*
X126530600Y-152018400D01*
X126530600Y-150240400D01*
G36*
X126530600Y-150240400D02*
G01*
X126380600Y-150240400D01*
X126380600Y-152018400D01*
X126530600Y-152018400D01*
X126530600Y-150240400D01*
G37*
X126524850Y-147929000D02*
X123696350Y-147929000D01*
X123696350Y-150164200D01*
X126524850Y-150164200D01*
X126524850Y-147929000D01*
G36*
X126524850Y-147929000D02*
G01*
X123696350Y-147929000D01*
X123696350Y-150164200D01*
X126524850Y-150164200D01*
X126524850Y-147929000D01*
G37*
%TO.C,D74*%
X119895000Y-182730000D02*
X119895000Y-185570000D01*
X119895000Y-182730000D02*
X119245000Y-182730000D01*
X117595000Y-182730000D02*
X117595000Y-185570000D01*
X119710200Y-182730000D02*
X121933200Y-182730000D01*
X121933200Y-185558500D01*
X119710200Y-185558500D01*
X119710200Y-182730000D01*
G36*
X119710200Y-182730000D02*
G01*
X121933200Y-182730000D01*
X121933200Y-185558500D01*
X119710200Y-185558500D01*
X119710200Y-182730000D01*
G37*
X117856000Y-185420000D02*
X119634000Y-185420000D01*
X119634000Y-185558500D01*
X117856000Y-185558500D01*
X117856000Y-185420000D01*
G36*
X117856000Y-185420000D02*
G01*
X119634000Y-185420000D01*
X119634000Y-185558500D01*
X117856000Y-185558500D01*
X117856000Y-185420000D01*
G37*
X117856000Y-182730000D02*
X119634000Y-182730000D01*
X119634000Y-182880000D01*
X117856000Y-182880000D01*
X117856000Y-182730000D01*
G36*
X117856000Y-182730000D02*
G01*
X119634000Y-182730000D01*
X119634000Y-182880000D01*
X117856000Y-182880000D01*
X117856000Y-182730000D01*
G37*
X115544600Y-182735750D02*
X117779800Y-182735750D01*
X117779800Y-185564250D01*
X115544600Y-185564250D01*
X115544600Y-182735750D01*
G36*
X115544600Y-182735750D02*
G01*
X117779800Y-182735750D01*
X117779800Y-185564250D01*
X115544600Y-185564250D01*
X115544600Y-182735750D01*
G37*
%TO.C,D57*%
X134117400Y-170059400D02*
X131277400Y-170059400D01*
X134117400Y-170059400D02*
X134117400Y-169409400D01*
X134117400Y-167759400D02*
X131277400Y-167759400D01*
X134117400Y-169874600D02*
X131288900Y-169874600D01*
X131288900Y-172097600D01*
X134117400Y-172097600D01*
X134117400Y-169874600D01*
G36*
X134117400Y-169874600D02*
G01*
X131288900Y-169874600D01*
X131288900Y-172097600D01*
X134117400Y-172097600D01*
X134117400Y-169874600D01*
G37*
X131427400Y-168020400D02*
X131288900Y-168020400D01*
X131288900Y-169798400D01*
X131427400Y-169798400D01*
X131427400Y-168020400D01*
G36*
X131427400Y-168020400D02*
G01*
X131288900Y-168020400D01*
X131288900Y-169798400D01*
X131427400Y-169798400D01*
X131427400Y-168020400D01*
G37*
X134117400Y-168020400D02*
X133967400Y-168020400D01*
X133967400Y-169798400D01*
X134117400Y-169798400D01*
X134117400Y-168020400D01*
G36*
X134117400Y-168020400D02*
G01*
X133967400Y-168020400D01*
X133967400Y-169798400D01*
X134117400Y-169798400D01*
X134117400Y-168020400D01*
G37*
X134111650Y-165709000D02*
X131283150Y-165709000D01*
X131283150Y-167944200D01*
X134111650Y-167944200D01*
X134111650Y-165709000D01*
G36*
X134111650Y-165709000D02*
G01*
X131283150Y-165709000D01*
X131283150Y-167944200D01*
X134111650Y-167944200D01*
X134111650Y-165709000D01*
G37*
%TO.C,D41*%
X93444200Y-170059400D02*
X90604200Y-170059400D01*
X93444200Y-170059400D02*
X93444200Y-169409400D01*
X93444200Y-167759400D02*
X90604200Y-167759400D01*
X93444200Y-169874600D02*
X90615700Y-169874600D01*
X90615700Y-172097600D01*
X93444200Y-172097600D01*
X93444200Y-169874600D01*
G36*
X93444200Y-169874600D02*
G01*
X90615700Y-169874600D01*
X90615700Y-172097600D01*
X93444200Y-172097600D01*
X93444200Y-169874600D01*
G37*
X90754200Y-168020400D02*
X90615700Y-168020400D01*
X90615700Y-169798400D01*
X90754200Y-169798400D01*
X90754200Y-168020400D01*
G36*
X90754200Y-168020400D02*
G01*
X90615700Y-168020400D01*
X90615700Y-169798400D01*
X90754200Y-169798400D01*
X90754200Y-168020400D01*
G37*
X93444200Y-168020400D02*
X93294200Y-168020400D01*
X93294200Y-169798400D01*
X93444200Y-169798400D01*
X93444200Y-168020400D01*
G36*
X93444200Y-168020400D02*
G01*
X93294200Y-168020400D01*
X93294200Y-169798400D01*
X93444200Y-169798400D01*
X93444200Y-168020400D01*
G37*
X93438450Y-165709000D02*
X90609950Y-165709000D01*
X90609950Y-167944200D01*
X93438450Y-167944200D01*
X93438450Y-165709000D01*
G36*
X93438450Y-165709000D02*
G01*
X90609950Y-165709000D01*
X90609950Y-167944200D01*
X93438450Y-167944200D01*
X93438450Y-165709000D01*
G37*
%TO.C,D22*%
X121450600Y-152279400D02*
X118610600Y-152279400D01*
X121450600Y-152279400D02*
X121450600Y-151629400D01*
X121450600Y-149979400D02*
X118610600Y-149979400D01*
X121450600Y-152094600D02*
X118622100Y-152094600D01*
X118622100Y-154317600D01*
X121450600Y-154317600D01*
X121450600Y-152094600D01*
G36*
X121450600Y-152094600D02*
G01*
X118622100Y-152094600D01*
X118622100Y-154317600D01*
X121450600Y-154317600D01*
X121450600Y-152094600D01*
G37*
X118760600Y-150240400D02*
X118622100Y-150240400D01*
X118622100Y-152018400D01*
X118760600Y-152018400D01*
X118760600Y-150240400D01*
G36*
X118760600Y-150240400D02*
G01*
X118622100Y-150240400D01*
X118622100Y-152018400D01*
X118760600Y-152018400D01*
X118760600Y-150240400D01*
G37*
X121450600Y-150240400D02*
X121300600Y-150240400D01*
X121300600Y-152018400D01*
X121450600Y-152018400D01*
X121450600Y-150240400D01*
G36*
X121450600Y-150240400D02*
G01*
X121300600Y-150240400D01*
X121300600Y-152018400D01*
X121450600Y-152018400D01*
X121450600Y-150240400D01*
G37*
X121444850Y-147929000D02*
X118616350Y-147929000D01*
X118616350Y-150164200D01*
X121444850Y-150164200D01*
X121444850Y-147929000D01*
G36*
X121444850Y-147929000D02*
G01*
X118616350Y-147929000D01*
X118616350Y-150164200D01*
X121444850Y-150164200D01*
X121444850Y-147929000D01*
G37*
%TO.C,D75*%
X104655000Y-182730000D02*
X104655000Y-185570000D01*
X104655000Y-182730000D02*
X104005000Y-182730000D01*
X102355000Y-182730000D02*
X102355000Y-185570000D01*
X104470200Y-182730000D02*
X106693200Y-182730000D01*
X106693200Y-185558500D01*
X104470200Y-185558500D01*
X104470200Y-182730000D01*
G36*
X104470200Y-182730000D02*
G01*
X106693200Y-182730000D01*
X106693200Y-185558500D01*
X104470200Y-185558500D01*
X104470200Y-182730000D01*
G37*
X102616000Y-185420000D02*
X104394000Y-185420000D01*
X104394000Y-185558500D01*
X102616000Y-185558500D01*
X102616000Y-185420000D01*
G36*
X102616000Y-185420000D02*
G01*
X104394000Y-185420000D01*
X104394000Y-185558500D01*
X102616000Y-185558500D01*
X102616000Y-185420000D01*
G37*
X102616000Y-182730000D02*
X104394000Y-182730000D01*
X104394000Y-182880000D01*
X102616000Y-182880000D01*
X102616000Y-182730000D01*
G36*
X102616000Y-182730000D02*
G01*
X104394000Y-182730000D01*
X104394000Y-182880000D01*
X102616000Y-182880000D01*
X102616000Y-182730000D01*
G37*
X100304600Y-182735750D02*
X102539800Y-182735750D01*
X102539800Y-185564250D01*
X100304600Y-185564250D01*
X100304600Y-182735750D01*
G36*
X100304600Y-182735750D02*
G01*
X102539800Y-182735750D01*
X102539800Y-185564250D01*
X100304600Y-185564250D01*
X100304600Y-182735750D01*
G37*
%TO.C,D6*%
X80786200Y-152280000D02*
X77946200Y-152280000D01*
X80786200Y-152280000D02*
X80786200Y-151630000D01*
X80786200Y-149980000D02*
X77946200Y-149980000D01*
X80786200Y-152095200D02*
X77957700Y-152095200D01*
X77957700Y-154318200D01*
X80786200Y-154318200D01*
X80786200Y-152095200D01*
G36*
X80786200Y-152095200D02*
G01*
X77957700Y-152095200D01*
X77957700Y-154318200D01*
X80786200Y-154318200D01*
X80786200Y-152095200D01*
G37*
X78096200Y-150241000D02*
X77957700Y-150241000D01*
X77957700Y-152019000D01*
X78096200Y-152019000D01*
X78096200Y-150241000D01*
G36*
X78096200Y-150241000D02*
G01*
X77957700Y-150241000D01*
X77957700Y-152019000D01*
X78096200Y-152019000D01*
X78096200Y-150241000D01*
G37*
X80786200Y-150241000D02*
X80636200Y-150241000D01*
X80636200Y-152019000D01*
X80786200Y-152019000D01*
X80786200Y-150241000D01*
G36*
X80786200Y-150241000D02*
G01*
X80636200Y-150241000D01*
X80636200Y-152019000D01*
X80786200Y-152019000D01*
X80786200Y-150241000D01*
G37*
X80780450Y-147929600D02*
X77951950Y-147929600D01*
X77951950Y-150164800D01*
X80780450Y-150164800D01*
X80780450Y-147929600D01*
G36*
X80780450Y-147929600D02*
G01*
X77951950Y-147929600D01*
X77951950Y-150164800D01*
X80780450Y-150164800D01*
X80780450Y-147929600D01*
G37*
%TO.C,D49*%
X113773000Y-170060600D02*
X110933000Y-170060600D01*
X113773000Y-170060600D02*
X113773000Y-169410600D01*
X113773000Y-167760600D02*
X110933000Y-167760600D01*
X113773000Y-169875800D02*
X110944500Y-169875800D01*
X110944500Y-172098800D01*
X113773000Y-172098800D01*
X113773000Y-169875800D01*
G36*
X113773000Y-169875800D02*
G01*
X110944500Y-169875800D01*
X110944500Y-172098800D01*
X113773000Y-172098800D01*
X113773000Y-169875800D01*
G37*
X111083000Y-168021600D02*
X110944500Y-168021600D01*
X110944500Y-169799600D01*
X111083000Y-169799600D01*
X111083000Y-168021600D01*
G36*
X111083000Y-168021600D02*
G01*
X110944500Y-168021600D01*
X110944500Y-169799600D01*
X111083000Y-169799600D01*
X111083000Y-168021600D01*
G37*
X113773000Y-168021600D02*
X113623000Y-168021600D01*
X113623000Y-169799600D01*
X113773000Y-169799600D01*
X113773000Y-168021600D01*
G36*
X113773000Y-168021600D02*
G01*
X113623000Y-168021600D01*
X113623000Y-169799600D01*
X113773000Y-169799600D01*
X113773000Y-168021600D01*
G37*
X113767250Y-165710200D02*
X110938750Y-165710200D01*
X110938750Y-167945400D01*
X113767250Y-167945400D01*
X113767250Y-165710200D01*
G36*
X113767250Y-165710200D02*
G01*
X110938750Y-165710200D01*
X110938750Y-167945400D01*
X113767250Y-167945400D01*
X113767250Y-165710200D01*
G37*
%TO.C,D42*%
X95993000Y-170060600D02*
X93153000Y-170060600D01*
X95993000Y-170060600D02*
X95993000Y-169410600D01*
X95993000Y-167760600D02*
X93153000Y-167760600D01*
X95993000Y-169875800D02*
X93164500Y-169875800D01*
X93164500Y-172098800D01*
X95993000Y-172098800D01*
X95993000Y-169875800D01*
G36*
X95993000Y-169875800D02*
G01*
X93164500Y-169875800D01*
X93164500Y-172098800D01*
X95993000Y-172098800D01*
X95993000Y-169875800D01*
G37*
X93303000Y-168021600D02*
X93164500Y-168021600D01*
X93164500Y-169799600D01*
X93303000Y-169799600D01*
X93303000Y-168021600D01*
G36*
X93303000Y-168021600D02*
G01*
X93164500Y-168021600D01*
X93164500Y-169799600D01*
X93303000Y-169799600D01*
X93303000Y-168021600D01*
G37*
X95993000Y-168021600D02*
X95843000Y-168021600D01*
X95843000Y-169799600D01*
X95993000Y-169799600D01*
X95993000Y-168021600D01*
G36*
X95993000Y-168021600D02*
G01*
X95843000Y-168021600D01*
X95843000Y-169799600D01*
X95993000Y-169799600D01*
X95993000Y-168021600D01*
G37*
X95987250Y-165710200D02*
X93158750Y-165710200D01*
X93158750Y-167945400D01*
X95987250Y-167945400D01*
X95987250Y-165710200D01*
G36*
X95987250Y-165710200D02*
G01*
X93158750Y-165710200D01*
X93158750Y-167945400D01*
X95987250Y-167945400D01*
X95987250Y-165710200D01*
G37*
%TO.C,D5*%
X78246200Y-152280000D02*
X75406200Y-152280000D01*
X78246200Y-152280000D02*
X78246200Y-151630000D01*
X78246200Y-149980000D02*
X75406200Y-149980000D01*
X78246200Y-152095200D02*
X75417700Y-152095200D01*
X75417700Y-154318200D01*
X78246200Y-154318200D01*
X78246200Y-152095200D01*
G36*
X78246200Y-152095200D02*
G01*
X75417700Y-152095200D01*
X75417700Y-154318200D01*
X78246200Y-154318200D01*
X78246200Y-152095200D01*
G37*
X75556200Y-150241000D02*
X75417700Y-150241000D01*
X75417700Y-152019000D01*
X75556200Y-152019000D01*
X75556200Y-150241000D01*
G36*
X75556200Y-150241000D02*
G01*
X75417700Y-150241000D01*
X75417700Y-152019000D01*
X75556200Y-152019000D01*
X75556200Y-150241000D01*
G37*
X78246200Y-150241000D02*
X78096200Y-150241000D01*
X78096200Y-152019000D01*
X78246200Y-152019000D01*
X78246200Y-150241000D01*
G36*
X78246200Y-150241000D02*
G01*
X78096200Y-150241000D01*
X78096200Y-152019000D01*
X78246200Y-152019000D01*
X78246200Y-150241000D01*
G37*
X78240450Y-147929600D02*
X75411950Y-147929600D01*
X75411950Y-150164800D01*
X78240450Y-150164800D01*
X78240450Y-147929600D01*
G36*
X78240450Y-147929600D02*
G01*
X75411950Y-147929600D01*
X75411950Y-150164800D01*
X78240450Y-150164800D01*
X78240450Y-147929600D01*
G37*
%TD*%
%LPC*%
%TO.C,JP1*%
D17*
X129679700Y-128600200D02*
X130619500Y-128600200D01*
X130619500Y-127939800D01*
X129679700Y-127939800D01*
X129679700Y-128600200D01*
G36*
X129679700Y-128600200D02*
G01*
X130619500Y-128600200D01*
X130619500Y-127939800D01*
X129679700Y-127939800D01*
X129679700Y-128600200D01*
G37*
D18*
%TO.C,TP24*%
X64593587Y-125476000D02*
X64593587Y-130556000D01*
D12*
X65609586Y-130302000D02*
X65609586Y-130810000D01*
X65609586Y-130810000D02*
X66371586Y-130810000D01*
D18*
X65863587Y-124206000D02*
X67486414Y-124206000D01*
D12*
X66371586Y-129540000D02*
X66371586Y-130302000D01*
X66371586Y-130302000D02*
X65711186Y-130302000D01*
X66371586Y-130810000D02*
X66371586Y-131572000D01*
X66371586Y-131572000D02*
X66879586Y-131572000D01*
X66879586Y-129540000D02*
X66371586Y-129540000D01*
X66879586Y-129540000D02*
X66879586Y-130302000D01*
X66879586Y-130302000D02*
X67641586Y-130302000D01*
X66879586Y-130810000D02*
X67641586Y-130810000D01*
X66879586Y-131572000D02*
X66879586Y-130810000D01*
D18*
X67486414Y-131826000D02*
X65863587Y-131826000D01*
D12*
X67641586Y-130302000D02*
X67641586Y-130810000D01*
D18*
X68756414Y-125476000D02*
X68756414Y-130556000D01*
X64593587Y-125476000D02*
G75*
G02*
X65863587Y-124206000I1269999J1D01*
G01*
X65863587Y-131826000D02*
G75*
G02*
X64593587Y-130556000I-1J1269999D01*
G01*
X67486414Y-124206000D02*
G75*
G02*
X68756416Y-125476000I2J-1270000D01*
G01*
X68756414Y-130556000D02*
G75*
G02*
X67486414Y-131826000I-1270002J2D01*
G01*
D11*
X66244586Y-130175000D02*
X65736586Y-130175000D01*
X66244586Y-129667000D01*
X66244586Y-130175000D01*
G36*
X66244586Y-130175000D02*
G01*
X65736586Y-130175000D01*
X66244586Y-129667000D01*
X66244586Y-130175000D01*
G37*
X66244586Y-131445000D02*
X65736586Y-130937000D01*
X66244586Y-130937000D01*
X66244586Y-131445000D01*
G36*
X66244586Y-131445000D02*
G01*
X65736586Y-130937000D01*
X66244586Y-130937000D01*
X66244586Y-131445000D01*
G37*
X67514586Y-130175000D02*
X67006586Y-130175000D01*
X67006586Y-129794000D01*
X67514586Y-130175000D01*
G36*
X67514586Y-130175000D02*
G01*
X67006586Y-130175000D01*
X67006586Y-129794000D01*
X67514586Y-130175000D01*
G37*
X67006586Y-131445000D02*
X67006586Y-130937000D01*
X67641586Y-130937000D01*
X67006586Y-131445000D01*
G36*
X67006586Y-131445000D02*
G01*
X67006586Y-130937000D01*
X67641586Y-130937000D01*
X67006586Y-131445000D01*
G37*
X67641586Y-130302000D02*
X67514586Y-130175000D01*
X67641586Y-130048000D01*
X67641586Y-130302000D01*
G36*
X67641586Y-130302000D02*
G01*
X67514586Y-130175000D01*
X67641586Y-130048000D01*
X67641586Y-130302000D01*
G37*
D19*
X66879586Y-124714000D02*
X66117586Y-124714000D01*
X65101586Y-125730000D01*
X65101586Y-127254000D01*
X66117586Y-128270000D01*
X66879586Y-128270000D01*
X66879586Y-129540000D01*
X66470414Y-129540000D01*
X65609586Y-130302000D01*
X65609586Y-130810000D01*
X66371585Y-131572000D01*
X66879586Y-131572000D01*
X66879586Y-131826000D01*
X65863586Y-131826000D01*
X64965560Y-131454026D01*
X64593586Y-130556000D01*
X64593586Y-125476000D01*
X64965560Y-124577974D01*
X65863586Y-124206000D01*
X66879586Y-124206000D01*
X66879586Y-124714000D01*
G36*
X66879586Y-124714000D02*
G01*
X66117586Y-124714000D01*
X65101586Y-125730000D01*
X65101586Y-127254000D01*
X66117586Y-128270000D01*
X66879586Y-128270000D01*
X66879586Y-129540000D01*
X66470414Y-129540000D01*
X65609586Y-130302000D01*
X65609586Y-130810000D01*
X66371585Y-131572000D01*
X66879586Y-131572000D01*
X66879586Y-131826000D01*
X65863586Y-131826000D01*
X64965560Y-131454026D01*
X64593586Y-130556000D01*
X64593586Y-125476000D01*
X64965560Y-124577974D01*
X65863586Y-124206000D01*
X66879586Y-124206000D01*
X66879586Y-124714000D01*
G37*
X68384440Y-124577974D02*
X68756414Y-125476000D01*
X68756414Y-130556000D01*
X68384440Y-131454026D01*
X67486414Y-131826000D01*
X66470414Y-131826000D01*
X66470414Y-131572000D01*
X66879586Y-131572000D01*
X67740414Y-130810000D01*
X67740414Y-130302000D01*
X66724414Y-129540000D01*
X66470414Y-129540000D01*
X66470414Y-128270000D01*
X67232414Y-128270000D01*
X68248414Y-127254000D01*
X68248414Y-125730000D01*
X67232414Y-124714000D01*
X66470414Y-124714000D01*
X66470414Y-124206000D01*
X67486414Y-124206000D01*
X68384440Y-124577974D01*
G36*
X68384440Y-124577974D02*
G01*
X68756414Y-125476000D01*
X68756414Y-130556000D01*
X68384440Y-131454026D01*
X67486414Y-131826000D01*
X66470414Y-131826000D01*
X66470414Y-131572000D01*
X66879586Y-131572000D01*
X67740414Y-130810000D01*
X67740414Y-130302000D01*
X66724414Y-129540000D01*
X66470414Y-129540000D01*
X66470414Y-128270000D01*
X67232414Y-128270000D01*
X68248414Y-127254000D01*
X68248414Y-125730000D01*
X67232414Y-124714000D01*
X66470414Y-124714000D01*
X66470414Y-124206000D01*
X67486414Y-124206000D01*
X68384440Y-124577974D01*
G37*
%TO.C,JP2*%
D17*
X142049500Y-127939800D02*
X141109700Y-127939800D01*
X141109700Y-128600200D01*
X142049500Y-128600200D01*
X142049500Y-127939800D01*
G36*
X142049500Y-127939800D02*
G01*
X141109700Y-127939800D01*
X141109700Y-128600200D01*
X142049500Y-128600200D01*
X142049500Y-127939800D01*
G37*
D18*
%TO.C,TP26*%
X73483587Y-125476000D02*
X73483587Y-130556000D01*
D12*
X74499586Y-130302000D02*
X74499586Y-130810000D01*
X74499586Y-130810000D02*
X75515587Y-130810000D01*
D18*
X74753587Y-124206000D02*
X76376414Y-124206000D01*
D12*
X75261586Y-129540000D02*
X75261586Y-130302000D01*
X75261586Y-130810000D02*
X75261586Y-131572000D01*
X75261586Y-130810000D02*
X75769586Y-130810000D01*
X75515587Y-130302000D02*
X74601186Y-130302000D01*
X75769586Y-129540000D02*
X75769586Y-130302000D01*
X75769586Y-130302000D02*
X75261586Y-130302000D01*
X75769586Y-130302000D02*
X76531586Y-130302000D01*
X75769586Y-130810000D02*
X76531586Y-130810000D01*
X75769586Y-131572000D02*
X75769586Y-130810000D01*
D18*
X76376414Y-131826000D02*
X74753587Y-131826000D01*
D12*
X76531586Y-130302000D02*
X76531586Y-130810000D01*
D18*
X77646414Y-125476000D02*
X77646414Y-130556000D01*
X73483587Y-125476000D02*
G75*
G02*
X74753587Y-124206000I1269999J1D01*
G01*
X74753587Y-131826000D02*
G75*
G02*
X73483587Y-130556000I-1J1269999D01*
G01*
X76376414Y-124206000D02*
G75*
G02*
X77646416Y-125476000I2J-1270000D01*
G01*
X77646414Y-130556000D02*
G75*
G02*
X76376414Y-131826000I-1270002J2D01*
G01*
D19*
X75769587Y-124714000D02*
X75007587Y-124714000D01*
X73991587Y-125730000D01*
X73991587Y-127254000D01*
X75007587Y-128270000D01*
X75769587Y-128270000D01*
X75769587Y-130302000D01*
X75515587Y-130302000D01*
X74499587Y-130302000D01*
X74499587Y-130810000D01*
X75515587Y-130810000D01*
X75769587Y-130810000D01*
X75769587Y-131826000D01*
X74753587Y-131826000D01*
X73855561Y-131454026D01*
X73483587Y-130556000D01*
X73483587Y-125476000D01*
X73855561Y-124577974D01*
X74753587Y-124206000D01*
X75769587Y-124206000D01*
X75769587Y-124714000D01*
G36*
X75769587Y-124714000D02*
G01*
X75007587Y-124714000D01*
X73991587Y-125730000D01*
X73991587Y-127254000D01*
X75007587Y-128270000D01*
X75769587Y-128270000D01*
X75769587Y-130302000D01*
X75515587Y-130302000D01*
X74499587Y-130302000D01*
X74499587Y-130810000D01*
X75515587Y-130810000D01*
X75769587Y-130810000D01*
X75769587Y-131826000D01*
X74753587Y-131826000D01*
X73855561Y-131454026D01*
X73483587Y-130556000D01*
X73483587Y-125476000D01*
X73855561Y-124577974D01*
X74753587Y-124206000D01*
X75769587Y-124206000D01*
X75769587Y-124714000D01*
G37*
X77274440Y-124577974D02*
X77646414Y-125476000D01*
X77646414Y-130556000D01*
X77274440Y-131454026D01*
X76376414Y-131826000D01*
X75360414Y-131826000D01*
X75360414Y-130810000D01*
X75614414Y-130810000D01*
X76630414Y-130810000D01*
X76630414Y-130302000D01*
X75614414Y-130302000D01*
X75360414Y-130302000D01*
X75360414Y-128270000D01*
X76122414Y-128270000D01*
X77138414Y-127254000D01*
X77138414Y-125730000D01*
X76122414Y-124714000D01*
X75360414Y-124714000D01*
X75360414Y-124206000D01*
X76376414Y-124206000D01*
X77274440Y-124577974D01*
G36*
X77274440Y-124577974D02*
G01*
X77646414Y-125476000D01*
X77646414Y-130556000D01*
X77274440Y-131454026D01*
X76376414Y-131826000D01*
X75360414Y-131826000D01*
X75360414Y-130810000D01*
X75614414Y-130810000D01*
X76630414Y-130810000D01*
X76630414Y-130302000D01*
X75614414Y-130302000D01*
X75360414Y-130302000D01*
X75360414Y-128270000D01*
X76122414Y-128270000D01*
X77138414Y-127254000D01*
X77138414Y-125730000D01*
X76122414Y-124714000D01*
X75360414Y-124714000D01*
X75360414Y-124206000D01*
X76376414Y-124206000D01*
X77274440Y-124577974D01*
G37*
%TD*%
D20*
%TO.C,D45*%
X103082000Y-169460600D03*
X103082000Y-168360600D03*
X101304000Y-168360600D03*
X101304000Y-169460600D03*
%TD*%
D21*
%TO.C,D71*%
X134535000Y-183261000D03*
X133435000Y-183261000D03*
X133435000Y-185039000D03*
X134535000Y-185039000D03*
%TD*%
%TO.C,D89*%
X134535000Y-135001000D03*
X133435000Y-135001000D03*
X133435000Y-136779000D03*
X134535000Y-136779000D03*
%TD*%
D20*
%TO.C,D32*%
X70045400Y-169458800D03*
X70045400Y-168358800D03*
X68267400Y-168358800D03*
X68267400Y-169458800D03*
%TD*%
D21*
%TO.C,D77*%
X88815000Y-180721000D03*
X87715000Y-180721000D03*
X87715000Y-182499000D03*
X88815000Y-182499000D03*
%TD*%
D22*
%TO.C,TP25*%
X131927600Y-125730000D03*
%TD*%
D20*
%TO.C,D40*%
X90365400Y-169458800D03*
X90365400Y-168358800D03*
X88587400Y-168358800D03*
X88587400Y-169458800D03*
%TD*%
D21*
%TO.C,D83*%
X88815000Y-137541000D03*
X87715000Y-137541000D03*
X87715000Y-139319000D03*
X88815000Y-139319000D03*
%TD*%
D23*
%TO.C,JP1*%
X130149600Y-129082800D03*
D24*
X130149600Y-127457200D03*
%TD*%
D20*
%TO.C,D44*%
X100542000Y-169460600D03*
X100542000Y-168360600D03*
X98764000Y-168360600D03*
X98764000Y-169460600D03*
%TD*%
D21*
%TO.C,D84*%
X88815000Y-135001000D03*
X87715000Y-135001000D03*
X87715000Y-136779000D03*
X88815000Y-136779000D03*
%TD*%
D25*
%TO.C,TP24*%
X66625586Y-126492000D03*
%TD*%
D20*
%TO.C,D56*%
X131046400Y-169459400D03*
X131046400Y-168359400D03*
X129268400Y-168359400D03*
X129268400Y-169459400D03*
%TD*%
%TO.C,D13*%
X98051800Y-151680600D03*
X98051800Y-150580600D03*
X96273800Y-150580600D03*
X96273800Y-151680600D03*
%TD*%
%TO.C,D27*%
X133619600Y-151679400D03*
X133619600Y-150579400D03*
X131841600Y-150579400D03*
X131841600Y-151679400D03*
%TD*%
%TO.C,D4*%
X75175200Y-151680000D03*
X75175200Y-150580000D03*
X73397200Y-150580000D03*
X73397200Y-151680000D03*
%TD*%
%TO.C,D2*%
X70095200Y-151680000D03*
X70095200Y-150580000D03*
X68317200Y-150580000D03*
X68317200Y-151680000D03*
%TD*%
%TO.C,D16*%
X105671800Y-151680600D03*
X105671800Y-150580600D03*
X103893800Y-150580600D03*
X103893800Y-151680600D03*
%TD*%
%TO.C,D55*%
X128506400Y-169459400D03*
X128506400Y-168359400D03*
X126728400Y-168359400D03*
X126728400Y-169459400D03*
%TD*%
D21*
%TO.C,D82*%
X73575000Y-137541000D03*
X72475000Y-137541000D03*
X72475000Y-139319000D03*
X73575000Y-139319000D03*
%TD*%
%TO.C,D78*%
X88815000Y-183261000D03*
X87715000Y-183261000D03*
X87715000Y-185039000D03*
X88815000Y-185039000D03*
%TD*%
%TO.C,D86*%
X104055000Y-137541000D03*
X102955000Y-137541000D03*
X102955000Y-139319000D03*
X104055000Y-139319000D03*
%TD*%
%TO.C,D76*%
X104055000Y-180721000D03*
X102955000Y-180721000D03*
X102955000Y-182499000D03*
X104055000Y-182499000D03*
%TD*%
D20*
%TO.C,D54*%
X125966400Y-169459400D03*
X125966400Y-168359400D03*
X124188400Y-168359400D03*
X124188400Y-169459400D03*
%TD*%
%TO.C,D31*%
X67497600Y-169458800D03*
X67497600Y-168358800D03*
X65719600Y-168358800D03*
X65719600Y-169458800D03*
%TD*%
%TO.C,D23*%
X123459600Y-151679400D03*
X123459600Y-150579400D03*
X121681600Y-150579400D03*
X121681600Y-151679400D03*
%TD*%
%TO.C,D38*%
X85285400Y-169458800D03*
X85285400Y-168358800D03*
X83507400Y-168358800D03*
X83507400Y-169458800D03*
%TD*%
D26*
%TO.C,TP16*%
X63500000Y-144780000D03*
%TD*%
D20*
%TO.C,D43*%
X98002000Y-169460600D03*
X98002000Y-168360600D03*
X96224000Y-168360600D03*
X96224000Y-169460600D03*
%TD*%
D21*
%TO.C,D90*%
X134535000Y-137541000D03*
X133435000Y-137541000D03*
X133435000Y-139319000D03*
X134535000Y-139319000D03*
%TD*%
D20*
%TO.C,D29*%
X138699600Y-151679400D03*
X138699600Y-150579400D03*
X136921600Y-150579400D03*
X136921600Y-151679400D03*
%TD*%
D21*
%TO.C,D80*%
X73574400Y-180721000D03*
X72474400Y-180721000D03*
X72474400Y-182499000D03*
X73574400Y-182499000D03*
%TD*%
D27*
%TO.C,JP2*%
X141579600Y-127457200D03*
D28*
X141579600Y-129082800D03*
%TD*%
D20*
%TO.C,D34*%
X75125400Y-169458800D03*
X75125400Y-168358800D03*
X73347400Y-168358800D03*
X73347400Y-169458800D03*
%TD*%
%TO.C,D37*%
X82745400Y-169458800D03*
X82745400Y-168358800D03*
X80967400Y-168358800D03*
X80967400Y-169458800D03*
%TD*%
D29*
%TO.C,J1*%
X85725000Y-129794000D03*
X86995000Y-129794000D03*
X88265000Y-129794000D03*
X89535000Y-129794000D03*
X90805000Y-129794000D03*
X92075000Y-129794000D03*
X93345000Y-129794000D03*
X94615000Y-129794000D03*
X95885000Y-129794000D03*
X97155000Y-129794000D03*
X98425000Y-129794000D03*
X99695000Y-129794000D03*
X100965000Y-129794000D03*
X102235000Y-129794000D03*
X103505000Y-129794000D03*
X104775000Y-129794000D03*
X106045000Y-129794000D03*
X107315000Y-129794000D03*
X108585000Y-129794000D03*
X109855000Y-129794000D03*
X111125000Y-129794000D03*
X112395000Y-129794000D03*
X113665000Y-129794000D03*
X114935000Y-129794000D03*
X116205000Y-129794000D03*
X117475000Y-129794000D03*
X118745000Y-129794000D03*
X120015000Y-129794000D03*
X121285000Y-129794000D03*
X122555000Y-129794000D03*
X123825000Y-129794000D03*
X125095000Y-129794000D03*
X81915000Y-129794000D03*
X83185000Y-129794000D03*
X84455000Y-129794000D03*
%TD*%
D25*
%TO.C,TP26*%
X75515586Y-126492000D03*
%TD*%
D21*
%TO.C,D87*%
X119295000Y-137541000D03*
X118195000Y-137541000D03*
X118195000Y-139319000D03*
X119295000Y-139319000D03*
%TD*%
D22*
%TO.C,TP31*%
X139801600Y-130810000D03*
%TD*%
D20*
%TO.C,D14*%
X100591800Y-151680600D03*
X100591800Y-150580600D03*
X98813800Y-150580600D03*
X98813800Y-151680600D03*
%TD*%
D21*
%TO.C,D85*%
X104055000Y-135001000D03*
X102955000Y-135001000D03*
X102955000Y-136779000D03*
X104055000Y-136779000D03*
%TD*%
D26*
%TO.C,TP21*%
X63500000Y-147320000D03*
%TD*%
D20*
%TO.C,D11*%
X92964000Y-151680600D03*
X92964000Y-150580600D03*
X91186000Y-150580600D03*
X91186000Y-151680600D03*
%TD*%
%TO.C,D20*%
X115831800Y-151680600D03*
X115831800Y-150580600D03*
X114053800Y-150580600D03*
X114053800Y-151680600D03*
%TD*%
%TO.C,D26*%
X131079600Y-151679400D03*
X131079600Y-150579400D03*
X129301600Y-150579400D03*
X129301600Y-151679400D03*
%TD*%
D22*
%TO.C,TP27*%
X139801600Y-125730000D03*
%TD*%
D20*
%TO.C,D15*%
X103131800Y-151680600D03*
X103131800Y-150580600D03*
X101353800Y-150580600D03*
X101353800Y-151680600D03*
%TD*%
D21*
%TO.C,D88*%
X119295000Y-135001000D03*
X118195000Y-135001000D03*
X118195000Y-136779000D03*
X119295000Y-136779000D03*
%TD*%
D20*
%TO.C,D60*%
X141206400Y-169459400D03*
X141206400Y-168359400D03*
X139428400Y-168359400D03*
X139428400Y-169459400D03*
%TD*%
%TO.C,D17*%
X108211800Y-151680600D03*
X108211800Y-150580600D03*
X106433800Y-150580600D03*
X106433800Y-151680600D03*
%TD*%
%TO.C,D48*%
X110702000Y-169460600D03*
X110702000Y-168360600D03*
X108924000Y-168360600D03*
X108924000Y-169460600D03*
%TD*%
%TO.C,D19*%
X113291800Y-151680600D03*
X113291800Y-150580600D03*
X111513800Y-150580600D03*
X111513800Y-151680600D03*
%TD*%
D21*
%TO.C,D79*%
X73575000Y-183261000D03*
X72475000Y-183261000D03*
X72475000Y-185039000D03*
X73575000Y-185039000D03*
%TD*%
D20*
%TO.C,D39*%
X87825400Y-169458800D03*
X87825400Y-168358800D03*
X86047400Y-168358800D03*
X86047400Y-169458800D03*
%TD*%
%TO.C,D53*%
X123426400Y-169459400D03*
X123426400Y-168359400D03*
X121648400Y-168359400D03*
X121648400Y-169459400D03*
%TD*%
%TO.C,D46*%
X105622000Y-169460600D03*
X105622000Y-168360600D03*
X103844000Y-168360600D03*
X103844000Y-169460600D03*
%TD*%
%TO.C,D36*%
X80205400Y-169458800D03*
X80205400Y-168358800D03*
X78427400Y-168358800D03*
X78427400Y-169458800D03*
%TD*%
%TO.C,D28*%
X136159600Y-151679400D03*
X136159600Y-150579400D03*
X134381600Y-150579400D03*
X134381600Y-151679400D03*
%TD*%
%TO.C,D33*%
X72585400Y-169458800D03*
X72585400Y-168358800D03*
X70807400Y-168358800D03*
X70807400Y-169458800D03*
%TD*%
%TO.C,D50*%
X115789800Y-169460600D03*
X115789800Y-168360600D03*
X114011800Y-168360600D03*
X114011800Y-169460600D03*
%TD*%
%TO.C,D25*%
X128539600Y-151679400D03*
X128539600Y-150579400D03*
X126761600Y-150579400D03*
X126761600Y-151679400D03*
%TD*%
%TO.C,D52*%
X120886400Y-169459400D03*
X120886400Y-168359400D03*
X119108400Y-168359400D03*
X119108400Y-169459400D03*
%TD*%
%TO.C,D7*%
X82795200Y-151680000D03*
X82795200Y-150580000D03*
X81017200Y-150580000D03*
X81017200Y-151680000D03*
%TD*%
%TO.C,D58*%
X136126400Y-169459400D03*
X136126400Y-168359400D03*
X134348400Y-168359400D03*
X134348400Y-169459400D03*
%TD*%
D30*
%TO.C,REF\u002A\u002A*%
X135864600Y-128270000D03*
%TD*%
D26*
%TO.C,TP23*%
X143510000Y-142240000D03*
%TD*%
D20*
%TO.C,D18*%
X110751800Y-151680600D03*
X110751800Y-150580600D03*
X108973800Y-150580600D03*
X108973800Y-151680600D03*
%TD*%
D21*
%TO.C,D73*%
X119295000Y-180721000D03*
X118195000Y-180721000D03*
X118195000Y-182499000D03*
X119295000Y-182499000D03*
%TD*%
D20*
%TO.C,D30*%
X141239600Y-151679400D03*
X141239600Y-150579400D03*
X139461600Y-150579400D03*
X139461600Y-151679400D03*
%TD*%
%TO.C,D3*%
X72635200Y-151680000D03*
X72635200Y-150580000D03*
X70857200Y-150580000D03*
X70857200Y-151680000D03*
%TD*%
%TO.C,D9*%
X87875200Y-151680000D03*
X87875200Y-150580000D03*
X86097200Y-150580000D03*
X86097200Y-151680000D03*
%TD*%
%TO.C,D12*%
X95511800Y-151680600D03*
X95511800Y-150580600D03*
X93733800Y-150580600D03*
X93733800Y-151680600D03*
%TD*%
D21*
%TO.C,D81*%
X73575000Y-135001000D03*
X72475000Y-135001000D03*
X72475000Y-136779000D03*
X73575000Y-136779000D03*
%TD*%
D20*
%TO.C,D21*%
X118371800Y-151679400D03*
X118371800Y-150579400D03*
X116593800Y-150579400D03*
X116593800Y-151679400D03*
%TD*%
%TO.C,D51*%
X118338600Y-169459400D03*
X118338600Y-168359400D03*
X116560600Y-168359400D03*
X116560600Y-169459400D03*
%TD*%
%TO.C,D1*%
X67555200Y-151680000D03*
X67555200Y-150580000D03*
X65777200Y-150580000D03*
X65777200Y-151680000D03*
%TD*%
%TO.C,D59*%
X138666400Y-169459400D03*
X138666400Y-168359400D03*
X136888400Y-168359400D03*
X136888400Y-169459400D03*
%TD*%
D22*
%TO.C,TP29*%
X131927600Y-130810000D03*
%TD*%
D31*
%TO.C,J11*%
X66675000Y-143510000D03*
X66675000Y-158750000D03*
X69215000Y-143510000D03*
X69215000Y-158750000D03*
X71755000Y-143510000D03*
X71755000Y-158750000D03*
X74295000Y-143510000D03*
X74295000Y-158750000D03*
X76835000Y-143510000D03*
X76835000Y-158750000D03*
X79375000Y-143510000D03*
X79375000Y-158750000D03*
X81915000Y-143510000D03*
X81915000Y-158750000D03*
X84455000Y-143510000D03*
X84455000Y-158750000D03*
X86995000Y-143510000D03*
X86995000Y-158750000D03*
X89535000Y-143510000D03*
X89535000Y-158750000D03*
X92075000Y-143510000D03*
X92075000Y-158750000D03*
X94615000Y-143510000D03*
X94615000Y-158750000D03*
X97155000Y-143510000D03*
X97155000Y-158750000D03*
X99695000Y-143510000D03*
X99695000Y-158750000D03*
X102235000Y-143510000D03*
X102235000Y-158750000D03*
X104775000Y-143510000D03*
X104775000Y-158750000D03*
X107315000Y-143510000D03*
X107315000Y-158750000D03*
X109855000Y-143510000D03*
X109855000Y-158750000D03*
X112395000Y-143510000D03*
X112395000Y-158750000D03*
X114935000Y-143510000D03*
X114935000Y-158750000D03*
X117475000Y-143510000D03*
X117475000Y-158750000D03*
X120015000Y-143510000D03*
X120015000Y-158750000D03*
X122555000Y-143510000D03*
X122555000Y-158750000D03*
X125095000Y-143510000D03*
X125095000Y-158750000D03*
X127635000Y-143510000D03*
X127635000Y-158750000D03*
X130175000Y-143510000D03*
X130175000Y-158750000D03*
X132715000Y-143510000D03*
X132715000Y-158750000D03*
X135255000Y-143510000D03*
X135255000Y-158750000D03*
X137795000Y-143510000D03*
X137795000Y-158750000D03*
X140335000Y-143510000D03*
X140335000Y-158750000D03*
X66675000Y-161290000D03*
X66675000Y-176530000D03*
X69215000Y-161290000D03*
X69215000Y-176530000D03*
X71755000Y-161290000D03*
X71755000Y-176530000D03*
X74295000Y-161290000D03*
X74295000Y-176530000D03*
X76835000Y-161290000D03*
X76835000Y-176530000D03*
X79375000Y-161290000D03*
X79375000Y-176530000D03*
X81915000Y-161290000D03*
X81915000Y-176530000D03*
X84455000Y-161290000D03*
X84455000Y-176530000D03*
X86995000Y-161290000D03*
X86995000Y-176530000D03*
X89535000Y-161290000D03*
X89535000Y-176530000D03*
X92075000Y-161290000D03*
X92075000Y-176530000D03*
X94615000Y-161290000D03*
X94615000Y-176530000D03*
X97155000Y-161290000D03*
X97155000Y-176530000D03*
X99695000Y-161290000D03*
X99695000Y-176530000D03*
X102235000Y-161290000D03*
X102235000Y-176530000D03*
X104775000Y-161290000D03*
X104775000Y-176530000D03*
X107315000Y-161290000D03*
X107315000Y-176530000D03*
X109855000Y-161290000D03*
X109855000Y-176530000D03*
X112395000Y-161290000D03*
X112395000Y-176530000D03*
X114935000Y-161290000D03*
X114935000Y-176530000D03*
X117475000Y-161290000D03*
X117475000Y-176530000D03*
X120015000Y-161290000D03*
X120015000Y-176530000D03*
X122555000Y-161290000D03*
X122555000Y-176530000D03*
X125095000Y-161290000D03*
X125095000Y-176530000D03*
X127635000Y-161290000D03*
X127635000Y-176530000D03*
X130175000Y-161290000D03*
X130175000Y-176530000D03*
X132715000Y-161290000D03*
X132715000Y-176530000D03*
X135255000Y-161290000D03*
X135255000Y-176530000D03*
X137795000Y-161290000D03*
X137795000Y-176530000D03*
X140335000Y-161290000D03*
X140335000Y-176530000D03*
D32*
X65405000Y-135890000D03*
X80645000Y-135890000D03*
X95885000Y-135890000D03*
X111125000Y-135890000D03*
X126365000Y-135890000D03*
X141605000Y-135890000D03*
X65405000Y-138430000D03*
X80645000Y-138430000D03*
X95885000Y-138430000D03*
X111125000Y-138430000D03*
X126365000Y-138430000D03*
X141605000Y-138430000D03*
X65405000Y-181610000D03*
X80645000Y-181610000D03*
X95885000Y-181622700D03*
X111125000Y-181610000D03*
X126365000Y-181610000D03*
X141605000Y-181610000D03*
X65405000Y-184150000D03*
X80645000Y-184150000D03*
X95885000Y-184150000D03*
X111125000Y-184150000D03*
X126365000Y-184150000D03*
X141605000Y-184150000D03*
%TD*%
D20*
%TO.C,D8*%
X85335200Y-151680000D03*
X85335200Y-150580000D03*
X83557200Y-150580000D03*
X83557200Y-151680000D03*
%TD*%
D26*
%TO.C,TP22*%
X143510000Y-147320000D03*
%TD*%
D20*
%TO.C,D35*%
X77665400Y-169458800D03*
X77665400Y-168358800D03*
X75887400Y-168358800D03*
X75887400Y-169458800D03*
%TD*%
%TO.C,D10*%
X90415200Y-151680000D03*
X90415200Y-150580000D03*
X88637200Y-150580000D03*
X88637200Y-151680000D03*
%TD*%
%TO.C,D47*%
X108162000Y-169460600D03*
X108162000Y-168360600D03*
X106384000Y-168360600D03*
X106384000Y-169460600D03*
%TD*%
D26*
%TO.C,TP15*%
X143510000Y-144780000D03*
%TD*%
D21*
%TO.C,D72*%
X134535000Y-180721000D03*
X133435000Y-180721000D03*
X133435000Y-182499000D03*
X134535000Y-182499000D03*
%TD*%
D20*
%TO.C,D24*%
X125999600Y-151679400D03*
X125999600Y-150579400D03*
X124221600Y-150579400D03*
X124221600Y-151679400D03*
%TD*%
D21*
%TO.C,D74*%
X119295000Y-183261000D03*
X118195000Y-183261000D03*
X118195000Y-185039000D03*
X119295000Y-185039000D03*
%TD*%
D20*
%TO.C,D57*%
X133586400Y-169459400D03*
X133586400Y-168359400D03*
X131808400Y-168359400D03*
X131808400Y-169459400D03*
%TD*%
%TO.C,D41*%
X92913200Y-169459400D03*
X92913200Y-168359400D03*
X91135200Y-168359400D03*
X91135200Y-169459400D03*
%TD*%
%TO.C,D22*%
X120919600Y-151679400D03*
X120919600Y-150579400D03*
X119141600Y-150579400D03*
X119141600Y-151679400D03*
%TD*%
D21*
%TO.C,D75*%
X104055000Y-183261000D03*
X102955000Y-183261000D03*
X102955000Y-185039000D03*
X104055000Y-185039000D03*
%TD*%
D30*
%TO.C,REF\u002A\u002A*%
X71120000Y-128270000D03*
%TD*%
D20*
%TO.C,D6*%
X80255200Y-151680000D03*
X80255200Y-150580000D03*
X78477200Y-150580000D03*
X78477200Y-151680000D03*
%TD*%
%TO.C,D49*%
X113242000Y-169460600D03*
X113242000Y-168360600D03*
X111464000Y-168360600D03*
X111464000Y-169460600D03*
%TD*%
%TO.C,D42*%
X95462000Y-169460600D03*
X95462000Y-168360600D03*
X93684000Y-168360600D03*
X93684000Y-169460600D03*
%TD*%
%TO.C,D5*%
X77715200Y-151680000D03*
X77715200Y-150580000D03*
X75937200Y-150580000D03*
X75937200Y-151680000D03*
%TD*%
D26*
%TO.C,TP20*%
X63500000Y-142240000D03*
%TD*%
%LPD*%
M02*
