M48
; DRILL file {KiCad 8.0.0} date 2024-02-27T09:21:43-0800
; FORMAT={-:-/ absolute / metric / decimal}
; #@! TF.CreationDate,2024-02-27T09:21:43-08:00
; #@! TF.GenerationSoftware,Kicad,Pcbnew,8.0.0
; #@! TF.FileFunction,Plated,1,4,PTH
FMAT,2
METRIC
; #@! TA.AperFunction,Plated,PTH,ViaDrill
T1C0.200
; #@! TA.AperFunction,Plated,PTH,ViaDrill
T2C0.250
; #@! TA.AperFunction,Plated,PTH,ComponentDrill
T3C0.600
; #@! TA.AperFunction,Plated,PTH,ComponentDrill
T4C0.900
; #@! TA.AperFunction,Plated,PTH,ComponentDrill
T5C1.000
; #@! TA.AperFunction,Plated,PTH,ComponentDrill
T6C3.450
%
G90
G05
T1
X65.659Y-171.069
X65.913Y-146.177
X65.913Y-153.035
X66.675Y-133.858
X67.183Y-145.923
X67.564Y-166.878
X70.231Y-134.239
X70.612Y-183.667
X72.517Y-135.839
X73.787Y-140.843
X76.2Y-138.303
X77.089Y-137.033
X78.105Y-135.636
X78.232Y-136.652
X80.137Y-131.572
X83.947Y-133.223
X84.709Y-133.223
X101.346Y-140.97
X129.54Y-139.065
X139.065Y-171.069
X140.907Y-171.386
X140.97Y-167.132
X141.097Y-149.479
X141.097Y-152.781
T2
X80.645Y-132.334
X83.185Y-133.477
X85.725Y-133.858
X86.995Y-133.858
X88.265Y-133.858
X89.535Y-133.858
X90.805Y-133.604
X92.075Y-133.604
X93.345Y-133.604
X94.615Y-133.604
X95.885Y-133.604
X97.155Y-133.604
X98.425Y-133.604
X99.695Y-133.604
X100.965Y-133.604
X102.235Y-133.604
X103.505Y-133.604
X104.775Y-133.604
X106.045Y-133.604
X107.315Y-133.604
X108.585Y-133.604
X109.855Y-133.604
X111.125Y-133.604
X112.395Y-133.604
X113.665Y-133.604
X114.935Y-133.604
X116.205Y-133.604
X117.475Y-133.604
X118.745Y-133.604
X120.015Y-133.604
X121.285Y-133.604
X122.555Y-133.604
X126.975Y-131.826
X133.096Y-133.223
X138.875Y-133.159
X139.802Y-134.087
T5
X63.5Y-142.24
X63.5Y-144.78
X63.5Y-147.32
X131.928Y-125.73
X131.928Y-130.81
X139.802Y-125.73
X139.802Y-130.81
X143.51Y-142.24
X143.51Y-144.78
X143.51Y-147.32
T6
X66.626Y-126.492
X75.516Y-126.492
T3
X66.225Y-143.51G85X67.125Y-143.51
G05
X66.225Y-158.75G85X67.125Y-158.75
G05
X66.225Y-161.29G85X67.125Y-161.29
G05
X66.225Y-176.53G85X67.125Y-176.53
G05
X68.765Y-143.51G85X69.665Y-143.51
G05
X68.765Y-158.75G85X69.665Y-158.75
G05
X68.765Y-161.29G85X69.665Y-161.29
G05
X68.765Y-176.53G85X69.665Y-176.53
G05
X71.305Y-143.51G85X72.205Y-143.51
G05
X71.305Y-158.75G85X72.205Y-158.75
G05
X71.305Y-161.29G85X72.205Y-161.29
G05
X71.305Y-176.53G85X72.205Y-176.53
G05
X73.845Y-143.51G85X74.745Y-143.51
G05
X73.845Y-158.75G85X74.745Y-158.75
G05
X73.845Y-161.29G85X74.745Y-161.29
G05
X73.845Y-176.53G85X74.745Y-176.53
G05
X76.385Y-143.51G85X77.285Y-143.51
G05
X76.385Y-158.75G85X77.285Y-158.75
G05
X76.385Y-161.29G85X77.285Y-161.29
G05
X76.385Y-176.53G85X77.285Y-176.53
G05
X78.925Y-143.51G85X79.825Y-143.51
G05
X78.925Y-158.75G85X79.825Y-158.75
G05
X78.925Y-161.29G85X79.825Y-161.29
G05
X78.925Y-176.53G85X79.825Y-176.53
G05
X81.465Y-143.51G85X82.365Y-143.51
G05
X81.465Y-158.75G85X82.365Y-158.75
G05
X81.465Y-161.29G85X82.365Y-161.29
G05
X81.465Y-176.53G85X82.365Y-176.53
G05
X84.005Y-143.51G85X84.905Y-143.51
G05
X84.005Y-158.75G85X84.905Y-158.75
G05
X84.005Y-161.29G85X84.905Y-161.29
G05
X84.005Y-176.53G85X84.905Y-176.53
G05
X86.545Y-143.51G85X87.445Y-143.51
G05
X86.545Y-158.75G85X87.445Y-158.75
G05
X86.545Y-161.29G85X87.445Y-161.29
G05
X86.545Y-176.53G85X87.445Y-176.53
G05
X89.085Y-143.51G85X89.985Y-143.51
G05
X89.085Y-158.75G85X89.985Y-158.75
G05
X89.085Y-161.29G85X89.985Y-161.29
G05
X89.085Y-176.53G85X89.985Y-176.53
G05
X91.625Y-143.51G85X92.525Y-143.51
G05
X91.625Y-158.75G85X92.525Y-158.75
G05
X91.625Y-161.29G85X92.525Y-161.29
G05
X91.625Y-176.53G85X92.525Y-176.53
G05
X94.165Y-143.51G85X95.065Y-143.51
G05
X94.165Y-158.75G85X95.065Y-158.75
G05
X94.165Y-161.29G85X95.065Y-161.29
G05
X94.165Y-176.53G85X95.065Y-176.53
G05
X96.705Y-143.51G85X97.605Y-143.51
G05
X96.705Y-158.75G85X97.605Y-158.75
G05
X96.705Y-161.29G85X97.605Y-161.29
G05
X96.705Y-176.53G85X97.605Y-176.53
G05
X99.245Y-143.51G85X100.145Y-143.51
G05
X99.245Y-158.75G85X100.145Y-158.75
G05
X99.245Y-161.29G85X100.145Y-161.29
G05
X99.245Y-176.53G85X100.145Y-176.53
G05
X101.785Y-143.51G85X102.685Y-143.51
G05
X101.785Y-158.75G85X102.685Y-158.75
G05
X101.785Y-161.29G85X102.685Y-161.29
G05
X101.785Y-176.53G85X102.685Y-176.53
G05
X104.325Y-143.51G85X105.225Y-143.51
G05
X104.325Y-158.75G85X105.225Y-158.75
G05
X104.325Y-161.29G85X105.225Y-161.29
G05
X104.325Y-176.53G85X105.225Y-176.53
G05
X106.865Y-143.51G85X107.765Y-143.51
G05
X106.865Y-158.75G85X107.765Y-158.75
G05
X106.865Y-161.29G85X107.765Y-161.29
G05
X106.865Y-176.53G85X107.765Y-176.53
G05
X109.405Y-143.51G85X110.305Y-143.51
G05
X109.405Y-158.75G85X110.305Y-158.75
G05
X109.405Y-161.29G85X110.305Y-161.29
G05
X109.405Y-176.53G85X110.305Y-176.53
G05
X111.945Y-143.51G85X112.845Y-143.51
G05
X111.945Y-158.75G85X112.845Y-158.75
G05
X111.945Y-161.29G85X112.845Y-161.29
G05
X111.945Y-176.53G85X112.845Y-176.53
G05
X114.485Y-143.51G85X115.385Y-143.51
G05
X114.485Y-158.75G85X115.385Y-158.75
G05
X114.485Y-161.29G85X115.385Y-161.29
G05
X114.485Y-176.53G85X115.385Y-176.53
G05
X117.025Y-143.51G85X117.925Y-143.51
G05
X117.025Y-158.75G85X117.925Y-158.75
G05
X117.025Y-161.29G85X117.925Y-161.29
G05
X117.025Y-176.53G85X117.925Y-176.53
G05
X119.565Y-143.51G85X120.465Y-143.51
G05
X119.565Y-158.75G85X120.465Y-158.75
G05
X119.565Y-161.29G85X120.465Y-161.29
G05
X119.565Y-176.53G85X120.465Y-176.53
G05
X122.105Y-143.51G85X123.005Y-143.51
G05
X122.105Y-158.75G85X123.005Y-158.75
G05
X122.105Y-161.29G85X123.005Y-161.29
G05
X122.105Y-176.53G85X123.005Y-176.53
G05
X124.645Y-143.51G85X125.545Y-143.51
G05
X124.645Y-158.75G85X125.545Y-158.75
G05
X124.645Y-161.29G85X125.545Y-161.29
G05
X124.645Y-176.53G85X125.545Y-176.53
G05
X127.185Y-143.51G85X128.085Y-143.51
G05
X127.185Y-158.75G85X128.085Y-158.75
G05
X127.185Y-161.29G85X128.085Y-161.29
G05
X127.185Y-176.53G85X128.085Y-176.53
G05
X129.725Y-143.51G85X130.625Y-143.51
G05
X129.725Y-158.75G85X130.625Y-158.75
G05
X129.725Y-161.29G85X130.625Y-161.29
G05
X129.725Y-176.53G85X130.625Y-176.53
G05
X132.265Y-143.51G85X133.165Y-143.51
G05
X132.265Y-158.75G85X133.165Y-158.75
G05
X132.265Y-161.29G85X133.165Y-161.29
G05
X132.265Y-176.53G85X133.165Y-176.53
G05
X134.805Y-143.51G85X135.705Y-143.51
G05
X134.805Y-158.75G85X135.705Y-158.75
G05
X134.805Y-161.29G85X135.705Y-161.29
G05
X134.805Y-176.53G85X135.705Y-176.53
G05
X137.345Y-143.51G85X138.245Y-143.51
G05
X137.345Y-158.75G85X138.245Y-158.75
G05
X137.345Y-161.29G85X138.245Y-161.29
G05
X137.345Y-176.53G85X138.245Y-176.53
G05
X139.885Y-143.51G85X140.785Y-143.51
G05
X139.885Y-158.75G85X140.785Y-158.75
G05
X139.885Y-161.29G85X140.785Y-161.29
G05
X139.885Y-176.53G85X140.785Y-176.53
G05
T4
X65.405Y-135.49G85X65.405Y-136.29
G05
X65.405Y-138.03G85X65.405Y-138.83
G05
X65.405Y-181.21G85X65.405Y-182.01
G05
X65.405Y-183.75G85X65.405Y-184.55
G05
X80.645Y-135.49G85X80.645Y-136.29
G05
X80.645Y-138.03G85X80.645Y-138.83
G05
X80.645Y-181.21G85X80.645Y-182.01
G05
X80.645Y-183.75G85X80.645Y-184.55
G05
X95.885Y-135.49G85X95.885Y-136.29
G05
X95.885Y-138.03G85X95.885Y-138.83
G05
X95.885Y-181.223G85X95.885Y-182.023
G05
X95.885Y-183.75G85X95.885Y-184.55
G05
X111.125Y-135.49G85X111.125Y-136.29
G05
X111.125Y-138.03G85X111.125Y-138.83
G05
X111.125Y-181.21G85X111.125Y-182.01
G05
X111.125Y-183.75G85X111.125Y-184.55
G05
X126.365Y-135.49G85X126.365Y-136.29
G05
X126.365Y-138.03G85X126.365Y-138.83
G05
X126.365Y-181.21G85X126.365Y-182.01
G05
X126.365Y-183.75G85X126.365Y-184.55
G05
X141.605Y-135.49G85X141.605Y-136.29
G05
X141.605Y-138.03G85X141.605Y-138.83
G05
X141.605Y-181.21G85X141.605Y-182.01
G05
X141.605Y-183.75G85X141.605Y-184.55
G05
M30
