%TF.GenerationSoftware,KiCad,Pcbnew,8.0.0*%
%TF.CreationDate,2024-02-27T09:21:41-08:00*%
%TF.ProjectId,BarnacleBoard,4261726e-6163-46c6-9542-6f6172642e6b,rev?*%
%TF.SameCoordinates,Original*%
%TF.FileFunction,Copper,L4,Bot*%
%TF.FilePolarity,Positive*%
%FSLAX46Y46*%
G04 Gerber Fmt 4.6, Leading zero omitted, Abs format (unit mm)*
G04 Created by KiCad (PCBNEW 8.0.0) date 2024-02-27 09:21:41*
%MOMM*%
%LPD*%
G01*
G04 APERTURE LIST*
G04 Aperture macros list*
%AMRoundRect*
0 Rectangle with rounded corners*
0 $1 Rounding radius*
0 $2 $3 $4 $5 $6 $7 $8 $9 X,Y pos of 4 corners*
0 Add a 4 corners polygon primitive as box body*
4,1,4,$2,$3,$4,$5,$6,$7,$8,$9,$2,$3,0*
0 Add four circle primitives for the rounded corners*
1,1,$1+$1,$2,$3*
1,1,$1+$1,$4,$5*
1,1,$1+$1,$6,$7*
1,1,$1+$1,$8,$9*
0 Add four rect primitives between the rounded corners*
20,1,$1+$1,$2,$3,$4,$5,0*
20,1,$1+$1,$4,$5,$6,$7,0*
20,1,$1+$1,$6,$7,$8,$9,0*
20,1,$1+$1,$8,$9,$2,$3,0*%
G04 Aperture macros list end*
%ADD10C,0.200000*%
%TA.AperFunction,NonConductor*%
%ADD11C,0.200000*%
%TD*%
%ADD12C,0.250000*%
%TA.AperFunction,NonConductor*%
%ADD13C,0.250000*%
%TD*%
%TA.AperFunction,EtchedComponent*%
%ADD14C,0.300000*%
%TD*%
%TA.AperFunction,EtchedComponent*%
%ADD15C,0.200000*%
%TD*%
%TA.AperFunction,EtchedComponent*%
%ADD16C,0.010000*%
%TD*%
%TA.AperFunction,ComponentPad*%
%ADD17RoundRect,0.595000X0.255000X-0.255000X0.255000X0.255000X-0.255000X0.255000X-0.255000X-0.255000X0*%
%TD*%
%TA.AperFunction,ComponentPad*%
%ADD18C,4.000000*%
%TD*%
%TA.AperFunction,SMDPad,CuDef*%
%ADD19C,2.000000*%
%TD*%
%TA.AperFunction,ComponentPad*%
%ADD20RoundRect,0.595000X-0.255000X-0.255000X0.255000X-0.255000X0.255000X0.255000X-0.255000X0.255000X0*%
%TD*%
%TA.AperFunction,SMDPad,CuDef*%
%ADD21RoundRect,0.100000X-0.400000X-2.650000X0.400000X-2.650000X0.400000X2.650000X-0.400000X2.650000X0*%
%TD*%
%TA.AperFunction,ComponentPad*%
%ADD22O,1.800000X1.200000*%
%TD*%
%TA.AperFunction,ComponentPad*%
%ADD23O,1.500000X2.000000*%
%TD*%
%TA.AperFunction,ViaPad*%
%ADD24C,0.500000*%
%TD*%
%TA.AperFunction,ViaPad*%
%ADD25C,0.400000*%
%TD*%
%TA.AperFunction,Conductor*%
%ADD26C,0.200000*%
%TD*%
%TA.AperFunction,Conductor*%
%ADD27C,0.300000*%
%TD*%
G04 APERTURE END LIST*
D10*
D11*
G36*
X117525884Y-186681000D02*
G01*
X117808571Y-186681000D01*
X119072088Y-186318348D01*
X119375877Y-186318348D01*
X119375877Y-186681000D01*
X119540741Y-186681000D01*
X119540741Y-185905675D01*
X119375877Y-185905675D01*
X119375877Y-186255822D01*
X119070330Y-186255822D01*
X117862207Y-185905675D01*
X117600183Y-185905675D01*
X118920853Y-186285326D01*
X117525884Y-186681000D01*
G37*
G36*
X116869966Y-186118635D02*
G01*
X116968610Y-186120284D01*
X117057362Y-186123251D01*
X117154391Y-186128815D01*
X117214104Y-186134346D01*
X117303450Y-186148483D01*
X117381683Y-186170434D01*
X117415896Y-186185158D01*
X117466039Y-186218504D01*
X117496868Y-186256212D01*
X117505861Y-186274096D01*
X117519273Y-186314587D01*
X117526132Y-186356413D01*
X117528083Y-186397873D01*
X117528083Y-186411551D01*
X117527602Y-186432556D01*
X117523755Y-186471635D01*
X117514829Y-186510927D01*
X117497308Y-186552235D01*
X117483732Y-186571881D01*
X117441487Y-186608981D01*
X117381683Y-186638599D01*
X117322702Y-186656520D01*
X117235489Y-186672787D01*
X117149115Y-186681976D01*
X117139774Y-186682686D01*
X117048359Y-186688056D01*
X116956008Y-186691298D01*
X116866636Y-186692953D01*
X116769269Y-186693505D01*
X116713435Y-186693505D01*
X116653084Y-186693290D01*
X116563219Y-186692054D01*
X116471975Y-186689349D01*
X116382828Y-186684712D01*
X116334935Y-186680934D01*
X116249535Y-186670492D01*
X116167406Y-186653449D01*
X116096514Y-186627217D01*
X116050023Y-186593463D01*
X116038369Y-186578648D01*
X116020553Y-186538844D01*
X116015731Y-186498892D01*
X116015731Y-186480916D01*
X116168285Y-186480916D01*
X116168285Y-186496547D01*
X116170675Y-186522600D01*
X116188508Y-186562591D01*
X116200955Y-186574644D01*
X116266324Y-186603037D01*
X116341814Y-186616596D01*
X116432946Y-186624531D01*
X116439856Y-186624927D01*
X116533355Y-186628705D01*
X116626194Y-186630469D01*
X116721348Y-186630979D01*
X116769269Y-186630979D01*
X116817176Y-186630850D01*
X116905653Y-186629825D01*
X116993497Y-186627444D01*
X117084049Y-186622772D01*
X117091359Y-186622245D01*
X117182336Y-186611944D01*
X117264300Y-186592095D01*
X117313940Y-186567251D01*
X117348711Y-186529960D01*
X117359337Y-186505498D01*
X117368095Y-186466535D01*
X117370692Y-186424447D01*
X117370692Y-186418390D01*
X116025842Y-186418390D01*
X116025842Y-186355863D01*
X116180595Y-186355863D01*
X117367615Y-186355863D01*
X117367265Y-186349456D01*
X117360581Y-186308236D01*
X117343875Y-186268913D01*
X117322257Y-186244815D01*
X117263421Y-186214789D01*
X117259685Y-186213603D01*
X117179619Y-186196956D01*
X117090204Y-186188215D01*
X117060384Y-186186475D01*
X116965558Y-186182886D01*
X116873985Y-186181254D01*
X116782018Y-186180790D01*
X116741572Y-186180790D01*
X116729969Y-186180797D01*
X116632264Y-186181458D01*
X116537896Y-186183462D01*
X116444377Y-186187629D01*
X116358004Y-186195745D01*
X116276875Y-186212444D01*
X116241800Y-186226396D01*
X116199939Y-186261879D01*
X116198749Y-186263863D01*
X116184297Y-186303205D01*
X116180595Y-186343554D01*
X116180595Y-186355863D01*
X116025842Y-186355863D01*
X116025842Y-186351369D01*
X116027738Y-186318531D01*
X116036537Y-186278124D01*
X116056177Y-186237454D01*
X116060112Y-186231837D01*
X116102210Y-186194376D01*
X116166526Y-186165159D01*
X116210325Y-186152739D01*
X116296735Y-186137089D01*
X116384586Y-186128229D01*
X116458171Y-186123869D01*
X116552383Y-186120454D01*
X116646286Y-186118741D01*
X116736296Y-186118264D01*
X116789492Y-186118264D01*
X116869966Y-186118635D01*
G37*
G36*
X115007643Y-186681000D02*
G01*
X115172946Y-186681000D01*
X115896150Y-186130769D01*
X115716338Y-186130769D01*
X115083260Y-186620232D01*
X115089415Y-186620232D01*
X114444028Y-186130769D01*
X114269492Y-186130769D01*
X115007643Y-186681000D01*
G37*
G36*
X113933170Y-186681000D02*
G01*
X114090560Y-186681000D01*
X114090560Y-186130769D01*
X113933170Y-186130769D01*
X113933170Y-186681000D01*
G37*
G36*
X113933170Y-186005717D02*
G01*
X114090560Y-186005717D01*
X114090560Y-185905675D01*
X113933170Y-185905675D01*
X113933170Y-186005717D01*
G37*
G36*
X112074384Y-186681000D02*
G01*
X112231774Y-186681000D01*
X112231774Y-186374426D01*
X112233956Y-186334951D01*
X112242161Y-186295621D01*
X112250239Y-186275361D01*
X112281924Y-186238315D01*
X112322339Y-186216938D01*
X112403391Y-186196958D01*
X112478850Y-186188606D01*
X112573325Y-186183546D01*
X112661304Y-186181408D01*
X112751865Y-186180790D01*
X112794949Y-186180790D01*
X112885418Y-186181611D01*
X112976207Y-186184409D01*
X113057852Y-186189192D01*
X113148156Y-186198879D01*
X113228476Y-186214818D01*
X113242500Y-186218697D01*
X113309494Y-186245585D01*
X113351090Y-186276729D01*
X113376335Y-186316330D01*
X113385712Y-186358709D01*
X113386261Y-186373254D01*
X113386261Y-186681000D01*
X113543651Y-186681000D01*
X113543651Y-186130769D01*
X113386261Y-186130769D01*
X113397692Y-186243903D01*
X113400330Y-186243316D01*
X113363166Y-186205994D01*
X113336143Y-186188997D01*
X113270747Y-186162741D01*
X113220958Y-186149918D01*
X113133928Y-186135460D01*
X113046605Y-186126783D01*
X113039827Y-186126275D01*
X112950491Y-186121393D01*
X112855892Y-186118898D01*
X112769450Y-186118264D01*
X112726806Y-186118264D01*
X112635334Y-186118875D01*
X112542346Y-186121021D01*
X112451345Y-186125219D01*
X112410706Y-186128034D01*
X112323720Y-186137642D01*
X112239895Y-186154616D01*
X112209792Y-186163791D01*
X112148947Y-186192393D01*
X112108195Y-186229839D01*
X112104279Y-186235501D01*
X112084923Y-186276743D01*
X112076252Y-186317786D01*
X112074384Y-186351174D01*
X112074384Y-186681000D01*
G37*
G36*
X109006596Y-186476812D02*
G01*
X109010331Y-186516399D01*
X109024675Y-186557505D01*
X109044845Y-186586429D01*
X109093138Y-186622101D01*
X109161395Y-186648035D01*
X109178934Y-186652667D01*
X109260397Y-186668375D01*
X109351908Y-186678960D01*
X109438759Y-186684907D01*
X109537709Y-186689063D01*
X109637341Y-186691616D01*
X109733536Y-186692967D01*
X109822686Y-186693471D01*
X109853777Y-186693505D01*
X109932472Y-186693505D01*
X110029143Y-186693304D01*
X110119395Y-186692703D01*
X110219225Y-186691453D01*
X110309813Y-186689626D01*
X110403817Y-186686765D01*
X110440253Y-186685298D01*
X110528565Y-186680132D01*
X110614647Y-186671781D01*
X110700779Y-186657922D01*
X110726896Y-186651886D01*
X110799818Y-186625471D01*
X110845475Y-186590678D01*
X110853512Y-186579199D01*
X110870122Y-186539577D01*
X110878107Y-186500429D01*
X110880743Y-186460433D01*
X110880769Y-186455710D01*
X110880769Y-186430895D01*
X110718543Y-186430895D01*
X110718543Y-186454928D01*
X110715699Y-186496346D01*
X110705193Y-186535637D01*
X110698320Y-186549499D01*
X110654409Y-186584576D01*
X110602039Y-186601669D01*
X110513058Y-186615580D01*
X110425334Y-186622506D01*
X110369471Y-186625117D01*
X110272218Y-186627950D01*
X110183834Y-186629513D01*
X110084301Y-186630515D01*
X109990112Y-186630927D01*
X109939946Y-186630979D01*
X109863889Y-186630979D01*
X109771715Y-186630707D01*
X109676163Y-186629733D01*
X109581147Y-186627791D01*
X109507782Y-186625312D01*
X109414408Y-186619579D01*
X109327818Y-186609139D01*
X109298076Y-186603428D01*
X109227107Y-186579184D01*
X109197838Y-186557120D01*
X109176509Y-186517058D01*
X109171460Y-186477008D01*
X109171460Y-186462158D01*
X109177175Y-186422737D01*
X109194321Y-186391621D01*
X109250502Y-186359532D01*
X109292800Y-186348243D01*
X109381009Y-186335002D01*
X109475919Y-186327501D01*
X109521851Y-186325187D01*
X109616187Y-186321881D01*
X109713937Y-186319850D01*
X109810198Y-186318775D01*
X109900677Y-186318374D01*
X109932472Y-186318348D01*
X110022426Y-186318124D01*
X110122663Y-186317263D01*
X110214492Y-186315756D01*
X110311000Y-186313182D01*
X110407280Y-186309164D01*
X110500650Y-186302870D01*
X110589058Y-186293230D01*
X110673839Y-186277985D01*
X110679855Y-186276533D01*
X110750072Y-186252704D01*
X110798789Y-186217778D01*
X110802514Y-186212835D01*
X110821447Y-186173613D01*
X110829237Y-186133625D01*
X110830211Y-186111425D01*
X110830211Y-186095598D01*
X110825018Y-186054172D01*
X110807671Y-186015680D01*
X110793281Y-185997706D01*
X110746295Y-185964504D01*
X110674579Y-185938172D01*
X110663149Y-185935180D01*
X110577046Y-185918356D01*
X110487981Y-185907849D01*
X110413875Y-185902353D01*
X110319125Y-185897914D01*
X110223635Y-185895188D01*
X110131380Y-185893744D01*
X110031005Y-185893179D01*
X110016003Y-185893170D01*
X109960169Y-185893170D01*
X109857304Y-185893493D01*
X109762044Y-185894461D01*
X109660518Y-185896407D01*
X109569342Y-185899232D01*
X109499429Y-185902353D01*
X109406311Y-185908677D01*
X109317611Y-185918675D01*
X109231686Y-185934804D01*
X109225535Y-185936352D01*
X109152590Y-185961917D01*
X109104553Y-185995187D01*
X109095403Y-186006108D01*
X109074054Y-186046526D01*
X109064491Y-186087074D01*
X109062430Y-186120218D01*
X109062430Y-186143274D01*
X109224656Y-186143274D01*
X109224656Y-186122172D01*
X109228284Y-186081870D01*
X109242710Y-186041918D01*
X109246638Y-186035612D01*
X109293315Y-186000777D01*
X109340281Y-185985591D01*
X109423717Y-185971638D01*
X109513280Y-185964123D01*
X109556582Y-185961949D01*
X109645412Y-185958926D01*
X109737742Y-185957070D01*
X109828855Y-185956087D01*
X109929603Y-185955702D01*
X109944782Y-185955696D01*
X109997978Y-185955696D01*
X110088892Y-185955976D01*
X110182748Y-185956984D01*
X110275526Y-185958993D01*
X110346610Y-185961558D01*
X110436543Y-185967209D01*
X110524617Y-185978214D01*
X110547964Y-185982856D01*
X110619830Y-186008080D01*
X110641607Y-186025256D01*
X110662009Y-186065129D01*
X110665347Y-186095207D01*
X110665347Y-186110448D01*
X110661170Y-186150846D01*
X110648641Y-186182549D01*
X110596236Y-186216017D01*
X110560274Y-186225926D01*
X110475485Y-186238972D01*
X110382893Y-186246565D01*
X110337817Y-186248983D01*
X110244166Y-186252289D01*
X110145680Y-186254319D01*
X110047739Y-186255394D01*
X109955050Y-186255795D01*
X109922360Y-186255822D01*
X109833007Y-186256055D01*
X109733265Y-186256953D01*
X109641683Y-186258524D01*
X109545152Y-186261207D01*
X109448431Y-186265396D01*
X109354042Y-186271910D01*
X109263847Y-186281794D01*
X109176016Y-186297332D01*
X109169702Y-186298808D01*
X109095422Y-186322733D01*
X109044784Y-186355174D01*
X109038250Y-186362507D01*
X109016612Y-186400916D01*
X109007369Y-186443213D01*
X109006596Y-186461181D01*
X109006596Y-186476812D01*
G37*
G36*
X108059376Y-186118270D02*
G01*
X108147762Y-186118856D01*
X108236668Y-186120630D01*
X108330434Y-186124321D01*
X108344678Y-186125122D01*
X108435727Y-186133163D01*
X108521237Y-186147573D01*
X108575644Y-186163707D01*
X108631146Y-186195640D01*
X108633283Y-186197587D01*
X108659230Y-186235997D01*
X108665877Y-186275166D01*
X108665877Y-186293337D01*
X108513763Y-186293337D01*
X108513763Y-186277315D01*
X108513509Y-186270488D01*
X108497496Y-186231593D01*
X108496448Y-186230476D01*
X108432870Y-186202479D01*
X108381923Y-186193856D01*
X108292186Y-186186066D01*
X108228962Y-186183284D01*
X108137792Y-186181305D01*
X108049066Y-186180790D01*
X108008620Y-186180790D01*
X107996748Y-186180796D01*
X107897122Y-186181401D01*
X107801681Y-186183233D01*
X107708348Y-186187043D01*
X107623381Y-186194923D01*
X107544803Y-186212639D01*
X107506610Y-186231482D01*
X107474021Y-186269695D01*
X107467097Y-186290162D01*
X107460064Y-186330715D01*
X107458194Y-186372081D01*
X107452951Y-186402526D01*
X107517106Y-186377161D01*
X107551510Y-186368831D01*
X107635368Y-186356645D01*
X107720507Y-186349927D01*
X107809025Y-186346289D01*
X107869133Y-186344872D01*
X107960097Y-186343705D01*
X108054342Y-186343358D01*
X108102263Y-186343358D01*
X108124016Y-186343390D01*
X108216254Y-186344328D01*
X108307890Y-186346892D01*
X108395501Y-186351565D01*
X108409942Y-186352612D01*
X108501123Y-186362507D01*
X108584105Y-186379311D01*
X108635509Y-186397412D01*
X108686101Y-186431872D01*
X108687967Y-186433939D01*
X108710629Y-186473995D01*
X108716436Y-186513937D01*
X108716436Y-186524098D01*
X108710640Y-186565812D01*
X108690057Y-186604991D01*
X108658009Y-186631208D01*
X108591579Y-186657552D01*
X108572853Y-186662303D01*
X108488193Y-186676854D01*
X108396380Y-186685298D01*
X108356003Y-186687662D01*
X108264624Y-186691189D01*
X108170269Y-186692992D01*
X108076764Y-186693505D01*
X108031481Y-186693505D01*
X107982048Y-186693306D01*
X107891249Y-186691712D01*
X107798913Y-186687838D01*
X107719368Y-186682415D01*
X107633170Y-186673575D01*
X107596153Y-186668070D01*
X107517985Y-186649932D01*
X107503956Y-186645262D01*
X107449595Y-186620414D01*
X107455556Y-186681000D01*
X107300804Y-186681000D01*
X107300804Y-186519604D01*
X107455556Y-186519604D01*
X107456655Y-186535528D01*
X107473142Y-186573923D01*
X107481040Y-186581402D01*
X107549199Y-186607140D01*
X107632507Y-186619045D01*
X107721537Y-186625312D01*
X107751109Y-186626640D01*
X107844972Y-186629379D01*
X107935448Y-186630624D01*
X108026205Y-186630979D01*
X108069290Y-186630979D01*
X108143643Y-186630698D01*
X108233856Y-186629394D01*
X108322521Y-186626484D01*
X108384019Y-186622517D01*
X108471997Y-186610071D01*
X108484555Y-186606954D01*
X108543219Y-186577441D01*
X108553731Y-186561312D01*
X108561683Y-186520776D01*
X108561683Y-186514914D01*
X108560584Y-186498489D01*
X108544098Y-186459618D01*
X108539186Y-186454531D01*
X108475954Y-186426792D01*
X108418001Y-186417249D01*
X108327796Y-186410378D01*
X108253726Y-186407820D01*
X108165110Y-186406323D01*
X108071928Y-186405884D01*
X108026205Y-186405884D01*
X108015385Y-186405888D01*
X107923449Y-186406285D01*
X107832799Y-186407487D01*
X107740002Y-186409988D01*
X107651116Y-186414866D01*
X107565026Y-186425424D01*
X107542842Y-186430010D01*
X107478857Y-186457664D01*
X107465591Y-186473496D01*
X107455556Y-186512570D01*
X107455556Y-186519604D01*
X107300804Y-186519604D01*
X107300804Y-186381655D01*
X107301020Y-186365764D01*
X107303713Y-186326344D01*
X107311407Y-186283113D01*
X107325424Y-186243316D01*
X107330492Y-186233744D01*
X107366099Y-186194613D01*
X107426101Y-186162814D01*
X107467894Y-186149832D01*
X107552802Y-186134207D01*
X107641083Y-186126275D01*
X107715849Y-186122770D01*
X107812638Y-186120024D01*
X107909942Y-186118647D01*
X108003784Y-186118264D01*
X108049066Y-186118264D01*
X108059376Y-186118270D01*
G37*
G36*
X105465759Y-186681000D02*
G01*
X105623149Y-186681000D01*
X105623149Y-186374426D01*
X105625331Y-186334951D01*
X105633535Y-186295621D01*
X105641614Y-186275361D01*
X105673298Y-186238315D01*
X105713714Y-186216938D01*
X105794765Y-186196958D01*
X105870225Y-186188606D01*
X105964700Y-186183546D01*
X106052679Y-186181408D01*
X106143240Y-186180790D01*
X106186324Y-186180790D01*
X106276793Y-186181611D01*
X106367582Y-186184409D01*
X106449227Y-186189192D01*
X106539531Y-186198879D01*
X106619851Y-186214818D01*
X106633875Y-186218697D01*
X106700869Y-186245585D01*
X106742465Y-186276729D01*
X106767710Y-186316330D01*
X106777086Y-186358709D01*
X106777636Y-186373254D01*
X106777636Y-186681000D01*
X106935026Y-186681000D01*
X106935026Y-186130769D01*
X106777636Y-186130769D01*
X106789066Y-186243903D01*
X106791704Y-186243316D01*
X106754540Y-186205994D01*
X106727517Y-186188997D01*
X106662121Y-186162741D01*
X106612332Y-186149918D01*
X106525303Y-186135460D01*
X106437980Y-186126783D01*
X106431202Y-186126275D01*
X106341866Y-186121393D01*
X106247267Y-186118898D01*
X106160825Y-186118264D01*
X106118180Y-186118264D01*
X106026708Y-186118875D01*
X105933721Y-186121021D01*
X105842720Y-186125219D01*
X105802081Y-186128034D01*
X105715095Y-186137642D01*
X105631270Y-186154616D01*
X105601167Y-186163791D01*
X105540322Y-186192393D01*
X105499570Y-186229839D01*
X105495654Y-186235501D01*
X105476298Y-186276743D01*
X105467627Y-186317786D01*
X105465759Y-186351174D01*
X105465759Y-186681000D01*
G37*
G36*
X104559667Y-186693505D02*
G01*
X104649619Y-186692396D01*
X104741594Y-186688229D01*
X104790476Y-186684126D01*
X104876593Y-186669240D01*
X104934237Y-186647587D01*
X104980175Y-186612787D01*
X105005459Y-186572556D01*
X105017246Y-186532979D01*
X105023273Y-186489990D01*
X105024803Y-186450043D01*
X105024803Y-186193295D01*
X105270120Y-186193295D01*
X105270120Y-186130769D01*
X105024803Y-186130769D01*
X105024803Y-185993212D01*
X104867413Y-185993212D01*
X104867413Y-186130769D01*
X103981104Y-186130769D01*
X103981104Y-186193295D01*
X104867413Y-186193295D01*
X104867413Y-186444768D01*
X104865958Y-186484864D01*
X104860488Y-186524452D01*
X104855103Y-186544614D01*
X104831816Y-186583846D01*
X104810260Y-186600497D01*
X104736363Y-186622465D01*
X104713540Y-186625117D01*
X104622341Y-186630011D01*
X104542081Y-186630979D01*
X104488885Y-186630979D01*
X104397859Y-186629882D01*
X104309533Y-186625522D01*
X104295884Y-186624335D01*
X104212937Y-186609356D01*
X104190371Y-186600692D01*
X104149181Y-186565131D01*
X104144210Y-186554579D01*
X104135033Y-186513619D01*
X104133219Y-186478766D01*
X104133219Y-186418390D01*
X103985940Y-186418390D01*
X103985940Y-186486191D01*
X103988901Y-186525790D01*
X104000036Y-186566279D01*
X104011000Y-186587796D01*
X104044522Y-186623944D01*
X104095849Y-186651886D01*
X104170420Y-186672968D01*
X104254558Y-186684517D01*
X104343056Y-186690336D01*
X104439172Y-186693075D01*
X104501635Y-186693505D01*
X104559667Y-186693505D01*
G37*
G36*
X103007523Y-186118274D02*
G01*
X103105732Y-186118923D01*
X103195441Y-186120582D01*
X103287559Y-186123715D01*
X103377922Y-186128815D01*
X103447824Y-186135227D01*
X103531019Y-186148070D01*
X103610050Y-186169262D01*
X103644308Y-186183633D01*
X103693753Y-186216721D01*
X103723037Y-186254649D01*
X103731270Y-186272651D01*
X103743549Y-186313348D01*
X103749828Y-186355326D01*
X103751614Y-186396896D01*
X103751614Y-186414872D01*
X103751167Y-186436152D01*
X103747595Y-186475671D01*
X103739307Y-186515283D01*
X103723037Y-186556729D01*
X103712755Y-186573239D01*
X103673362Y-186610674D01*
X103610490Y-186642116D01*
X103551508Y-186659202D01*
X103464295Y-186674516D01*
X103377922Y-186682953D01*
X103368575Y-186683603D01*
X103276651Y-186688518D01*
X103183146Y-186691485D01*
X103092222Y-186693000D01*
X102992800Y-186693505D01*
X102934768Y-186693505D01*
X102920046Y-186693494D01*
X102821918Y-186692845D01*
X102732417Y-186691186D01*
X102640691Y-186688054D01*
X102550965Y-186682953D01*
X102489731Y-186677460D01*
X102398757Y-186663561D01*
X102320155Y-186642116D01*
X102285897Y-186627545D01*
X102236452Y-186594382D01*
X102207168Y-186556729D01*
X102198936Y-186538840D01*
X102186657Y-186498311D01*
X102180378Y-186456418D01*
X102178600Y-186415068D01*
X102335982Y-186415068D01*
X102337136Y-186449360D01*
X102342492Y-186490449D01*
X102354447Y-186529960D01*
X102378465Y-186563171D01*
X102433581Y-186594440D01*
X102445550Y-186598449D01*
X102526608Y-186615424D01*
X102613833Y-186623749D01*
X102653147Y-186625832D01*
X102744268Y-186628938D01*
X102840521Y-186630527D01*
X102937406Y-186630979D01*
X102990602Y-186630979D01*
X103040274Y-186630866D01*
X103131663Y-186629962D01*
X103221799Y-186627865D01*
X103313735Y-186623749D01*
X103321125Y-186623283D01*
X103412679Y-186613708D01*
X103493986Y-186594440D01*
X103544764Y-186567133D01*
X103574879Y-186529764D01*
X103585893Y-186497081D01*
X103592334Y-186457333D01*
X103594224Y-186415068D01*
X103594224Y-186396701D01*
X103593097Y-186362421D01*
X103587869Y-186321389D01*
X103576198Y-186282004D01*
X103551879Y-186248660D01*
X103496624Y-186217329D01*
X103484644Y-186213319D01*
X103403133Y-186196345D01*
X103315054Y-186188020D01*
X103275371Y-186185937D01*
X103183768Y-186182831D01*
X103087377Y-186181242D01*
X102990602Y-186180790D01*
X102937406Y-186180790D01*
X102887630Y-186180903D01*
X102796076Y-186181807D01*
X102705821Y-186183904D01*
X102613833Y-186188020D01*
X102606443Y-186188486D01*
X102514889Y-186198060D01*
X102433581Y-186217329D01*
X102383243Y-186244538D01*
X102354447Y-186282004D01*
X102343934Y-186314687D01*
X102337785Y-186354435D01*
X102335982Y-186396701D01*
X102335982Y-186415068D01*
X102178600Y-186415068D01*
X102178592Y-186414872D01*
X102178592Y-186396896D01*
X102179038Y-186375610D01*
X102182611Y-186336043D01*
X102190899Y-186296318D01*
X102207168Y-186254649D01*
X102217462Y-186237984D01*
X102256983Y-186200416D01*
X102320155Y-186169262D01*
X102372574Y-186153897D01*
X102457829Y-186138267D01*
X102551404Y-186128815D01*
X102560643Y-186128166D01*
X102651748Y-186123251D01*
X102744759Y-186120284D01*
X102835430Y-186118769D01*
X102934768Y-186118264D01*
X102992800Y-186118264D01*
X103007523Y-186118274D01*
G37*
G36*
X100016017Y-186693505D02*
G01*
X100107764Y-186693262D01*
X100206023Y-186692388D01*
X100297247Y-186690880D01*
X100391467Y-186688424D01*
X100486513Y-186684219D01*
X100580848Y-186677213D01*
X100664482Y-186667713D01*
X100750038Y-186653045D01*
X100827407Y-186632849D01*
X100851327Y-186624531D01*
X100912598Y-186595224D01*
X100959571Y-186558963D01*
X100964754Y-186553602D01*
X100993196Y-186515297D01*
X101012238Y-186474786D01*
X101020148Y-186448871D01*
X101028263Y-186408510D01*
X101032996Y-186368530D01*
X101035295Y-186325089D01*
X101035535Y-186304670D01*
X101035535Y-186282004D01*
X101034268Y-186237564D01*
X101030466Y-186196422D01*
X101022826Y-186152589D01*
X101011737Y-186113245D01*
X100999485Y-186083093D01*
X100973295Y-186042981D01*
X100930327Y-186004612D01*
X100872762Y-185972769D01*
X100852646Y-185964489D01*
X100774456Y-185940633D01*
X100689255Y-185923894D01*
X100601726Y-185912778D01*
X100541383Y-185907629D01*
X100447872Y-185901995D01*
X100358176Y-185898267D01*
X100259670Y-185895556D01*
X100170852Y-185894073D01*
X100075915Y-185893297D01*
X100016017Y-185893170D01*
X99945235Y-185893170D01*
X99852122Y-185893380D01*
X99748092Y-185894186D01*
X99652471Y-185895596D01*
X99551540Y-185898006D01*
X99462054Y-185901238D01*
X99450204Y-185901767D01*
X99361425Y-185907104D01*
X99274226Y-185915589D01*
X99185879Y-185929528D01*
X99158725Y-185935570D01*
X99085888Y-185959372D01*
X99033091Y-185992433D01*
X99020678Y-186006108D01*
X98998476Y-186047070D01*
X98988530Y-186088430D01*
X98986387Y-186122367D01*
X98986387Y-186143274D01*
X99146415Y-186143274D01*
X99146415Y-186124321D01*
X99149849Y-186083762D01*
X99155207Y-186063163D01*
X99182762Y-186024976D01*
X99190818Y-186019004D01*
X99257368Y-185991606D01*
X99269953Y-185988522D01*
X99354324Y-185974642D01*
X99411516Y-185968983D01*
X99504677Y-185963009D01*
X99592281Y-185959652D01*
X99632214Y-185958627D01*
X99728622Y-185956958D01*
X99816930Y-185956108D01*
X99913723Y-185955722D01*
X99947873Y-185955696D01*
X100013819Y-185955696D01*
X100106335Y-185955952D01*
X100202467Y-185956854D01*
X100299411Y-185958617D01*
X100343986Y-185959799D01*
X100433698Y-185963479D01*
X100526326Y-185970387D01*
X100576115Y-185976017D01*
X100660965Y-185990769D01*
X100727350Y-186010406D01*
X100786017Y-186041422D01*
X100816157Y-186068438D01*
X100841704Y-186106094D01*
X100856500Y-186145118D01*
X100859681Y-186158320D01*
X100865938Y-186197709D01*
X100869373Y-186237765D01*
X100870629Y-186277274D01*
X100870672Y-186286498D01*
X100870672Y-186300176D01*
X100869872Y-186340382D01*
X100867107Y-186381140D01*
X100861784Y-186421214D01*
X100860560Y-186427964D01*
X100849007Y-186468340D01*
X100827381Y-186507956D01*
X100820113Y-186517259D01*
X100777146Y-186553316D01*
X100732186Y-186575291D01*
X100656204Y-186596882D01*
X100580951Y-186609485D01*
X100489961Y-186618798D01*
X100398173Y-186624458D01*
X100347503Y-186626484D01*
X100254991Y-186628854D01*
X100162479Y-186630237D01*
X100072889Y-186630869D01*
X100013379Y-186630979D01*
X99947873Y-186630979D01*
X99844947Y-186630738D01*
X99750490Y-186630017D01*
X99650995Y-186628568D01*
X99563029Y-186626464D01*
X99496806Y-186624140D01*
X99401373Y-186618759D01*
X99315241Y-186610283D01*
X99248850Y-186599129D01*
X99178250Y-186575741D01*
X99143777Y-186548327D01*
X99125939Y-186507383D01*
X99121005Y-186467887D01*
X99120916Y-186461181D01*
X99120916Y-186443400D01*
X98960888Y-186443400D01*
X98960888Y-186466457D01*
X98964752Y-186508314D01*
X98977928Y-186548362D01*
X99000455Y-186582130D01*
X99048540Y-186617238D01*
X99117302Y-186643207D01*
X99149932Y-186651495D01*
X99235001Y-186666727D01*
X99328836Y-186677169D01*
X99426723Y-186683792D01*
X99450204Y-186684907D01*
X99538681Y-186688257D01*
X99637929Y-186690784D01*
X99731572Y-186692296D01*
X99833128Y-186693202D01*
X99923803Y-186693496D01*
X99942598Y-186693505D01*
X100016017Y-186693505D01*
G37*
G36*
X98018065Y-186118270D02*
G01*
X98106450Y-186118856D01*
X98195356Y-186120630D01*
X98289122Y-186124321D01*
X98303366Y-186125122D01*
X98394415Y-186133163D01*
X98479925Y-186147573D01*
X98534332Y-186163707D01*
X98589834Y-186195640D01*
X98591971Y-186197587D01*
X98617918Y-186235997D01*
X98624565Y-186275166D01*
X98624565Y-186293337D01*
X98472451Y-186293337D01*
X98472451Y-186277315D01*
X98472197Y-186270488D01*
X98456184Y-186231593D01*
X98455136Y-186230476D01*
X98391558Y-186202479D01*
X98340611Y-186193856D01*
X98250874Y-186186066D01*
X98187650Y-186183284D01*
X98096481Y-186181305D01*
X98007755Y-186180790D01*
X97967308Y-186180790D01*
X97955436Y-186180796D01*
X97855810Y-186181401D01*
X97760369Y-186183233D01*
X97667036Y-186187043D01*
X97582069Y-186194923D01*
X97503491Y-186212639D01*
X97465298Y-186231482D01*
X97432709Y-186269695D01*
X97425785Y-186290162D01*
X97418752Y-186330715D01*
X97416882Y-186372081D01*
X97411639Y-186402526D01*
X97475794Y-186377161D01*
X97510198Y-186368831D01*
X97594056Y-186356645D01*
X97679195Y-186349927D01*
X97767713Y-186346289D01*
X97827821Y-186344872D01*
X97918785Y-186343705D01*
X98013030Y-186343358D01*
X98060951Y-186343358D01*
X98082704Y-186343390D01*
X98174942Y-186344328D01*
X98266578Y-186346892D01*
X98354189Y-186351565D01*
X98368630Y-186352612D01*
X98459811Y-186362507D01*
X98542793Y-186379311D01*
X98594197Y-186397412D01*
X98644789Y-186431872D01*
X98646655Y-186433939D01*
X98669317Y-186473995D01*
X98675124Y-186513937D01*
X98675124Y-186524098D01*
X98669328Y-186565812D01*
X98648745Y-186604991D01*
X98616697Y-186631208D01*
X98550267Y-186657552D01*
X98531541Y-186662303D01*
X98446881Y-186676854D01*
X98355068Y-186685298D01*
X98314691Y-186687662D01*
X98223312Y-186691189D01*
X98128957Y-186692992D01*
X98035452Y-186693505D01*
X97990169Y-186693505D01*
X97940736Y-186693306D01*
X97849937Y-186691712D01*
X97757601Y-186687838D01*
X97678056Y-186682415D01*
X97591858Y-186673575D01*
X97554841Y-186668070D01*
X97476673Y-186649932D01*
X97462644Y-186645262D01*
X97408283Y-186620414D01*
X97414244Y-186681000D01*
X97259492Y-186681000D01*
X97259492Y-186519604D01*
X97414244Y-186519604D01*
X97415344Y-186535528D01*
X97431830Y-186573923D01*
X97439728Y-186581402D01*
X97507887Y-186607140D01*
X97591195Y-186619045D01*
X97680225Y-186625312D01*
X97709797Y-186626640D01*
X97803660Y-186629379D01*
X97894136Y-186630624D01*
X97984893Y-186630979D01*
X98027978Y-186630979D01*
X98102331Y-186630698D01*
X98192544Y-186629394D01*
X98281209Y-186626484D01*
X98342707Y-186622517D01*
X98430685Y-186610071D01*
X98443243Y-186606954D01*
X98501907Y-186577441D01*
X98512419Y-186561312D01*
X98520371Y-186520776D01*
X98520371Y-186514914D01*
X98519272Y-186498489D01*
X98502786Y-186459618D01*
X98497874Y-186454531D01*
X98434642Y-186426792D01*
X98376689Y-186417249D01*
X98286484Y-186410378D01*
X98212414Y-186407820D01*
X98123798Y-186406323D01*
X98030616Y-186405884D01*
X97984893Y-186405884D01*
X97974073Y-186405888D01*
X97882137Y-186406285D01*
X97791487Y-186407487D01*
X97698690Y-186409988D01*
X97609804Y-186414866D01*
X97523714Y-186425424D01*
X97501530Y-186430010D01*
X97437545Y-186457664D01*
X97424279Y-186473496D01*
X97414244Y-186512570D01*
X97414244Y-186519604D01*
X97259492Y-186519604D01*
X97259492Y-186381655D01*
X97259709Y-186365764D01*
X97262401Y-186326344D01*
X97270095Y-186283113D01*
X97284112Y-186243316D01*
X97289180Y-186233744D01*
X97324787Y-186194613D01*
X97384789Y-186162814D01*
X97426582Y-186149832D01*
X97511491Y-186134207D01*
X97599771Y-186126275D01*
X97674537Y-186122770D01*
X97771326Y-186120024D01*
X97868630Y-186118647D01*
X97962472Y-186118264D01*
X98007755Y-186118264D01*
X98018065Y-186118270D01*
G37*
G36*
X96199701Y-186118681D02*
G01*
X96293417Y-186120325D01*
X96382856Y-186123540D01*
X96389691Y-186123863D01*
X96478168Y-186129719D01*
X96567503Y-186140148D01*
X96615155Y-186149136D01*
X96687085Y-186172193D01*
X96712793Y-186185760D01*
X96747147Y-186215716D01*
X96738962Y-186130769D01*
X96893714Y-186130769D01*
X96893714Y-186868578D01*
X96736324Y-186868578D01*
X96745332Y-186588860D01*
X96733018Y-186603339D01*
X96682249Y-186635668D01*
X96638742Y-186651459D01*
X96558711Y-186669667D01*
X96549138Y-186671250D01*
X96463904Y-186681825D01*
X96376701Y-186688034D01*
X96298361Y-186691149D01*
X96209632Y-186692970D01*
X96119953Y-186693505D01*
X96072032Y-186693505D01*
X96007014Y-186693223D01*
X95910843Y-186691602D01*
X95814213Y-186688056D01*
X95721202Y-186681976D01*
X95663989Y-186675960D01*
X95578930Y-186661123D01*
X95505340Y-186638599D01*
X95473138Y-186623504D01*
X95426171Y-186589766D01*
X95397629Y-186552039D01*
X95389396Y-186534264D01*
X95377118Y-186494277D01*
X95370839Y-186453231D01*
X95369053Y-186412723D01*
X95369053Y-186411551D01*
X95526443Y-186411551D01*
X95527597Y-186445452D01*
X95532952Y-186486323D01*
X95544907Y-186526052D01*
X95568253Y-186559888D01*
X95620525Y-186592290D01*
X95624177Y-186593717D01*
X95702426Y-186613407D01*
X95789785Y-186623163D01*
X95818801Y-186624995D01*
X95911063Y-186628773D01*
X96000152Y-186630490D01*
X96089618Y-186630979D01*
X96142814Y-186630979D01*
X96178490Y-186630910D01*
X96267015Y-186630055D01*
X96364148Y-186627613D01*
X96453637Y-186623163D01*
X96460866Y-186622660D01*
X96550978Y-186612573D01*
X96632570Y-186592681D01*
X96684667Y-186564789D01*
X96716980Y-186526833D01*
X96729495Y-186493729D01*
X96736815Y-186453790D01*
X96738962Y-186411551D01*
X96738962Y-186396701D01*
X96737670Y-186361908D01*
X96731677Y-186320410D01*
X96718299Y-186280832D01*
X96692008Y-186247621D01*
X96635207Y-186216352D01*
X96623015Y-186212348D01*
X96541545Y-186195574D01*
X96454956Y-186187629D01*
X96416153Y-186185659D01*
X96327470Y-186182720D01*
X96235028Y-186181218D01*
X96142814Y-186180790D01*
X96089618Y-186180790D01*
X96077906Y-186180798D01*
X95979296Y-186181553D01*
X95884087Y-186183843D01*
X95789785Y-186188606D01*
X95782859Y-186189108D01*
X95696978Y-186199067D01*
X95620525Y-186218501D01*
X95572824Y-186245710D01*
X95544907Y-186283177D01*
X95534395Y-186315721D01*
X95528246Y-186355054D01*
X95526443Y-186396701D01*
X95526443Y-186411551D01*
X95369053Y-186411551D01*
X95369053Y-186397873D01*
X95369499Y-186376908D01*
X95373071Y-186337854D01*
X95381359Y-186298501D01*
X95397629Y-186256994D01*
X95407793Y-186240315D01*
X95445774Y-186202575D01*
X95505340Y-186171020D01*
X95548507Y-186156830D01*
X95634007Y-186139084D01*
X95721202Y-186129206D01*
X95794374Y-186124419D01*
X95888188Y-186120668D01*
X95981796Y-186118788D01*
X96071593Y-186118264D01*
X96114677Y-186118264D01*
X96199701Y-186118681D01*
G37*
G36*
X94347949Y-186118681D02*
G01*
X94441665Y-186120325D01*
X94531104Y-186123540D01*
X94537939Y-186123863D01*
X94626416Y-186129719D01*
X94715752Y-186140148D01*
X94763403Y-186149136D01*
X94835333Y-186172193D01*
X94861042Y-186185760D01*
X94895395Y-186215715D01*
X94887210Y-186130769D01*
X95041963Y-186130769D01*
X95041963Y-186868578D01*
X94884572Y-186868578D01*
X94893581Y-186588859D01*
X94881266Y-186603339D01*
X94830497Y-186635668D01*
X94786991Y-186651459D01*
X94706959Y-186669667D01*
X94697387Y-186671250D01*
X94612152Y-186681825D01*
X94524949Y-186688034D01*
X94446610Y-186691149D01*
X94357880Y-186692970D01*
X94268201Y-186693505D01*
X94220281Y-186693505D01*
X94155263Y-186693223D01*
X94059092Y-186691602D01*
X93962461Y-186688056D01*
X93869450Y-186681976D01*
X93812238Y-186675960D01*
X93727178Y-186661123D01*
X93653588Y-186638599D01*
X93621386Y-186623504D01*
X93574419Y-186589766D01*
X93545877Y-186552039D01*
X93537645Y-186534264D01*
X93525366Y-186494277D01*
X93519087Y-186453231D01*
X93517301Y-186412723D01*
X93517301Y-186411551D01*
X93674691Y-186411551D01*
X93675845Y-186445452D01*
X93681201Y-186486323D01*
X93693156Y-186526052D01*
X93716501Y-186559888D01*
X93768773Y-186592290D01*
X93772426Y-186593717D01*
X93850675Y-186613407D01*
X93938034Y-186623163D01*
X93967050Y-186624995D01*
X94059312Y-186628773D01*
X94148400Y-186630490D01*
X94237866Y-186630979D01*
X94291062Y-186630979D01*
X94326739Y-186630910D01*
X94415264Y-186630055D01*
X94512396Y-186627613D01*
X94601886Y-186623163D01*
X94609114Y-186622660D01*
X94699226Y-186612573D01*
X94780818Y-186592681D01*
X94832915Y-186564789D01*
X94865228Y-186526833D01*
X94877743Y-186493729D01*
X94885064Y-186453790D01*
X94887210Y-186411551D01*
X94887210Y-186396701D01*
X94885919Y-186361908D01*
X94879926Y-186320410D01*
X94866547Y-186280832D01*
X94840257Y-186247621D01*
X94783456Y-186216352D01*
X94771264Y-186212348D01*
X94689793Y-186195574D01*
X94603205Y-186187629D01*
X94564402Y-186185659D01*
X94475718Y-186182720D01*
X94383276Y-186181218D01*
X94291062Y-186180790D01*
X94237866Y-186180790D01*
X94226154Y-186180798D01*
X94127545Y-186181553D01*
X94032336Y-186183843D01*
X93938034Y-186188606D01*
X93931107Y-186189108D01*
X93845227Y-186199067D01*
X93768773Y-186218501D01*
X93721073Y-186245710D01*
X93693156Y-186283177D01*
X93682643Y-186315721D01*
X93676494Y-186355054D01*
X93674691Y-186396701D01*
X93674691Y-186411551D01*
X93517301Y-186411551D01*
X93517301Y-186397873D01*
X93517747Y-186376908D01*
X93521320Y-186337854D01*
X93529608Y-186298501D01*
X93545877Y-186256994D01*
X93556042Y-186240315D01*
X93594023Y-186202575D01*
X93653588Y-186171020D01*
X93696755Y-186156830D01*
X93782256Y-186139084D01*
X93869450Y-186129206D01*
X93942622Y-186124419D01*
X94036436Y-186120668D01*
X94130045Y-186118788D01*
X94219841Y-186118264D01*
X94262926Y-186118264D01*
X94347949Y-186118681D01*
G37*
G36*
X91746443Y-186681000D02*
G01*
X91903833Y-186681000D01*
X91892402Y-186566694D01*
X91889764Y-186567280D01*
X91922256Y-186603978D01*
X91951314Y-186622772D01*
X92017396Y-186648937D01*
X92068257Y-186661851D01*
X92156096Y-186676309D01*
X92243900Y-186684985D01*
X92250706Y-186685494D01*
X92339774Y-186690375D01*
X92434237Y-186692871D01*
X92520644Y-186693505D01*
X92563288Y-186693505D01*
X92653909Y-186692821D01*
X92746529Y-186690417D01*
X92837856Y-186685715D01*
X92878948Y-186682563D01*
X92966470Y-186672103D01*
X93050607Y-186654205D01*
X93080741Y-186644656D01*
X93141271Y-186615084D01*
X93179811Y-186579736D01*
X93185815Y-186571188D01*
X93204032Y-186532949D01*
X93213345Y-186492248D01*
X93215710Y-186454928D01*
X93215710Y-186130769D01*
X93058320Y-186130769D01*
X93058320Y-186428355D01*
X93056190Y-186468705D01*
X93048181Y-186509248D01*
X93040295Y-186530351D01*
X93010626Y-186567171D01*
X92967755Y-186591509D01*
X92891618Y-186611986D01*
X92811244Y-186622186D01*
X92716333Y-186627879D01*
X92627427Y-186630283D01*
X92535591Y-186630979D01*
X92492507Y-186630979D01*
X92402209Y-186630177D01*
X92312007Y-186627444D01*
X92231362Y-186622772D01*
X92141659Y-186612989D01*
X92056864Y-186595856D01*
X92047594Y-186593267D01*
X91980724Y-186566214D01*
X91939443Y-186534649D01*
X91913883Y-186494584D01*
X91904702Y-186455484D01*
X91903833Y-186437343D01*
X91903833Y-186130769D01*
X91746443Y-186130769D01*
X91746443Y-186681000D01*
G37*
G36*
X90660099Y-186693505D02*
G01*
X90756610Y-186693000D01*
X90845336Y-186691485D01*
X90937206Y-186688518D01*
X91028408Y-186683603D01*
X91037748Y-186682953D01*
X91124018Y-186674458D01*
X91211561Y-186658925D01*
X91271195Y-186641530D01*
X91331568Y-186612259D01*
X91374092Y-186575248D01*
X91387699Y-186555556D01*
X91405470Y-186514249D01*
X91414523Y-186474956D01*
X91418425Y-186435877D01*
X91418913Y-186414872D01*
X91418913Y-186396896D01*
X91416962Y-186355351D01*
X91410103Y-186313458D01*
X91396691Y-186272929D01*
X91387699Y-186255040D01*
X91356498Y-186217414D01*
X91305117Y-186184343D01*
X91269876Y-186169848D01*
X91189354Y-186148277D01*
X91105919Y-186135263D01*
X91036429Y-186128815D01*
X90947294Y-186123715D01*
X90857086Y-186120582D01*
X90756546Y-186118769D01*
X90660099Y-186118264D01*
X90602067Y-186118264D01*
X90504660Y-186118777D01*
X90415991Y-186120316D01*
X90326682Y-186123273D01*
X90264866Y-186126471D01*
X90172294Y-186134549D01*
X90089311Y-186147641D01*
X90052081Y-186156561D01*
X89984487Y-186182304D01*
X89940853Y-186216157D01*
X89918133Y-186256073D01*
X89909694Y-186297752D01*
X89909199Y-186311900D01*
X89909199Y-186330853D01*
X90061314Y-186330853D01*
X90061314Y-186316394D01*
X90067393Y-186276128D01*
X90082856Y-186248201D01*
X90135200Y-186215485D01*
X90161551Y-186207364D01*
X90247089Y-186192804D01*
X90325975Y-186186652D01*
X90415393Y-186183080D01*
X90503604Y-186181363D01*
X90593639Y-186180796D01*
X90604265Y-186180790D01*
X90657461Y-186180790D01*
X90753192Y-186181279D01*
X90848540Y-186182996D01*
X90939147Y-186186354D01*
X90978397Y-186188606D01*
X91065839Y-186197439D01*
X91147763Y-186215129D01*
X91159967Y-186219283D01*
X91216706Y-186251026D01*
X91242179Y-186284349D01*
X91254703Y-186323346D01*
X91260314Y-186363447D01*
X91261523Y-186396701D01*
X91261523Y-186415068D01*
X91259505Y-186456059D01*
X91251756Y-186498044D01*
X91240860Y-186527029D01*
X91209426Y-186564105D01*
X91157329Y-186591704D01*
X91074993Y-186611761D01*
X90983150Y-186622233D01*
X90975759Y-186622772D01*
X90884394Y-186627444D01*
X90795576Y-186629825D01*
X90706000Y-186630850D01*
X90657461Y-186630979D01*
X90604265Y-186630979D01*
X90510490Y-186630499D01*
X90418939Y-186628843D01*
X90326646Y-186625294D01*
X90319820Y-186624921D01*
X90229029Y-186617225D01*
X90152758Y-186603623D01*
X90087783Y-186576668D01*
X90072744Y-186563372D01*
X90053747Y-186523473D01*
X90051202Y-186497133D01*
X90051202Y-186480916D01*
X89899087Y-186480916D01*
X89899087Y-186501628D01*
X89903910Y-186541378D01*
X89921725Y-186580808D01*
X89933379Y-186595417D01*
X89979541Y-186628780D01*
X90049443Y-186654621D01*
X90131176Y-186671323D01*
X90217441Y-186681471D01*
X90266184Y-186685103D01*
X90356980Y-186689533D01*
X90449708Y-186692118D01*
X90540892Y-186693300D01*
X90602067Y-186693505D01*
X90660099Y-186693505D01*
G37*
G36*
X88871655Y-186693505D02*
G01*
X88968166Y-186693000D01*
X89056892Y-186691485D01*
X89148763Y-186688518D01*
X89239964Y-186683603D01*
X89249304Y-186682953D01*
X89335574Y-186674458D01*
X89423117Y-186658925D01*
X89482751Y-186641530D01*
X89543124Y-186612259D01*
X89585648Y-186575248D01*
X89599255Y-186555556D01*
X89617026Y-186514249D01*
X89626080Y-186474956D01*
X89629981Y-186435877D01*
X89630469Y-186414872D01*
X89630469Y-186396896D01*
X89628518Y-186355351D01*
X89621660Y-186313458D01*
X89608247Y-186272929D01*
X89599255Y-186255040D01*
X89568054Y-186217414D01*
X89516673Y-186184343D01*
X89481432Y-186169848D01*
X89400910Y-186148277D01*
X89317475Y-186135263D01*
X89247985Y-186128815D01*
X89158850Y-186123715D01*
X89068642Y-186120582D01*
X88968103Y-186118769D01*
X88871655Y-186118264D01*
X88813623Y-186118264D01*
X88716216Y-186118777D01*
X88627547Y-186120316D01*
X88538238Y-186123273D01*
X88476422Y-186126471D01*
X88383851Y-186134549D01*
X88300867Y-186147641D01*
X88263637Y-186156561D01*
X88196043Y-186182304D01*
X88152409Y-186216157D01*
X88129689Y-186256073D01*
X88121250Y-186297752D01*
X88120755Y-186311900D01*
X88120755Y-186330853D01*
X88272870Y-186330853D01*
X88272870Y-186316394D01*
X88278949Y-186276128D01*
X88294412Y-186248201D01*
X88346756Y-186215485D01*
X88373107Y-186207364D01*
X88458645Y-186192804D01*
X88537531Y-186186652D01*
X88626949Y-186183080D01*
X88715160Y-186181363D01*
X88805195Y-186180796D01*
X88815822Y-186180790D01*
X88869018Y-186180790D01*
X88964749Y-186181279D01*
X89060097Y-186182996D01*
X89150703Y-186186354D01*
X89189953Y-186188606D01*
X89277395Y-186197439D01*
X89359319Y-186215129D01*
X89371523Y-186219283D01*
X89428262Y-186251026D01*
X89453735Y-186284349D01*
X89466260Y-186323346D01*
X89471870Y-186363447D01*
X89473079Y-186396701D01*
X89473079Y-186415068D01*
X89471061Y-186456059D01*
X89463313Y-186498044D01*
X89452416Y-186527029D01*
X89420982Y-186564105D01*
X89368885Y-186591704D01*
X89286549Y-186611761D01*
X89194706Y-186622233D01*
X89187315Y-186622772D01*
X89095950Y-186627444D01*
X89007132Y-186629825D01*
X88917556Y-186630850D01*
X88869018Y-186630979D01*
X88815822Y-186630979D01*
X88722046Y-186630499D01*
X88630495Y-186628843D01*
X88538202Y-186625294D01*
X88531376Y-186624921D01*
X88440585Y-186617225D01*
X88364314Y-186603623D01*
X88299339Y-186576668D01*
X88284300Y-186563372D01*
X88265304Y-186523473D01*
X88262758Y-186497133D01*
X88262758Y-186480916D01*
X88110644Y-186480916D01*
X88110644Y-186501628D01*
X88115466Y-186541378D01*
X88133281Y-186580808D01*
X88144935Y-186595417D01*
X88191097Y-186628780D01*
X88261000Y-186654621D01*
X88342733Y-186671323D01*
X88428998Y-186681471D01*
X88477741Y-186685103D01*
X88568536Y-186689533D01*
X88661264Y-186692118D01*
X88752448Y-186693300D01*
X88813623Y-186693505D01*
X88871655Y-186693505D01*
G37*
G36*
X87628801Y-186681000D02*
G01*
X87786191Y-186681000D01*
X87786191Y-186130769D01*
X87628801Y-186130769D01*
X87628801Y-186681000D01*
G37*
G36*
X87628801Y-186005717D02*
G01*
X87786191Y-186005717D01*
X87786191Y-185905675D01*
X87628801Y-185905675D01*
X87628801Y-186005717D01*
G37*
G36*
X86551027Y-186118274D02*
G01*
X86649235Y-186118923D01*
X86738944Y-186120582D01*
X86831062Y-186123715D01*
X86921425Y-186128815D01*
X86991327Y-186135227D01*
X87074522Y-186148070D01*
X87153554Y-186169262D01*
X87187811Y-186183633D01*
X87237256Y-186216721D01*
X87266540Y-186254649D01*
X87274773Y-186272651D01*
X87287052Y-186313348D01*
X87293331Y-186355326D01*
X87295117Y-186396896D01*
X87295117Y-186414872D01*
X87294670Y-186436152D01*
X87291098Y-186475671D01*
X87282810Y-186515283D01*
X87266540Y-186556729D01*
X87256258Y-186573239D01*
X87216865Y-186610674D01*
X87153993Y-186642116D01*
X87095011Y-186659202D01*
X87007798Y-186674516D01*
X86921425Y-186682953D01*
X86912079Y-186683603D01*
X86820154Y-186688518D01*
X86726649Y-186691485D01*
X86635725Y-186693000D01*
X86536303Y-186693505D01*
X86478271Y-186693505D01*
X86463549Y-186693494D01*
X86365422Y-186692845D01*
X86275920Y-186691186D01*
X86184194Y-186688054D01*
X86094468Y-186682953D01*
X86033234Y-186677460D01*
X85942260Y-186663561D01*
X85863658Y-186642116D01*
X85829400Y-186627545D01*
X85779955Y-186594382D01*
X85750672Y-186556729D01*
X85742439Y-186538840D01*
X85730160Y-186498311D01*
X85723881Y-186456418D01*
X85722103Y-186415068D01*
X85879485Y-186415068D01*
X85880639Y-186449360D01*
X85885995Y-186490449D01*
X85897950Y-186529960D01*
X85921969Y-186563171D01*
X85977085Y-186594440D01*
X85989053Y-186598449D01*
X86070111Y-186615424D01*
X86157336Y-186623749D01*
X86196650Y-186625832D01*
X86287772Y-186628938D01*
X86384024Y-186630527D01*
X86480909Y-186630979D01*
X86534105Y-186630979D01*
X86583777Y-186630866D01*
X86675167Y-186629962D01*
X86765302Y-186627865D01*
X86857238Y-186623749D01*
X86864628Y-186623283D01*
X86956182Y-186613708D01*
X87037489Y-186594440D01*
X87088267Y-186567133D01*
X87118383Y-186529764D01*
X87129396Y-186497081D01*
X87135838Y-186457333D01*
X87137727Y-186415068D01*
X87137727Y-186396701D01*
X87136600Y-186362421D01*
X87131372Y-186321389D01*
X87119702Y-186282004D01*
X87095382Y-186248660D01*
X87040127Y-186217329D01*
X87028148Y-186213319D01*
X86946636Y-186196345D01*
X86858557Y-186188020D01*
X86818874Y-186185937D01*
X86727271Y-186182831D01*
X86630880Y-186181242D01*
X86534105Y-186180790D01*
X86480909Y-186180790D01*
X86431134Y-186180903D01*
X86339579Y-186181807D01*
X86249324Y-186183904D01*
X86157336Y-186188020D01*
X86149946Y-186188486D01*
X86058392Y-186198060D01*
X85977085Y-186217329D01*
X85926746Y-186244538D01*
X85897950Y-186282004D01*
X85887437Y-186314687D01*
X85881288Y-186354435D01*
X85879485Y-186396701D01*
X85879485Y-186415068D01*
X85722103Y-186415068D01*
X85722095Y-186414872D01*
X85722095Y-186396896D01*
X85722542Y-186375610D01*
X85726114Y-186336043D01*
X85734402Y-186296318D01*
X85750672Y-186254649D01*
X85760965Y-186237984D01*
X85800486Y-186200416D01*
X85863658Y-186169262D01*
X85916077Y-186153897D01*
X86001333Y-186138267D01*
X86094907Y-186128815D01*
X86104146Y-186128166D01*
X86195251Y-186123251D01*
X86288262Y-186120284D01*
X86378933Y-186118769D01*
X86478271Y-186118264D01*
X86536303Y-186118264D01*
X86551027Y-186118274D01*
G37*
D12*
D13*
G36*
X140429032Y-178871000D02*
G01*
X140577678Y-178871000D01*
X140577678Y-178261369D01*
X140809367Y-178261369D01*
X140809367Y-178183212D01*
X140577678Y-178183212D01*
X140577678Y-178117755D01*
X140573319Y-178068723D01*
X140560240Y-178023721D01*
X140530309Y-177976980D01*
X140499203Y-177949960D01*
X140432834Y-177916911D01*
X140382113Y-177902577D01*
X140300005Y-177890303D01*
X140214025Y-177886276D01*
X140200665Y-177886212D01*
X140115105Y-177888136D01*
X140088973Y-177889632D01*
X140006605Y-177898928D01*
X139976866Y-177904042D01*
X139976866Y-177980979D01*
X140060612Y-177975658D01*
X140090634Y-177974384D01*
X140174507Y-177972919D01*
X140258558Y-177975237D01*
X140309036Y-177980246D01*
X140383362Y-178003138D01*
X140385020Y-178004182D01*
X140419898Y-178050099D01*
X140428310Y-178099730D01*
X140429032Y-178123616D01*
X140429032Y-178183212D01*
X140041639Y-178183212D01*
X140041639Y-178261369D01*
X140429032Y-178261369D01*
X140429032Y-178871000D01*
G37*
G36*
X138513655Y-178871000D02*
G01*
X138662302Y-178871000D01*
X138651506Y-178728117D01*
X138649015Y-178728850D01*
X138679702Y-178774722D01*
X138707145Y-178798215D01*
X138769556Y-178830921D01*
X138817591Y-178847064D01*
X138900551Y-178865136D01*
X138983476Y-178875982D01*
X138989905Y-178876617D01*
X139074024Y-178882719D01*
X139163239Y-178885839D01*
X139244845Y-178886631D01*
X139285121Y-178886631D01*
X139370707Y-178885776D01*
X139458181Y-178882771D01*
X139544435Y-178876894D01*
X139583244Y-178872953D01*
X139665904Y-178859879D01*
X139745367Y-178837506D01*
X139773826Y-178825570D01*
X139830993Y-178788605D01*
X139867392Y-178744420D01*
X139873062Y-178733735D01*
X139890268Y-178685936D01*
X139899063Y-178635060D01*
X139901297Y-178588411D01*
X139901297Y-178183212D01*
X139752651Y-178183212D01*
X139752651Y-178555193D01*
X139750639Y-178605632D01*
X139743075Y-178656310D01*
X139735627Y-178682688D01*
X139707606Y-178728714D01*
X139667117Y-178759136D01*
X139595210Y-178784733D01*
X139519301Y-178797482D01*
X139429663Y-178804599D01*
X139345696Y-178807604D01*
X139258963Y-178808473D01*
X139218272Y-178808473D01*
X139132991Y-178807472D01*
X139047799Y-178804055D01*
X138971635Y-178798215D01*
X138886916Y-178785987D01*
X138806831Y-178764570D01*
X138798076Y-178761334D01*
X138734921Y-178727517D01*
X138695934Y-178688062D01*
X138671794Y-178637980D01*
X138663123Y-178589105D01*
X138662302Y-178566429D01*
X138662302Y-178183212D01*
X138513655Y-178183212D01*
X138513655Y-178871000D01*
G37*
G36*
X137487665Y-178886631D02*
G01*
X137578813Y-178886000D01*
X137662610Y-178884107D01*
X137749377Y-178880397D01*
X137835512Y-178874253D01*
X137844332Y-178873442D01*
X137925810Y-178862823D01*
X138008489Y-178843406D01*
X138064810Y-178821662D01*
X138121830Y-178785074D01*
X138161991Y-178738811D01*
X138174842Y-178714196D01*
X138191626Y-178662561D01*
X138200176Y-178613445D01*
X138203861Y-178564597D01*
X138204322Y-178538341D01*
X138204322Y-178515870D01*
X138202479Y-178463938D01*
X138196002Y-178411573D01*
X138183335Y-178360911D01*
X138174842Y-178338550D01*
X138145375Y-178291518D01*
X138096847Y-178250179D01*
X138063565Y-178232060D01*
X137987516Y-178205096D01*
X137908716Y-178188829D01*
X137843087Y-178180769D01*
X137758904Y-178174394D01*
X137673707Y-178170478D01*
X137578753Y-178168211D01*
X137487665Y-178167580D01*
X137432856Y-178167580D01*
X137340861Y-178168221D01*
X137257118Y-178170145D01*
X137172771Y-178173841D01*
X137114388Y-178177838D01*
X137026960Y-178187936D01*
X136948587Y-178204302D01*
X136913425Y-178215452D01*
X136849586Y-178247631D01*
X136808376Y-178289946D01*
X136786918Y-178339841D01*
X136778948Y-178391940D01*
X136778481Y-178409625D01*
X136778481Y-178433316D01*
X136922145Y-178433316D01*
X136922145Y-178415242D01*
X136927887Y-178364910D01*
X136942490Y-178330002D01*
X136991926Y-178289106D01*
X137016813Y-178278955D01*
X137097599Y-178260755D01*
X137172103Y-178253065D01*
X137256553Y-178248600D01*
X137339863Y-178246453D01*
X137424896Y-178245745D01*
X137434933Y-178245738D01*
X137485173Y-178245738D01*
X137575586Y-178246348D01*
X137665637Y-178248495D01*
X137751210Y-178252693D01*
X137788279Y-178255508D01*
X137870863Y-178266549D01*
X137948236Y-178288661D01*
X137959762Y-178293854D01*
X138013348Y-178333533D01*
X138037406Y-178375187D01*
X138049235Y-178423933D01*
X138054534Y-178474059D01*
X138055676Y-178515626D01*
X138055676Y-178538585D01*
X138053770Y-178589824D01*
X138046452Y-178642305D01*
X138036161Y-178678536D01*
X138006473Y-178724881D01*
X137957270Y-178759381D01*
X137879508Y-178784451D01*
X137792768Y-178797541D01*
X137785787Y-178798215D01*
X137699499Y-178804055D01*
X137615615Y-178807031D01*
X137531015Y-178808313D01*
X137485173Y-178808473D01*
X137434933Y-178808473D01*
X137346367Y-178807874D01*
X137259902Y-178805804D01*
X137172737Y-178801368D01*
X137166290Y-178800902D01*
X137080543Y-178791281D01*
X137008509Y-178774279D01*
X136947143Y-178740585D01*
X136932940Y-178723965D01*
X136914999Y-178674092D01*
X136912595Y-178641167D01*
X136912595Y-178620895D01*
X136768931Y-178620895D01*
X136768931Y-178646785D01*
X136773485Y-178696473D01*
X136790311Y-178745760D01*
X136801318Y-178764021D01*
X136844915Y-178805726D01*
X136910934Y-178838027D01*
X136988126Y-178858904D01*
X137069599Y-178871589D01*
X137115634Y-178876129D01*
X137201385Y-178881667D01*
X137288962Y-178884898D01*
X137375079Y-178886375D01*
X137432856Y-178886631D01*
X137487665Y-178886631D01*
G37*
G36*
X135144203Y-178871000D02*
G01*
X135384196Y-178871000D01*
X136235798Y-178542737D01*
X136313858Y-178542737D01*
X136313858Y-178871000D01*
X136462504Y-178871000D01*
X136462504Y-177901844D01*
X136313858Y-177901844D01*
X136313858Y-178464579D01*
X136223341Y-178464579D01*
X135484263Y-178183212D01*
X135256311Y-178183212D01*
X136097117Y-178503414D01*
X135144203Y-178871000D01*
G37*
G36*
X139079591Y-180720748D02*
G01*
X139002776Y-180722946D01*
X138932605Y-180722946D01*
X138847036Y-180720705D01*
X138793924Y-180715863D01*
X138715413Y-180696597D01*
X138695519Y-180688264D01*
X138636662Y-180653452D01*
X138605833Y-180628669D01*
X138559536Y-180585804D01*
X138516643Y-180542087D01*
X138510334Y-180535368D01*
X138540644Y-180535368D01*
X139231143Y-179863212D01*
X139061321Y-179863212D01*
X138442239Y-180484077D01*
X138446806Y-180484321D01*
X137890421Y-179863212D01*
X137728903Y-179863212D01*
X138275323Y-180458431D01*
X138318844Y-180505161D01*
X138364835Y-180553414D01*
X138406830Y-180596172D01*
X138449297Y-180637706D01*
X138497718Y-180680496D01*
X138549646Y-180718683D01*
X138587979Y-180741509D01*
X138657631Y-180771673D01*
X138731227Y-180789381D01*
X138814892Y-180798173D01*
X138902064Y-180801058D01*
X138915581Y-180801104D01*
X138992811Y-180800371D01*
X139076740Y-180797806D01*
X139079591Y-180797685D01*
X139079591Y-180720748D01*
G37*
G36*
X136989844Y-179848044D02*
G01*
X137083007Y-179850105D01*
X137166828Y-179853814D01*
X137258467Y-179860769D01*
X137314863Y-179867683D01*
X137399245Y-179885354D01*
X137473132Y-179912793D01*
X137505444Y-179931197D01*
X137552801Y-179972880D01*
X137581918Y-180020016D01*
X137590411Y-180042371D01*
X137603078Y-180092984D01*
X137609555Y-180145266D01*
X137611398Y-180197092D01*
X137611398Y-180214189D01*
X137610944Y-180240445D01*
X137607311Y-180289293D01*
X137598881Y-180338409D01*
X137582333Y-180390043D01*
X137569512Y-180414601D01*
X137529614Y-180460976D01*
X137473132Y-180497999D01*
X137417427Y-180520400D01*
X137335059Y-180540734D01*
X137253484Y-180552221D01*
X137244662Y-180553107D01*
X137158326Y-180559820D01*
X137071106Y-180563873D01*
X136986698Y-180565941D01*
X136894741Y-180566631D01*
X136842009Y-180566631D01*
X136785010Y-180566363D01*
X136700138Y-180564817D01*
X136613963Y-180561436D01*
X136529769Y-180555640D01*
X136484536Y-180550917D01*
X136403881Y-180537866D01*
X136326314Y-180516561D01*
X136259361Y-180483772D01*
X136215452Y-180441579D01*
X136204446Y-180423060D01*
X136187620Y-180373305D01*
X136183066Y-180323365D01*
X136183066Y-180300895D01*
X136327145Y-180300895D01*
X136327145Y-180320434D01*
X136329402Y-180353000D01*
X136346244Y-180402988D01*
X136358000Y-180418055D01*
X136419737Y-180453547D01*
X136491033Y-180470496D01*
X136577103Y-180480413D01*
X136583629Y-180480909D01*
X136671933Y-180485632D01*
X136759614Y-180487836D01*
X136849482Y-180488473D01*
X136894741Y-180488473D01*
X136939986Y-180488313D01*
X137023547Y-180487031D01*
X137106511Y-180484055D01*
X137192033Y-180478215D01*
X137198937Y-180477557D01*
X137284860Y-180464680D01*
X137362270Y-180439869D01*
X137409152Y-180408814D01*
X137441991Y-180362200D01*
X137452027Y-180331623D01*
X137460299Y-180282919D01*
X137462752Y-180230309D01*
X137462752Y-180222737D01*
X136192616Y-180222737D01*
X136192616Y-180144579D01*
X136338771Y-180144579D01*
X137459845Y-180144579D01*
X137459514Y-180136570D01*
X137453202Y-180085045D01*
X137437424Y-180035891D01*
X137417007Y-180005769D01*
X137361440Y-179968236D01*
X137357911Y-179966754D01*
X137282293Y-179945945D01*
X137197846Y-179935019D01*
X137169683Y-179932844D01*
X137080125Y-179928357D01*
X136993639Y-179926318D01*
X136906782Y-179925738D01*
X136868582Y-179925738D01*
X136857624Y-179925746D01*
X136765347Y-179926573D01*
X136676222Y-179929077D01*
X136587898Y-179934286D01*
X136506324Y-179944431D01*
X136429702Y-179965305D01*
X136396576Y-179982745D01*
X136357040Y-180027099D01*
X136355916Y-180029579D01*
X136342267Y-180078756D01*
X136338771Y-180129192D01*
X136338771Y-180144579D01*
X136192616Y-180144579D01*
X136192616Y-180138962D01*
X136194406Y-180097914D01*
X136202716Y-180047405D01*
X136221265Y-179996568D01*
X136224981Y-179989546D01*
X136264741Y-179942720D01*
X136325484Y-179906198D01*
X136366849Y-179890674D01*
X136448459Y-179871111D01*
X136531429Y-179860036D01*
X136600926Y-179854587D01*
X136689904Y-179850317D01*
X136778590Y-179848176D01*
X136863600Y-179847580D01*
X136913840Y-179847580D01*
X136989844Y-179848044D01*
G37*
G36*
X135250498Y-180566631D02*
G01*
X135341147Y-180566245D01*
X135434965Y-180564860D01*
X135518352Y-180562467D01*
X135599692Y-180558571D01*
X135684268Y-180551466D01*
X135766763Y-180538604D01*
X135808129Y-180528285D01*
X135876911Y-180496746D01*
X135908610Y-180463561D01*
X135927295Y-180415445D01*
X135933426Y-180363726D01*
X135933523Y-180355605D01*
X135933523Y-180332158D01*
X135789859Y-180332158D01*
X135789859Y-180351453D01*
X135784137Y-180401261D01*
X135776572Y-180421307D01*
X135721458Y-180459406D01*
X135712214Y-180462339D01*
X135631020Y-180476760D01*
X135552357Y-180482856D01*
X135468089Y-180486054D01*
X135384618Y-180487683D01*
X135299447Y-180488386D01*
X135252989Y-180488473D01*
X135162057Y-180488473D01*
X135075156Y-180487990D01*
X134991156Y-180486321D01*
X134907806Y-180482743D01*
X134901719Y-180482367D01*
X134817223Y-180474185D01*
X134757225Y-180462339D01*
X134696841Y-180428079D01*
X134694943Y-180425214D01*
X134680765Y-180376670D01*
X134680411Y-180365619D01*
X134680411Y-180352919D01*
X134689730Y-180303704D01*
X134694528Y-180295277D01*
X134759288Y-180262144D01*
X134762623Y-180261327D01*
X134846575Y-180248593D01*
X134927462Y-180243254D01*
X135013394Y-180240472D01*
X135098154Y-180239056D01*
X135184414Y-180238445D01*
X135231398Y-180238369D01*
X135320917Y-180237995D01*
X135413348Y-180236651D01*
X135504738Y-180233972D01*
X135574779Y-180230553D01*
X135656933Y-180223395D01*
X135742334Y-180209611D01*
X135776988Y-180200755D01*
X135845709Y-180169572D01*
X135872487Y-180142381D01*
X135891554Y-180092277D01*
X135895323Y-180050057D01*
X135895323Y-180032960D01*
X135887472Y-179982287D01*
X135867504Y-179944789D01*
X135816673Y-179905023D01*
X135770759Y-179886659D01*
X135690001Y-179868219D01*
X135606957Y-179858092D01*
X135585575Y-179856373D01*
X135497854Y-179851367D01*
X135414916Y-179848817D01*
X135321927Y-179847657D01*
X135288697Y-179847580D01*
X135219357Y-179847580D01*
X135129723Y-179848053D01*
X135038438Y-179849717D01*
X134948876Y-179852970D01*
X134908778Y-179855152D01*
X134823159Y-179862845D01*
X134741426Y-179877378D01*
X134712382Y-179885438D01*
X134644563Y-179917174D01*
X134611070Y-179950406D01*
X134589271Y-179998705D01*
X134582119Y-180051285D01*
X134582005Y-180059583D01*
X134582005Y-180082053D01*
X134725669Y-180082053D01*
X134725669Y-180062270D01*
X134733126Y-180013553D01*
X134741447Y-179995836D01*
X134797255Y-179957252D01*
X134806220Y-179954314D01*
X134886440Y-179938515D01*
X134952790Y-179932332D01*
X135043103Y-179928063D01*
X135127589Y-179926259D01*
X135214789Y-179925738D01*
X135279147Y-179925738D01*
X135364914Y-179926201D01*
X135455289Y-179928028D01*
X135535749Y-179931600D01*
X135618169Y-179938866D01*
X135676921Y-179949429D01*
X135736297Y-179981914D01*
X135749118Y-180031516D01*
X135749168Y-180035647D01*
X135749168Y-180051767D01*
X135736892Y-180101342D01*
X135734221Y-180105256D01*
X135669775Y-180136969D01*
X135666541Y-180137741D01*
X135585039Y-180149745D01*
X135507515Y-180155082D01*
X135416680Y-180158207D01*
X135324482Y-180159710D01*
X135239921Y-180160191D01*
X135217281Y-180160211D01*
X135127602Y-180160585D01*
X135034601Y-180161928D01*
X134942072Y-180164607D01*
X134870578Y-180168027D01*
X134786051Y-180174901D01*
X134703740Y-180186894D01*
X134662556Y-180196359D01*
X134593380Y-180225159D01*
X134560829Y-180255466D01*
X134539342Y-180304830D01*
X134534256Y-180351453D01*
X134534256Y-180365619D01*
X134540095Y-180414352D01*
X134560829Y-180460630D01*
X134607848Y-180501611D01*
X134658404Y-180523400D01*
X134736032Y-180542377D01*
X134820577Y-180553961D01*
X134849817Y-180556617D01*
X134940558Y-180562318D01*
X135027061Y-180565223D01*
X135113218Y-180566475D01*
X135159566Y-180566631D01*
X135250498Y-180566631D01*
G37*
D14*
%TO.C,TP24*%
X64593587Y-125476000D02*
X64593587Y-130556000D01*
D15*
X65609586Y-130302000D02*
X65609586Y-130810000D01*
D14*
X65863587Y-131826000D02*
X67486414Y-131826000D01*
D15*
X66371586Y-129540000D02*
X66371586Y-130302000D01*
X66371586Y-129540000D02*
X66879586Y-129540000D01*
X66371586Y-130302000D02*
X65609586Y-130302000D01*
X66371586Y-130810000D02*
X65609586Y-130810000D01*
X66371586Y-131572000D02*
X66371586Y-130810000D01*
X66879586Y-129286000D02*
X66371586Y-129286000D01*
X66879586Y-129540000D02*
X66879586Y-130302000D01*
X66879586Y-130302000D02*
X67641586Y-130302000D01*
X66879586Y-131572000D02*
X66371586Y-131572000D01*
X66879586Y-131572000D02*
X66371586Y-131572000D01*
X66879586Y-131572000D02*
X66879586Y-130810000D01*
D14*
X67486414Y-124206000D02*
X65863587Y-124206000D01*
D15*
X67641586Y-130302000D02*
X67641586Y-130810000D01*
X67641586Y-130810000D02*
X66879586Y-130810000D01*
D14*
X68756414Y-125476000D02*
X68756414Y-130556000D01*
X64593587Y-125476000D02*
G75*
G02*
X65863587Y-124206000I1269999J1D01*
G01*
X65863587Y-131826000D02*
G75*
G02*
X64593587Y-130556000I-1J1269999D01*
G01*
X67486414Y-124206000D02*
G75*
G02*
X68756416Y-125476000I2J-1270000D01*
G01*
X68756414Y-130556000D02*
G75*
G02*
X67486414Y-131826000I-1270002J2D01*
G01*
D15*
X66244586Y-131445000D02*
X65736586Y-130937000D01*
X66244586Y-130937000D01*
X66244586Y-131445000D01*
%TA.AperFunction,EtchedComponent*%
G36*
X66244586Y-131445000D02*
G01*
X65736586Y-130937000D01*
X66244586Y-130937000D01*
X66244586Y-131445000D01*
G37*
%TD.AperFunction*%
X67006586Y-131445000D02*
X67006586Y-130937000D01*
X67514586Y-130937000D01*
X67006586Y-131445000D01*
%TA.AperFunction,EtchedComponent*%
G36*
X67006586Y-131445000D02*
G01*
X67006586Y-130937000D01*
X67514586Y-130937000D01*
X67006586Y-131445000D01*
G37*
%TD.AperFunction*%
X66470414Y-129540000D02*
X66244586Y-129540000D01*
X66371586Y-129286000D01*
X66625586Y-129286000D01*
X66470414Y-129540000D01*
%TA.AperFunction,EtchedComponent*%
G36*
X66470414Y-129540000D02*
G01*
X66244586Y-129540000D01*
X66371586Y-129286000D01*
X66625586Y-129286000D01*
X66470414Y-129540000D01*
G37*
%TD.AperFunction*%
X67514586Y-130175000D02*
X67006586Y-130175000D01*
X67006586Y-129540000D01*
X67387586Y-129540000D01*
X67514586Y-130175000D01*
%TA.AperFunction,EtchedComponent*%
G36*
X67514586Y-130175000D02*
G01*
X67006586Y-130175000D01*
X67006586Y-129540000D01*
X67387586Y-129540000D01*
X67514586Y-130175000D01*
G37*
%TD.AperFunction*%
D16*
X66879587Y-124714000D02*
X66117587Y-124714000D01*
X65101587Y-125730000D01*
X65101587Y-127254000D01*
X66117587Y-128270000D01*
X66879587Y-128270000D01*
X66371586Y-129540000D01*
X66371587Y-130302000D01*
X65634987Y-130302000D01*
X65634987Y-130810000D01*
X66371587Y-131572000D01*
X66879587Y-131572000D01*
X66879587Y-131826000D01*
X65863587Y-131826000D01*
X64965561Y-131454026D01*
X64593587Y-130556000D01*
X64593587Y-125476000D01*
X64965561Y-124577974D01*
X65863587Y-124206000D01*
X66879587Y-124206000D01*
X66879587Y-124714000D01*
%TA.AperFunction,EtchedComponent*%
G36*
X66879587Y-124714000D02*
G01*
X66117587Y-124714000D01*
X65101587Y-125730000D01*
X65101587Y-127254000D01*
X66117587Y-128270000D01*
X66879587Y-128270000D01*
X66371586Y-129540000D01*
X66371587Y-130302000D01*
X65634987Y-130302000D01*
X65634987Y-130810000D01*
X66371587Y-131572000D01*
X66879587Y-131572000D01*
X66879587Y-131826000D01*
X65863587Y-131826000D01*
X64965561Y-131454026D01*
X64593587Y-130556000D01*
X64593587Y-125476000D01*
X64965561Y-124577974D01*
X65863587Y-124206000D01*
X66879587Y-124206000D01*
X66879587Y-124714000D01*
G37*
%TD.AperFunction*%
X68384440Y-124577974D02*
X68756414Y-125476000D01*
X68756414Y-130556000D01*
X68384440Y-131454026D01*
X67486414Y-131826000D01*
X66470414Y-131826000D01*
X66470414Y-131572000D01*
X66724414Y-131572000D01*
X67613414Y-130810000D01*
X67613414Y-130302000D01*
X66724414Y-129540000D01*
X66470414Y-129540000D01*
X66470414Y-128270000D01*
X67232414Y-128270000D01*
X68248414Y-127254000D01*
X68248414Y-125730000D01*
X67232414Y-124714000D01*
X66470414Y-124714000D01*
X66470414Y-124206000D01*
X67486414Y-124206000D01*
X68384440Y-124577974D01*
%TA.AperFunction,EtchedComponent*%
G36*
X68384440Y-124577974D02*
G01*
X68756414Y-125476000D01*
X68756414Y-130556000D01*
X68384440Y-131454026D01*
X67486414Y-131826000D01*
X66470414Y-131826000D01*
X66470414Y-131572000D01*
X66724414Y-131572000D01*
X67613414Y-130810000D01*
X67613414Y-130302000D01*
X66724414Y-129540000D01*
X66470414Y-129540000D01*
X66470414Y-128270000D01*
X67232414Y-128270000D01*
X68248414Y-127254000D01*
X68248414Y-125730000D01*
X67232414Y-124714000D01*
X66470414Y-124714000D01*
X66470414Y-124206000D01*
X67486414Y-124206000D01*
X68384440Y-124577974D01*
G37*
%TD.AperFunction*%
D14*
%TO.C,TP26*%
X73483587Y-125476000D02*
X73483587Y-130556000D01*
D15*
X74499586Y-130302000D02*
X74499586Y-130810000D01*
D14*
X74753587Y-131826000D02*
X76376414Y-131826000D01*
D15*
X75261586Y-129540000D02*
X75769586Y-129540000D01*
X75261586Y-131572000D02*
X75261586Y-130810000D01*
X75515587Y-130302000D02*
X74499586Y-130302000D01*
X75515587Y-130810000D02*
X74499586Y-130810000D01*
X75769586Y-129540000D02*
X75769586Y-130302000D01*
X75769586Y-130302000D02*
X75261586Y-130302000D01*
X75769586Y-130302000D02*
X76531586Y-130302000D01*
X75769586Y-130810000D02*
X75261586Y-130810000D01*
X75769586Y-131572000D02*
X75261586Y-131572000D01*
D14*
X76376414Y-124206000D02*
X74753587Y-124206000D01*
D15*
X76531586Y-130302000D02*
X76531586Y-130810000D01*
X76531586Y-130810000D02*
X75769586Y-130810000D01*
D14*
X77646414Y-125476000D02*
X77646414Y-130556000D01*
X73483587Y-125476000D02*
G75*
G02*
X74753587Y-124206000I1269999J1D01*
G01*
X74753587Y-131826000D02*
G75*
G02*
X73483587Y-130556000I-1J1269999D01*
G01*
X76376414Y-124206000D02*
G75*
G02*
X77646416Y-125476000I2J-1270000D01*
G01*
X77646414Y-130556000D02*
G75*
G02*
X76376414Y-131826000I-1270002J2D01*
G01*
D16*
X75769587Y-124714000D02*
X75007587Y-124714000D01*
X73991587Y-125730000D01*
X73991587Y-127254000D01*
X75007587Y-128270000D01*
X75769587Y-128270000D01*
X75769587Y-130302000D01*
X75515587Y-130302000D01*
X74524987Y-130302000D01*
X74524987Y-130810000D01*
X75515587Y-130810000D01*
X75769587Y-130810000D01*
X75769587Y-131826000D01*
X74753587Y-131826000D01*
X73855561Y-131454026D01*
X73483587Y-130556000D01*
X73483587Y-125476000D01*
X73855561Y-124577974D01*
X74753587Y-124206000D01*
X75769587Y-124206000D01*
X75769587Y-124714000D01*
%TA.AperFunction,EtchedComponent*%
G36*
X75769587Y-124714000D02*
G01*
X75007587Y-124714000D01*
X73991587Y-125730000D01*
X73991587Y-127254000D01*
X75007587Y-128270000D01*
X75769587Y-128270000D01*
X75769587Y-130302000D01*
X75515587Y-130302000D01*
X74524987Y-130302000D01*
X74524987Y-130810000D01*
X75515587Y-130810000D01*
X75769587Y-130810000D01*
X75769587Y-131826000D01*
X74753587Y-131826000D01*
X73855561Y-131454026D01*
X73483587Y-130556000D01*
X73483587Y-125476000D01*
X73855561Y-124577974D01*
X74753587Y-124206000D01*
X75769587Y-124206000D01*
X75769587Y-124714000D01*
G37*
%TD.AperFunction*%
X77274440Y-124577974D02*
X77646414Y-125476000D01*
X77646414Y-130556000D01*
X77274440Y-131454026D01*
X76376414Y-131826000D01*
X75360414Y-131826000D01*
X75360414Y-130810000D01*
X75614414Y-130810000D01*
X76503414Y-130810000D01*
X76503414Y-130302000D01*
X75614414Y-130302000D01*
X75360414Y-130302000D01*
X75360414Y-128270000D01*
X76122414Y-128270000D01*
X77138414Y-127254000D01*
X77138414Y-125730000D01*
X76122414Y-124714000D01*
X75360414Y-124714000D01*
X75360414Y-124206000D01*
X76376414Y-124206000D01*
X77274440Y-124577974D01*
%TA.AperFunction,EtchedComponent*%
G36*
X77274440Y-124577974D02*
G01*
X77646414Y-125476000D01*
X77646414Y-130556000D01*
X77274440Y-131454026D01*
X76376414Y-131826000D01*
X75360414Y-131826000D01*
X75360414Y-130810000D01*
X75614414Y-130810000D01*
X76503414Y-130810000D01*
X76503414Y-130302000D01*
X75614414Y-130302000D01*
X75360414Y-130302000D01*
X75360414Y-128270000D01*
X76122414Y-128270000D01*
X77138414Y-127254000D01*
X77138414Y-125730000D01*
X76122414Y-124714000D01*
X75360414Y-124714000D01*
X75360414Y-124206000D01*
X76376414Y-124206000D01*
X77274440Y-124577974D01*
G37*
%TD.AperFunction*%
%TD*%
D17*
%TO.P,TP25,1,1*%
%TO.N,Net-(J1-Pin_61)*%
X131927600Y-125730000D03*
%TD*%
D18*
%TO.P,TP24,1,1*%
%TO.N,Net-(J1-Pin_61)*%
X66625586Y-126492000D03*
%TD*%
D19*
%TO.P,,1*%
%TO.N,N/C*%
X144780000Y-178054000D03*
%TD*%
D20*
%TO.P,TP16,1,1*%
%TO.N,LED_IN*%
X63500000Y-144780000D03*
%TD*%
D19*
%TO.P,,1*%
%TO.N,N/C*%
X62230000Y-130048000D03*
%TD*%
D21*
%TO.P,J1,31,Pin_31*%
%TO.N,Net-(J1-Pin_31)*%
X85725000Y-129794000D03*
%TO.P,J1,32,Pin_32*%
%TO.N,Net-(J1-Pin_32)*%
X86995000Y-129794000D03*
%TO.P,J1,33,Pin_33*%
%TO.N,Net-(J1-Pin_33)*%
X88265000Y-129794000D03*
%TO.P,J1,34,Pin_34*%
%TO.N,Net-(J1-Pin_34)*%
X89535000Y-129794000D03*
%TO.P,J1,35,Pin_35*%
%TO.N,Net-(J1-Pin_35)*%
X90805000Y-129794000D03*
%TO.P,J1,36,Pin_36*%
%TO.N,Net-(J1-Pin_36)*%
X92075000Y-129794000D03*
%TO.P,J1,37,Pin_37*%
%TO.N,Net-(J1-Pin_37)*%
X93345000Y-129794000D03*
%TO.P,J1,38,Pin_38*%
%TO.N,Net-(J1-Pin_38)*%
X94615000Y-129794000D03*
%TO.P,J1,39,Pin_39*%
%TO.N,Net-(J1-Pin_39)*%
X95885000Y-129794000D03*
%TO.P,J1,40,Pin_40*%
%TO.N,Net-(J1-Pin_40)*%
X97155000Y-129794000D03*
%TO.P,J1,41,Pin_41*%
%TO.N,Net-(J1-Pin_41)*%
X98425000Y-129794000D03*
%TO.P,J1,42,Pin_42*%
%TO.N,Net-(J1-Pin_42)*%
X99695000Y-129794000D03*
%TO.P,J1,43,Pin_43*%
%TO.N,Net-(J1-Pin_43)*%
X100965000Y-129794000D03*
%TO.P,J1,44,Pin_44*%
%TO.N,Net-(J1-Pin_44)*%
X102235000Y-129794000D03*
%TO.P,J1,45,Pin_45*%
%TO.N,Net-(J1-Pin_45)*%
X103505000Y-129794000D03*
%TO.P,J1,46,Pin_46*%
%TO.N,Net-(J1-Pin_46)*%
X104775000Y-129794000D03*
%TO.P,J1,47,Pin_47*%
%TO.N,Net-(J1-Pin_47)*%
X106045000Y-129794000D03*
%TO.P,J1,48,Pin_48*%
%TO.N,Net-(J1-Pin_48)*%
X107315000Y-129794000D03*
%TO.P,J1,49,Pin_49*%
%TO.N,Net-(J1-Pin_49)*%
X108585000Y-129794000D03*
%TO.P,J1,50,Pin_50*%
%TO.N,Net-(J1-Pin_50)*%
X109855000Y-129794000D03*
%TO.P,J1,51,Pin_51*%
%TO.N,Net-(J1-Pin_51)*%
X111125000Y-129794000D03*
%TO.P,J1,52,Pin_52*%
%TO.N,Net-(J1-Pin_52)*%
X112395000Y-129794000D03*
%TO.P,J1,53,Pin_53*%
%TO.N,Net-(J1-Pin_53)*%
X113665000Y-129794000D03*
%TO.P,J1,54,Pin_54*%
%TO.N,Net-(J1-Pin_54)*%
X114935000Y-129794000D03*
%TO.P,J1,55,Pin_55*%
%TO.N,Net-(J1-Pin_55)*%
X116205000Y-129794000D03*
%TO.P,J1,56,Pin_56*%
%TO.N,Net-(J1-Pin_56)*%
X117475000Y-129794000D03*
%TO.P,J1,57,Pin_57*%
%TO.N,Net-(J1-Pin_57)*%
X118745000Y-129794000D03*
%TO.P,J1,58,Pin_58*%
%TO.N,Net-(J1-Pin_58)*%
X120015000Y-129794000D03*
%TO.P,J1,59,Pin_59*%
%TO.N,Net-(J1-Pin_59)*%
X121285000Y-129794000D03*
%TO.P,J1,60,Pin_60*%
%TO.N,Net-(J1-Pin_60)*%
X122555000Y-129794000D03*
%TO.P,J1,63,Pin_63*%
%TO.N,Net-(J1-Pin_63)*%
X123825000Y-129794000D03*
%TO.P,J1,64,Pin_64*%
%TO.N,Net-(J1-Pin_64)*%
X125095000Y-129794000D03*
%TO.P,J1,65,Pin_65*%
%TO.N,LED_GND*%
X81915000Y-129794000D03*
%TO.P,J1,66,Pin_66*%
%TO.N,LED_OUT*%
X83185000Y-129794000D03*
%TO.P,J1,67,Pin_67*%
%TO.N,LED_5V*%
X84455000Y-129794000D03*
%TD*%
D18*
%TO.P,TP26,1,1*%
%TO.N,Net-(J1-Pin_62)*%
X75515586Y-126492000D03*
%TD*%
D17*
%TO.P,TP31,1,1*%
%TO.N,Net-(J1-Pin_64)*%
X139801600Y-130810000D03*
%TD*%
D20*
%TO.P,TP21,1,1*%
%TO.N,LED_5V*%
X63500000Y-147320000D03*
%TD*%
D17*
%TO.P,TP27,1,1*%
%TO.N,Net-(J1-Pin_62)*%
X139801600Y-125730000D03*
%TD*%
D20*
%TO.P,TP23,1,1*%
%TO.N,LED_GND*%
X143510000Y-142240000D03*
%TD*%
D19*
%TO.P,,1*%
%TO.N,N/C*%
X62230000Y-178054000D03*
%TD*%
D17*
%TO.P,TP29,1,1*%
%TO.N,Net-(J1-Pin_63)*%
X131927600Y-130810000D03*
%TD*%
D22*
%TO.P,J11,1,Pin_1*%
%TO.N,Net-(J1-Pin_1)*%
X66675000Y-143510000D03*
X66675000Y-158750000D03*
%TO.P,J11,2,Pin_2*%
%TO.N,Net-(J1-Pin_2)*%
X69215000Y-143510000D03*
X69215000Y-158750000D03*
%TO.P,J11,3,Pin_3*%
%TO.N,Net-(J1-Pin_3)*%
X71755000Y-143510000D03*
X71755000Y-158750000D03*
%TO.P,J11,4,Pin_4*%
%TO.N,Net-(J1-Pin_4)*%
X74295000Y-143510000D03*
X74295000Y-158750000D03*
%TO.P,J11,5,Pin_5*%
%TO.N,Net-(J1-Pin_5)*%
X76835000Y-143510000D03*
X76835000Y-158750000D03*
%TO.P,J11,6,Pin_6*%
%TO.N,Net-(J1-Pin_6)*%
X79375000Y-143510000D03*
X79375000Y-158750000D03*
%TO.P,J11,7,Pin_7*%
%TO.N,Net-(J1-Pin_7)*%
X81915000Y-143510000D03*
X81915000Y-158750000D03*
%TO.P,J11,8,Pin_8*%
%TO.N,Net-(J1-Pin_8)*%
X84455000Y-143510000D03*
X84455000Y-158750000D03*
%TO.P,J11,9,Pin_9*%
%TO.N,Net-(J1-Pin_9)*%
X86995000Y-143510000D03*
X86995000Y-158750000D03*
%TO.P,J11,10,Pin_10*%
%TO.N,Net-(J1-Pin_10)*%
X89535000Y-143510000D03*
X89535000Y-158750000D03*
%TO.P,J11,11,Pin_11*%
%TO.N,Net-(J1-Pin_11)*%
X92075000Y-143510000D03*
X92075000Y-158750000D03*
%TO.P,J11,12,Pin_12*%
%TO.N,Net-(J1-Pin_12)*%
X94615000Y-143510000D03*
X94615000Y-158750000D03*
%TO.P,J11,13,Pin_13*%
%TO.N,Net-(J1-Pin_13)*%
X97155000Y-143510000D03*
X97155000Y-158750000D03*
%TO.P,J11,14,Pin_14*%
%TO.N,Net-(J1-Pin_14)*%
X99695000Y-143510000D03*
X99695000Y-158750000D03*
%TO.P,J11,15,Pin_15*%
%TO.N,Net-(J1-Pin_15)*%
X102235000Y-143510000D03*
X102235000Y-158750000D03*
%TO.P,J11,16,Pin_16*%
%TO.N,Net-(J1-Pin_16)*%
X104775000Y-143510000D03*
X104775000Y-158750000D03*
%TO.P,J11,17,Pin_17*%
%TO.N,Net-(J1-Pin_17)*%
X107315000Y-143510000D03*
X107315000Y-158750000D03*
%TO.P,J11,18,Pin_18*%
%TO.N,Net-(J1-Pin_18)*%
X109855000Y-143510000D03*
X109855000Y-158750000D03*
%TO.P,J11,19,Pin_19*%
%TO.N,Net-(J1-Pin_19)*%
X112395000Y-143510000D03*
X112395000Y-158750000D03*
%TO.P,J11,20,Pin_20*%
%TO.N,Net-(J1-Pin_20)*%
X114935000Y-143510000D03*
X114935000Y-158750000D03*
%TO.P,J11,21,Pin_21*%
%TO.N,Net-(J1-Pin_21)*%
X117475000Y-143510000D03*
X117475000Y-158750000D03*
%TO.P,J11,22,Pin_22*%
%TO.N,Net-(J1-Pin_22)*%
X120015000Y-143510000D03*
X120015000Y-158750000D03*
%TO.P,J11,23,Pin_23*%
%TO.N,Net-(J1-Pin_23)*%
X122555000Y-143510000D03*
X122555000Y-158750000D03*
%TO.P,J11,24,Pin_24*%
%TO.N,Net-(J1-Pin_24)*%
X125095000Y-143510000D03*
X125095000Y-158750000D03*
%TO.P,J11,25,Pin_25*%
%TO.N,Net-(J1-Pin_25)*%
X127635000Y-143510000D03*
X127635000Y-158750000D03*
%TO.P,J11,26,Pin_26*%
%TO.N,Net-(J1-Pin_26)*%
X130175000Y-143510000D03*
X130175000Y-158750000D03*
%TO.P,J11,27,Pin_27*%
%TO.N,Net-(J1-Pin_27)*%
X132715000Y-143510000D03*
X132715000Y-158750000D03*
%TO.P,J11,28,Pin_28*%
%TO.N,Net-(J1-Pin_28)*%
X135255000Y-143510000D03*
X135255000Y-158750000D03*
%TO.P,J11,29,Pin_29*%
%TO.N,Net-(J1-Pin_29)*%
X137795000Y-143510000D03*
X137795000Y-158750000D03*
%TO.P,J11,30,Pin_30*%
%TO.N,Net-(J1-Pin_30)*%
X140335000Y-143510000D03*
X140335000Y-158750000D03*
%TO.P,J11,31,Pin_31*%
%TO.N,Net-(J1-Pin_31)*%
X66675000Y-161290000D03*
X66675000Y-176530000D03*
%TO.P,J11,32,Pin_0*%
%TO.N,Net-(J1-Pin_32)*%
X69215000Y-161290000D03*
X69215000Y-176530000D03*
%TO.P,J11,33,Pin_1*%
%TO.N,Net-(J1-Pin_33)*%
X71755000Y-161290000D03*
X71755000Y-176530000D03*
%TO.P,J11,34,Pin_2*%
%TO.N,Net-(J1-Pin_34)*%
X74295000Y-161290000D03*
X74295000Y-176530000D03*
%TO.P,J11,35,Pin_3*%
%TO.N,Net-(J1-Pin_35)*%
X76835000Y-161290000D03*
X76835000Y-176530000D03*
%TO.P,J11,36,Pin_4*%
%TO.N,Net-(J1-Pin_36)*%
X79375000Y-161290000D03*
X79375000Y-176530000D03*
%TO.P,J11,37,Pin_5*%
%TO.N,Net-(J1-Pin_37)*%
X81915000Y-161290000D03*
X81915000Y-176530000D03*
%TO.P,J11,38,Pin_6*%
%TO.N,Net-(J1-Pin_38)*%
X84455000Y-161290000D03*
X84455000Y-176530000D03*
%TO.P,J11,39,Pin_7*%
%TO.N,Net-(J1-Pin_39)*%
X86995000Y-161290000D03*
X86995000Y-176530000D03*
%TO.P,J11,40,Pin_8*%
%TO.N,Net-(J1-Pin_40)*%
X89535000Y-161290000D03*
X89535000Y-176530000D03*
%TO.P,J11,41,Pin_9*%
%TO.N,Net-(J1-Pin_41)*%
X92075000Y-161290000D03*
X92075000Y-176530000D03*
%TO.P,J11,42,Pin_10*%
%TO.N,Net-(J1-Pin_42)*%
X94615000Y-161290000D03*
X94615000Y-176530000D03*
%TO.P,J11,43,Pin_11*%
%TO.N,Net-(J1-Pin_43)*%
X97155000Y-161290000D03*
X97155000Y-176530000D03*
%TO.P,J11,44,Pin_12*%
%TO.N,Net-(J1-Pin_44)*%
X99695000Y-161290000D03*
X99695000Y-176530000D03*
%TO.P,J11,45,Pin_13*%
%TO.N,Net-(J1-Pin_45)*%
X102235000Y-161290000D03*
X102235000Y-176530000D03*
%TO.P,J11,46,Pin_14*%
%TO.N,Net-(J1-Pin_46)*%
X104775000Y-161290000D03*
X104775000Y-176530000D03*
%TO.P,J11,47,Pin_15*%
%TO.N,Net-(J1-Pin_47)*%
X107315000Y-161290000D03*
X107315000Y-176530000D03*
%TO.P,J11,48,Pin_16*%
%TO.N,Net-(J1-Pin_48)*%
X109855000Y-161290000D03*
X109855000Y-176530000D03*
%TO.P,J11,49,Pin_17*%
%TO.N,Net-(J1-Pin_49)*%
X112395000Y-161290000D03*
X112395000Y-176530000D03*
%TO.P,J11,50,Pin_18*%
%TO.N,Net-(J1-Pin_50)*%
X114935000Y-161290000D03*
X114935000Y-176530000D03*
%TO.P,J11,51,Pin_19*%
%TO.N,Net-(J1-Pin_51)*%
X117475000Y-161290000D03*
X117475000Y-176530000D03*
%TO.P,J11,52,Pin_20*%
%TO.N,Net-(J1-Pin_52)*%
X120015000Y-161290000D03*
X120015000Y-176530000D03*
%TO.P,J11,53,Pin_21*%
%TO.N,Net-(J1-Pin_53)*%
X122555000Y-161290000D03*
X122555000Y-176530000D03*
%TO.P,J11,54,Pin_22*%
%TO.N,Net-(J1-Pin_54)*%
X125095000Y-161290000D03*
X125095000Y-176530000D03*
%TO.P,J11,55,Pin_23*%
%TO.N,Net-(J1-Pin_55)*%
X127635000Y-161290000D03*
X127635000Y-176530000D03*
%TO.P,J11,56,Pin_24*%
%TO.N,Net-(J1-Pin_56)*%
X130175000Y-161290000D03*
X130175000Y-176530000D03*
%TO.P,J11,57,Pin_25*%
%TO.N,Net-(J1-Pin_57)*%
X132715000Y-161290000D03*
X132715000Y-176530000D03*
%TO.P,J11,58,Pin_26*%
%TO.N,Net-(J1-Pin_58)*%
X135255000Y-161290000D03*
X135255000Y-176530000D03*
%TO.P,J11,59,Pin_27*%
%TO.N,Net-(J1-Pin_59)*%
X137795000Y-161290000D03*
X137795000Y-176530000D03*
%TO.P,J11,60,Pin_28*%
%TO.N,Net-(J1-Pin_60)*%
X140335000Y-161290000D03*
X140335000Y-176530000D03*
D23*
%TO.P,J11,61,Top_Pos*%
%TO.N,Net-(J1-Pin_61)*%
X65405000Y-135890000D03*
X80645000Y-135890000D03*
X95885000Y-135890000D03*
X111125000Y-135890000D03*
X126365000Y-135890000D03*
X141605000Y-135890000D03*
%TO.P,J11,62,Top_Neg*%
%TO.N,Net-(J1-Pin_62)*%
X65405000Y-138430000D03*
X80645000Y-138430000D03*
X95885000Y-138430000D03*
X111125000Y-138430000D03*
X126365000Y-138430000D03*
X141605000Y-138430000D03*
%TO.P,J11,63,Bot_Pos*%
%TO.N,Net-(J1-Pin_63)*%
X65405000Y-181610000D03*
X80645000Y-181610000D03*
X95885000Y-181622700D03*
X111125000Y-181610000D03*
X126365000Y-181610000D03*
X141605000Y-181610000D03*
%TO.P,J11,64,Bot_Neg*%
%TO.N,Net-(J1-Pin_64)*%
X65405000Y-184150000D03*
X80645000Y-184150000D03*
X95885000Y-184150000D03*
X111125000Y-184150000D03*
X126365000Y-184150000D03*
X141605000Y-184150000D03*
%TD*%
D20*
%TO.P,TP22,1,1*%
%TO.N,LED_5V*%
X143510000Y-147320000D03*
%TD*%
%TO.P,TP15,1,1*%
%TO.N,LED_OUT*%
X143510000Y-144780000D03*
%TD*%
D19*
%TO.P,,1*%
%TO.N,N/C*%
X144780000Y-130048000D03*
%TD*%
D20*
%TO.P,TP20,1,1*%
%TO.N,LED_GND*%
X63500000Y-142240000D03*
%TD*%
D24*
%TO.N,Net-(J1-Pin_62)*%
X139801600Y-134086600D03*
X126974600Y-131826000D03*
D25*
%TO.N,LED_GND*%
X67564000Y-166878000D03*
X67183000Y-145923000D03*
X141096995Y-149479003D03*
X66675000Y-133858000D03*
X140970000Y-167132000D03*
X139064996Y-171069000D03*
X129540004Y-139065000D03*
X70231000Y-134239000D03*
X72517000Y-135839200D03*
X77089000Y-137033000D03*
X80137000Y-131572000D03*
X101346000Y-140970000D03*
%TO.N,LED_IN*%
X78105000Y-135636010D03*
X65913000Y-146177000D03*
%TO.N,LED_5V*%
X76200000Y-138303000D03*
X141097000Y-152781000D03*
X65659000Y-171069000D03*
X140907198Y-171385802D03*
X78232002Y-136652000D03*
X70612000Y-183667400D03*
X65913000Y-153035000D03*
X84709000Y-133223000D03*
%TO.N,LED_OUT*%
X73787000Y-140843000D03*
X83947000Y-133223000D03*
D24*
%TO.N,Net-(J1-Pin_1)*%
X85725000Y-133858000D03*
%TO.N,Net-(J1-Pin_2)*%
X86995003Y-133858000D03*
%TO.N,Net-(J1-Pin_3)*%
X88265000Y-133857998D03*
%TO.N,Net-(J1-Pin_4)*%
X89535000Y-133858000D03*
%TO.N,Net-(J1-Pin_5)*%
X90805000Y-133604000D03*
%TO.N,Net-(J1-Pin_6)*%
X92075000Y-133603998D03*
%TO.N,Net-(J1-Pin_7)*%
X93345000Y-133603996D03*
%TO.N,Net-(J1-Pin_8)*%
X94615000Y-133604006D03*
%TO.N,Net-(J1-Pin_9)*%
X95885000Y-133604000D03*
%TO.N,Net-(J1-Pin_10)*%
X97155000Y-133603998D03*
%TO.N,Net-(J1-Pin_11)*%
X98425000Y-133604000D03*
%TO.N,Net-(J1-Pin_12)*%
X99695000Y-133604000D03*
%TO.N,Net-(J1-Pin_13)*%
X100965000Y-133604000D03*
%TO.N,Net-(J1-Pin_14)*%
X102235000Y-133604000D03*
%TO.N,Net-(J1-Pin_15)*%
X103505000Y-133604000D03*
%TO.N,Net-(J1-Pin_16)*%
X104775000Y-133604000D03*
%TO.N,Net-(J1-Pin_17)*%
X106045000Y-133604000D03*
%TO.N,Net-(J1-Pin_18)*%
X107315000Y-133604000D03*
%TO.N,Net-(J1-Pin_19)*%
X108585000Y-133604000D03*
%TO.N,Net-(J1-Pin_20)*%
X109855000Y-133604000D03*
%TO.N,Net-(J1-Pin_21)*%
X111125000Y-133604000D03*
%TO.N,Net-(J1-Pin_22)*%
X112395000Y-133604000D03*
%TO.N,Net-(J1-Pin_23)*%
X113665000Y-133604000D03*
%TO.N,Net-(J1-Pin_24)*%
X114935000Y-133604000D03*
%TO.N,Net-(J1-Pin_25)*%
X116205000Y-133604000D03*
%TO.N,Net-(J1-Pin_26)*%
X117475000Y-133604000D03*
%TO.N,Net-(J1-Pin_27)*%
X118745000Y-133604000D03*
%TO.N,Net-(J1-Pin_28)*%
X120015000Y-133604006D03*
%TO.N,Net-(J1-Pin_29)*%
X121285000Y-133604000D03*
%TO.N,Net-(J1-Pin_30)*%
X122555000Y-133604000D03*
%TO.N,Net-(J1-Pin_31)*%
X83184992Y-133477000D03*
X80645000Y-132334000D03*
%TO.N,Net-(J1-Pin_63)*%
X133096000Y-133223000D03*
%TO.N,Net-(J1-Pin_64)*%
X138874501Y-133159495D03*
%TD*%
D26*
%TO.N,LED_GND*%
X81915000Y-129794000D02*
X80137000Y-131572000D01*
%TO.N,LED_5V*%
X84455000Y-129794000D02*
X84455000Y-132969000D01*
X84455000Y-132969000D02*
X84709000Y-133223000D01*
%TO.N,LED_OUT*%
X83185000Y-132461000D02*
X83947000Y-133223000D01*
X83185000Y-129794000D02*
X83185000Y-132461000D01*
D27*
%TO.N,Net-(J1-Pin_1)*%
X85725000Y-133858000D02*
X85217000Y-134366000D01*
X66548000Y-158623000D02*
X66675000Y-158750000D01*
X66675000Y-142610000D02*
X66675000Y-143510000D01*
X81985544Y-133020015D02*
X76910985Y-133020015D01*
X68442000Y-140843000D02*
X66675000Y-142610000D01*
X66675000Y-143510000D02*
X66548000Y-143637000D01*
X85217000Y-134366000D02*
X83331529Y-134366000D01*
X69088000Y-140843000D02*
X68442000Y-140843000D01*
X66548000Y-143637000D02*
X66548000Y-158623000D01*
X83331529Y-134366000D02*
X81985544Y-133020015D01*
X76910985Y-133020015D02*
X69088000Y-140843000D01*
%TO.N,Net-(J1-Pin_2)*%
X86995003Y-134111997D02*
X85725000Y-135382000D01*
X77634995Y-133820005D02*
X69215000Y-142240000D01*
X86995003Y-133858000D02*
X86995003Y-134111997D01*
X81611377Y-133820005D02*
X77634995Y-133820005D01*
X69215000Y-143510000D02*
X69215000Y-158750000D01*
X83173372Y-135382000D02*
X81611377Y-133820005D01*
X85725000Y-135382000D02*
X83173372Y-135382000D01*
X69215000Y-142240000D02*
X69215000Y-143510000D01*
%TO.N,Net-(J1-Pin_3)*%
X85979000Y-136398000D02*
X82931000Y-136398000D01*
X71755000Y-143510000D02*
X71755000Y-158750000D01*
X88265000Y-134112000D02*
X85979000Y-136398000D01*
X71755000Y-141224000D02*
X71755000Y-143510000D01*
X81153000Y-134620000D02*
X78359000Y-134620000D01*
X78359000Y-134620000D02*
X71755000Y-141224000D01*
X82931000Y-136398000D02*
X81153000Y-134620000D01*
X88265000Y-133857998D02*
X88265000Y-134112000D01*
%TO.N,Net-(J1-Pin_4)*%
X81031814Y-139827000D02*
X78278000Y-139827000D01*
X78278000Y-139827000D02*
X74595000Y-143510000D01*
X74595000Y-143510000D02*
X74295000Y-143510000D01*
X86233000Y-137414000D02*
X83444814Y-137414000D01*
X89535000Y-134112000D02*
X86233000Y-137414000D01*
X83444814Y-137414000D02*
X81031814Y-139827000D01*
X89535000Y-133858000D02*
X89535000Y-134112000D01*
X74295000Y-143510000D02*
X74295000Y-158750000D01*
%TO.N,Net-(J1-Pin_5)*%
X81534000Y-140843000D02*
X83947000Y-138430000D01*
X86487000Y-138430000D02*
X90805000Y-134112000D01*
X76835000Y-143510000D02*
X76835000Y-158750000D01*
X90805000Y-134112000D02*
X90805000Y-133604000D01*
X76835000Y-143510000D02*
X76835000Y-143129000D01*
X76835000Y-143129000D02*
X79121000Y-140843000D01*
X79121000Y-140843000D02*
X81534000Y-140843000D01*
X83947000Y-138430000D02*
X86487000Y-138430000D01*
%TO.N,Net-(J1-Pin_6)*%
X79375000Y-143002000D02*
X80518000Y-141859000D01*
X92075000Y-134112000D02*
X92075000Y-133603998D01*
X82042000Y-141859000D02*
X84455000Y-139446000D01*
X80518000Y-141859000D02*
X82042000Y-141859000D01*
X79375000Y-143510000D02*
X79375000Y-143002000D01*
X86741000Y-139446000D02*
X92075000Y-134112000D01*
X84455000Y-139446000D02*
X86741000Y-139446000D01*
X79375000Y-143510000D02*
X79375000Y-158750000D01*
%TO.N,Net-(J1-Pin_7)*%
X86995000Y-140462000D02*
X93345000Y-134112000D01*
X81915000Y-143510000D02*
X81915000Y-158750000D01*
X84963000Y-140462000D02*
X86995000Y-140462000D01*
X81915000Y-143510000D02*
X84963000Y-140462000D01*
X93345000Y-134112000D02*
X93345000Y-133603996D01*
%TO.N,Net-(J1-Pin_8)*%
X84455000Y-142522843D02*
X84455000Y-143510000D01*
X94615000Y-134112000D02*
X87249000Y-141478000D01*
X85499843Y-141478000D02*
X84455000Y-142522843D01*
X94615000Y-133604006D02*
X94615000Y-134112000D01*
X87249000Y-141478000D02*
X85499843Y-141478000D01*
X84455000Y-143510000D02*
X84455000Y-158750000D01*
%TO.N,Net-(J1-Pin_9)*%
X95885000Y-134112000D02*
X95885000Y-133604000D01*
X86995000Y-143510000D02*
X86995000Y-158750000D01*
X86995000Y-143510000D02*
X86995000Y-143002000D01*
X86995000Y-143002000D02*
X95885000Y-134112000D01*
%TO.N,Net-(J1-Pin_10)*%
X89535000Y-142748000D02*
X92386000Y-139897000D01*
X92386000Y-139897000D02*
X96196000Y-139897000D01*
X89535000Y-143510000D02*
X89535000Y-142748000D01*
X97285000Y-138808000D02*
X97285000Y-133733998D01*
X89535000Y-143510000D02*
X89535000Y-158750000D01*
X97285000Y-133733998D02*
X97155000Y-133603998D01*
X96196000Y-139897000D02*
X97285000Y-138808000D01*
%TO.N,Net-(J1-Pin_11)*%
X98425000Y-133604000D02*
X98425000Y-139065000D01*
X96647000Y-140843000D02*
X94107000Y-140843000D01*
X92075000Y-142875000D02*
X92075000Y-143510000D01*
X94107000Y-140843000D02*
X92075000Y-142875000D01*
X98425000Y-139065000D02*
X96647000Y-140843000D01*
X92075000Y-143510000D02*
X92075000Y-158750000D01*
%TO.N,Net-(J1-Pin_12)*%
X94615000Y-142875000D02*
X95631000Y-141859000D01*
X95631000Y-141859000D02*
X97155000Y-141859000D01*
X94615000Y-143510000D02*
X94615000Y-142875000D01*
X99695000Y-139319000D02*
X99695000Y-133604000D01*
X94615000Y-143510000D02*
X94615000Y-158750000D01*
X97155000Y-141859000D02*
X99695000Y-139319000D01*
%TO.N,Net-(J1-Pin_13)*%
X97155000Y-143510000D02*
X97155000Y-158750000D01*
X100965000Y-133604000D02*
X100965000Y-139700000D01*
X100965000Y-139700000D02*
X97155000Y-143510000D01*
%TO.N,Net-(J1-Pin_14)*%
X102235000Y-140788107D02*
X101418107Y-141605000D01*
X101418107Y-141605000D02*
X100838000Y-141605000D01*
X100838000Y-141605000D02*
X99695000Y-142748000D01*
X99695000Y-143510000D02*
X99695000Y-158750000D01*
X102235000Y-133604000D02*
X102235000Y-140788107D01*
X99695000Y-142748000D02*
X99695000Y-143510000D01*
%TO.N,Net-(J1-Pin_15)*%
X103505000Y-141351000D02*
X102235000Y-142621000D01*
X102235000Y-142621000D02*
X102235000Y-143510000D01*
X103505000Y-133604000D02*
X103505000Y-141351000D01*
X102235000Y-143510000D02*
X102235000Y-158750000D01*
%TO.N,Net-(J1-Pin_16)*%
X104775000Y-133604000D02*
X104775000Y-143510000D01*
X104775000Y-143510000D02*
X104775000Y-158750000D01*
%TO.N,Net-(J1-Pin_17)*%
X107315000Y-143510000D02*
X107315000Y-158750000D01*
X106045000Y-133604000D02*
X106045000Y-141340000D01*
X106045000Y-141340000D02*
X107315000Y-142610000D01*
X107315000Y-142610000D02*
X107315000Y-143510000D01*
%TO.N,Net-(J1-Pin_18)*%
X107315000Y-140139000D02*
X109855000Y-142679000D01*
X107315000Y-133604000D02*
X107315000Y-140139000D01*
X109855000Y-142679000D02*
X109855000Y-143510000D01*
X109855000Y-143510000D02*
X109855000Y-158750000D01*
%TO.N,Net-(J1-Pin_19)*%
X108585000Y-139573000D02*
X112395000Y-143383000D01*
X112395000Y-143383000D02*
X112395000Y-143510000D01*
X108585000Y-133604000D02*
X108585000Y-139573000D01*
X112395000Y-143510000D02*
X112395000Y-158750000D01*
%TO.N,Net-(J1-Pin_20)*%
X114935000Y-143510000D02*
X114935000Y-158750000D01*
X109855000Y-139065000D02*
X111760000Y-140970000D01*
X113030000Y-140970000D02*
X114935000Y-142875000D01*
X114935000Y-142875000D02*
X114935000Y-143510000D01*
X111760000Y-140970000D02*
X113030000Y-140970000D01*
X109855000Y-133604000D02*
X109855000Y-139065000D01*
%TO.N,Net-(J1-Pin_21)*%
X112776000Y-135293149D02*
X112776000Y-138938000D01*
X111125000Y-133642149D02*
X112776000Y-135293149D01*
X112776000Y-138938000D02*
X117348000Y-143510000D01*
X117348000Y-143510000D02*
X117475000Y-143510000D01*
X111125000Y-133604000D02*
X111125000Y-133642149D01*
X117475000Y-143510000D02*
X117475000Y-158750000D01*
%TO.N,Net-(J1-Pin_22)*%
X118745000Y-141605000D02*
X120015000Y-142875000D01*
X116967000Y-141605000D02*
X118745000Y-141605000D01*
X120015000Y-143510000D02*
X120015000Y-158750000D01*
X112395000Y-133661686D02*
X113792000Y-135058686D01*
X120015000Y-142875000D02*
X120015000Y-143510000D01*
X113792000Y-135058686D02*
X113792000Y-138430000D01*
X112395000Y-133604000D02*
X112395000Y-133661686D01*
X113792000Y-138430000D02*
X116967000Y-141605000D01*
%TO.N,Net-(J1-Pin_23)*%
X122555000Y-142621000D02*
X122555000Y-143510000D01*
X114808000Y-134804686D02*
X114808000Y-137922000D01*
X113665000Y-133661686D02*
X114808000Y-134804686D01*
X117348000Y-140462000D02*
X120396000Y-140462000D01*
X120396000Y-140462000D02*
X122555000Y-142621000D01*
X113665000Y-133604000D02*
X113665000Y-133661686D01*
X122555000Y-143510000D02*
X122555000Y-158750000D01*
X114808000Y-137922000D02*
X117348000Y-140462000D01*
%TO.N,Net-(J1-Pin_24)*%
X115824000Y-137414000D02*
X117856000Y-139446000D01*
X114935000Y-133604000D02*
X114935000Y-133777057D01*
X124075211Y-142894010D02*
X124479010Y-142894010D01*
X124075188Y-142893988D02*
X124075211Y-142894010D01*
X117856000Y-139446000D02*
X120569514Y-139446000D01*
X125095000Y-143510000D02*
X125095000Y-158750000D01*
X115824000Y-134666057D02*
X115824000Y-137414000D01*
X124017504Y-142893988D02*
X124075188Y-142893988D01*
X120569514Y-139446000D02*
X124017504Y-142893988D01*
X124479010Y-142894010D02*
X125095000Y-143510000D01*
X114935000Y-133777057D02*
X115824000Y-134666057D01*
%TO.N,Net-(J1-Pin_25)*%
X127119010Y-142094010D02*
X127635000Y-142610000D01*
X124464269Y-142094010D02*
X127119010Y-142094010D01*
X116859000Y-134454314D02*
X116859000Y-136925000D01*
X116205000Y-133604000D02*
X116205000Y-133800314D01*
X116205000Y-133800314D02*
X116859000Y-134454314D01*
X120650226Y-138395342D02*
X124348875Y-142093988D01*
X127635000Y-142610000D02*
X127635000Y-143510000D01*
X124464246Y-142093987D02*
X124464269Y-142094010D01*
X127635000Y-143510000D02*
X127635000Y-158750000D01*
X116859000Y-136925000D02*
X118329342Y-138395342D01*
X124348875Y-142093988D02*
X124464246Y-142093987D01*
X118329342Y-138395342D02*
X120650226Y-138395342D01*
%TO.N,Net-(J1-Pin_26)*%
X117856000Y-134181314D02*
X117856000Y-136398000D01*
X120673256Y-137287000D02*
X124680247Y-141293988D01*
X128859010Y-141294010D02*
X130175000Y-142610000D01*
X124795639Y-141294010D02*
X128859010Y-141294010D01*
X117475000Y-133604000D02*
X117475000Y-133800314D01*
X124680247Y-141293988D02*
X124795616Y-141293987D01*
X130175000Y-143510000D02*
X130175000Y-158750000D01*
X130175000Y-142610000D02*
X130175000Y-143510000D01*
X117856000Y-136398000D02*
X118745000Y-137287000D01*
X118745000Y-137287000D02*
X120673256Y-137287000D01*
X124795616Y-141293987D02*
X124795639Y-141294010D01*
X117475000Y-133800314D02*
X117856000Y-134181314D01*
%TO.N,Net-(J1-Pin_27)*%
X118745000Y-133604000D02*
X118745000Y-133927314D01*
X132715000Y-142610000D02*
X132715000Y-143510000D01*
X118897400Y-135915400D02*
X119253000Y-136271000D01*
X119253000Y-136271000D02*
X120788628Y-136271000D01*
X118897400Y-134079714D02*
X118897400Y-135915400D01*
X125126987Y-140493987D02*
X125127010Y-140494010D01*
X120788628Y-136271000D02*
X125011618Y-140493988D01*
X125127010Y-140494010D02*
X129756696Y-140494010D01*
X129762685Y-140500000D02*
X130605000Y-140500000D01*
X118745000Y-133927314D02*
X118897400Y-134079714D01*
X125011618Y-140493988D02*
X125126987Y-140493987D01*
X129756696Y-140494010D02*
X129762685Y-140500000D01*
X130605000Y-140500000D02*
X132715000Y-142610000D01*
X132715000Y-143510000D02*
X132715000Y-158750000D01*
%TO.N,Net-(J1-Pin_28)*%
X120523000Y-134874000D02*
X120269000Y-134874000D01*
X135255000Y-143510000D02*
X135255000Y-142494000D01*
X135255000Y-143510000D02*
X135255000Y-158750000D01*
X120015000Y-134620000D02*
X120015000Y-133604006D01*
X120269000Y-134874000D02*
X120015000Y-134620000D01*
X125342988Y-139693988D02*
X120523000Y-134874000D01*
X132454988Y-139693988D02*
X125342988Y-139693988D01*
X135255000Y-142494000D02*
X132454988Y-139693988D01*
%TO.N,Net-(J1-Pin_29)*%
X137795000Y-142494000D02*
X137795000Y-143510000D01*
X137795000Y-143510000D02*
X137795000Y-158750000D01*
X129941000Y-134640000D02*
X137795000Y-142494000D01*
X121813000Y-134640000D02*
X129941000Y-134640000D01*
X121285000Y-133604000D02*
X121285000Y-134112000D01*
X121285000Y-134112000D02*
X121813000Y-134640000D01*
%TO.N,Net-(J1-Pin_30)*%
X122555000Y-133604000D02*
X131318000Y-133604000D01*
X140335000Y-142621000D02*
X140335000Y-143510000D01*
X140335000Y-143510000D02*
X140335000Y-158750000D01*
X131318000Y-133604000D02*
X140335000Y-142621000D01*
%TO.N,Net-(J1-Pin_31)*%
X66675000Y-161290000D02*
X66675000Y-176530000D01*
X65222500Y-160137500D02*
X65222500Y-143184500D01*
X80391000Y-132588000D02*
X80645000Y-132334000D01*
X66375000Y-161290000D02*
X65222500Y-160137500D01*
X85725000Y-132969000D02*
X84836000Y-133858000D01*
X85725000Y-129794000D02*
X85725000Y-132969000D01*
X68728307Y-140335000D02*
X76475307Y-132588000D01*
X84836000Y-133858000D02*
X83565992Y-133858000D01*
X68072000Y-140335000D02*
X68728307Y-140335000D01*
X65222500Y-143184500D02*
X68072000Y-140335000D01*
X76475307Y-132588000D02*
X80391000Y-132588000D01*
X66675000Y-161290000D02*
X66375000Y-161290000D01*
X83565992Y-133858000D02*
X83184992Y-133477000D01*
%TO.N,Net-(J1-Pin_32)*%
X69215000Y-176530000D02*
X69215000Y-161290000D01*
X77272990Y-133420010D02*
X69342000Y-141351000D01*
X81788696Y-133420010D02*
X77272990Y-133420010D01*
X67945000Y-142494000D02*
X67945000Y-160020000D01*
X83242686Y-134874000D02*
X81788696Y-133420010D01*
X69342000Y-141351000D02*
X69088000Y-141351000D01*
X67945000Y-160020000D02*
X69215000Y-161290000D01*
X86360000Y-134032625D02*
X85518625Y-134874000D01*
X86995000Y-129794000D02*
X86995000Y-132969000D01*
X86995000Y-132969000D02*
X86360000Y-133604000D01*
X86360000Y-133604000D02*
X86360000Y-134032625D01*
X69088000Y-141351000D02*
X67945000Y-142494000D01*
X85518625Y-134874000D02*
X83242686Y-134874000D01*
%TO.N,Net-(J1-Pin_33)*%
X87520003Y-133586997D02*
X87520003Y-134221997D01*
X85852000Y-135890000D02*
X83058000Y-135890000D01*
X77997000Y-134220000D02*
X70485000Y-141732000D01*
X87520003Y-134221997D02*
X85852000Y-135890000D01*
X81388000Y-134220000D02*
X77997000Y-134220000D01*
X88265000Y-129794000D02*
X88265000Y-132842000D01*
X88265000Y-132842000D02*
X87520003Y-133586997D01*
X70485000Y-141732000D02*
X70485000Y-160020000D01*
X71755000Y-161290000D02*
X71755000Y-176530000D01*
X70485000Y-160020000D02*
X71755000Y-161290000D01*
X83058000Y-135890000D02*
X81388000Y-134220000D01*
%TO.N,Net-(J1-Pin_34)*%
X83312000Y-136906000D02*
X83038000Y-137180000D01*
X73025000Y-160020000D02*
X74295000Y-161290000D01*
X78847000Y-137180000D02*
X73025000Y-143002000D01*
X88900000Y-134112000D02*
X86106000Y-136906000D01*
X74295000Y-161290000D02*
X74295000Y-176530000D01*
X83038000Y-137180000D02*
X78847000Y-137180000D01*
X89535000Y-129794000D02*
X89535000Y-132842000D01*
X73025000Y-143002000D02*
X73025000Y-160020000D01*
X89535000Y-132842000D02*
X88900000Y-133477000D01*
X86106000Y-136906000D02*
X83312000Y-136906000D01*
X88900000Y-133477000D02*
X88900000Y-134112000D01*
%TO.N,Net-(J1-Pin_35)*%
X81280000Y-140335000D02*
X78359000Y-140335000D01*
X90805000Y-129794000D02*
X90805000Y-132861537D01*
X83693000Y-137922000D02*
X81280000Y-140335000D01*
X90170000Y-134143750D02*
X86391750Y-137922000D01*
X90805000Y-132861537D02*
X90170000Y-133496537D01*
X75565000Y-143129000D02*
X75565000Y-160020000D01*
X76835000Y-176530000D02*
X76835000Y-161290000D01*
X86391750Y-137922000D02*
X83693000Y-137922000D01*
X90170000Y-133496537D02*
X90170000Y-134143750D01*
X78359000Y-140335000D02*
X75565000Y-143129000D01*
X75565000Y-160020000D02*
X76835000Y-161290000D01*
%TO.N,Net-(J1-Pin_36)*%
X78105000Y-143129000D02*
X78105000Y-160020000D01*
X92075000Y-132842000D02*
X91330000Y-133587000D01*
X79375000Y-161290000D02*
X79375000Y-176530000D01*
X84201000Y-138938000D02*
X81788000Y-141351000D01*
X92075000Y-129794000D02*
X92075000Y-132842000D01*
X91330000Y-133587000D02*
X91330000Y-134222000D01*
X78105000Y-160020000D02*
X79375000Y-161290000D01*
X86614000Y-138938000D02*
X84201000Y-138938000D01*
X79883000Y-141351000D02*
X78105000Y-143129000D01*
X81788000Y-141351000D02*
X79883000Y-141351000D01*
X91330000Y-134222000D02*
X86614000Y-138938000D01*
%TO.N,Net-(J1-Pin_37)*%
X92600000Y-133606533D02*
X93345000Y-132861533D01*
X84709000Y-139954000D02*
X86889632Y-139954000D01*
X93345000Y-132861533D02*
X93345000Y-129794000D01*
X82292500Y-142370500D02*
X84709000Y-139954000D01*
X92600000Y-134243632D02*
X92600000Y-133606533D01*
X80645000Y-142875000D02*
X81149500Y-142370500D01*
X81915000Y-161290000D02*
X80645000Y-160020000D01*
X81149500Y-142370500D02*
X82292500Y-142370500D01*
X86889632Y-139954000D02*
X92600000Y-134243632D01*
X80645000Y-160020000D02*
X80645000Y-142875000D01*
X81915000Y-176530000D02*
X81915000Y-161290000D01*
%TO.N,Net-(J1-Pin_38)*%
X87122000Y-140970000D02*
X85248750Y-140970000D01*
X93870000Y-134222000D02*
X87122000Y-140970000D01*
X94615000Y-132641533D02*
X93870000Y-133386533D01*
X94615000Y-129794000D02*
X94615000Y-132641533D01*
X85248750Y-140970000D02*
X83185000Y-143033750D01*
X83185000Y-143033750D02*
X83185000Y-160020000D01*
X83185000Y-160020000D02*
X84455000Y-161290000D01*
X84455000Y-161290000D02*
X84455000Y-176530000D01*
X93870000Y-133386533D02*
X93870000Y-134222000D01*
%TO.N,Net-(J1-Pin_39)*%
X86614000Y-141986000D02*
X85725000Y-142875000D01*
X86995000Y-161290000D02*
X86995000Y-176530000D01*
X95140000Y-134222000D02*
X87376000Y-141986000D01*
X95140000Y-133606537D02*
X95140000Y-134222000D01*
X85725000Y-160020000D02*
X86995000Y-161290000D01*
X85725000Y-142875000D02*
X85725000Y-160020000D01*
X95885000Y-129794000D02*
X95885000Y-132861537D01*
X95885000Y-132861537D02*
X95140000Y-133606537D01*
X87376000Y-141986000D02*
X86614000Y-141986000D01*
%TO.N,Net-(J1-Pin_40)*%
X96393000Y-137160000D02*
X93980000Y-137160000D01*
X89535000Y-176530000D02*
X89535000Y-161290000D01*
X96520000Y-133496535D02*
X96520000Y-134366000D01*
X88265000Y-142875000D02*
X88265000Y-160020000D01*
X93980000Y-137160000D02*
X88265000Y-142875000D01*
X96885000Y-134731000D02*
X96885000Y-136668000D01*
X97155000Y-132861535D02*
X96520000Y-133496535D01*
X96885000Y-136668000D02*
X96393000Y-137160000D01*
X97155000Y-129794000D02*
X97155000Y-132861535D01*
X96520000Y-134366000D02*
X96885000Y-134731000D01*
X88265000Y-160020000D02*
X89535000Y-161290000D01*
%TO.N,Net-(J1-Pin_41)*%
X90805000Y-160020000D02*
X92075000Y-161290000D01*
X96485343Y-140335000D02*
X93345000Y-140335000D01*
X97790000Y-133496537D02*
X97790000Y-139030343D01*
X92075000Y-161290000D02*
X92075000Y-176530000D01*
X97790000Y-139030343D02*
X96485343Y-140335000D01*
X90805000Y-142875000D02*
X90805000Y-160020000D01*
X98425000Y-132861537D02*
X97790000Y-133496537D01*
X93345000Y-140335000D02*
X90805000Y-142875000D01*
X98425000Y-129794000D02*
X98425000Y-132861537D01*
%TO.N,Net-(J1-Pin_42)*%
X99060000Y-139192000D02*
X96901000Y-141351000D01*
X94869000Y-141351000D02*
X93345000Y-142875000D01*
X96901000Y-141351000D02*
X94869000Y-141351000D01*
X93345000Y-142875000D02*
X93345000Y-160020000D01*
X99695000Y-132861537D02*
X99060000Y-133496537D01*
X94615000Y-176530000D02*
X94615000Y-161290000D01*
X99060000Y-133496537D02*
X99060000Y-139192000D01*
X99695000Y-129794000D02*
X99695000Y-132861537D01*
X93345000Y-160020000D02*
X94615000Y-161290000D01*
%TO.N,Net-(J1-Pin_43)*%
X100330000Y-139573000D02*
X97536000Y-142367000D01*
X100965000Y-129794000D02*
X100965000Y-132861537D01*
X95885000Y-142875000D02*
X95885000Y-160020000D01*
X100330000Y-133496537D02*
X100330000Y-139573000D01*
X96393000Y-142367000D02*
X95885000Y-142875000D01*
X97155000Y-161290000D02*
X97155000Y-176530000D01*
X95885000Y-160020000D02*
X97155000Y-161290000D01*
X100965000Y-132861537D02*
X100330000Y-133496537D01*
X97536000Y-142367000D02*
X96393000Y-142367000D01*
%TO.N,Net-(J1-Pin_44)*%
X98425000Y-160020000D02*
X99695000Y-161290000D01*
X98425000Y-143129000D02*
X98425000Y-160020000D01*
X99695000Y-161290000D02*
X99695000Y-176530000D01*
X102235000Y-129794000D02*
X102235000Y-132861537D01*
X101600000Y-133496537D02*
X101600000Y-139954000D01*
X101600000Y-139954000D02*
X98425000Y-143129000D01*
X102235000Y-132861537D02*
X101600000Y-133496537D01*
%TO.N,Net-(J1-Pin_45)*%
X102870000Y-133477000D02*
X102870000Y-141097000D01*
X101473000Y-142113000D02*
X100965000Y-142621000D01*
X103505000Y-129794000D02*
X103505000Y-132842000D01*
X103505000Y-132842000D02*
X102870000Y-133477000D01*
X102235000Y-161290000D02*
X102235000Y-176530000D01*
X100965000Y-142621000D02*
X100965000Y-160020000D01*
X100965000Y-160020000D02*
X102235000Y-161290000D01*
X101854000Y-142113000D02*
X101473000Y-142113000D01*
X102870000Y-141097000D02*
X101854000Y-142113000D01*
%TO.N,Net-(J1-Pin_46)*%
X104140000Y-133496537D02*
X104140000Y-141732000D01*
X103505000Y-142367000D02*
X103505000Y-160020000D01*
X104775000Y-132861537D02*
X104140000Y-133496537D01*
X104775000Y-161290000D02*
X104775000Y-176530000D01*
X104140000Y-141732000D02*
X103505000Y-142367000D01*
X103505000Y-160020000D02*
X104775000Y-161290000D01*
X104775000Y-129794000D02*
X104775000Y-132861537D01*
%TO.N,Net-(J1-Pin_47)*%
X106045000Y-160020000D02*
X107315000Y-161290000D01*
X105410000Y-133496537D02*
X105410000Y-141732000D01*
X106045000Y-142367000D02*
X106045000Y-160020000D01*
X105410000Y-141732000D02*
X106045000Y-142367000D01*
X106045000Y-132861537D02*
X105410000Y-133496537D01*
X106045000Y-129794000D02*
X106045000Y-132861537D01*
X107315000Y-176530000D02*
X107315000Y-161290000D01*
%TO.N,Net-(J1-Pin_48)*%
X107315000Y-129794000D02*
X107315000Y-132861537D01*
X106680000Y-140589000D02*
X108585000Y-142494000D01*
X107315000Y-132861537D02*
X106680000Y-133496537D01*
X108585000Y-142494000D02*
X108585000Y-160020000D01*
X108585000Y-160020000D02*
X109855000Y-161290000D01*
X106680000Y-133496537D02*
X106680000Y-140589000D01*
X109855000Y-161290000D02*
X109855000Y-176530000D01*
%TO.N,Net-(J1-Pin_49)*%
X107950000Y-139827000D02*
X111125000Y-143002000D01*
X108585000Y-129794000D02*
X108585000Y-132861537D01*
X111125000Y-143002000D02*
X111125000Y-160020000D01*
X108585000Y-132861537D02*
X107950000Y-133496537D01*
X107950000Y-133496537D02*
X107950000Y-139827000D01*
X111125000Y-160020000D02*
X112395000Y-161290000D01*
X112395000Y-176530000D02*
X112395000Y-161290000D01*
%TO.N,Net-(J1-Pin_50)*%
X109855000Y-132861537D02*
X109220000Y-133496537D01*
X109220000Y-139319000D02*
X111760000Y-141859000D01*
X113665000Y-160020000D02*
X114935000Y-161290000D01*
X114935000Y-176530000D02*
X114935000Y-161290000D01*
X111760000Y-141859000D02*
X112649000Y-141859000D01*
X112649000Y-141859000D02*
X113665000Y-142875000D01*
X113665000Y-142875000D02*
X113665000Y-160020000D01*
X109855000Y-129794000D02*
X109855000Y-132861537D01*
X109220000Y-133496537D02*
X109220000Y-139319000D01*
%TO.N,Net-(J1-Pin_51)*%
X116205000Y-143186686D02*
X116205000Y-160020000D01*
X111125000Y-132715000D02*
X110490000Y-133350000D01*
X111265214Y-134366000D02*
X112268000Y-135368786D01*
X112268000Y-139249686D02*
X116205000Y-143186686D01*
X117475000Y-161290000D02*
X117475000Y-176530000D01*
X116205000Y-160020000D02*
X117475000Y-161290000D01*
X110490000Y-134005000D02*
X110851000Y-134366000D01*
X110851000Y-134366000D02*
X111265214Y-134366000D01*
X112268000Y-135368786D02*
X112268000Y-139249686D01*
X110490000Y-133350000D02*
X110490000Y-134005000D01*
X111125000Y-129794000D02*
X111125000Y-132715000D01*
%TO.N,Net-(J1-Pin_52)*%
X112395000Y-129794000D02*
X112395000Y-132861537D01*
X118745000Y-142875000D02*
X118745000Y-160020000D01*
X116840000Y-142240000D02*
X118110000Y-142240000D01*
X112395000Y-132861537D02*
X111870000Y-133386537D01*
X118110000Y-142240000D02*
X118745000Y-142875000D01*
X120015000Y-176530000D02*
X120015000Y-161290000D01*
X111870000Y-133821463D02*
X113284000Y-135235463D01*
X111870000Y-133386537D02*
X111870000Y-133821463D01*
X113284000Y-138684000D02*
X116840000Y-142240000D01*
X118745000Y-160020000D02*
X120015000Y-161290000D01*
X113284000Y-135235463D02*
X113284000Y-138684000D01*
%TO.N,Net-(J1-Pin_53)*%
X119697500Y-141033500D02*
X121285000Y-142621000D01*
X121285000Y-142621000D02*
X121285000Y-160020000D01*
X113665000Y-132861537D02*
X113030000Y-133496537D01*
X114300000Y-138176000D02*
X117157500Y-141033500D01*
X122555000Y-161290000D02*
X122555000Y-176530000D01*
X113030000Y-133496537D02*
X113030000Y-133711463D01*
X113030000Y-133711463D02*
X114300000Y-134981463D01*
X113665000Y-129794000D02*
X113665000Y-132861537D01*
X114300000Y-134981463D02*
X114300000Y-138176000D01*
X117157500Y-141033500D02*
X119697500Y-141033500D01*
X121285000Y-160020000D02*
X122555000Y-161290000D01*
%TO.N,Net-(J1-Pin_54)*%
X115316000Y-137668000D02*
X117602000Y-139954000D01*
X117602000Y-139954000D02*
X120511829Y-139954000D01*
X114935000Y-132861537D02*
X114410000Y-133386537D01*
X114410000Y-133386537D02*
X114410000Y-133821464D01*
X120511829Y-139954000D02*
X123825000Y-143267169D01*
X125095000Y-176530000D02*
X125095000Y-161290000D01*
X114410000Y-133821464D02*
X115316000Y-134727464D01*
X114935000Y-129794000D02*
X114935000Y-132861537D01*
X115316000Y-134727464D02*
X115316000Y-137668000D01*
X123825000Y-160020000D02*
X125095000Y-161290000D01*
X123825000Y-143267169D02*
X123825000Y-160020000D01*
%TO.N,Net-(J1-Pin_55)*%
X116332000Y-134620000D02*
X116332000Y-137160000D01*
X126365000Y-143002000D02*
X126365000Y-160020000D01*
X115680000Y-133956371D02*
X116337815Y-134614185D01*
X125857010Y-142494010D02*
X126365000Y-143002000D01*
X124183189Y-142493988D02*
X124240874Y-142493988D01*
X127635000Y-161290000D02*
X127635000Y-176530000D01*
X124240896Y-142494010D02*
X125857010Y-142494010D01*
X116332000Y-137160000D02*
X118104185Y-138932185D01*
X124240874Y-142493988D02*
X124240896Y-142494010D01*
X116205000Y-129794000D02*
X116205000Y-132861537D01*
X116337815Y-134614185D02*
X116332000Y-134620000D01*
X126365000Y-160020000D02*
X127635000Y-161290000D01*
X120621386Y-138932185D02*
X124183189Y-142493988D01*
X118104185Y-138932185D02*
X120621386Y-138932185D01*
X115680000Y-133386537D02*
X115680000Y-133956371D01*
X116205000Y-132861537D02*
X115680000Y-133386537D01*
%TO.N,Net-(J1-Pin_56)*%
X128905000Y-142748000D02*
X128905000Y-160020000D01*
X127851010Y-141694010D02*
X128905000Y-142748000D01*
X117348000Y-136652000D02*
X118554500Y-137858500D01*
X118554500Y-137858500D02*
X120679070Y-137858500D01*
X128905000Y-160020000D02*
X130175000Y-161290000D01*
X124514561Y-141693988D02*
X124629931Y-141693987D01*
X116950000Y-133386537D02*
X116950000Y-133979628D01*
X116950000Y-133979628D02*
X117348000Y-134377628D01*
X130175000Y-161290000D02*
X130175000Y-176530000D01*
X124629954Y-141694010D02*
X127851010Y-141694010D01*
X117475000Y-129794000D02*
X117475000Y-132861537D01*
X120679070Y-137858500D02*
X124514561Y-141693988D01*
X124629931Y-141693987D02*
X124629954Y-141694010D01*
X117475000Y-132861537D02*
X116950000Y-133386537D01*
X117348000Y-134377628D02*
X117348000Y-136652000D01*
%TO.N,Net-(J1-Pin_57)*%
X132715000Y-161290000D02*
X132715000Y-176530000D01*
X131445000Y-160020000D02*
X131445000Y-142748000D01*
X118220000Y-133968000D02*
X118220000Y-133386537D01*
X118364000Y-134112000D02*
X118220000Y-133968000D01*
X124961302Y-140893988D02*
X124845932Y-140893988D01*
X118364000Y-136144000D02*
X118364000Y-134112000D01*
X118999000Y-136779000D02*
X118364000Y-136144000D01*
X132715000Y-161290000D02*
X131445000Y-160020000D01*
X118220000Y-133386537D02*
X118745000Y-132861537D01*
X118745000Y-132861537D02*
X118745000Y-129794000D01*
X131445000Y-142748000D02*
X129591010Y-140894010D01*
X120730942Y-136779000D02*
X118999000Y-136779000D01*
X124845932Y-140893988D02*
X120730942Y-136779000D01*
X124961324Y-140894010D02*
X124961302Y-140893988D01*
X129591010Y-140894010D02*
X124961324Y-140894010D01*
%TO.N,Net-(J1-Pin_58)*%
X119380000Y-133496543D02*
X119380000Y-135001000D01*
X135255000Y-161290000D02*
X135255000Y-176530000D01*
X133985000Y-142494000D02*
X133985000Y-160020000D01*
X120015000Y-132861543D02*
X119380000Y-133496543D01*
X120719315Y-135636000D02*
X125177303Y-140093988D01*
X133985000Y-160020000D02*
X135255000Y-161290000D01*
X120015000Y-135636000D02*
X120719315Y-135636000D01*
X119380000Y-135001000D02*
X120015000Y-135636000D01*
X125177303Y-140093988D02*
X131584987Y-140093987D01*
X131584987Y-140093987D02*
X133985000Y-142494000D01*
X120015000Y-129794000D02*
X120015000Y-132861543D01*
%TO.N,Net-(J1-Pin_59)*%
X121285000Y-129794000D02*
X121285000Y-132861537D01*
X120760000Y-134476000D02*
X123464000Y-137180000D01*
X136525000Y-142494000D02*
X136525000Y-160020000D01*
X121285000Y-132861537D02*
X120760000Y-133386537D01*
X136525000Y-160020000D02*
X137795000Y-161290000D01*
X123464000Y-137180000D02*
X131211000Y-137180000D01*
X120760000Y-133386537D02*
X120760000Y-134476000D01*
X137795000Y-176530000D02*
X137795000Y-161290000D01*
X131211000Y-137180000D02*
X136525000Y-142494000D01*
%TO.N,Net-(J1-Pin_60)*%
X140216698Y-176411698D02*
X140335000Y-176530000D01*
X139065000Y-142621000D02*
X139065000Y-160020000D01*
X122191000Y-134129000D02*
X130573000Y-134129000D01*
X140335000Y-161290000D02*
X140216698Y-161408302D01*
X121920000Y-133496537D02*
X121920000Y-133858000D01*
X140216698Y-161408302D02*
X140216698Y-176411698D01*
X139065000Y-160020000D02*
X140335000Y-161290000D01*
X121920000Y-133858000D02*
X122191000Y-134129000D01*
X122555000Y-129794000D02*
X122555000Y-132861537D01*
X122555000Y-132861537D02*
X121920000Y-133496537D01*
X130573000Y-134129000D02*
X139065000Y-142621000D01*
%TO.N,Net-(J1-Pin_63)*%
X132334000Y-133223000D02*
X133096000Y-133223000D01*
X123825000Y-132842000D02*
X123825000Y-129794000D01*
X124079000Y-133096000D02*
X123825000Y-132842000D01*
X132207000Y-133096000D02*
X132334000Y-133223000D01*
X131699000Y-133096000D02*
X132207000Y-133096000D01*
X80645000Y-181610000D02*
X95872300Y-181610000D01*
X65405000Y-181610000D02*
X80645000Y-181610000D01*
X132207000Y-133096000D02*
X141605000Y-142494000D01*
X141605000Y-142494000D02*
X141605000Y-181610000D01*
X130937000Y-133096000D02*
X131699000Y-133096000D01*
X95872300Y-181610000D02*
X95885000Y-181622700D01*
X141592300Y-181622700D02*
X141605000Y-181610000D01*
X131699000Y-133096000D02*
X124079000Y-133096000D01*
X95885000Y-181622700D02*
X141592300Y-181622700D01*
%TO.N,Net-(J1-Pin_64)*%
X142240000Y-141478000D02*
X142240000Y-148841207D01*
X133350000Y-132588000D02*
X137160000Y-136398000D01*
X142240000Y-148841207D02*
X142748000Y-149349207D01*
X133350000Y-132588000D02*
X135382000Y-134620000D01*
X142748000Y-149349207D02*
X142748000Y-183007000D01*
X137160000Y-136398000D02*
X142240000Y-141478000D01*
X135382000Y-134620000D02*
X137413996Y-134620000D01*
X125095000Y-131953000D02*
X125730000Y-132588000D01*
X141587600Y-184167400D02*
X65422400Y-184167400D01*
X137413996Y-134620000D02*
X138874501Y-133159495D01*
X142748000Y-183007000D02*
X141605000Y-184150000D01*
X141605000Y-184150000D02*
X141587600Y-184167400D01*
X125730000Y-132588000D02*
X133350000Y-132588000D01*
X65422400Y-184167400D02*
X65405000Y-184150000D01*
X125095000Y-129794000D02*
X125095000Y-131953000D01*
%TD*%
M02*
