%TF.GenerationSoftware,KiCad,Pcbnew,8.0.0*%
%TF.CreationDate,2024-02-27T09:21:41-08:00*%
%TF.ProjectId,BarnacleBoard,4261726e-6163-46c6-9542-6f6172642e6b,rev?*%
%TF.SameCoordinates,Original*%
%TF.FileFunction,Paste,Top*%
%TF.FilePolarity,Positive*%
%FSLAX46Y46*%
G04 Gerber Fmt 4.6, Leading zero omitted, Abs format (unit mm)*
G04 Created by KiCad (PCBNEW 8.0.0) date 2024-02-27 09:21:41*
%MOMM*%
%LPD*%
G01*
G04 APERTURE LIST*
G04 Aperture macros list*
%AMRoundRect*
0 Rectangle with rounded corners*
0 $1 Rounding radius*
0 $2 $3 $4 $5 $6 $7 $8 $9 X,Y pos of 4 corners*
0 Add a 4 corners polygon primitive as box body*
4,1,4,$2,$3,$4,$5,$6,$7,$8,$9,$2,$3,0*
0 Add four circle primitives for the rounded corners*
1,1,$1+$1,$2,$3*
1,1,$1+$1,$4,$5*
1,1,$1+$1,$6,$7*
1,1,$1+$1,$8,$9*
0 Add four rect primitives between the rounded corners*
20,1,$1+$1,$2,$3,$4,$5,0*
20,1,$1+$1,$4,$5,$6,$7,0*
20,1,$1+$1,$6,$7,$8,$9,0*
20,1,$1+$1,$8,$9,$2,$3,0*%
G04 Aperture macros list end*
%ADD10RoundRect,0.150000X0.150000X0.200000X-0.150000X0.200000X-0.150000X-0.200000X0.150000X-0.200000X0*%
%ADD11RoundRect,0.150000X-0.200000X0.150000X-0.200000X-0.150000X0.200000X-0.150000X0.200000X0.150000X0*%
%ADD12RoundRect,0.100000X-0.400000X-2.650000X0.400000X-2.650000X0.400000X2.650000X-0.400000X2.650000X0*%
G04 APERTURE END LIST*
D10*
%TO.C,D45*%
X103082000Y-169460600D03*
X103082000Y-168360600D03*
X101304000Y-168360600D03*
X101304000Y-169460600D03*
%TD*%
D11*
%TO.C,D71*%
X134535000Y-183261000D03*
X133435000Y-183261000D03*
X133435000Y-185039000D03*
X134535000Y-185039000D03*
%TD*%
%TO.C,D89*%
X134535000Y-135001000D03*
X133435000Y-135001000D03*
X133435000Y-136779000D03*
X134535000Y-136779000D03*
%TD*%
D10*
%TO.C,D32*%
X70045400Y-169458800D03*
X70045400Y-168358800D03*
X68267400Y-168358800D03*
X68267400Y-169458800D03*
%TD*%
D11*
%TO.C,D77*%
X88815000Y-180721000D03*
X87715000Y-180721000D03*
X87715000Y-182499000D03*
X88815000Y-182499000D03*
%TD*%
D10*
%TO.C,D40*%
X90365400Y-169458800D03*
X90365400Y-168358800D03*
X88587400Y-168358800D03*
X88587400Y-169458800D03*
%TD*%
D11*
%TO.C,D83*%
X88815000Y-137541000D03*
X87715000Y-137541000D03*
X87715000Y-139319000D03*
X88815000Y-139319000D03*
%TD*%
D10*
%TO.C,D44*%
X100542000Y-169460600D03*
X100542000Y-168360600D03*
X98764000Y-168360600D03*
X98764000Y-169460600D03*
%TD*%
D11*
%TO.C,D84*%
X88815000Y-135001000D03*
X87715000Y-135001000D03*
X87715000Y-136779000D03*
X88815000Y-136779000D03*
%TD*%
D10*
%TO.C,D56*%
X131046400Y-169459400D03*
X131046400Y-168359400D03*
X129268400Y-168359400D03*
X129268400Y-169459400D03*
%TD*%
%TO.C,D13*%
X98051800Y-151680600D03*
X98051800Y-150580600D03*
X96273800Y-150580600D03*
X96273800Y-151680600D03*
%TD*%
%TO.C,D27*%
X133619600Y-151679400D03*
X133619600Y-150579400D03*
X131841600Y-150579400D03*
X131841600Y-151679400D03*
%TD*%
%TO.C,D4*%
X75175200Y-151680000D03*
X75175200Y-150580000D03*
X73397200Y-150580000D03*
X73397200Y-151680000D03*
%TD*%
%TO.C,D2*%
X70095200Y-151680000D03*
X70095200Y-150580000D03*
X68317200Y-150580000D03*
X68317200Y-151680000D03*
%TD*%
%TO.C,D16*%
X105671800Y-151680600D03*
X105671800Y-150580600D03*
X103893800Y-150580600D03*
X103893800Y-151680600D03*
%TD*%
%TO.C,D55*%
X128506400Y-169459400D03*
X128506400Y-168359400D03*
X126728400Y-168359400D03*
X126728400Y-169459400D03*
%TD*%
D11*
%TO.C,D82*%
X73575000Y-137541000D03*
X72475000Y-137541000D03*
X72475000Y-139319000D03*
X73575000Y-139319000D03*
%TD*%
%TO.C,D78*%
X88815000Y-183261000D03*
X87715000Y-183261000D03*
X87715000Y-185039000D03*
X88815000Y-185039000D03*
%TD*%
%TO.C,D86*%
X104055000Y-137541000D03*
X102955000Y-137541000D03*
X102955000Y-139319000D03*
X104055000Y-139319000D03*
%TD*%
%TO.C,D76*%
X104055000Y-180721000D03*
X102955000Y-180721000D03*
X102955000Y-182499000D03*
X104055000Y-182499000D03*
%TD*%
D10*
%TO.C,D54*%
X125966400Y-169459400D03*
X125966400Y-168359400D03*
X124188400Y-168359400D03*
X124188400Y-169459400D03*
%TD*%
%TO.C,D31*%
X67497600Y-169458800D03*
X67497600Y-168358800D03*
X65719600Y-168358800D03*
X65719600Y-169458800D03*
%TD*%
%TO.C,D23*%
X123459600Y-151679400D03*
X123459600Y-150579400D03*
X121681600Y-150579400D03*
X121681600Y-151679400D03*
%TD*%
%TO.C,D38*%
X85285400Y-169458800D03*
X85285400Y-168358800D03*
X83507400Y-168358800D03*
X83507400Y-169458800D03*
%TD*%
%TO.C,D43*%
X98002000Y-169460600D03*
X98002000Y-168360600D03*
X96224000Y-168360600D03*
X96224000Y-169460600D03*
%TD*%
D11*
%TO.C,D90*%
X134535000Y-137541000D03*
X133435000Y-137541000D03*
X133435000Y-139319000D03*
X134535000Y-139319000D03*
%TD*%
D10*
%TO.C,D29*%
X138699600Y-151679400D03*
X138699600Y-150579400D03*
X136921600Y-150579400D03*
X136921600Y-151679400D03*
%TD*%
D11*
%TO.C,D80*%
X73574400Y-180721000D03*
X72474400Y-180721000D03*
X72474400Y-182499000D03*
X73574400Y-182499000D03*
%TD*%
D10*
%TO.C,D34*%
X75125400Y-169458800D03*
X75125400Y-168358800D03*
X73347400Y-168358800D03*
X73347400Y-169458800D03*
%TD*%
%TO.C,D37*%
X82745400Y-169458800D03*
X82745400Y-168358800D03*
X80967400Y-168358800D03*
X80967400Y-169458800D03*
%TD*%
D12*
%TO.C,J1*%
X85725000Y-129794000D03*
X86995000Y-129794000D03*
X88265000Y-129794000D03*
X89535000Y-129794000D03*
X90805000Y-129794000D03*
X92075000Y-129794000D03*
X93345000Y-129794000D03*
X94615000Y-129794000D03*
X95885000Y-129794000D03*
X97155000Y-129794000D03*
X98425000Y-129794000D03*
X99695000Y-129794000D03*
X100965000Y-129794000D03*
X102235000Y-129794000D03*
X103505000Y-129794000D03*
X104775000Y-129794000D03*
X106045000Y-129794000D03*
X107315000Y-129794000D03*
X108585000Y-129794000D03*
X109855000Y-129794000D03*
X111125000Y-129794000D03*
X112395000Y-129794000D03*
X113665000Y-129794000D03*
X114935000Y-129794000D03*
X116205000Y-129794000D03*
X117475000Y-129794000D03*
X118745000Y-129794000D03*
X120015000Y-129794000D03*
X121285000Y-129794000D03*
X122555000Y-129794000D03*
X123825000Y-129794000D03*
X125095000Y-129794000D03*
X81915000Y-129794000D03*
X83185000Y-129794000D03*
X84455000Y-129794000D03*
%TD*%
D11*
%TO.C,D87*%
X119295000Y-137541000D03*
X118195000Y-137541000D03*
X118195000Y-139319000D03*
X119295000Y-139319000D03*
%TD*%
D10*
%TO.C,D14*%
X100591800Y-151680600D03*
X100591800Y-150580600D03*
X98813800Y-150580600D03*
X98813800Y-151680600D03*
%TD*%
D11*
%TO.C,D85*%
X104055000Y-135001000D03*
X102955000Y-135001000D03*
X102955000Y-136779000D03*
X104055000Y-136779000D03*
%TD*%
D10*
%TO.C,D11*%
X92964000Y-151680600D03*
X92964000Y-150580600D03*
X91186000Y-150580600D03*
X91186000Y-151680600D03*
%TD*%
%TO.C,D20*%
X115831800Y-151680600D03*
X115831800Y-150580600D03*
X114053800Y-150580600D03*
X114053800Y-151680600D03*
%TD*%
%TO.C,D26*%
X131079600Y-151679400D03*
X131079600Y-150579400D03*
X129301600Y-150579400D03*
X129301600Y-151679400D03*
%TD*%
%TO.C,D15*%
X103131800Y-151680600D03*
X103131800Y-150580600D03*
X101353800Y-150580600D03*
X101353800Y-151680600D03*
%TD*%
D11*
%TO.C,D88*%
X119295000Y-135001000D03*
X118195000Y-135001000D03*
X118195000Y-136779000D03*
X119295000Y-136779000D03*
%TD*%
D10*
%TO.C,D60*%
X141206400Y-169459400D03*
X141206400Y-168359400D03*
X139428400Y-168359400D03*
X139428400Y-169459400D03*
%TD*%
%TO.C,D17*%
X108211800Y-151680600D03*
X108211800Y-150580600D03*
X106433800Y-150580600D03*
X106433800Y-151680600D03*
%TD*%
%TO.C,D48*%
X110702000Y-169460600D03*
X110702000Y-168360600D03*
X108924000Y-168360600D03*
X108924000Y-169460600D03*
%TD*%
%TO.C,D19*%
X113291800Y-151680600D03*
X113291800Y-150580600D03*
X111513800Y-150580600D03*
X111513800Y-151680600D03*
%TD*%
D11*
%TO.C,D79*%
X73575000Y-183261000D03*
X72475000Y-183261000D03*
X72475000Y-185039000D03*
X73575000Y-185039000D03*
%TD*%
D10*
%TO.C,D39*%
X87825400Y-169458800D03*
X87825400Y-168358800D03*
X86047400Y-168358800D03*
X86047400Y-169458800D03*
%TD*%
%TO.C,D53*%
X123426400Y-169459400D03*
X123426400Y-168359400D03*
X121648400Y-168359400D03*
X121648400Y-169459400D03*
%TD*%
%TO.C,D46*%
X105622000Y-169460600D03*
X105622000Y-168360600D03*
X103844000Y-168360600D03*
X103844000Y-169460600D03*
%TD*%
%TO.C,D36*%
X80205400Y-169458800D03*
X80205400Y-168358800D03*
X78427400Y-168358800D03*
X78427400Y-169458800D03*
%TD*%
%TO.C,D28*%
X136159600Y-151679400D03*
X136159600Y-150579400D03*
X134381600Y-150579400D03*
X134381600Y-151679400D03*
%TD*%
%TO.C,D33*%
X72585400Y-169458800D03*
X72585400Y-168358800D03*
X70807400Y-168358800D03*
X70807400Y-169458800D03*
%TD*%
%TO.C,D50*%
X115789800Y-169460600D03*
X115789800Y-168360600D03*
X114011800Y-168360600D03*
X114011800Y-169460600D03*
%TD*%
%TO.C,D25*%
X128539600Y-151679400D03*
X128539600Y-150579400D03*
X126761600Y-150579400D03*
X126761600Y-151679400D03*
%TD*%
%TO.C,D52*%
X120886400Y-169459400D03*
X120886400Y-168359400D03*
X119108400Y-168359400D03*
X119108400Y-169459400D03*
%TD*%
%TO.C,D7*%
X82795200Y-151680000D03*
X82795200Y-150580000D03*
X81017200Y-150580000D03*
X81017200Y-151680000D03*
%TD*%
%TO.C,D58*%
X136126400Y-169459400D03*
X136126400Y-168359400D03*
X134348400Y-168359400D03*
X134348400Y-169459400D03*
%TD*%
%TO.C,D18*%
X110751800Y-151680600D03*
X110751800Y-150580600D03*
X108973800Y-150580600D03*
X108973800Y-151680600D03*
%TD*%
D11*
%TO.C,D73*%
X119295000Y-180721000D03*
X118195000Y-180721000D03*
X118195000Y-182499000D03*
X119295000Y-182499000D03*
%TD*%
D10*
%TO.C,D30*%
X141239600Y-151679400D03*
X141239600Y-150579400D03*
X139461600Y-150579400D03*
X139461600Y-151679400D03*
%TD*%
%TO.C,D3*%
X72635200Y-151680000D03*
X72635200Y-150580000D03*
X70857200Y-150580000D03*
X70857200Y-151680000D03*
%TD*%
%TO.C,D9*%
X87875200Y-151680000D03*
X87875200Y-150580000D03*
X86097200Y-150580000D03*
X86097200Y-151680000D03*
%TD*%
%TO.C,D12*%
X95511800Y-151680600D03*
X95511800Y-150580600D03*
X93733800Y-150580600D03*
X93733800Y-151680600D03*
%TD*%
D11*
%TO.C,D81*%
X73575000Y-135001000D03*
X72475000Y-135001000D03*
X72475000Y-136779000D03*
X73575000Y-136779000D03*
%TD*%
D10*
%TO.C,D21*%
X118371800Y-151679400D03*
X118371800Y-150579400D03*
X116593800Y-150579400D03*
X116593800Y-151679400D03*
%TD*%
%TO.C,D51*%
X118338600Y-169459400D03*
X118338600Y-168359400D03*
X116560600Y-168359400D03*
X116560600Y-169459400D03*
%TD*%
%TO.C,D1*%
X67555200Y-151680000D03*
X67555200Y-150580000D03*
X65777200Y-150580000D03*
X65777200Y-151680000D03*
%TD*%
%TO.C,D59*%
X138666400Y-169459400D03*
X138666400Y-168359400D03*
X136888400Y-168359400D03*
X136888400Y-169459400D03*
%TD*%
%TO.C,D8*%
X85335200Y-151680000D03*
X85335200Y-150580000D03*
X83557200Y-150580000D03*
X83557200Y-151680000D03*
%TD*%
%TO.C,D35*%
X77665400Y-169458800D03*
X77665400Y-168358800D03*
X75887400Y-168358800D03*
X75887400Y-169458800D03*
%TD*%
%TO.C,D10*%
X90415200Y-151680000D03*
X90415200Y-150580000D03*
X88637200Y-150580000D03*
X88637200Y-151680000D03*
%TD*%
%TO.C,D47*%
X108162000Y-169460600D03*
X108162000Y-168360600D03*
X106384000Y-168360600D03*
X106384000Y-169460600D03*
%TD*%
D11*
%TO.C,D72*%
X134535000Y-180721000D03*
X133435000Y-180721000D03*
X133435000Y-182499000D03*
X134535000Y-182499000D03*
%TD*%
D10*
%TO.C,D24*%
X125999600Y-151679400D03*
X125999600Y-150579400D03*
X124221600Y-150579400D03*
X124221600Y-151679400D03*
%TD*%
D11*
%TO.C,D74*%
X119295000Y-183261000D03*
X118195000Y-183261000D03*
X118195000Y-185039000D03*
X119295000Y-185039000D03*
%TD*%
D10*
%TO.C,D57*%
X133586400Y-169459400D03*
X133586400Y-168359400D03*
X131808400Y-168359400D03*
X131808400Y-169459400D03*
%TD*%
%TO.C,D41*%
X92913200Y-169459400D03*
X92913200Y-168359400D03*
X91135200Y-168359400D03*
X91135200Y-169459400D03*
%TD*%
%TO.C,D22*%
X120919600Y-151679400D03*
X120919600Y-150579400D03*
X119141600Y-150579400D03*
X119141600Y-151679400D03*
%TD*%
D11*
%TO.C,D75*%
X104055000Y-183261000D03*
X102955000Y-183261000D03*
X102955000Y-185039000D03*
X104055000Y-185039000D03*
%TD*%
D10*
%TO.C,D6*%
X80255200Y-151680000D03*
X80255200Y-150580000D03*
X78477200Y-150580000D03*
X78477200Y-151680000D03*
%TD*%
%TO.C,D49*%
X113242000Y-169460600D03*
X113242000Y-168360600D03*
X111464000Y-168360600D03*
X111464000Y-169460600D03*
%TD*%
%TO.C,D42*%
X95462000Y-169460600D03*
X95462000Y-168360600D03*
X93684000Y-168360600D03*
X93684000Y-169460600D03*
%TD*%
%TO.C,D5*%
X77715200Y-151680000D03*
X77715200Y-150580000D03*
X75937200Y-150580000D03*
X75937200Y-151680000D03*
%TD*%
M02*
