%TF.GenerationSoftware,KiCad,Pcbnew,10.0.4*%
%TF.CreationDate,2026-07-15T14:57:08-07:00*%
%TF.ProjectId,wig,7769672e-6b69-4636-9164-5f7063625858,rev?*%
%TF.SameCoordinates,Original*%
%TF.FileFunction,Drillmap*%
%TF.FilePolarity,Positive*%
%FSLAX45Y45*%
G04 Gerber Fmt 4.5, Leading zero omitted, Abs format (unit mm)*
G04 Created by KiCad (PCBNEW 10.0.4) date 2026-07-15 14:57:08*
%MOMM*%
%LPD*%
G01*
G04 APERTURE LIST*
%ADD10C,0.100000*%
%ADD11C,0.200000*%
G04 APERTURE END LIST*
D10*
X18952867Y-2868607D02*
X18961808Y-2869399D01*
X18970715Y-2870991D01*
X18979447Y-2873362D01*
X18987936Y-2876495D01*
X18996115Y-2880366D01*
X19003920Y-2884943D01*
X19007634Y-2887527D01*
X19030351Y-2902480D01*
X19159822Y-2995153D01*
X19163504Y-2997743D01*
X19170445Y-3003476D01*
X19176855Y-3009797D01*
X19182685Y-3016658D01*
X19187888Y-3024004D01*
X19192426Y-3031779D01*
X19196262Y-3039924D01*
X19199368Y-3048374D01*
X19201718Y-3057064D01*
X19203295Y-3065928D01*
X19204086Y-3074896D01*
X19204137Y-3079397D01*
X19204137Y-3884575D01*
X19140637Y-4138575D01*
X19140637Y-7059575D01*
X19204137Y-7313575D01*
X19204133Y-8118757D01*
X19204085Y-8123258D01*
X19203294Y-8132226D01*
X19201717Y-8141090D01*
X19199367Y-8149780D01*
X19196262Y-8158231D01*
X19192425Y-8166375D01*
X19187888Y-8174151D01*
X19182684Y-8181497D01*
X19176854Y-8188357D01*
X19170443Y-8194678D01*
X19163501Y-8200411D01*
X19159821Y-8203002D01*
X19031331Y-8294973D01*
X19007642Y-8310565D01*
X19003929Y-8313152D01*
X18996123Y-8317730D01*
X18987944Y-8321601D01*
X18979454Y-8324735D01*
X18970721Y-8327107D01*
X18961813Y-8328699D01*
X18952799Y-8329498D01*
X18948274Y-8329548D01*
X17805274Y-8329550D01*
X12725274Y-8329550D01*
X11582274Y-8329550D01*
X11579562Y-8329520D01*
X11570599Y-8328725D01*
X11561691Y-8327133D01*
X11552958Y-8324760D01*
X11544469Y-8321626D01*
X11536290Y-8317754D01*
X11528484Y-8313175D01*
X11524769Y-8310593D01*
X11502029Y-8295625D01*
X11372590Y-8202975D01*
X11368909Y-8200384D01*
X11361968Y-8194651D01*
X11355557Y-8188330D01*
X11349728Y-8181470D01*
X11344524Y-8174123D01*
X11339986Y-8166348D01*
X11336150Y-8158203D01*
X11333045Y-8149753D01*
X11330695Y-8141062D01*
X11329118Y-8132199D01*
X11328327Y-8123231D01*
X11328278Y-8118730D01*
X11328274Y-7313548D01*
X11391774Y-7059548D01*
X11391774Y-4138548D01*
X11328274Y-3884548D01*
X11328274Y-3079370D01*
X11328322Y-3074868D01*
X11329114Y-3065900D01*
X11330691Y-3057037D01*
X11333042Y-3048347D01*
X11336148Y-3039896D01*
X11339984Y-3031752D01*
X11344522Y-3023977D01*
X11349726Y-3016630D01*
X11355556Y-3009770D01*
X11361966Y-3003449D01*
X11368908Y-2997716D01*
X11372589Y-2995125D01*
X11501111Y-2903132D01*
X11524777Y-2887554D01*
X11528491Y-2884970D01*
X11536296Y-2880392D01*
X11544475Y-2876522D01*
X11552964Y-2873388D01*
X11561696Y-2871016D01*
X11570603Y-2869424D01*
X11579616Y-2868625D01*
X11584140Y-2868577D01*
X18950137Y-2868577D01*
X18952867Y-2868607D01*
D11*
X11584051Y-8646034D02*
X11584051Y-8446034D01*
X11584051Y-8446034D02*
X11631670Y-8446034D01*
X11631670Y-8446034D02*
X11660241Y-8455557D01*
X11660241Y-8455557D02*
X11679289Y-8474605D01*
X11679289Y-8474605D02*
X11688813Y-8493653D01*
X11688813Y-8493653D02*
X11698336Y-8531748D01*
X11698336Y-8531748D02*
X11698336Y-8560319D01*
X11698336Y-8560319D02*
X11688813Y-8598415D01*
X11688813Y-8598415D02*
X11679289Y-8617462D01*
X11679289Y-8617462D02*
X11660241Y-8636510D01*
X11660241Y-8636510D02*
X11631670Y-8646034D01*
X11631670Y-8646034D02*
X11584051Y-8646034D01*
X11784051Y-8646034D02*
X11784051Y-8512700D01*
X11784051Y-8550796D02*
X11793575Y-8531748D01*
X11793575Y-8531748D02*
X11803098Y-8522224D01*
X11803098Y-8522224D02*
X11822146Y-8512700D01*
X11822146Y-8512700D02*
X11841194Y-8512700D01*
X11907860Y-8646034D02*
X11907860Y-8512700D01*
X11907860Y-8446034D02*
X11898336Y-8455557D01*
X11898336Y-8455557D02*
X11907860Y-8465081D01*
X11907860Y-8465081D02*
X11917384Y-8455557D01*
X11917384Y-8455557D02*
X11907860Y-8446034D01*
X11907860Y-8446034D02*
X11907860Y-8465081D01*
X12031670Y-8646034D02*
X12012622Y-8636510D01*
X12012622Y-8636510D02*
X12003098Y-8617462D01*
X12003098Y-8617462D02*
X12003098Y-8446034D01*
X12136432Y-8646034D02*
X12117384Y-8636510D01*
X12117384Y-8636510D02*
X12107860Y-8617462D01*
X12107860Y-8617462D02*
X12107860Y-8446034D01*
X12365003Y-8646034D02*
X12365003Y-8446034D01*
X12365003Y-8446034D02*
X12431670Y-8588891D01*
X12431670Y-8588891D02*
X12498336Y-8446034D01*
X12498336Y-8446034D02*
X12498336Y-8646034D01*
X12679289Y-8646034D02*
X12679289Y-8541272D01*
X12679289Y-8541272D02*
X12669765Y-8522224D01*
X12669765Y-8522224D02*
X12650717Y-8512700D01*
X12650717Y-8512700D02*
X12612622Y-8512700D01*
X12612622Y-8512700D02*
X12593575Y-8522224D01*
X12679289Y-8636510D02*
X12660241Y-8646034D01*
X12660241Y-8646034D02*
X12612622Y-8646034D01*
X12612622Y-8646034D02*
X12593575Y-8636510D01*
X12593575Y-8636510D02*
X12584051Y-8617462D01*
X12584051Y-8617462D02*
X12584051Y-8598415D01*
X12584051Y-8598415D02*
X12593575Y-8579367D01*
X12593575Y-8579367D02*
X12612622Y-8569843D01*
X12612622Y-8569843D02*
X12660241Y-8569843D01*
X12660241Y-8569843D02*
X12679289Y-8560319D01*
X12774527Y-8512700D02*
X12774527Y-8712700D01*
X12774527Y-8522224D02*
X12793575Y-8512700D01*
X12793575Y-8512700D02*
X12831670Y-8512700D01*
X12831670Y-8512700D02*
X12850717Y-8522224D01*
X12850717Y-8522224D02*
X12860241Y-8531748D01*
X12860241Y-8531748D02*
X12869765Y-8550796D01*
X12869765Y-8550796D02*
X12869765Y-8607938D01*
X12869765Y-8607938D02*
X12860241Y-8626986D01*
X12860241Y-8626986D02*
X12850717Y-8636510D01*
X12850717Y-8636510D02*
X12831670Y-8646034D01*
X12831670Y-8646034D02*
X12793575Y-8646034D01*
X12793575Y-8646034D02*
X12774527Y-8636510D01*
X12955479Y-8626986D02*
X12965003Y-8636510D01*
X12965003Y-8636510D02*
X12955479Y-8646034D01*
X12955479Y-8646034D02*
X12945956Y-8636510D01*
X12945956Y-8636510D02*
X12955479Y-8626986D01*
X12955479Y-8626986D02*
X12955479Y-8646034D01*
X12955479Y-8522224D02*
X12965003Y-8531748D01*
X12965003Y-8531748D02*
X12955479Y-8541272D01*
X12955479Y-8541272D02*
X12945956Y-8531748D01*
X12945956Y-8531748D02*
X12955479Y-8522224D01*
X12955479Y-8522224D02*
X12955479Y-8541272D01*
M02*
