%TF.GenerationSoftware,KiCad,Pcbnew,7.0.7*%
%TF.CreationDate,2024-02-23T14:46:40-08:00*%
%TF.ProjectId,JluxR2protoboard,4a6c7578-5232-4707-926f-746f626f6172,rev?*%
%TF.SameCoordinates,Original*%
%TF.FileFunction,Paste,Bot*%
%TF.FilePolarity,Positive*%
%FSLAX46Y46*%
G04 Gerber Fmt 4.6, Leading zero omitted, Abs format (unit mm)*
G04 Created by KiCad (PCBNEW 7.0.7) date 2024-02-23 14:46:40*
%MOMM*%
%LPD*%
G01*
G04 APERTURE LIST*
G04 Aperture macros list*
%AMRoundRect*
0 Rectangle with rounded corners*
0 $1 Rounding radius*
0 $2 $3 $4 $5 $6 $7 $8 $9 X,Y pos of 4 corners*
0 Add a 4 corners polygon primitive as box body*
4,1,4,$2,$3,$4,$5,$6,$7,$8,$9,$2,$3,0*
0 Add four circle primitives for the rounded corners*
1,1,$1+$1,$2,$3*
1,1,$1+$1,$4,$5*
1,1,$1+$1,$6,$7*
1,1,$1+$1,$8,$9*
0 Add four rect primitives between the rounded corners*
20,1,$1+$1,$2,$3,$4,$5,0*
20,1,$1+$1,$4,$5,$6,$7,0*
20,1,$1+$1,$6,$7,$8,$9,0*
20,1,$1+$1,$8,$9,$2,$3,0*%
G04 Aperture macros list end*
%ADD10RoundRect,0.090000X-0.360000X-2.410000X0.360000X-2.410000X0.360000X2.410000X-0.360000X2.410000X0*%
%ADD11RoundRect,0.090000X0.360000X2.410000X-0.360000X2.410000X-0.360000X-2.410000X0.360000X-2.410000X0*%
G04 APERTURE END LIST*
D10*
%TO.C,J11*%
X84175600Y-22453600D03*
X85445600Y-22453600D03*
X86715600Y-22453600D03*
X87985600Y-22453600D03*
X89255600Y-22453600D03*
X90525600Y-22453600D03*
X91795600Y-22453600D03*
X93065600Y-22453600D03*
X94335600Y-22453600D03*
X95605600Y-22453600D03*
X96875600Y-22453600D03*
X98145600Y-22453600D03*
X99415600Y-22453600D03*
X100685600Y-22453600D03*
X101955600Y-22453600D03*
X103225600Y-22453600D03*
X104495600Y-22453600D03*
X105765600Y-22453600D03*
X107035600Y-22453600D03*
X108305600Y-22453600D03*
X109575600Y-22453600D03*
X110845600Y-22453600D03*
X112115600Y-22453600D03*
X113385600Y-22453600D03*
X114655600Y-22453600D03*
X115925600Y-22453600D03*
X117195600Y-22453600D03*
X118465600Y-22453600D03*
X119735600Y-22453600D03*
X121005600Y-22453600D03*
X122275600Y-22453600D03*
X123545600Y-22453600D03*
X80365600Y-22453600D03*
X81635600Y-22453600D03*
X82905600Y-22453600D03*
%TD*%
D11*
%TO.C,J12*%
X84201000Y-94488000D03*
X85471000Y-94488000D03*
X86741000Y-94488000D03*
X88011000Y-94488000D03*
X89281000Y-94488000D03*
X90551000Y-94488000D03*
X91821000Y-94488000D03*
X93091000Y-94488000D03*
X94361000Y-94488000D03*
X95631000Y-94488000D03*
X96901000Y-94488000D03*
X98171000Y-94488000D03*
X99441000Y-94488000D03*
X100711000Y-94488000D03*
X101981000Y-94488000D03*
X103251000Y-94488000D03*
X104521000Y-94488000D03*
X105791000Y-94488000D03*
X107061000Y-94488000D03*
X108331000Y-94488000D03*
X109601000Y-94488000D03*
X110871000Y-94488000D03*
X112141000Y-94488000D03*
X113411000Y-94488000D03*
X114681000Y-94488000D03*
X115951000Y-94488000D03*
X117221000Y-94488000D03*
X118491000Y-94488000D03*
X119761000Y-94488000D03*
X121031000Y-94488000D03*
X122301000Y-94488000D03*
X123571000Y-94488000D03*
X80391000Y-94488000D03*
X81661000Y-94488000D03*
X82931000Y-94488000D03*
%TD*%
M02*
