%TF.GenerationSoftware,KiCad,Pcbnew,7.0.7*%
%TF.CreationDate,2024-02-23T14:46:43-08:00*%
%TF.ProjectId,JluxR2protoboard,4a6c7578-5232-4707-926f-746f626f6172,rev?*%
%TF.SameCoordinates,Original*%
%TF.FileFunction,Drillmap*%
%TF.FilePolarity,Positive*%
%FSLAX45Y45*%
G04 Gerber Fmt 4.5, Leading zero omitted, Abs format (unit mm)*
G04 Created by KiCad (PCBNEW 7.0.7) date 2024-02-23 14:46:43*
%MOMM*%
%LPD*%
G01*
G04 APERTURE LIST*
%ADD10C,0.050000*%
%ADD11C,0.200000*%
%ADD12C,0.025000*%
%ADD13C,0.075000*%
%ADD14C,0.100000*%
G04 APERTURE END LIST*
D10*
X12468860Y-2677160D02*
X14018260Y-2677160D01*
X7922260Y-2550160D02*
X7922260Y-2677160D01*
X6070600Y-2984500D02*
X6070600Y-8686800D01*
X6400800Y-9017000D02*
X6070600Y-8686800D01*
X12471400Y-9017000D02*
X14020800Y-9017000D01*
X7924800Y-9017000D02*
X6400800Y-9017000D01*
X14018260Y-2677160D02*
X14325600Y-2984500D01*
X12471400Y-9144000D02*
X12471400Y-9017000D01*
X12468860Y-2550160D02*
X12468860Y-2677160D01*
X7922260Y-2677160D02*
X6377940Y-2677160D01*
X6377940Y-2677160D02*
X6070600Y-2984500D01*
X7924800Y-9144000D02*
X7924800Y-9017000D01*
X14325600Y-2984500D02*
X14325600Y-8712200D01*
X14020800Y-9017000D02*
X14325600Y-8712200D01*
D11*
D12*
X8026600Y-9093400D02*
X8051600Y-9118400D01*
X8051600Y-9093400D02*
X8026600Y-9118400D01*
X8039300Y-2616400D02*
X8064300Y-2641400D01*
X8064300Y-2616400D02*
X8039300Y-2641400D01*
X8100857Y-9034576D02*
X8125857Y-9059576D01*
X8125857Y-9034576D02*
X8100857Y-9059576D01*
X8137620Y-2619680D02*
X8162620Y-2644680D01*
X8162620Y-2619680D02*
X8137620Y-2644680D01*
X8200400Y-9029900D02*
X8225400Y-9054900D01*
X8225400Y-9029900D02*
X8200400Y-9054900D01*
X8217100Y-2603700D02*
X8242100Y-2628700D01*
X8242100Y-2603700D02*
X8217100Y-2628700D01*
X8280600Y-9106100D02*
X8305600Y-9131100D01*
X8305600Y-9106100D02*
X8280600Y-9131100D01*
X8293300Y-2552900D02*
X8318300Y-2577900D01*
X8318300Y-2552900D02*
X8293300Y-2577900D01*
X12145822Y-9109475D02*
X12170822Y-9134475D01*
X12170822Y-9109475D02*
X12145822Y-9134475D01*
X12158104Y-2580386D02*
X12183104Y-2605386D01*
X12183104Y-2580386D02*
X12158104Y-2605386D01*
X12204688Y-9029900D02*
X12229688Y-9054900D01*
X12229688Y-9029900D02*
X12204688Y-9054900D01*
X12225220Y-2634180D02*
X12250220Y-2659180D01*
X12250220Y-2634180D02*
X12225220Y-2659180D01*
X12284402Y-9080700D02*
X12309402Y-9105700D01*
X12309402Y-9080700D02*
X12284402Y-9105700D01*
X12302300Y-2642657D02*
X12327300Y-2667657D01*
X12327300Y-2642657D02*
X12302300Y-2667657D01*
X12350077Y-9013000D02*
X12375077Y-9038000D01*
X12375077Y-9013000D02*
X12350077Y-9038000D01*
X12369800Y-2587139D02*
X12394800Y-2612139D01*
X12394800Y-2587139D02*
X12369800Y-2612139D01*
D13*
X6552600Y-3182620D02*
G75*
G03*
X6552600Y-3182620I-37500J0D01*
G01*
X6552600Y-3436620D02*
G75*
G03*
X6552600Y-3436620I-37500J0D01*
G01*
X6552600Y-8262620D02*
G75*
G03*
X6552600Y-8262620I-37500J0D01*
G01*
X6552600Y-8516620D02*
G75*
G03*
X6552600Y-8516620I-37500J0D01*
G01*
X6806600Y-3182620D02*
G75*
G03*
X6806600Y-3182620I-37500J0D01*
G01*
X6806600Y-3436620D02*
G75*
G03*
X6806600Y-3436620I-37500J0D01*
G01*
X6806600Y-8262620D02*
G75*
G03*
X6806600Y-8262620I-37500J0D01*
G01*
X6806600Y-8516620D02*
G75*
G03*
X6806600Y-8516620I-37500J0D01*
G01*
X7060600Y-3182620D02*
G75*
G03*
X7060600Y-3182620I-37500J0D01*
G01*
X7060600Y-3436620D02*
G75*
G03*
X7060600Y-3436620I-37500J0D01*
G01*
X7060600Y-8262620D02*
G75*
G03*
X7060600Y-8262620I-37500J0D01*
G01*
X7060600Y-8516620D02*
G75*
G03*
X7060600Y-8516620I-37500J0D01*
G01*
X7314600Y-3182620D02*
G75*
G03*
X7314600Y-3182620I-37500J0D01*
G01*
X7314600Y-3436620D02*
G75*
G03*
X7314600Y-3436620I-37500J0D01*
G01*
X7314600Y-8262620D02*
G75*
G03*
X7314600Y-8262620I-37500J0D01*
G01*
X7314600Y-8516620D02*
G75*
G03*
X7314600Y-8516620I-37500J0D01*
G01*
X7822600Y-3182620D02*
G75*
G03*
X7822600Y-3182620I-37500J0D01*
G01*
X7822600Y-3436620D02*
G75*
G03*
X7822600Y-3436620I-37500J0D01*
G01*
X7822600Y-8262620D02*
G75*
G03*
X7822600Y-8262620I-37500J0D01*
G01*
X7822600Y-8516620D02*
G75*
G03*
X7822600Y-8516620I-37500J0D01*
G01*
X8076600Y-3182620D02*
G75*
G03*
X8076600Y-3182620I-37500J0D01*
G01*
X8076600Y-3436620D02*
G75*
G03*
X8076600Y-3436620I-37500J0D01*
G01*
X8076600Y-8262620D02*
G75*
G03*
X8076600Y-8262620I-37500J0D01*
G01*
X8076600Y-8516620D02*
G75*
G03*
X8076600Y-8516620I-37500J0D01*
G01*
X8330600Y-3182620D02*
G75*
G03*
X8330600Y-3182620I-37500J0D01*
G01*
X8330600Y-3436620D02*
G75*
G03*
X8330600Y-3436620I-37500J0D01*
G01*
X8330600Y-8262620D02*
G75*
G03*
X8330600Y-8262620I-37500J0D01*
G01*
X8330600Y-8516620D02*
G75*
G03*
X8330600Y-8516620I-37500J0D01*
G01*
X8584600Y-3182620D02*
G75*
G03*
X8584600Y-3182620I-37500J0D01*
G01*
X8584600Y-3436620D02*
G75*
G03*
X8584600Y-3436620I-37500J0D01*
G01*
X8584600Y-8262620D02*
G75*
G03*
X8584600Y-8262620I-37500J0D01*
G01*
X8584600Y-8516620D02*
G75*
G03*
X8584600Y-8516620I-37500J0D01*
G01*
X9092600Y-3182620D02*
G75*
G03*
X9092600Y-3182620I-37500J0D01*
G01*
X9092600Y-3436620D02*
G75*
G03*
X9092600Y-3436620I-37500J0D01*
G01*
X9092600Y-8262620D02*
G75*
G03*
X9092600Y-8262620I-37500J0D01*
G01*
X9092600Y-8516620D02*
G75*
G03*
X9092600Y-8516620I-37500J0D01*
G01*
X9346600Y-3182620D02*
G75*
G03*
X9346600Y-3182620I-37500J0D01*
G01*
X9346600Y-3436620D02*
G75*
G03*
X9346600Y-3436620I-37500J0D01*
G01*
X9346600Y-8262620D02*
G75*
G03*
X9346600Y-8262620I-37500J0D01*
G01*
X9346600Y-8516620D02*
G75*
G03*
X9346600Y-8516620I-37500J0D01*
G01*
X9600600Y-3182620D02*
G75*
G03*
X9600600Y-3182620I-37500J0D01*
G01*
X9600600Y-3436620D02*
G75*
G03*
X9600600Y-3436620I-37500J0D01*
G01*
X9600600Y-8262620D02*
G75*
G03*
X9600600Y-8262620I-37500J0D01*
G01*
X9600600Y-8516620D02*
G75*
G03*
X9600600Y-8516620I-37500J0D01*
G01*
X9854600Y-3182620D02*
G75*
G03*
X9854600Y-3182620I-37500J0D01*
G01*
X9854600Y-3436620D02*
G75*
G03*
X9854600Y-3436620I-37500J0D01*
G01*
X9854600Y-8262620D02*
G75*
G03*
X9854600Y-8262620I-37500J0D01*
G01*
X9854600Y-8516620D02*
G75*
G03*
X9854600Y-8516620I-37500J0D01*
G01*
X10362600Y-3182620D02*
G75*
G03*
X10362600Y-3182620I-37500J0D01*
G01*
X10362600Y-3436620D02*
G75*
G03*
X10362600Y-3436620I-37500J0D01*
G01*
X10362600Y-8262620D02*
G75*
G03*
X10362600Y-8262620I-37500J0D01*
G01*
X10362600Y-8516620D02*
G75*
G03*
X10362600Y-8516620I-37500J0D01*
G01*
X10616600Y-3182620D02*
G75*
G03*
X10616600Y-3182620I-37500J0D01*
G01*
X10616600Y-3436620D02*
G75*
G03*
X10616600Y-3436620I-37500J0D01*
G01*
X10616600Y-8262620D02*
G75*
G03*
X10616600Y-8262620I-37500J0D01*
G01*
X10616600Y-8516620D02*
G75*
G03*
X10616600Y-8516620I-37500J0D01*
G01*
X10870600Y-3182620D02*
G75*
G03*
X10870600Y-3182620I-37500J0D01*
G01*
X10870600Y-3436620D02*
G75*
G03*
X10870600Y-3436620I-37500J0D01*
G01*
X10870600Y-8262620D02*
G75*
G03*
X10870600Y-8262620I-37500J0D01*
G01*
X10870600Y-8516620D02*
G75*
G03*
X10870600Y-8516620I-37500J0D01*
G01*
X11124600Y-3182620D02*
G75*
G03*
X11124600Y-3182620I-37500J0D01*
G01*
X11124600Y-3436620D02*
G75*
G03*
X11124600Y-3436620I-37500J0D01*
G01*
X11124600Y-8262620D02*
G75*
G03*
X11124600Y-8262620I-37500J0D01*
G01*
X11124600Y-8516620D02*
G75*
G03*
X11124600Y-8516620I-37500J0D01*
G01*
X11632600Y-3182620D02*
G75*
G03*
X11632600Y-3182620I-37500J0D01*
G01*
X11632600Y-3436620D02*
G75*
G03*
X11632600Y-3436620I-37500J0D01*
G01*
X11632600Y-8262620D02*
G75*
G03*
X11632600Y-8262620I-37500J0D01*
G01*
X11632600Y-8516620D02*
G75*
G03*
X11632600Y-8516620I-37500J0D01*
G01*
X11886600Y-3182620D02*
G75*
G03*
X11886600Y-3182620I-37500J0D01*
G01*
X11886600Y-3436620D02*
G75*
G03*
X11886600Y-3436620I-37500J0D01*
G01*
X11886600Y-8262620D02*
G75*
G03*
X11886600Y-8262620I-37500J0D01*
G01*
X11886600Y-8516620D02*
G75*
G03*
X11886600Y-8516620I-37500J0D01*
G01*
X12140600Y-3182620D02*
G75*
G03*
X12140600Y-3182620I-37500J0D01*
G01*
X12140600Y-3436620D02*
G75*
G03*
X12140600Y-3436620I-37500J0D01*
G01*
X12140600Y-8262620D02*
G75*
G03*
X12140600Y-8262620I-37500J0D01*
G01*
X12140600Y-8516620D02*
G75*
G03*
X12140600Y-8516620I-37500J0D01*
G01*
X12394600Y-3182620D02*
G75*
G03*
X12394600Y-3182620I-37500J0D01*
G01*
X12394600Y-3436620D02*
G75*
G03*
X12394600Y-3436620I-37500J0D01*
G01*
X12394600Y-8262620D02*
G75*
G03*
X12394600Y-8262620I-37500J0D01*
G01*
X12394600Y-8516620D02*
G75*
G03*
X12394600Y-8516620I-37500J0D01*
G01*
X12902600Y-3182620D02*
G75*
G03*
X12902600Y-3182620I-37500J0D01*
G01*
X12902600Y-3436620D02*
G75*
G03*
X12902600Y-3436620I-37500J0D01*
G01*
X12902600Y-8262620D02*
G75*
G03*
X12902600Y-8262620I-37500J0D01*
G01*
X12902600Y-8516620D02*
G75*
G03*
X12902600Y-8516620I-37500J0D01*
G01*
X13156600Y-3182620D02*
G75*
G03*
X13156600Y-3182620I-37500J0D01*
G01*
X13156600Y-3436620D02*
G75*
G03*
X13156600Y-3436620I-37500J0D01*
G01*
X13156600Y-8262620D02*
G75*
G03*
X13156600Y-8262620I-37500J0D01*
G01*
X13156600Y-8516620D02*
G75*
G03*
X13156600Y-8516620I-37500J0D01*
G01*
X13410600Y-3182620D02*
G75*
G03*
X13410600Y-3182620I-37500J0D01*
G01*
X13410600Y-3436620D02*
G75*
G03*
X13410600Y-3436620I-37500J0D01*
G01*
X13410600Y-8262620D02*
G75*
G03*
X13410600Y-8262620I-37500J0D01*
G01*
X13410600Y-8516620D02*
G75*
G03*
X13410600Y-8516620I-37500J0D01*
G01*
X13664600Y-3182620D02*
G75*
G03*
X13664600Y-3182620I-37500J0D01*
G01*
X13664600Y-3436620D02*
G75*
G03*
X13664600Y-3436620I-37500J0D01*
G01*
X13664600Y-8262620D02*
G75*
G03*
X13664600Y-8262620I-37500J0D01*
G01*
X13664600Y-8516620D02*
G75*
G03*
X13664600Y-8516620I-37500J0D01*
G01*
D14*
X6515100Y-3896120D02*
X6515100Y-3996120D01*
X6465100Y-3946120D02*
X6565100Y-3946120D01*
X6515100Y-4150120D02*
X6515100Y-4250120D01*
X6465100Y-4200120D02*
X6565100Y-4200120D01*
X6515100Y-4404120D02*
X6515100Y-4504120D01*
X6465100Y-4454120D02*
X6565100Y-4454120D01*
X6515100Y-4658120D02*
X6515100Y-4758120D01*
X6465100Y-4708120D02*
X6565100Y-4708120D01*
X6515100Y-4912120D02*
X6515100Y-5012120D01*
X6465100Y-4962120D02*
X6565100Y-4962120D01*
X6515100Y-5166120D02*
X6515100Y-5266120D01*
X6465100Y-5216120D02*
X6565100Y-5216120D01*
X6515100Y-5420120D02*
X6515100Y-5520120D01*
X6465100Y-5470120D02*
X6565100Y-5470120D01*
X6515100Y-5674120D02*
X6515100Y-5774120D01*
X6465100Y-5724120D02*
X6565100Y-5724120D01*
X6515100Y-5928120D02*
X6515100Y-6028120D01*
X6465100Y-5978120D02*
X6565100Y-5978120D01*
X6515100Y-6182120D02*
X6515100Y-6282120D01*
X6465100Y-6232120D02*
X6565100Y-6232120D01*
X6515100Y-6436120D02*
X6515100Y-6536120D01*
X6465100Y-6486120D02*
X6565100Y-6486120D01*
X6515100Y-6690120D02*
X6515100Y-6790120D01*
X6465100Y-6740120D02*
X6565100Y-6740120D01*
X6515100Y-6944120D02*
X6515100Y-7044120D01*
X6465100Y-6994120D02*
X6565100Y-6994120D01*
X6515100Y-7198120D02*
X6515100Y-7298120D01*
X6465100Y-7248120D02*
X6565100Y-7248120D01*
X6515100Y-7452120D02*
X6515100Y-7552120D01*
X6465100Y-7502120D02*
X6565100Y-7502120D01*
X6515100Y-7706120D02*
X6515100Y-7806120D01*
X6465100Y-7756120D02*
X6565100Y-7756120D01*
X6769100Y-3896120D02*
X6769100Y-3996120D01*
X6719100Y-3946120D02*
X6819100Y-3946120D01*
X6769100Y-4150120D02*
X6769100Y-4250120D01*
X6719100Y-4200120D02*
X6819100Y-4200120D01*
X6769100Y-4404120D02*
X6769100Y-4504120D01*
X6719100Y-4454120D02*
X6819100Y-4454120D01*
X6769100Y-4658120D02*
X6769100Y-4758120D01*
X6719100Y-4708120D02*
X6819100Y-4708120D01*
X6769100Y-4912120D02*
X6769100Y-5012120D01*
X6719100Y-4962120D02*
X6819100Y-4962120D01*
X6769100Y-5166120D02*
X6769100Y-5266120D01*
X6719100Y-5216120D02*
X6819100Y-5216120D01*
X6769100Y-5420120D02*
X6769100Y-5520120D01*
X6719100Y-5470120D02*
X6819100Y-5470120D01*
X6769100Y-5674120D02*
X6769100Y-5774120D01*
X6719100Y-5724120D02*
X6819100Y-5724120D01*
X6769100Y-5928120D02*
X6769100Y-6028120D01*
X6719100Y-5978120D02*
X6819100Y-5978120D01*
X6769100Y-6182120D02*
X6769100Y-6282120D01*
X6719100Y-6232120D02*
X6819100Y-6232120D01*
X6769100Y-6436120D02*
X6769100Y-6536120D01*
X6719100Y-6486120D02*
X6819100Y-6486120D01*
X6769100Y-6690120D02*
X6769100Y-6790120D01*
X6719100Y-6740120D02*
X6819100Y-6740120D01*
X6769100Y-6944120D02*
X6769100Y-7044120D01*
X6719100Y-6994120D02*
X6819100Y-6994120D01*
X6769100Y-7198120D02*
X6769100Y-7298120D01*
X6719100Y-7248120D02*
X6819100Y-7248120D01*
X6769100Y-7452120D02*
X6769100Y-7552120D01*
X6719100Y-7502120D02*
X6819100Y-7502120D01*
X6769100Y-7706120D02*
X6769100Y-7806120D01*
X6719100Y-7756120D02*
X6819100Y-7756120D01*
X7023100Y-3896120D02*
X7023100Y-3996120D01*
X6973100Y-3946120D02*
X7073100Y-3946120D01*
X7023100Y-4150120D02*
X7023100Y-4250120D01*
X6973100Y-4200120D02*
X7073100Y-4200120D01*
X7023100Y-4404120D02*
X7023100Y-4504120D01*
X6973100Y-4454120D02*
X7073100Y-4454120D01*
X7023100Y-4658120D02*
X7023100Y-4758120D01*
X6973100Y-4708120D02*
X7073100Y-4708120D01*
X7023100Y-4912120D02*
X7023100Y-5012120D01*
X6973100Y-4962120D02*
X7073100Y-4962120D01*
X7023100Y-5166120D02*
X7023100Y-5266120D01*
X6973100Y-5216120D02*
X7073100Y-5216120D01*
X7023100Y-5420120D02*
X7023100Y-5520120D01*
X6973100Y-5470120D02*
X7073100Y-5470120D01*
X7023100Y-5674120D02*
X7023100Y-5774120D01*
X6973100Y-5724120D02*
X7073100Y-5724120D01*
X7023100Y-5928120D02*
X7023100Y-6028120D01*
X6973100Y-5978120D02*
X7073100Y-5978120D01*
X7023100Y-6182120D02*
X7023100Y-6282120D01*
X6973100Y-6232120D02*
X7073100Y-6232120D01*
X7023100Y-6436120D02*
X7023100Y-6536120D01*
X6973100Y-6486120D02*
X7073100Y-6486120D01*
X7023100Y-6690120D02*
X7023100Y-6790120D01*
X6973100Y-6740120D02*
X7073100Y-6740120D01*
X7023100Y-6944120D02*
X7023100Y-7044120D01*
X6973100Y-6994120D02*
X7073100Y-6994120D01*
X7023100Y-7198120D02*
X7023100Y-7298120D01*
X6973100Y-7248120D02*
X7073100Y-7248120D01*
X7023100Y-7452120D02*
X7023100Y-7552120D01*
X6973100Y-7502120D02*
X7073100Y-7502120D01*
X7023100Y-7706120D02*
X7023100Y-7806120D01*
X6973100Y-7756120D02*
X7073100Y-7756120D01*
X7277100Y-3896120D02*
X7277100Y-3996120D01*
X7227100Y-3946120D02*
X7327100Y-3946120D01*
X7277100Y-4150120D02*
X7277100Y-4250120D01*
X7227100Y-4200120D02*
X7327100Y-4200120D01*
X7277100Y-4404120D02*
X7277100Y-4504120D01*
X7227100Y-4454120D02*
X7327100Y-4454120D01*
X7277100Y-4658120D02*
X7277100Y-4758120D01*
X7227100Y-4708120D02*
X7327100Y-4708120D01*
X7277100Y-4912120D02*
X7277100Y-5012120D01*
X7227100Y-4962120D02*
X7327100Y-4962120D01*
X7277100Y-5166120D02*
X7277100Y-5266120D01*
X7227100Y-5216120D02*
X7327100Y-5216120D01*
X7277100Y-5420120D02*
X7277100Y-5520120D01*
X7227100Y-5470120D02*
X7327100Y-5470120D01*
X7277100Y-5674120D02*
X7277100Y-5774120D01*
X7227100Y-5724120D02*
X7327100Y-5724120D01*
X7277100Y-5928120D02*
X7277100Y-6028120D01*
X7227100Y-5978120D02*
X7327100Y-5978120D01*
X7277100Y-6182120D02*
X7277100Y-6282120D01*
X7227100Y-6232120D02*
X7327100Y-6232120D01*
X7277100Y-6436120D02*
X7277100Y-6536120D01*
X7227100Y-6486120D02*
X7327100Y-6486120D01*
X7277100Y-6690120D02*
X7277100Y-6790120D01*
X7227100Y-6740120D02*
X7327100Y-6740120D01*
X7277100Y-6944120D02*
X7277100Y-7044120D01*
X7227100Y-6994120D02*
X7327100Y-6994120D01*
X7277100Y-7198120D02*
X7277100Y-7298120D01*
X7227100Y-7248120D02*
X7327100Y-7248120D01*
X7277100Y-7452120D02*
X7277100Y-7552120D01*
X7227100Y-7502120D02*
X7327100Y-7502120D01*
X7277100Y-7706120D02*
X7277100Y-7806120D01*
X7227100Y-7756120D02*
X7327100Y-7756120D01*
X7531100Y-3896120D02*
X7531100Y-3996120D01*
X7481100Y-3946120D02*
X7581100Y-3946120D01*
X7531100Y-4150120D02*
X7531100Y-4250120D01*
X7481100Y-4200120D02*
X7581100Y-4200120D01*
X7531100Y-4404120D02*
X7531100Y-4504120D01*
X7481100Y-4454120D02*
X7581100Y-4454120D01*
X7531100Y-4658120D02*
X7531100Y-4758120D01*
X7481100Y-4708120D02*
X7581100Y-4708120D01*
X7531100Y-4912120D02*
X7531100Y-5012120D01*
X7481100Y-4962120D02*
X7581100Y-4962120D01*
X7531100Y-5166120D02*
X7531100Y-5266120D01*
X7481100Y-5216120D02*
X7581100Y-5216120D01*
X7531100Y-5420120D02*
X7531100Y-5520120D01*
X7481100Y-5470120D02*
X7581100Y-5470120D01*
X7531100Y-5674120D02*
X7531100Y-5774120D01*
X7481100Y-5724120D02*
X7581100Y-5724120D01*
X7531100Y-5928120D02*
X7531100Y-6028120D01*
X7481100Y-5978120D02*
X7581100Y-5978120D01*
X7531100Y-6182120D02*
X7531100Y-6282120D01*
X7481100Y-6232120D02*
X7581100Y-6232120D01*
X7531100Y-6436120D02*
X7531100Y-6536120D01*
X7481100Y-6486120D02*
X7581100Y-6486120D01*
X7531100Y-6690120D02*
X7531100Y-6790120D01*
X7481100Y-6740120D02*
X7581100Y-6740120D01*
X7531100Y-6944120D02*
X7531100Y-7044120D01*
X7481100Y-6994120D02*
X7581100Y-6994120D01*
X7531100Y-7198120D02*
X7531100Y-7298120D01*
X7481100Y-7248120D02*
X7581100Y-7248120D01*
X7531100Y-7452120D02*
X7531100Y-7552120D01*
X7481100Y-7502120D02*
X7581100Y-7502120D01*
X7531100Y-7706120D02*
X7531100Y-7806120D01*
X7481100Y-7756120D02*
X7581100Y-7756120D01*
X7785100Y-3896120D02*
X7785100Y-3996120D01*
X7735100Y-3946120D02*
X7835100Y-3946120D01*
X7785100Y-4150120D02*
X7785100Y-4250120D01*
X7735100Y-4200120D02*
X7835100Y-4200120D01*
X7785100Y-4404120D02*
X7785100Y-4504120D01*
X7735100Y-4454120D02*
X7835100Y-4454120D01*
X7785100Y-4658120D02*
X7785100Y-4758120D01*
X7735100Y-4708120D02*
X7835100Y-4708120D01*
X7785100Y-4912120D02*
X7785100Y-5012120D01*
X7735100Y-4962120D02*
X7835100Y-4962120D01*
X7785100Y-5166120D02*
X7785100Y-5266120D01*
X7735100Y-5216120D02*
X7835100Y-5216120D01*
X7785100Y-5420120D02*
X7785100Y-5520120D01*
X7735100Y-5470120D02*
X7835100Y-5470120D01*
X7785100Y-5674120D02*
X7785100Y-5774120D01*
X7735100Y-5724120D02*
X7835100Y-5724120D01*
X7785100Y-5928120D02*
X7785100Y-6028120D01*
X7735100Y-5978120D02*
X7835100Y-5978120D01*
X7785100Y-6182120D02*
X7785100Y-6282120D01*
X7735100Y-6232120D02*
X7835100Y-6232120D01*
X7785100Y-6436120D02*
X7785100Y-6536120D01*
X7735100Y-6486120D02*
X7835100Y-6486120D01*
X7785100Y-6690120D02*
X7785100Y-6790120D01*
X7735100Y-6740120D02*
X7835100Y-6740120D01*
X7785100Y-6944120D02*
X7785100Y-7044120D01*
X7735100Y-6994120D02*
X7835100Y-6994120D01*
X7785100Y-7198120D02*
X7785100Y-7298120D01*
X7735100Y-7248120D02*
X7835100Y-7248120D01*
X7785100Y-7452120D02*
X7785100Y-7552120D01*
X7735100Y-7502120D02*
X7835100Y-7502120D01*
X7785100Y-7706120D02*
X7785100Y-7806120D01*
X7735100Y-7756120D02*
X7835100Y-7756120D01*
X8039100Y-3896120D02*
X8039100Y-3996120D01*
X7989100Y-3946120D02*
X8089100Y-3946120D01*
X8039100Y-4150120D02*
X8039100Y-4250120D01*
X7989100Y-4200120D02*
X8089100Y-4200120D01*
X8039100Y-4404120D02*
X8039100Y-4504120D01*
X7989100Y-4454120D02*
X8089100Y-4454120D01*
X8039100Y-4658120D02*
X8039100Y-4758120D01*
X7989100Y-4708120D02*
X8089100Y-4708120D01*
X8039100Y-4912120D02*
X8039100Y-5012120D01*
X7989100Y-4962120D02*
X8089100Y-4962120D01*
X8039100Y-5166120D02*
X8039100Y-5266120D01*
X7989100Y-5216120D02*
X8089100Y-5216120D01*
X8039100Y-5420120D02*
X8039100Y-5520120D01*
X7989100Y-5470120D02*
X8089100Y-5470120D01*
X8039100Y-5674120D02*
X8039100Y-5774120D01*
X7989100Y-5724120D02*
X8089100Y-5724120D01*
X8039100Y-5928120D02*
X8039100Y-6028120D01*
X7989100Y-5978120D02*
X8089100Y-5978120D01*
X8039100Y-6182120D02*
X8039100Y-6282120D01*
X7989100Y-6232120D02*
X8089100Y-6232120D01*
X8039100Y-6436120D02*
X8039100Y-6536120D01*
X7989100Y-6486120D02*
X8089100Y-6486120D01*
X8039100Y-6690120D02*
X8039100Y-6790120D01*
X7989100Y-6740120D02*
X8089100Y-6740120D01*
X8039100Y-6944120D02*
X8039100Y-7044120D01*
X7989100Y-6994120D02*
X8089100Y-6994120D01*
X8039100Y-7198120D02*
X8039100Y-7298120D01*
X7989100Y-7248120D02*
X8089100Y-7248120D01*
X8039100Y-7452120D02*
X8039100Y-7552120D01*
X7989100Y-7502120D02*
X8089100Y-7502120D01*
X8039100Y-7706120D02*
X8039100Y-7806120D01*
X7989100Y-7756120D02*
X8089100Y-7756120D01*
X8293100Y-3896120D02*
X8293100Y-3996120D01*
X8243100Y-3946120D02*
X8343100Y-3946120D01*
X8293100Y-4150120D02*
X8293100Y-4250120D01*
X8243100Y-4200120D02*
X8343100Y-4200120D01*
X8293100Y-4404120D02*
X8293100Y-4504120D01*
X8243100Y-4454120D02*
X8343100Y-4454120D01*
X8293100Y-4658120D02*
X8293100Y-4758120D01*
X8243100Y-4708120D02*
X8343100Y-4708120D01*
X8293100Y-4912120D02*
X8293100Y-5012120D01*
X8243100Y-4962120D02*
X8343100Y-4962120D01*
X8293100Y-5166120D02*
X8293100Y-5266120D01*
X8243100Y-5216120D02*
X8343100Y-5216120D01*
X8293100Y-5420120D02*
X8293100Y-5520120D01*
X8243100Y-5470120D02*
X8343100Y-5470120D01*
X8293100Y-5674120D02*
X8293100Y-5774120D01*
X8243100Y-5724120D02*
X8343100Y-5724120D01*
X8293100Y-5928120D02*
X8293100Y-6028120D01*
X8243100Y-5978120D02*
X8343100Y-5978120D01*
X8293100Y-6182120D02*
X8293100Y-6282120D01*
X8243100Y-6232120D02*
X8343100Y-6232120D01*
X8293100Y-6436120D02*
X8293100Y-6536120D01*
X8243100Y-6486120D02*
X8343100Y-6486120D01*
X8293100Y-6690120D02*
X8293100Y-6790120D01*
X8243100Y-6740120D02*
X8343100Y-6740120D01*
X8293100Y-6944120D02*
X8293100Y-7044120D01*
X8243100Y-6994120D02*
X8343100Y-6994120D01*
X8293100Y-7198120D02*
X8293100Y-7298120D01*
X8243100Y-7248120D02*
X8343100Y-7248120D01*
X8293100Y-7452120D02*
X8293100Y-7552120D01*
X8243100Y-7502120D02*
X8343100Y-7502120D01*
X8293100Y-7706120D02*
X8293100Y-7806120D01*
X8243100Y-7756120D02*
X8343100Y-7756120D01*
X8547100Y-3896120D02*
X8547100Y-3996120D01*
X8497100Y-3946120D02*
X8597100Y-3946120D01*
X8547100Y-4150120D02*
X8547100Y-4250120D01*
X8497100Y-4200120D02*
X8597100Y-4200120D01*
X8547100Y-4404120D02*
X8547100Y-4504120D01*
X8497100Y-4454120D02*
X8597100Y-4454120D01*
X8547100Y-4658120D02*
X8547100Y-4758120D01*
X8497100Y-4708120D02*
X8597100Y-4708120D01*
X8547100Y-4912120D02*
X8547100Y-5012120D01*
X8497100Y-4962120D02*
X8597100Y-4962120D01*
X8547100Y-5166120D02*
X8547100Y-5266120D01*
X8497100Y-5216120D02*
X8597100Y-5216120D01*
X8547100Y-5420120D02*
X8547100Y-5520120D01*
X8497100Y-5470120D02*
X8597100Y-5470120D01*
X8547100Y-5674120D02*
X8547100Y-5774120D01*
X8497100Y-5724120D02*
X8597100Y-5724120D01*
X8547100Y-5928120D02*
X8547100Y-6028120D01*
X8497100Y-5978120D02*
X8597100Y-5978120D01*
X8547100Y-6182120D02*
X8547100Y-6282120D01*
X8497100Y-6232120D02*
X8597100Y-6232120D01*
X8547100Y-6436120D02*
X8547100Y-6536120D01*
X8497100Y-6486120D02*
X8597100Y-6486120D01*
X8547100Y-6690120D02*
X8547100Y-6790120D01*
X8497100Y-6740120D02*
X8597100Y-6740120D01*
X8547100Y-6944120D02*
X8547100Y-7044120D01*
X8497100Y-6994120D02*
X8597100Y-6994120D01*
X8547100Y-7198120D02*
X8547100Y-7298120D01*
X8497100Y-7248120D02*
X8597100Y-7248120D01*
X8547100Y-7452120D02*
X8547100Y-7552120D01*
X8497100Y-7502120D02*
X8597100Y-7502120D01*
X8547100Y-7706120D02*
X8547100Y-7806120D01*
X8497100Y-7756120D02*
X8597100Y-7756120D01*
X8801100Y-3896120D02*
X8801100Y-3996120D01*
X8751100Y-3946120D02*
X8851100Y-3946120D01*
X8801100Y-4150120D02*
X8801100Y-4250120D01*
X8751100Y-4200120D02*
X8851100Y-4200120D01*
X8801100Y-4404120D02*
X8801100Y-4504120D01*
X8751100Y-4454120D02*
X8851100Y-4454120D01*
X8801100Y-4658120D02*
X8801100Y-4758120D01*
X8751100Y-4708120D02*
X8851100Y-4708120D01*
X8801100Y-4912120D02*
X8801100Y-5012120D01*
X8751100Y-4962120D02*
X8851100Y-4962120D01*
X8801100Y-5166120D02*
X8801100Y-5266120D01*
X8751100Y-5216120D02*
X8851100Y-5216120D01*
X8801100Y-5420120D02*
X8801100Y-5520120D01*
X8751100Y-5470120D02*
X8851100Y-5470120D01*
X8801100Y-5674120D02*
X8801100Y-5774120D01*
X8751100Y-5724120D02*
X8851100Y-5724120D01*
X8801100Y-5928120D02*
X8801100Y-6028120D01*
X8751100Y-5978120D02*
X8851100Y-5978120D01*
X8801100Y-6182120D02*
X8801100Y-6282120D01*
X8751100Y-6232120D02*
X8851100Y-6232120D01*
X8801100Y-6436120D02*
X8801100Y-6536120D01*
X8751100Y-6486120D02*
X8851100Y-6486120D01*
X8801100Y-6690120D02*
X8801100Y-6790120D01*
X8751100Y-6740120D02*
X8851100Y-6740120D01*
X8801100Y-6944120D02*
X8801100Y-7044120D01*
X8751100Y-6994120D02*
X8851100Y-6994120D01*
X8801100Y-7198120D02*
X8801100Y-7298120D01*
X8751100Y-7248120D02*
X8851100Y-7248120D01*
X8801100Y-7452120D02*
X8801100Y-7552120D01*
X8751100Y-7502120D02*
X8851100Y-7502120D01*
X8801100Y-7706120D02*
X8801100Y-7806120D01*
X8751100Y-7756120D02*
X8851100Y-7756120D01*
X9055100Y-3896120D02*
X9055100Y-3996120D01*
X9005100Y-3946120D02*
X9105100Y-3946120D01*
X9055100Y-4150120D02*
X9055100Y-4250120D01*
X9005100Y-4200120D02*
X9105100Y-4200120D01*
X9055100Y-4404120D02*
X9055100Y-4504120D01*
X9005100Y-4454120D02*
X9105100Y-4454120D01*
X9055100Y-4658120D02*
X9055100Y-4758120D01*
X9005100Y-4708120D02*
X9105100Y-4708120D01*
X9055100Y-4912120D02*
X9055100Y-5012120D01*
X9005100Y-4962120D02*
X9105100Y-4962120D01*
X9055100Y-5166120D02*
X9055100Y-5266120D01*
X9005100Y-5216120D02*
X9105100Y-5216120D01*
X9055100Y-5420120D02*
X9055100Y-5520120D01*
X9005100Y-5470120D02*
X9105100Y-5470120D01*
X9055100Y-5674120D02*
X9055100Y-5774120D01*
X9005100Y-5724120D02*
X9105100Y-5724120D01*
X9055100Y-5928120D02*
X9055100Y-6028120D01*
X9005100Y-5978120D02*
X9105100Y-5978120D01*
X9055100Y-6182120D02*
X9055100Y-6282120D01*
X9005100Y-6232120D02*
X9105100Y-6232120D01*
X9055100Y-6436120D02*
X9055100Y-6536120D01*
X9005100Y-6486120D02*
X9105100Y-6486120D01*
X9055100Y-6690120D02*
X9055100Y-6790120D01*
X9005100Y-6740120D02*
X9105100Y-6740120D01*
X9055100Y-6944120D02*
X9055100Y-7044120D01*
X9005100Y-6994120D02*
X9105100Y-6994120D01*
X9055100Y-7198120D02*
X9055100Y-7298120D01*
X9005100Y-7248120D02*
X9105100Y-7248120D01*
X9055100Y-7452120D02*
X9055100Y-7552120D01*
X9005100Y-7502120D02*
X9105100Y-7502120D01*
X9055100Y-7706120D02*
X9055100Y-7806120D01*
X9005100Y-7756120D02*
X9105100Y-7756120D01*
X9309100Y-3896120D02*
X9309100Y-3996120D01*
X9259100Y-3946120D02*
X9359100Y-3946120D01*
X9309100Y-4150120D02*
X9309100Y-4250120D01*
X9259100Y-4200120D02*
X9359100Y-4200120D01*
X9309100Y-4404120D02*
X9309100Y-4504120D01*
X9259100Y-4454120D02*
X9359100Y-4454120D01*
X9309100Y-4658120D02*
X9309100Y-4758120D01*
X9259100Y-4708120D02*
X9359100Y-4708120D01*
X9309100Y-4912120D02*
X9309100Y-5012120D01*
X9259100Y-4962120D02*
X9359100Y-4962120D01*
X9309100Y-5166120D02*
X9309100Y-5266120D01*
X9259100Y-5216120D02*
X9359100Y-5216120D01*
X9309100Y-5420120D02*
X9309100Y-5520120D01*
X9259100Y-5470120D02*
X9359100Y-5470120D01*
X9309100Y-5674120D02*
X9309100Y-5774120D01*
X9259100Y-5724120D02*
X9359100Y-5724120D01*
X9309100Y-5928120D02*
X9309100Y-6028120D01*
X9259100Y-5978120D02*
X9359100Y-5978120D01*
X9309100Y-6182120D02*
X9309100Y-6282120D01*
X9259100Y-6232120D02*
X9359100Y-6232120D01*
X9309100Y-6436120D02*
X9309100Y-6536120D01*
X9259100Y-6486120D02*
X9359100Y-6486120D01*
X9309100Y-6690120D02*
X9309100Y-6790120D01*
X9259100Y-6740120D02*
X9359100Y-6740120D01*
X9309100Y-6944120D02*
X9309100Y-7044120D01*
X9259100Y-6994120D02*
X9359100Y-6994120D01*
X9309100Y-7198120D02*
X9309100Y-7298120D01*
X9259100Y-7248120D02*
X9359100Y-7248120D01*
X9309100Y-7452120D02*
X9309100Y-7552120D01*
X9259100Y-7502120D02*
X9359100Y-7502120D01*
X9309100Y-7706120D02*
X9309100Y-7806120D01*
X9259100Y-7756120D02*
X9359100Y-7756120D01*
X9563100Y-3896120D02*
X9563100Y-3996120D01*
X9513100Y-3946120D02*
X9613100Y-3946120D01*
X9563100Y-4150120D02*
X9563100Y-4250120D01*
X9513100Y-4200120D02*
X9613100Y-4200120D01*
X9563100Y-4404120D02*
X9563100Y-4504120D01*
X9513100Y-4454120D02*
X9613100Y-4454120D01*
X9563100Y-4658120D02*
X9563100Y-4758120D01*
X9513100Y-4708120D02*
X9613100Y-4708120D01*
X9563100Y-4912120D02*
X9563100Y-5012120D01*
X9513100Y-4962120D02*
X9613100Y-4962120D01*
X9563100Y-5166120D02*
X9563100Y-5266120D01*
X9513100Y-5216120D02*
X9613100Y-5216120D01*
X9563100Y-5420120D02*
X9563100Y-5520120D01*
X9513100Y-5470120D02*
X9613100Y-5470120D01*
X9563100Y-5674120D02*
X9563100Y-5774120D01*
X9513100Y-5724120D02*
X9613100Y-5724120D01*
X9563100Y-5928120D02*
X9563100Y-6028120D01*
X9513100Y-5978120D02*
X9613100Y-5978120D01*
X9563100Y-6182120D02*
X9563100Y-6282120D01*
X9513100Y-6232120D02*
X9613100Y-6232120D01*
X9563100Y-6436120D02*
X9563100Y-6536120D01*
X9513100Y-6486120D02*
X9613100Y-6486120D01*
X9563100Y-6690120D02*
X9563100Y-6790120D01*
X9513100Y-6740120D02*
X9613100Y-6740120D01*
X9563100Y-6944120D02*
X9563100Y-7044120D01*
X9513100Y-6994120D02*
X9613100Y-6994120D01*
X9563100Y-7198120D02*
X9563100Y-7298120D01*
X9513100Y-7248120D02*
X9613100Y-7248120D01*
X9563100Y-7452120D02*
X9563100Y-7552120D01*
X9513100Y-7502120D02*
X9613100Y-7502120D01*
X9563100Y-7706120D02*
X9563100Y-7806120D01*
X9513100Y-7756120D02*
X9613100Y-7756120D01*
X9817100Y-3896120D02*
X9817100Y-3996120D01*
X9767100Y-3946120D02*
X9867100Y-3946120D01*
X9817100Y-4150120D02*
X9817100Y-4250120D01*
X9767100Y-4200120D02*
X9867100Y-4200120D01*
X9817100Y-4404120D02*
X9817100Y-4504120D01*
X9767100Y-4454120D02*
X9867100Y-4454120D01*
X9817100Y-4658120D02*
X9817100Y-4758120D01*
X9767100Y-4708120D02*
X9867100Y-4708120D01*
X9817100Y-4912120D02*
X9817100Y-5012120D01*
X9767100Y-4962120D02*
X9867100Y-4962120D01*
X9817100Y-5166120D02*
X9817100Y-5266120D01*
X9767100Y-5216120D02*
X9867100Y-5216120D01*
X9817100Y-5420120D02*
X9817100Y-5520120D01*
X9767100Y-5470120D02*
X9867100Y-5470120D01*
X9817100Y-5674120D02*
X9817100Y-5774120D01*
X9767100Y-5724120D02*
X9867100Y-5724120D01*
X9817100Y-5928120D02*
X9817100Y-6028120D01*
X9767100Y-5978120D02*
X9867100Y-5978120D01*
X9817100Y-6182120D02*
X9817100Y-6282120D01*
X9767100Y-6232120D02*
X9867100Y-6232120D01*
X9817100Y-6436120D02*
X9817100Y-6536120D01*
X9767100Y-6486120D02*
X9867100Y-6486120D01*
X9817100Y-6690120D02*
X9817100Y-6790120D01*
X9767100Y-6740120D02*
X9867100Y-6740120D01*
X9817100Y-6944120D02*
X9817100Y-7044120D01*
X9767100Y-6994120D02*
X9867100Y-6994120D01*
X9817100Y-7198120D02*
X9817100Y-7298120D01*
X9767100Y-7248120D02*
X9867100Y-7248120D01*
X9817100Y-7452120D02*
X9817100Y-7552120D01*
X9767100Y-7502120D02*
X9867100Y-7502120D01*
X9817100Y-7706120D02*
X9817100Y-7806120D01*
X9767100Y-7756120D02*
X9867100Y-7756120D01*
X10071100Y-3896120D02*
X10071100Y-3996120D01*
X10021100Y-3946120D02*
X10121100Y-3946120D01*
X10071100Y-4150120D02*
X10071100Y-4250120D01*
X10021100Y-4200120D02*
X10121100Y-4200120D01*
X10071100Y-4404120D02*
X10071100Y-4504120D01*
X10021100Y-4454120D02*
X10121100Y-4454120D01*
X10071100Y-4658120D02*
X10071100Y-4758120D01*
X10021100Y-4708120D02*
X10121100Y-4708120D01*
X10071100Y-4912120D02*
X10071100Y-5012120D01*
X10021100Y-4962120D02*
X10121100Y-4962120D01*
X10071100Y-5166120D02*
X10071100Y-5266120D01*
X10021100Y-5216120D02*
X10121100Y-5216120D01*
X10071100Y-5420120D02*
X10071100Y-5520120D01*
X10021100Y-5470120D02*
X10121100Y-5470120D01*
X10071100Y-5674120D02*
X10071100Y-5774120D01*
X10021100Y-5724120D02*
X10121100Y-5724120D01*
X10071100Y-5928120D02*
X10071100Y-6028120D01*
X10021100Y-5978120D02*
X10121100Y-5978120D01*
X10071100Y-6182120D02*
X10071100Y-6282120D01*
X10021100Y-6232120D02*
X10121100Y-6232120D01*
X10071100Y-6436120D02*
X10071100Y-6536120D01*
X10021100Y-6486120D02*
X10121100Y-6486120D01*
X10071100Y-6690120D02*
X10071100Y-6790120D01*
X10021100Y-6740120D02*
X10121100Y-6740120D01*
X10071100Y-6944120D02*
X10071100Y-7044120D01*
X10021100Y-6994120D02*
X10121100Y-6994120D01*
X10071100Y-7198120D02*
X10071100Y-7298120D01*
X10021100Y-7248120D02*
X10121100Y-7248120D01*
X10071100Y-7452120D02*
X10071100Y-7552120D01*
X10021100Y-7502120D02*
X10121100Y-7502120D01*
X10071100Y-7706120D02*
X10071100Y-7806120D01*
X10021100Y-7756120D02*
X10121100Y-7756120D01*
X10325100Y-3896120D02*
X10325100Y-3996120D01*
X10275100Y-3946120D02*
X10375100Y-3946120D01*
X10325100Y-4150120D02*
X10325100Y-4250120D01*
X10275100Y-4200120D02*
X10375100Y-4200120D01*
X10325100Y-4404120D02*
X10325100Y-4504120D01*
X10275100Y-4454120D02*
X10375100Y-4454120D01*
X10325100Y-4658120D02*
X10325100Y-4758120D01*
X10275100Y-4708120D02*
X10375100Y-4708120D01*
X10325100Y-4912120D02*
X10325100Y-5012120D01*
X10275100Y-4962120D02*
X10375100Y-4962120D01*
X10325100Y-5166120D02*
X10325100Y-5266120D01*
X10275100Y-5216120D02*
X10375100Y-5216120D01*
X10325100Y-5420120D02*
X10325100Y-5520120D01*
X10275100Y-5470120D02*
X10375100Y-5470120D01*
X10325100Y-5674120D02*
X10325100Y-5774120D01*
X10275100Y-5724120D02*
X10375100Y-5724120D01*
X10325100Y-5928120D02*
X10325100Y-6028120D01*
X10275100Y-5978120D02*
X10375100Y-5978120D01*
X10325100Y-6182120D02*
X10325100Y-6282120D01*
X10275100Y-6232120D02*
X10375100Y-6232120D01*
X10325100Y-6436120D02*
X10325100Y-6536120D01*
X10275100Y-6486120D02*
X10375100Y-6486120D01*
X10325100Y-6690120D02*
X10325100Y-6790120D01*
X10275100Y-6740120D02*
X10375100Y-6740120D01*
X10325100Y-6944120D02*
X10325100Y-7044120D01*
X10275100Y-6994120D02*
X10375100Y-6994120D01*
X10325100Y-7198120D02*
X10325100Y-7298120D01*
X10275100Y-7248120D02*
X10375100Y-7248120D01*
X10325100Y-7452120D02*
X10325100Y-7552120D01*
X10275100Y-7502120D02*
X10375100Y-7502120D01*
X10325100Y-7706120D02*
X10325100Y-7806120D01*
X10275100Y-7756120D02*
X10375100Y-7756120D01*
X10579100Y-3896120D02*
X10579100Y-3996120D01*
X10529100Y-3946120D02*
X10629100Y-3946120D01*
X10579100Y-4150120D02*
X10579100Y-4250120D01*
X10529100Y-4200120D02*
X10629100Y-4200120D01*
X10579100Y-4404120D02*
X10579100Y-4504120D01*
X10529100Y-4454120D02*
X10629100Y-4454120D01*
X10579100Y-4658120D02*
X10579100Y-4758120D01*
X10529100Y-4708120D02*
X10629100Y-4708120D01*
X10579100Y-4912120D02*
X10579100Y-5012120D01*
X10529100Y-4962120D02*
X10629100Y-4962120D01*
X10579100Y-5166120D02*
X10579100Y-5266120D01*
X10529100Y-5216120D02*
X10629100Y-5216120D01*
X10579100Y-5420120D02*
X10579100Y-5520120D01*
X10529100Y-5470120D02*
X10629100Y-5470120D01*
X10579100Y-5674120D02*
X10579100Y-5774120D01*
X10529100Y-5724120D02*
X10629100Y-5724120D01*
X10579100Y-5928120D02*
X10579100Y-6028120D01*
X10529100Y-5978120D02*
X10629100Y-5978120D01*
X10579100Y-6182120D02*
X10579100Y-6282120D01*
X10529100Y-6232120D02*
X10629100Y-6232120D01*
X10579100Y-6436120D02*
X10579100Y-6536120D01*
X10529100Y-6486120D02*
X10629100Y-6486120D01*
X10579100Y-6690120D02*
X10579100Y-6790120D01*
X10529100Y-6740120D02*
X10629100Y-6740120D01*
X10579100Y-6944120D02*
X10579100Y-7044120D01*
X10529100Y-6994120D02*
X10629100Y-6994120D01*
X10579100Y-7198120D02*
X10579100Y-7298120D01*
X10529100Y-7248120D02*
X10629100Y-7248120D01*
X10579100Y-7452120D02*
X10579100Y-7552120D01*
X10529100Y-7502120D02*
X10629100Y-7502120D01*
X10579100Y-7706120D02*
X10579100Y-7806120D01*
X10529100Y-7756120D02*
X10629100Y-7756120D01*
X10833100Y-3896120D02*
X10833100Y-3996120D01*
X10783100Y-3946120D02*
X10883100Y-3946120D01*
X10833100Y-4150120D02*
X10833100Y-4250120D01*
X10783100Y-4200120D02*
X10883100Y-4200120D01*
X10833100Y-4404120D02*
X10833100Y-4504120D01*
X10783100Y-4454120D02*
X10883100Y-4454120D01*
X10833100Y-4658120D02*
X10833100Y-4758120D01*
X10783100Y-4708120D02*
X10883100Y-4708120D01*
X10833100Y-4912120D02*
X10833100Y-5012120D01*
X10783100Y-4962120D02*
X10883100Y-4962120D01*
X10833100Y-5166120D02*
X10833100Y-5266120D01*
X10783100Y-5216120D02*
X10883100Y-5216120D01*
X10833100Y-5420120D02*
X10833100Y-5520120D01*
X10783100Y-5470120D02*
X10883100Y-5470120D01*
X10833100Y-5674120D02*
X10833100Y-5774120D01*
X10783100Y-5724120D02*
X10883100Y-5724120D01*
X10833100Y-5928120D02*
X10833100Y-6028120D01*
X10783100Y-5978120D02*
X10883100Y-5978120D01*
X10833100Y-6182120D02*
X10833100Y-6282120D01*
X10783100Y-6232120D02*
X10883100Y-6232120D01*
X10833100Y-6436120D02*
X10833100Y-6536120D01*
X10783100Y-6486120D02*
X10883100Y-6486120D01*
X10833100Y-6690120D02*
X10833100Y-6790120D01*
X10783100Y-6740120D02*
X10883100Y-6740120D01*
X10833100Y-6944120D02*
X10833100Y-7044120D01*
X10783100Y-6994120D02*
X10883100Y-6994120D01*
X10833100Y-7198120D02*
X10833100Y-7298120D01*
X10783100Y-7248120D02*
X10883100Y-7248120D01*
X10833100Y-7452120D02*
X10833100Y-7552120D01*
X10783100Y-7502120D02*
X10883100Y-7502120D01*
X10833100Y-7706120D02*
X10833100Y-7806120D01*
X10783100Y-7756120D02*
X10883100Y-7756120D01*
X11087100Y-3896120D02*
X11087100Y-3996120D01*
X11037100Y-3946120D02*
X11137100Y-3946120D01*
X11087100Y-4150120D02*
X11087100Y-4250120D01*
X11037100Y-4200120D02*
X11137100Y-4200120D01*
X11087100Y-4404120D02*
X11087100Y-4504120D01*
X11037100Y-4454120D02*
X11137100Y-4454120D01*
X11087100Y-4658120D02*
X11087100Y-4758120D01*
X11037100Y-4708120D02*
X11137100Y-4708120D01*
X11087100Y-4912120D02*
X11087100Y-5012120D01*
X11037100Y-4962120D02*
X11137100Y-4962120D01*
X11087100Y-5166120D02*
X11087100Y-5266120D01*
X11037100Y-5216120D02*
X11137100Y-5216120D01*
X11087100Y-5420120D02*
X11087100Y-5520120D01*
X11037100Y-5470120D02*
X11137100Y-5470120D01*
X11087100Y-5674120D02*
X11087100Y-5774120D01*
X11037100Y-5724120D02*
X11137100Y-5724120D01*
X11087100Y-5928120D02*
X11087100Y-6028120D01*
X11037100Y-5978120D02*
X11137100Y-5978120D01*
X11087100Y-6182120D02*
X11087100Y-6282120D01*
X11037100Y-6232120D02*
X11137100Y-6232120D01*
X11087100Y-6436120D02*
X11087100Y-6536120D01*
X11037100Y-6486120D02*
X11137100Y-6486120D01*
X11087100Y-6690120D02*
X11087100Y-6790120D01*
X11037100Y-6740120D02*
X11137100Y-6740120D01*
X11087100Y-6944120D02*
X11087100Y-7044120D01*
X11037100Y-6994120D02*
X11137100Y-6994120D01*
X11087100Y-7198120D02*
X11087100Y-7298120D01*
X11037100Y-7248120D02*
X11137100Y-7248120D01*
X11087100Y-7452120D02*
X11087100Y-7552120D01*
X11037100Y-7502120D02*
X11137100Y-7502120D01*
X11087100Y-7706120D02*
X11087100Y-7806120D01*
X11037100Y-7756120D02*
X11137100Y-7756120D01*
X11341100Y-3896120D02*
X11341100Y-3996120D01*
X11291100Y-3946120D02*
X11391100Y-3946120D01*
X11341100Y-4150120D02*
X11341100Y-4250120D01*
X11291100Y-4200120D02*
X11391100Y-4200120D01*
X11341100Y-4404120D02*
X11341100Y-4504120D01*
X11291100Y-4454120D02*
X11391100Y-4454120D01*
X11341100Y-4658120D02*
X11341100Y-4758120D01*
X11291100Y-4708120D02*
X11391100Y-4708120D01*
X11341100Y-4912120D02*
X11341100Y-5012120D01*
X11291100Y-4962120D02*
X11391100Y-4962120D01*
X11341100Y-5166120D02*
X11341100Y-5266120D01*
X11291100Y-5216120D02*
X11391100Y-5216120D01*
X11341100Y-5420120D02*
X11341100Y-5520120D01*
X11291100Y-5470120D02*
X11391100Y-5470120D01*
X11341100Y-5674120D02*
X11341100Y-5774120D01*
X11291100Y-5724120D02*
X11391100Y-5724120D01*
X11341100Y-5928120D02*
X11341100Y-6028120D01*
X11291100Y-5978120D02*
X11391100Y-5978120D01*
X11341100Y-6182120D02*
X11341100Y-6282120D01*
X11291100Y-6232120D02*
X11391100Y-6232120D01*
X11341100Y-6436120D02*
X11341100Y-6536120D01*
X11291100Y-6486120D02*
X11391100Y-6486120D01*
X11341100Y-6690120D02*
X11341100Y-6790120D01*
X11291100Y-6740120D02*
X11391100Y-6740120D01*
X11341100Y-6944120D02*
X11341100Y-7044120D01*
X11291100Y-6994120D02*
X11391100Y-6994120D01*
X11341100Y-7198120D02*
X11341100Y-7298120D01*
X11291100Y-7248120D02*
X11391100Y-7248120D01*
X11341100Y-7452120D02*
X11341100Y-7552120D01*
X11291100Y-7502120D02*
X11391100Y-7502120D01*
X11341100Y-7706120D02*
X11341100Y-7806120D01*
X11291100Y-7756120D02*
X11391100Y-7756120D01*
X11595100Y-3896120D02*
X11595100Y-3996120D01*
X11545100Y-3946120D02*
X11645100Y-3946120D01*
X11595100Y-4150120D02*
X11595100Y-4250120D01*
X11545100Y-4200120D02*
X11645100Y-4200120D01*
X11595100Y-4404120D02*
X11595100Y-4504120D01*
X11545100Y-4454120D02*
X11645100Y-4454120D01*
X11595100Y-4658120D02*
X11595100Y-4758120D01*
X11545100Y-4708120D02*
X11645100Y-4708120D01*
X11595100Y-4912120D02*
X11595100Y-5012120D01*
X11545100Y-4962120D02*
X11645100Y-4962120D01*
X11595100Y-5166120D02*
X11595100Y-5266120D01*
X11545100Y-5216120D02*
X11645100Y-5216120D01*
X11595100Y-5420120D02*
X11595100Y-5520120D01*
X11545100Y-5470120D02*
X11645100Y-5470120D01*
X11595100Y-5674120D02*
X11595100Y-5774120D01*
X11545100Y-5724120D02*
X11645100Y-5724120D01*
X11595100Y-5928120D02*
X11595100Y-6028120D01*
X11545100Y-5978120D02*
X11645100Y-5978120D01*
X11595100Y-6182120D02*
X11595100Y-6282120D01*
X11545100Y-6232120D02*
X11645100Y-6232120D01*
X11595100Y-6436120D02*
X11595100Y-6536120D01*
X11545100Y-6486120D02*
X11645100Y-6486120D01*
X11595100Y-6690120D02*
X11595100Y-6790120D01*
X11545100Y-6740120D02*
X11645100Y-6740120D01*
X11595100Y-6944120D02*
X11595100Y-7044120D01*
X11545100Y-6994120D02*
X11645100Y-6994120D01*
X11595100Y-7198120D02*
X11595100Y-7298120D01*
X11545100Y-7248120D02*
X11645100Y-7248120D01*
X11595100Y-7452120D02*
X11595100Y-7552120D01*
X11545100Y-7502120D02*
X11645100Y-7502120D01*
X11595100Y-7706120D02*
X11595100Y-7806120D01*
X11545100Y-7756120D02*
X11645100Y-7756120D01*
X11849100Y-3896120D02*
X11849100Y-3996120D01*
X11799100Y-3946120D02*
X11899100Y-3946120D01*
X11849100Y-4150120D02*
X11849100Y-4250120D01*
X11799100Y-4200120D02*
X11899100Y-4200120D01*
X11849100Y-4404120D02*
X11849100Y-4504120D01*
X11799100Y-4454120D02*
X11899100Y-4454120D01*
X11849100Y-4658120D02*
X11849100Y-4758120D01*
X11799100Y-4708120D02*
X11899100Y-4708120D01*
X11849100Y-4912120D02*
X11849100Y-5012120D01*
X11799100Y-4962120D02*
X11899100Y-4962120D01*
X11849100Y-5166120D02*
X11849100Y-5266120D01*
X11799100Y-5216120D02*
X11899100Y-5216120D01*
X11849100Y-5420120D02*
X11849100Y-5520120D01*
X11799100Y-5470120D02*
X11899100Y-5470120D01*
X11849100Y-5674120D02*
X11849100Y-5774120D01*
X11799100Y-5724120D02*
X11899100Y-5724120D01*
X11849100Y-5928120D02*
X11849100Y-6028120D01*
X11799100Y-5978120D02*
X11899100Y-5978120D01*
X11849100Y-6182120D02*
X11849100Y-6282120D01*
X11799100Y-6232120D02*
X11899100Y-6232120D01*
X11849100Y-6436120D02*
X11849100Y-6536120D01*
X11799100Y-6486120D02*
X11899100Y-6486120D01*
X11849100Y-6690120D02*
X11849100Y-6790120D01*
X11799100Y-6740120D02*
X11899100Y-6740120D01*
X11849100Y-6944120D02*
X11849100Y-7044120D01*
X11799100Y-6994120D02*
X11899100Y-6994120D01*
X11849100Y-7198120D02*
X11849100Y-7298120D01*
X11799100Y-7248120D02*
X11899100Y-7248120D01*
X11849100Y-7452120D02*
X11849100Y-7552120D01*
X11799100Y-7502120D02*
X11899100Y-7502120D01*
X11849100Y-7706120D02*
X11849100Y-7806120D01*
X11799100Y-7756120D02*
X11899100Y-7756120D01*
X12103100Y-3896120D02*
X12103100Y-3996120D01*
X12053100Y-3946120D02*
X12153100Y-3946120D01*
X12103100Y-4150120D02*
X12103100Y-4250120D01*
X12053100Y-4200120D02*
X12153100Y-4200120D01*
X12103100Y-4404120D02*
X12103100Y-4504120D01*
X12053100Y-4454120D02*
X12153100Y-4454120D01*
X12103100Y-4658120D02*
X12103100Y-4758120D01*
X12053100Y-4708120D02*
X12153100Y-4708120D01*
X12103100Y-4912120D02*
X12103100Y-5012120D01*
X12053100Y-4962120D02*
X12153100Y-4962120D01*
X12103100Y-5166120D02*
X12103100Y-5266120D01*
X12053100Y-5216120D02*
X12153100Y-5216120D01*
X12103100Y-5420120D02*
X12103100Y-5520120D01*
X12053100Y-5470120D02*
X12153100Y-5470120D01*
X12103100Y-5674120D02*
X12103100Y-5774120D01*
X12053100Y-5724120D02*
X12153100Y-5724120D01*
X12103100Y-5928120D02*
X12103100Y-6028120D01*
X12053100Y-5978120D02*
X12153100Y-5978120D01*
X12103100Y-6182120D02*
X12103100Y-6282120D01*
X12053100Y-6232120D02*
X12153100Y-6232120D01*
X12103100Y-6436120D02*
X12103100Y-6536120D01*
X12053100Y-6486120D02*
X12153100Y-6486120D01*
X12103100Y-6690120D02*
X12103100Y-6790120D01*
X12053100Y-6740120D02*
X12153100Y-6740120D01*
X12103100Y-6944120D02*
X12103100Y-7044120D01*
X12053100Y-6994120D02*
X12153100Y-6994120D01*
X12103100Y-7198120D02*
X12103100Y-7298120D01*
X12053100Y-7248120D02*
X12153100Y-7248120D01*
X12103100Y-7452120D02*
X12103100Y-7552120D01*
X12053100Y-7502120D02*
X12153100Y-7502120D01*
X12103100Y-7706120D02*
X12103100Y-7806120D01*
X12053100Y-7756120D02*
X12153100Y-7756120D01*
X12357100Y-3896120D02*
X12357100Y-3996120D01*
X12307100Y-3946120D02*
X12407100Y-3946120D01*
X12357100Y-4150120D02*
X12357100Y-4250120D01*
X12307100Y-4200120D02*
X12407100Y-4200120D01*
X12357100Y-4404120D02*
X12357100Y-4504120D01*
X12307100Y-4454120D02*
X12407100Y-4454120D01*
X12357100Y-4658120D02*
X12357100Y-4758120D01*
X12307100Y-4708120D02*
X12407100Y-4708120D01*
X12357100Y-4912120D02*
X12357100Y-5012120D01*
X12307100Y-4962120D02*
X12407100Y-4962120D01*
X12357100Y-5166120D02*
X12357100Y-5266120D01*
X12307100Y-5216120D02*
X12407100Y-5216120D01*
X12357100Y-5420120D02*
X12357100Y-5520120D01*
X12307100Y-5470120D02*
X12407100Y-5470120D01*
X12357100Y-5674120D02*
X12357100Y-5774120D01*
X12307100Y-5724120D02*
X12407100Y-5724120D01*
X12357100Y-5928120D02*
X12357100Y-6028120D01*
X12307100Y-5978120D02*
X12407100Y-5978120D01*
X12357100Y-6182120D02*
X12357100Y-6282120D01*
X12307100Y-6232120D02*
X12407100Y-6232120D01*
X12357100Y-6436120D02*
X12357100Y-6536120D01*
X12307100Y-6486120D02*
X12407100Y-6486120D01*
X12357100Y-6690120D02*
X12357100Y-6790120D01*
X12307100Y-6740120D02*
X12407100Y-6740120D01*
X12357100Y-6944120D02*
X12357100Y-7044120D01*
X12307100Y-6994120D02*
X12407100Y-6994120D01*
X12357100Y-7198120D02*
X12357100Y-7298120D01*
X12307100Y-7248120D02*
X12407100Y-7248120D01*
X12357100Y-7452120D02*
X12357100Y-7552120D01*
X12307100Y-7502120D02*
X12407100Y-7502120D01*
X12357100Y-7706120D02*
X12357100Y-7806120D01*
X12307100Y-7756120D02*
X12407100Y-7756120D01*
X12611100Y-3896120D02*
X12611100Y-3996120D01*
X12561100Y-3946120D02*
X12661100Y-3946120D01*
X12611100Y-4150120D02*
X12611100Y-4250120D01*
X12561100Y-4200120D02*
X12661100Y-4200120D01*
X12611100Y-4404120D02*
X12611100Y-4504120D01*
X12561100Y-4454120D02*
X12661100Y-4454120D01*
X12611100Y-4658120D02*
X12611100Y-4758120D01*
X12561100Y-4708120D02*
X12661100Y-4708120D01*
X12611100Y-4912120D02*
X12611100Y-5012120D01*
X12561100Y-4962120D02*
X12661100Y-4962120D01*
X12611100Y-5166120D02*
X12611100Y-5266120D01*
X12561100Y-5216120D02*
X12661100Y-5216120D01*
X12611100Y-5420120D02*
X12611100Y-5520120D01*
X12561100Y-5470120D02*
X12661100Y-5470120D01*
X12611100Y-5674120D02*
X12611100Y-5774120D01*
X12561100Y-5724120D02*
X12661100Y-5724120D01*
X12611100Y-5928120D02*
X12611100Y-6028120D01*
X12561100Y-5978120D02*
X12661100Y-5978120D01*
X12611100Y-6182120D02*
X12611100Y-6282120D01*
X12561100Y-6232120D02*
X12661100Y-6232120D01*
X12611100Y-6436120D02*
X12611100Y-6536120D01*
X12561100Y-6486120D02*
X12661100Y-6486120D01*
X12611100Y-6690120D02*
X12611100Y-6790120D01*
X12561100Y-6740120D02*
X12661100Y-6740120D01*
X12611100Y-6944120D02*
X12611100Y-7044120D01*
X12561100Y-6994120D02*
X12661100Y-6994120D01*
X12611100Y-7198120D02*
X12611100Y-7298120D01*
X12561100Y-7248120D02*
X12661100Y-7248120D01*
X12611100Y-7452120D02*
X12611100Y-7552120D01*
X12561100Y-7502120D02*
X12661100Y-7502120D01*
X12611100Y-7706120D02*
X12611100Y-7806120D01*
X12561100Y-7756120D02*
X12661100Y-7756120D01*
X12865100Y-3896120D02*
X12865100Y-3996120D01*
X12815100Y-3946120D02*
X12915100Y-3946120D01*
X12865100Y-4150120D02*
X12865100Y-4250120D01*
X12815100Y-4200120D02*
X12915100Y-4200120D01*
X12865100Y-4404120D02*
X12865100Y-4504120D01*
X12815100Y-4454120D02*
X12915100Y-4454120D01*
X12865100Y-4658120D02*
X12865100Y-4758120D01*
X12815100Y-4708120D02*
X12915100Y-4708120D01*
X12865100Y-4912120D02*
X12865100Y-5012120D01*
X12815100Y-4962120D02*
X12915100Y-4962120D01*
X12865100Y-5166120D02*
X12865100Y-5266120D01*
X12815100Y-5216120D02*
X12915100Y-5216120D01*
X12865100Y-5420120D02*
X12865100Y-5520120D01*
X12815100Y-5470120D02*
X12915100Y-5470120D01*
X12865100Y-5674120D02*
X12865100Y-5774120D01*
X12815100Y-5724120D02*
X12915100Y-5724120D01*
X12865100Y-5928120D02*
X12865100Y-6028120D01*
X12815100Y-5978120D02*
X12915100Y-5978120D01*
X12865100Y-6182120D02*
X12865100Y-6282120D01*
X12815100Y-6232120D02*
X12915100Y-6232120D01*
X12865100Y-6436120D02*
X12865100Y-6536120D01*
X12815100Y-6486120D02*
X12915100Y-6486120D01*
X12865100Y-6690120D02*
X12865100Y-6790120D01*
X12815100Y-6740120D02*
X12915100Y-6740120D01*
X12865100Y-6944120D02*
X12865100Y-7044120D01*
X12815100Y-6994120D02*
X12915100Y-6994120D01*
X12865100Y-7198120D02*
X12865100Y-7298120D01*
X12815100Y-7248120D02*
X12915100Y-7248120D01*
X12865100Y-7452120D02*
X12865100Y-7552120D01*
X12815100Y-7502120D02*
X12915100Y-7502120D01*
X12865100Y-7706120D02*
X12865100Y-7806120D01*
X12815100Y-7756120D02*
X12915100Y-7756120D01*
X13119100Y-3896120D02*
X13119100Y-3996120D01*
X13069100Y-3946120D02*
X13169100Y-3946120D01*
X13119100Y-4150120D02*
X13119100Y-4250120D01*
X13069100Y-4200120D02*
X13169100Y-4200120D01*
X13119100Y-4404120D02*
X13119100Y-4504120D01*
X13069100Y-4454120D02*
X13169100Y-4454120D01*
X13119100Y-4658120D02*
X13119100Y-4758120D01*
X13069100Y-4708120D02*
X13169100Y-4708120D01*
X13119100Y-4912120D02*
X13119100Y-5012120D01*
X13069100Y-4962120D02*
X13169100Y-4962120D01*
X13119100Y-5166120D02*
X13119100Y-5266120D01*
X13069100Y-5216120D02*
X13169100Y-5216120D01*
X13119100Y-5420120D02*
X13119100Y-5520120D01*
X13069100Y-5470120D02*
X13169100Y-5470120D01*
X13119100Y-5674120D02*
X13119100Y-5774120D01*
X13069100Y-5724120D02*
X13169100Y-5724120D01*
X13119100Y-5928120D02*
X13119100Y-6028120D01*
X13069100Y-5978120D02*
X13169100Y-5978120D01*
X13119100Y-6182120D02*
X13119100Y-6282120D01*
X13069100Y-6232120D02*
X13169100Y-6232120D01*
X13119100Y-6436120D02*
X13119100Y-6536120D01*
X13069100Y-6486120D02*
X13169100Y-6486120D01*
X13119100Y-6690120D02*
X13119100Y-6790120D01*
X13069100Y-6740120D02*
X13169100Y-6740120D01*
X13119100Y-6944120D02*
X13119100Y-7044120D01*
X13069100Y-6994120D02*
X13169100Y-6994120D01*
X13119100Y-7198120D02*
X13119100Y-7298120D01*
X13069100Y-7248120D02*
X13169100Y-7248120D01*
X13119100Y-7452120D02*
X13119100Y-7552120D01*
X13069100Y-7502120D02*
X13169100Y-7502120D01*
X13119100Y-7706120D02*
X13119100Y-7806120D01*
X13069100Y-7756120D02*
X13169100Y-7756120D01*
X13373100Y-3896120D02*
X13373100Y-3996120D01*
X13323100Y-3946120D02*
X13423100Y-3946120D01*
X13373100Y-4150120D02*
X13373100Y-4250120D01*
X13323100Y-4200120D02*
X13423100Y-4200120D01*
X13373100Y-4404120D02*
X13373100Y-4504120D01*
X13323100Y-4454120D02*
X13423100Y-4454120D01*
X13373100Y-4658120D02*
X13373100Y-4758120D01*
X13323100Y-4708120D02*
X13423100Y-4708120D01*
X13373100Y-4912120D02*
X13373100Y-5012120D01*
X13323100Y-4962120D02*
X13423100Y-4962120D01*
X13373100Y-5166120D02*
X13373100Y-5266120D01*
X13323100Y-5216120D02*
X13423100Y-5216120D01*
X13373100Y-5420120D02*
X13373100Y-5520120D01*
X13323100Y-5470120D02*
X13423100Y-5470120D01*
X13373100Y-5674120D02*
X13373100Y-5774120D01*
X13323100Y-5724120D02*
X13423100Y-5724120D01*
X13373100Y-5928120D02*
X13373100Y-6028120D01*
X13323100Y-5978120D02*
X13423100Y-5978120D01*
X13373100Y-6182120D02*
X13373100Y-6282120D01*
X13323100Y-6232120D02*
X13423100Y-6232120D01*
X13373100Y-6436120D02*
X13373100Y-6536120D01*
X13323100Y-6486120D02*
X13423100Y-6486120D01*
X13373100Y-6690120D02*
X13373100Y-6790120D01*
X13323100Y-6740120D02*
X13423100Y-6740120D01*
X13373100Y-6944120D02*
X13373100Y-7044120D01*
X13323100Y-6994120D02*
X13423100Y-6994120D01*
X13373100Y-7198120D02*
X13373100Y-7298120D01*
X13323100Y-7248120D02*
X13423100Y-7248120D01*
X13373100Y-7452120D02*
X13373100Y-7552120D01*
X13323100Y-7502120D02*
X13423100Y-7502120D01*
X13373100Y-7706120D02*
X13373100Y-7806120D01*
X13323100Y-7756120D02*
X13423100Y-7756120D01*
X13627100Y-3896120D02*
X13627100Y-3996120D01*
X13577100Y-3946120D02*
X13677100Y-3946120D01*
X13627100Y-4150120D02*
X13627100Y-4250120D01*
X13577100Y-4200120D02*
X13677100Y-4200120D01*
X13627100Y-4404120D02*
X13627100Y-4504120D01*
X13577100Y-4454120D02*
X13677100Y-4454120D01*
X13627100Y-4658120D02*
X13627100Y-4758120D01*
X13577100Y-4708120D02*
X13677100Y-4708120D01*
X13627100Y-4912120D02*
X13627100Y-5012120D01*
X13577100Y-4962120D02*
X13677100Y-4962120D01*
X13627100Y-5166120D02*
X13627100Y-5266120D01*
X13577100Y-5216120D02*
X13677100Y-5216120D01*
X13627100Y-5420120D02*
X13627100Y-5520120D01*
X13577100Y-5470120D02*
X13677100Y-5470120D01*
X13627100Y-5674120D02*
X13627100Y-5774120D01*
X13577100Y-5724120D02*
X13677100Y-5724120D01*
X13627100Y-5928120D02*
X13627100Y-6028120D01*
X13577100Y-5978120D02*
X13677100Y-5978120D01*
X13627100Y-6182120D02*
X13627100Y-6282120D01*
X13577100Y-6232120D02*
X13677100Y-6232120D01*
X13627100Y-6436120D02*
X13627100Y-6536120D01*
X13577100Y-6486120D02*
X13677100Y-6486120D01*
X13627100Y-6690120D02*
X13627100Y-6790120D01*
X13577100Y-6740120D02*
X13677100Y-6740120D01*
X13627100Y-6944120D02*
X13627100Y-7044120D01*
X13577100Y-6994120D02*
X13677100Y-6994120D01*
X13627100Y-7198120D02*
X13627100Y-7298120D01*
X13577100Y-7248120D02*
X13677100Y-7248120D01*
X13627100Y-7452120D02*
X13627100Y-7552120D01*
X13577100Y-7502120D02*
X13677100Y-7502120D01*
X13627100Y-7706120D02*
X13627100Y-7806120D01*
X13577100Y-7756120D02*
X13677100Y-7756120D01*
X13881100Y-3896120D02*
X13881100Y-3996120D01*
X13831100Y-3946120D02*
X13931100Y-3946120D01*
X13881100Y-4150120D02*
X13881100Y-4250120D01*
X13831100Y-4200120D02*
X13931100Y-4200120D01*
X13881100Y-4404120D02*
X13881100Y-4504120D01*
X13831100Y-4454120D02*
X13931100Y-4454120D01*
X13881100Y-4658120D02*
X13881100Y-4758120D01*
X13831100Y-4708120D02*
X13931100Y-4708120D01*
X13881100Y-4912120D02*
X13881100Y-5012120D01*
X13831100Y-4962120D02*
X13931100Y-4962120D01*
X13881100Y-5166120D02*
X13881100Y-5266120D01*
X13831100Y-5216120D02*
X13931100Y-5216120D01*
X13881100Y-5420120D02*
X13881100Y-5520120D01*
X13831100Y-5470120D02*
X13931100Y-5470120D01*
X13881100Y-5674120D02*
X13881100Y-5774120D01*
X13831100Y-5724120D02*
X13931100Y-5724120D01*
X13881100Y-5928120D02*
X13881100Y-6028120D01*
X13831100Y-5978120D02*
X13931100Y-5978120D01*
X13881100Y-6182120D02*
X13881100Y-6282120D01*
X13831100Y-6232120D02*
X13931100Y-6232120D01*
X13881100Y-6436120D02*
X13881100Y-6536120D01*
X13831100Y-6486120D02*
X13931100Y-6486120D01*
X13881100Y-6690120D02*
X13881100Y-6790120D01*
X13831100Y-6740120D02*
X13931100Y-6740120D01*
X13881100Y-6944120D02*
X13881100Y-7044120D01*
X13831100Y-6994120D02*
X13931100Y-6994120D01*
X13881100Y-7198120D02*
X13881100Y-7298120D01*
X13831100Y-7248120D02*
X13931100Y-7248120D01*
X13881100Y-7452120D02*
X13881100Y-7552120D01*
X13831100Y-7502120D02*
X13931100Y-7502120D01*
X13881100Y-7706120D02*
X13881100Y-7806120D01*
X13831100Y-7756120D02*
X13931100Y-7756120D01*
D11*
X6328877Y-10168684D02*
X6328877Y-9968684D01*
X6328877Y-9968684D02*
X6376496Y-9968684D01*
X6376496Y-9968684D02*
X6405067Y-9978208D01*
X6405067Y-9978208D02*
X6424115Y-9997255D01*
X6424115Y-9997255D02*
X6433639Y-10016303D01*
X6433639Y-10016303D02*
X6443162Y-10054398D01*
X6443162Y-10054398D02*
X6443162Y-10082970D01*
X6443162Y-10082970D02*
X6433639Y-10121065D01*
X6433639Y-10121065D02*
X6424115Y-10140112D01*
X6424115Y-10140112D02*
X6405067Y-10159160D01*
X6405067Y-10159160D02*
X6376496Y-10168684D01*
X6376496Y-10168684D02*
X6328877Y-10168684D01*
X6528877Y-10168684D02*
X6528877Y-10035350D01*
X6528877Y-10073446D02*
X6538401Y-10054398D01*
X6538401Y-10054398D02*
X6547924Y-10044874D01*
X6547924Y-10044874D02*
X6566972Y-10035350D01*
X6566972Y-10035350D02*
X6586020Y-10035350D01*
X6652686Y-10168684D02*
X6652686Y-10035350D01*
X6652686Y-9968684D02*
X6643162Y-9978208D01*
X6643162Y-9978208D02*
X6652686Y-9987731D01*
X6652686Y-9987731D02*
X6662210Y-9978208D01*
X6662210Y-9978208D02*
X6652686Y-9968684D01*
X6652686Y-9968684D02*
X6652686Y-9987731D01*
X6776496Y-10168684D02*
X6757448Y-10159160D01*
X6757448Y-10159160D02*
X6747924Y-10140112D01*
X6747924Y-10140112D02*
X6747924Y-9968684D01*
X6881258Y-10168684D02*
X6862210Y-10159160D01*
X6862210Y-10159160D02*
X6852686Y-10140112D01*
X6852686Y-10140112D02*
X6852686Y-9968684D01*
X7109829Y-10168684D02*
X7109829Y-9968684D01*
X7109829Y-9968684D02*
X7176496Y-10111541D01*
X7176496Y-10111541D02*
X7243162Y-9968684D01*
X7243162Y-9968684D02*
X7243162Y-10168684D01*
X7424115Y-10168684D02*
X7424115Y-10063922D01*
X7424115Y-10063922D02*
X7414591Y-10044874D01*
X7414591Y-10044874D02*
X7395543Y-10035350D01*
X7395543Y-10035350D02*
X7357448Y-10035350D01*
X7357448Y-10035350D02*
X7338401Y-10044874D01*
X7424115Y-10159160D02*
X7405067Y-10168684D01*
X7405067Y-10168684D02*
X7357448Y-10168684D01*
X7357448Y-10168684D02*
X7338401Y-10159160D01*
X7338401Y-10159160D02*
X7328877Y-10140112D01*
X7328877Y-10140112D02*
X7328877Y-10121065D01*
X7328877Y-10121065D02*
X7338401Y-10102017D01*
X7338401Y-10102017D02*
X7357448Y-10092493D01*
X7357448Y-10092493D02*
X7405067Y-10092493D01*
X7405067Y-10092493D02*
X7424115Y-10082970D01*
X7519353Y-10035350D02*
X7519353Y-10235350D01*
X7519353Y-10044874D02*
X7538401Y-10035350D01*
X7538401Y-10035350D02*
X7576496Y-10035350D01*
X7576496Y-10035350D02*
X7595543Y-10044874D01*
X7595543Y-10044874D02*
X7605067Y-10054398D01*
X7605067Y-10054398D02*
X7614591Y-10073446D01*
X7614591Y-10073446D02*
X7614591Y-10130589D01*
X7614591Y-10130589D02*
X7605067Y-10149636D01*
X7605067Y-10149636D02*
X7595543Y-10159160D01*
X7595543Y-10159160D02*
X7576496Y-10168684D01*
X7576496Y-10168684D02*
X7538401Y-10168684D01*
X7538401Y-10168684D02*
X7519353Y-10159160D01*
X7700305Y-10149636D02*
X7709829Y-10159160D01*
X7709829Y-10159160D02*
X7700305Y-10168684D01*
X7700305Y-10168684D02*
X7690782Y-10159160D01*
X7690782Y-10159160D02*
X7700305Y-10149636D01*
X7700305Y-10149636D02*
X7700305Y-10168684D01*
X7700305Y-10044874D02*
X7709829Y-10054398D01*
X7709829Y-10054398D02*
X7700305Y-10063922D01*
X7700305Y-10063922D02*
X7690782Y-10054398D01*
X7690782Y-10054398D02*
X7700305Y-10044874D01*
X7700305Y-10044874D02*
X7700305Y-10063922D01*
D12*
X6043100Y-10484700D02*
X6068100Y-10509700D01*
X6068100Y-10484700D02*
X6043100Y-10509700D01*
D11*
X6366972Y-10388684D02*
X6386020Y-10388684D01*
X6386020Y-10388684D02*
X6405067Y-10398208D01*
X6405067Y-10398208D02*
X6414591Y-10407731D01*
X6414591Y-10407731D02*
X6424115Y-10426779D01*
X6424115Y-10426779D02*
X6433639Y-10464874D01*
X6433639Y-10464874D02*
X6433639Y-10512493D01*
X6433639Y-10512493D02*
X6424115Y-10550589D01*
X6424115Y-10550589D02*
X6414591Y-10569636D01*
X6414591Y-10569636D02*
X6405067Y-10579160D01*
X6405067Y-10579160D02*
X6386020Y-10588684D01*
X6386020Y-10588684D02*
X6366972Y-10588684D01*
X6366972Y-10588684D02*
X6347924Y-10579160D01*
X6347924Y-10579160D02*
X6338401Y-10569636D01*
X6338401Y-10569636D02*
X6328877Y-10550589D01*
X6328877Y-10550589D02*
X6319353Y-10512493D01*
X6319353Y-10512493D02*
X6319353Y-10464874D01*
X6319353Y-10464874D02*
X6328877Y-10426779D01*
X6328877Y-10426779D02*
X6338401Y-10407731D01*
X6338401Y-10407731D02*
X6347924Y-10398208D01*
X6347924Y-10398208D02*
X6366972Y-10388684D01*
X6519353Y-10569636D02*
X6528877Y-10579160D01*
X6528877Y-10579160D02*
X6519353Y-10588684D01*
X6519353Y-10588684D02*
X6509829Y-10579160D01*
X6509829Y-10579160D02*
X6519353Y-10569636D01*
X6519353Y-10569636D02*
X6519353Y-10588684D01*
X6605067Y-10407731D02*
X6614591Y-10398208D01*
X6614591Y-10398208D02*
X6633639Y-10388684D01*
X6633639Y-10388684D02*
X6681258Y-10388684D01*
X6681258Y-10388684D02*
X6700305Y-10398208D01*
X6700305Y-10398208D02*
X6709829Y-10407731D01*
X6709829Y-10407731D02*
X6719353Y-10426779D01*
X6719353Y-10426779D02*
X6719353Y-10445827D01*
X6719353Y-10445827D02*
X6709829Y-10474398D01*
X6709829Y-10474398D02*
X6595543Y-10588684D01*
X6595543Y-10588684D02*
X6719353Y-10588684D01*
X6900305Y-10388684D02*
X6805067Y-10388684D01*
X6805067Y-10388684D02*
X6795543Y-10483922D01*
X6795543Y-10483922D02*
X6805067Y-10474398D01*
X6805067Y-10474398D02*
X6824115Y-10464874D01*
X6824115Y-10464874D02*
X6871734Y-10464874D01*
X6871734Y-10464874D02*
X6890782Y-10474398D01*
X6890782Y-10474398D02*
X6900305Y-10483922D01*
X6900305Y-10483922D02*
X6909829Y-10502970D01*
X6909829Y-10502970D02*
X6909829Y-10550589D01*
X6909829Y-10550589D02*
X6900305Y-10569636D01*
X6900305Y-10569636D02*
X6890782Y-10579160D01*
X6890782Y-10579160D02*
X6871734Y-10588684D01*
X6871734Y-10588684D02*
X6824115Y-10588684D01*
X6824115Y-10588684D02*
X6805067Y-10579160D01*
X6805067Y-10579160D02*
X6795543Y-10569636D01*
X7033639Y-10388684D02*
X7052686Y-10388684D01*
X7052686Y-10388684D02*
X7071734Y-10398208D01*
X7071734Y-10398208D02*
X7081258Y-10407731D01*
X7081258Y-10407731D02*
X7090782Y-10426779D01*
X7090782Y-10426779D02*
X7100305Y-10464874D01*
X7100305Y-10464874D02*
X7100305Y-10512493D01*
X7100305Y-10512493D02*
X7090782Y-10550589D01*
X7090782Y-10550589D02*
X7081258Y-10569636D01*
X7081258Y-10569636D02*
X7071734Y-10579160D01*
X7071734Y-10579160D02*
X7052686Y-10588684D01*
X7052686Y-10588684D02*
X7033639Y-10588684D01*
X7033639Y-10588684D02*
X7014591Y-10579160D01*
X7014591Y-10579160D02*
X7005067Y-10569636D01*
X7005067Y-10569636D02*
X6995543Y-10550589D01*
X6995543Y-10550589D02*
X6986020Y-10512493D01*
X6986020Y-10512493D02*
X6986020Y-10464874D01*
X6986020Y-10464874D02*
X6995543Y-10426779D01*
X6995543Y-10426779D02*
X7005067Y-10407731D01*
X7005067Y-10407731D02*
X7014591Y-10398208D01*
X7014591Y-10398208D02*
X7033639Y-10388684D01*
X7186020Y-10588684D02*
X7186020Y-10455350D01*
X7186020Y-10474398D02*
X7195543Y-10464874D01*
X7195543Y-10464874D02*
X7214591Y-10455350D01*
X7214591Y-10455350D02*
X7243163Y-10455350D01*
X7243163Y-10455350D02*
X7262210Y-10464874D01*
X7262210Y-10464874D02*
X7271734Y-10483922D01*
X7271734Y-10483922D02*
X7271734Y-10588684D01*
X7271734Y-10483922D02*
X7281258Y-10464874D01*
X7281258Y-10464874D02*
X7300305Y-10455350D01*
X7300305Y-10455350D02*
X7328877Y-10455350D01*
X7328877Y-10455350D02*
X7347924Y-10464874D01*
X7347924Y-10464874D02*
X7357448Y-10483922D01*
X7357448Y-10483922D02*
X7357448Y-10588684D01*
X7452686Y-10588684D02*
X7452686Y-10455350D01*
X7452686Y-10474398D02*
X7462210Y-10464874D01*
X7462210Y-10464874D02*
X7481258Y-10455350D01*
X7481258Y-10455350D02*
X7509829Y-10455350D01*
X7509829Y-10455350D02*
X7528877Y-10464874D01*
X7528877Y-10464874D02*
X7538401Y-10483922D01*
X7538401Y-10483922D02*
X7538401Y-10588684D01*
X7538401Y-10483922D02*
X7547924Y-10464874D01*
X7547924Y-10464874D02*
X7566972Y-10455350D01*
X7566972Y-10455350D02*
X7595543Y-10455350D01*
X7595543Y-10455350D02*
X7614591Y-10464874D01*
X7614591Y-10464874D02*
X7624115Y-10483922D01*
X7624115Y-10483922D02*
X7624115Y-10588684D01*
X8014591Y-10379160D02*
X7843163Y-10636303D01*
X8271734Y-10388684D02*
X8290782Y-10388684D01*
X8290782Y-10388684D02*
X8309829Y-10398208D01*
X8309829Y-10398208D02*
X8319353Y-10407731D01*
X8319353Y-10407731D02*
X8328877Y-10426779D01*
X8328877Y-10426779D02*
X8338401Y-10464874D01*
X8338401Y-10464874D02*
X8338401Y-10512493D01*
X8338401Y-10512493D02*
X8328877Y-10550589D01*
X8328877Y-10550589D02*
X8319353Y-10569636D01*
X8319353Y-10569636D02*
X8309829Y-10579160D01*
X8309829Y-10579160D02*
X8290782Y-10588684D01*
X8290782Y-10588684D02*
X8271734Y-10588684D01*
X8271734Y-10588684D02*
X8252686Y-10579160D01*
X8252686Y-10579160D02*
X8243163Y-10569636D01*
X8243163Y-10569636D02*
X8233639Y-10550589D01*
X8233639Y-10550589D02*
X8224115Y-10512493D01*
X8224115Y-10512493D02*
X8224115Y-10464874D01*
X8224115Y-10464874D02*
X8233639Y-10426779D01*
X8233639Y-10426779D02*
X8243163Y-10407731D01*
X8243163Y-10407731D02*
X8252686Y-10398208D01*
X8252686Y-10398208D02*
X8271734Y-10388684D01*
X8424115Y-10569636D02*
X8433639Y-10579160D01*
X8433639Y-10579160D02*
X8424115Y-10588684D01*
X8424115Y-10588684D02*
X8414591Y-10579160D01*
X8414591Y-10579160D02*
X8424115Y-10569636D01*
X8424115Y-10569636D02*
X8424115Y-10588684D01*
X8557448Y-10388684D02*
X8576496Y-10388684D01*
X8576496Y-10388684D02*
X8595544Y-10398208D01*
X8595544Y-10398208D02*
X8605068Y-10407731D01*
X8605068Y-10407731D02*
X8614591Y-10426779D01*
X8614591Y-10426779D02*
X8624115Y-10464874D01*
X8624115Y-10464874D02*
X8624115Y-10512493D01*
X8624115Y-10512493D02*
X8614591Y-10550589D01*
X8614591Y-10550589D02*
X8605068Y-10569636D01*
X8605068Y-10569636D02*
X8595544Y-10579160D01*
X8595544Y-10579160D02*
X8576496Y-10588684D01*
X8576496Y-10588684D02*
X8557448Y-10588684D01*
X8557448Y-10588684D02*
X8538401Y-10579160D01*
X8538401Y-10579160D02*
X8528877Y-10569636D01*
X8528877Y-10569636D02*
X8519353Y-10550589D01*
X8519353Y-10550589D02*
X8509829Y-10512493D01*
X8509829Y-10512493D02*
X8509829Y-10464874D01*
X8509829Y-10464874D02*
X8519353Y-10426779D01*
X8519353Y-10426779D02*
X8528877Y-10407731D01*
X8528877Y-10407731D02*
X8538401Y-10398208D01*
X8538401Y-10398208D02*
X8557448Y-10388684D01*
X8747925Y-10388684D02*
X8766972Y-10388684D01*
X8766972Y-10388684D02*
X8786020Y-10398208D01*
X8786020Y-10398208D02*
X8795544Y-10407731D01*
X8795544Y-10407731D02*
X8805068Y-10426779D01*
X8805068Y-10426779D02*
X8814591Y-10464874D01*
X8814591Y-10464874D02*
X8814591Y-10512493D01*
X8814591Y-10512493D02*
X8805068Y-10550589D01*
X8805068Y-10550589D02*
X8795544Y-10569636D01*
X8795544Y-10569636D02*
X8786020Y-10579160D01*
X8786020Y-10579160D02*
X8766972Y-10588684D01*
X8766972Y-10588684D02*
X8747925Y-10588684D01*
X8747925Y-10588684D02*
X8728877Y-10579160D01*
X8728877Y-10579160D02*
X8719353Y-10569636D01*
X8719353Y-10569636D02*
X8709829Y-10550589D01*
X8709829Y-10550589D02*
X8700306Y-10512493D01*
X8700306Y-10512493D02*
X8700306Y-10464874D01*
X8700306Y-10464874D02*
X8709829Y-10426779D01*
X8709829Y-10426779D02*
X8719353Y-10407731D01*
X8719353Y-10407731D02*
X8728877Y-10398208D01*
X8728877Y-10398208D02*
X8747925Y-10388684D01*
X8909829Y-10588684D02*
X8947925Y-10588684D01*
X8947925Y-10588684D02*
X8966972Y-10579160D01*
X8966972Y-10579160D02*
X8976496Y-10569636D01*
X8976496Y-10569636D02*
X8995544Y-10541065D01*
X8995544Y-10541065D02*
X9005068Y-10502970D01*
X9005068Y-10502970D02*
X9005068Y-10426779D01*
X9005068Y-10426779D02*
X8995544Y-10407731D01*
X8995544Y-10407731D02*
X8986020Y-10398208D01*
X8986020Y-10398208D02*
X8966972Y-10388684D01*
X8966972Y-10388684D02*
X8928877Y-10388684D01*
X8928877Y-10388684D02*
X8909829Y-10398208D01*
X8909829Y-10398208D02*
X8900306Y-10407731D01*
X8900306Y-10407731D02*
X8890782Y-10426779D01*
X8890782Y-10426779D02*
X8890782Y-10474398D01*
X8890782Y-10474398D02*
X8900306Y-10493446D01*
X8900306Y-10493446D02*
X8909829Y-10502970D01*
X8909829Y-10502970D02*
X8928877Y-10512493D01*
X8928877Y-10512493D02*
X8966972Y-10512493D01*
X8966972Y-10512493D02*
X8986020Y-10502970D01*
X8986020Y-10502970D02*
X8995544Y-10493446D01*
X8995544Y-10493446D02*
X9005068Y-10474398D01*
X9119353Y-10474398D02*
X9100306Y-10464874D01*
X9100306Y-10464874D02*
X9090782Y-10455350D01*
X9090782Y-10455350D02*
X9081258Y-10436303D01*
X9081258Y-10436303D02*
X9081258Y-10426779D01*
X9081258Y-10426779D02*
X9090782Y-10407731D01*
X9090782Y-10407731D02*
X9100306Y-10398208D01*
X9100306Y-10398208D02*
X9119353Y-10388684D01*
X9119353Y-10388684D02*
X9157449Y-10388684D01*
X9157449Y-10388684D02*
X9176496Y-10398208D01*
X9176496Y-10398208D02*
X9186020Y-10407731D01*
X9186020Y-10407731D02*
X9195544Y-10426779D01*
X9195544Y-10426779D02*
X9195544Y-10436303D01*
X9195544Y-10436303D02*
X9186020Y-10455350D01*
X9186020Y-10455350D02*
X9176496Y-10464874D01*
X9176496Y-10464874D02*
X9157449Y-10474398D01*
X9157449Y-10474398D02*
X9119353Y-10474398D01*
X9119353Y-10474398D02*
X9100306Y-10483922D01*
X9100306Y-10483922D02*
X9090782Y-10493446D01*
X9090782Y-10493446D02*
X9081258Y-10512493D01*
X9081258Y-10512493D02*
X9081258Y-10550589D01*
X9081258Y-10550589D02*
X9090782Y-10569636D01*
X9090782Y-10569636D02*
X9100306Y-10579160D01*
X9100306Y-10579160D02*
X9119353Y-10588684D01*
X9119353Y-10588684D02*
X9157449Y-10588684D01*
X9157449Y-10588684D02*
X9176496Y-10579160D01*
X9176496Y-10579160D02*
X9186020Y-10569636D01*
X9186020Y-10569636D02*
X9195544Y-10550589D01*
X9195544Y-10550589D02*
X9195544Y-10512493D01*
X9195544Y-10512493D02*
X9186020Y-10493446D01*
X9186020Y-10493446D02*
X9176496Y-10483922D01*
X9176496Y-10483922D02*
X9157449Y-10474398D01*
X9271734Y-10388684D02*
X9271734Y-10426779D01*
X9347925Y-10388684D02*
X9347925Y-10426779D01*
X9643163Y-10664874D02*
X9633639Y-10655350D01*
X9633639Y-10655350D02*
X9614591Y-10626779D01*
X9614591Y-10626779D02*
X9605068Y-10607731D01*
X9605068Y-10607731D02*
X9595544Y-10579160D01*
X9595544Y-10579160D02*
X9586020Y-10531541D01*
X9586020Y-10531541D02*
X9586020Y-10493446D01*
X9586020Y-10493446D02*
X9595544Y-10445827D01*
X9595544Y-10445827D02*
X9605068Y-10417255D01*
X9605068Y-10417255D02*
X9614591Y-10398208D01*
X9614591Y-10398208D02*
X9633639Y-10369636D01*
X9633639Y-10369636D02*
X9643163Y-10360112D01*
X9824115Y-10588684D02*
X9709830Y-10588684D01*
X9766972Y-10588684D02*
X9766972Y-10388684D01*
X9766972Y-10388684D02*
X9747925Y-10417255D01*
X9747925Y-10417255D02*
X9728877Y-10436303D01*
X9728877Y-10436303D02*
X9709830Y-10445827D01*
X9995544Y-10388684D02*
X9957449Y-10388684D01*
X9957449Y-10388684D02*
X9938401Y-10398208D01*
X9938401Y-10398208D02*
X9928877Y-10407731D01*
X9928877Y-10407731D02*
X9909830Y-10436303D01*
X9909830Y-10436303D02*
X9900306Y-10474398D01*
X9900306Y-10474398D02*
X9900306Y-10550589D01*
X9900306Y-10550589D02*
X9909830Y-10569636D01*
X9909830Y-10569636D02*
X9919353Y-10579160D01*
X9919353Y-10579160D02*
X9938401Y-10588684D01*
X9938401Y-10588684D02*
X9976496Y-10588684D01*
X9976496Y-10588684D02*
X9995544Y-10579160D01*
X9995544Y-10579160D02*
X10005068Y-10569636D01*
X10005068Y-10569636D02*
X10014591Y-10550589D01*
X10014591Y-10550589D02*
X10014591Y-10502970D01*
X10014591Y-10502970D02*
X10005068Y-10483922D01*
X10005068Y-10483922D02*
X9995544Y-10474398D01*
X9995544Y-10474398D02*
X9976496Y-10464874D01*
X9976496Y-10464874D02*
X9938401Y-10464874D01*
X9938401Y-10464874D02*
X9919353Y-10474398D01*
X9919353Y-10474398D02*
X9909830Y-10483922D01*
X9909830Y-10483922D02*
X9900306Y-10502970D01*
X10252687Y-10588684D02*
X10252687Y-10388684D01*
X10338401Y-10588684D02*
X10338401Y-10483922D01*
X10338401Y-10483922D02*
X10328877Y-10464874D01*
X10328877Y-10464874D02*
X10309830Y-10455350D01*
X10309830Y-10455350D02*
X10281258Y-10455350D01*
X10281258Y-10455350D02*
X10262211Y-10464874D01*
X10262211Y-10464874D02*
X10252687Y-10474398D01*
X10462211Y-10588684D02*
X10443163Y-10579160D01*
X10443163Y-10579160D02*
X10433639Y-10569636D01*
X10433639Y-10569636D02*
X10424115Y-10550589D01*
X10424115Y-10550589D02*
X10424115Y-10493446D01*
X10424115Y-10493446D02*
X10433639Y-10474398D01*
X10433639Y-10474398D02*
X10443163Y-10464874D01*
X10443163Y-10464874D02*
X10462211Y-10455350D01*
X10462211Y-10455350D02*
X10490782Y-10455350D01*
X10490782Y-10455350D02*
X10509830Y-10464874D01*
X10509830Y-10464874D02*
X10519353Y-10474398D01*
X10519353Y-10474398D02*
X10528877Y-10493446D01*
X10528877Y-10493446D02*
X10528877Y-10550589D01*
X10528877Y-10550589D02*
X10519353Y-10569636D01*
X10519353Y-10569636D02*
X10509830Y-10579160D01*
X10509830Y-10579160D02*
X10490782Y-10588684D01*
X10490782Y-10588684D02*
X10462211Y-10588684D01*
X10643163Y-10588684D02*
X10624115Y-10579160D01*
X10624115Y-10579160D02*
X10614592Y-10560112D01*
X10614592Y-10560112D02*
X10614592Y-10388684D01*
X10795544Y-10579160D02*
X10776496Y-10588684D01*
X10776496Y-10588684D02*
X10738401Y-10588684D01*
X10738401Y-10588684D02*
X10719353Y-10579160D01*
X10719353Y-10579160D02*
X10709830Y-10560112D01*
X10709830Y-10560112D02*
X10709830Y-10483922D01*
X10709830Y-10483922D02*
X10719353Y-10464874D01*
X10719353Y-10464874D02*
X10738401Y-10455350D01*
X10738401Y-10455350D02*
X10776496Y-10455350D01*
X10776496Y-10455350D02*
X10795544Y-10464874D01*
X10795544Y-10464874D02*
X10805068Y-10483922D01*
X10805068Y-10483922D02*
X10805068Y-10502970D01*
X10805068Y-10502970D02*
X10709830Y-10522017D01*
X10881258Y-10579160D02*
X10900306Y-10588684D01*
X10900306Y-10588684D02*
X10938401Y-10588684D01*
X10938401Y-10588684D02*
X10957449Y-10579160D01*
X10957449Y-10579160D02*
X10966973Y-10560112D01*
X10966973Y-10560112D02*
X10966973Y-10550589D01*
X10966973Y-10550589D02*
X10957449Y-10531541D01*
X10957449Y-10531541D02*
X10938401Y-10522017D01*
X10938401Y-10522017D02*
X10909830Y-10522017D01*
X10909830Y-10522017D02*
X10890782Y-10512493D01*
X10890782Y-10512493D02*
X10881258Y-10493446D01*
X10881258Y-10493446D02*
X10881258Y-10483922D01*
X10881258Y-10483922D02*
X10890782Y-10464874D01*
X10890782Y-10464874D02*
X10909830Y-10455350D01*
X10909830Y-10455350D02*
X10938401Y-10455350D01*
X10938401Y-10455350D02*
X10957449Y-10464874D01*
X11033639Y-10664874D02*
X11043163Y-10655350D01*
X11043163Y-10655350D02*
X11062211Y-10626779D01*
X11062211Y-10626779D02*
X11071734Y-10607731D01*
X11071734Y-10607731D02*
X11081258Y-10579160D01*
X11081258Y-10579160D02*
X11090782Y-10531541D01*
X11090782Y-10531541D02*
X11090782Y-10493446D01*
X11090782Y-10493446D02*
X11081258Y-10445827D01*
X11081258Y-10445827D02*
X11071734Y-10417255D01*
X11071734Y-10417255D02*
X11062211Y-10398208D01*
X11062211Y-10398208D02*
X11043163Y-10369636D01*
X11043163Y-10369636D02*
X11033639Y-10360112D01*
D13*
X6068100Y-10761200D02*
G75*
G03*
X6068100Y-10761200I-37500J0D01*
G01*
D11*
X6366972Y-10652684D02*
X6386020Y-10652684D01*
X6386020Y-10652684D02*
X6405067Y-10662208D01*
X6405067Y-10662208D02*
X6414591Y-10671731D01*
X6414591Y-10671731D02*
X6424115Y-10690779D01*
X6424115Y-10690779D02*
X6433639Y-10728874D01*
X6433639Y-10728874D02*
X6433639Y-10776493D01*
X6433639Y-10776493D02*
X6424115Y-10814589D01*
X6424115Y-10814589D02*
X6414591Y-10833636D01*
X6414591Y-10833636D02*
X6405067Y-10843160D01*
X6405067Y-10843160D02*
X6386020Y-10852684D01*
X6386020Y-10852684D02*
X6366972Y-10852684D01*
X6366972Y-10852684D02*
X6347924Y-10843160D01*
X6347924Y-10843160D02*
X6338401Y-10833636D01*
X6338401Y-10833636D02*
X6328877Y-10814589D01*
X6328877Y-10814589D02*
X6319353Y-10776493D01*
X6319353Y-10776493D02*
X6319353Y-10728874D01*
X6319353Y-10728874D02*
X6328877Y-10690779D01*
X6328877Y-10690779D02*
X6338401Y-10671731D01*
X6338401Y-10671731D02*
X6347924Y-10662208D01*
X6347924Y-10662208D02*
X6366972Y-10652684D01*
X6519353Y-10833636D02*
X6528877Y-10843160D01*
X6528877Y-10843160D02*
X6519353Y-10852684D01*
X6519353Y-10852684D02*
X6509829Y-10843160D01*
X6509829Y-10843160D02*
X6519353Y-10833636D01*
X6519353Y-10833636D02*
X6519353Y-10852684D01*
X6595543Y-10652684D02*
X6728877Y-10652684D01*
X6728877Y-10652684D02*
X6643162Y-10852684D01*
X6900305Y-10652684D02*
X6805067Y-10652684D01*
X6805067Y-10652684D02*
X6795543Y-10747922D01*
X6795543Y-10747922D02*
X6805067Y-10738398D01*
X6805067Y-10738398D02*
X6824115Y-10728874D01*
X6824115Y-10728874D02*
X6871734Y-10728874D01*
X6871734Y-10728874D02*
X6890782Y-10738398D01*
X6890782Y-10738398D02*
X6900305Y-10747922D01*
X6900305Y-10747922D02*
X6909829Y-10766970D01*
X6909829Y-10766970D02*
X6909829Y-10814589D01*
X6909829Y-10814589D02*
X6900305Y-10833636D01*
X6900305Y-10833636D02*
X6890782Y-10843160D01*
X6890782Y-10843160D02*
X6871734Y-10852684D01*
X6871734Y-10852684D02*
X6824115Y-10852684D01*
X6824115Y-10852684D02*
X6805067Y-10843160D01*
X6805067Y-10843160D02*
X6795543Y-10833636D01*
X7033639Y-10652684D02*
X7052686Y-10652684D01*
X7052686Y-10652684D02*
X7071734Y-10662208D01*
X7071734Y-10662208D02*
X7081258Y-10671731D01*
X7081258Y-10671731D02*
X7090782Y-10690779D01*
X7090782Y-10690779D02*
X7100305Y-10728874D01*
X7100305Y-10728874D02*
X7100305Y-10776493D01*
X7100305Y-10776493D02*
X7090782Y-10814589D01*
X7090782Y-10814589D02*
X7081258Y-10833636D01*
X7081258Y-10833636D02*
X7071734Y-10843160D01*
X7071734Y-10843160D02*
X7052686Y-10852684D01*
X7052686Y-10852684D02*
X7033639Y-10852684D01*
X7033639Y-10852684D02*
X7014591Y-10843160D01*
X7014591Y-10843160D02*
X7005067Y-10833636D01*
X7005067Y-10833636D02*
X6995543Y-10814589D01*
X6995543Y-10814589D02*
X6986020Y-10776493D01*
X6986020Y-10776493D02*
X6986020Y-10728874D01*
X6986020Y-10728874D02*
X6995543Y-10690779D01*
X6995543Y-10690779D02*
X7005067Y-10671731D01*
X7005067Y-10671731D02*
X7014591Y-10662208D01*
X7014591Y-10662208D02*
X7033639Y-10652684D01*
X7186020Y-10852684D02*
X7186020Y-10719350D01*
X7186020Y-10738398D02*
X7195543Y-10728874D01*
X7195543Y-10728874D02*
X7214591Y-10719350D01*
X7214591Y-10719350D02*
X7243163Y-10719350D01*
X7243163Y-10719350D02*
X7262210Y-10728874D01*
X7262210Y-10728874D02*
X7271734Y-10747922D01*
X7271734Y-10747922D02*
X7271734Y-10852684D01*
X7271734Y-10747922D02*
X7281258Y-10728874D01*
X7281258Y-10728874D02*
X7300305Y-10719350D01*
X7300305Y-10719350D02*
X7328877Y-10719350D01*
X7328877Y-10719350D02*
X7347924Y-10728874D01*
X7347924Y-10728874D02*
X7357448Y-10747922D01*
X7357448Y-10747922D02*
X7357448Y-10852684D01*
X7452686Y-10852684D02*
X7452686Y-10719350D01*
X7452686Y-10738398D02*
X7462210Y-10728874D01*
X7462210Y-10728874D02*
X7481258Y-10719350D01*
X7481258Y-10719350D02*
X7509829Y-10719350D01*
X7509829Y-10719350D02*
X7528877Y-10728874D01*
X7528877Y-10728874D02*
X7538401Y-10747922D01*
X7538401Y-10747922D02*
X7538401Y-10852684D01*
X7538401Y-10747922D02*
X7547924Y-10728874D01*
X7547924Y-10728874D02*
X7566972Y-10719350D01*
X7566972Y-10719350D02*
X7595543Y-10719350D01*
X7595543Y-10719350D02*
X7614591Y-10728874D01*
X7614591Y-10728874D02*
X7624115Y-10747922D01*
X7624115Y-10747922D02*
X7624115Y-10852684D01*
X8014591Y-10643160D02*
X7843163Y-10900303D01*
X8271734Y-10652684D02*
X8290782Y-10652684D01*
X8290782Y-10652684D02*
X8309829Y-10662208D01*
X8309829Y-10662208D02*
X8319353Y-10671731D01*
X8319353Y-10671731D02*
X8328877Y-10690779D01*
X8328877Y-10690779D02*
X8338401Y-10728874D01*
X8338401Y-10728874D02*
X8338401Y-10776493D01*
X8338401Y-10776493D02*
X8328877Y-10814589D01*
X8328877Y-10814589D02*
X8319353Y-10833636D01*
X8319353Y-10833636D02*
X8309829Y-10843160D01*
X8309829Y-10843160D02*
X8290782Y-10852684D01*
X8290782Y-10852684D02*
X8271734Y-10852684D01*
X8271734Y-10852684D02*
X8252686Y-10843160D01*
X8252686Y-10843160D02*
X8243163Y-10833636D01*
X8243163Y-10833636D02*
X8233639Y-10814589D01*
X8233639Y-10814589D02*
X8224115Y-10776493D01*
X8224115Y-10776493D02*
X8224115Y-10728874D01*
X8224115Y-10728874D02*
X8233639Y-10690779D01*
X8233639Y-10690779D02*
X8243163Y-10671731D01*
X8243163Y-10671731D02*
X8252686Y-10662208D01*
X8252686Y-10662208D02*
X8271734Y-10652684D01*
X8424115Y-10833636D02*
X8433639Y-10843160D01*
X8433639Y-10843160D02*
X8424115Y-10852684D01*
X8424115Y-10852684D02*
X8414591Y-10843160D01*
X8414591Y-10843160D02*
X8424115Y-10833636D01*
X8424115Y-10833636D02*
X8424115Y-10852684D01*
X8557448Y-10652684D02*
X8576496Y-10652684D01*
X8576496Y-10652684D02*
X8595544Y-10662208D01*
X8595544Y-10662208D02*
X8605068Y-10671731D01*
X8605068Y-10671731D02*
X8614591Y-10690779D01*
X8614591Y-10690779D02*
X8624115Y-10728874D01*
X8624115Y-10728874D02*
X8624115Y-10776493D01*
X8624115Y-10776493D02*
X8614591Y-10814589D01*
X8614591Y-10814589D02*
X8605068Y-10833636D01*
X8605068Y-10833636D02*
X8595544Y-10843160D01*
X8595544Y-10843160D02*
X8576496Y-10852684D01*
X8576496Y-10852684D02*
X8557448Y-10852684D01*
X8557448Y-10852684D02*
X8538401Y-10843160D01*
X8538401Y-10843160D02*
X8528877Y-10833636D01*
X8528877Y-10833636D02*
X8519353Y-10814589D01*
X8519353Y-10814589D02*
X8509829Y-10776493D01*
X8509829Y-10776493D02*
X8509829Y-10728874D01*
X8509829Y-10728874D02*
X8519353Y-10690779D01*
X8519353Y-10690779D02*
X8528877Y-10671731D01*
X8528877Y-10671731D02*
X8538401Y-10662208D01*
X8538401Y-10662208D02*
X8557448Y-10652684D01*
X8700306Y-10671731D02*
X8709829Y-10662208D01*
X8709829Y-10662208D02*
X8728877Y-10652684D01*
X8728877Y-10652684D02*
X8776496Y-10652684D01*
X8776496Y-10652684D02*
X8795544Y-10662208D01*
X8795544Y-10662208D02*
X8805068Y-10671731D01*
X8805068Y-10671731D02*
X8814591Y-10690779D01*
X8814591Y-10690779D02*
X8814591Y-10709827D01*
X8814591Y-10709827D02*
X8805068Y-10738398D01*
X8805068Y-10738398D02*
X8690782Y-10852684D01*
X8690782Y-10852684D02*
X8814591Y-10852684D01*
X8909829Y-10852684D02*
X8947925Y-10852684D01*
X8947925Y-10852684D02*
X8966972Y-10843160D01*
X8966972Y-10843160D02*
X8976496Y-10833636D01*
X8976496Y-10833636D02*
X8995544Y-10805065D01*
X8995544Y-10805065D02*
X9005068Y-10766970D01*
X9005068Y-10766970D02*
X9005068Y-10690779D01*
X9005068Y-10690779D02*
X8995544Y-10671731D01*
X8995544Y-10671731D02*
X8986020Y-10662208D01*
X8986020Y-10662208D02*
X8966972Y-10652684D01*
X8966972Y-10652684D02*
X8928877Y-10652684D01*
X8928877Y-10652684D02*
X8909829Y-10662208D01*
X8909829Y-10662208D02*
X8900306Y-10671731D01*
X8900306Y-10671731D02*
X8890782Y-10690779D01*
X8890782Y-10690779D02*
X8890782Y-10738398D01*
X8890782Y-10738398D02*
X8900306Y-10757446D01*
X8900306Y-10757446D02*
X8909829Y-10766970D01*
X8909829Y-10766970D02*
X8928877Y-10776493D01*
X8928877Y-10776493D02*
X8966972Y-10776493D01*
X8966972Y-10776493D02*
X8986020Y-10766970D01*
X8986020Y-10766970D02*
X8995544Y-10757446D01*
X8995544Y-10757446D02*
X9005068Y-10738398D01*
X9186020Y-10652684D02*
X9090782Y-10652684D01*
X9090782Y-10652684D02*
X9081258Y-10747922D01*
X9081258Y-10747922D02*
X9090782Y-10738398D01*
X9090782Y-10738398D02*
X9109829Y-10728874D01*
X9109829Y-10728874D02*
X9157449Y-10728874D01*
X9157449Y-10728874D02*
X9176496Y-10738398D01*
X9176496Y-10738398D02*
X9186020Y-10747922D01*
X9186020Y-10747922D02*
X9195544Y-10766970D01*
X9195544Y-10766970D02*
X9195544Y-10814589D01*
X9195544Y-10814589D02*
X9186020Y-10833636D01*
X9186020Y-10833636D02*
X9176496Y-10843160D01*
X9176496Y-10843160D02*
X9157449Y-10852684D01*
X9157449Y-10852684D02*
X9109829Y-10852684D01*
X9109829Y-10852684D02*
X9090782Y-10843160D01*
X9090782Y-10843160D02*
X9081258Y-10833636D01*
X9271734Y-10652684D02*
X9271734Y-10690779D01*
X9347925Y-10652684D02*
X9347925Y-10690779D01*
X9643163Y-10928874D02*
X9633639Y-10919350D01*
X9633639Y-10919350D02*
X9614591Y-10890779D01*
X9614591Y-10890779D02*
X9605068Y-10871731D01*
X9605068Y-10871731D02*
X9595544Y-10843160D01*
X9595544Y-10843160D02*
X9586020Y-10795541D01*
X9586020Y-10795541D02*
X9586020Y-10757446D01*
X9586020Y-10757446D02*
X9595544Y-10709827D01*
X9595544Y-10709827D02*
X9605068Y-10681255D01*
X9605068Y-10681255D02*
X9614591Y-10662208D01*
X9614591Y-10662208D02*
X9633639Y-10633636D01*
X9633639Y-10633636D02*
X9643163Y-10624112D01*
X9728877Y-10852684D02*
X9766972Y-10852684D01*
X9766972Y-10852684D02*
X9786020Y-10843160D01*
X9786020Y-10843160D02*
X9795544Y-10833636D01*
X9795544Y-10833636D02*
X9814591Y-10805065D01*
X9814591Y-10805065D02*
X9824115Y-10766970D01*
X9824115Y-10766970D02*
X9824115Y-10690779D01*
X9824115Y-10690779D02*
X9814591Y-10671731D01*
X9814591Y-10671731D02*
X9805068Y-10662208D01*
X9805068Y-10662208D02*
X9786020Y-10652684D01*
X9786020Y-10652684D02*
X9747925Y-10652684D01*
X9747925Y-10652684D02*
X9728877Y-10662208D01*
X9728877Y-10662208D02*
X9719353Y-10671731D01*
X9719353Y-10671731D02*
X9709830Y-10690779D01*
X9709830Y-10690779D02*
X9709830Y-10738398D01*
X9709830Y-10738398D02*
X9719353Y-10757446D01*
X9719353Y-10757446D02*
X9728877Y-10766970D01*
X9728877Y-10766970D02*
X9747925Y-10776493D01*
X9747925Y-10776493D02*
X9786020Y-10776493D01*
X9786020Y-10776493D02*
X9805068Y-10766970D01*
X9805068Y-10766970D02*
X9814591Y-10757446D01*
X9814591Y-10757446D02*
X9824115Y-10738398D01*
X9995544Y-10652684D02*
X9957449Y-10652684D01*
X9957449Y-10652684D02*
X9938401Y-10662208D01*
X9938401Y-10662208D02*
X9928877Y-10671731D01*
X9928877Y-10671731D02*
X9909830Y-10700303D01*
X9909830Y-10700303D02*
X9900306Y-10738398D01*
X9900306Y-10738398D02*
X9900306Y-10814589D01*
X9900306Y-10814589D02*
X9909830Y-10833636D01*
X9909830Y-10833636D02*
X9919353Y-10843160D01*
X9919353Y-10843160D02*
X9938401Y-10852684D01*
X9938401Y-10852684D02*
X9976496Y-10852684D01*
X9976496Y-10852684D02*
X9995544Y-10843160D01*
X9995544Y-10843160D02*
X10005068Y-10833636D01*
X10005068Y-10833636D02*
X10014591Y-10814589D01*
X10014591Y-10814589D02*
X10014591Y-10766970D01*
X10014591Y-10766970D02*
X10005068Y-10747922D01*
X10005068Y-10747922D02*
X9995544Y-10738398D01*
X9995544Y-10738398D02*
X9976496Y-10728874D01*
X9976496Y-10728874D02*
X9938401Y-10728874D01*
X9938401Y-10728874D02*
X9919353Y-10738398D01*
X9919353Y-10738398D02*
X9909830Y-10747922D01*
X9909830Y-10747922D02*
X9900306Y-10766970D01*
X10252687Y-10852684D02*
X10252687Y-10652684D01*
X10338401Y-10852684D02*
X10338401Y-10747922D01*
X10338401Y-10747922D02*
X10328877Y-10728874D01*
X10328877Y-10728874D02*
X10309830Y-10719350D01*
X10309830Y-10719350D02*
X10281258Y-10719350D01*
X10281258Y-10719350D02*
X10262211Y-10728874D01*
X10262211Y-10728874D02*
X10252687Y-10738398D01*
X10462211Y-10852684D02*
X10443163Y-10843160D01*
X10443163Y-10843160D02*
X10433639Y-10833636D01*
X10433639Y-10833636D02*
X10424115Y-10814589D01*
X10424115Y-10814589D02*
X10424115Y-10757446D01*
X10424115Y-10757446D02*
X10433639Y-10738398D01*
X10433639Y-10738398D02*
X10443163Y-10728874D01*
X10443163Y-10728874D02*
X10462211Y-10719350D01*
X10462211Y-10719350D02*
X10490782Y-10719350D01*
X10490782Y-10719350D02*
X10509830Y-10728874D01*
X10509830Y-10728874D02*
X10519353Y-10738398D01*
X10519353Y-10738398D02*
X10528877Y-10757446D01*
X10528877Y-10757446D02*
X10528877Y-10814589D01*
X10528877Y-10814589D02*
X10519353Y-10833636D01*
X10519353Y-10833636D02*
X10509830Y-10843160D01*
X10509830Y-10843160D02*
X10490782Y-10852684D01*
X10490782Y-10852684D02*
X10462211Y-10852684D01*
X10643163Y-10852684D02*
X10624115Y-10843160D01*
X10624115Y-10843160D02*
X10614592Y-10824112D01*
X10614592Y-10824112D02*
X10614592Y-10652684D01*
X10795544Y-10843160D02*
X10776496Y-10852684D01*
X10776496Y-10852684D02*
X10738401Y-10852684D01*
X10738401Y-10852684D02*
X10719353Y-10843160D01*
X10719353Y-10843160D02*
X10709830Y-10824112D01*
X10709830Y-10824112D02*
X10709830Y-10747922D01*
X10709830Y-10747922D02*
X10719353Y-10728874D01*
X10719353Y-10728874D02*
X10738401Y-10719350D01*
X10738401Y-10719350D02*
X10776496Y-10719350D01*
X10776496Y-10719350D02*
X10795544Y-10728874D01*
X10795544Y-10728874D02*
X10805068Y-10747922D01*
X10805068Y-10747922D02*
X10805068Y-10766970D01*
X10805068Y-10766970D02*
X10709830Y-10786017D01*
X10881258Y-10843160D02*
X10900306Y-10852684D01*
X10900306Y-10852684D02*
X10938401Y-10852684D01*
X10938401Y-10852684D02*
X10957449Y-10843160D01*
X10957449Y-10843160D02*
X10966973Y-10824112D01*
X10966973Y-10824112D02*
X10966973Y-10814589D01*
X10966973Y-10814589D02*
X10957449Y-10795541D01*
X10957449Y-10795541D02*
X10938401Y-10786017D01*
X10938401Y-10786017D02*
X10909830Y-10786017D01*
X10909830Y-10786017D02*
X10890782Y-10776493D01*
X10890782Y-10776493D02*
X10881258Y-10757446D01*
X10881258Y-10757446D02*
X10881258Y-10747922D01*
X10881258Y-10747922D02*
X10890782Y-10728874D01*
X10890782Y-10728874D02*
X10909830Y-10719350D01*
X10909830Y-10719350D02*
X10938401Y-10719350D01*
X10938401Y-10719350D02*
X10957449Y-10728874D01*
X11033639Y-10928874D02*
X11043163Y-10919350D01*
X11043163Y-10919350D02*
X11062211Y-10890779D01*
X11062211Y-10890779D02*
X11071734Y-10871731D01*
X11071734Y-10871731D02*
X11081258Y-10843160D01*
X11081258Y-10843160D02*
X11090782Y-10795541D01*
X11090782Y-10795541D02*
X11090782Y-10757446D01*
X11090782Y-10757446D02*
X11081258Y-10709827D01*
X11081258Y-10709827D02*
X11071734Y-10681255D01*
X11071734Y-10681255D02*
X11062211Y-10662208D01*
X11062211Y-10662208D02*
X11043163Y-10633636D01*
X11043163Y-10633636D02*
X11033639Y-10624112D01*
D14*
X6018100Y-10975200D02*
X6018100Y-11075200D01*
X5968100Y-11025200D02*
X6068100Y-11025200D01*
D11*
X6433639Y-11116684D02*
X6319353Y-11116684D01*
X6376496Y-11116684D02*
X6376496Y-10916684D01*
X6376496Y-10916684D02*
X6357448Y-10945255D01*
X6357448Y-10945255D02*
X6338401Y-10964303D01*
X6338401Y-10964303D02*
X6319353Y-10973827D01*
X6519353Y-11097636D02*
X6528877Y-11107160D01*
X6528877Y-11107160D02*
X6519353Y-11116684D01*
X6519353Y-11116684D02*
X6509829Y-11107160D01*
X6509829Y-11107160D02*
X6519353Y-11097636D01*
X6519353Y-11097636D02*
X6519353Y-11116684D01*
X6652686Y-10916684D02*
X6671734Y-10916684D01*
X6671734Y-10916684D02*
X6690782Y-10926208D01*
X6690782Y-10926208D02*
X6700305Y-10935731D01*
X6700305Y-10935731D02*
X6709829Y-10954779D01*
X6709829Y-10954779D02*
X6719353Y-10992874D01*
X6719353Y-10992874D02*
X6719353Y-11040493D01*
X6719353Y-11040493D02*
X6709829Y-11078589D01*
X6709829Y-11078589D02*
X6700305Y-11097636D01*
X6700305Y-11097636D02*
X6690782Y-11107160D01*
X6690782Y-11107160D02*
X6671734Y-11116684D01*
X6671734Y-11116684D02*
X6652686Y-11116684D01*
X6652686Y-11116684D02*
X6633639Y-11107160D01*
X6633639Y-11107160D02*
X6624115Y-11097636D01*
X6624115Y-11097636D02*
X6614591Y-11078589D01*
X6614591Y-11078589D02*
X6605067Y-11040493D01*
X6605067Y-11040493D02*
X6605067Y-10992874D01*
X6605067Y-10992874D02*
X6614591Y-10954779D01*
X6614591Y-10954779D02*
X6624115Y-10935731D01*
X6624115Y-10935731D02*
X6633639Y-10926208D01*
X6633639Y-10926208D02*
X6652686Y-10916684D01*
X6843162Y-10916684D02*
X6862210Y-10916684D01*
X6862210Y-10916684D02*
X6881258Y-10926208D01*
X6881258Y-10926208D02*
X6890782Y-10935731D01*
X6890782Y-10935731D02*
X6900305Y-10954779D01*
X6900305Y-10954779D02*
X6909829Y-10992874D01*
X6909829Y-10992874D02*
X6909829Y-11040493D01*
X6909829Y-11040493D02*
X6900305Y-11078589D01*
X6900305Y-11078589D02*
X6890782Y-11097636D01*
X6890782Y-11097636D02*
X6881258Y-11107160D01*
X6881258Y-11107160D02*
X6862210Y-11116684D01*
X6862210Y-11116684D02*
X6843162Y-11116684D01*
X6843162Y-11116684D02*
X6824115Y-11107160D01*
X6824115Y-11107160D02*
X6814591Y-11097636D01*
X6814591Y-11097636D02*
X6805067Y-11078589D01*
X6805067Y-11078589D02*
X6795543Y-11040493D01*
X6795543Y-11040493D02*
X6795543Y-10992874D01*
X6795543Y-10992874D02*
X6805067Y-10954779D01*
X6805067Y-10954779D02*
X6814591Y-10935731D01*
X6814591Y-10935731D02*
X6824115Y-10926208D01*
X6824115Y-10926208D02*
X6843162Y-10916684D01*
X7033639Y-10916684D02*
X7052686Y-10916684D01*
X7052686Y-10916684D02*
X7071734Y-10926208D01*
X7071734Y-10926208D02*
X7081258Y-10935731D01*
X7081258Y-10935731D02*
X7090782Y-10954779D01*
X7090782Y-10954779D02*
X7100305Y-10992874D01*
X7100305Y-10992874D02*
X7100305Y-11040493D01*
X7100305Y-11040493D02*
X7090782Y-11078589D01*
X7090782Y-11078589D02*
X7081258Y-11097636D01*
X7081258Y-11097636D02*
X7071734Y-11107160D01*
X7071734Y-11107160D02*
X7052686Y-11116684D01*
X7052686Y-11116684D02*
X7033639Y-11116684D01*
X7033639Y-11116684D02*
X7014591Y-11107160D01*
X7014591Y-11107160D02*
X7005067Y-11097636D01*
X7005067Y-11097636D02*
X6995543Y-11078589D01*
X6995543Y-11078589D02*
X6986020Y-11040493D01*
X6986020Y-11040493D02*
X6986020Y-10992874D01*
X6986020Y-10992874D02*
X6995543Y-10954779D01*
X6995543Y-10954779D02*
X7005067Y-10935731D01*
X7005067Y-10935731D02*
X7014591Y-10926208D01*
X7014591Y-10926208D02*
X7033639Y-10916684D01*
X7186020Y-11116684D02*
X7186020Y-10983350D01*
X7186020Y-11002398D02*
X7195543Y-10992874D01*
X7195543Y-10992874D02*
X7214591Y-10983350D01*
X7214591Y-10983350D02*
X7243163Y-10983350D01*
X7243163Y-10983350D02*
X7262210Y-10992874D01*
X7262210Y-10992874D02*
X7271734Y-11011922D01*
X7271734Y-11011922D02*
X7271734Y-11116684D01*
X7271734Y-11011922D02*
X7281258Y-10992874D01*
X7281258Y-10992874D02*
X7300305Y-10983350D01*
X7300305Y-10983350D02*
X7328877Y-10983350D01*
X7328877Y-10983350D02*
X7347924Y-10992874D01*
X7347924Y-10992874D02*
X7357448Y-11011922D01*
X7357448Y-11011922D02*
X7357448Y-11116684D01*
X7452686Y-11116684D02*
X7452686Y-10983350D01*
X7452686Y-11002398D02*
X7462210Y-10992874D01*
X7462210Y-10992874D02*
X7481258Y-10983350D01*
X7481258Y-10983350D02*
X7509829Y-10983350D01*
X7509829Y-10983350D02*
X7528877Y-10992874D01*
X7528877Y-10992874D02*
X7538401Y-11011922D01*
X7538401Y-11011922D02*
X7538401Y-11116684D01*
X7538401Y-11011922D02*
X7547924Y-10992874D01*
X7547924Y-10992874D02*
X7566972Y-10983350D01*
X7566972Y-10983350D02*
X7595543Y-10983350D01*
X7595543Y-10983350D02*
X7614591Y-10992874D01*
X7614591Y-10992874D02*
X7624115Y-11011922D01*
X7624115Y-11011922D02*
X7624115Y-11116684D01*
X8014591Y-10907160D02*
X7843163Y-11164303D01*
X8271734Y-10916684D02*
X8290782Y-10916684D01*
X8290782Y-10916684D02*
X8309829Y-10926208D01*
X8309829Y-10926208D02*
X8319353Y-10935731D01*
X8319353Y-10935731D02*
X8328877Y-10954779D01*
X8328877Y-10954779D02*
X8338401Y-10992874D01*
X8338401Y-10992874D02*
X8338401Y-11040493D01*
X8338401Y-11040493D02*
X8328877Y-11078589D01*
X8328877Y-11078589D02*
X8319353Y-11097636D01*
X8319353Y-11097636D02*
X8309829Y-11107160D01*
X8309829Y-11107160D02*
X8290782Y-11116684D01*
X8290782Y-11116684D02*
X8271734Y-11116684D01*
X8271734Y-11116684D02*
X8252686Y-11107160D01*
X8252686Y-11107160D02*
X8243163Y-11097636D01*
X8243163Y-11097636D02*
X8233639Y-11078589D01*
X8233639Y-11078589D02*
X8224115Y-11040493D01*
X8224115Y-11040493D02*
X8224115Y-10992874D01*
X8224115Y-10992874D02*
X8233639Y-10954779D01*
X8233639Y-10954779D02*
X8243163Y-10935731D01*
X8243163Y-10935731D02*
X8252686Y-10926208D01*
X8252686Y-10926208D02*
X8271734Y-10916684D01*
X8424115Y-11097636D02*
X8433639Y-11107160D01*
X8433639Y-11107160D02*
X8424115Y-11116684D01*
X8424115Y-11116684D02*
X8414591Y-11107160D01*
X8414591Y-11107160D02*
X8424115Y-11097636D01*
X8424115Y-11097636D02*
X8424115Y-11116684D01*
X8557448Y-10916684D02*
X8576496Y-10916684D01*
X8576496Y-10916684D02*
X8595544Y-10926208D01*
X8595544Y-10926208D02*
X8605068Y-10935731D01*
X8605068Y-10935731D02*
X8614591Y-10954779D01*
X8614591Y-10954779D02*
X8624115Y-10992874D01*
X8624115Y-10992874D02*
X8624115Y-11040493D01*
X8624115Y-11040493D02*
X8614591Y-11078589D01*
X8614591Y-11078589D02*
X8605068Y-11097636D01*
X8605068Y-11097636D02*
X8595544Y-11107160D01*
X8595544Y-11107160D02*
X8576496Y-11116684D01*
X8576496Y-11116684D02*
X8557448Y-11116684D01*
X8557448Y-11116684D02*
X8538401Y-11107160D01*
X8538401Y-11107160D02*
X8528877Y-11097636D01*
X8528877Y-11097636D02*
X8519353Y-11078589D01*
X8519353Y-11078589D02*
X8509829Y-11040493D01*
X8509829Y-11040493D02*
X8509829Y-10992874D01*
X8509829Y-10992874D02*
X8519353Y-10954779D01*
X8519353Y-10954779D02*
X8528877Y-10935731D01*
X8528877Y-10935731D02*
X8538401Y-10926208D01*
X8538401Y-10926208D02*
X8557448Y-10916684D01*
X8690782Y-10916684D02*
X8814591Y-10916684D01*
X8814591Y-10916684D02*
X8747925Y-10992874D01*
X8747925Y-10992874D02*
X8776496Y-10992874D01*
X8776496Y-10992874D02*
X8795544Y-11002398D01*
X8795544Y-11002398D02*
X8805068Y-11011922D01*
X8805068Y-11011922D02*
X8814591Y-11030970D01*
X8814591Y-11030970D02*
X8814591Y-11078589D01*
X8814591Y-11078589D02*
X8805068Y-11097636D01*
X8805068Y-11097636D02*
X8795544Y-11107160D01*
X8795544Y-11107160D02*
X8776496Y-11116684D01*
X8776496Y-11116684D02*
X8719353Y-11116684D01*
X8719353Y-11116684D02*
X8700306Y-11107160D01*
X8700306Y-11107160D02*
X8690782Y-11097636D01*
X8909829Y-11116684D02*
X8947925Y-11116684D01*
X8947925Y-11116684D02*
X8966972Y-11107160D01*
X8966972Y-11107160D02*
X8976496Y-11097636D01*
X8976496Y-11097636D02*
X8995544Y-11069065D01*
X8995544Y-11069065D02*
X9005068Y-11030970D01*
X9005068Y-11030970D02*
X9005068Y-10954779D01*
X9005068Y-10954779D02*
X8995544Y-10935731D01*
X8995544Y-10935731D02*
X8986020Y-10926208D01*
X8986020Y-10926208D02*
X8966972Y-10916684D01*
X8966972Y-10916684D02*
X8928877Y-10916684D01*
X8928877Y-10916684D02*
X8909829Y-10926208D01*
X8909829Y-10926208D02*
X8900306Y-10935731D01*
X8900306Y-10935731D02*
X8890782Y-10954779D01*
X8890782Y-10954779D02*
X8890782Y-11002398D01*
X8890782Y-11002398D02*
X8900306Y-11021446D01*
X8900306Y-11021446D02*
X8909829Y-11030970D01*
X8909829Y-11030970D02*
X8928877Y-11040493D01*
X8928877Y-11040493D02*
X8966972Y-11040493D01*
X8966972Y-11040493D02*
X8986020Y-11030970D01*
X8986020Y-11030970D02*
X8995544Y-11021446D01*
X8995544Y-11021446D02*
X9005068Y-11002398D01*
X9176496Y-10983350D02*
X9176496Y-11116684D01*
X9128877Y-10907160D02*
X9081258Y-11050017D01*
X9081258Y-11050017D02*
X9205068Y-11050017D01*
X9271734Y-10916684D02*
X9271734Y-10954779D01*
X9347925Y-10916684D02*
X9347925Y-10954779D01*
X9643163Y-11192874D02*
X9633639Y-11183350D01*
X9633639Y-11183350D02*
X9614591Y-11154779D01*
X9614591Y-11154779D02*
X9605068Y-11135731D01*
X9605068Y-11135731D02*
X9595544Y-11107160D01*
X9595544Y-11107160D02*
X9586020Y-11059541D01*
X9586020Y-11059541D02*
X9586020Y-11021446D01*
X9586020Y-11021446D02*
X9595544Y-10973827D01*
X9595544Y-10973827D02*
X9605068Y-10945255D01*
X9605068Y-10945255D02*
X9614591Y-10926208D01*
X9614591Y-10926208D02*
X9633639Y-10897636D01*
X9633639Y-10897636D02*
X9643163Y-10888112D01*
X9805068Y-10983350D02*
X9805068Y-11116684D01*
X9757449Y-10907160D02*
X9709830Y-11050017D01*
X9709830Y-11050017D02*
X9833639Y-11050017D01*
X9938401Y-11002398D02*
X9919353Y-10992874D01*
X9919353Y-10992874D02*
X9909830Y-10983350D01*
X9909830Y-10983350D02*
X9900306Y-10964303D01*
X9900306Y-10964303D02*
X9900306Y-10954779D01*
X9900306Y-10954779D02*
X9909830Y-10935731D01*
X9909830Y-10935731D02*
X9919353Y-10926208D01*
X9919353Y-10926208D02*
X9938401Y-10916684D01*
X9938401Y-10916684D02*
X9976496Y-10916684D01*
X9976496Y-10916684D02*
X9995544Y-10926208D01*
X9995544Y-10926208D02*
X10005068Y-10935731D01*
X10005068Y-10935731D02*
X10014591Y-10954779D01*
X10014591Y-10954779D02*
X10014591Y-10964303D01*
X10014591Y-10964303D02*
X10005068Y-10983350D01*
X10005068Y-10983350D02*
X9995544Y-10992874D01*
X9995544Y-10992874D02*
X9976496Y-11002398D01*
X9976496Y-11002398D02*
X9938401Y-11002398D01*
X9938401Y-11002398D02*
X9919353Y-11011922D01*
X9919353Y-11011922D02*
X9909830Y-11021446D01*
X9909830Y-11021446D02*
X9900306Y-11040493D01*
X9900306Y-11040493D02*
X9900306Y-11078589D01*
X9900306Y-11078589D02*
X9909830Y-11097636D01*
X9909830Y-11097636D02*
X9919353Y-11107160D01*
X9919353Y-11107160D02*
X9938401Y-11116684D01*
X9938401Y-11116684D02*
X9976496Y-11116684D01*
X9976496Y-11116684D02*
X9995544Y-11107160D01*
X9995544Y-11107160D02*
X10005068Y-11097636D01*
X10005068Y-11097636D02*
X10014591Y-11078589D01*
X10014591Y-11078589D02*
X10014591Y-11040493D01*
X10014591Y-11040493D02*
X10005068Y-11021446D01*
X10005068Y-11021446D02*
X9995544Y-11011922D01*
X9995544Y-11011922D02*
X9976496Y-11002398D01*
X10138401Y-10916684D02*
X10157449Y-10916684D01*
X10157449Y-10916684D02*
X10176496Y-10926208D01*
X10176496Y-10926208D02*
X10186020Y-10935731D01*
X10186020Y-10935731D02*
X10195544Y-10954779D01*
X10195544Y-10954779D02*
X10205068Y-10992874D01*
X10205068Y-10992874D02*
X10205068Y-11040493D01*
X10205068Y-11040493D02*
X10195544Y-11078589D01*
X10195544Y-11078589D02*
X10186020Y-11097636D01*
X10186020Y-11097636D02*
X10176496Y-11107160D01*
X10176496Y-11107160D02*
X10157449Y-11116684D01*
X10157449Y-11116684D02*
X10138401Y-11116684D01*
X10138401Y-11116684D02*
X10119353Y-11107160D01*
X10119353Y-11107160D02*
X10109830Y-11097636D01*
X10109830Y-11097636D02*
X10100306Y-11078589D01*
X10100306Y-11078589D02*
X10090782Y-11040493D01*
X10090782Y-11040493D02*
X10090782Y-10992874D01*
X10090782Y-10992874D02*
X10100306Y-10954779D01*
X10100306Y-10954779D02*
X10109830Y-10935731D01*
X10109830Y-10935731D02*
X10119353Y-10926208D01*
X10119353Y-10926208D02*
X10138401Y-10916684D01*
X10443163Y-11116684D02*
X10443163Y-10916684D01*
X10528877Y-11116684D02*
X10528877Y-11011922D01*
X10528877Y-11011922D02*
X10519353Y-10992874D01*
X10519353Y-10992874D02*
X10500306Y-10983350D01*
X10500306Y-10983350D02*
X10471734Y-10983350D01*
X10471734Y-10983350D02*
X10452687Y-10992874D01*
X10452687Y-10992874D02*
X10443163Y-11002398D01*
X10652687Y-11116684D02*
X10633639Y-11107160D01*
X10633639Y-11107160D02*
X10624115Y-11097636D01*
X10624115Y-11097636D02*
X10614592Y-11078589D01*
X10614592Y-11078589D02*
X10614592Y-11021446D01*
X10614592Y-11021446D02*
X10624115Y-11002398D01*
X10624115Y-11002398D02*
X10633639Y-10992874D01*
X10633639Y-10992874D02*
X10652687Y-10983350D01*
X10652687Y-10983350D02*
X10681258Y-10983350D01*
X10681258Y-10983350D02*
X10700306Y-10992874D01*
X10700306Y-10992874D02*
X10709830Y-11002398D01*
X10709830Y-11002398D02*
X10719353Y-11021446D01*
X10719353Y-11021446D02*
X10719353Y-11078589D01*
X10719353Y-11078589D02*
X10709830Y-11097636D01*
X10709830Y-11097636D02*
X10700306Y-11107160D01*
X10700306Y-11107160D02*
X10681258Y-11116684D01*
X10681258Y-11116684D02*
X10652687Y-11116684D01*
X10833639Y-11116684D02*
X10814592Y-11107160D01*
X10814592Y-11107160D02*
X10805068Y-11088112D01*
X10805068Y-11088112D02*
X10805068Y-10916684D01*
X10986020Y-11107160D02*
X10966973Y-11116684D01*
X10966973Y-11116684D02*
X10928877Y-11116684D01*
X10928877Y-11116684D02*
X10909830Y-11107160D01*
X10909830Y-11107160D02*
X10900306Y-11088112D01*
X10900306Y-11088112D02*
X10900306Y-11011922D01*
X10900306Y-11011922D02*
X10909830Y-10992874D01*
X10909830Y-10992874D02*
X10928877Y-10983350D01*
X10928877Y-10983350D02*
X10966973Y-10983350D01*
X10966973Y-10983350D02*
X10986020Y-10992874D01*
X10986020Y-10992874D02*
X10995544Y-11011922D01*
X10995544Y-11011922D02*
X10995544Y-11030970D01*
X10995544Y-11030970D02*
X10900306Y-11050017D01*
X11071734Y-11107160D02*
X11090782Y-11116684D01*
X11090782Y-11116684D02*
X11128877Y-11116684D01*
X11128877Y-11116684D02*
X11147925Y-11107160D01*
X11147925Y-11107160D02*
X11157449Y-11088112D01*
X11157449Y-11088112D02*
X11157449Y-11078589D01*
X11157449Y-11078589D02*
X11147925Y-11059541D01*
X11147925Y-11059541D02*
X11128877Y-11050017D01*
X11128877Y-11050017D02*
X11100306Y-11050017D01*
X11100306Y-11050017D02*
X11081258Y-11040493D01*
X11081258Y-11040493D02*
X11071734Y-11021446D01*
X11071734Y-11021446D02*
X11071734Y-11011922D01*
X11071734Y-11011922D02*
X11081258Y-10992874D01*
X11081258Y-10992874D02*
X11100306Y-10983350D01*
X11100306Y-10983350D02*
X11128877Y-10983350D01*
X11128877Y-10983350D02*
X11147925Y-10992874D01*
X11224115Y-11192874D02*
X11233639Y-11183350D01*
X11233639Y-11183350D02*
X11252687Y-11154779D01*
X11252687Y-11154779D02*
X11262211Y-11135731D01*
X11262211Y-11135731D02*
X11271734Y-11107160D01*
X11271734Y-11107160D02*
X11281258Y-11059541D01*
X11281258Y-11059541D02*
X11281258Y-11021446D01*
X11281258Y-11021446D02*
X11271734Y-10973827D01*
X11271734Y-10973827D02*
X11262211Y-10945255D01*
X11262211Y-10945255D02*
X11252687Y-10926208D01*
X11252687Y-10926208D02*
X11233639Y-10897636D01*
X11233639Y-10897636D02*
X11224115Y-10888112D01*
M02*
