%TF.GenerationSoftware,KiCad,Pcbnew,7.0.7*%
%TF.CreationDate,2024-02-23T14:46:40-08:00*%
%TF.ProjectId,JluxR2protoboard,4a6c7578-5232-4707-926f-746f626f6172,rev?*%
%TF.SameCoordinates,Original*%
%TF.FileFunction,Soldermask,Bot*%
%TF.FilePolarity,Negative*%
%FSLAX46Y46*%
G04 Gerber Fmt 4.6, Leading zero omitted, Abs format (unit mm)*
G04 Created by KiCad (PCBNEW 7.0.7) date 2024-02-23 14:46:40*
%MOMM*%
%LPD*%
G01*
G04 APERTURE LIST*
G04 Aperture macros list*
%AMRoundRect*
0 Rectangle with rounded corners*
0 $1 Rounding radius*
0 $2 $3 $4 $5 $6 $7 $8 $9 X,Y pos of 4 corners*
0 Add a 4 corners polygon primitive as box body*
4,1,4,$2,$3,$4,$5,$6,$7,$8,$9,$2,$3,0*
0 Add four circle primitives for the rounded corners*
1,1,$1+$1,$2,$3*
1,1,$1+$1,$4,$5*
1,1,$1+$1,$6,$7*
1,1,$1+$1,$8,$9*
0 Add four rect primitives between the rounded corners*
20,1,$1+$1,$2,$3,$4,$5,0*
20,1,$1+$1,$4,$5,$6,$7,0*
20,1,$1+$1,$6,$7,$8,$9,0*
20,1,$1+$1,$8,$9,$2,$3,0*%
%AMFreePoly0*
4,1,49,0.250000,0.845344,0.338849,0.845344,0.512664,0.808398,0.675000,0.736122,0.818761,0.631673,0.937664,0.499617,1.026514,0.345726,1.081425,0.176725,1.100000,0.000000,1.081425,-0.176725,1.026514,-0.345726,0.937664,-0.499617,0.818761,-0.631673,0.675000,-0.736122,0.512664,-0.808398,0.338849,-0.845344,0.250000,-0.845344,0.250000,-0.850000,-0.250000,-0.850000,-0.250000,-0.845344,
-0.338849,-0.845344,-0.512664,-0.808398,-0.675000,-0.736122,-0.818761,-0.631673,-0.937664,-0.499617,-1.012030,-0.370812,-1.075001,-0.307840,-1.175960,-0.250000,-1.210000,-0.250000,-1.305671,-0.230970,-1.386777,-0.176777,-1.440970,-0.095671,-1.460000,0.000000,-1.440970,0.095671,-1.386777,0.176777,-1.305671,0.230970,-1.210000,0.250000,-1.175960,0.250000,-1.075001,0.307840,-1.012030,0.370812,
-0.937664,0.499617,-0.818761,0.631673,-0.675000,0.736122,-0.512664,0.808398,-0.338849,0.845344,-0.250000,0.845344,-0.250000,0.850000,0.250000,0.850000,0.250000,0.845344,0.250000,0.845344,$1*%
%AMFreePoly1*
4,1,59,0.250000,0.845344,0.338849,0.845344,0.512664,0.808398,0.675000,0.736122,0.818761,0.631673,0.937664,0.499617,1.012030,0.370812,1.075002,0.307840,1.175960,0.250000,1.210000,0.250000,1.305671,0.230970,1.386777,0.176777,1.440970,0.095671,1.460000,0.000000,1.440970,-0.095671,1.386777,-0.176777,1.305671,-0.230970,1.210000,-0.250000,1.175960,-0.250000,1.075002,-0.307840,
1.012030,-0.370812,0.937664,-0.499617,0.818761,-0.631673,0.675000,-0.736122,0.512664,-0.808398,0.338849,-0.845344,0.250000,-0.845344,0.250000,-0.850000,-0.250000,-0.850000,-0.250000,-0.845344,-0.338849,-0.845344,-0.512664,-0.808398,-0.675000,-0.736122,-0.818761,-0.631673,-0.937664,-0.499617,-1.012030,-0.370812,-1.075001,-0.307840,-1.175960,-0.250000,-1.210000,-0.250000,-1.305671,-0.230970,
-1.386777,-0.176777,-1.440970,-0.095671,-1.460000,0.000000,-1.440970,0.095671,-1.386777,0.176777,-1.305671,0.230970,-1.210000,0.250000,-1.175960,0.250000,-1.075001,0.307840,-1.012030,0.370812,-0.937664,0.499617,-0.818761,0.631673,-0.675000,0.736122,-0.512664,0.808398,-0.338849,0.845344,-0.250000,0.845344,-0.250000,0.850000,0.250000,0.850000,0.250000,0.845344,0.250000,0.845344,
$1*%
G04 Aperture macros list end*
%ADD10FreePoly0,90.000000*%
%ADD11FreePoly1,90.000000*%
%ADD12FreePoly0,270.000000*%
%ADD13C,1.000000*%
%ADD14RoundRect,0.090000X-0.360000X-2.410000X0.360000X-2.410000X0.360000X2.410000X-0.360000X2.410000X0*%
%ADD15RoundRect,0.090000X0.360000X2.410000X-0.360000X2.410000X-0.360000X-2.410000X0.360000X-2.410000X0*%
G04 APERTURE END LIST*
D10*
%TO.C,J1*%
X65151000Y-39461201D03*
D11*
X65151000Y-42001201D03*
X65151000Y-44541201D03*
X65151000Y-47081201D03*
X65151000Y-49621201D03*
X65151000Y-52161201D03*
X65151000Y-54701201D03*
D12*
X65151000Y-57241201D03*
D10*
X67691000Y-39461201D03*
D11*
X67691000Y-42001201D03*
X67691000Y-44541201D03*
X67691000Y-47081201D03*
X67691000Y-49621201D03*
X67691000Y-52161201D03*
X67691000Y-54701201D03*
D12*
X67691000Y-57241201D03*
D10*
X70231000Y-39461201D03*
D11*
X70231000Y-42001201D03*
X70231000Y-44541201D03*
X70231000Y-47081201D03*
X70231000Y-49621201D03*
X70231000Y-52161201D03*
X70231000Y-54701201D03*
D12*
X70231000Y-57241201D03*
D10*
X72771000Y-39461201D03*
D11*
X72771000Y-42001201D03*
X72771000Y-44541201D03*
X72771000Y-47081201D03*
X72771000Y-49621201D03*
X72771000Y-52161201D03*
X72771000Y-54701201D03*
D12*
X72771000Y-57241201D03*
D10*
X75311000Y-39461201D03*
D11*
X75311000Y-42001201D03*
X75311000Y-44541201D03*
X75311000Y-47081201D03*
X75311000Y-49621201D03*
X75311000Y-52161201D03*
X75311000Y-54701201D03*
D12*
X75311000Y-57241201D03*
D10*
X77851000Y-39461201D03*
D11*
X77851000Y-42001201D03*
X77851000Y-44541201D03*
X77851000Y-47081201D03*
X77851000Y-49621201D03*
X77851000Y-52161201D03*
X77851000Y-54701201D03*
D12*
X77851000Y-57241201D03*
D10*
X80391000Y-39461201D03*
D11*
X80391000Y-42001201D03*
X80391000Y-44541201D03*
X80391000Y-47081201D03*
X80391000Y-49621201D03*
X80391000Y-52161201D03*
X80391000Y-54701201D03*
D12*
X80391000Y-57241201D03*
D10*
X82931000Y-39461201D03*
D11*
X82931000Y-42001201D03*
X82931000Y-44541201D03*
X82931000Y-47081201D03*
X82931000Y-49621201D03*
X82931000Y-52161201D03*
X82931000Y-54701201D03*
D12*
X82931000Y-57241201D03*
D10*
X85471000Y-39461201D03*
D11*
X85471000Y-42001201D03*
X85471000Y-44541201D03*
X85471000Y-47081201D03*
X85471000Y-49621201D03*
X85471000Y-52161201D03*
X85471000Y-54701201D03*
D12*
X85471000Y-57241201D03*
D10*
X88011000Y-39461201D03*
D11*
X88011000Y-42001201D03*
X88011000Y-44541201D03*
X88011000Y-47081201D03*
X88011000Y-49621201D03*
X88011000Y-52161201D03*
X88011000Y-54701201D03*
D12*
X88011000Y-57241201D03*
D10*
X90551000Y-39461201D03*
D11*
X90551000Y-42001201D03*
X90551000Y-44541201D03*
X90551000Y-47081201D03*
X90551000Y-49621201D03*
X90551000Y-52161201D03*
X90551000Y-54701201D03*
D12*
X90551000Y-57241201D03*
D10*
X93091000Y-39461201D03*
D11*
X93091000Y-42001201D03*
X93091000Y-44541201D03*
X93091000Y-47081201D03*
X93091000Y-49621201D03*
X93091000Y-52161201D03*
X93091000Y-54701201D03*
D12*
X93091000Y-57241201D03*
D10*
X95631000Y-39461201D03*
D11*
X95631000Y-42001201D03*
X95631000Y-44541201D03*
X95631000Y-47081201D03*
X95631000Y-49621201D03*
X95631000Y-52161201D03*
X95631000Y-54701201D03*
D12*
X95631000Y-57241201D03*
D10*
X98171000Y-39461201D03*
D11*
X98171000Y-42001201D03*
X98171000Y-44541201D03*
X98171000Y-47081201D03*
X98171000Y-49621201D03*
X98171000Y-52161201D03*
X98171000Y-54701201D03*
D12*
X98171000Y-57241201D03*
D10*
X100711000Y-39461201D03*
D11*
X100711000Y-42001201D03*
X100711000Y-44541201D03*
X100711000Y-47081201D03*
X100711000Y-49621201D03*
X100711000Y-52161201D03*
X100711000Y-54701201D03*
D12*
X100711000Y-57241201D03*
D10*
X103251000Y-39461201D03*
D11*
X103251000Y-42001201D03*
X103251000Y-44541201D03*
X103251000Y-47081201D03*
X103251000Y-49621201D03*
X103251000Y-52161201D03*
X103251000Y-54701201D03*
D12*
X103251000Y-57241201D03*
D10*
X105791000Y-39461201D03*
D11*
X105791000Y-42001201D03*
X105791000Y-44541201D03*
X105791000Y-47081201D03*
X105791000Y-49621201D03*
X105791000Y-52161201D03*
X105791000Y-54701201D03*
D12*
X105791000Y-57241201D03*
D10*
X108331000Y-39461201D03*
D11*
X108331000Y-42001201D03*
X108331000Y-44541201D03*
X108331000Y-47081201D03*
X108331000Y-49621201D03*
X108331000Y-52161201D03*
X108331000Y-54701201D03*
D12*
X108331000Y-57241201D03*
D10*
X110871000Y-39461201D03*
D11*
X110871000Y-42001201D03*
X110871000Y-44541201D03*
X110871000Y-47081201D03*
X110871000Y-49621201D03*
X110871000Y-52161201D03*
X110871000Y-54701201D03*
D12*
X110871000Y-57241201D03*
D10*
X113411000Y-39461201D03*
D11*
X113411000Y-42001201D03*
X113411000Y-44541201D03*
X113411000Y-47081201D03*
X113411000Y-49621201D03*
X113411000Y-52161201D03*
X113411000Y-54701201D03*
D12*
X113411000Y-57241201D03*
D10*
X115951000Y-39461201D03*
D11*
X115951000Y-42001201D03*
X115951000Y-44541201D03*
X115951000Y-47081201D03*
X115951000Y-49621201D03*
X115951000Y-52161201D03*
X115951000Y-54701201D03*
D12*
X115951000Y-57241201D03*
D10*
X118491000Y-39461201D03*
D11*
X118491000Y-42001201D03*
X118491000Y-44541201D03*
X118491000Y-47081201D03*
X118491000Y-49621201D03*
X118491000Y-52161201D03*
X118491000Y-54701201D03*
D12*
X118491000Y-57241201D03*
D10*
X121031000Y-39461201D03*
D11*
X121031000Y-42001201D03*
X121031000Y-44541201D03*
X121031000Y-47081201D03*
X121031000Y-49621201D03*
X121031000Y-52161201D03*
X121031000Y-54701201D03*
D12*
X121031000Y-57241201D03*
D10*
X123571000Y-39461201D03*
D11*
X123571000Y-42001201D03*
X123571000Y-44541201D03*
X123571000Y-47081201D03*
X123571000Y-49621201D03*
X123571000Y-52161201D03*
X123571000Y-54701201D03*
D12*
X123571000Y-57241201D03*
D10*
X126111000Y-39461201D03*
D11*
X126111000Y-42001201D03*
X126111000Y-44541201D03*
X126111000Y-47081201D03*
X126111000Y-49621201D03*
X126111000Y-52161201D03*
X126111000Y-54701201D03*
D12*
X126111000Y-57241201D03*
D10*
X128651000Y-39461201D03*
D11*
X128651000Y-42001201D03*
X128651000Y-44541201D03*
X128651000Y-47081201D03*
X128651000Y-49621201D03*
X128651000Y-52161201D03*
X128651000Y-54701201D03*
D12*
X128651000Y-57241201D03*
D10*
X131191000Y-39461201D03*
D11*
X131191000Y-42001201D03*
X131191000Y-44541201D03*
X131191000Y-47081201D03*
X131191000Y-49621201D03*
X131191000Y-52161201D03*
X131191000Y-54701201D03*
D12*
X131191000Y-57241201D03*
D10*
X133731000Y-39461201D03*
D11*
X133731000Y-42001201D03*
X133731000Y-44541201D03*
X133731000Y-47081201D03*
X133731000Y-49621201D03*
X133731000Y-52161201D03*
X133731000Y-54701201D03*
D12*
X133731000Y-57241201D03*
D10*
X136271000Y-39461201D03*
D11*
X136271000Y-42001201D03*
X136271000Y-44541201D03*
X136271000Y-47081201D03*
X136271000Y-49621201D03*
X136271000Y-52161201D03*
X136271000Y-54701201D03*
D12*
X136271000Y-57241201D03*
D10*
X138811000Y-39461201D03*
D11*
X138811000Y-42001201D03*
X138811000Y-44541201D03*
X138811000Y-47081201D03*
X138811000Y-49621201D03*
X138811000Y-52161201D03*
X138811000Y-54701201D03*
D12*
X138811000Y-57241201D03*
%TD*%
D10*
%TO.C,J2*%
X65151000Y-59781201D03*
D11*
X65151000Y-62321201D03*
X65151000Y-64861201D03*
X65151000Y-67401201D03*
X65151000Y-69941201D03*
X65151000Y-72481201D03*
X65151000Y-75021201D03*
D12*
X65151000Y-77561201D03*
D10*
X67691000Y-59781201D03*
D11*
X67691000Y-62321201D03*
X67691000Y-64861201D03*
X67691000Y-67401201D03*
X67691000Y-69941201D03*
X67691000Y-72481201D03*
X67691000Y-75021201D03*
D12*
X67691000Y-77561201D03*
D10*
X70231000Y-59781201D03*
D11*
X70231000Y-62321201D03*
X70231000Y-64861201D03*
X70231000Y-67401201D03*
X70231000Y-69941201D03*
X70231000Y-72481201D03*
X70231000Y-75021201D03*
D12*
X70231000Y-77561201D03*
D10*
X72771000Y-59781201D03*
D11*
X72771000Y-62321201D03*
X72771000Y-64861201D03*
X72771000Y-67401201D03*
X72771000Y-69941201D03*
X72771000Y-72481201D03*
X72771000Y-75021201D03*
D12*
X72771000Y-77561201D03*
D10*
X75311000Y-59781201D03*
D11*
X75311000Y-62321201D03*
X75311000Y-64861201D03*
X75311000Y-67401201D03*
X75311000Y-69941201D03*
X75311000Y-72481201D03*
X75311000Y-75021201D03*
D12*
X75311000Y-77561201D03*
D10*
X77851000Y-59781201D03*
D11*
X77851000Y-62321201D03*
X77851000Y-64861201D03*
X77851000Y-67401201D03*
X77851000Y-69941201D03*
X77851000Y-72481201D03*
X77851000Y-75021201D03*
D12*
X77851000Y-77561201D03*
D10*
X80391000Y-59781201D03*
D11*
X80391000Y-62321201D03*
X80391000Y-64861201D03*
X80391000Y-67401201D03*
X80391000Y-69941201D03*
X80391000Y-72481201D03*
X80391000Y-75021201D03*
D12*
X80391000Y-77561201D03*
D10*
X82931000Y-59781201D03*
D11*
X82931000Y-62321201D03*
X82931000Y-64861201D03*
X82931000Y-67401201D03*
X82931000Y-69941201D03*
X82931000Y-72481201D03*
X82931000Y-75021201D03*
D12*
X82931000Y-77561201D03*
D10*
X85471000Y-59781201D03*
D11*
X85471000Y-62321201D03*
X85471000Y-64861201D03*
X85471000Y-67401201D03*
X85471000Y-69941201D03*
X85471000Y-72481201D03*
X85471000Y-75021201D03*
D12*
X85471000Y-77561201D03*
D10*
X88011000Y-59781201D03*
D11*
X88011000Y-62321201D03*
X88011000Y-64861201D03*
X88011000Y-67401201D03*
X88011000Y-69941201D03*
X88011000Y-72481201D03*
X88011000Y-75021201D03*
D12*
X88011000Y-77561201D03*
D10*
X90551000Y-59781201D03*
D11*
X90551000Y-62321201D03*
X90551000Y-64861201D03*
X90551000Y-67401201D03*
X90551000Y-69941201D03*
X90551000Y-72481201D03*
X90551000Y-75021201D03*
D12*
X90551000Y-77561201D03*
D10*
X93091000Y-59781201D03*
D11*
X93091000Y-62321201D03*
X93091000Y-64861201D03*
X93091000Y-67401201D03*
X93091000Y-69941201D03*
X93091000Y-72481201D03*
X93091000Y-75021201D03*
D12*
X93091000Y-77561201D03*
D10*
X95631000Y-59781201D03*
D11*
X95631000Y-62321201D03*
X95631000Y-64861201D03*
X95631000Y-67401201D03*
X95631000Y-69941201D03*
X95631000Y-72481201D03*
X95631000Y-75021201D03*
D12*
X95631000Y-77561201D03*
D10*
X98171000Y-59781201D03*
D11*
X98171000Y-62321201D03*
X98171000Y-64861201D03*
X98171000Y-67401201D03*
X98171000Y-69941201D03*
X98171000Y-72481201D03*
X98171000Y-75021201D03*
D12*
X98171000Y-77561201D03*
D10*
X100711000Y-59781201D03*
D11*
X100711000Y-62321201D03*
X100711000Y-64861201D03*
X100711000Y-67401201D03*
X100711000Y-69941201D03*
X100711000Y-72481201D03*
X100711000Y-75021201D03*
D12*
X100711000Y-77561201D03*
D10*
X103251000Y-59781201D03*
D11*
X103251000Y-62321201D03*
X103251000Y-64861201D03*
X103251000Y-67401201D03*
X103251000Y-69941201D03*
X103251000Y-72481201D03*
X103251000Y-75021201D03*
D12*
X103251000Y-77561201D03*
D10*
X105791000Y-59781201D03*
D11*
X105791000Y-62321201D03*
X105791000Y-64861201D03*
X105791000Y-67401201D03*
X105791000Y-69941201D03*
X105791000Y-72481201D03*
X105791000Y-75021201D03*
D12*
X105791000Y-77561201D03*
D10*
X108331000Y-59781201D03*
D11*
X108331000Y-62321201D03*
X108331000Y-64861201D03*
X108331000Y-67401201D03*
X108331000Y-69941201D03*
X108331000Y-72481201D03*
X108331000Y-75021201D03*
D12*
X108331000Y-77561201D03*
D10*
X110871000Y-59781201D03*
D11*
X110871000Y-62321201D03*
X110871000Y-64861201D03*
X110871000Y-67401201D03*
X110871000Y-69941201D03*
X110871000Y-72481201D03*
X110871000Y-75021201D03*
D12*
X110871000Y-77561201D03*
D10*
X113411000Y-59781201D03*
D11*
X113411000Y-62321201D03*
X113411000Y-64861201D03*
X113411000Y-67401201D03*
X113411000Y-69941201D03*
X113411000Y-72481201D03*
X113411000Y-75021201D03*
D12*
X113411000Y-77561201D03*
D10*
X115951000Y-59781201D03*
D11*
X115951000Y-62321201D03*
X115951000Y-64861201D03*
X115951000Y-67401201D03*
X115951000Y-69941201D03*
X115951000Y-72481201D03*
X115951000Y-75021201D03*
D12*
X115951000Y-77561201D03*
D10*
X118491000Y-59781201D03*
D11*
X118491000Y-62321201D03*
X118491000Y-64861201D03*
X118491000Y-67401201D03*
X118491000Y-69941201D03*
X118491000Y-72481201D03*
X118491000Y-75021201D03*
D12*
X118491000Y-77561201D03*
D10*
X121031000Y-59781201D03*
D11*
X121031000Y-62321201D03*
X121031000Y-64861201D03*
X121031000Y-67401201D03*
X121031000Y-69941201D03*
X121031000Y-72481201D03*
X121031000Y-75021201D03*
D12*
X121031000Y-77561201D03*
D10*
X123571000Y-59781201D03*
D11*
X123571000Y-62321201D03*
X123571000Y-64861201D03*
X123571000Y-67401201D03*
X123571000Y-69941201D03*
X123571000Y-72481201D03*
X123571000Y-75021201D03*
D12*
X123571000Y-77561201D03*
D10*
X126111000Y-59781201D03*
D11*
X126111000Y-62321201D03*
X126111000Y-64861201D03*
X126111000Y-67401201D03*
X126111000Y-69941201D03*
X126111000Y-72481201D03*
X126111000Y-75021201D03*
D12*
X126111000Y-77561201D03*
D10*
X128651000Y-59781201D03*
D11*
X128651000Y-62321201D03*
X128651000Y-64861201D03*
X128651000Y-67401201D03*
X128651000Y-69941201D03*
X128651000Y-72481201D03*
X128651000Y-75021201D03*
D12*
X128651000Y-77561201D03*
D10*
X131191000Y-59781201D03*
D11*
X131191000Y-62321201D03*
X131191000Y-64861201D03*
X131191000Y-67401201D03*
X131191000Y-69941201D03*
X131191000Y-72481201D03*
X131191000Y-75021201D03*
D12*
X131191000Y-77561201D03*
D10*
X133731000Y-59781201D03*
D11*
X133731000Y-62321201D03*
X133731000Y-64861201D03*
X133731000Y-67401201D03*
X133731000Y-69941201D03*
X133731000Y-72481201D03*
X133731000Y-75021201D03*
D12*
X133731000Y-77561201D03*
D10*
X136271000Y-59781201D03*
D11*
X136271000Y-62321201D03*
X136271000Y-64861201D03*
X136271000Y-67401201D03*
X136271000Y-69941201D03*
X136271000Y-72481201D03*
X136271000Y-75021201D03*
D12*
X136271000Y-77561201D03*
D10*
X138811000Y-59781201D03*
D11*
X138811000Y-62321201D03*
X138811000Y-64861201D03*
X138811000Y-67401201D03*
X138811000Y-69941201D03*
X138811000Y-72481201D03*
X138811000Y-75021201D03*
D12*
X138811000Y-77561201D03*
%TD*%
D13*
%TO.C,TP24*%
X65151000Y-31826200D03*
X67691000Y-31826200D03*
X70231000Y-31826200D03*
X72771000Y-31826200D03*
X77851000Y-31826200D03*
X80391000Y-31826200D03*
X82931000Y-31826200D03*
X85471000Y-31826200D03*
X90551000Y-31826200D03*
X93091000Y-31826200D03*
X95631000Y-31826200D03*
X98171000Y-31826200D03*
X103251000Y-31826200D03*
X105791000Y-31826200D03*
X108331000Y-31826200D03*
X110871000Y-31826200D03*
X115951000Y-31826200D03*
X118491000Y-31826200D03*
X121031000Y-31826200D03*
X123571000Y-31826200D03*
X128651000Y-31826200D03*
X131191000Y-31826200D03*
X133731000Y-31826200D03*
X136271000Y-31826200D03*
%TD*%
%TO.C,TP26*%
X65151000Y-34366200D03*
X67691000Y-34366200D03*
X70231000Y-34366200D03*
X72771000Y-34366200D03*
X77851000Y-34366200D03*
X80391000Y-34366200D03*
X82931000Y-34366200D03*
X85471000Y-34366200D03*
X90551000Y-34366200D03*
X93091000Y-34366200D03*
X95631000Y-34366200D03*
X98171000Y-34366200D03*
X103251000Y-34366200D03*
X105791000Y-34366200D03*
X108331000Y-34366200D03*
X110871000Y-34366200D03*
X115951000Y-34366200D03*
X118491000Y-34366200D03*
X121031000Y-34366200D03*
X123571000Y-34366200D03*
X128651000Y-34366200D03*
X131191000Y-34366200D03*
X133731000Y-34366200D03*
X136271000Y-34366200D03*
%TD*%
%TO.C,TP28*%
X65151000Y-82626200D03*
X67691000Y-82626200D03*
X70231000Y-82626200D03*
X72771000Y-82626200D03*
X77851000Y-82626200D03*
X80391000Y-82626200D03*
X82931000Y-82626200D03*
X85471000Y-82626200D03*
X90551000Y-82626200D03*
X93091000Y-82626200D03*
X95631000Y-82626200D03*
X98171000Y-82626200D03*
X103251000Y-82626200D03*
X105791000Y-82626200D03*
X108331000Y-82626200D03*
X110871000Y-82626200D03*
X115951000Y-82626200D03*
X118491000Y-82626200D03*
X121031000Y-82626200D03*
X123571000Y-82626200D03*
X128651000Y-82626200D03*
X131191000Y-82626200D03*
X133731000Y-82626200D03*
X136271000Y-82626200D03*
%TD*%
%TO.C,TP30*%
X65151000Y-85166200D03*
X67691000Y-85166200D03*
X70231000Y-85166200D03*
X72771000Y-85166200D03*
X77851000Y-85166200D03*
X80391000Y-85166200D03*
X82931000Y-85166200D03*
X85471000Y-85166200D03*
X90551000Y-85166200D03*
X93091000Y-85166200D03*
X95631000Y-85166200D03*
X98171000Y-85166200D03*
X103251000Y-85166200D03*
X105791000Y-85166200D03*
X108331000Y-85166200D03*
X110871000Y-85166200D03*
X115951000Y-85166200D03*
X118491000Y-85166200D03*
X121031000Y-85166200D03*
X123571000Y-85166200D03*
X128651000Y-85166200D03*
X131191000Y-85166200D03*
X133731000Y-85166200D03*
X136271000Y-85166200D03*
%TD*%
D14*
%TO.C,J11*%
X84175600Y-22453600D03*
X85445600Y-22453600D03*
X86715600Y-22453600D03*
X87985600Y-22453600D03*
X89255600Y-22453600D03*
X90525600Y-22453600D03*
X91795600Y-22453600D03*
X93065600Y-22453600D03*
X94335600Y-22453600D03*
X95605600Y-22453600D03*
X96875600Y-22453600D03*
X98145600Y-22453600D03*
X99415600Y-22453600D03*
X100685600Y-22453600D03*
X101955600Y-22453600D03*
X103225600Y-22453600D03*
X104495600Y-22453600D03*
X105765600Y-22453600D03*
X107035600Y-22453600D03*
X108305600Y-22453600D03*
X109575600Y-22453600D03*
X110845600Y-22453600D03*
X112115600Y-22453600D03*
X113385600Y-22453600D03*
X114655600Y-22453600D03*
X115925600Y-22453600D03*
X117195600Y-22453600D03*
X118465600Y-22453600D03*
X119735600Y-22453600D03*
X121005600Y-22453600D03*
X122275600Y-22453600D03*
X123545600Y-22453600D03*
X80365600Y-22453600D03*
X81635600Y-22453600D03*
X82905600Y-22453600D03*
%TD*%
D15*
%TO.C,J12*%
X84201000Y-94488000D03*
X85471000Y-94488000D03*
X86741000Y-94488000D03*
X88011000Y-94488000D03*
X89281000Y-94488000D03*
X90551000Y-94488000D03*
X91821000Y-94488000D03*
X93091000Y-94488000D03*
X94361000Y-94488000D03*
X95631000Y-94488000D03*
X96901000Y-94488000D03*
X98171000Y-94488000D03*
X99441000Y-94488000D03*
X100711000Y-94488000D03*
X101981000Y-94488000D03*
X103251000Y-94488000D03*
X104521000Y-94488000D03*
X105791000Y-94488000D03*
X107061000Y-94488000D03*
X108331000Y-94488000D03*
X109601000Y-94488000D03*
X110871000Y-94488000D03*
X112141000Y-94488000D03*
X113411000Y-94488000D03*
X114681000Y-94488000D03*
X115951000Y-94488000D03*
X117221000Y-94488000D03*
X118491000Y-94488000D03*
X119761000Y-94488000D03*
X121031000Y-94488000D03*
X122301000Y-94488000D03*
X123571000Y-94488000D03*
X80391000Y-94488000D03*
X81661000Y-94488000D03*
X82931000Y-94488000D03*
%TD*%
M02*
