%TF.GenerationSoftware,KiCad,Pcbnew,7.0.7*%
%TF.CreationDate,2024-02-23T14:46:43-08:00*%
%TF.ProjectId,JluxR2protoboard,4a6c7578-5232-4707-926f-746f626f6172,rev?*%
%TF.SameCoordinates,Original*%
%TF.FileFunction,Drillmap*%
%TF.FilePolarity,Positive*%
%FSLAX45Y45*%
G04 Gerber Fmt 4.5, Leading zero omitted, Abs format (unit mm)*
G04 Created by KiCad (PCBNEW 7.0.7) date 2024-02-23 14:46:43*
%MOMM*%
%LPD*%
G01*
G04 APERTURE LIST*
%ADD10C,0.050000*%
%ADD11C,0.200000*%
G04 APERTURE END LIST*
D10*
X12468860Y-2677160D02*
X14018260Y-2677160D01*
X7922260Y-2550160D02*
X7922260Y-2677160D01*
X6070600Y-2984500D02*
X6070600Y-8686800D01*
X6400800Y-9017000D02*
X6070600Y-8686800D01*
X12471400Y-9017000D02*
X14020800Y-9017000D01*
X7924800Y-9017000D02*
X6400800Y-9017000D01*
X14018260Y-2677160D02*
X14325600Y-2984500D01*
X12471400Y-9144000D02*
X12471400Y-9017000D01*
X12468860Y-2550160D02*
X12468860Y-2677160D01*
X7922260Y-2677160D02*
X6377940Y-2677160D01*
X6377940Y-2677160D02*
X6070600Y-2984500D01*
X7924800Y-9144000D02*
X7924800Y-9017000D01*
X14325600Y-2984500D02*
X14325600Y-8712200D01*
X14020800Y-9017000D02*
X14325600Y-8712200D01*
D11*
X6328877Y-10168684D02*
X6328877Y-9968684D01*
X6328877Y-9968684D02*
X6376496Y-9968684D01*
X6376496Y-9968684D02*
X6405067Y-9978208D01*
X6405067Y-9978208D02*
X6424115Y-9997255D01*
X6424115Y-9997255D02*
X6433639Y-10016303D01*
X6433639Y-10016303D02*
X6443162Y-10054398D01*
X6443162Y-10054398D02*
X6443162Y-10082970D01*
X6443162Y-10082970D02*
X6433639Y-10121065D01*
X6433639Y-10121065D02*
X6424115Y-10140112D01*
X6424115Y-10140112D02*
X6405067Y-10159160D01*
X6405067Y-10159160D02*
X6376496Y-10168684D01*
X6376496Y-10168684D02*
X6328877Y-10168684D01*
X6528877Y-10168684D02*
X6528877Y-10035350D01*
X6528877Y-10073446D02*
X6538401Y-10054398D01*
X6538401Y-10054398D02*
X6547924Y-10044874D01*
X6547924Y-10044874D02*
X6566972Y-10035350D01*
X6566972Y-10035350D02*
X6586020Y-10035350D01*
X6652686Y-10168684D02*
X6652686Y-10035350D01*
X6652686Y-9968684D02*
X6643162Y-9978208D01*
X6643162Y-9978208D02*
X6652686Y-9987731D01*
X6652686Y-9987731D02*
X6662210Y-9978208D01*
X6662210Y-9978208D02*
X6652686Y-9968684D01*
X6652686Y-9968684D02*
X6652686Y-9987731D01*
X6776496Y-10168684D02*
X6757448Y-10159160D01*
X6757448Y-10159160D02*
X6747924Y-10140112D01*
X6747924Y-10140112D02*
X6747924Y-9968684D01*
X6881258Y-10168684D02*
X6862210Y-10159160D01*
X6862210Y-10159160D02*
X6852686Y-10140112D01*
X6852686Y-10140112D02*
X6852686Y-9968684D01*
X7109829Y-10168684D02*
X7109829Y-9968684D01*
X7109829Y-9968684D02*
X7176496Y-10111541D01*
X7176496Y-10111541D02*
X7243162Y-9968684D01*
X7243162Y-9968684D02*
X7243162Y-10168684D01*
X7424115Y-10168684D02*
X7424115Y-10063922D01*
X7424115Y-10063922D02*
X7414591Y-10044874D01*
X7414591Y-10044874D02*
X7395543Y-10035350D01*
X7395543Y-10035350D02*
X7357448Y-10035350D01*
X7357448Y-10035350D02*
X7338401Y-10044874D01*
X7424115Y-10159160D02*
X7405067Y-10168684D01*
X7405067Y-10168684D02*
X7357448Y-10168684D01*
X7357448Y-10168684D02*
X7338401Y-10159160D01*
X7338401Y-10159160D02*
X7328877Y-10140112D01*
X7328877Y-10140112D02*
X7328877Y-10121065D01*
X7328877Y-10121065D02*
X7338401Y-10102017D01*
X7338401Y-10102017D02*
X7357448Y-10092493D01*
X7357448Y-10092493D02*
X7405067Y-10092493D01*
X7405067Y-10092493D02*
X7424115Y-10082970D01*
X7519353Y-10035350D02*
X7519353Y-10235350D01*
X7519353Y-10044874D02*
X7538401Y-10035350D01*
X7538401Y-10035350D02*
X7576496Y-10035350D01*
X7576496Y-10035350D02*
X7595543Y-10044874D01*
X7595543Y-10044874D02*
X7605067Y-10054398D01*
X7605067Y-10054398D02*
X7614591Y-10073446D01*
X7614591Y-10073446D02*
X7614591Y-10130589D01*
X7614591Y-10130589D02*
X7605067Y-10149636D01*
X7605067Y-10149636D02*
X7595543Y-10159160D01*
X7595543Y-10159160D02*
X7576496Y-10168684D01*
X7576496Y-10168684D02*
X7538401Y-10168684D01*
X7538401Y-10168684D02*
X7519353Y-10159160D01*
X7700305Y-10149636D02*
X7709829Y-10159160D01*
X7709829Y-10159160D02*
X7700305Y-10168684D01*
X7700305Y-10168684D02*
X7690782Y-10159160D01*
X7690782Y-10159160D02*
X7700305Y-10149636D01*
X7700305Y-10149636D02*
X7700305Y-10168684D01*
X7700305Y-10044874D02*
X7709829Y-10054398D01*
X7709829Y-10054398D02*
X7700305Y-10063922D01*
X7700305Y-10063922D02*
X7690782Y-10054398D01*
X7690782Y-10054398D02*
X7700305Y-10044874D01*
X7700305Y-10044874D02*
X7700305Y-10063922D01*
M02*
