M48
; DRILL file {KiCad 7.0.7} date 2024 February 23, Friday 14:46:43
; FORMAT={-:-/ absolute / metric / decimal}
; #@! TF.CreationDate,2024-02-23T14:46:43-08:00
; #@! TF.GenerationSoftware,Kicad,Pcbnew,7.0.7
; #@! TF.FileFunction,Plated,1,4,PTH
FMAT,2
METRIC
; #@! TA.AperFunction,Plated,PTH,ViaDrill
T1C0.250
; #@! TA.AperFunction,Plated,PTH,ComponentDrill
T2C0.750
; #@! TA.AperFunction,Plated,PTH,ComponentDrill
T3C1.000
%
G90
G05
T1
X80.391Y-91.059
X80.518Y-26.289
X81.134Y-90.471
X81.501Y-26.322
X82.129Y-90.424
X82.296Y-26.162
X82.931Y-91.186
X83.058Y-25.654
X121.583Y-91.22
X121.706Y-25.929
X122.172Y-90.424
X122.377Y-26.467
X122.969Y-90.932
X123.148Y-26.552
X123.626Y-90.255
X123.823Y-25.996
T2
X65.151Y-31.826
X65.151Y-34.366
X65.151Y-82.626
X65.151Y-85.166
X67.691Y-31.826
X67.691Y-34.366
X67.691Y-82.626
X67.691Y-85.166
X70.231Y-31.826
X70.231Y-34.366
X70.231Y-82.626
X70.231Y-85.166
X72.771Y-31.826
X72.771Y-34.366
X72.771Y-82.626
X72.771Y-85.166
X77.851Y-31.826
X77.851Y-34.366
X77.851Y-82.626
X77.851Y-85.166
X80.391Y-31.826
X80.391Y-34.366
X80.391Y-82.626
X80.391Y-85.166
X82.931Y-31.826
X82.931Y-34.366
X82.931Y-82.626
X82.931Y-85.166
X85.471Y-31.826
X85.471Y-34.366
X85.471Y-82.626
X85.471Y-85.166
X90.551Y-31.826
X90.551Y-34.366
X90.551Y-82.626
X90.551Y-85.166
X93.091Y-31.826
X93.091Y-34.366
X93.091Y-82.626
X93.091Y-85.166
X95.631Y-31.826
X95.631Y-34.366
X95.631Y-82.626
X95.631Y-85.166
X98.171Y-31.826
X98.171Y-34.366
X98.171Y-82.626
X98.171Y-85.166
X103.251Y-31.826
X103.251Y-34.366
X103.251Y-82.626
X103.251Y-85.166
X105.791Y-31.826
X105.791Y-34.366
X105.791Y-82.626
X105.791Y-85.166
X108.331Y-31.826
X108.331Y-34.366
X108.331Y-82.626
X108.331Y-85.166
X110.871Y-31.826
X110.871Y-34.366
X110.871Y-82.626
X110.871Y-85.166
X115.951Y-31.826
X115.951Y-34.366
X115.951Y-82.626
X115.951Y-85.166
X118.491Y-31.826
X118.491Y-34.366
X118.491Y-82.626
X118.491Y-85.166
X121.031Y-31.826
X121.031Y-34.366
X121.031Y-82.626
X121.031Y-85.166
X123.571Y-31.826
X123.571Y-34.366
X123.571Y-82.626
X123.571Y-85.166
X128.651Y-31.826
X128.651Y-34.366
X128.651Y-82.626
X128.651Y-85.166
X131.191Y-31.826
X131.191Y-34.366
X131.191Y-82.626
X131.191Y-85.166
X133.731Y-31.826
X133.731Y-34.366
X133.731Y-82.626
X133.731Y-85.166
X136.271Y-31.826
X136.271Y-34.366
X136.271Y-82.626
X136.271Y-85.166
T3
X65.151Y-39.461
X65.151Y-42.001
X65.151Y-44.541
X65.151Y-47.081
X65.151Y-49.621
X65.151Y-52.161
X65.151Y-54.701
X65.151Y-57.241
X65.151Y-59.781
X65.151Y-62.321
X65.151Y-64.861
X65.151Y-67.401
X65.151Y-69.941
X65.151Y-72.481
X65.151Y-75.021
X65.151Y-77.561
X67.691Y-39.461
X67.691Y-42.001
X67.691Y-44.541
X67.691Y-47.081
X67.691Y-49.621
X67.691Y-52.161
X67.691Y-54.701
X67.691Y-57.241
X67.691Y-59.781
X67.691Y-62.321
X67.691Y-64.861
X67.691Y-67.401
X67.691Y-69.941
X67.691Y-72.481
X67.691Y-75.021
X67.691Y-77.561
X70.231Y-39.461
X70.231Y-42.001
X70.231Y-44.541
X70.231Y-47.081
X70.231Y-49.621
X70.231Y-52.161
X70.231Y-54.701
X70.231Y-57.241
X70.231Y-59.781
X70.231Y-62.321
X70.231Y-64.861
X70.231Y-67.401
X70.231Y-69.941
X70.231Y-72.481
X70.231Y-75.021
X70.231Y-77.561
X72.771Y-39.461
X72.771Y-42.001
X72.771Y-44.541
X72.771Y-47.081
X72.771Y-49.621
X72.771Y-52.161
X72.771Y-54.701
X72.771Y-57.241
X72.771Y-59.781
X72.771Y-62.321
X72.771Y-64.861
X72.771Y-67.401
X72.771Y-69.941
X72.771Y-72.481
X72.771Y-75.021
X72.771Y-77.561
X75.311Y-39.461
X75.311Y-42.001
X75.311Y-44.541
X75.311Y-47.081
X75.311Y-49.621
X75.311Y-52.161
X75.311Y-54.701
X75.311Y-57.241
X75.311Y-59.781
X75.311Y-62.321
X75.311Y-64.861
X75.311Y-67.401
X75.311Y-69.941
X75.311Y-72.481
X75.311Y-75.021
X75.311Y-77.561
X77.851Y-39.461
X77.851Y-42.001
X77.851Y-44.541
X77.851Y-47.081
X77.851Y-49.621
X77.851Y-52.161
X77.851Y-54.701
X77.851Y-57.241
X77.851Y-59.781
X77.851Y-62.321
X77.851Y-64.861
X77.851Y-67.401
X77.851Y-69.941
X77.851Y-72.481
X77.851Y-75.021
X77.851Y-77.561
X80.391Y-39.461
X80.391Y-42.001
X80.391Y-44.541
X80.391Y-47.081
X80.391Y-49.621
X80.391Y-52.161
X80.391Y-54.701
X80.391Y-57.241
X80.391Y-59.781
X80.391Y-62.321
X80.391Y-64.861
X80.391Y-67.401
X80.391Y-69.941
X80.391Y-72.481
X80.391Y-75.021
X80.391Y-77.561
X82.931Y-39.461
X82.931Y-42.001
X82.931Y-44.541
X82.931Y-47.081
X82.931Y-49.621
X82.931Y-52.161
X82.931Y-54.701
X82.931Y-57.241
X82.931Y-59.781
X82.931Y-62.321
X82.931Y-64.861
X82.931Y-67.401
X82.931Y-69.941
X82.931Y-72.481
X82.931Y-75.021
X82.931Y-77.561
X85.471Y-39.461
X85.471Y-42.001
X85.471Y-44.541
X85.471Y-47.081
X85.471Y-49.621
X85.471Y-52.161
X85.471Y-54.701
X85.471Y-57.241
X85.471Y-59.781
X85.471Y-62.321
X85.471Y-64.861
X85.471Y-67.401
X85.471Y-69.941
X85.471Y-72.481
X85.471Y-75.021
X85.471Y-77.561
X88.011Y-39.461
X88.011Y-42.001
X88.011Y-44.541
X88.011Y-47.081
X88.011Y-49.621
X88.011Y-52.161
X88.011Y-54.701
X88.011Y-57.241
X88.011Y-59.781
X88.011Y-62.321
X88.011Y-64.861
X88.011Y-67.401
X88.011Y-69.941
X88.011Y-72.481
X88.011Y-75.021
X88.011Y-77.561
X90.551Y-39.461
X90.551Y-42.001
X90.551Y-44.541
X90.551Y-47.081
X90.551Y-49.621
X90.551Y-52.161
X90.551Y-54.701
X90.551Y-57.241
X90.551Y-59.781
X90.551Y-62.321
X90.551Y-64.861
X90.551Y-67.401
X90.551Y-69.941
X90.551Y-72.481
X90.551Y-75.021
X90.551Y-77.561
X93.091Y-39.461
X93.091Y-42.001
X93.091Y-44.541
X93.091Y-47.081
X93.091Y-49.621
X93.091Y-52.161
X93.091Y-54.701
X93.091Y-57.241
X93.091Y-59.781
X93.091Y-62.321
X93.091Y-64.861
X93.091Y-67.401
X93.091Y-69.941
X93.091Y-72.481
X93.091Y-75.021
X93.091Y-77.561
X95.631Y-39.461
X95.631Y-42.001
X95.631Y-44.541
X95.631Y-47.081
X95.631Y-49.621
X95.631Y-52.161
X95.631Y-54.701
X95.631Y-57.241
X95.631Y-59.781
X95.631Y-62.321
X95.631Y-64.861
X95.631Y-67.401
X95.631Y-69.941
X95.631Y-72.481
X95.631Y-75.021
X95.631Y-77.561
X98.171Y-39.461
X98.171Y-42.001
X98.171Y-44.541
X98.171Y-47.081
X98.171Y-49.621
X98.171Y-52.161
X98.171Y-54.701
X98.171Y-57.241
X98.171Y-59.781
X98.171Y-62.321
X98.171Y-64.861
X98.171Y-67.401
X98.171Y-69.941
X98.171Y-72.481
X98.171Y-75.021
X98.171Y-77.561
X100.711Y-39.461
X100.711Y-42.001
X100.711Y-44.541
X100.711Y-47.081
X100.711Y-49.621
X100.711Y-52.161
X100.711Y-54.701
X100.711Y-57.241
X100.711Y-59.781
X100.711Y-62.321
X100.711Y-64.861
X100.711Y-67.401
X100.711Y-69.941
X100.711Y-72.481
X100.711Y-75.021
X100.711Y-77.561
X103.251Y-39.461
X103.251Y-42.001
X103.251Y-44.541
X103.251Y-47.081
X103.251Y-49.621
X103.251Y-52.161
X103.251Y-54.701
X103.251Y-57.241
X103.251Y-59.781
X103.251Y-62.321
X103.251Y-64.861
X103.251Y-67.401
X103.251Y-69.941
X103.251Y-72.481
X103.251Y-75.021
X103.251Y-77.561
X105.791Y-39.461
X105.791Y-42.001
X105.791Y-44.541
X105.791Y-47.081
X105.791Y-49.621
X105.791Y-52.161
X105.791Y-54.701
X105.791Y-57.241
X105.791Y-59.781
X105.791Y-62.321
X105.791Y-64.861
X105.791Y-67.401
X105.791Y-69.941
X105.791Y-72.481
X105.791Y-75.021
X105.791Y-77.561
X108.331Y-39.461
X108.331Y-42.001
X108.331Y-44.541
X108.331Y-47.081
X108.331Y-49.621
X108.331Y-52.161
X108.331Y-54.701
X108.331Y-57.241
X108.331Y-59.781
X108.331Y-62.321
X108.331Y-64.861
X108.331Y-67.401
X108.331Y-69.941
X108.331Y-72.481
X108.331Y-75.021
X108.331Y-77.561
X110.871Y-39.461
X110.871Y-42.001
X110.871Y-44.541
X110.871Y-47.081
X110.871Y-49.621
X110.871Y-52.161
X110.871Y-54.701
X110.871Y-57.241
X110.871Y-59.781
X110.871Y-62.321
X110.871Y-64.861
X110.871Y-67.401
X110.871Y-69.941
X110.871Y-72.481
X110.871Y-75.021
X110.871Y-77.561
X113.411Y-39.461
X113.411Y-42.001
X113.411Y-44.541
X113.411Y-47.081
X113.411Y-49.621
X113.411Y-52.161
X113.411Y-54.701
X113.411Y-57.241
X113.411Y-59.781
X113.411Y-62.321
X113.411Y-64.861
X113.411Y-67.401
X113.411Y-69.941
X113.411Y-72.481
X113.411Y-75.021
X113.411Y-77.561
X115.951Y-39.461
X115.951Y-42.001
X115.951Y-44.541
X115.951Y-47.081
X115.951Y-49.621
X115.951Y-52.161
X115.951Y-54.701
X115.951Y-57.241
X115.951Y-59.781
X115.951Y-62.321
X115.951Y-64.861
X115.951Y-67.401
X115.951Y-69.941
X115.951Y-72.481
X115.951Y-75.021
X115.951Y-77.561
X118.491Y-39.461
X118.491Y-42.001
X118.491Y-44.541
X118.491Y-47.081
X118.491Y-49.621
X118.491Y-52.161
X118.491Y-54.701
X118.491Y-57.241
X118.491Y-59.781
X118.491Y-62.321
X118.491Y-64.861
X118.491Y-67.401
X118.491Y-69.941
X118.491Y-72.481
X118.491Y-75.021
X118.491Y-77.561
X121.031Y-39.461
X121.031Y-42.001
X121.031Y-44.541
X121.031Y-47.081
X121.031Y-49.621
X121.031Y-52.161
X121.031Y-54.701
X121.031Y-57.241
X121.031Y-59.781
X121.031Y-62.321
X121.031Y-64.861
X121.031Y-67.401
X121.031Y-69.941
X121.031Y-72.481
X121.031Y-75.021
X121.031Y-77.561
X123.571Y-39.461
X123.571Y-42.001
X123.571Y-44.541
X123.571Y-47.081
X123.571Y-49.621
X123.571Y-52.161
X123.571Y-54.701
X123.571Y-57.241
X123.571Y-59.781
X123.571Y-62.321
X123.571Y-64.861
X123.571Y-67.401
X123.571Y-69.941
X123.571Y-72.481
X123.571Y-75.021
X123.571Y-77.561
X126.111Y-39.461
X126.111Y-42.001
X126.111Y-44.541
X126.111Y-47.081
X126.111Y-49.621
X126.111Y-52.161
X126.111Y-54.701
X126.111Y-57.241
X126.111Y-59.781
X126.111Y-62.321
X126.111Y-64.861
X126.111Y-67.401
X126.111Y-69.941
X126.111Y-72.481
X126.111Y-75.021
X126.111Y-77.561
X128.651Y-39.461
X128.651Y-42.001
X128.651Y-44.541
X128.651Y-47.081
X128.651Y-49.621
X128.651Y-52.161
X128.651Y-54.701
X128.651Y-57.241
X128.651Y-59.781
X128.651Y-62.321
X128.651Y-64.861
X128.651Y-67.401
X128.651Y-69.941
X128.651Y-72.481
X128.651Y-75.021
X128.651Y-77.561
X131.191Y-39.461
X131.191Y-42.001
X131.191Y-44.541
X131.191Y-47.081
X131.191Y-49.621
X131.191Y-52.161
X131.191Y-54.701
X131.191Y-57.241
X131.191Y-59.781
X131.191Y-62.321
X131.191Y-64.861
X131.191Y-67.401
X131.191Y-69.941
X131.191Y-72.481
X131.191Y-75.021
X131.191Y-77.561
X133.731Y-39.461
X133.731Y-42.001
X133.731Y-44.541
X133.731Y-47.081
X133.731Y-49.621
X133.731Y-52.161
X133.731Y-54.701
X133.731Y-57.241
X133.731Y-59.781
X133.731Y-62.321
X133.731Y-64.861
X133.731Y-67.401
X133.731Y-69.941
X133.731Y-72.481
X133.731Y-75.021
X133.731Y-77.561
X136.271Y-39.461
X136.271Y-42.001
X136.271Y-44.541
X136.271Y-47.081
X136.271Y-49.621
X136.271Y-52.161
X136.271Y-54.701
X136.271Y-57.241
X136.271Y-59.781
X136.271Y-62.321
X136.271Y-64.861
X136.271Y-67.401
X136.271Y-69.941
X136.271Y-72.481
X136.271Y-75.021
X136.271Y-77.561
X138.811Y-39.461
X138.811Y-42.001
X138.811Y-44.541
X138.811Y-47.081
X138.811Y-49.621
X138.811Y-52.161
X138.811Y-54.701
X138.811Y-57.241
X138.811Y-59.781
X138.811Y-62.321
X138.811Y-64.861
X138.811Y-67.401
X138.811Y-69.941
X138.811Y-72.481
X138.811Y-75.021
X138.811Y-77.561
T0
M30
