M48
; DRILL file KiCad 10.0.1 date 2026-07-15T13:41:25
; FORMAT={-:-/ absolute / metric / decimal}
; #@! TF.CreationDate,2026-07-15T13:41:25-07:00
; #@! TF.GenerationSoftware,Kicad,Pcbnew,10.0.1
; #@! TF.FileFunction,MixedPlating,1,2
FMAT,2
METRIC
; #@! TA.AperFunction,Plated,PTH,ComponentDrill
T1C1.200
%
G90
G05
T1
X115.841Y-31.86
X115.841Y-34.4
X115.841Y-36.94
X115.841Y-42.016
X115.841Y-44.556
X115.841Y-47.096
X115.841Y-49.636
X115.841Y-52.176
X115.841Y-54.716
X115.841Y-57.261
X115.841Y-59.801
X115.841Y-62.341
X115.841Y-64.881
X115.841Y-67.421
X115.841Y-69.961
X115.841Y-77.58
X115.841Y-80.12
X115.842Y-75.04
X118.381Y-31.86
X118.381Y-34.4
X118.381Y-42.016
X118.381Y-44.556
X118.381Y-47.096
X118.381Y-49.636
X118.381Y-52.176
X118.381Y-54.716
X118.381Y-57.261
X118.381Y-59.801
X118.381Y-62.341
X118.381Y-64.881
X118.381Y-67.421
X118.381Y-69.961
X118.381Y-77.58
X118.381Y-80.12
X120.921Y-31.86
X120.921Y-34.4
X120.921Y-42.016
X120.921Y-44.556
X120.921Y-47.096
X120.921Y-49.636
X120.921Y-52.176
X120.921Y-54.716
X120.921Y-57.261
X120.921Y-59.801
X120.921Y-62.341
X120.921Y-64.881
X120.921Y-67.421
X120.921Y-69.961
X120.921Y-77.58
X120.921Y-80.12
X123.461Y-31.86
X123.461Y-34.4
X123.461Y-42.016
X123.461Y-44.556
X123.461Y-47.096
X123.461Y-49.636
X123.461Y-52.176
X123.461Y-54.716
X123.461Y-57.261
X123.461Y-59.801
X123.461Y-62.341
X123.461Y-64.881
X123.461Y-67.421
X123.461Y-69.961
X123.461Y-77.58
X123.461Y-80.12
X126.001Y-31.86
X126.001Y-34.4
X126.001Y-42.016
X126.001Y-44.556
X126.001Y-47.096
X126.001Y-49.636
X126.001Y-52.176
X126.001Y-54.716
X126.001Y-57.261
X126.001Y-59.801
X126.001Y-62.341
X126.001Y-64.881
X126.001Y-67.421
X126.001Y-69.961
X126.001Y-77.58
X126.001Y-80.12
X128.541Y-31.86
X128.541Y-34.4
X128.541Y-42.016
X128.541Y-44.556
X128.541Y-47.096
X128.541Y-49.636
X128.541Y-52.176
X128.541Y-54.716
X128.541Y-57.261
X128.541Y-59.801
X128.541Y-62.341
X128.541Y-64.881
X128.541Y-67.421
X128.541Y-69.961
X128.541Y-77.58
X128.541Y-80.12
X131.081Y-31.86
X131.081Y-34.4
X131.081Y-42.016
X131.081Y-44.556
X131.081Y-47.096
X131.081Y-49.636
X131.081Y-52.176
X131.081Y-54.716
X131.081Y-57.261
X131.081Y-59.801
X131.081Y-62.341
X131.081Y-64.881
X131.081Y-67.421
X131.081Y-69.961
X131.081Y-77.58
X131.081Y-80.12
X133.621Y-31.86
X133.621Y-34.4
X133.621Y-42.016
X133.621Y-44.556
X133.621Y-47.096
X133.621Y-49.636
X133.621Y-52.176
X133.621Y-54.716
X133.621Y-57.261
X133.621Y-59.801
X133.621Y-62.341
X133.621Y-64.881
X133.621Y-67.421
X133.621Y-69.961
X133.621Y-77.58
X133.621Y-80.12
X136.161Y-31.86
X136.161Y-34.4
X136.161Y-42.016
X136.161Y-44.556
X136.161Y-47.096
X136.161Y-49.636
X136.161Y-52.176
X136.161Y-54.716
X136.161Y-57.261
X136.161Y-59.801
X136.161Y-62.341
X136.161Y-64.881
X136.161Y-67.421
X136.161Y-69.961
X136.161Y-77.58
X136.161Y-80.12
X138.701Y-31.86
X138.701Y-34.4
X138.701Y-42.016
X138.701Y-44.556
X138.701Y-47.096
X138.701Y-49.636
X138.701Y-52.176
X138.701Y-54.716
X138.701Y-57.261
X138.701Y-59.801
X138.701Y-62.341
X138.701Y-64.881
X138.701Y-67.421
X138.701Y-69.961
X138.701Y-77.58
X138.701Y-80.12
X141.241Y-31.86
X141.241Y-34.4
X141.241Y-42.016
X141.241Y-44.556
X141.241Y-47.096
X141.241Y-49.636
X141.241Y-52.176
X141.241Y-54.716
X141.241Y-57.261
X141.241Y-59.801
X141.241Y-62.341
X141.241Y-64.881
X141.241Y-67.421
X141.241Y-69.961
X141.241Y-77.58
X141.241Y-80.12
X143.781Y-31.86
X143.781Y-34.4
X143.781Y-42.016
X143.781Y-44.556
X143.781Y-47.096
X143.781Y-49.636
X143.781Y-52.176
X143.781Y-54.716
X143.781Y-57.261
X143.781Y-59.801
X143.781Y-62.341
X143.781Y-64.881
X143.781Y-67.421
X143.781Y-69.961
X143.781Y-77.58
X143.781Y-80.12
X146.321Y-31.86
X146.321Y-34.4
X146.321Y-42.016
X146.321Y-44.556
X146.321Y-47.096
X146.321Y-49.636
X146.321Y-52.176
X146.321Y-54.716
X146.321Y-57.261
X146.321Y-59.801
X146.321Y-62.341
X146.321Y-64.881
X146.321Y-67.421
X146.321Y-69.961
X146.321Y-77.58
X146.321Y-80.12
X148.861Y-31.86
X148.861Y-34.4
X148.861Y-42.016
X148.861Y-44.556
X148.861Y-47.096
X148.861Y-49.636
X148.861Y-52.176
X148.861Y-54.716
X148.861Y-57.261
X148.861Y-59.801
X148.861Y-62.341
X148.861Y-64.881
X148.861Y-67.421
X148.861Y-69.961
X148.861Y-77.58
X148.861Y-80.12
X151.401Y-31.86
X151.401Y-34.4
X151.401Y-42.016
X151.401Y-44.556
X151.401Y-47.096
X151.401Y-49.636
X151.401Y-52.176
X151.401Y-54.716
X151.401Y-57.261
X151.401Y-59.801
X151.401Y-62.341
X151.401Y-64.881
X151.401Y-67.421
X151.401Y-69.961
X151.401Y-77.58
X151.401Y-80.12
X153.941Y-31.86
X153.941Y-34.4
X153.941Y-42.016
X153.941Y-44.556
X153.941Y-47.096
X153.941Y-49.636
X153.941Y-52.176
X153.941Y-54.716
X153.941Y-57.261
X153.941Y-59.801
X153.941Y-62.341
X153.941Y-64.881
X153.941Y-67.421
X153.941Y-69.961
X153.941Y-77.58
X153.941Y-80.12
X156.481Y-31.86
X156.481Y-34.4
X156.481Y-42.016
X156.481Y-44.556
X156.481Y-47.096
X156.481Y-49.636
X156.481Y-52.176
X156.481Y-54.716
X156.481Y-57.261
X156.481Y-59.801
X156.481Y-62.341
X156.481Y-64.881
X156.481Y-67.421
X156.481Y-69.961
X156.481Y-77.58
X156.481Y-80.12
X159.021Y-31.86
X159.021Y-34.4
X159.021Y-42.016
X159.021Y-44.556
X159.021Y-47.096
X159.021Y-49.636
X159.021Y-52.176
X159.021Y-54.716
X159.021Y-57.261
X159.021Y-59.801
X159.021Y-62.341
X159.021Y-64.881
X159.021Y-67.421
X159.021Y-69.961
X159.021Y-77.58
X159.021Y-80.12
X161.561Y-31.86
X161.561Y-34.4
X161.561Y-42.016
X161.561Y-44.556
X161.561Y-47.096
X161.561Y-49.636
X161.561Y-52.176
X161.561Y-54.716
X161.561Y-57.261
X161.561Y-59.801
X161.561Y-62.341
X161.561Y-64.881
X161.561Y-67.421
X161.561Y-69.961
X161.561Y-77.58
X161.561Y-80.12
X164.101Y-31.86
X164.101Y-34.4
X164.101Y-42.016
X164.101Y-44.556
X164.101Y-47.096
X164.101Y-49.636
X164.101Y-52.176
X164.101Y-54.716
X164.101Y-57.261
X164.101Y-59.801
X164.101Y-62.341
X164.101Y-64.881
X164.101Y-67.421
X164.101Y-69.961
X164.101Y-77.58
X164.101Y-80.12
X166.641Y-31.86
X166.641Y-34.4
X166.641Y-42.016
X166.641Y-44.556
X166.641Y-47.096
X166.641Y-49.636
X166.641Y-52.176
X166.641Y-54.716
X166.641Y-57.261
X166.641Y-59.801
X166.641Y-62.341
X166.641Y-64.881
X166.641Y-67.421
X166.641Y-69.961
X166.641Y-77.58
X166.641Y-80.12
X169.181Y-31.86
X169.181Y-34.4
X169.181Y-42.016
X169.181Y-44.556
X169.181Y-47.096
X169.181Y-49.636
X169.181Y-52.176
X169.181Y-54.716
X169.181Y-57.261
X169.181Y-59.801
X169.181Y-62.341
X169.181Y-64.881
X169.181Y-67.421
X169.181Y-69.961
X169.181Y-77.58
X169.181Y-80.12
X171.721Y-31.86
X171.721Y-34.4
X171.721Y-42.016
X171.721Y-44.556
X171.721Y-47.096
X171.721Y-49.636
X171.721Y-52.176
X171.721Y-54.716
X171.721Y-57.261
X171.721Y-59.801
X171.721Y-62.341
X171.721Y-64.881
X171.721Y-67.421
X171.721Y-69.961
X171.721Y-77.58
X171.721Y-80.12
X174.261Y-31.86
X174.261Y-34.4
X174.261Y-42.016
X174.261Y-44.556
X174.261Y-47.096
X174.261Y-49.636
X174.261Y-52.176
X174.261Y-54.716
X174.261Y-57.261
X174.261Y-59.801
X174.261Y-62.341
X174.261Y-64.881
X174.261Y-67.421
X174.261Y-69.961
X174.261Y-77.58
X174.261Y-80.12
X176.801Y-31.86
X176.801Y-34.4
X176.801Y-42.016
X176.801Y-44.556
X176.801Y-47.096
X176.801Y-49.636
X176.801Y-52.176
X176.801Y-54.716
X176.801Y-57.261
X176.801Y-59.801
X176.801Y-62.341
X176.801Y-64.881
X176.801Y-67.421
X176.801Y-69.961
X176.801Y-77.58
X176.801Y-80.12
X179.341Y-31.86
X179.341Y-34.4
X179.341Y-42.016
X179.341Y-44.556
X179.341Y-47.096
X179.341Y-49.636
X179.341Y-52.176
X179.341Y-54.716
X179.341Y-57.261
X179.341Y-59.801
X179.341Y-62.341
X179.341Y-64.881
X179.341Y-67.421
X179.341Y-69.961
X179.341Y-77.58
X179.341Y-80.12
X181.881Y-31.86
X181.881Y-34.4
X181.881Y-42.016
X181.881Y-44.556
X181.881Y-47.096
X181.881Y-49.636
X181.881Y-52.176
X181.881Y-54.716
X181.881Y-57.261
X181.881Y-59.801
X181.881Y-62.341
X181.881Y-64.881
X181.881Y-67.421
X181.881Y-69.961
X181.881Y-77.58
X181.881Y-80.12
X184.421Y-31.86
X184.421Y-34.4
X184.421Y-42.016
X184.421Y-44.556
X184.421Y-47.096
X184.421Y-49.636
X184.421Y-52.176
X184.421Y-54.716
X184.421Y-57.261
X184.421Y-59.801
X184.421Y-62.341
X184.421Y-64.881
X184.421Y-67.421
X184.421Y-69.961
X184.421Y-77.58
X184.421Y-80.12
X186.961Y-31.86
X186.961Y-34.4
X186.961Y-42.016
X186.961Y-44.556
X186.961Y-47.096
X186.961Y-49.636
X186.961Y-52.176
X186.961Y-54.716
X186.961Y-57.261
X186.961Y-59.801
X186.961Y-62.341
X186.961Y-64.881
X186.961Y-67.421
X186.961Y-69.961
X186.961Y-77.58
X186.961Y-80.12
X189.501Y-31.86
X189.501Y-34.4
X189.501Y-42.016
X189.501Y-44.556
X189.501Y-47.096
X189.501Y-49.636
X189.501Y-52.176
X189.501Y-54.716
X189.501Y-57.261
X189.501Y-59.801
X189.501Y-62.341
X189.501Y-64.881
X189.501Y-67.421
X189.501Y-69.961
X189.501Y-77.58
X189.501Y-80.12
X189.502Y-36.94
X189.503Y-75.04
M30
