%TF.GenerationSoftware,KiCad,Pcbnew,7.0.7*%
%TF.CreationDate,2024-02-09T16:11:03-08:00*%
%TF.ProjectId,JumperLuxRev2Breadboard,4a756d70-6572-44c7-9578-526576324272,rev?*%
%TF.SameCoordinates,Original*%
%TF.FileFunction,Drillmap*%
%TF.FilePolarity,Positive*%
%FSLAX45Y45*%
G04 Gerber Fmt 4.5, Leading zero omitted, Abs format (unit mm)*
G04 Created by KiCad (PCBNEW 7.0.7) date 2024-02-09 16:11:03*
%MOMM*%
%LPD*%
G01*
G04 APERTURE LIST*
%ADD10C,0.050000*%
%ADD11C,0.200000*%
%ADD12C,0.210000*%
G04 APERTURE END LIST*
D10*
X6362700Y-18148300D02*
X6362700Y-18409920D01*
X6807200Y-18592800D02*
X6807200Y-18732500D01*
X12903200Y-12700000D02*
X12903200Y-12395200D01*
X6223000Y-13855700D02*
X6223000Y-18148300D01*
X14147800Y-13406120D02*
X14147800Y-13271500D01*
X7861300Y-12700000D02*
X7797800Y-12700000D01*
X6527800Y-12395200D02*
X6223000Y-12700000D01*
X6553200Y-13403580D02*
X6362700Y-13594080D01*
X12903200Y-12395200D02*
X14147800Y-12395200D01*
X7797800Y-12395200D02*
X6527800Y-12395200D01*
X14478000Y-12725400D02*
X14478000Y-13271500D01*
X6362700Y-18409920D02*
X6545580Y-18592800D01*
X6807200Y-18732500D02*
X13893800Y-18732500D01*
X6362700Y-13855700D02*
X6223000Y-13855700D01*
X14478000Y-13855700D02*
X14338300Y-13855700D01*
X6223000Y-18148300D02*
X6362700Y-18148300D01*
X14478000Y-18148300D02*
X14478000Y-13855700D01*
X14152880Y-18592800D02*
X14338300Y-18407380D01*
X6553200Y-13271500D02*
X6223000Y-13271500D01*
X14338300Y-18148300D02*
X14478000Y-18148300D01*
X14338300Y-18407380D02*
X14338300Y-18148300D01*
X13893800Y-18592800D02*
X14152880Y-18592800D01*
X14338300Y-13855700D02*
X14338300Y-13596620D01*
X13893800Y-18732500D02*
X13893800Y-18592800D01*
X6223000Y-12700000D02*
X6223000Y-13271500D01*
X6362700Y-13853160D02*
X6362700Y-13855700D01*
X6545580Y-18592800D02*
X6807200Y-18592800D01*
X14338300Y-13596620D02*
X14147800Y-13406120D01*
X6362700Y-13594080D02*
X6362700Y-13853160D01*
X6553200Y-13403580D02*
X6553200Y-13271500D01*
X14147800Y-12395200D02*
X14478000Y-12725400D01*
X14147800Y-13271500D02*
X14478000Y-13271500D01*
X12839700Y-12700000D02*
X12903200Y-12700000D01*
X7797800Y-12700000D02*
X7797800Y-12395200D01*
D11*
D12*
X7007000Y-12722000D02*
X7217000Y-12932000D01*
X7217000Y-12722000D02*
X7007000Y-12932000D01*
X13481460Y-12722000D02*
X13691460Y-12932000D01*
X13691460Y-12722000D02*
X13481460Y-12932000D01*
D11*
X6481277Y-19046484D02*
X6481277Y-18846484D01*
X6481277Y-18846484D02*
X6528896Y-18846484D01*
X6528896Y-18846484D02*
X6557467Y-18856008D01*
X6557467Y-18856008D02*
X6576515Y-18875055D01*
X6576515Y-18875055D02*
X6586039Y-18894103D01*
X6586039Y-18894103D02*
X6595562Y-18932198D01*
X6595562Y-18932198D02*
X6595562Y-18960770D01*
X6595562Y-18960770D02*
X6586039Y-18998865D01*
X6586039Y-18998865D02*
X6576515Y-19017912D01*
X6576515Y-19017912D02*
X6557467Y-19036960D01*
X6557467Y-19036960D02*
X6528896Y-19046484D01*
X6528896Y-19046484D02*
X6481277Y-19046484D01*
X6681277Y-19046484D02*
X6681277Y-18913150D01*
X6681277Y-18951246D02*
X6690801Y-18932198D01*
X6690801Y-18932198D02*
X6700324Y-18922674D01*
X6700324Y-18922674D02*
X6719372Y-18913150D01*
X6719372Y-18913150D02*
X6738420Y-18913150D01*
X6805086Y-19046484D02*
X6805086Y-18913150D01*
X6805086Y-18846484D02*
X6795562Y-18856008D01*
X6795562Y-18856008D02*
X6805086Y-18865531D01*
X6805086Y-18865531D02*
X6814610Y-18856008D01*
X6814610Y-18856008D02*
X6805086Y-18846484D01*
X6805086Y-18846484D02*
X6805086Y-18865531D01*
X6928896Y-19046484D02*
X6909848Y-19036960D01*
X6909848Y-19036960D02*
X6900324Y-19017912D01*
X6900324Y-19017912D02*
X6900324Y-18846484D01*
X7033658Y-19046484D02*
X7014610Y-19036960D01*
X7014610Y-19036960D02*
X7005086Y-19017912D01*
X7005086Y-19017912D02*
X7005086Y-18846484D01*
X7262229Y-19046484D02*
X7262229Y-18846484D01*
X7262229Y-18846484D02*
X7328896Y-18989341D01*
X7328896Y-18989341D02*
X7395562Y-18846484D01*
X7395562Y-18846484D02*
X7395562Y-19046484D01*
X7576515Y-19046484D02*
X7576515Y-18941722D01*
X7576515Y-18941722D02*
X7566991Y-18922674D01*
X7566991Y-18922674D02*
X7547943Y-18913150D01*
X7547943Y-18913150D02*
X7509848Y-18913150D01*
X7509848Y-18913150D02*
X7490801Y-18922674D01*
X7576515Y-19036960D02*
X7557467Y-19046484D01*
X7557467Y-19046484D02*
X7509848Y-19046484D01*
X7509848Y-19046484D02*
X7490801Y-19036960D01*
X7490801Y-19036960D02*
X7481277Y-19017912D01*
X7481277Y-19017912D02*
X7481277Y-18998865D01*
X7481277Y-18998865D02*
X7490801Y-18979817D01*
X7490801Y-18979817D02*
X7509848Y-18970293D01*
X7509848Y-18970293D02*
X7557467Y-18970293D01*
X7557467Y-18970293D02*
X7576515Y-18960770D01*
X7671753Y-18913150D02*
X7671753Y-19113150D01*
X7671753Y-18922674D02*
X7690801Y-18913150D01*
X7690801Y-18913150D02*
X7728896Y-18913150D01*
X7728896Y-18913150D02*
X7747943Y-18922674D01*
X7747943Y-18922674D02*
X7757467Y-18932198D01*
X7757467Y-18932198D02*
X7766991Y-18951246D01*
X7766991Y-18951246D02*
X7766991Y-19008389D01*
X7766991Y-19008389D02*
X7757467Y-19027436D01*
X7757467Y-19027436D02*
X7747943Y-19036960D01*
X7747943Y-19036960D02*
X7728896Y-19046484D01*
X7728896Y-19046484D02*
X7690801Y-19046484D01*
X7690801Y-19046484D02*
X7671753Y-19036960D01*
X7852705Y-19027436D02*
X7862229Y-19036960D01*
X7862229Y-19036960D02*
X7852705Y-19046484D01*
X7852705Y-19046484D02*
X7843182Y-19036960D01*
X7843182Y-19036960D02*
X7852705Y-19027436D01*
X7852705Y-19027436D02*
X7852705Y-19046484D01*
X7852705Y-18922674D02*
X7862229Y-18932198D01*
X7862229Y-18932198D02*
X7852705Y-18941722D01*
X7852705Y-18941722D02*
X7843182Y-18932198D01*
X7843182Y-18932198D02*
X7852705Y-18922674D01*
X7852705Y-18922674D02*
X7852705Y-18941722D01*
X6020500Y-19275000D02*
X6220500Y-19475000D01*
X6220500Y-19275000D02*
X6020500Y-19475000D01*
X6471753Y-19285531D02*
X6481277Y-19276008D01*
X6481277Y-19276008D02*
X6500324Y-19266484D01*
X6500324Y-19266484D02*
X6547943Y-19266484D01*
X6547943Y-19266484D02*
X6566991Y-19276008D01*
X6566991Y-19276008D02*
X6576515Y-19285531D01*
X6576515Y-19285531D02*
X6586039Y-19304579D01*
X6586039Y-19304579D02*
X6586039Y-19323627D01*
X6586039Y-19323627D02*
X6576515Y-19352198D01*
X6576515Y-19352198D02*
X6462229Y-19466484D01*
X6462229Y-19466484D02*
X6586039Y-19466484D01*
X6671753Y-19447436D02*
X6681277Y-19456960D01*
X6681277Y-19456960D02*
X6671753Y-19466484D01*
X6671753Y-19466484D02*
X6662229Y-19456960D01*
X6662229Y-19456960D02*
X6671753Y-19447436D01*
X6671753Y-19447436D02*
X6671753Y-19466484D01*
X6871753Y-19466484D02*
X6757467Y-19466484D01*
X6814610Y-19466484D02*
X6814610Y-19266484D01*
X6814610Y-19266484D02*
X6795562Y-19295055D01*
X6795562Y-19295055D02*
X6776515Y-19314103D01*
X6776515Y-19314103D02*
X6757467Y-19323627D01*
X6995562Y-19266484D02*
X7014610Y-19266484D01*
X7014610Y-19266484D02*
X7033658Y-19276008D01*
X7033658Y-19276008D02*
X7043182Y-19285531D01*
X7043182Y-19285531D02*
X7052705Y-19304579D01*
X7052705Y-19304579D02*
X7062229Y-19342674D01*
X7062229Y-19342674D02*
X7062229Y-19390293D01*
X7062229Y-19390293D02*
X7052705Y-19428389D01*
X7052705Y-19428389D02*
X7043182Y-19447436D01*
X7043182Y-19447436D02*
X7033658Y-19456960D01*
X7033658Y-19456960D02*
X7014610Y-19466484D01*
X7014610Y-19466484D02*
X6995562Y-19466484D01*
X6995562Y-19466484D02*
X6976515Y-19456960D01*
X6976515Y-19456960D02*
X6966991Y-19447436D01*
X6966991Y-19447436D02*
X6957467Y-19428389D01*
X6957467Y-19428389D02*
X6947943Y-19390293D01*
X6947943Y-19390293D02*
X6947943Y-19342674D01*
X6947943Y-19342674D02*
X6957467Y-19304579D01*
X6957467Y-19304579D02*
X6966991Y-19285531D01*
X6966991Y-19285531D02*
X6976515Y-19276008D01*
X6976515Y-19276008D02*
X6995562Y-19266484D01*
X7186039Y-19266484D02*
X7205086Y-19266484D01*
X7205086Y-19266484D02*
X7224134Y-19276008D01*
X7224134Y-19276008D02*
X7233658Y-19285531D01*
X7233658Y-19285531D02*
X7243182Y-19304579D01*
X7243182Y-19304579D02*
X7252705Y-19342674D01*
X7252705Y-19342674D02*
X7252705Y-19390293D01*
X7252705Y-19390293D02*
X7243182Y-19428389D01*
X7243182Y-19428389D02*
X7233658Y-19447436D01*
X7233658Y-19447436D02*
X7224134Y-19456960D01*
X7224134Y-19456960D02*
X7205086Y-19466484D01*
X7205086Y-19466484D02*
X7186039Y-19466484D01*
X7186039Y-19466484D02*
X7166991Y-19456960D01*
X7166991Y-19456960D02*
X7157467Y-19447436D01*
X7157467Y-19447436D02*
X7147943Y-19428389D01*
X7147943Y-19428389D02*
X7138420Y-19390293D01*
X7138420Y-19390293D02*
X7138420Y-19342674D01*
X7138420Y-19342674D02*
X7147943Y-19304579D01*
X7147943Y-19304579D02*
X7157467Y-19285531D01*
X7157467Y-19285531D02*
X7166991Y-19276008D01*
X7166991Y-19276008D02*
X7186039Y-19266484D01*
X7338420Y-19466484D02*
X7338420Y-19333150D01*
X7338420Y-19352198D02*
X7347943Y-19342674D01*
X7347943Y-19342674D02*
X7366991Y-19333150D01*
X7366991Y-19333150D02*
X7395563Y-19333150D01*
X7395563Y-19333150D02*
X7414610Y-19342674D01*
X7414610Y-19342674D02*
X7424134Y-19361722D01*
X7424134Y-19361722D02*
X7424134Y-19466484D01*
X7424134Y-19361722D02*
X7433658Y-19342674D01*
X7433658Y-19342674D02*
X7452705Y-19333150D01*
X7452705Y-19333150D02*
X7481277Y-19333150D01*
X7481277Y-19333150D02*
X7500324Y-19342674D01*
X7500324Y-19342674D02*
X7509848Y-19361722D01*
X7509848Y-19361722D02*
X7509848Y-19466484D01*
X7605086Y-19466484D02*
X7605086Y-19333150D01*
X7605086Y-19352198D02*
X7614610Y-19342674D01*
X7614610Y-19342674D02*
X7633658Y-19333150D01*
X7633658Y-19333150D02*
X7662229Y-19333150D01*
X7662229Y-19333150D02*
X7681277Y-19342674D01*
X7681277Y-19342674D02*
X7690801Y-19361722D01*
X7690801Y-19361722D02*
X7690801Y-19466484D01*
X7690801Y-19361722D02*
X7700324Y-19342674D01*
X7700324Y-19342674D02*
X7719372Y-19333150D01*
X7719372Y-19333150D02*
X7747943Y-19333150D01*
X7747943Y-19333150D02*
X7766991Y-19342674D01*
X7766991Y-19342674D02*
X7776515Y-19361722D01*
X7776515Y-19361722D02*
X7776515Y-19466484D01*
X8166991Y-19256960D02*
X7995563Y-19514103D01*
X8424134Y-19266484D02*
X8443182Y-19266484D01*
X8443182Y-19266484D02*
X8462229Y-19276008D01*
X8462229Y-19276008D02*
X8471753Y-19285531D01*
X8471753Y-19285531D02*
X8481277Y-19304579D01*
X8481277Y-19304579D02*
X8490801Y-19342674D01*
X8490801Y-19342674D02*
X8490801Y-19390293D01*
X8490801Y-19390293D02*
X8481277Y-19428389D01*
X8481277Y-19428389D02*
X8471753Y-19447436D01*
X8471753Y-19447436D02*
X8462229Y-19456960D01*
X8462229Y-19456960D02*
X8443182Y-19466484D01*
X8443182Y-19466484D02*
X8424134Y-19466484D01*
X8424134Y-19466484D02*
X8405087Y-19456960D01*
X8405087Y-19456960D02*
X8395563Y-19447436D01*
X8395563Y-19447436D02*
X8386039Y-19428389D01*
X8386039Y-19428389D02*
X8376515Y-19390293D01*
X8376515Y-19390293D02*
X8376515Y-19342674D01*
X8376515Y-19342674D02*
X8386039Y-19304579D01*
X8386039Y-19304579D02*
X8395563Y-19285531D01*
X8395563Y-19285531D02*
X8405087Y-19276008D01*
X8405087Y-19276008D02*
X8424134Y-19266484D01*
X8576515Y-19447436D02*
X8586039Y-19456960D01*
X8586039Y-19456960D02*
X8576515Y-19466484D01*
X8576515Y-19466484D02*
X8566991Y-19456960D01*
X8566991Y-19456960D02*
X8576515Y-19447436D01*
X8576515Y-19447436D02*
X8576515Y-19466484D01*
X8709848Y-19266484D02*
X8728896Y-19266484D01*
X8728896Y-19266484D02*
X8747944Y-19276008D01*
X8747944Y-19276008D02*
X8757468Y-19285531D01*
X8757468Y-19285531D02*
X8766991Y-19304579D01*
X8766991Y-19304579D02*
X8776515Y-19342674D01*
X8776515Y-19342674D02*
X8776515Y-19390293D01*
X8776515Y-19390293D02*
X8766991Y-19428389D01*
X8766991Y-19428389D02*
X8757468Y-19447436D01*
X8757468Y-19447436D02*
X8747944Y-19456960D01*
X8747944Y-19456960D02*
X8728896Y-19466484D01*
X8728896Y-19466484D02*
X8709848Y-19466484D01*
X8709848Y-19466484D02*
X8690801Y-19456960D01*
X8690801Y-19456960D02*
X8681277Y-19447436D01*
X8681277Y-19447436D02*
X8671753Y-19428389D01*
X8671753Y-19428389D02*
X8662229Y-19390293D01*
X8662229Y-19390293D02*
X8662229Y-19342674D01*
X8662229Y-19342674D02*
X8671753Y-19304579D01*
X8671753Y-19304579D02*
X8681277Y-19285531D01*
X8681277Y-19285531D02*
X8690801Y-19276008D01*
X8690801Y-19276008D02*
X8709848Y-19266484D01*
X8890801Y-19352198D02*
X8871753Y-19342674D01*
X8871753Y-19342674D02*
X8862229Y-19333150D01*
X8862229Y-19333150D02*
X8852706Y-19314103D01*
X8852706Y-19314103D02*
X8852706Y-19304579D01*
X8852706Y-19304579D02*
X8862229Y-19285531D01*
X8862229Y-19285531D02*
X8871753Y-19276008D01*
X8871753Y-19276008D02*
X8890801Y-19266484D01*
X8890801Y-19266484D02*
X8928896Y-19266484D01*
X8928896Y-19266484D02*
X8947944Y-19276008D01*
X8947944Y-19276008D02*
X8957468Y-19285531D01*
X8957468Y-19285531D02*
X8966991Y-19304579D01*
X8966991Y-19304579D02*
X8966991Y-19314103D01*
X8966991Y-19314103D02*
X8957468Y-19333150D01*
X8957468Y-19333150D02*
X8947944Y-19342674D01*
X8947944Y-19342674D02*
X8928896Y-19352198D01*
X8928896Y-19352198D02*
X8890801Y-19352198D01*
X8890801Y-19352198D02*
X8871753Y-19361722D01*
X8871753Y-19361722D02*
X8862229Y-19371246D01*
X8862229Y-19371246D02*
X8852706Y-19390293D01*
X8852706Y-19390293D02*
X8852706Y-19428389D01*
X8852706Y-19428389D02*
X8862229Y-19447436D01*
X8862229Y-19447436D02*
X8871753Y-19456960D01*
X8871753Y-19456960D02*
X8890801Y-19466484D01*
X8890801Y-19466484D02*
X8928896Y-19466484D01*
X8928896Y-19466484D02*
X8947944Y-19456960D01*
X8947944Y-19456960D02*
X8957468Y-19447436D01*
X8957468Y-19447436D02*
X8966991Y-19428389D01*
X8966991Y-19428389D02*
X8966991Y-19390293D01*
X8966991Y-19390293D02*
X8957468Y-19371246D01*
X8957468Y-19371246D02*
X8947944Y-19361722D01*
X8947944Y-19361722D02*
X8928896Y-19352198D01*
X9043182Y-19285531D02*
X9052706Y-19276008D01*
X9052706Y-19276008D02*
X9071753Y-19266484D01*
X9071753Y-19266484D02*
X9119372Y-19266484D01*
X9119372Y-19266484D02*
X9138420Y-19276008D01*
X9138420Y-19276008D02*
X9147944Y-19285531D01*
X9147944Y-19285531D02*
X9157468Y-19304579D01*
X9157468Y-19304579D02*
X9157468Y-19323627D01*
X9157468Y-19323627D02*
X9147944Y-19352198D01*
X9147944Y-19352198D02*
X9033658Y-19466484D01*
X9033658Y-19466484D02*
X9157468Y-19466484D01*
X9224134Y-19266484D02*
X9357468Y-19266484D01*
X9357468Y-19266484D02*
X9271753Y-19466484D01*
X9424134Y-19266484D02*
X9424134Y-19304579D01*
X9500325Y-19266484D02*
X9500325Y-19304579D01*
X9795563Y-19542674D02*
X9786039Y-19533150D01*
X9786039Y-19533150D02*
X9766991Y-19504579D01*
X9766991Y-19504579D02*
X9757468Y-19485531D01*
X9757468Y-19485531D02*
X9747944Y-19456960D01*
X9747944Y-19456960D02*
X9738420Y-19409341D01*
X9738420Y-19409341D02*
X9738420Y-19371246D01*
X9738420Y-19371246D02*
X9747944Y-19323627D01*
X9747944Y-19323627D02*
X9757468Y-19295055D01*
X9757468Y-19295055D02*
X9766991Y-19276008D01*
X9766991Y-19276008D02*
X9786039Y-19247436D01*
X9786039Y-19247436D02*
X9795563Y-19237912D01*
X9862230Y-19285531D02*
X9871753Y-19276008D01*
X9871753Y-19276008D02*
X9890801Y-19266484D01*
X9890801Y-19266484D02*
X9938420Y-19266484D01*
X9938420Y-19266484D02*
X9957468Y-19276008D01*
X9957468Y-19276008D02*
X9966991Y-19285531D01*
X9966991Y-19285531D02*
X9976515Y-19304579D01*
X9976515Y-19304579D02*
X9976515Y-19323627D01*
X9976515Y-19323627D02*
X9966991Y-19352198D01*
X9966991Y-19352198D02*
X9852706Y-19466484D01*
X9852706Y-19466484D02*
X9976515Y-19466484D01*
X10214611Y-19466484D02*
X10214611Y-19266484D01*
X10300325Y-19466484D02*
X10300325Y-19361722D01*
X10300325Y-19361722D02*
X10290801Y-19342674D01*
X10290801Y-19342674D02*
X10271753Y-19333150D01*
X10271753Y-19333150D02*
X10243182Y-19333150D01*
X10243182Y-19333150D02*
X10224134Y-19342674D01*
X10224134Y-19342674D02*
X10214611Y-19352198D01*
X10424134Y-19466484D02*
X10405087Y-19456960D01*
X10405087Y-19456960D02*
X10395563Y-19447436D01*
X10395563Y-19447436D02*
X10386039Y-19428389D01*
X10386039Y-19428389D02*
X10386039Y-19371246D01*
X10386039Y-19371246D02*
X10395563Y-19352198D01*
X10395563Y-19352198D02*
X10405087Y-19342674D01*
X10405087Y-19342674D02*
X10424134Y-19333150D01*
X10424134Y-19333150D02*
X10452706Y-19333150D01*
X10452706Y-19333150D02*
X10471753Y-19342674D01*
X10471753Y-19342674D02*
X10481277Y-19352198D01*
X10481277Y-19352198D02*
X10490801Y-19371246D01*
X10490801Y-19371246D02*
X10490801Y-19428389D01*
X10490801Y-19428389D02*
X10481277Y-19447436D01*
X10481277Y-19447436D02*
X10471753Y-19456960D01*
X10471753Y-19456960D02*
X10452706Y-19466484D01*
X10452706Y-19466484D02*
X10424134Y-19466484D01*
X10605087Y-19466484D02*
X10586039Y-19456960D01*
X10586039Y-19456960D02*
X10576515Y-19437912D01*
X10576515Y-19437912D02*
X10576515Y-19266484D01*
X10757468Y-19456960D02*
X10738420Y-19466484D01*
X10738420Y-19466484D02*
X10700325Y-19466484D01*
X10700325Y-19466484D02*
X10681277Y-19456960D01*
X10681277Y-19456960D02*
X10671753Y-19437912D01*
X10671753Y-19437912D02*
X10671753Y-19361722D01*
X10671753Y-19361722D02*
X10681277Y-19342674D01*
X10681277Y-19342674D02*
X10700325Y-19333150D01*
X10700325Y-19333150D02*
X10738420Y-19333150D01*
X10738420Y-19333150D02*
X10757468Y-19342674D01*
X10757468Y-19342674D02*
X10766992Y-19361722D01*
X10766992Y-19361722D02*
X10766992Y-19380770D01*
X10766992Y-19380770D02*
X10671753Y-19399817D01*
X10843182Y-19456960D02*
X10862230Y-19466484D01*
X10862230Y-19466484D02*
X10900325Y-19466484D01*
X10900325Y-19466484D02*
X10919373Y-19456960D01*
X10919373Y-19456960D02*
X10928896Y-19437912D01*
X10928896Y-19437912D02*
X10928896Y-19428389D01*
X10928896Y-19428389D02*
X10919373Y-19409341D01*
X10919373Y-19409341D02*
X10900325Y-19399817D01*
X10900325Y-19399817D02*
X10871753Y-19399817D01*
X10871753Y-19399817D02*
X10852706Y-19390293D01*
X10852706Y-19390293D02*
X10843182Y-19371246D01*
X10843182Y-19371246D02*
X10843182Y-19361722D01*
X10843182Y-19361722D02*
X10852706Y-19342674D01*
X10852706Y-19342674D02*
X10871753Y-19333150D01*
X10871753Y-19333150D02*
X10900325Y-19333150D01*
X10900325Y-19333150D02*
X10919373Y-19342674D01*
X10995563Y-19542674D02*
X11005087Y-19533150D01*
X11005087Y-19533150D02*
X11024134Y-19504579D01*
X11024134Y-19504579D02*
X11033658Y-19485531D01*
X11033658Y-19485531D02*
X11043182Y-19456960D01*
X11043182Y-19456960D02*
X11052706Y-19409341D01*
X11052706Y-19409341D02*
X11052706Y-19371246D01*
X11052706Y-19371246D02*
X11043182Y-19323627D01*
X11043182Y-19323627D02*
X11033658Y-19295055D01*
X11033658Y-19295055D02*
X11024134Y-19276008D01*
X11024134Y-19276008D02*
X11005087Y-19247436D01*
X11005087Y-19247436D02*
X10995563Y-19237912D01*
X11357468Y-19542674D02*
X11347944Y-19533150D01*
X11347944Y-19533150D02*
X11328896Y-19504579D01*
X11328896Y-19504579D02*
X11319372Y-19485531D01*
X11319372Y-19485531D02*
X11309849Y-19456960D01*
X11309849Y-19456960D02*
X11300325Y-19409341D01*
X11300325Y-19409341D02*
X11300325Y-19371246D01*
X11300325Y-19371246D02*
X11309849Y-19323627D01*
X11309849Y-19323627D02*
X11319372Y-19295055D01*
X11319372Y-19295055D02*
X11328896Y-19276008D01*
X11328896Y-19276008D02*
X11347944Y-19247436D01*
X11347944Y-19247436D02*
X11357468Y-19237912D01*
X11433658Y-19333150D02*
X11433658Y-19466484D01*
X11433658Y-19352198D02*
X11443182Y-19342674D01*
X11443182Y-19342674D02*
X11462230Y-19333150D01*
X11462230Y-19333150D02*
X11490801Y-19333150D01*
X11490801Y-19333150D02*
X11509849Y-19342674D01*
X11509849Y-19342674D02*
X11519372Y-19361722D01*
X11519372Y-19361722D02*
X11519372Y-19466484D01*
X11643182Y-19466484D02*
X11624134Y-19456960D01*
X11624134Y-19456960D02*
X11614611Y-19447436D01*
X11614611Y-19447436D02*
X11605087Y-19428389D01*
X11605087Y-19428389D02*
X11605087Y-19371246D01*
X11605087Y-19371246D02*
X11614611Y-19352198D01*
X11614611Y-19352198D02*
X11624134Y-19342674D01*
X11624134Y-19342674D02*
X11643182Y-19333150D01*
X11643182Y-19333150D02*
X11671753Y-19333150D01*
X11671753Y-19333150D02*
X11690801Y-19342674D01*
X11690801Y-19342674D02*
X11700325Y-19352198D01*
X11700325Y-19352198D02*
X11709849Y-19371246D01*
X11709849Y-19371246D02*
X11709849Y-19428389D01*
X11709849Y-19428389D02*
X11700325Y-19447436D01*
X11700325Y-19447436D02*
X11690801Y-19456960D01*
X11690801Y-19456960D02*
X11671753Y-19466484D01*
X11671753Y-19466484D02*
X11643182Y-19466484D01*
X11766992Y-19333150D02*
X11843182Y-19333150D01*
X11795563Y-19266484D02*
X11795563Y-19437912D01*
X11795563Y-19437912D02*
X11805087Y-19456960D01*
X11805087Y-19456960D02*
X11824134Y-19466484D01*
X11824134Y-19466484D02*
X11843182Y-19466484D01*
X12062230Y-19333150D02*
X12062230Y-19533150D01*
X12062230Y-19342674D02*
X12081277Y-19333150D01*
X12081277Y-19333150D02*
X12119373Y-19333150D01*
X12119373Y-19333150D02*
X12138420Y-19342674D01*
X12138420Y-19342674D02*
X12147944Y-19352198D01*
X12147944Y-19352198D02*
X12157468Y-19371246D01*
X12157468Y-19371246D02*
X12157468Y-19428389D01*
X12157468Y-19428389D02*
X12147944Y-19447436D01*
X12147944Y-19447436D02*
X12138420Y-19456960D01*
X12138420Y-19456960D02*
X12119373Y-19466484D01*
X12119373Y-19466484D02*
X12081277Y-19466484D01*
X12081277Y-19466484D02*
X12062230Y-19456960D01*
X12271753Y-19466484D02*
X12252706Y-19456960D01*
X12252706Y-19456960D02*
X12243182Y-19437912D01*
X12243182Y-19437912D02*
X12243182Y-19266484D01*
X12433658Y-19466484D02*
X12433658Y-19361722D01*
X12433658Y-19361722D02*
X12424134Y-19342674D01*
X12424134Y-19342674D02*
X12405087Y-19333150D01*
X12405087Y-19333150D02*
X12366992Y-19333150D01*
X12366992Y-19333150D02*
X12347944Y-19342674D01*
X12433658Y-19456960D02*
X12414611Y-19466484D01*
X12414611Y-19466484D02*
X12366992Y-19466484D01*
X12366992Y-19466484D02*
X12347944Y-19456960D01*
X12347944Y-19456960D02*
X12338420Y-19437912D01*
X12338420Y-19437912D02*
X12338420Y-19418865D01*
X12338420Y-19418865D02*
X12347944Y-19399817D01*
X12347944Y-19399817D02*
X12366992Y-19390293D01*
X12366992Y-19390293D02*
X12414611Y-19390293D01*
X12414611Y-19390293D02*
X12433658Y-19380770D01*
X12500325Y-19333150D02*
X12576515Y-19333150D01*
X12528896Y-19266484D02*
X12528896Y-19437912D01*
X12528896Y-19437912D02*
X12538420Y-19456960D01*
X12538420Y-19456960D02*
X12557468Y-19466484D01*
X12557468Y-19466484D02*
X12576515Y-19466484D01*
X12719373Y-19456960D02*
X12700325Y-19466484D01*
X12700325Y-19466484D02*
X12662230Y-19466484D01*
X12662230Y-19466484D02*
X12643182Y-19456960D01*
X12643182Y-19456960D02*
X12633658Y-19437912D01*
X12633658Y-19437912D02*
X12633658Y-19361722D01*
X12633658Y-19361722D02*
X12643182Y-19342674D01*
X12643182Y-19342674D02*
X12662230Y-19333150D01*
X12662230Y-19333150D02*
X12700325Y-19333150D01*
X12700325Y-19333150D02*
X12719373Y-19342674D01*
X12719373Y-19342674D02*
X12728896Y-19361722D01*
X12728896Y-19361722D02*
X12728896Y-19380770D01*
X12728896Y-19380770D02*
X12633658Y-19399817D01*
X12900325Y-19466484D02*
X12900325Y-19266484D01*
X12900325Y-19456960D02*
X12881277Y-19466484D01*
X12881277Y-19466484D02*
X12843182Y-19466484D01*
X12843182Y-19466484D02*
X12824134Y-19456960D01*
X12824134Y-19456960D02*
X12814611Y-19447436D01*
X12814611Y-19447436D02*
X12805087Y-19428389D01*
X12805087Y-19428389D02*
X12805087Y-19371246D01*
X12805087Y-19371246D02*
X12814611Y-19352198D01*
X12814611Y-19352198D02*
X12824134Y-19342674D01*
X12824134Y-19342674D02*
X12843182Y-19333150D01*
X12843182Y-19333150D02*
X12881277Y-19333150D01*
X12881277Y-19333150D02*
X12900325Y-19342674D01*
X12976515Y-19542674D02*
X12986039Y-19533150D01*
X12986039Y-19533150D02*
X13005087Y-19504579D01*
X13005087Y-19504579D02*
X13014611Y-19485531D01*
X13014611Y-19485531D02*
X13024134Y-19456960D01*
X13024134Y-19456960D02*
X13033658Y-19409341D01*
X13033658Y-19409341D02*
X13033658Y-19371246D01*
X13033658Y-19371246D02*
X13024134Y-19323627D01*
X13024134Y-19323627D02*
X13014611Y-19295055D01*
X13014611Y-19295055D02*
X13005087Y-19276008D01*
X13005087Y-19276008D02*
X12986039Y-19247436D01*
X12986039Y-19247436D02*
X12976515Y-19237912D01*
M02*
