M48
; DRILL file KiCad 10.0.4 date 2026-07-15T17:26:34
; FORMAT={-:-/ absolute / metric / decimal}
; #@! TF.CreationDate,2026-07-15T17:26:34-07:00
; #@! TF.GenerationSoftware,Kicad,Pcbnew,10.0.4
; #@! TF.FileFunction,Plated,1,2,PTH
FMAT,2
METRIC
; #@! TA.AperFunction,Plated,PTH,ComponentDrill
T1C0.800
; #@! TA.AperFunction,Plated,PTH,ComponentDrill
T2C1.000
; #@! TA.AperFunction,Plated,PTH,ComponentDrill
T3C1.050
; #@! TA.AperFunction,Plated,PTH,ComponentDrill
T4C1.100
; #@! TA.AperFunction,Plated,PTH,ComponentDrill
T5C1.150
; #@! TA.AperFunction,Plated,PTH,ComponentDrill
T6C1.200
; #@! TA.AperFunction,Plated,PTH,ComponentDrill
T7C1.250
%
G90
G05
T1
X133.474Y-69.088
X134.998Y-69.088
X155.191Y-69.088
X175.384Y-69.088
X176.908Y-69.088
T2
X118.382Y-28.05
X118.382Y-30.59
X118.382Y-33.13
X118.382Y-35.67
X118.382Y-38.21
X118.382Y-40.75
X118.382Y-43.29
X118.382Y-43.29
X118.382Y-45.83
X118.382Y-45.83
X118.382Y-48.375
X118.382Y-50.915
X118.382Y-53.455
X118.382Y-55.99
X118.382Y-58.53
X118.382Y-61.07
X120.922Y-28.05
X120.922Y-30.59
X120.922Y-33.13
X120.922Y-35.67
X120.922Y-38.21
X120.922Y-40.75
X120.922Y-43.29
X120.922Y-43.295
X120.922Y-45.83
X120.922Y-45.83
X120.922Y-48.375
X120.922Y-50.915
X120.922Y-53.455
X120.922Y-55.99
X120.922Y-58.53
X120.922Y-61.07
X123.462Y-28.05
X123.462Y-30.59
X123.462Y-33.13
X123.462Y-35.67
X123.462Y-38.21
X123.462Y-40.75
X123.462Y-43.29
X123.462Y-43.295
X123.462Y-45.83
X123.462Y-45.83
X123.462Y-48.375
X123.462Y-50.915
X123.462Y-53.455
X123.462Y-55.99
X123.462Y-58.53
X123.462Y-61.07
X126.002Y-28.05
X126.002Y-30.59
X126.002Y-33.13
X126.002Y-35.67
X126.002Y-38.21
X126.002Y-40.75
X126.002Y-43.29
X126.002Y-43.295
X126.002Y-45.83
X126.002Y-45.83
X126.002Y-48.375
X126.002Y-50.915
X126.002Y-53.455
X126.002Y-55.99
X126.002Y-58.53
X126.002Y-61.07
X128.542Y-28.045
X128.542Y-30.585
X128.542Y-33.125
X128.542Y-35.665
X128.542Y-38.205
X128.542Y-40.745
X128.542Y-43.29
X128.542Y-43.29
X128.542Y-45.83
X128.542Y-45.83
X128.542Y-48.38
X128.542Y-50.92
X128.542Y-53.46
X128.542Y-55.995
X128.542Y-58.535
X128.542Y-61.075
X131.082Y-28.05
X131.082Y-30.59
X131.082Y-33.13
X131.082Y-35.67
X131.082Y-38.21
X131.082Y-40.75
X131.082Y-43.29
X131.082Y-43.295
X131.082Y-45.83
X131.082Y-45.83
X131.082Y-48.375
X131.082Y-50.915
X131.082Y-53.455
X131.082Y-55.99
X131.082Y-58.53
X131.082Y-61.07
X133.622Y-28.05
X133.622Y-30.59
X133.622Y-33.13
X133.622Y-35.67
X133.622Y-38.21
X133.622Y-40.75
X133.622Y-43.29
X133.622Y-43.295
X133.622Y-45.83
X133.622Y-45.83
X133.622Y-48.375
X133.622Y-50.915
X133.622Y-53.455
X133.622Y-55.99
X133.622Y-58.53
X133.622Y-61.07
X136.162Y-28.05
X136.162Y-30.59
X136.162Y-33.13
X136.162Y-35.67
X136.162Y-38.21
X136.162Y-40.75
X136.162Y-43.29
X136.162Y-43.295
X136.162Y-45.83
X136.162Y-48.375
X136.162Y-50.915
X136.162Y-53.455
X136.162Y-55.99
X136.162Y-58.53
X136.162Y-61.07
X136.162Y-45.83
X138.702Y-28.05
X138.702Y-30.59
X138.702Y-33.13
X138.702Y-35.67
X138.702Y-38.21
X138.702Y-40.75
X138.702Y-43.29
X138.702Y-43.295
X138.702Y-45.83
X138.702Y-48.375
X138.702Y-50.915
X138.702Y-53.455
X138.702Y-55.99
X138.702Y-58.53
X138.702Y-61.07
X138.702Y-45.83
X141.242Y-45.83
X141.242Y-28.045
X141.242Y-30.585
X141.242Y-33.125
X141.242Y-35.665
X141.242Y-38.205
X141.242Y-40.745
X141.242Y-43.29
X141.242Y-43.29
X141.242Y-45.83
X141.242Y-48.38
X141.242Y-50.92
X141.242Y-53.46
X141.242Y-55.995
X141.242Y-58.535
X141.242Y-61.075
X143.782Y-28.05
X143.782Y-30.59
X143.782Y-33.13
X143.782Y-35.67
X143.782Y-38.21
X143.782Y-40.75
X143.782Y-43.29
X143.782Y-43.295
X143.782Y-45.83
X143.782Y-45.83
X143.782Y-48.375
X143.782Y-50.915
X143.782Y-53.455
X143.782Y-55.99
X143.782Y-58.53
X143.782Y-61.07
X146.322Y-45.83
X146.322Y-28.05
X146.322Y-30.59
X146.322Y-33.13
X146.322Y-35.67
X146.322Y-38.21
X146.322Y-40.75
X146.322Y-43.29
X146.322Y-43.295
X146.322Y-45.83
X146.322Y-48.375
X146.322Y-50.915
X146.322Y-53.455
X146.322Y-55.99
X146.322Y-58.53
X146.322Y-61.07
X148.862Y-45.83
X148.862Y-28.05
X148.862Y-30.59
X148.862Y-33.13
X148.862Y-35.67
X148.862Y-38.21
X148.862Y-40.75
X148.862Y-43.29
X148.862Y-43.295
X148.862Y-45.83
X148.862Y-48.375
X148.862Y-50.915
X148.862Y-53.455
X148.862Y-55.99
X148.862Y-58.53
X148.862Y-61.07
X151.402Y-28.05
X151.402Y-30.59
X151.402Y-33.13
X151.402Y-35.67
X151.402Y-38.21
X151.402Y-40.75
X151.402Y-43.29
X151.402Y-43.295
X151.402Y-45.83
X151.402Y-45.83
X151.402Y-48.375
X151.402Y-50.915
X151.402Y-53.455
X151.402Y-55.99
X151.402Y-58.53
X151.402Y-61.07
X153.942Y-28.045
X153.942Y-30.585
X153.942Y-33.125
X153.942Y-35.665
X153.942Y-38.205
X153.942Y-40.745
X153.942Y-43.29
X153.942Y-43.29
X153.942Y-45.83
X153.942Y-45.83
X153.942Y-48.38
X153.942Y-50.92
X153.942Y-53.46
X153.942Y-55.995
X153.942Y-58.535
X153.942Y-61.075
X156.482Y-28.05
X156.482Y-30.59
X156.482Y-33.13
X156.482Y-35.67
X156.482Y-38.21
X156.482Y-40.75
X156.482Y-43.29
X156.482Y-43.295
X156.482Y-45.83
X156.482Y-45.83
X156.482Y-48.375
X156.482Y-50.915
X156.482Y-53.455
X156.482Y-55.99
X156.482Y-58.53
X156.482Y-61.07
X159.022Y-28.05
X159.022Y-30.59
X159.022Y-33.13
X159.022Y-35.67
X159.022Y-38.21
X159.022Y-40.75
X159.022Y-43.29
X159.022Y-43.295
X159.022Y-45.83
X159.022Y-45.83
X159.022Y-48.375
X159.022Y-50.915
X159.022Y-53.455
X159.022Y-55.99
X159.022Y-58.53
X159.022Y-61.07
X161.562Y-28.05
X161.562Y-30.59
X161.562Y-33.13
X161.562Y-35.67
X161.562Y-38.21
X161.562Y-40.75
X161.562Y-43.29
X161.562Y-43.295
X161.562Y-45.83
X161.562Y-48.375
X161.562Y-50.915
X161.562Y-53.455
X161.562Y-55.99
X161.562Y-58.53
X161.562Y-61.07
X161.562Y-45.83
X164.102Y-28.05
X164.102Y-30.59
X164.102Y-33.13
X164.102Y-35.67
X164.102Y-38.21
X164.102Y-40.75
X164.102Y-43.29
X164.102Y-43.295
X164.102Y-45.83
X164.102Y-45.83
X164.102Y-48.375
X164.102Y-50.915
X164.102Y-53.455
X164.102Y-55.99
X164.102Y-58.53
X164.102Y-61.07
X166.642Y-28.045
X166.642Y-30.585
X166.642Y-33.125
X166.642Y-35.665
X166.642Y-38.205
X166.642Y-40.745
X166.642Y-43.29
X166.642Y-43.29
X166.642Y-45.83
X166.642Y-48.38
X166.642Y-50.92
X166.642Y-53.46
X166.642Y-55.995
X166.642Y-58.535
X166.642Y-61.075
X166.642Y-45.83
X169.182Y-28.05
X169.182Y-30.59
X169.182Y-33.13
X169.182Y-35.67
X169.182Y-38.21
X169.182Y-40.75
X169.182Y-43.29
X169.182Y-43.295
X169.182Y-45.83
X169.182Y-48.375
X169.182Y-50.915
X169.182Y-53.455
X169.182Y-55.99
X169.182Y-58.53
X169.182Y-61.07
X169.182Y-45.83
X171.722Y-28.05
X171.722Y-30.59
X171.722Y-33.13
X171.722Y-35.67
X171.722Y-38.21
X171.722Y-40.75
X171.722Y-43.29
X171.722Y-43.295
X171.722Y-45.83
X171.722Y-45.83
X171.722Y-48.375
X171.722Y-50.915
X171.722Y-53.455
X171.722Y-55.99
X171.722Y-58.53
X171.722Y-61.07
X174.262Y-45.83
X174.262Y-28.05
X174.262Y-30.59
X174.262Y-33.13
X174.262Y-35.67
X174.262Y-38.21
X174.262Y-40.75
X174.262Y-43.29
X174.262Y-43.295
X174.262Y-45.83
X174.262Y-48.375
X174.262Y-50.915
X174.262Y-53.455
X174.262Y-55.99
X174.262Y-58.53
X174.262Y-61.07
X176.802Y-45.83
X176.802Y-28.05
X176.802Y-30.59
X176.802Y-33.13
X176.802Y-35.67
X176.802Y-38.21
X176.802Y-40.75
X176.802Y-43.29
X176.802Y-43.295
X176.802Y-45.83
X176.802Y-48.375
X176.802Y-50.915
X176.802Y-53.455
X176.802Y-55.99
X176.802Y-58.53
X176.802Y-61.07
X179.342Y-28.045
X179.342Y-30.585
X179.342Y-33.125
X179.342Y-35.665
X179.342Y-38.205
X179.342Y-40.745
X179.342Y-43.29
X179.342Y-43.29
X179.342Y-45.83
X179.342Y-45.83
X179.342Y-48.38
X179.342Y-50.92
X179.342Y-53.46
X179.342Y-55.995
X179.342Y-58.535
X179.342Y-61.075
X181.882Y-28.05
X181.882Y-30.59
X181.882Y-33.13
X181.882Y-35.67
X181.882Y-38.21
X181.882Y-40.75
X181.882Y-43.29
X181.882Y-43.295
X181.882Y-45.83
X181.882Y-45.83
X181.882Y-48.375
X181.882Y-50.915
X181.882Y-53.455
X181.882Y-55.99
X181.882Y-58.53
X181.882Y-61.07
X184.422Y-28.05
X184.422Y-30.59
X184.422Y-33.13
X184.422Y-35.67
X184.422Y-38.21
X184.422Y-40.75
X184.422Y-43.29
X184.422Y-43.295
X184.422Y-45.83
X184.422Y-45.83
X184.422Y-48.375
X184.422Y-50.915
X184.422Y-53.455
X184.422Y-55.99
X184.422Y-58.53
X184.422Y-61.07
X186.962Y-28.05
X186.962Y-30.59
X186.962Y-33.13
X186.962Y-35.67
X186.962Y-38.21
X186.962Y-40.75
X186.962Y-43.29
X186.962Y-43.295
X186.962Y-45.83
X186.962Y-45.83
X186.962Y-48.375
X186.962Y-50.915
X186.962Y-53.455
X186.962Y-55.99
X186.962Y-58.53
X186.962Y-61.07
X189.502Y-28.05
X189.502Y-30.59
X189.502Y-33.13
X189.502Y-35.67
X189.502Y-38.21
X189.502Y-40.75
X189.502Y-43.29
X189.502Y-43.295
X189.502Y-45.83
X189.502Y-45.83
X189.502Y-48.375
X189.502Y-50.915
X189.502Y-53.455
X189.502Y-55.99
X189.502Y-58.53
X189.502Y-61.07
X192.042Y-28.045
X192.042Y-30.585
X192.042Y-33.125
X192.042Y-35.665
X192.042Y-38.205
X192.042Y-40.745
X192.042Y-43.29
X192.042Y-43.29
X192.042Y-45.83
X192.042Y-45.83
X192.042Y-48.38
X192.042Y-50.92
X192.042Y-53.46
X192.042Y-55.995
X192.042Y-58.535
X192.042Y-61.075
T3
X118.382Y-40.75
X118.382Y-48.37
X120.922Y-40.75
X120.922Y-48.37
X123.462Y-40.75
X123.462Y-48.37
X126.002Y-40.75
X126.002Y-48.37
X128.542Y-40.75
X128.542Y-48.37
X131.082Y-40.75
X131.082Y-48.37
X133.622Y-40.75
X133.622Y-48.37
X136.162Y-40.75
X136.162Y-48.37
X138.702Y-40.75
X138.702Y-48.37
X141.242Y-40.75
X141.242Y-48.37
X143.782Y-40.75
X143.782Y-48.37
X146.322Y-48.37
X146.322Y-40.75
X148.862Y-40.75
X148.862Y-48.37
X151.402Y-40.75
X151.402Y-48.37
X153.942Y-40.75
X153.942Y-48.37
X156.482Y-40.75
X156.482Y-48.37
X159.022Y-40.75
X159.022Y-48.37
X161.562Y-40.75
X161.562Y-48.37
X164.102Y-40.75
X164.102Y-48.37
X166.642Y-40.75
X166.642Y-48.37
X169.182Y-40.75
X169.182Y-48.37
X171.722Y-40.75
X171.722Y-48.37
X174.262Y-48.37
X174.262Y-40.75
X176.802Y-40.75
X176.802Y-48.37
X179.342Y-40.75
X179.342Y-48.37
X181.882Y-40.75
X181.882Y-48.37
X184.422Y-40.75
X184.422Y-48.37
X186.962Y-40.75
X186.962Y-48.37
X189.502Y-48.37
X189.502Y-40.75
X192.042Y-48.37
X192.042Y-40.75
T4
X118.382Y-50.91
X118.382Y-53.45
X118.382Y-33.13
X118.382Y-35.67
X118.382Y-38.21
X118.382Y-55.99
X120.922Y-33.13
X120.922Y-35.67
X120.922Y-38.21
X120.922Y-50.91
X120.922Y-53.45
X120.922Y-55.99
X123.462Y-33.13
X123.462Y-35.67
X123.462Y-38.21
X123.462Y-50.91
X123.462Y-53.45
X123.462Y-55.99
X126.002Y-33.13
X126.002Y-35.67
X126.002Y-38.21
X126.002Y-50.91
X126.002Y-55.99
X126.002Y-53.45
X128.542Y-55.99
X128.542Y-33.13
X128.542Y-35.67
X128.542Y-38.21
X128.542Y-50.91
X128.542Y-53.45
X131.082Y-33.13
X131.082Y-35.67
X131.082Y-38.21
X131.082Y-53.45
X131.082Y-50.91
X131.082Y-55.99
X133.622Y-33.13
X133.622Y-35.67
X133.622Y-38.21
X133.622Y-55.99
X133.622Y-50.91
X133.622Y-53.45
X136.162Y-53.45
X136.162Y-33.13
X136.162Y-35.67
X136.162Y-38.21
X136.162Y-50.91
X136.162Y-55.99
X138.702Y-33.13
X138.702Y-35.67
X138.702Y-38.21
X138.702Y-53.45
X138.702Y-55.99
X138.702Y-50.91
X141.242Y-53.45
X141.242Y-33.13
X141.242Y-35.67
X141.242Y-38.21
X141.242Y-50.91
X141.242Y-55.99
X143.782Y-50.91
X143.782Y-53.45
X143.782Y-33.13
X143.782Y-35.67
X143.782Y-38.21
X143.782Y-55.99
X146.322Y-33.13
X146.322Y-35.67
X146.322Y-38.21
X146.322Y-50.91
X146.322Y-53.45
X146.322Y-55.99
X148.862Y-33.13
X148.862Y-35.67
X148.862Y-38.21
X148.862Y-50.91
X148.862Y-55.99
X148.862Y-53.45
X151.402Y-33.13
X151.402Y-35.67
X151.402Y-38.21
X151.402Y-50.91
X151.402Y-53.45
X151.402Y-55.99
X153.942Y-50.91
X153.942Y-33.13
X153.942Y-35.67
X153.942Y-38.21
X153.942Y-53.45
X153.942Y-55.99
X156.482Y-33.13
X156.482Y-35.67
X156.482Y-38.21
X156.482Y-55.99
X156.482Y-50.91
X156.482Y-53.45
X159.022Y-33.13
X159.022Y-35.67
X159.022Y-38.21
X159.022Y-50.91
X159.022Y-53.45
X159.022Y-55.99
X161.562Y-53.45
X161.562Y-33.13
X161.562Y-35.67
X161.562Y-38.21
X161.562Y-50.91
X161.562Y-55.99
X164.102Y-50.91
X164.102Y-33.13
X164.102Y-35.67
X164.102Y-38.21
X164.102Y-53.45
X164.102Y-55.99
X166.642Y-55.99
X166.642Y-33.13
X166.642Y-35.67
X166.642Y-38.21
X166.642Y-50.91
X166.642Y-53.45
X169.182Y-53.45
X169.182Y-33.13
X169.182Y-35.67
X169.182Y-38.21
X169.182Y-55.99
X169.182Y-50.91
X171.722Y-55.99
X171.722Y-33.13
X171.722Y-35.67
X171.722Y-38.21
X171.722Y-50.91
X171.722Y-53.45
X174.262Y-33.13
X174.262Y-35.67
X174.262Y-38.21
X174.262Y-50.91
X174.262Y-55.99
X174.262Y-53.45
X176.802Y-50.91
X176.802Y-53.45
X176.802Y-55.99
X176.802Y-33.13
X176.802Y-35.67
X176.802Y-38.21
X179.342Y-55.99
X179.342Y-33.13
X179.342Y-35.67
X179.342Y-38.21
X179.342Y-50.91
X179.342Y-53.45
X181.882Y-33.13
X181.882Y-35.67
X181.882Y-38.21
X181.882Y-53.45
X181.882Y-55.99
X181.882Y-50.91
X184.422Y-33.13
X184.422Y-35.67
X184.422Y-38.21
X184.422Y-50.91
X184.422Y-53.45
X184.422Y-55.99
X186.962Y-33.13
X186.962Y-35.67
X186.962Y-38.21
X186.962Y-50.91
X186.962Y-55.99
X186.962Y-53.45
X189.502Y-33.13
X189.502Y-35.67
X189.502Y-38.21
X189.502Y-53.45
X189.502Y-55.99
X189.502Y-50.91
X192.042Y-33.13
X192.042Y-35.67
X192.042Y-38.21
X192.042Y-55.99
X192.042Y-50.91
X192.042Y-53.45
T5
X118.382Y-30.59
X118.382Y-58.53
X120.922Y-30.59
X120.922Y-58.53
X123.462Y-30.59
X123.462Y-58.53
X126.002Y-58.53
X126.002Y-30.59
X128.542Y-58.53
X128.542Y-30.59
X131.082Y-30.59
X131.082Y-58.53
X133.622Y-58.53
X133.622Y-30.59
X136.162Y-58.53
X136.162Y-30.59
X138.702Y-30.59
X138.702Y-58.53
X141.242Y-58.53
X141.242Y-30.59
X143.782Y-30.59
X143.782Y-58.53
X146.322Y-30.59
X146.322Y-58.53
X148.862Y-30.59
X148.862Y-58.53
X151.402Y-30.59
X151.402Y-58.53
X153.942Y-30.59
X153.942Y-58.53
X156.482Y-30.59
X156.482Y-58.53
X159.022Y-30.59
X159.022Y-58.53
X161.562Y-30.59
X161.562Y-58.53
X164.102Y-30.59
X164.102Y-58.53
X166.642Y-30.59
X166.642Y-58.53
X169.182Y-30.59
X169.182Y-58.53
X171.722Y-30.59
X171.722Y-58.53
X174.262Y-58.53
X174.262Y-30.59
X176.802Y-30.59
X176.802Y-58.53
X179.342Y-30.59
X179.342Y-58.53
X181.882Y-30.59
X181.882Y-58.53
X184.422Y-58.53
X184.422Y-30.59
X186.962Y-30.59
X186.962Y-58.53
X189.502Y-30.59
X189.502Y-58.53
X192.042Y-30.59
X192.042Y-58.53
T6
X118.382Y-25.515
X118.382Y-28.05
X118.382Y-61.07
X118.382Y-63.61
X120.922Y-25.515
X120.922Y-28.05
X120.922Y-61.07
X120.922Y-63.61
X123.462Y-61.07
X123.462Y-25.515
X123.462Y-28.05
X123.462Y-63.61
X126.002Y-25.515
X126.002Y-28.05
X126.002Y-61.07
X126.002Y-63.61
X128.542Y-25.51
X128.542Y-28.05
X128.542Y-61.07
X128.542Y-63.61
X131.082Y-25.51
X131.082Y-28.05
X131.082Y-61.07
X131.082Y-63.61
X133.622Y-25.515
X133.622Y-28.05
X133.622Y-61.07
X133.622Y-63.61
X136.162Y-61.07
X136.162Y-25.515
X136.162Y-28.05
X136.162Y-63.61
X138.702Y-25.515
X138.702Y-28.05
X138.702Y-63.61
X138.702Y-61.07
X141.242Y-61.07
X141.242Y-25.51
X141.242Y-28.05
X141.242Y-63.61
X143.782Y-61.07
X143.782Y-25.51
X143.782Y-28.05
X143.782Y-63.61
X146.322Y-25.515
X146.322Y-28.05
X146.322Y-61.07
X146.322Y-63.61
X148.862Y-25.515
X148.862Y-28.05
X148.862Y-61.07
X148.862Y-63.61
X151.402Y-25.515
X151.402Y-28.05
X151.402Y-61.07
X151.402Y-63.61
X153.942Y-25.51
X153.942Y-28.05
X153.942Y-61.07
X153.942Y-63.61
X156.482Y-25.515
X156.482Y-28.05
X156.482Y-63.61
X156.482Y-61.07
X159.022Y-61.07
X159.022Y-25.515
X159.022Y-28.05
X159.022Y-63.61
X161.562Y-61.07
X161.562Y-25.515
X161.562Y-28.05
X161.562Y-63.61
X164.102Y-25.515
X164.102Y-28.05
X164.102Y-63.61
X164.102Y-61.07
X166.642Y-25.51
X166.642Y-28.05
X166.642Y-63.61
X166.642Y-61.07
X169.182Y-25.51
X169.182Y-28.05
X169.182Y-63.61
X169.182Y-61.07
X171.722Y-25.515
X171.722Y-28.05
X171.722Y-63.61
X171.722Y-61.07
X174.262Y-25.515
X174.262Y-28.05
X174.262Y-61.07
X174.262Y-63.61
X176.802Y-25.515
X176.802Y-28.05
X176.802Y-61.07
X176.802Y-63.61
X179.342Y-25.51
X179.342Y-28.05
X179.342Y-63.61
X179.342Y-61.07
X181.882Y-25.515
X181.882Y-28.05
X181.882Y-61.07
X181.882Y-63.61
X184.422Y-25.515
X184.422Y-28.05
X184.422Y-61.07
X184.422Y-63.61
X186.962Y-25.515
X186.962Y-28.05
X186.962Y-63.61
X186.962Y-61.07
X189.502Y-25.515
X189.502Y-28.05
X189.502Y-61.07
X189.502Y-63.61
X192.042Y-25.51
X192.042Y-28.05
X192.042Y-61.07
X192.042Y-63.61
T7
X118.382Y-63.61
X118.382Y-25.51
X120.922Y-25.51
X120.922Y-63.61
X123.462Y-25.51
X123.462Y-63.61
X126.002Y-25.51
X126.002Y-63.61
X128.542Y-25.51
X128.542Y-63.61
X131.082Y-63.61
X131.082Y-25.51
X133.622Y-25.51
X133.622Y-63.61
X136.162Y-25.51
X136.162Y-63.61
X138.702Y-25.51
X138.702Y-63.61
X141.242Y-63.61
X141.242Y-25.51
X143.782Y-63.61
X143.782Y-25.51
X146.322Y-25.51
X146.322Y-63.61
X148.862Y-25.51
X148.862Y-63.61
X151.402Y-63.61
X151.402Y-25.51
X153.942Y-63.61
X153.942Y-25.51
X156.482Y-63.61
X156.482Y-25.51
X159.022Y-25.51
X159.022Y-63.61
X161.562Y-25.51
X161.562Y-63.61
X164.102Y-63.61
X164.102Y-25.51
X166.642Y-25.51
X166.642Y-63.61
X169.182Y-25.51
X169.182Y-63.61
X171.722Y-25.51
X171.722Y-63.61
X174.262Y-25.51
X174.262Y-63.61
X176.802Y-63.61
X176.802Y-25.51
X179.342Y-25.51
X179.342Y-63.61
X181.882Y-25.51
X181.882Y-63.61
X184.422Y-25.51
X184.422Y-63.61
X186.962Y-25.51
X186.962Y-63.61
X189.502Y-25.51
X189.502Y-63.61
X192.042Y-25.51
X192.042Y-63.61
M30
