%TF.GenerationSoftware,KiCad,Pcbnew,10.0.4*%
%TF.CreationDate,2026-07-15T17:26:30-07:00*%
%TF.ProjectId,FullProto,46756c6c-5072-46f7-946f-2e6b69636164,rev?*%
%TF.SameCoordinates,Original*%
%TF.FileFunction,Soldermask,Bot*%
%TF.FilePolarity,Negative*%
%FSLAX46Y46*%
G04 Gerber Fmt 4.6, Leading zero omitted, Abs format (unit mm)*
G04 Created by KiCad (PCBNEW 10.0.4) date 2026-07-15 17:26:30*
%MOMM*%
%LPD*%
G01*
G04 APERTURE LIST*
G04 Aperture macros list*
%AMFreePoly0*
4,1,887,-8.783355,10.038881,-8.760394,10.036208,-8.754706,10.035210,-8.750234,10.034156,-8.744669,10.032498,-8.722907,10.024612,-8.717580,10.022324,-8.646868,9.986965,-8.643357,9.985030,-8.629650,9.976741,-8.626297,9.974525,-8.623697,9.972651,-8.620535,9.970175,-8.608254,9.959733,-8.605287,9.956996,-8.003117,9.354822,-8.000398,9.351877,-7.990012,9.339677,-7.987539,9.336522,-7.985666,9.333926,
-7.983440,9.330563,-7.975094,9.316775,-7.973147,9.313244,-7.937791,9.242534,-7.935504,9.237211,-7.927619,9.215456,-7.925961,9.209891,-7.924906,9.205416,-7.923906,9.199725,-7.921233,9.176758,-7.920898,9.170976,-7.920898,8.782068,-7.921234,8.776283,-7.923911,8.753301,-7.924913,8.747595,-7.925969,8.743123,-7.927624,8.737574,-7.935505,8.715833,-7.937791,8.710511,-7.973149,8.639799,
-7.975087,8.636285,-7.983390,8.622557,-7.985604,8.619207,-7.987477,8.616607,-7.989958,8.613440,-8.000385,8.601180,-8.003118,8.598218,-8.032399,8.568936,-8.033525,8.567541,-8.079271,8.520946,-8.079149,8.497007,-8.052302,8.469497,-7.869898,8.287093,-7.869843,8.287034,-7.691230,8.108422,-7.663719,8.081575,-7.639780,8.081453,-7.593187,8.127201,-7.591792,8.128322,-7.562512,8.157605,
-7.559557,8.160332,-7.547325,8.170739,-7.544164,8.173217,-7.541566,8.175090,-7.538210,8.177310,-7.524451,8.185635,-7.520928,8.187577,-7.450215,8.222934,-7.444894,8.225220,-7.423154,8.233101,-7.417605,8.234756,-7.413133,8.235812,-7.407427,8.236814,-7.384445,8.239491,-7.378660,8.239827,-6.989750,8.239827,-6.983968,8.239492,-6.960991,8.236817,-6.955282,8.235814,-6.950810,8.234758,
-6.945259,8.233102,-6.923513,8.225217,-6.918194,8.222933,-6.847484,8.187577,-6.843964,8.185636,-6.830205,8.177312,-6.826846,8.175091,-6.824248,8.173218,-6.821087,8.170740,-6.808856,8.160334,-6.805903,8.157608,-6.504816,7.856521,-6.203731,7.555438,-6.201004,7.552483,-6.190586,7.540238,-6.188099,7.537064,-6.186226,7.534464,-6.184015,7.531120,-6.175700,7.517376,-6.173759,7.513855,
-6.138402,7.443143,-6.136115,7.437817,-6.128230,7.416055,-6.126575,7.410502,-6.125520,7.406030,-6.124518,7.400330,-6.121847,7.377370,-6.121512,7.371590,-6.121512,6.982679,-6.121847,6.976900,-6.124518,6.953944,-6.125518,6.948245,-6.126573,6.943772,-6.128229,6.938217,-6.136116,6.916450,-6.138405,6.911121,-6.173761,6.840411,-6.175703,6.836889,-6.184029,6.823130,-6.186254,6.819766,
-6.188127,6.817169,-6.190599,6.814015,-6.201004,6.801787,-6.203729,6.798833,-6.232405,6.770155,-6.234140,6.768147,-6.279882,6.721557,-6.279759,6.697613,-6.253031,6.670224,-5.895137,6.312330,-5.867668,6.285524,-5.843728,6.285402,-5.797136,6.331149,-5.795746,6.332267,-5.766460,6.361554,-5.763504,6.364281,-5.751258,6.374700,-5.748081,6.377190,-5.745482,6.379061,-5.742141,6.381270,
-5.728396,6.389585,-5.724876,6.391526,-5.654164,6.426883,-5.648843,6.429169,-5.627103,6.437050,-5.621554,6.438705,-5.617082,6.439761,-5.611376,6.440763,-5.588394,6.443440,-5.582609,6.443776,-5.193699,6.443776,-5.187915,6.443440,-5.164938,6.440764,-5.159244,6.439765,-5.154771,6.438710,-5.149208,6.437052,-5.127463,6.429169,-5.122143,6.426884,-5.051434,6.391527,-5.047913,6.389586,
-5.034153,6.381261,-5.030784,6.379032,-5.028186,6.377158,-5.025037,6.374689,-5.012807,6.364284,-5.009852,6.361557,-4.708765,6.060471,-4.708765,6.060470,-4.407680,5.759387,-4.404953,5.756432,-4.394535,5.744187,-4.392046,5.741011,-4.390174,5.738411,-4.387965,5.735071,-4.379649,5.721326,-4.377707,5.717803,-4.342352,5.647091,-4.340066,5.641767,-4.332180,5.620007,-4.330524,5.614450,
-4.329469,5.609979,-4.328468,5.604279,-4.325796,5.581318,-4.325461,5.575538,-4.325461,5.186628,-4.325796,5.180849,-4.328466,5.157893,-4.329467,5.152194,-4.330522,5.147721,-4.332178,5.142165,-4.340065,5.120398,-4.342353,5.115072,-4.377709,5.044362,-4.379648,5.040844,-4.387962,5.027100,-4.390175,5.023753,-4.392048,5.021153,-4.394535,5.017978,-4.404954,5.005734,-4.407679,5.002779,
-4.436349,4.974109,-4.438089,4.972096,-4.483832,4.925506,-4.483709,4.901562,-4.456980,4.874173,-4.099128,4.516320,-4.071617,4.489473,-4.047676,4.489351,-4.001085,4.535098,-3.999694,4.536216,-3.970410,4.565503,-3.967451,4.568232,-3.955205,4.578650,-3.952040,4.581131,-3.949441,4.583004,-3.946086,4.585222,-3.932343,4.593536,-3.928825,4.595475,-3.858113,4.630832,-3.852792,4.633118,
-3.831052,4.640999,-3.825503,4.642654,-3.821031,4.643710,-3.815325,4.644712,-3.792343,4.647389,-3.786558,4.647725,-3.397647,4.647725,-3.391862,4.647389,-3.368880,4.644712,-3.363174,4.643710,-3.358702,4.642654,-3.353153,4.640999,-3.331413,4.633118,-3.326092,4.630832,-3.255382,4.595476,-3.251864,4.593537,-3.238120,4.585223,-3.234756,4.582998,-3.232157,4.581124,-3.229005,4.578652,
-3.216759,4.568236,-3.213800,4.565506,-2.912714,4.264420,-2.912714,4.264419,-2.611629,3.963336,-2.608902,3.960381,-2.598483,3.948135,-2.596006,3.944975,-2.594134,3.942377,-2.591910,3.939016,-2.583596,3.925270,-2.581655,3.921751,-2.546300,3.851039,-2.544015,3.845719,-2.536133,3.823976,-2.534477,3.818422,-2.533421,3.813948,-2.532419,3.808244,-2.529744,3.785268,-2.529409,3.779486,
-2.529409,3.390576,-2.529745,3.384791,-2.532422,3.361809,-2.533424,3.356103,-2.534480,3.351631,-2.536135,3.346082,-2.544016,3.324342,-2.546302,3.319021,-2.581658,3.248311,-2.583597,3.244793,-2.591911,3.231049,-2.594129,3.227695,-2.596002,3.225096,-2.598483,3.221931,-2.608902,3.209685,-2.611629,3.206729,-2.640298,3.178058,-2.642038,3.176045,-2.687781,3.129455,-2.687658,3.105511,
-2.660928,3.078121,-2.306651,2.723844,-2.279100,2.696958,-2.255162,2.696836,-2.208567,2.742583,-2.207178,2.743699,-2.177893,2.772987,-2.174937,2.775714,-2.162691,2.786133,-2.159514,2.788623,-2.156915,2.790494,-2.153574,2.792703,-2.139830,2.801018,-2.136309,2.802959,-2.065597,2.838316,-2.060276,2.840602,-2.038536,2.848483,-2.032987,2.850138,-2.028515,2.851194,-2.022809,2.852196,
-1.999827,2.854873,-1.994042,2.855209,-1.605132,2.855209,-1.599350,2.854874,-1.576373,2.852199,-1.570664,2.851196,-1.566192,2.850140,-1.560642,2.848486,-1.538897,2.840601,-1.533577,2.838316,-1.462867,2.802960,-1.459346,2.801019,-1.445586,2.792694,-1.442217,2.790465,-1.439619,2.788591,-1.436470,2.786122,-1.424240,2.775717,-1.421285,2.772990,-1.120199,2.471904,-0.819113,2.170820,
-0.816386,2.167865,-0.805968,2.155620,-0.803478,2.152443,-0.801607,2.149844,-0.799398,2.146504,-0.791082,2.132759,-0.789141,2.129236,-0.753785,2.058523,-0.751497,2.053198,-0.743612,2.031439,-0.741957,2.025884,-0.740902,2.021412,-0.739901,2.015713,-0.737229,1.992751,-0.736894,1.986971,-0.736894,1.598061,-0.737229,1.592282,-0.739900,1.569326,-0.740900,1.563627,-0.741955,1.559154,
-0.743611,1.553598,-0.751498,1.531832,-0.753786,1.526505,-0.789142,1.455795,-0.791087,1.452267,-0.799427,1.438487,-0.801657,1.435118,-0.803531,1.432521,-0.805998,1.429374,-0.816389,1.417165,-0.819110,1.414216,-0.847787,1.385536,-0.849522,1.383529,-0.895265,1.336940,-0.895142,1.312995,-0.868413,1.285606,-0.509623,0.926815,-0.482111,0.899967,-0.458171,0.899845,-0.411579,0.945593,
-0.410185,0.946712,-0.380905,0.975996,-0.377954,0.978719,-0.365722,0.989129,-0.362546,0.991618,-0.359948,0.993490,-0.356602,0.995703,-0.342844,1.004028,-0.339320,1.005970,-0.268608,1.041327,-0.263281,1.043615,-0.241515,1.051502,-0.235959,1.053158,-0.231486,1.054213,-0.225787,1.055213,-0.202831,1.057884,-0.197052,1.058219,0.191859,1.058219,0.197639,1.057884,0.220599,1.055213,
0.226299,1.054211,0.230771,1.053156,0.236328,1.051500,0.258089,1.043613,0.263413,1.041326,0.334123,1.005970,0.337644,1.004029,0.351409,0.995701,0.354778,0.993472,0.357376,0.991598,0.360527,0.989126,0.372752,0.978726,0.375705,0.976000,0.676791,0.674914,0.676791,0.674912,0.977877,0.373831,0.980600,0.370880,0.991008,0.358650,0.993496,0.355475,0.995368,0.352877,
0.997581,0.349530,1.005907,0.335769,1.007849,0.332247,1.043205,0.261535,1.045492,0.256212,1.053373,0.234468,1.055027,0.228921,1.056083,0.224449,1.057086,0.218740,1.059761,0.195763,1.060096,0.189981,1.060096,-0.198929,1.059760,-0.204714,1.057083,-0.227696,1.056081,-0.233402,1.055025,-0.237874,1.053370,-0.243423,1.045489,-0.265163,1.043203,-0.270484,1.007847,-0.341194,
1.005907,-0.344714,0.997593,-0.358457,0.995381,-0.361802,0.993508,-0.364402,0.991023,-0.367574,0.980606,-0.379819,0.977877,-0.382776,0.379243,-0.981412,0.376286,-0.984141,0.364041,-0.994558,0.360876,-0.997038,0.358277,-0.998911,0.354923,-1.001130,0.341179,-1.009443,0.337660,-1.011382,0.266949,-1.046739,0.261622,-1.049027,0.239856,-1.056914,0.234300,-1.058570,0.229827,-1.059625,
0.224128,-1.060626,0.201172,-1.063296,0.195393,-1.063631,-0.193517,-1.063631,-0.199297,-1.063296,-0.222259,-1.060624,-0.227958,-1.059623,-0.232430,-1.058568,-0.237985,-1.056912,-0.259746,-1.049026,-0.265072,-1.046739,-0.335782,-1.011383,-0.339300,-1.009444,-0.353044,-1.001130,-0.356404,-0.998907,-0.359003,-0.997034,-0.362160,-0.994560,-0.374406,-0.984143,-0.377364,-0.981413,-0.678450,-0.680327,
-0.979536,-0.379243,-0.982266,-0.376284,-0.992682,-0.364039,-0.995161,-0.360876,-0.997034,-0.358278,-0.999251,-0.354923,-1.007566,-0.341179,-1.009505,-0.337661,-1.044862,-0.266948,-1.047148,-0.261629,-1.055031,-0.239884,-1.056686,-0.234331,-1.057742,-0.229858,-1.058745,-0.224152,-1.061420,-0.201175,-1.061755,-0.195393,-1.061755,0.193517,-1.061419,0.199302,-1.058742,0.222284,-1.057740,0.227990,
-1.056684,0.232462,-1.055029,0.238011,-1.047148,0.259751,-1.044862,0.265072,-1.009506,0.335782,-1.007568,0.339298,-0.999255,0.353041,-0.997028,0.356408,-0.995155,0.359007,-0.992682,0.362162,-0.982265,0.374407,-0.979536,0.377365,-0.954380,0.402518,-0.952664,0.404507,-0.906917,0.451099,-0.907040,0.475039,-0.933928,0.502593,-1.292519,0.861185,-1.320071,0.888072,-1.344011,0.888194,
-1.390605,0.842449,-1.391996,0.841328,-1.417746,0.815579,-1.420703,0.812851,-1.432949,0.802433,-1.436113,0.799952,-1.438713,0.798079,-1.442067,0.795861,-1.455811,0.787547,-1.459329,0.785608,-1.530041,0.750251,-1.535362,0.747965,-1.557102,0.740084,-1.562651,0.738429,-1.567123,0.737373,-1.572829,0.736371,-1.595811,0.733694,-1.601596,0.733358,-1.990506,0.733358,-1.996288,0.733693,
-2.019265,0.736368,-2.024974,0.737371,-2.029446,0.738427,-2.034997,0.740083,-2.056742,0.747967,-2.062062,0.750252,-2.132771,0.785607,-2.136292,0.787548,-2.150052,0.795873,-2.153421,0.798102,-2.156019,0.799976,-2.159168,0.802445,-2.171398,0.812850,-2.174353,0.815577,-2.475439,1.116663,-2.475439,1.116664,-2.776523,1.417747,-2.779251,1.420702,-2.789668,1.432947,-2.792151,1.436114,
-2.794024,1.438713,-2.796242,1.442067,-2.804556,1.455811,-2.806495,1.459329,-2.841852,1.530041,-2.844139,1.535366,-2.852025,1.557128,-2.853681,1.562683,-2.854736,1.567155,-2.855737,1.572854,-2.858409,1.595815,-2.858744,1.601595,-2.858744,1.990506,-2.858409,1.996285,-2.855738,2.019241,-2.854738,2.024940,-2.853683,2.029413,-2.852027,2.034969,-2.844140,2.056735,-2.841852,2.062062,
-2.806496,2.132772,-2.804550,2.136301,-2.796210,2.150080,-2.793986,2.153441,-2.792112,2.156039,-2.789638,2.159194,-2.779248,2.171402,-2.776526,2.174351,-2.751385,2.199491,-2.749653,2.201498,-2.703907,2.248089,-2.704028,2.272030,-2.730874,2.299539,-3.085074,2.653740,-3.112586,2.680588,-3.136527,2.680710,-3.183121,2.634965,-3.184515,2.633841,-3.210262,2.608095,-3.213214,2.605371,
-3.225445,2.594963,-3.228608,2.592483,-3.231206,2.590610,-3.234562,2.588390,-3.248321,2.580065,-3.251844,2.578123,-3.322556,2.542766,-3.327883,2.540478,-3.349649,2.532591,-3.355205,2.530935,-3.359678,2.529880,-3.365378,2.528880,-3.388335,2.526209,-3.394113,2.525874,-3.783022,2.525872,-3.788804,2.526208,-3.811765,2.528881,-3.817463,2.529882,-3.821935,2.530937,-3.827490,2.532592,
-3.849252,2.540478,-3.854579,2.542766,-3.925289,2.578123,-3.928808,2.580063,-3.942551,2.588376,-3.945903,2.590594,-3.948503,2.592467,-3.951667,2.594947,-3.963913,2.605364,-3.966869,2.608093,-4.569040,3.210263,-4.571763,3.213213,-4.582154,3.225423,-4.584627,3.228577,-4.586501,3.231175,-4.588723,3.234535,-4.597065,3.248315,-4.599012,3.251845,-4.634368,3.322558,-4.636655,3.327880,
-4.644536,3.349624,-4.646189,3.355163,-4.647245,3.359636,-4.648250,3.365353,-4.650925,3.388331,-4.651260,3.394112,-4.651260,3.783022,-4.650924,3.788807,-4.648247,3.811789,-4.647245,3.817495,-4.646189,3.821967,-4.644534,3.827516,-4.636653,3.849256,-4.634367,3.854577,-4.599011,3.925287,-4.597071,3.928807,-4.588757,3.942550,-4.586545,3.945895,-4.584672,3.948495,-4.582187,3.951667,
-4.571771,3.963912,-4.569041,3.966869,-4.543891,3.992019,-4.542169,3.994014,-4.496422,4.040605,-4.496544,4.064546,-4.523391,4.092057,-4.881168,4.449833,-4.908637,4.476639,-4.932578,4.476761,-4.979172,4.431016,-4.980563,4.429895,-5.006314,4.404146,-5.009264,4.401425,-5.021489,4.391021,-5.024661,4.388534,-5.027260,4.386661,-5.030604,4.384449,-5.044369,4.376118,-5.047897,4.374173,
-5.118609,4.338817,-5.123931,4.336531,-5.145670,4.328651,-5.151218,4.326996,-5.155690,4.325940,-5.161396,4.324938,-5.184378,4.322261,-5.190163,4.321925,-5.579073,4.321925,-5.584855,4.322260,-5.607832,4.324935,-5.613541,4.325938,-5.618013,4.326994,-5.623562,4.328649,-5.645308,4.336532,-5.650630,4.338818,-5.721340,4.374175,-5.724859,4.376116,-5.738618,4.384440,-5.741977,4.386661,
-5.744575,4.388534,-5.747736,4.391011,-5.759967,4.401418,-5.762920,4.404144,-6.064006,4.705230,-6.064006,4.705231,-6.365091,5.006315,-6.367818,5.009269,-6.378236,5.021515,-6.380718,5.024681,-6.382591,5.027280,-6.384809,5.030634,-6.393124,5.044378,-6.395062,5.047896,-6.430418,5.118608,-6.432705,5.123932,-6.440592,5.145693,-6.442248,5.151250,-6.443303,5.155722,-6.444305,5.161422,
-6.446976,5.184382,-6.447311,5.190162,-6.447311,5.579073,-6.446976,5.584852,-6.444305,5.607808,-6.443305,5.613507,-6.442250,5.617980,-6.440594,5.623536,-6.432707,5.645302,-6.430419,5.650629,-6.395063,5.721339,-6.393116,5.724868,-6.384777,5.738647,-6.382553,5.742008,-6.380679,5.744605,-6.378206,5.747760,-6.367815,5.759970,-6.365091,5.762922,-6.339936,5.788074,-6.338220,5.790065,
-6.292473,5.836657,-6.292595,5.860596,-6.319401,5.888066,-6.677138,6.245803,-6.704690,6.272691,-6.728630,6.272814,-6.775225,6.227067,-6.776610,6.225951,-6.802362,6.200199,-6.805317,6.197472,-6.817564,6.187052,-6.820741,6.184563,-6.823341,6.182691,-6.826682,6.180482,-6.840426,6.172168,-6.843947,6.170226,-6.914659,6.134869,-6.919980,6.132583,-6.941720,6.124702,-6.947269,6.123047,
-6.951741,6.121991,-6.957447,6.120989,-6.980429,6.118312,-6.986214,6.117976,-7.375124,6.117976,-7.380906,6.118311,-7.403883,6.120986,-7.409590,6.121989,-7.414062,6.123045,-7.419615,6.124700,-7.441360,6.132583,-7.446679,6.134869,-7.517390,6.170224,-7.520913,6.172168,-7.534672,6.180492,-7.538039,6.182720,-7.540637,6.184594,-7.543786,6.187063,-7.556016,6.197468,-7.558971,6.200195,
-8.161143,6.802365,-8.163872,6.805322,-8.174289,6.817567,-8.176762,6.820722,-8.178636,6.823322,-8.180862,6.826687,-8.189175,6.840431,-8.191113,6.843947,-8.226470,6.914659,-8.228757,6.919985,-8.236643,6.941746,-8.238299,6.947301,-8.239354,6.951773,-8.240355,6.957473,-8.243027,6.980434,-8.243362,6.986214,-8.243362,7.375124,-8.243027,7.380903,-8.240357,7.403859,-8.239356,7.409558,
-8.238301,7.414031,-8.236645,7.419587,-8.228758,7.441353,-8.226470,7.446680,-8.191114,7.517390,-8.189172,7.520914,-8.180847,7.534672,-8.178627,7.538028,-8.176754,7.540626,-8.174275,7.543789,-8.163870,7.556018,-8.161144,7.558970,-8.136005,7.584109,-8.134272,7.586116,-8.088524,7.632709,-8.088645,7.656647,-8.115533,7.684198,-8.297898,7.866563,-8.297902,7.866570,-8.476606,8.045274,
-8.504075,8.072079,-8.528017,8.072201,-8.574610,8.026457,-8.576607,8.024730,-8.601758,7.999582,-8.604706,7.996862,-8.616914,7.986472,-8.620069,7.983998,-8.622667,7.982124,-8.626030,7.979899,-8.639809,7.971561,-8.643335,7.969615,-8.714045,7.934258,-8.719373,7.931970,-8.741139,7.924083,-8.746695,7.922427,-8.751168,7.921372,-8.756867,7.920372,-8.779822,7.917701,-8.785602,7.917366,
-9.174512,7.917366,-9.180290,7.917701,-9.203250,7.920372,-9.208964,7.921375,-9.213436,7.922431,-9.218979,7.924084,-9.240739,7.931969,-9.246066,7.934257,-9.316778,7.969612,-9.320302,7.971556,-9.334062,7.979882,-9.337417,7.982101,-9.340015,7.983974,-9.343179,7.986455,-9.355410,7.996863,-9.358361,7.999586,-9.659442,8.300670,-9.960530,8.601757,-9.963250,8.604704,-9.973635,8.616905,
-9.976108,8.620058,-9.977981,8.622654,-9.980207,8.626017,-9.988553,8.639805,-9.990500,8.643336,-10.025856,8.714046,-10.028143,8.719369,-10.036028,8.741125,-10.037684,8.746681,-10.038741,8.751157,-10.039741,8.756858,-10.042414,8.779824,-10.042749,8.785604,-10.042751,9.174514,-10.042415,9.180303,-10.039734,9.203295,-10.038731,9.209003,-10.037674,9.213472,-10.036020,9.219015,-10.028142,9.240746,
-10.025857,9.246065,-9.990500,9.316779,-9.988561,9.320297,-9.980237,9.334058,-9.978006,9.337430,-9.976132,9.340029,-9.973663,9.343178,-9.963255,9.355408,-9.960530,9.358362,-9.361894,9.956997,-9.358944,9.959720,-9.346734,9.970111,-9.343580,9.972584,-9.340982,9.974458,-9.337622,9.976682,-9.323842,9.985022,-9.320313,9.986968,-9.249603,10.022324,-9.244276,10.024612,-9.222509,10.032499,
-9.216954,10.034155,-9.212481,10.035210,-9.206782,10.036210,-9.183826,10.038881,-9.178047,10.039216,-8.789137,10.039216,-8.783355,10.038881,-8.783355,10.038881,$1*%
%AMFreePoly1*
4,1,58,0.706752,0.805471,0.757552,0.792069,0.762072,0.789471,0.812872,0.738671,0.815470,0.734150,0.828869,0.683350,0.829200,0.680800,0.829200,0.286971,0.830122,0.276289,0.837839,0.246964,0.927232,0.158474,0.955784,0.150960,1.034541,0.150000,1.270000,0.150000,1.299264,0.147118,1.353336,0.124720,1.394720,0.083336,1.417118,0.029264,1.417118,-0.029264,1.394720,-0.083336,
1.353336,-0.124720,1.299264,-0.147118,1.270000,-0.150000,1.034541,-0.150000,0.955784,-0.150960,0.927232,-0.158474,0.837839,-0.246964,0.830122,-0.276289,0.829201,-0.286950,0.829203,-0.685800,0.828872,-0.688351,0.815470,-0.739151,0.812872,-0.743671,0.762072,-0.794471,0.757552,-0.797069,0.706752,-0.810469,0.704201,-0.810800,-0.685800,-0.810801,-0.688351,-0.810470,-0.739151,-0.797069,
-0.743671,-0.794471,-0.794471,-0.743671,-0.797069,-0.739151,-0.810469,-0.688351,-0.810800,-0.685800,-0.810800,0.000000,-0.810802,0.420799,-0.810289,0.423961,-0.785288,0.498962,-0.782872,0.502871,-0.507871,0.777872,-0.503962,0.780288,-0.428962,0.805287,-0.425800,0.805800,0.425798,0.805801,0.425799,0.805800,0.704201,0.805802,0.706752,0.805471,0.706752,0.805471,$1*%
%AMFreePoly2*
4,1,83,0.000000,0.805800,0.425800,0.805800,0.428962,0.805287,0.503962,0.780288,0.507871,0.777872,0.782872,0.502871,0.785288,0.498962,0.810288,0.423960,0.810801,0.420798,0.810800,0.381959,0.810999,0.381229,0.811970,0.275347,0.819439,0.246964,0.908832,0.158474,0.937384,0.150960,1.016141,0.150000,1.270000,0.150000,1.299264,0.147118,1.353336,0.124720,1.394720,0.083336,
1.417118,0.029264,1.417118,-0.029264,1.394720,-0.083336,1.353336,-0.124720,1.299264,-0.147118,1.270000,-0.150000,1.015978,-0.150000,0.937386,-0.150958,0.908836,-0.158473,0.819439,-0.246964,0.811970,-0.275346,0.811001,-0.381226,0.810800,-0.381698,0.810800,-0.425800,0.810287,-0.428962,0.785288,-0.503962,0.782872,-0.507871,0.507871,-0.782872,0.503962,-0.785288,0.428961,-0.810289,
0.425799,-0.810802,0.000000,-0.810800,-0.425800,-0.810800,-0.428962,-0.810287,-0.503962,-0.785288,-0.507871,-0.782872,-0.782872,-0.507871,-0.785288,-0.503962,-0.810288,-0.428960,-0.810801,-0.425798,-0.810800,-0.381959,-0.810999,-0.381229,-0.811970,-0.275347,-0.819439,-0.246964,-0.908832,-0.158474,-0.937384,-0.150960,-1.016141,-0.150000,-1.275000,-0.150000,-1.304264,-0.147118,-1.358336,-0.124720,
-1.399720,-0.083336,-1.422118,-0.029264,-1.422118,0.029264,-1.399720,0.083336,-1.358336,0.124720,-1.304264,0.147118,-1.275000,0.150000,-1.016141,0.150000,-0.937384,0.150960,-0.908832,0.158474,-0.819439,0.246964,-0.811970,0.275347,-0.810999,0.381229,-0.810800,0.381697,-0.810800,0.420800,-0.810287,0.423962,-0.785288,0.498962,-0.782872,0.502871,-0.507871,0.777872,-0.503962,0.780288,
-0.428960,0.805288,-0.425798,0.805801,0.000000,0.805800,0.000000,0.805800,$1*%
%AMFreePoly3*
4,1,58,0.688351,0.810470,0.739151,0.797069,0.743671,0.794471,0.794471,0.743671,0.797069,0.739151,0.810469,0.688351,0.810800,0.685800,0.810800,0.005000,0.810802,-0.420799,0.810289,-0.423961,0.785288,-0.498962,0.782872,-0.502871,0.507871,-0.777872,0.503962,-0.780288,0.428962,-0.805287,0.425800,-0.805800,-0.425798,-0.805801,-0.425799,-0.805800,-0.704201,-0.805802,-0.706752,-0.805471,
-0.757552,-0.792069,-0.762072,-0.789471,-0.812872,-0.738671,-0.815470,-0.734150,-0.828869,-0.683350,-0.829200,-0.680800,-0.829200,-0.286971,-0.830122,-0.276289,-0.837839,-0.246964,-0.927232,-0.158474,-0.955784,-0.150960,-1.034541,-0.150000,-1.270000,-0.150000,-1.299264,-0.147118,-1.353336,-0.124720,-1.394720,-0.083336,-1.417118,-0.029264,-1.417118,0.029264,-1.394720,0.083336,-1.353336,0.124720,
-1.299264,0.147118,-1.270000,0.150000,-1.034541,0.150000,-0.955784,0.150960,-0.927232,0.158474,-0.837839,0.246964,-0.830122,0.276289,-0.829201,0.286950,-0.829203,0.685800,-0.828872,0.688351,-0.815470,0.739151,-0.812872,0.743671,-0.762072,0.794471,-0.757552,0.797069,-0.706752,0.810469,-0.704201,0.810800,0.685800,0.810801,0.688351,0.810470,0.688351,0.810470,$1*%
%AMFreePoly4*
4,1,58,0.706151,0.805470,0.756951,0.792069,0.761471,0.789471,0.812271,0.738671,0.814869,0.734151,0.828269,0.683351,0.828600,0.680800,0.828600,0.277702,0.828722,0.276289,0.836439,0.246964,0.925832,0.158474,0.954384,0.150960,1.033141,0.150000,1.270000,0.150000,1.299264,0.147118,1.353336,0.124720,1.394720,0.083336,1.417118,0.029264,1.417118,-0.029264,1.394720,-0.083336,
1.353336,-0.124720,1.299264,-0.147118,1.270000,-0.150000,1.033141,-0.150000,0.954384,-0.150960,0.925832,-0.158474,0.836439,-0.246964,0.828722,-0.276289,0.828600,-0.277702,0.828600,-0.685800,0.828269,-0.688351,0.814869,-0.739151,0.812271,-0.743671,0.761471,-0.794471,0.756951,-0.797069,0.706151,-0.810470,0.703600,-0.810801,0.685800,-0.810800,0.685800,-0.810801,-0.425800,-0.810800,
-0.428962,-0.810287,-0.503962,-0.785288,-0.507871,-0.782872,-0.782872,-0.507871,-0.785288,-0.503962,-0.810288,-0.428960,-0.810801,-0.425798,-0.810800,0.420800,-0.810287,0.423962,-0.785288,0.498962,-0.782872,0.502871,-0.507871,0.777872,-0.503962,0.780288,-0.428960,0.805288,-0.425798,0.805801,0.017800,0.805800,0.703600,0.805801,0.706151,0.805470,0.706151,0.805470,$1*%
%AMFreePoly5*
4,1,82,0.428961,0.810289,0.503962,0.785288,0.507871,0.782872,0.782872,0.507871,0.785288,0.503962,0.810287,0.428962,0.810800,0.425800,0.810800,0.381967,0.811001,0.381226,0.811970,0.275346,0.819439,0.246964,0.908836,0.158473,0.937386,0.150958,1.015978,0.150000,1.270000,0.150000,1.299264,0.147118,1.353336,0.124720,1.394720,0.083336,1.417118,0.029264,1.417118,-0.029264,
1.394720,-0.083336,1.353336,-0.124720,1.299264,-0.147118,1.270000,-0.150000,1.016141,-0.150000,0.937384,-0.150960,0.908832,-0.158474,0.819439,-0.246964,0.811970,-0.275347,0.810999,-0.381229,0.810800,-0.381695,0.810801,-0.420798,0.810288,-0.423960,0.785288,-0.498962,0.782872,-0.502871,0.507871,-0.777872,0.503962,-0.780288,0.428962,-0.805287,0.425800,-0.805800,-0.425798,-0.805801,
-0.428960,-0.805288,-0.503962,-0.780288,-0.507871,-0.777872,-0.782872,-0.502871,-0.785288,-0.498962,-0.810287,-0.423962,-0.810800,-0.420800,-0.810800,-0.381963,-0.810999,-0.381229,-0.811970,-0.275347,-0.819439,-0.246964,-0.908832,-0.158474,-0.937384,-0.150960,-1.016141,-0.150000,-1.275000,-0.150000,-1.304264,-0.147118,-1.358336,-0.124720,-1.399720,-0.083336,-1.422118,-0.029264,-1.422118,0.029264,
-1.399720,0.083336,-1.358336,0.124720,-1.304264,0.147118,-1.275000,0.150000,-1.016141,0.150000,-0.937384,0.150960,-0.908832,0.158474,-0.819439,0.246964,-0.811970,0.275347,-0.810999,0.381229,-0.810800,0.381695,-0.810801,0.425798,-0.810288,0.428960,-0.785288,0.503962,-0.782872,0.507871,-0.507871,0.782872,-0.503962,0.785288,-0.428962,0.810287,-0.425800,0.810800,0.000000,0.810800,
0.425799,0.810802,0.428961,0.810289,0.428961,0.810289,$1*%
%AMFreePoly6*
4,1,58,0.706151,0.810470,0.756951,0.797069,0.761471,0.794471,0.812271,0.743671,0.814869,0.739151,0.828269,0.688351,0.828600,0.685800,0.828600,0.277702,0.828722,0.276289,0.836439,0.246964,0.925832,0.158474,0.954384,0.150960,1.033141,0.150000,1.270000,0.150000,1.299264,0.147118,1.353336,0.124720,1.394720,0.083336,1.417118,0.029264,1.417118,-0.029264,1.394720,-0.083336,
1.353336,-0.124720,1.299264,-0.147118,1.270000,-0.150000,1.033141,-0.150000,0.954384,-0.150960,0.925832,-0.158474,0.836439,-0.246964,0.828722,-0.276289,0.828600,-0.277702,0.828600,-0.680800,0.828269,-0.683351,0.814869,-0.734151,0.812271,-0.738671,0.761471,-0.789471,0.756951,-0.792069,0.706151,-0.805470,0.703600,-0.805801,0.000000,-0.805800,-0.425798,-0.805801,-0.428960,-0.805288,
-0.503962,-0.780288,-0.507871,-0.777872,-0.782872,-0.502871,-0.785288,-0.498962,-0.810287,-0.423962,-0.810800,-0.420800,-0.810801,0.425798,-0.810288,0.428960,-0.785288,0.503962,-0.782872,0.507871,-0.507871,0.782872,-0.503962,0.785288,-0.428962,0.810287,-0.425800,0.810800,0.685800,0.810801,0.685800,0.810800,0.703600,0.810801,0.706151,0.810470,0.706151,0.810470,$1*%
%AMFreePoly7*
4,1,79,0.000002,0.792226,0.293920,0.792226,0.294131,0.792222,0.314197,0.791375,0.315932,0.790985,0.352898,0.775363,0.354381,0.774396,0.368999,0.760623,0.369152,0.760472,0.435597,0.692225,0.503889,0.625737,0.504040,0.625584,0.517813,0.610966,0.518780,0.609483,0.534402,0.572517,0.534792,0.570782,0.535639,0.550716,0.535643,0.550505,0.535642,0.087985,0.535643,0.087963,
0.535642,-0.205958,0.535643,-0.499879,0.535639,-0.500090,0.534792,-0.520156,0.534402,-0.521891,0.518780,-0.558857,0.517813,-0.560340,0.504040,-0.574958,0.503889,-0.575111,0.435619,-0.641577,0.369153,-0.709847,0.369000,-0.709998,0.354382,-0.723772,0.352899,-0.724739,0.315933,-0.740360,0.314198,-0.740750,0.294132,-0.741597,0.293921,-0.741601,0.000000,-0.741601,-0.000002,-0.741600,
-0.293920,-0.741600,-0.294131,-0.741596,-0.314197,-0.740749,-0.315932,-0.740359,-0.352898,-0.724737,-0.354381,-0.723770,-0.368999,-0.709997,-0.369152,-0.709846,-0.435597,-0.641599,-0.503889,-0.575111,-0.504040,-0.574958,-0.517813,-0.560340,-0.518780,-0.558857,-0.534402,-0.521891,-0.534792,-0.520156,-0.535639,-0.500090,-0.535643,-0.499879,-0.535642,-0.205958,-0.535643,0.087963,-0.535642,0.087985,
-0.535643,0.550505,-0.535639,0.550716,-0.534792,0.570782,-0.534402,0.572517,-0.518780,0.609483,-0.517813,0.610966,-0.504040,0.625584,-0.503889,0.625737,-0.435619,0.692203,-0.369153,0.760473,-0.369000,0.760624,-0.354382,0.774398,-0.352899,0.775365,-0.315933,0.790986,-0.314198,0.791376,-0.294132,0.792223,-0.293921,0.792227,0.000000,0.792227,0.000002,0.792226,0.000002,0.792226,
$1*%
%AMFreePoly8*
4,1,96,0.294132,0.792223,0.314198,0.791376,0.315933,0.790986,0.352899,0.775365,0.354382,0.774398,0.369000,0.760624,0.369154,0.760473,0.435620,0.692204,0.503889,0.625738,0.504040,0.625584,0.517813,0.610966,0.518780,0.609483,0.534402,0.572517,0.534792,0.570782,0.535639,0.550716,0.535643,0.550505,0.535642,0.087985,0.535643,0.087963,0.535642,0.012722,0.535643,0.012720,
0.535644,-0.575120,0.535642,-0.575203,0.535643,-0.970682,0.535642,-1.264603,0.535643,-1.612524,0.535628,-1.612913,0.533985,-1.633990,0.533514,-1.635751,0.523514,-1.656751,0.522508,-1.658163,0.446351,-1.733163,0.445172,-1.734026,0.426172,-1.744026,0.424427,-1.744567,0.407427,-1.746567,0.406843,-1.746601,0.200000,-1.746601,0.199416,-1.746567,0.182416,-1.744567,0.180671,-1.744026,
0.161671,-1.734026,0.160487,-1.733159,0.081487,-1.655159,0.080257,-1.653182,0.073257,-1.632182,0.073028,-1.631132,0.070671,-1.609055,0.070643,-1.608516,0.071201,-1.264603,0.071200,-1.129312,0.069650,-1.034021,0.062862,-0.997172,0.050584,-0.973709,-0.143253,-0.785410,-0.182352,-0.756087,-0.210810,-0.746601,-0.300000,-0.746601,-0.301581,-0.746344,-0.331581,-0.736344,-0.332774,-0.735761,
-0.343097,-0.728878,-0.352898,-0.724737,-0.354381,-0.723770,-0.368999,-0.709997,-0.369152,-0.709846,-0.435580,-0.641617,-0.503889,-0.575111,-0.504040,-0.574958,-0.517813,-0.560340,-0.518780,-0.558857,-0.534402,-0.521891,-0.534792,-0.520156,-0.535639,-0.500090,-0.535643,-0.499879,-0.535642,-0.205958,-0.535643,0.087973,-0.535642,0.256584,-0.535643,0.550505,-0.535639,0.550716,-0.534792,0.570782,
-0.534402,0.572517,-0.518780,0.609483,-0.517813,0.610966,-0.504040,0.625584,-0.503889,0.625738,-0.435596,0.692228,-0.369153,0.760473,-0.369000,0.760624,-0.354382,0.774398,-0.352899,0.775365,-0.315933,0.790986,-0.314198,0.791376,-0.294132,0.792223,-0.293921,0.792227,0.293921,0.792227,0.294132,0.792223,0.294132,0.792223,$1*%
%AMFreePoly9*
4,1,87,0.000002,0.792226,0.293920,0.792226,0.294131,0.792222,0.314197,0.791375,0.315932,0.790985,0.352898,0.775363,0.354381,0.774396,0.368999,0.760623,0.369152,0.760472,0.435597,0.692225,0.503889,0.625737,0.504040,0.625584,0.517813,0.610966,0.518780,0.609483,0.534402,0.572517,0.534792,0.570782,0.535639,0.550716,0.535643,0.550505,0.535642,0.087985,0.535643,0.087963,
0.535642,-0.449485,0.535643,-0.449495,0.535642,-0.912014,0.535643,-0.912037,0.535642,-1.205958,0.535643,-1.499879,0.535639,-1.500090,0.534792,-1.520156,0.534402,-1.521891,0.518780,-1.558857,0.517813,-1.560340,0.504040,-1.574958,0.503889,-1.575111,0.435619,-1.641577,0.369153,-1.709847,0.369000,-1.709998,0.354382,-1.723772,0.352899,-1.724739,0.315933,-1.740360,0.314198,-1.740750,
0.294132,-1.741597,0.293921,-1.741601,0.000000,-1.741601,-0.000002,-1.741600,-0.293920,-1.741600,-0.294131,-1.741596,-0.314197,-1.740749,-0.315932,-1.740359,-0.352898,-1.724737,-0.354381,-1.723770,-0.368999,-1.709997,-0.369152,-1.709846,-0.435597,-1.641599,-0.503889,-1.575111,-0.504040,-1.574958,-0.517813,-1.560340,-0.518780,-1.558857,-0.534402,-1.521891,-0.534792,-1.520156,-0.535639,-1.500090,
-0.535643,-1.499879,-0.535642,-1.205958,-0.535643,-0.912037,-0.535642,-0.912014,-0.535643,-0.449495,-0.535642,-0.449485,-0.535643,0.087963,-0.535642,0.087985,-0.535643,0.550505,-0.535639,0.550716,-0.534792,0.570782,-0.534402,0.572517,-0.518780,0.609483,-0.517813,0.610966,-0.504040,0.625584,-0.503889,0.625737,-0.435619,0.692203,-0.369153,0.760473,-0.369000,0.760624,-0.354382,0.774398,
-0.352899,0.775365,-0.315933,0.790986,-0.314198,0.791376,-0.294132,0.792223,-0.293921,0.792227,0.000000,0.792227,0.000002,0.792226,0.000002,0.792226,$1*%
%AMFreePoly10*
4,1,93,0.000002,0.792226,0.293920,0.792226,0.294131,0.792222,0.314197,0.791375,0.315932,0.790985,0.352898,0.775363,0.354381,0.774396,0.368999,0.760623,0.369152,0.760472,0.435573,0.692251,0.503889,0.625738,0.504040,0.625584,0.517813,0.610966,0.518780,0.609483,0.534402,0.572517,0.534792,0.570782,0.535639,0.550716,0.535643,0.550505,0.535642,0.256584,0.535643,-0.037348,
0.535642,-0.205958,0.535643,-0.499879,0.535639,-0.500090,0.534792,-0.520156,0.534402,-0.521891,0.518780,-0.558857,0.517813,-0.560340,0.504040,-0.574958,0.503889,-0.575111,0.434146,-0.643014,0.363573,-0.715099,0.362774,-0.715761,0.332774,-0.735761,0.331581,-0.736344,0.301581,-0.746344,0.300000,-0.746601,0.210810,-0.746601,0.182352,-0.756087,0.143253,-0.785410,-0.050584,-0.973709,
-0.062862,-0.997172,-0.069650,-1.034021,-0.071200,-1.129312,-0.071201,-1.264603,-0.070643,-1.608516,-0.070671,-1.609055,-0.073028,-1.631132,-0.073257,-1.632182,-0.080257,-1.653182,-0.081487,-1.655159,-0.160487,-1.733159,-0.161671,-1.734026,-0.180671,-1.744026,-0.182416,-1.744567,-0.199416,-1.746567,-0.200000,-1.746601,-0.406843,-1.746601,-0.407427,-1.746567,-0.424427,-1.744567,-0.426172,-1.744026,
-0.445172,-1.734026,-0.446351,-1.733163,-0.522508,-1.658163,-0.523514,-1.656751,-0.533514,-1.635751,-0.533985,-1.633990,-0.535628,-1.612913,-0.535643,-1.612524,-0.535642,-1.264603,-0.535643,-0.970682,-0.535642,-0.575203,-0.535644,-0.575120,-0.535643,0.012720,-0.535642,0.012728,-0.535643,0.550505,-0.535639,0.550716,-0.534792,0.570782,-0.534402,0.572517,-0.518780,0.609483,-0.517813,0.610966,
-0.504040,0.625584,-0.503889,0.625738,-0.435620,0.692204,-0.369154,0.760473,-0.369000,0.760624,-0.354382,0.774398,-0.352899,0.775365,-0.315933,0.790986,-0.314198,0.791376,-0.294132,0.792223,-0.293921,0.792227,0.000000,0.792227,0.000002,0.792226,0.000002,0.792226,$1*%
%AMFreePoly11*
4,1,79,0.294132,0.792223,0.314198,0.791376,0.315933,0.790986,0.352899,0.775365,0.354382,0.774398,0.369000,0.760624,0.369153,0.760473,0.435619,0.692203,0.503889,0.625737,0.504040,0.625584,0.517813,0.610966,0.518780,0.609483,0.534402,0.572517,0.534792,0.570782,0.535639,0.550716,0.535643,0.550505,0.535642,0.087985,0.535643,0.087963,0.535642,-0.205958,0.535643,-0.499879,
0.535639,-0.500090,0.534792,-0.520156,0.534402,-0.521891,0.518780,-0.558857,0.517813,-0.560340,0.504040,-0.574958,0.503889,-0.575111,0.435597,-0.641599,0.369152,-0.709846,0.368999,-0.709997,0.354381,-0.723770,0.352898,-0.724737,0.315932,-0.740359,0.314197,-0.740749,0.294131,-0.741596,0.293920,-0.741600,0.000002,-0.741600,0.000000,-0.741601,-0.293921,-0.741601,-0.294132,-0.741597,
-0.314198,-0.740750,-0.315933,-0.740360,-0.352899,-0.724739,-0.354382,-0.723772,-0.369000,-0.709998,-0.369153,-0.709847,-0.435619,-0.641577,-0.503889,-0.575111,-0.504040,-0.574958,-0.517813,-0.560340,-0.518780,-0.558857,-0.534402,-0.521891,-0.534792,-0.520156,-0.535639,-0.500090,-0.535643,-0.499879,-0.535642,-0.205958,-0.535643,0.087963,-0.535642,0.087985,-0.535643,0.550505,-0.535639,0.550716,
-0.534792,0.570782,-0.534402,0.572517,-0.518780,0.609483,-0.517813,0.610966,-0.504040,0.625584,-0.503889,0.625737,-0.435597,0.692225,-0.369152,0.760472,-0.368999,0.760623,-0.354381,0.774396,-0.352898,0.775363,-0.315932,0.790985,-0.314197,0.791375,-0.294131,0.792222,-0.293920,0.792226,-0.000002,0.792226,0.000000,0.792227,0.293921,0.792227,0.294132,0.792223,0.294132,0.792223,
$1*%
%AMFreePoly12*
4,1,87,0.294132,0.792223,0.314198,0.791376,0.315933,0.790986,0.352899,0.775365,0.354382,0.774398,0.369000,0.760624,0.369153,0.760473,0.435619,0.692203,0.503889,0.625737,0.504040,0.625584,0.517813,0.610966,0.518780,0.609483,0.534402,0.572517,0.534792,0.570782,0.535639,0.550716,0.535643,0.550505,0.535642,0.087985,0.535643,0.087963,0.535642,-0.449485,0.535643,-0.449495,
0.535642,-0.912014,0.535643,-0.912037,0.535642,-1.205958,0.535643,-1.499879,0.535639,-1.500090,0.534792,-1.520156,0.534402,-1.521891,0.518780,-1.558857,0.517813,-1.560340,0.504040,-1.574958,0.503889,-1.575111,0.435597,-1.641599,0.369152,-1.709846,0.368999,-1.709997,0.354381,-1.723770,0.352898,-1.724737,0.315932,-1.740359,0.314197,-1.740749,0.294131,-1.741596,0.293920,-1.741600,
0.000002,-1.741600,0.000000,-1.741601,-0.293921,-1.741601,-0.294132,-1.741597,-0.314198,-1.740750,-0.315933,-1.740360,-0.352899,-1.724739,-0.354382,-1.723772,-0.369000,-1.709998,-0.369153,-1.709847,-0.435619,-1.641577,-0.503889,-1.575111,-0.504040,-1.574958,-0.517813,-1.560340,-0.518780,-1.558857,-0.534402,-1.521891,-0.534792,-1.520156,-0.535639,-1.500090,-0.535643,-1.499879,-0.535642,-1.205958,
-0.535643,-0.912037,-0.535642,-0.912014,-0.535643,-0.449495,-0.535642,-0.449485,-0.535643,0.087963,-0.535642,0.087985,-0.535643,0.550505,-0.535639,0.550716,-0.534792,0.570782,-0.534402,0.572517,-0.518780,0.609483,-0.517813,0.610966,-0.504040,0.625584,-0.503889,0.625737,-0.435597,0.692225,-0.369152,0.760472,-0.368999,0.760623,-0.354381,0.774396,-0.352898,0.775363,-0.315932,0.790985,
-0.314197,0.791375,-0.294131,0.792222,-0.293920,0.792226,-0.000002,0.792226,0.000000,0.792227,0.293921,0.792227,0.294132,0.792223,0.294132,0.792223,$1*%
%AMFreePoly13*
4,1,93,0.294132,0.792223,0.314198,0.791376,0.315933,0.790986,0.352899,0.775365,0.354382,0.774398,0.369000,0.760624,0.369154,0.760473,0.435620,0.692204,0.503889,0.625738,0.504040,0.625584,0.517813,0.610966,0.518780,0.609483,0.534402,0.572517,0.534792,0.570782,0.535639,0.550716,0.535643,0.550505,0.535642,0.012728,0.535643,0.012720,0.535644,-0.575120,0.535642,-0.575203,
0.535643,-0.970682,0.535642,-1.264603,0.535643,-1.612524,0.535628,-1.612913,0.533985,-1.633990,0.533514,-1.635751,0.523514,-1.656751,0.522508,-1.658163,0.446351,-1.733163,0.445172,-1.734026,0.426172,-1.744026,0.424427,-1.744567,0.407427,-1.746567,0.406843,-1.746601,0.200000,-1.746601,0.199416,-1.746567,0.182416,-1.744567,0.180671,-1.744026,0.161671,-1.734026,0.160487,-1.733159,
0.081487,-1.655159,0.080257,-1.653182,0.073257,-1.632182,0.073028,-1.631132,0.070671,-1.609055,0.070643,-1.608516,0.071201,-1.264603,0.071200,-1.129312,0.069650,-1.034021,0.062862,-0.997172,0.050584,-0.973709,-0.143253,-0.785410,-0.182352,-0.756087,-0.210810,-0.746601,-0.300000,-0.746601,-0.301581,-0.746344,-0.331581,-0.736344,-0.332774,-0.735761,-0.362774,-0.715761,-0.363573,-0.715099,
-0.434146,-0.643014,-0.503889,-0.575111,-0.504040,-0.574958,-0.517813,-0.560340,-0.518780,-0.558857,-0.534402,-0.521891,-0.534792,-0.520156,-0.535639,-0.500090,-0.535643,-0.499879,-0.535642,-0.205958,-0.535643,0.087973,-0.535642,0.256584,-0.535643,0.550505,-0.535639,0.550716,-0.534792,0.570782,-0.534402,0.572517,-0.518780,0.609483,-0.517813,0.610966,-0.504040,0.625584,-0.503889,0.625738,
-0.435573,0.692251,-0.369152,0.760472,-0.368999,0.760623,-0.354381,0.774396,-0.352898,0.775363,-0.315932,0.790985,-0.314197,0.791375,-0.294131,0.792222,-0.293920,0.792226,-0.000002,0.792226,0.000000,0.792227,0.293921,0.792227,0.294132,0.792223,0.294132,0.792223,$1*%
%AMFreePoly14*
4,1,96,0.294132,0.792223,0.314198,0.791376,0.315933,0.790986,0.352899,0.775365,0.354382,0.774398,0.369000,0.760624,0.369153,0.760473,0.435596,0.692228,0.503889,0.625738,0.504040,0.625584,0.517813,0.610966,0.518780,0.609483,0.534402,0.572517,0.534792,0.570782,0.535639,0.550716,0.535643,0.550505,0.535642,0.256584,0.535643,-0.037348,0.535642,-0.205958,0.535643,-0.499879,
0.535639,-0.500090,0.534792,-0.520156,0.534402,-0.521891,0.518780,-0.558857,0.517813,-0.560340,0.504040,-0.574958,0.503889,-0.575111,0.435580,-0.641617,0.369152,-0.709846,0.368999,-0.709997,0.354381,-0.723770,0.352898,-0.724737,0.343097,-0.728878,0.332774,-0.735761,0.331581,-0.736344,0.301581,-0.746344,0.300000,-0.746601,0.210810,-0.746601,0.182352,-0.756087,0.143253,-0.785410,
-0.050584,-0.973709,-0.062862,-0.997172,-0.069650,-1.034021,-0.071200,-1.129312,-0.071201,-1.264603,-0.070643,-1.608516,-0.070671,-1.609055,-0.073028,-1.631132,-0.073257,-1.632182,-0.080257,-1.653182,-0.081487,-1.655159,-0.160487,-1.733159,-0.161671,-1.734026,-0.180671,-1.744026,-0.182416,-1.744567,-0.199416,-1.746567,-0.200000,-1.746601,-0.406843,-1.746601,-0.407427,-1.746567,-0.424427,-1.744567,
-0.426172,-1.744026,-0.445172,-1.734026,-0.446351,-1.733163,-0.522508,-1.658163,-0.523514,-1.656751,-0.533514,-1.635751,-0.533985,-1.633990,-0.535628,-1.612913,-0.535643,-1.612524,-0.535642,-1.264603,-0.535643,-0.970682,-0.535642,-0.575203,-0.535644,-0.575120,-0.535643,0.012720,-0.535642,0.012722,-0.535643,0.087963,-0.535642,0.087985,-0.535643,0.550505,-0.535639,0.550716,-0.534792,0.570782,
-0.534402,0.572517,-0.518780,0.609483,-0.517813,0.610966,-0.504040,0.625584,-0.503889,0.625738,-0.435620,0.692204,-0.369154,0.760473,-0.369000,0.760624,-0.354382,0.774398,-0.352899,0.775365,-0.315933,0.790986,-0.314198,0.791376,-0.294132,0.792223,-0.293921,0.792227,0.293921,0.792227,0.294132,0.792223,0.294132,0.792223,$1*%
%AMFreePoly15*
4,1,33,0.265652,0.531305,0.315652,0.506305,0.324749,0.499749,0.499749,0.324749,0.506305,0.315652,0.531305,0.265652,0.535000,0.250000,0.535000,-0.250000,0.531305,-0.265652,0.506305,-0.315652,0.499749,-0.324749,0.324749,-0.499749,0.315652,-0.506305,0.265652,-0.531305,0.250000,-0.535000,-0.250000,-0.535000,-0.265652,-0.531305,-0.315652,-0.506305,-0.324749,-0.499749,-0.499749,-0.324749,
-0.506305,-0.315652,-0.531305,-0.265652,-0.535000,-0.250000,-0.535000,0.250000,-0.531305,0.265652,-0.506305,0.315652,-0.499749,0.324749,-0.324749,0.499749,-0.315652,0.506305,-0.265652,0.531305,-0.250000,0.535000,0.250000,0.535000,0.265652,0.531305,0.265652,0.531305,$1*%
%AMFreePoly16*
4,1,150,0.404831,5.416039,0.428513,5.411328,0.446537,5.403862,0.462441,5.393235,0.476235,5.379441,0.486862,5.363537,0.494328,5.345513,0.499039,5.321831,0.500000,5.312076,0.500000,0.054924,0.499039,0.050092,0.499039,0.050000,0.500000,0.050000,0.500000,0.000000,0.496194,-0.019134,0.485355,-0.035355,0.469134,-0.046194,0.450000,-0.050000,-0.450000,-0.050000,-0.469134,-0.046194,
-0.485355,-0.035355,-0.496194,-0.019134,-0.500000,0.000000,-0.500000,0.050000,-0.499040,0.050000,-0.499039,0.050096,-0.500000,0.054924,-0.500000,0.409924,-0.368315,0.409924,-0.368315,0.387247,-0.366654,0.303642,-0.356591,0.202013,-0.349010,0.167456,-0.336202,0.139770,-0.318805,0.117715,-0.296947,0.100347,-0.270789,0.087832,-0.233536,0.077691,-0.181896,0.070692,-0.111957,0.068033,
-0.111957,0.226816,-0.131692,0.225973,-0.161250,0.228448,-0.181409,0.234944,-0.194804,0.244877,-0.207027,0.266528,-0.211853,0.300748,-0.215125,0.381385,-0.211804,0.474624,-0.211804,0.482172,-0.209336,0.516831,-0.203427,0.537386,-0.195781,0.548520,-0.183351,0.556122,-0.162408,0.561496,-0.129054,0.563651,-0.101542,0.560830,-0.084612,0.553571,-0.074979,0.542219,-0.067997,0.517872,
-0.065063,0.476273,-0.065063,0.333464,0.078748,0.333464,0.078748,0.467883,0.077624,0.509026,0.080005,0.532882,0.086195,0.549643,0.095210,0.561123,0.108623,0.569334,0.129392,0.574923,0.160471,0.577096,0.187754,0.574551,0.206199,0.567833,0.218308,0.557349,0.229007,0.535611,0.233060,0.504849,0.231937,0.485542,0.231937,0.391460,0.230813,0.294007,0.227440,0.265371,
0.218894,0.246754,0.206584,0.235169,0.189050,0.227540,0.162189,0.222176,0.122516,0.220075,0.122516,0.066348,0.162914,0.064663,0.221575,0.067335,0.266390,0.074504,0.300156,0.085189,0.325167,0.098855,0.343067,0.115478,0.359104,0.140770,0.371991,0.174695,0.380738,0.219364,0.384002,0.277191,0.385126,0.384719,0.385126,0.517452,0.380546,0.589729,0.368809,0.640004,
0.352389,0.673644,0.332858,0.695102,0.305098,0.712658,0.271508,0.725560,0.230883,0.733753,0.181623,0.736685,0.117786,0.732867,0.076808,0.723293,0.051783,0.709794,0.034226,0.690082,0.018938,0.658301,0.007380,0.609849,-0.011573,0.661910,-0.029341,0.689384,-0.048894,0.704335,-0.072448,0.713772,-0.096277,0.719026,-0.156507,0.722397,-0.219087,0.718984,-0.265164,0.709934,
-0.298530,0.696502,-0.322055,0.679129,-0.339075,0.657214,-0.352546,0.628007,-0.361617,0.589689,-0.364993,0.540130,-0.368315,0.409924,-0.500000,0.409924,-0.500000,1.152105,-0.368315,1.152105,-0.155726,0.912686,-0.003416,0.988304,-0.192460,1.191563,0.385126,1.191563,0.385126,1.358735,-0.368315,1.358735,-0.368315,1.152105,-0.500000,1.152105,-0.500000,5.312076,-0.499040,5.321829,
-0.494330,5.345511,-0.486863,5.363537,-0.476236,5.379441,-0.462442,5.393235,-0.446538,5.403862,-0.428514,5.411328,-0.404831,5.416039,-0.395076,5.417000,0.395076,5.417000,0.404831,5.416039,0.404831,5.416039,$1*%
%AMFreePoly17*
4,1,213,0.404831,5.416039,0.428513,5.411328,0.446537,5.403862,0.462441,5.393235,0.476235,5.379441,0.486862,5.363537,0.494328,5.345513,0.499039,5.321831,0.500000,5.312076,0.500000,0.054924,0.499039,0.050092,0.499039,0.050000,0.500000,0.050000,0.500000,0.000000,0.496194,-0.019134,0.485355,-0.035355,0.469134,-0.046194,0.450000,-0.050000,-0.450000,-0.050000,-0.469134,-0.046194,
-0.485355,-0.035355,-0.496194,-0.019134,-0.500000,0.000000,-0.500000,0.050000,-0.499040,0.050000,-0.499039,0.050096,-0.500000,0.054924,-0.500000,0.409924,-0.368315,0.409924,-0.368315,0.387247,-0.366654,0.303642,-0.356591,0.202013,-0.349010,0.167456,-0.336202,0.139770,-0.318805,0.117715,-0.296947,0.100347,-0.270789,0.087832,-0.233536,0.077691,-0.181896,0.070692,-0.111957,0.068033,
-0.111957,0.226816,-0.131692,0.225973,-0.161250,0.228448,-0.181409,0.234944,-0.194804,0.244877,-0.207027,0.266528,-0.211853,0.300748,-0.215125,0.381385,-0.211804,0.474624,-0.211804,0.482172,-0.209336,0.516831,-0.203427,0.537386,-0.195781,0.548520,-0.183351,0.556122,-0.162408,0.561496,-0.129054,0.563651,-0.101542,0.560830,-0.084612,0.553571,-0.074979,0.542219,-0.067997,0.517872,
-0.065063,0.476273,-0.065063,0.333464,0.078748,0.333464,0.078748,0.467883,0.077624,0.509026,0.080005,0.532882,0.086195,0.549643,0.095210,0.561123,0.108623,0.569334,0.129392,0.574923,0.160471,0.577096,0.187754,0.574551,0.206199,0.567833,0.218308,0.557349,0.229007,0.535611,0.233060,0.504849,0.231937,0.485542,0.231937,0.391460,0.230813,0.294007,0.227440,0.265371,
0.218894,0.246754,0.206584,0.235169,0.189050,0.227540,0.162189,0.222176,0.122516,0.220075,0.122516,0.066348,0.162914,0.064663,0.221575,0.067335,0.266390,0.074504,0.300156,0.085189,0.325167,0.098855,0.343067,0.115478,0.359104,0.140770,0.371991,0.174695,0.380738,0.219364,0.384002,0.277191,0.385126,0.384719,0.385126,0.517452,0.380546,0.589729,0.368809,0.640004,
0.352389,0.673644,0.332858,0.695102,0.305098,0.712658,0.271508,0.725560,0.230883,0.733753,0.181623,0.736685,0.117786,0.732867,0.076808,0.723293,0.051783,0.709794,0.034226,0.690082,0.018938,0.658301,0.007380,0.609849,-0.011573,0.661910,-0.029341,0.689384,-0.048894,0.704335,-0.072448,0.713772,-0.096277,0.719026,-0.156507,0.722397,-0.219087,0.718984,-0.265164,0.709934,
-0.298530,0.696502,-0.322055,0.679129,-0.339075,0.657214,-0.352546,0.628007,-0.361617,0.589689,-0.364993,0.540130,-0.368315,0.409924,-0.500000,0.409924,-0.500000,1.267180,-0.368315,1.267180,-0.363820,1.079016,-0.360775,1.016632,-0.352823,0.971114,-0.341513,0.938901,-0.328014,0.916899,-0.307471,0.899788,-0.273859,0.885981,-0.222173,0.876216,-0.145760,0.872386,-0.093199,0.873229,
-0.093199,1.027761,-0.118943,1.027761,-0.152453,1.029849,-0.166784,1.033366,-0.182690,1.040364,-0.195929,1.050598,-0.205600,1.065973,-0.210932,1.084069,-0.212878,1.106713,-0.215125,1.205851,-0.215125,1.293229,-0.212864,1.324355,-0.207334,1.343727,-0.199982,1.354961,-0.188174,1.362965,-0.169536,1.368383,-0.141218,1.370495,-0.125537,1.371338,-0.099039,1.369076,-0.081204,1.363161,
-0.069557,1.354118,-0.058181,1.333801,-0.049431,1.297405,-0.017826,1.003435,-0.007687,0.965989,0.006379,0.937637,0.023595,0.916572,0.043674,0.901366,0.077863,0.886838,0.126209,0.876979,0.193249,0.873229,0.385126,0.873229,0.385126,1.530083,0.235063,1.530083,0.235063,1.026955,0.201260,1.026955,0.171394,1.029461,0.153267,1.035742,0.143032,1.045017,0.134690,1.065211,
0.131357,1.096674,0.119683,1.214277,0.106884,1.352836,0.102438,1.407326,0.090782,1.446821,0.073859,1.474776,0.052662,1.493960,0.024794,1.508014,-0.014775,1.519337,-0.069510,1.527128,-0.143562,1.530083,-0.208161,1.527103,-0.256444,1.519184,-0.291916,1.507504,-0.317414,1.492677,-0.336687,1.473202,-0.351892,1.446276,-0.362196,1.409813,-0.366067,1.361263,-0.368315,1.267180,
-0.500000,1.267180,-0.500000,5.312076,-0.499040,5.321829,-0.494330,5.345511,-0.486863,5.363537,-0.476236,5.379441,-0.462442,5.393235,-0.446538,5.403862,-0.428514,5.411328,-0.404831,5.416039,-0.395076,5.417000,0.395076,5.417000,0.404831,5.416039,0.404831,5.416039,$1*%
%AMFreePoly18*
4,1,241,0.404831,5.416039,0.428513,5.411328,0.446537,5.403862,0.462441,5.393235,0.476235,5.379441,0.486862,5.363537,0.494328,5.345513,0.499039,5.321831,0.500000,5.312076,0.500000,0.054924,0.499039,0.050092,0.499039,0.050000,0.500000,0.050000,0.500000,0.000000,0.496194,-0.019134,0.485355,-0.035355,0.469134,-0.046194,0.450000,-0.050000,-0.450000,-0.050000,-0.469134,-0.046194,
-0.485355,-0.035355,-0.496194,-0.019134,-0.500000,0.000000,-0.500000,0.050000,-0.499040,0.050000,-0.499039,0.050096,-0.500000,0.054924,-0.500000,0.409924,-0.368315,0.409924,-0.368315,0.387247,-0.366654,0.303642,-0.356591,0.202013,-0.349010,0.167456,-0.336202,0.139770,-0.318805,0.117715,-0.296947,0.100347,-0.270789,0.087832,-0.233536,0.077691,-0.181896,0.070692,-0.111957,0.068033,
-0.111957,0.226816,-0.131692,0.225973,-0.161250,0.228448,-0.181409,0.234944,-0.194804,0.244877,-0.207027,0.266528,-0.211853,0.300748,-0.215125,0.381385,-0.211804,0.474624,-0.211804,0.482172,-0.209336,0.516831,-0.203427,0.537386,-0.195781,0.548520,-0.183351,0.556122,-0.162408,0.561496,-0.129054,0.563651,-0.101542,0.560830,-0.084612,0.553571,-0.074979,0.542219,-0.067997,0.517872,
-0.065063,0.476273,-0.065063,0.333464,0.078748,0.333464,0.078748,0.467883,0.077624,0.509026,0.080005,0.532882,0.086195,0.549643,0.095210,0.561123,0.108623,0.569334,0.129392,0.574923,0.160471,0.577096,0.187754,0.574551,0.206199,0.567833,0.218308,0.557349,0.229007,0.535611,0.233060,0.504849,0.231937,0.485542,0.231937,0.391460,0.230813,0.294007,0.227440,0.265371,
0.218894,0.246754,0.206584,0.235169,0.189050,0.227540,0.162189,0.222176,0.122516,0.220075,0.122516,0.066348,0.162914,0.064663,0.221575,0.067335,0.266390,0.074504,0.300156,0.085189,0.325167,0.098855,0.343067,0.115478,0.359104,0.140770,0.371991,0.174695,0.380738,0.219364,0.384002,0.277191,0.385126,0.384719,0.385126,0.517452,0.380546,0.589729,0.368809,0.640004,
0.352389,0.673644,0.332858,0.695102,0.305098,0.712658,0.271508,0.725560,0.230883,0.733753,0.181623,0.736685,0.117786,0.732867,0.076808,0.723293,0.051783,0.709794,0.034226,0.690082,0.018938,0.658301,0.007380,0.609849,-0.011573,0.661910,-0.029341,0.689384,-0.048894,0.704335,-0.072448,0.713772,-0.096277,0.719026,-0.156507,0.722397,-0.219087,0.718984,-0.265164,0.709934,
-0.298530,0.696502,-0.322055,0.679129,-0.339075,0.657214,-0.352546,0.628007,-0.361617,0.589689,-0.364993,0.540130,-0.368315,0.409924,-0.500000,0.409924,-0.500000,1.210064,-0.368315,1.210064,-0.368315,1.187386,-0.366654,1.103782,-0.356591,1.002152,-0.349010,0.967596,-0.336202,0.939910,-0.318805,0.917854,-0.296947,0.900486,-0.270789,0.887971,-0.233536,0.877830,-0.181896,0.870831,
-0.111957,0.868173,-0.111957,1.026955,-0.131692,1.026113,-0.161250,1.028587,-0.181409,1.035084,-0.194804,1.045017,-0.207027,1.066667,-0.211853,1.100887,-0.215125,1.181524,-0.211804,1.274764,-0.211804,1.282311,-0.209336,1.316971,-0.203427,1.337526,-0.195781,1.348660,-0.183351,1.356262,-0.162408,1.361636,-0.129054,1.363790,-0.101542,1.360969,-0.084612,1.353710,-0.074979,1.342358,
-0.067997,1.318011,-0.065063,1.276413,-0.065063,1.133604,0.078748,1.133604,0.078748,1.268023,0.077624,1.309166,0.080005,1.333022,0.086195,1.349783,0.095210,1.361263,0.108623,1.369474,0.129392,1.375063,0.160471,1.377236,0.187754,1.374691,0.206199,1.367972,0.218308,1.357489,0.229007,1.335751,0.233060,1.304989,0.231937,1.285682,0.231937,1.191599,0.230813,1.094146,
0.227440,1.065510,0.218894,1.046893,0.206584,1.035308,0.189050,1.027680,0.162189,1.022315,0.122516,1.020214,0.122516,0.866488,0.162914,0.864802,0.221575,0.867474,0.266390,0.874644,0.300156,0.885329,0.325167,0.898995,0.343067,0.915617,0.359104,0.940910,0.371991,0.974834,0.380738,1.019504,0.384002,1.077330,0.385126,1.184858,0.385126,1.317592,0.380546,1.389869,
0.368809,1.440144,0.352389,1.473784,0.332858,1.495242,0.305098,1.512797,0.271508,1.525700,0.230883,1.533893,0.181623,1.536824,0.117786,1.533006,0.076808,1.523433,0.051783,1.509933,0.034226,1.490221,0.018938,1.458440,0.007380,1.409989,-0.011573,1.462049,-0.029341,1.489524,-0.048894,1.504474,-0.072448,1.513912,-0.096277,1.519166,-0.156507,1.522536,-0.219087,1.519124,
-0.265164,1.510074,-0.298530,1.496642,-0.322055,1.479269,-0.339075,1.457354,-0.352546,1.428147,-0.361617,1.389828,-0.364993,1.340270,-0.368315,1.210064,-0.500000,1.210064,-0.500000,5.312076,-0.499040,5.321829,-0.494330,5.345511,-0.486863,5.363537,-0.476236,5.379441,-0.462442,5.393235,-0.446538,5.403862,-0.428514,5.411328,-0.404831,5.416039,-0.395076,5.417000,0.395076,5.417000,
0.404831,5.416039,0.404831,5.416039,$1*%
%AMFreePoly19*
4,1,168,0.404831,5.416039,0.428513,5.411328,0.446537,5.403862,0.462441,5.393235,0.476235,5.379441,0.486862,5.363537,0.494328,5.345513,0.499039,5.321831,0.500000,5.312076,0.500000,0.054924,0.499039,0.050092,0.499039,0.050000,0.500000,0.050000,0.500000,0.000000,0.496194,-0.019134,0.485355,-0.035355,0.469134,-0.046194,0.450000,-0.050000,-0.450000,-0.050000,-0.469134,-0.046194,
-0.485355,-0.035355,-0.496194,-0.019134,-0.500000,0.000000,-0.500000,0.050000,-0.499040,0.050000,-0.499039,0.050096,-0.500000,0.054924,-0.500000,0.409924,-0.368315,0.409924,-0.368315,0.387247,-0.366654,0.303642,-0.356591,0.202013,-0.349010,0.167456,-0.336202,0.139770,-0.318805,0.117715,-0.296947,0.100347,-0.270789,0.087832,-0.233536,0.077691,-0.181896,0.070692,-0.111957,0.068033,
-0.111957,0.226816,-0.131692,0.225973,-0.161250,0.228448,-0.181409,0.234944,-0.194804,0.244877,-0.207027,0.266528,-0.211853,0.300748,-0.215125,0.381385,-0.211804,0.474624,-0.211804,0.482172,-0.209336,0.516831,-0.203427,0.537386,-0.195781,0.548520,-0.183351,0.556122,-0.162408,0.561496,-0.129054,0.563651,-0.101542,0.560830,-0.084612,0.553571,-0.074979,0.542219,-0.067997,0.517872,
-0.065063,0.476273,-0.065063,0.333464,0.078748,0.333464,0.078748,0.467883,0.077624,0.509026,0.080005,0.532882,0.086195,0.549643,0.095210,0.561123,0.108623,0.569334,0.129392,0.574923,0.160471,0.577096,0.187754,0.574551,0.206199,0.567833,0.218308,0.557349,0.229007,0.535611,0.233060,0.504849,0.231937,0.485542,0.231937,0.391460,0.230813,0.294007,0.227440,0.265371,
0.218894,0.246754,0.206584,0.235169,0.189050,0.227540,0.162189,0.222176,0.122516,0.220075,0.122516,0.066348,0.162914,0.064663,0.221575,0.067335,0.266390,0.074504,0.300156,0.085189,0.325167,0.098855,0.343067,0.115478,0.359104,0.140770,0.371991,0.174695,0.380738,0.219364,0.384002,0.277191,0.385126,0.384719,0.385126,0.517452,0.380546,0.589729,0.368809,0.640004,
0.352389,0.673644,0.332858,0.695102,0.305098,0.712658,0.271508,0.725560,0.230883,0.733753,0.181623,0.736685,0.117786,0.732867,0.076808,0.723293,0.051783,0.709794,0.034226,0.690082,0.018938,0.658301,0.007380,0.609849,-0.011573,0.661910,-0.029341,0.689384,-0.048894,0.704335,-0.072448,0.713772,-0.096277,0.719026,-0.156507,0.722397,-0.219087,0.718984,-0.265164,0.709934,
-0.298530,0.696502,-0.322055,0.679129,-0.339075,0.657214,-0.352546,0.628007,-0.361617,0.589689,-0.364993,0.540130,-0.368315,0.409924,-0.500000,0.409924,-0.500000,1.190600,-0.308960,1.190600,-0.028328,0.856413,0.231937,0.856413,0.231937,1.190600,0.081874,1.190600,0.081874,0.973173,-0.104460,1.190600,-0.308960,1.190600,-0.500000,1.190600,-0.500000,1.458715,-0.368315,1.458715,
-0.368315,1.261282,-0.350947,1.240600,-0.147309,1.240600,-0.200324,1.302461,0.081874,1.302461,0.081874,1.240600,0.231937,1.240600,0.231937,1.302461,0.385126,1.302461,0.385126,1.458715,0.231937,1.458715,0.231937,1.549427,0.081874,1.549427,0.081874,1.458715,-0.368315,1.458715,-0.500000,1.458715,-0.500000,5.312076,-0.499040,5.321829,-0.494330,5.345511,-0.486863,5.363537,
-0.476236,5.379441,-0.462442,5.393235,-0.446538,5.403862,-0.428514,5.411328,-0.404831,5.416039,-0.395076,5.417000,0.395076,5.417000,0.404831,5.416039,0.404831,5.416039,$1*%
%AMFreePoly20*
4,1,211,0.404831,5.416039,0.428513,5.411328,0.446537,5.403862,0.462441,5.393235,0.476235,5.379441,0.486862,5.363537,0.494328,5.345513,0.499039,5.321831,0.500000,5.312076,0.500000,0.054924,0.499039,0.050092,0.499039,0.050000,0.500000,0.050000,0.500000,0.000000,0.496194,-0.019134,0.485355,-0.035355,0.469134,-0.046194,0.450000,-0.050000,-0.450000,-0.050000,-0.469134,-0.046194,
-0.485355,-0.035355,-0.496194,-0.019134,-0.500000,0.000000,-0.500000,0.050000,-0.499040,0.050000,-0.499039,0.050096,-0.500000,0.054924,-0.500000,0.409924,-0.368315,0.409924,-0.368315,0.387247,-0.366654,0.303642,-0.356591,0.202013,-0.349010,0.167456,-0.336202,0.139770,-0.318805,0.117715,-0.296947,0.100347,-0.270789,0.087832,-0.233536,0.077691,-0.181896,0.070692,-0.111957,0.068033,
-0.111957,0.226816,-0.131692,0.225973,-0.161250,0.228448,-0.181409,0.234944,-0.194804,0.244877,-0.207027,0.266528,-0.211853,0.300748,-0.215125,0.381385,-0.211804,0.474624,-0.211804,0.482172,-0.209336,0.516831,-0.203427,0.537386,-0.195781,0.548520,-0.183351,0.556122,-0.162408,0.561496,-0.129054,0.563651,-0.101542,0.560830,-0.084612,0.553571,-0.074979,0.542219,-0.067997,0.517872,
-0.065063,0.476273,-0.065063,0.333464,0.078748,0.333464,0.078748,0.467883,0.077624,0.509026,0.080005,0.532882,0.086195,0.549643,0.095210,0.561123,0.108623,0.569334,0.129392,0.574923,0.160471,0.577096,0.187754,0.574551,0.206199,0.567833,0.218308,0.557349,0.229007,0.535611,0.233060,0.504849,0.231937,0.485542,0.231937,0.391460,0.230813,0.294007,0.227440,0.265371,
0.218894,0.246754,0.206584,0.235169,0.189050,0.227540,0.162189,0.222176,0.122516,0.220075,0.122516,0.066348,0.162914,0.064663,0.221575,0.067335,0.266390,0.074504,0.300156,0.085189,0.325167,0.098855,0.343067,0.115478,0.359104,0.140770,0.371991,0.174695,0.380738,0.219364,0.384002,0.277191,0.385126,0.384719,0.385126,0.517452,0.380546,0.589729,0.368809,0.640004,
0.352389,0.673644,0.332858,0.695102,0.305098,0.712658,0.271508,0.725560,0.230883,0.733753,0.181623,0.736685,0.117786,0.732867,0.076808,0.723293,0.051783,0.709794,0.034226,0.690082,0.018938,0.658301,0.007380,0.609849,-0.011573,0.661910,-0.029341,0.689384,-0.048894,0.704335,-0.072448,0.713772,-0.096277,0.719026,-0.156507,0.722397,-0.219087,0.718984,-0.265164,0.709934,
-0.298530,0.696502,-0.322055,0.679129,-0.339075,0.657214,-0.352546,0.628007,-0.361617,0.589689,-0.364993,0.540130,-0.368315,0.409924,-0.500000,0.409924,-0.500000,1.512461,-0.368315,1.512461,-0.368315,0.897555,0.072495,0.890008,0.072495,1.033660,0.053166,1.037754,0.040771,1.044469,0.033514,1.053810,0.024233,1.083229,0.022474,1.115982,0.022474,1.208379,0.024721,1.299933,
0.027905,1.328631,0.036090,1.348072,0.047973,1.360823,0.065083,1.369633,0.090962,1.375691,0.128915,1.378042,0.170942,1.375016,0.196976,1.367460,0.212153,1.356610,0.221439,1.341472,0.228152,1.317758,0.230813,1.282274,0.231937,1.210907,0.229690,1.129427,0.227617,1.095629,0.221239,1.060111,0.213879,1.044795,0.200681,1.034048,0.180527,1.027080,0.150653,1.024427,
0.150653,0.868173,0.222424,0.871803,0.273981,0.881305,0.310151,0.895149,0.334665,0.912686,0.352232,0.935210,0.366312,0.966081,0.375906,1.007538,0.379508,1.062199,0.385126,1.222667,0.385126,1.286488,0.384002,1.349502,0.378938,1.404011,0.365433,1.444774,0.345315,1.474817,0.319327,1.496488,0.286166,1.512634,0.242362,1.525259,0.185278,1.533697,0.111769,1.536824,
0.036481,1.532895,-0.016810,1.522672,-0.053583,1.507845,-0.075990,1.492008,-0.093630,1.472091,-0.106572,1.447340,-0.114351,1.416693,-0.123876,1.319680,-0.124462,1.248715,-0.124462,1.196618,-0.123339,1.144558,-0.119918,1.109797,-0.110443,1.081543,-0.092758,1.056542,-0.063890,1.033660,-0.218252,1.033660,-0.218252,1.512461,-0.368315,1.512461,-0.500000,1.512461,-0.500000,5.312076,
-0.499040,5.321829,-0.494330,5.345511,-0.486863,5.363537,-0.476236,5.379441,-0.462442,5.393235,-0.446538,5.403862,-0.428514,5.411328,-0.404831,5.416039,-0.395076,5.417000,0.395076,5.417000,0.404831,5.416039,0.404831,5.416039,$1*%
%AMFreePoly21*
4,1,245,0.404831,5.416039,0.428513,5.411328,0.446537,5.403862,0.462441,5.393235,0.476235,5.379441,0.486862,5.363537,0.494328,5.345513,0.499039,5.321831,0.500000,5.312076,0.500000,0.054924,0.499039,0.050092,0.499039,0.050000,0.500000,0.050000,0.500000,0.000000,0.496194,-0.019134,0.485355,-0.035355,0.469134,-0.046194,0.450000,-0.050000,-0.450000,-0.050000,-0.469134,-0.046194,
-0.485355,-0.035355,-0.496194,-0.019134,-0.500000,0.000000,-0.500000,0.050000,-0.499040,0.050000,-0.499039,0.050096,-0.500000,0.054924,-0.500000,0.409924,-0.368315,0.409924,-0.368315,0.387247,-0.366654,0.303642,-0.356591,0.202013,-0.349010,0.167456,-0.336202,0.139770,-0.318805,0.117715,-0.296947,0.100347,-0.270789,0.087832,-0.233536,0.077691,-0.181896,0.070692,-0.111957,0.068033,
-0.111957,0.226816,-0.131692,0.225973,-0.161250,0.228448,-0.181409,0.234944,-0.194804,0.244877,-0.207027,0.266528,-0.211853,0.300748,-0.215125,0.381385,-0.211804,0.474624,-0.211804,0.482172,-0.209336,0.516831,-0.203427,0.537386,-0.195781,0.548520,-0.183351,0.556122,-0.162408,0.561496,-0.129054,0.563651,-0.101542,0.560830,-0.084612,0.553571,-0.074979,0.542219,-0.067997,0.517872,
-0.065063,0.476273,-0.065063,0.333464,0.078748,0.333464,0.078748,0.467883,0.077624,0.509026,0.080005,0.532882,0.086195,0.549643,0.095210,0.561123,0.108623,0.569334,0.129392,0.574923,0.160471,0.577096,0.187754,0.574551,0.206199,0.567833,0.218308,0.557349,0.229007,0.535611,0.233060,0.504849,0.231937,0.485542,0.231937,0.391460,0.230813,0.294007,0.227440,0.265371,
0.218894,0.246754,0.206584,0.235169,0.189050,0.227540,0.162189,0.222176,0.122516,0.220075,0.122516,0.066348,0.162914,0.064663,0.221575,0.067335,0.266390,0.074504,0.300156,0.085189,0.325167,0.098855,0.343067,0.115478,0.359104,0.140770,0.371991,0.174695,0.380738,0.219364,0.384002,0.277191,0.385126,0.384719,0.385126,0.517452,0.380546,0.589729,0.368809,0.640004,
0.352389,0.673644,0.332858,0.695102,0.305098,0.712658,0.271508,0.725560,0.230883,0.733753,0.181623,0.736685,0.117786,0.732867,0.076808,0.723293,0.051783,0.709794,0.034226,0.690082,0.018938,0.658301,0.007380,0.609849,-0.011573,0.661910,-0.029341,0.689384,-0.048894,0.704335,-0.072448,0.713772,-0.096277,0.719026,-0.156507,0.722397,-0.219087,0.718984,-0.265164,0.709934,
-0.298530,0.696502,-0.322055,0.679129,-0.339075,0.657214,-0.352546,0.628007,-0.361617,0.589689,-0.364993,0.540130,-0.368315,0.409924,-0.500000,0.409924,-0.500000,1.206693,-0.368315,1.206693,-0.367191,1.136132,-0.361622,1.072311,-0.356104,1.018903,-0.340663,0.974654,-0.316340,0.937892,-0.290911,0.913048,-0.264499,0.895711,-0.236836,0.884627,-0.207310,0.879091,-0.122362,0.873229,
-0.078789,0.873229,0.082167,0.874071,0.170603,0.876425,0.232572,0.882461,0.268752,0.890966,0.298562,0.904619,0.323088,0.923640,0.351079,0.958926,0.370618,1.001749,0.380851,1.052873,0.385126,1.138660,0.384124,1.190600,0.231016,1.190600,0.231937,1.126899,0.227507,1.081627,0.216940,1.055495,0.203928,1.043735,0.181785,1.035900,0.146305,1.032817,0.115054,1.035526,
0.095087,1.042474,0.082949,1.052967,0.072669,1.075935,0.068489,1.113454,0.066877,1.190600,-0.086667,1.190600,-0.083022,1.134228,-0.072976,1.092021,-0.059436,1.068403,-0.037352,1.049147,-0.005321,1.033660,-0.098426,1.033660,-0.146102,1.036591,-0.166089,1.041523,-0.185914,1.050879,-0.201183,1.063970,-0.208922,1.080701,-0.212878,1.136132,-0.215125,1.233585,-0.214002,1.283154,
-0.211237,1.311693,-0.088070,1.311693,-0.087386,1.240600,0.066242,1.240600,0.066242,1.302461,0.070798,1.332242,0.082949,1.353276,0.096041,1.363340,0.114962,1.369773,0.141860,1.372180,0.177511,1.369207,0.200055,1.361638,0.213570,1.350345,0.224971,1.325172,0.229690,1.282311,0.230293,1.240600,0.383159,1.240600,0.381755,1.313379,0.377674,1.379758,0.367014,1.428043,
0.351758,1.462193,0.333249,1.485570,0.306941,1.503526,0.267251,1.517920,0.209662,1.527920,0.128427,1.531769,0.066817,1.528892,0.015196,1.520851,-0.015067,1.510851,-0.037931,1.496176,-0.054560,1.476338,-0.071200,1.441613,-0.081378,1.403248,-0.086277,1.362239,-0.088070,1.311693,-0.211237,1.311693,-0.210967,1.314480,-0.202767,1.338585,-0.192706,1.351534,-0.177488,1.360387,
-0.155726,1.365476,-0.155726,1.520008,-0.216585,1.517146,-0.262524,1.509507,-0.296703,1.498173,-0.317972,1.485740,-0.334853,1.469121,-0.347494,1.447492,-0.355419,1.419624,-0.363199,1.364760,-0.366605,1.321366,-0.368315,1.206693,-0.500000,1.206693,-0.500000,5.312076,-0.499040,5.321829,-0.494330,5.345511,-0.486863,5.363537,-0.476236,5.379441,-0.462442,5.393235,-0.446538,5.403862,
-0.428514,5.411328,-0.404831,5.416039,-0.395076,5.417000,0.395076,5.417000,0.404831,5.416039,0.404831,5.416039,$1*%
%AMFreePoly22*
4,1,150,0.404831,5.416039,0.428513,5.411328,0.446537,5.403862,0.462441,5.393235,0.476235,5.379441,0.486862,5.363537,0.494328,5.345513,0.499039,5.321831,0.500000,5.312076,0.500000,0.054924,0.499039,0.050092,0.499039,0.050000,0.500000,0.050000,0.500000,0.000000,0.496194,-0.019134,0.485355,-0.035355,0.469134,-0.046194,0.450000,-0.050000,-0.450000,-0.050000,-0.469134,-0.046194,
-0.485355,-0.035355,-0.496194,-0.019134,-0.500000,0.000000,-0.500000,0.050000,-0.499040,0.050000,-0.499039,0.050096,-0.500000,0.054924,-0.500000,0.409924,-0.368315,0.409924,-0.368315,0.387247,-0.366654,0.303642,-0.356591,0.202013,-0.349010,0.167456,-0.336202,0.139770,-0.318805,0.117715,-0.296947,0.100347,-0.270789,0.087832,-0.233536,0.077691,-0.181896,0.070692,-0.111957,0.068033,
-0.111957,0.226816,-0.131692,0.225973,-0.161250,0.228448,-0.181409,0.234944,-0.194804,0.244877,-0.207027,0.266528,-0.211853,0.300748,-0.215125,0.381385,-0.211804,0.474624,-0.211804,0.482172,-0.209336,0.516831,-0.203427,0.537386,-0.195781,0.548520,-0.183351,0.556122,-0.162408,0.561496,-0.129054,0.563651,-0.101542,0.560830,-0.084612,0.553571,-0.074979,0.542219,-0.067997,0.517872,
-0.065063,0.476273,-0.065063,0.333464,0.078748,0.333464,0.078748,0.467883,0.077624,0.509026,0.080005,0.532882,0.086195,0.549643,0.095210,0.561123,0.108623,0.569334,0.129392,0.574923,0.160471,0.577096,0.187754,0.574551,0.206199,0.567833,0.218308,0.557349,0.229007,0.535611,0.233060,0.504849,0.231937,0.485542,0.231937,0.391460,0.230813,0.294007,0.227440,0.265371,
0.218894,0.246754,0.206584,0.235169,0.189050,0.227540,0.162189,0.222176,0.122516,0.220075,0.122516,0.066348,0.162914,0.064663,0.221575,0.067335,0.266390,0.074504,0.300156,0.085189,0.325167,0.098855,0.343067,0.115478,0.359104,0.140770,0.371991,0.174695,0.380738,0.219364,0.384002,0.277191,0.385126,0.384719,0.385126,0.517452,0.380546,0.589729,0.368809,0.640004,
0.352389,0.673644,0.332858,0.695102,0.305098,0.712658,0.271508,0.725560,0.230883,0.733753,0.181623,0.736685,0.117786,0.732867,0.076808,0.723293,0.051783,0.709794,0.034226,0.690082,0.018938,0.658301,0.007380,0.609849,-0.011573,0.661910,-0.029341,0.689384,-0.048894,0.704335,-0.072448,0.713772,-0.096277,0.719026,-0.156507,0.722397,-0.219087,0.718984,-0.265164,0.709934,
-0.298530,0.696502,-0.322055,0.679129,-0.339075,0.657214,-0.352546,0.628007,-0.361617,0.589689,-0.364993,0.540130,-0.368315,0.409924,-0.500000,0.409924,-0.500000,0.866488,-0.368315,0.866488,-0.183862,0.866488,-0.183862,1.327667,0.385126,0.962255,0.385126,1.163866,-0.197345,1.534296,-0.368315,1.534296,-0.368315,0.866488,-0.500000,0.866488,-0.500000,5.312076,-0.499040,5.321829,
-0.494330,5.345511,-0.486863,5.363537,-0.476236,5.379441,-0.462442,5.393235,-0.446538,5.403862,-0.428514,5.411328,-0.404831,5.416039,-0.395076,5.417000,0.395076,5.417000,0.404831,5.416039,0.404831,5.416039,$1*%
%AMFreePoly23*
4,1,264,0.404831,5.416039,0.428513,5.411328,0.446537,5.403862,0.462441,5.393235,0.476235,5.379441,0.486862,5.363537,0.494328,5.345513,0.499039,5.321831,0.500000,5.312076,0.500000,0.054924,0.499039,0.050092,0.499039,0.050000,0.500000,0.050000,0.500000,0.000000,0.496194,-0.019134,0.485355,-0.035355,0.469134,-0.046194,0.450000,-0.050000,-0.450000,-0.050000,-0.469134,-0.046194,
-0.485355,-0.035355,-0.496194,-0.019134,-0.500000,0.000000,-0.500000,0.050000,-0.499040,0.050000,-0.499039,0.050096,-0.500000,0.054924,-0.500000,0.409924,-0.368315,0.409924,-0.368315,0.387247,-0.366654,0.303642,-0.356591,0.202013,-0.349010,0.167456,-0.336202,0.139770,-0.318805,0.117715,-0.296947,0.100347,-0.270789,0.087832,-0.233536,0.077691,-0.181896,0.070692,-0.111957,0.068033,
-0.111957,0.226816,-0.131692,0.225973,-0.161250,0.228448,-0.181409,0.234944,-0.194804,0.244877,-0.207027,0.266528,-0.211853,0.300748,-0.215125,0.381385,-0.211804,0.474624,-0.211804,0.482172,-0.209336,0.516831,-0.203427,0.537386,-0.195781,0.548520,-0.183351,0.556122,-0.162408,0.561496,-0.129054,0.563651,-0.101542,0.560830,-0.084612,0.553571,-0.074979,0.542219,-0.067997,0.517872,
-0.065063,0.476273,-0.065063,0.333464,0.078748,0.333464,0.078748,0.467883,0.077624,0.509026,0.080005,0.532882,0.086195,0.549643,0.095210,0.561123,0.108623,0.569334,0.129392,0.574923,0.160471,0.577096,0.187754,0.574551,0.206199,0.567833,0.218308,0.557349,0.229007,0.535611,0.233060,0.504849,0.231937,0.485542,0.231937,0.391460,0.230813,0.294007,0.227440,0.265371,
0.218894,0.246754,0.206584,0.235169,0.189050,0.227540,0.162189,0.222176,0.122516,0.220075,0.122516,0.066348,0.162914,0.064663,0.221575,0.067335,0.266390,0.074504,0.300156,0.085189,0.325167,0.098855,0.343067,0.115478,0.359104,0.140770,0.371991,0.174695,0.380738,0.219364,0.384002,0.277191,0.385126,0.384719,0.385126,0.517452,0.380546,0.589729,0.368809,0.640004,
0.352389,0.673644,0.332858,0.695102,0.305098,0.712658,0.271508,0.725560,0.230883,0.733753,0.181623,0.736685,0.117786,0.732867,0.076808,0.723293,0.051783,0.709794,0.034226,0.690082,0.018938,0.658301,0.007380,0.609849,-0.011573,0.661910,-0.029341,0.689384,-0.048894,0.704335,-0.072448,0.713772,-0.096277,0.719026,-0.156507,0.722397,-0.219087,0.718984,-0.265164,0.709934,
-0.298530,0.696502,-0.322055,0.679129,-0.339075,0.657214,-0.352546,0.628007,-0.361617,0.589689,-0.364993,0.540130,-0.368315,0.409924,-0.500000,0.409924,-0.500000,1.140345,-0.368315,1.140345,-0.363869,1.037873,-0.358501,0.985399,-0.344077,0.945739,-0.322299,0.916057,-0.299494,0.898682,-0.269297,0.885682,-0.229883,0.877196,-0.178733,0.874071,-0.120655,0.877186,-0.081797,0.885101,
-0.056807,0.896310,-0.037506,0.913068,-0.018137,0.940483,0.000834,0.982405,0.022105,0.938703,0.042795,0.909885,0.062628,0.892096,0.088131,0.880010,0.127849,0.871514,0.187338,0.868173,0.239910,0.870969,0.280088,0.878502,0.310471,0.889858,0.333077,0.904677,0.349173,0.923201,0.366958,0.961002,0.379297,1.013793,0.384002,1.085720,0.385049,1.190600,0.231594,1.190600,
0.231937,1.152948,0.228566,1.101693,0.223634,1.076128,0.216794,1.057620,0.206199,1.042512,0.193249,1.033660,0.176080,1.028863,0.148992,1.026955,0.117828,1.029910,0.097384,1.037633,0.084512,1.049633,0.073634,1.074805,0.069369,1.112648,0.069369,1.190600,-0.073973,1.190600,-0.074442,1.115982,-0.079052,1.081221,-0.091294,1.056338,-0.104995,1.044057,-0.124476,1.036456,
-0.151818,1.033660,-0.176504,1.036593,-0.193621,1.044624,-0.205160,1.058023,-0.214617,1.084453,-0.218252,1.121844,-0.217798,1.190600,-0.367024,1.190600,-0.368315,1.140345,-0.500000,1.140345,-0.500000,1.240600,-0.365740,1.240600,-0.217469,1.240600,-0.217177,1.284802,-0.213354,1.322035,-0.203548,1.347377,-0.191646,1.359808,-0.173096,1.367574,-0.145272,1.370495,-0.120764,1.367905,
-0.102794,1.360766,-0.089682,1.349063,-0.077713,1.325811,-0.073318,1.294914,-0.073659,1.240600,0.069369,1.240600,0.069369,1.283996,0.074287,1.323964,0.086759,1.349905,0.101003,1.362182,0.122634,1.370046,0.154561,1.373023,0.183575,1.369721,0.203299,1.360794,0.216256,1.346132,0.226788,1.317064,0.230813,1.276413,0.231139,1.240600,0.384710,1.240600,0.384002,1.312536,
0.382879,1.368810,0.377261,1.426329,0.367745,1.453474,0.345803,1.484727,0.325538,1.503264,0.302494,1.516045,0.276145,1.523782,0.230206,1.529532,0.164868,1.531769,0.116535,1.528451,0.082155,1.519701,0.058133,1.506563,0.039511,1.488302,0.021021,1.460700,0.003081,1.420907,-0.014974,1.460463,-0.034173,1.487592,-0.054023,1.505280,-0.079433,1.517607,-0.116666,1.526012,
-0.169892,1.529241,-0.218492,1.526307,-0.257985,1.518154,-0.290119,1.505384,-0.316193,1.488061,-0.334474,1.466988,-0.349817,1.434402,-0.360744,1.386219,-0.364993,1.317555,-0.364993,1.269708,-0.365740,1.240600,-0.500000,1.240600,-0.500000,5.312076,-0.499040,5.321829,-0.494330,5.345511,-0.486863,5.363537,-0.476236,5.379441,-0.462442,5.393235,-0.446538,5.403862,-0.428514,5.411328,
-0.404831,5.416039,-0.395076,5.417000,0.395076,5.417000,0.404831,5.416039,0.404831,5.416039,$1*%
%AMFreePoly24*
4,1,250,0.404831,5.416039,0.428513,5.411328,0.446537,5.403862,0.462441,5.393235,0.476235,5.379441,0.486862,5.363537,0.494328,5.345513,0.499039,5.321831,0.500000,5.312076,0.500000,0.054924,0.499039,0.050092,0.499039,0.050000,0.500000,0.050000,0.500000,0.000000,0.496194,-0.019134,0.485355,-0.035355,0.469134,-0.046194,0.450000,-0.050000,-0.450000,-0.050000,-0.469134,-0.046194,
-0.485355,-0.035355,-0.496194,-0.019134,-0.500000,0.000000,-0.500000,0.050000,-0.499040,0.050000,-0.499039,0.050096,-0.500000,0.054924,-0.500000,0.409924,-0.368315,0.409924,-0.368315,0.387247,-0.366654,0.303642,-0.356591,0.202013,-0.349010,0.167456,-0.336202,0.139770,-0.318805,0.117715,-0.296947,0.100347,-0.270789,0.087832,-0.233536,0.077691,-0.181896,0.070692,-0.111957,0.068033,
-0.111957,0.226816,-0.131692,0.225973,-0.161250,0.228448,-0.181409,0.234944,-0.194804,0.244877,-0.207027,0.266528,-0.211853,0.300748,-0.215125,0.381385,-0.211804,0.474624,-0.211804,0.482172,-0.209336,0.516831,-0.203427,0.537386,-0.195781,0.548520,-0.183351,0.556122,-0.162408,0.561496,-0.129054,0.563651,-0.101542,0.560830,-0.084612,0.553571,-0.074979,0.542219,-0.067997,0.517872,
-0.065063,0.476273,-0.065063,0.333464,0.078748,0.333464,0.078748,0.467883,0.077624,0.509026,0.080005,0.532882,0.086195,0.549643,0.095210,0.561123,0.108623,0.569334,0.129392,0.574923,0.160471,0.577096,0.187754,0.574551,0.206199,0.567833,0.218308,0.557349,0.229007,0.535611,0.233060,0.504849,0.231937,0.485542,0.231937,0.391460,0.230813,0.294007,0.227440,0.265371,
0.218894,0.246754,0.206584,0.235169,0.189050,0.227540,0.162189,0.222176,0.122516,0.220075,0.122516,0.066348,0.162914,0.064663,0.221575,0.067335,0.266390,0.074504,0.300156,0.085189,0.325167,0.098855,0.343067,0.115478,0.359104,0.140770,0.371991,0.174695,0.380738,0.219364,0.384002,0.277191,0.385126,0.384719,0.385126,0.517452,0.380546,0.589729,0.368809,0.640004,
0.352389,0.673644,0.332858,0.695102,0.305098,0.712658,0.271508,0.725560,0.230883,0.733753,0.181623,0.736685,0.117786,0.732867,0.076808,0.723293,0.051783,0.709794,0.034226,0.690082,0.018938,0.658301,0.007380,0.609849,-0.011573,0.661910,-0.029341,0.689384,-0.048894,0.704335,-0.072448,0.713772,-0.096277,0.719026,-0.156507,0.722397,-0.219087,0.718984,-0.265164,0.709934,
-0.298530,0.696502,-0.322055,0.679129,-0.339075,0.657214,-0.352546,0.628007,-0.361617,0.589689,-0.364993,0.540130,-0.368315,0.409924,-0.500000,0.409924,-0.500000,1.190600,-0.366933,1.190600,-0.364993,1.080701,-0.361420,1.026363,-0.351786,0.983964,-0.337433,0.951316,-0.319271,0.926535,-0.293937,0.906693,-0.257994,0.891468,-0.208384,0.881252,-0.140973,0.877405,-0.076334,0.880264,
-0.027206,0.887914,0.009566,0.899264,0.036584,0.913700,0.055740,0.931151,0.072845,0.957887,0.086709,0.994447,0.096192,1.043370,0.099752,1.107555,0.098364,1.190600,-0.052831,1.190600,-0.053681,1.135326,-0.057539,1.086185,-0.066479,1.059269,-0.078397,1.047449,-0.100577,1.039423,-0.138287,1.036188,-0.161727,1.038265,-0.180067,1.044054,-0.194511,1.053407,-0.204091,1.066020,
-0.211144,1.087297,-0.214002,1.121038,-0.215125,1.186543,-0.215020,1.190600,-0.366933,1.190600,-0.500000,1.190600,-0.500000,1.268866,-0.368315,1.268866,-0.367816,1.240600,-0.213721,1.240600,-0.212878,1.273079,-0.210680,1.310851,-0.208074,1.333420,-0.201266,1.349214,-0.191190,1.360017,-0.176863,1.367652,-0.156246,1.372764,-0.127149,1.374708,-0.098085,1.371619,-0.078994,1.363439,
-0.067017,1.350345,-0.057421,1.323710,-0.053681,1.284839,-0.053031,1.240600,0.097528,1.240600,0.097505,1.241974,0.094186,1.285506,0.085293,1.318838,0.074248,1.338374,0.057418,1.355187,0.034149,1.369652,0.130771,1.369652,0.167424,1.367106,0.192396,1.360506,0.208929,1.350748,0.220008,1.337019,0.227773,1.315960,0.230813,1.284802,0.231937,1.189071,0.229641,1.103379,
0.226532,1.071415,0.218308,1.047948,0.208087,1.036015,0.192456,1.028784,0.169411,1.026113,0.169411,0.868173,0.198622,0.867330,0.247438,0.870184,0.284243,0.877851,0.311702,0.889432,0.331783,0.904699,0.351387,0.931133,0.367021,0.968569,0.377261,1.020214,0.385126,1.189071,0.381755,1.303304,0.377577,1.369180,0.366579,1.417842,0.350680,1.452913,0.331175,1.477478,
0.308580,1.493960,0.271908,1.508798,0.216961,1.521251,0.137781,1.530058,0.027408,1.533454,-0.029599,1.533454,-0.133011,1.531329,-0.177140,1.527635,-0.229682,1.520008,-0.263359,1.511219,-0.291182,1.497720,-0.314093,1.479269,-0.331978,1.457362,-0.345617,1.432457,-0.354881,1.404091,-0.366605,1.337742,-0.368315,1.268866,-0.500000,1.268866,-0.500000,5.312076,-0.499040,5.321829,
-0.494330,5.345511,-0.486863,5.363537,-0.476236,5.379441,-0.462442,5.393235,-0.446538,5.403862,-0.428514,5.411328,-0.404831,5.416039,-0.395076,5.417000,0.395076,5.417000,0.404831,5.416039,0.404831,5.416039,$1*%
%AMFreePoly25*
4,1,157,0.404831,5.416039,0.428513,5.411328,0.446537,5.403862,0.462441,5.393235,0.476235,5.379441,0.486862,5.363537,0.494328,5.345513,0.499039,5.321831,0.500000,5.312076,0.500000,0.054924,0.499039,0.050092,0.499039,0.050000,0.500000,0.050000,0.500000,0.000000,0.496194,-0.019134,0.485355,-0.035355,0.469134,-0.046194,0.450000,-0.050000,-0.450000,-0.050000,-0.469134,-0.046194,
-0.485355,-0.035355,-0.496194,-0.019134,-0.500000,0.000000,-0.500000,0.050000,-0.499040,0.050000,-0.499039,0.050096,-0.500000,0.054924,-0.500000,0.395800,-0.313444,0.395800,-0.028328,0.056273,0.231937,0.056273,0.231937,0.395800,0.081874,0.395800,0.081874,0.173033,-0.109036,0.395800,-0.313444,0.395800,-0.500000,0.395800,-0.500000,0.658576,-0.368315,0.658576,-0.368315,0.461142,
-0.355432,0.445800,-0.151885,0.445800,-0.200324,0.502322,0.081874,0.502322,0.081874,0.445800,0.231937,0.445800,0.231937,0.502322,0.385126,0.502322,0.385126,0.658576,0.231937,0.658576,0.231937,0.749288,0.081874,0.749288,0.081874,0.658576,-0.368315,0.658576,-0.500000,0.658576,-0.500000,1.190600,-0.368066,1.190600,-0.366067,1.094989,-0.361854,1.027010,-0.350723,0.976362,
-0.334574,0.939488,-0.314716,0.913344,-0.291720,0.895504,-0.254250,0.879327,-0.197011,0.865694,-0.113240,0.855996,0.005035,0.852236,0.046410,0.852236,0.141910,0.855305,0.212815,0.863393,0.264160,0.875069,0.300293,0.889303,0.324749,0.905579,0.342998,0.926257,0.359182,0.955935,0.372487,0.997189,0.381665,1.053039,0.385126,1.126899,0.384314,1.190600,0.200215,1.190600,
0.198427,1.137817,0.195058,1.093670,0.186597,1.064577,0.174952,1.046355,0.161057,1.035748,0.134070,1.026689,0.085840,1.019725,0.006501,1.016844,-0.008007,1.016844,-0.073343,1.019030,-0.117071,1.024537,-0.144879,1.032060,-0.161441,1.040767,-0.172795,1.053248,-0.182809,1.075118,-0.190255,1.110569,-0.193241,1.164708,-0.193241,1.190600,-0.368066,1.190600,-0.500000,1.190600,
-0.500000,1.268023,-0.369438,1.268023,-0.368968,1.240600,-0.193241,1.240600,-0.193241,1.243660,-0.192118,1.272639,-0.186549,1.319241,-0.178821,1.339396,-0.164225,1.358332,-0.142350,1.372772,-0.108977,1.381413,-0.070275,1.385125,-0.023639,1.386468,0.022132,1.386468,0.085817,1.384000,0.128252,1.377784,0.155157,1.369242,0.171120,1.359174,0.185552,1.339239,0.196295,1.305086,
0.200674,1.250364,0.200674,1.240600,0.383677,1.240600,0.382879,1.303304,0.377835,1.382908,0.364983,1.437667,0.347122,1.473810,0.326472,1.497890,0.301983,1.516291,0.273344,1.529740,0.239801,1.538510,0.156798,1.547303,0.005035,1.551113,-0.081596,1.549794,-0.138580,1.546496,-0.190097,1.540101,-0.240869,1.530120,-0.271952,1.519711,-0.298200,1.504221,-0.320248,1.483079,
-0.343863,1.445656,-0.357666,1.401599,-0.367728,1.335214,-0.369438,1.268023,-0.500000,1.268023,-0.500000,5.312076,-0.499040,5.321829,-0.494330,5.345511,-0.486863,5.363537,-0.476236,5.379441,-0.462442,5.393235,-0.446538,5.403862,-0.428514,5.411328,-0.404831,5.416039,-0.395076,5.417000,0.395076,5.417000,0.404831,5.416039,0.404831,5.416039,$1*%
%AMFreePoly26*
4,1,77,0.404831,5.416039,0.428513,5.411328,0.446537,5.403862,0.462441,5.393235,0.476235,5.379441,0.486862,5.363537,0.494328,5.345513,0.499039,5.321831,0.500000,5.312076,0.500000,0.054924,0.499039,0.050092,0.499039,0.050000,0.500000,0.050000,0.500000,0.000000,0.496194,-0.019134,0.485355,-0.035355,0.469134,-0.046194,0.450000,-0.050000,-0.450000,-0.050000,-0.469134,-0.046194,
-0.485355,-0.035355,-0.496194,-0.019134,-0.500000,0.000000,-0.500000,0.050000,-0.499040,0.050000,-0.499039,0.050096,-0.500000,0.054924,-0.500000,0.395800,-0.313444,0.395800,-0.028328,0.056273,0.231937,0.056273,0.231937,0.395800,0.081874,0.395800,0.081874,0.173033,-0.109036,0.395800,-0.313444,0.395800,-0.500000,0.395800,-0.500000,0.658576,-0.368315,0.658576,-0.368315,0.461142,
-0.355432,0.445800,-0.151885,0.445800,-0.200324,0.502322,0.081874,0.502322,0.081874,0.445800,0.231937,0.445800,0.231937,0.502322,0.385126,0.502322,0.385126,0.658576,0.231937,0.658576,0.231937,0.749288,0.081874,0.749288,0.081874,0.658576,-0.368315,0.658576,-0.500000,0.658576,-0.500000,1.152105,-0.368315,1.152105,-0.155726,0.912686,-0.003416,0.988304,-0.192460,1.191563,
0.385126,1.191563,0.385126,1.358735,-0.368315,1.358735,-0.368315,1.152105,-0.500000,1.152105,-0.500000,5.312076,-0.499040,5.321829,-0.494330,5.345511,-0.486863,5.363537,-0.476236,5.379441,-0.462442,5.393235,-0.446538,5.403862,-0.428514,5.411328,-0.404831,5.416039,-0.395076,5.417000,0.395076,5.417000,0.404831,5.416039,0.404831,5.416039,$1*%
%AMFreePoly27*
4,1,140,0.404831,5.416039,0.428513,5.411328,0.446537,5.403862,0.462441,5.393235,0.476235,5.379441,0.486862,5.363537,0.494328,5.345513,0.499039,5.321831,0.500000,5.312076,0.500000,0.054924,0.499039,0.050092,0.499039,0.050000,0.500000,0.050000,0.500000,0.000000,0.496194,-0.019134,0.485355,-0.035355,0.469134,-0.046194,0.450000,-0.050000,-0.450000,-0.050000,-0.469134,-0.046194,
-0.485355,-0.035355,-0.496194,-0.019134,-0.500000,0.000000,-0.500000,0.050000,-0.499040,0.050000,-0.499039,0.050096,-0.500000,0.054924,-0.500000,0.395800,-0.313444,0.395800,-0.028328,0.056273,0.231937,0.056273,0.231937,0.395800,0.081874,0.395800,0.081874,0.173033,-0.109036,0.395800,-0.313444,0.395800,-0.500000,0.395800,-0.500000,0.658576,-0.368315,0.658576,-0.368315,0.461142,
-0.355432,0.445800,-0.151885,0.445800,-0.200324,0.502322,0.081874,0.502322,0.081874,0.445800,0.231937,0.445800,0.231937,0.502322,0.385126,0.502322,0.385126,0.658576,0.231937,0.658576,0.231937,0.749288,0.081874,0.749288,0.081874,0.658576,-0.368315,0.658576,-0.500000,0.658576,-0.500000,1.267180,-0.368315,1.267180,-0.363820,1.079016,-0.360775,1.016632,-0.352823,0.971114,
-0.341513,0.938901,-0.328014,0.916899,-0.307471,0.899788,-0.273859,0.885981,-0.222173,0.876216,-0.145760,0.872386,-0.093199,0.873229,-0.093199,1.027761,-0.118943,1.027761,-0.152453,1.029849,-0.166784,1.033366,-0.182690,1.040364,-0.195929,1.050598,-0.205600,1.065973,-0.210932,1.084069,-0.212878,1.106713,-0.215125,1.205851,-0.215125,1.293229,-0.212864,1.324355,-0.207334,1.343727,
-0.199982,1.354961,-0.188174,1.362965,-0.169536,1.368383,-0.141218,1.370495,-0.125537,1.371338,-0.099039,1.369076,-0.081204,1.363161,-0.069557,1.354118,-0.058181,1.333801,-0.049431,1.297405,-0.017826,1.003435,-0.007687,0.965989,0.006379,0.937637,0.023595,0.916572,0.043674,0.901366,0.077863,0.886838,0.126209,0.876979,0.193249,0.873229,0.385126,0.873229,0.385126,1.530083,
0.235063,1.530083,0.235063,1.026955,0.201260,1.026955,0.171394,1.029461,0.153267,1.035742,0.143032,1.045017,0.134690,1.065211,0.131357,1.096674,0.119683,1.214277,0.106884,1.352836,0.102438,1.407326,0.090782,1.446821,0.073859,1.474776,0.052662,1.493960,0.024794,1.508014,-0.014775,1.519337,-0.069510,1.527128,-0.143562,1.530083,-0.208161,1.527103,-0.256444,1.519184,
-0.291916,1.507504,-0.317414,1.492677,-0.336687,1.473202,-0.351892,1.446276,-0.362196,1.409813,-0.366067,1.361263,-0.368315,1.267180,-0.500000,1.267180,-0.500000,5.312076,-0.499040,5.321829,-0.494330,5.345511,-0.486863,5.363537,-0.476236,5.379441,-0.462442,5.393235,-0.446538,5.403862,-0.428514,5.411328,-0.404831,5.416039,-0.395076,5.417000,0.395076,5.417000,0.404831,5.416039,
0.404831,5.416039,$1*%
%AMFreePoly28*
4,1,168,0.404831,5.416039,0.428513,5.411328,0.446537,5.403862,0.462441,5.393235,0.476235,5.379441,0.486862,5.363537,0.494328,5.345513,0.499039,5.321831,0.500000,5.312076,0.500000,0.054924,0.499039,0.050092,0.499039,0.050000,0.500000,0.050000,0.500000,0.000000,0.496194,-0.019134,0.485355,-0.035355,0.469134,-0.046194,0.450000,-0.050000,-0.450000,-0.050000,-0.469134,-0.046194,
-0.485355,-0.035355,-0.496194,-0.019134,-0.500000,0.000000,-0.500000,0.050000,-0.499040,0.050000,-0.499039,0.050096,-0.500000,0.054924,-0.500000,0.395800,-0.313444,0.395800,-0.028328,0.056273,0.231937,0.056273,0.231937,0.395800,0.081874,0.395800,0.081874,0.173033,-0.109036,0.395800,-0.313444,0.395800,-0.500000,0.395800,-0.500000,0.658576,-0.368315,0.658576,-0.368315,0.461142,
-0.355432,0.445800,-0.151885,0.445800,-0.200324,0.502322,0.081874,0.502322,0.081874,0.445800,0.231937,0.445800,0.231937,0.502322,0.385126,0.502322,0.385126,0.658576,0.231937,0.658576,0.231937,0.749288,0.081874,0.749288,0.081874,0.658576,-0.368315,0.658576,-0.500000,0.658576,-0.500000,1.210064,-0.368315,1.210064,-0.368315,1.187386,-0.366654,1.103782,-0.356591,1.002152,
-0.349010,0.967596,-0.336202,0.939910,-0.318805,0.917854,-0.296947,0.900486,-0.270789,0.887971,-0.233536,0.877830,-0.181896,0.870831,-0.111957,0.868173,-0.111957,1.026955,-0.131692,1.026113,-0.161250,1.028587,-0.181409,1.035084,-0.194804,1.045017,-0.207027,1.066667,-0.211853,1.100887,-0.215125,1.181524,-0.211804,1.274764,-0.211804,1.282311,-0.209336,1.316971,-0.203427,1.337526,
-0.195781,1.348660,-0.183351,1.356262,-0.162408,1.361636,-0.129054,1.363790,-0.101542,1.360969,-0.084612,1.353710,-0.074979,1.342358,-0.067997,1.318011,-0.065063,1.276413,-0.065063,1.133604,0.078748,1.133604,0.078748,1.268023,0.077624,1.309166,0.080005,1.333022,0.086195,1.349783,0.095210,1.361263,0.108623,1.369474,0.129392,1.375063,0.160471,1.377236,0.187754,1.374691,
0.206199,1.367972,0.218308,1.357489,0.229007,1.335751,0.233060,1.304989,0.231937,1.285682,0.231937,1.191599,0.230813,1.094146,0.227440,1.065510,0.218894,1.046893,0.206584,1.035308,0.189050,1.027680,0.162189,1.022315,0.122516,1.020214,0.122516,0.866488,0.162914,0.864802,0.221575,0.867474,0.266390,0.874644,0.300156,0.885329,0.325167,0.898995,0.343067,0.915617,
0.359104,0.940910,0.371991,0.974834,0.380738,1.019504,0.384002,1.077330,0.385126,1.184858,0.385126,1.317592,0.380546,1.389869,0.368809,1.440144,0.352389,1.473784,0.332858,1.495242,0.305098,1.512797,0.271508,1.525700,0.230883,1.533893,0.181623,1.536824,0.117786,1.533006,0.076808,1.523433,0.051783,1.509933,0.034226,1.490221,0.018938,1.458440,0.007380,1.409989,
-0.011573,1.462049,-0.029341,1.489524,-0.048894,1.504474,-0.072448,1.513912,-0.096277,1.519166,-0.156507,1.522536,-0.219087,1.519124,-0.265164,1.510074,-0.298530,1.496642,-0.322055,1.479269,-0.339075,1.457354,-0.352546,1.428147,-0.361617,1.389828,-0.364993,1.340270,-0.368315,1.210064,-0.500000,1.210064,-0.500000,5.312076,-0.499040,5.321829,-0.494330,5.345511,-0.486863,5.363537,
-0.476236,5.379441,-0.462442,5.393235,-0.446538,5.403862,-0.428514,5.411328,-0.404831,5.416039,-0.395076,5.417000,0.395076,5.417000,0.404831,5.416039,0.404831,5.416039,$1*%
%AMFreePoly29*
4,1,95,0.404831,5.416039,0.428513,5.411328,0.446537,5.403862,0.462441,5.393235,0.476235,5.379441,0.486862,5.363537,0.494328,5.345513,0.499039,5.321831,0.500000,5.312076,0.500000,0.054924,0.499039,0.050092,0.499039,0.050000,0.500000,0.050000,0.500000,0.000000,0.496194,-0.019134,0.485355,-0.035355,0.469134,-0.046194,0.450000,-0.050000,-0.450000,-0.050000,-0.469134,-0.046194,
-0.485355,-0.035355,-0.496194,-0.019134,-0.500000,0.000000,-0.500000,0.050000,-0.499040,0.050000,-0.499039,0.050096,-0.500000,0.054924,-0.500000,0.395800,-0.313444,0.395800,-0.028328,0.056273,0.231937,0.056273,0.231937,0.395800,0.081874,0.395800,0.081874,0.173033,-0.109036,0.395800,-0.313444,0.395800,-0.500000,0.395800,-0.500000,0.658576,-0.368315,0.658576,-0.368315,0.461142,
-0.355432,0.445800,-0.151885,0.445800,-0.200324,0.502322,0.081874,0.502322,0.081874,0.445800,0.231937,0.445800,0.231937,0.502322,0.385126,0.502322,0.385126,0.658576,0.231937,0.658576,0.231937,0.749288,0.081874,0.749288,0.081874,0.658576,-0.368315,0.658576,-0.500000,0.658576,-0.500000,1.183200,-0.302746,1.183200,-0.028328,0.856413,0.231937,0.856413,0.231937,1.183200,
0.081874,1.183200,0.081874,0.973173,-0.098118,1.183200,-0.302746,1.183200,-0.500000,1.183200,-0.500000,1.458715,-0.368315,1.458715,-0.368315,1.261282,-0.344733,1.233200,-0.140968,1.233200,-0.200324,1.302461,0.081874,1.302461,0.081874,1.233200,0.231937,1.233200,0.231937,1.302461,0.385126,1.302461,0.385126,1.458715,0.231937,1.458715,0.231937,1.549427,0.081874,1.549427,
0.081874,1.458715,-0.368315,1.458715,-0.500000,1.458715,-0.500000,5.312076,-0.499040,5.321829,-0.494330,5.345511,-0.486863,5.363537,-0.476236,5.379441,-0.462442,5.393235,-0.446538,5.403862,-0.428514,5.411328,-0.404831,5.416039,-0.395076,5.417000,0.395076,5.417000,0.404831,5.416039,0.404831,5.416039,$1*%
%AMFreePoly30*
4,1,138,0.404831,5.416039,0.428513,5.411328,0.446537,5.403862,0.462441,5.393235,0.476235,5.379441,0.486862,5.363537,0.494328,5.345513,0.499039,5.321831,0.500000,5.312076,0.500000,0.054924,0.499039,0.050092,0.499039,0.050000,0.500000,0.050000,0.500000,0.000000,0.496194,-0.019134,0.485355,-0.035355,0.469134,-0.046194,0.450000,-0.050000,-0.450000,-0.050000,-0.469134,-0.046194,
-0.485355,-0.035355,-0.496194,-0.019134,-0.500000,0.000000,-0.500000,0.050000,-0.499040,0.050000,-0.499039,0.050096,-0.500000,0.054924,-0.500000,0.395800,-0.313443,0.395800,-0.028327,0.056273,0.231937,0.056273,0.231937,0.395800,0.081874,0.395800,0.081874,0.173033,-0.109035,0.395800,-0.313443,0.395800,-0.500000,0.395800,-0.500000,0.658576,-0.368314,0.658576,-0.368314,0.461142,
-0.355431,0.445800,-0.151884,0.445800,-0.200323,0.502322,0.081874,0.502322,0.081874,0.445800,0.231937,0.445800,0.231937,0.502322,0.385126,0.502322,0.385126,0.658576,0.231937,0.658576,0.231937,0.749288,0.081874,0.749288,0.081874,0.658576,-0.368314,0.658576,-0.500000,0.658576,-0.500000,1.512461,-0.368314,1.512461,-0.368314,0.897555,0.072495,0.890008,0.072495,1.033660,
0.053166,1.037754,0.040771,1.044469,0.033514,1.053810,0.024233,1.083229,0.022474,1.115982,0.022474,1.208379,0.024721,1.299933,0.027905,1.328631,0.036090,1.348072,0.047973,1.360823,0.065083,1.369633,0.090962,1.375691,0.128915,1.378042,0.170942,1.375016,0.196976,1.367460,0.212153,1.356610,0.221439,1.341472,0.228152,1.317758,0.230813,1.282274,0.231937,1.210907,
0.229690,1.129427,0.227617,1.095629,0.221239,1.060111,0.213879,1.044795,0.200681,1.034048,0.180527,1.027080,0.150653,1.024427,0.150653,0.868173,0.222424,0.871803,0.273981,0.881305,0.310151,0.895149,0.334665,0.912686,0.352232,0.935210,0.366312,0.966081,0.375906,1.007538,0.379508,1.062199,0.385126,1.222667,0.385126,1.286488,0.384002,1.349502,0.378938,1.404011,
0.365433,1.444774,0.345315,1.474817,0.319327,1.496488,0.286166,1.512634,0.242362,1.525259,0.185278,1.533697,0.111769,1.536824,0.036481,1.532895,-0.016809,1.522672,-0.053582,1.507845,-0.075989,1.492008,-0.093629,1.472091,-0.106571,1.447340,-0.114350,1.416693,-0.123875,1.319680,-0.124461,1.248715,-0.124461,1.196618,-0.123338,1.144558,-0.119917,1.109797,-0.110442,1.081543,
-0.092757,1.056542,-0.063889,1.033660,-0.218251,1.033660,-0.218251,1.512461,-0.368314,1.512461,-0.500000,1.512461,-0.500000,5.312076,-0.499040,5.321829,-0.494330,5.345511,-0.486863,5.363537,-0.476236,5.379441,-0.462442,5.393235,-0.446538,5.403862,-0.428514,5.411328,-0.404831,5.416039,-0.395076,5.417000,0.395076,5.417000,0.404831,5.416039,0.404831,5.416039,$1*%
%AMFreePoly31*
4,1,172,0.404831,5.416039,0.428513,5.411328,0.446537,5.403862,0.462441,5.393235,0.476235,5.379441,0.486862,5.363537,0.494328,5.345513,0.499039,5.321831,0.500000,5.312076,0.500000,0.054924,0.499039,0.050092,0.499039,0.050000,0.500000,0.050000,0.500000,0.000000,0.496194,-0.019134,0.485355,-0.035355,0.469134,-0.046194,0.450000,-0.050000,-0.450000,-0.050000,-0.469134,-0.046194,
-0.485355,-0.035355,-0.496194,-0.019134,-0.500000,0.000000,-0.500000,0.050000,-0.499040,0.050000,-0.499039,0.050096,-0.500000,0.054924,-0.500000,0.395800,-0.313443,0.395800,-0.028327,0.056273,0.231938,0.056273,0.231938,0.395800,0.081875,0.395800,0.081875,0.173033,-0.109035,0.395800,-0.313443,0.395800,-0.500000,0.395800,-0.500000,0.658576,-0.368314,0.658576,-0.368314,0.461142,
-0.355431,0.445800,-0.151884,0.445800,-0.200323,0.502322,0.081875,0.502322,0.081875,0.445800,0.231938,0.445800,0.231938,0.502322,0.385127,0.502322,0.385127,0.658576,0.231938,0.658576,0.231938,0.749288,0.081875,0.749288,0.081875,0.658576,-0.368314,0.658576,-0.500000,0.658576,-0.500000,1.206693,-0.368314,1.206693,-0.367190,1.136132,-0.361621,1.072311,-0.356103,1.018903,
-0.340662,0.974654,-0.316339,0.937892,-0.290910,0.913048,-0.264498,0.895711,-0.236835,0.884627,-0.207309,0.879091,-0.122361,0.873229,-0.078788,0.873229,0.082168,0.874071,0.170604,0.876425,0.232573,0.882461,0.268753,0.890966,0.298563,0.904619,0.323089,0.923640,0.351080,0.958926,0.370619,1.001749,0.380852,1.052873,0.385127,1.138660,0.384268,1.183200,0.231124,1.183200,
0.231938,1.126899,0.227508,1.081627,0.216941,1.055495,0.203929,1.043735,0.181786,1.035900,0.146306,1.032817,0.115055,1.035526,0.095088,1.042474,0.082950,1.052967,0.072670,1.075935,0.068490,1.113454,0.067033,1.183200,-0.086187,1.183200,-0.083021,1.134228,-0.072975,1.092021,-0.059435,1.068403,-0.037351,1.049147,-0.005320,1.033660,-0.098425,1.033660,-0.146101,1.036591,
-0.166088,1.041523,-0.185913,1.050879,-0.201182,1.063970,-0.208921,1.080701,-0.212877,1.136132,-0.215124,1.233585,-0.214001,1.283154,-0.211236,1.311693,-0.088069,1.311693,-0.087314,1.233200,0.066243,1.233200,0.066243,1.302461,0.070799,1.332242,0.082950,1.353276,0.096042,1.363340,0.114963,1.369773,0.141861,1.372180,0.177512,1.369207,0.200056,1.361638,0.213571,1.350345,
0.224972,1.325172,0.229691,1.282311,0.230401,1.233200,0.383303,1.233200,0.381756,1.313379,0.377675,1.379758,0.367015,1.428043,0.351759,1.462193,0.333250,1.485570,0.306942,1.503526,0.267252,1.517920,0.209663,1.527920,0.128428,1.531769,0.066818,1.528892,0.015197,1.520851,-0.015066,1.510851,-0.037930,1.496176,-0.054559,1.476338,-0.071199,1.441613,-0.081377,1.403248,
-0.086276,1.362239,-0.088069,1.311693,-0.211236,1.311693,-0.210966,1.314480,-0.202766,1.338585,-0.192705,1.351534,-0.177487,1.360387,-0.155725,1.365476,-0.155725,1.520008,-0.216584,1.517146,-0.262523,1.509507,-0.296702,1.498173,-0.317971,1.485740,-0.334852,1.469121,-0.347493,1.447492,-0.355418,1.419624,-0.363198,1.364760,-0.366604,1.321366,-0.368314,1.206693,-0.500000,1.206693,
-0.500000,5.312076,-0.499040,5.321829,-0.494330,5.345511,-0.486863,5.363537,-0.476236,5.379441,-0.462442,5.393235,-0.446538,5.403862,-0.428514,5.411328,-0.404831,5.416039,-0.395076,5.417000,0.395076,5.417000,0.404831,5.416039,0.404831,5.416039,$1*%
%AMFreePoly32*
4,1,77,0.404831,5.416039,0.428513,5.411328,0.446537,5.403862,0.462441,5.393235,0.476235,5.379441,0.486862,5.363537,0.494328,5.345513,0.499039,5.321831,0.500000,5.312076,0.500000,0.054924,0.499039,0.050092,0.499039,0.050000,0.500000,0.050000,0.500000,0.000000,0.496194,-0.019134,0.485355,-0.035355,0.469134,-0.046194,0.450000,-0.050000,-0.450000,-0.050000,-0.469134,-0.046194,
-0.485355,-0.035355,-0.496194,-0.019134,-0.500000,0.000000,-0.500000,0.050000,-0.499040,0.050000,-0.499039,0.050096,-0.500000,0.054924,-0.500000,0.395800,-0.313443,0.395800,-0.028327,0.056273,0.231938,0.056273,0.231938,0.395800,0.081875,0.395800,0.081875,0.173033,-0.109035,0.395800,-0.313443,0.395800,-0.500000,0.395800,-0.500000,0.658576,-0.368314,0.658576,-0.368314,0.461142,
-0.355431,0.445800,-0.151884,0.445800,-0.200323,0.502322,0.081875,0.502322,0.081875,0.445800,0.231938,0.445800,0.231938,0.502322,0.385127,0.502322,0.385127,0.658576,0.231938,0.658576,0.231938,0.749288,0.081875,0.749288,0.081875,0.658576,-0.368314,0.658576,-0.500000,0.658576,-0.500000,0.866488,-0.368314,0.866488,-0.183861,0.866488,-0.183861,1.327667,0.385127,0.962255,
0.385127,1.163866,-0.197344,1.534296,-0.368314,1.534296,-0.368314,0.866488,-0.500000,0.866488,-0.500000,5.312076,-0.499040,5.321829,-0.494330,5.345511,-0.486863,5.363537,-0.476236,5.379441,-0.462442,5.393235,-0.446538,5.403862,-0.428514,5.411328,-0.404831,5.416039,-0.395076,5.417000,0.395076,5.417000,0.404831,5.416039,0.404831,5.416039,$1*%
%AMFreePoly33*
4,1,191,0.404831,5.416039,0.428513,5.411328,0.446537,5.403862,0.462441,5.393235,0.476235,5.379441,0.486862,5.363537,0.494328,5.345513,0.499039,5.321831,0.500000,5.312076,0.500000,0.054924,0.499039,0.050092,0.499039,0.050000,0.500000,0.050000,0.500000,0.000000,0.496194,-0.019134,0.485355,-0.035355,0.469134,-0.046194,0.450000,-0.050000,-0.450000,-0.050000,-0.469134,-0.046194,
-0.485355,-0.035355,-0.496194,-0.019134,-0.500000,0.000000,-0.500000,0.050000,-0.499040,0.050000,-0.499039,0.050096,-0.500000,0.054924,-0.500000,0.395800,-0.313443,0.395800,-0.028327,0.056273,0.231938,0.056273,0.231938,0.395800,0.081875,0.395800,0.081875,0.173033,-0.109035,0.395800,-0.313443,0.395800,-0.500000,0.395800,-0.500000,0.658576,-0.368314,0.658576,-0.368314,0.461142,
-0.355431,0.445800,-0.151884,0.445800,-0.200323,0.502322,0.081875,0.502322,0.081875,0.445800,0.231938,0.445800,0.231938,0.502322,0.385127,0.502322,0.385127,0.658576,0.231938,0.658576,0.231938,0.749288,0.081875,0.749288,0.081875,0.658576,-0.368314,0.658576,-0.500000,0.658576,-0.500000,1.140345,-0.368314,1.140345,-0.363868,1.037873,-0.358500,0.985399,-0.344076,0.945739,
-0.322298,0.916057,-0.299493,0.898682,-0.269296,0.885682,-0.229882,0.877196,-0.178732,0.874071,-0.120654,0.877186,-0.081796,0.885101,-0.056806,0.896310,-0.037505,0.913068,-0.018136,0.940483,0.000835,0.982405,0.022106,0.938703,0.042796,0.909885,0.062629,0.892096,0.088132,0.880010,0.127850,0.871514,0.187339,0.868173,0.239911,0.870969,0.280089,0.878502,0.310472,0.889858,
0.333078,0.904677,0.349174,0.923201,0.366959,0.961002,0.379298,1.013793,0.384003,1.085720,0.384976,1.183200,0.231663,1.183200,0.231938,1.152948,0.228567,1.101693,0.223635,1.076128,0.216795,1.057620,0.206200,1.042512,0.193250,1.033660,0.176081,1.028863,0.148993,1.026955,0.117829,1.029910,0.097385,1.037633,0.084513,1.049633,0.073635,1.074805,0.069370,1.112648,
0.069370,1.183200,-0.074019,1.183200,-0.074441,1.115982,-0.079051,1.081221,-0.091293,1.056338,-0.104994,1.044057,-0.124475,1.036456,-0.151817,1.033660,-0.176503,1.036593,-0.193620,1.044624,-0.205159,1.058023,-0.214616,1.084453,-0.218251,1.121844,-0.217846,1.183200,-0.367213,1.183200,-0.368314,1.140345,-0.500000,1.140345,-0.500000,1.233200,-0.365930,1.233200,-0.217516,1.233200,
-0.217176,1.284802,-0.213353,1.322035,-0.203547,1.347377,-0.191645,1.359808,-0.173095,1.367574,-0.145271,1.370495,-0.120763,1.367905,-0.102793,1.360766,-0.089681,1.349063,-0.077712,1.325811,-0.073317,1.294914,-0.073705,1.233200,0.069370,1.233200,0.069370,1.283996,0.074288,1.323964,0.086760,1.349905,0.101004,1.362182,0.122635,1.370046,0.154562,1.373023,0.183576,1.369721,
0.203300,1.360794,0.216257,1.346132,0.226789,1.317064,0.230814,1.276413,0.231207,1.233200,0.384784,1.233200,0.384003,1.312536,0.382880,1.368810,0.377262,1.426329,0.367746,1.453474,0.345804,1.484727,0.325539,1.503264,0.302495,1.516045,0.276146,1.523782,0.230207,1.529532,0.164869,1.531769,0.116536,1.528451,0.082156,1.519701,0.058134,1.506563,0.039512,1.488302,
0.021022,1.460700,0.003082,1.420907,-0.014973,1.460463,-0.034172,1.487592,-0.054022,1.505280,-0.079432,1.517607,-0.116665,1.526012,-0.169891,1.529241,-0.218491,1.526307,-0.257984,1.518154,-0.290118,1.505384,-0.316192,1.488061,-0.334473,1.466988,-0.349816,1.434402,-0.360743,1.386219,-0.364992,1.317555,-0.364992,1.269708,-0.365930,1.233200,-0.500000,1.233200,-0.500000,5.312076,
-0.499040,5.321829,-0.494330,5.345511,-0.486863,5.363537,-0.476236,5.379441,-0.462442,5.393235,-0.446538,5.403862,-0.428514,5.411328,-0.404831,5.416039,-0.395076,5.417000,0.395076,5.417000,0.404831,5.416039,0.404831,5.416039,$1*%
%AMFreePoly34*
4,1,177,0.404831,5.416039,0.428513,5.411328,0.446537,5.403862,0.462441,5.393235,0.476235,5.379441,0.486862,5.363537,0.494328,5.345513,0.499039,5.321831,0.500000,5.312076,0.500000,0.054924,0.499039,0.050092,0.499039,0.050000,0.500000,0.050000,0.500000,0.000000,0.496194,-0.019134,0.485355,-0.035355,0.469134,-0.046194,0.450000,-0.050000,-0.450000,-0.050000,-0.469134,-0.046194,
-0.485355,-0.035355,-0.496194,-0.019134,-0.500000,0.000000,-0.500000,0.050000,-0.499040,0.050000,-0.499039,0.050096,-0.500000,0.054924,-0.500000,0.395800,-0.313443,0.395800,-0.028327,0.056273,0.231938,0.056273,0.231938,0.395800,0.081875,0.395800,0.081875,0.173033,-0.109035,0.395800,-0.313443,0.395800,-0.500000,0.395800,-0.500000,0.658576,-0.368314,0.658576,-0.368314,0.461142,
-0.355431,0.445800,-0.151884,0.445800,-0.200323,0.502322,0.081875,0.502322,0.081875,0.445800,0.231938,0.445800,0.231938,0.502322,0.385127,0.502322,0.385127,0.658576,0.231938,0.658576,0.231938,0.749288,0.081875,0.749288,0.081875,0.658576,-0.368314,0.658576,-0.500000,0.658576,-0.500000,1.190600,-0.366932,1.190600,-0.364992,1.080701,-0.361419,1.026363,-0.351785,0.983964,
-0.337432,0.951316,-0.319270,0.926535,-0.293936,0.906693,-0.257993,0.891468,-0.208383,0.881252,-0.140972,0.877405,-0.076333,0.880264,-0.027205,0.887914,0.009567,0.899264,0.036585,0.913700,0.055741,0.931151,0.072846,0.957887,0.086710,0.994447,0.096193,1.043370,0.099753,1.107555,0.098365,1.190600,-0.052830,1.190600,-0.053680,1.135326,-0.057538,1.086185,-0.066478,1.059269,
-0.078396,1.047449,-0.100576,1.039423,-0.138286,1.036188,-0.161726,1.038265,-0.180066,1.044054,-0.194510,1.053407,-0.204090,1.066020,-0.211143,1.087297,-0.214001,1.121038,-0.215124,1.186543,-0.215019,1.190600,-0.366932,1.190600,-0.500000,1.190600,-0.500000,1.268866,-0.368314,1.268866,-0.367815,1.240600,-0.213720,1.240600,-0.212877,1.273079,-0.210679,1.310851,-0.208073,1.333420,
-0.201265,1.349214,-0.191189,1.360017,-0.176862,1.367652,-0.156245,1.372764,-0.127148,1.374708,-0.098084,1.371619,-0.078993,1.363439,-0.067016,1.350345,-0.057420,1.323710,-0.053680,1.284839,-0.053030,1.240600,0.097529,1.240600,0.097506,1.241974,0.094187,1.285506,0.085294,1.318838,0.074249,1.338374,0.057419,1.355187,0.034150,1.369652,0.130772,1.369652,0.167425,1.367106,
0.192397,1.360506,0.208930,1.350748,0.220009,1.337019,0.227774,1.315960,0.230814,1.284802,0.231938,1.189071,0.229642,1.103379,0.226533,1.071415,0.218309,1.047948,0.208088,1.036015,0.192457,1.028784,0.169412,1.026113,0.169412,0.868173,0.198623,0.867330,0.247439,0.870184,0.284244,0.877851,0.311703,0.889432,0.331784,0.904699,0.351388,0.931133,0.367022,0.968569,
0.377262,1.020214,0.385127,1.189071,0.381756,1.303304,0.377578,1.369180,0.366580,1.417842,0.350681,1.452913,0.331176,1.477478,0.308581,1.493960,0.271909,1.508798,0.216962,1.521251,0.137782,1.530058,0.027409,1.533454,-0.029598,1.533454,-0.133010,1.531329,-0.177139,1.527635,-0.229681,1.520008,-0.263358,1.511219,-0.291181,1.497720,-0.314092,1.479269,-0.331977,1.457362,
-0.345616,1.432457,-0.354880,1.404091,-0.366604,1.337742,-0.368314,1.268866,-0.500000,1.268866,-0.500000,5.312076,-0.499040,5.321829,-0.494330,5.345511,-0.486863,5.363537,-0.476236,5.379441,-0.462442,5.393235,-0.446538,5.403862,-0.428514,5.411328,-0.404831,5.416039,-0.395076,5.417000,0.395076,5.417000,0.404831,5.416039,0.404831,5.416039,$1*%
%AMFreePoly35*
4,1,200,0.404831,5.416039,0.428513,5.411328,0.446537,5.403862,0.462441,5.393235,0.476235,5.379441,0.486862,5.363537,0.494328,5.345513,0.499039,5.321831,0.500000,5.312076,0.500000,0.054924,0.499039,0.050092,0.499039,0.050000,0.500000,0.050000,0.500000,0.000000,0.496194,-0.019134,0.485355,-0.035355,0.469134,-0.046194,0.450000,-0.050000,-0.450000,-0.050000,-0.469134,-0.046194,
-0.485355,-0.035355,-0.496194,-0.019134,-0.500000,0.000000,-0.500000,0.050000,-0.499040,0.050000,-0.499039,0.050096,-0.500000,0.054924,-0.500000,0.712322,-0.368314,0.712322,-0.368314,0.097416,0.072496,0.089869,0.072496,0.233520,0.053167,0.237614,0.040772,0.244329,0.033515,0.253670,0.024234,0.283089,0.022475,0.315842,0.022475,0.408239,0.024722,0.499794,0.027906,0.528492,
0.036091,0.547933,0.047974,0.560683,0.065084,0.569494,0.090963,0.575552,0.128916,0.577903,0.170943,0.574876,0.196977,0.567321,0.212154,0.556470,0.221440,0.541332,0.228153,0.517618,0.230814,0.482135,0.231938,0.410767,0.229691,0.329288,0.227618,0.295489,0.221240,0.259972,0.213880,0.244655,0.200682,0.233909,0.180528,0.226941,0.150654,0.224288,0.150654,0.068033,
0.222425,0.071663,0.273982,0.081165,0.310152,0.095009,0.334666,0.112547,0.352233,0.135071,0.366313,0.165942,0.375907,0.207398,0.379509,0.262060,0.385127,0.422527,0.385127,0.486348,0.384003,0.549363,0.378939,0.603871,0.365434,0.644634,0.345316,0.674677,0.319328,0.696348,0.286167,0.712495,0.242363,0.725119,0.185279,0.733557,0.111770,0.736685,0.036482,0.732755,
-0.016809,0.722532,-0.053582,0.707705,-0.075989,0.691868,-0.093629,0.671952,-0.106571,0.647200,-0.114350,0.616554,-0.123875,0.519541,-0.124461,0.448576,-0.124461,0.396479,-0.123338,0.344419,-0.119917,0.309658,-0.110442,0.281404,-0.092757,0.256403,-0.063889,0.233520,-0.218251,0.233520,-0.218251,0.712322,-0.368314,0.712322,-0.500000,0.712322,-0.500000,1.183200,-0.367910,1.183200,
-0.366066,1.094989,-0.361853,1.027010,-0.350722,0.976362,-0.334573,0.939488,-0.314715,0.913344,-0.291719,0.895504,-0.254249,0.879327,-0.197010,0.865694,-0.113239,0.855996,0.005036,0.852236,0.046411,0.852236,0.141911,0.855305,0.212816,0.863393,0.264161,0.875069,0.300294,0.889303,0.324750,0.905579,0.342999,0.926257,0.359183,0.955935,0.372488,0.997189,0.381666,1.053039,
0.385127,1.126899,0.384410,1.183200,0.199965,1.183200,0.198428,1.137817,0.195059,1.093670,0.186598,1.064577,0.174953,1.046355,0.161058,1.035748,0.134071,1.026689,0.085841,1.019725,0.006502,1.016844,-0.008006,1.016844,-0.073342,1.019030,-0.117070,1.024537,-0.144878,1.032060,-0.161440,1.040767,-0.172794,1.053248,-0.182808,1.075118,-0.190254,1.110569,-0.193240,1.164708,
-0.193240,1.183200,-0.367910,1.183200,-0.500000,1.183200,-0.500000,1.268023,-0.369437,1.268023,-0.368840,1.233200,-0.193240,1.233200,-0.193240,1.243660,-0.192117,1.272639,-0.186548,1.319241,-0.178820,1.339396,-0.164224,1.358332,-0.142349,1.372772,-0.108976,1.381413,-0.070274,1.385125,-0.023638,1.386468,0.022133,1.386468,0.085818,1.384000,0.128253,1.377784,0.155158,1.369242,
0.171121,1.359174,0.185553,1.339239,0.196296,1.305086,0.200675,1.250364,0.200675,1.233200,0.383773,1.233200,0.382880,1.303304,0.377836,1.382908,0.364984,1.437667,0.347123,1.473810,0.326473,1.497890,0.301984,1.516291,0.273345,1.529740,0.239802,1.538510,0.156799,1.547303,0.005036,1.551113,-0.081595,1.549794,-0.138579,1.546496,-0.190096,1.540101,-0.240868,1.530120,
-0.271951,1.519711,-0.298199,1.504221,-0.320247,1.483079,-0.343862,1.445656,-0.357665,1.401599,-0.367727,1.335214,-0.369437,1.268023,-0.500000,1.268023,-0.500000,5.312076,-0.499040,5.321829,-0.494330,5.345511,-0.486863,5.363537,-0.476236,5.379441,-0.462442,5.393235,-0.446538,5.403862,-0.428514,5.411328,-0.404831,5.416039,-0.395076,5.417000,0.395076,5.417000,0.404831,5.416039,
0.404831,5.416039,$1*%
%AMFreePoly36*
4,1,120,0.404831,5.416039,0.428513,5.411328,0.446537,5.403862,0.462441,5.393235,0.476235,5.379441,0.486862,5.363537,0.494328,5.345513,0.499039,5.321831,0.500000,5.312076,0.500000,0.054924,0.499039,0.050092,0.499039,0.050000,0.500000,0.050000,0.500000,0.000000,0.496194,-0.019134,0.485355,-0.035355,0.469134,-0.046194,0.450000,-0.050000,-0.450000,-0.050000,-0.469134,-0.046194,
-0.485355,-0.035355,-0.496194,-0.019134,-0.500000,0.000000,-0.500000,0.050000,-0.499040,0.050000,-0.499039,0.050096,-0.500000,0.054924,-0.500000,0.712322,-0.368314,0.712322,-0.368314,0.097416,0.072496,0.089869,0.072496,0.233520,0.053167,0.237614,0.040772,0.244329,0.033515,0.253670,0.024234,0.283089,0.022475,0.315842,0.022475,0.408239,0.024722,0.499794,0.027906,0.528492,
0.036091,0.547933,0.047974,0.560683,0.065084,0.569494,0.090963,0.575552,0.128916,0.577903,0.170943,0.574876,0.196977,0.567321,0.212154,0.556470,0.221440,0.541332,0.228153,0.517618,0.230814,0.482135,0.231938,0.410767,0.229691,0.329288,0.227618,0.295489,0.221240,0.259972,0.213880,0.244655,0.200682,0.233909,0.180528,0.226941,0.150654,0.224288,0.150654,0.068033,
0.222425,0.071663,0.273982,0.081165,0.310152,0.095009,0.334666,0.112547,0.352233,0.135071,0.366313,0.165942,0.375907,0.207398,0.379509,0.262060,0.385127,0.422527,0.385127,0.486348,0.384003,0.549363,0.378939,0.603871,0.365434,0.644634,0.345316,0.674677,0.319328,0.696348,0.286167,0.712495,0.242363,0.725119,0.185279,0.733557,0.111770,0.736685,0.036482,0.732755,
-0.016809,0.722532,-0.053582,0.707705,-0.075989,0.691868,-0.093629,0.671952,-0.106571,0.647200,-0.114350,0.616554,-0.123875,0.519541,-0.124461,0.448576,-0.124461,0.396479,-0.123338,0.344419,-0.119917,0.309658,-0.110442,0.281404,-0.092757,0.256403,-0.063889,0.233520,-0.218251,0.233520,-0.218251,0.712322,-0.368314,0.712322,-0.500000,0.712322,-0.500000,1.152105,-0.368314,1.152105,
-0.155725,0.912686,-0.003415,0.988304,-0.192459,1.191563,0.385127,1.191563,0.385127,1.358735,-0.368314,1.358735,-0.368314,1.152105,-0.500000,1.152105,-0.500000,5.312076,-0.499040,5.321829,-0.494330,5.345511,-0.486863,5.363537,-0.476236,5.379441,-0.462442,5.393235,-0.446538,5.403862,-0.428514,5.411328,-0.404831,5.416039,-0.395076,5.417000,0.395076,5.417000,0.404831,5.416039,
0.404831,5.416039,$1*%
%AMFreePoly37*
4,1,183,0.404831,5.416039,0.428513,5.411328,0.446537,5.403862,0.462441,5.393235,0.476235,5.379441,0.486862,5.363537,0.494328,5.345513,0.499039,5.321831,0.500000,5.312076,0.500000,0.054924,0.499039,0.050092,0.499039,0.050000,0.500000,0.050000,0.500000,0.000000,0.496194,-0.019134,0.485355,-0.035355,0.469134,-0.046194,0.450000,-0.050000,-0.450000,-0.050000,-0.469134,-0.046194,
-0.485355,-0.035355,-0.496194,-0.019134,-0.500000,0.000000,-0.500000,0.050000,-0.499040,0.050000,-0.499039,0.050096,-0.500000,0.054924,-0.500000,0.712322,-0.368314,0.712322,-0.368314,0.097416,0.072496,0.089869,0.072496,0.233520,0.053167,0.237614,0.040772,0.244329,0.033515,0.253670,0.024234,0.283089,0.022475,0.315842,0.022475,0.408239,0.024722,0.499794,0.027906,0.528492,
0.036091,0.547933,0.047974,0.560683,0.065084,0.569494,0.090963,0.575552,0.128916,0.577903,0.170943,0.574876,0.196977,0.567321,0.212154,0.556470,0.221440,0.541332,0.228153,0.517618,0.230814,0.482135,0.231938,0.410767,0.229691,0.329288,0.227618,0.295489,0.221240,0.259972,0.213880,0.244655,0.200682,0.233909,0.180528,0.226941,0.150654,0.224288,0.150654,0.068033,
0.222425,0.071663,0.273982,0.081165,0.310152,0.095009,0.334666,0.112547,0.352233,0.135071,0.366313,0.165942,0.375907,0.207398,0.379509,0.262060,0.385127,0.422527,0.385127,0.486348,0.384003,0.549363,0.378939,0.603871,0.365434,0.644634,0.345316,0.674677,0.319328,0.696348,0.286167,0.712495,0.242363,0.725119,0.185279,0.733557,0.111770,0.736685,0.036482,0.732755,
-0.016809,0.722532,-0.053582,0.707705,-0.075989,0.691868,-0.093629,0.671952,-0.106571,0.647200,-0.114350,0.616554,-0.123875,0.519541,-0.124461,0.448576,-0.124461,0.396479,-0.123338,0.344419,-0.119917,0.309658,-0.110442,0.281404,-0.092757,0.256403,-0.063889,0.233520,-0.218251,0.233520,-0.218251,0.712322,-0.368314,0.712322,-0.500000,0.712322,-0.500000,1.267180,-0.368314,1.267180,
-0.363819,1.079016,-0.360774,1.016632,-0.352822,0.971114,-0.341512,0.938901,-0.328013,0.916899,-0.307470,0.899788,-0.273858,0.885981,-0.222172,0.876216,-0.145759,0.872386,-0.093198,0.873229,-0.093198,1.027761,-0.118942,1.027761,-0.152452,1.029849,-0.166783,1.033366,-0.182689,1.040364,-0.195928,1.050598,-0.205599,1.065973,-0.210931,1.084069,-0.212877,1.106713,-0.215124,1.205851,
-0.215124,1.293229,-0.212863,1.324355,-0.207333,1.343727,-0.199981,1.354961,-0.188173,1.362965,-0.169535,1.368383,-0.141217,1.370495,-0.125536,1.371338,-0.099038,1.369076,-0.081203,1.363161,-0.069556,1.354118,-0.058180,1.333801,-0.049430,1.297405,-0.017825,1.003435,-0.007686,0.965989,0.006380,0.937637,0.023596,0.916572,0.043675,0.901366,0.077864,0.886838,0.126210,0.876979,
0.193250,0.873229,0.385127,0.873229,0.385127,1.530083,0.235064,1.530083,0.235064,1.026955,0.201261,1.026955,0.171395,1.029461,0.153268,1.035742,0.143033,1.045017,0.134691,1.065211,0.131358,1.096674,0.119684,1.214277,0.106885,1.352836,0.102439,1.407326,0.090783,1.446821,0.073860,1.474776,0.052663,1.493960,0.024795,1.508014,-0.014774,1.519337,-0.069509,1.527128,
-0.143561,1.530083,-0.208160,1.527103,-0.256443,1.519184,-0.291915,1.507504,-0.317413,1.492677,-0.336686,1.473202,-0.351891,1.446276,-0.362195,1.409813,-0.366066,1.361263,-0.368314,1.267180,-0.500000,1.267180,-0.500000,5.312076,-0.499040,5.321829,-0.494330,5.345511,-0.486863,5.363537,-0.476236,5.379441,-0.462442,5.393235,-0.446538,5.403862,-0.428514,5.411328,-0.404831,5.416039,
-0.395076,5.417000,0.395076,5.417000,0.404831,5.416039,0.404831,5.416039,$1*%
%AMFreePoly38*
4,1,211,0.404831,5.416039,0.428513,5.411328,0.446537,5.403862,0.462441,5.393235,0.476235,5.379441,0.486862,5.363537,0.494328,5.345513,0.499039,5.321831,0.500000,5.312076,0.500000,0.054924,0.499039,0.050092,0.499039,0.050000,0.500000,0.050000,0.500000,0.000000,0.496194,-0.019134,0.485355,-0.035355,0.469134,-0.046194,0.450000,-0.050000,-0.450000,-0.050000,-0.469134,-0.046194,
-0.485355,-0.035355,-0.496194,-0.019134,-0.500000,0.000000,-0.500000,0.050000,-0.499040,0.050000,-0.499039,0.050096,-0.500000,0.054924,-0.500000,0.712322,-0.368314,0.712322,-0.368314,0.097416,0.072496,0.089869,0.072496,0.233520,0.053167,0.237614,0.040772,0.244329,0.033515,0.253670,0.024234,0.283089,0.022475,0.315842,0.022475,0.408239,0.024722,0.499794,0.027906,0.528492,
0.036091,0.547933,0.047974,0.560683,0.065084,0.569494,0.090963,0.575552,0.128916,0.577903,0.170943,0.574876,0.196977,0.567321,0.212154,0.556470,0.221440,0.541332,0.228153,0.517618,0.230814,0.482135,0.231938,0.410767,0.229691,0.329288,0.227618,0.295489,0.221240,0.259972,0.213880,0.244655,0.200682,0.233909,0.180528,0.226941,0.150654,0.224288,0.150654,0.068033,
0.222425,0.071663,0.273982,0.081165,0.310152,0.095009,0.334666,0.112547,0.352233,0.135071,0.366313,0.165942,0.375907,0.207398,0.379509,0.262060,0.385127,0.422527,0.385127,0.486348,0.384003,0.549363,0.378939,0.603871,0.365434,0.644634,0.345316,0.674677,0.319328,0.696348,0.286167,0.712495,0.242363,0.725119,0.185279,0.733557,0.111770,0.736685,0.036482,0.732755,
-0.016809,0.722532,-0.053582,0.707705,-0.075989,0.691868,-0.093629,0.671952,-0.106571,0.647200,-0.114350,0.616554,-0.123875,0.519541,-0.124461,0.448576,-0.124461,0.396479,-0.123338,0.344419,-0.119917,0.309658,-0.110442,0.281404,-0.092757,0.256403,-0.063889,0.233520,-0.218251,0.233520,-0.218251,0.712322,-0.368314,0.712322,-0.500000,0.712322,-0.500000,1.210064,-0.368314,1.210064,
-0.368314,1.187386,-0.366653,1.103782,-0.356590,1.002152,-0.349009,0.967596,-0.336201,0.939910,-0.318804,0.917854,-0.296946,0.900486,-0.270788,0.887971,-0.233535,0.877830,-0.181895,0.870831,-0.111956,0.868173,-0.111956,1.026955,-0.131691,1.026113,-0.161249,1.028587,-0.181408,1.035084,-0.194803,1.045017,-0.207026,1.066667,-0.211852,1.100887,-0.215124,1.181524,-0.211803,1.274764,
-0.211803,1.282311,-0.209335,1.316971,-0.203426,1.337526,-0.195780,1.348660,-0.183350,1.356262,-0.162407,1.361636,-0.129053,1.363790,-0.101541,1.360969,-0.084611,1.353710,-0.074978,1.342358,-0.067996,1.318011,-0.065062,1.276413,-0.065062,1.133604,0.078749,1.133604,0.078749,1.268023,0.077625,1.309166,0.080006,1.333022,0.086196,1.349783,0.095211,1.361263,0.108624,1.369474,
0.129393,1.375063,0.160472,1.377236,0.187755,1.374691,0.206200,1.367972,0.218309,1.357489,0.229008,1.335751,0.233061,1.304989,0.231938,1.285682,0.231938,1.191599,0.230814,1.094146,0.227441,1.065510,0.218895,1.046893,0.206585,1.035308,0.189051,1.027680,0.162190,1.022315,0.122517,1.020214,0.122517,0.866488,0.162915,0.864802,0.221576,0.867474,0.266391,0.874644,
0.300157,0.885329,0.325168,0.898995,0.343068,0.915617,0.359105,0.940910,0.371992,0.974834,0.380739,1.019504,0.384003,1.077330,0.385127,1.184858,0.385127,1.317592,0.380547,1.389869,0.368810,1.440144,0.352390,1.473784,0.332859,1.495242,0.305099,1.512797,0.271509,1.525700,0.230884,1.533893,0.181624,1.536824,0.117787,1.533006,0.076809,1.523433,0.051784,1.509933,
0.034227,1.490221,0.018939,1.458440,0.007381,1.409989,-0.011572,1.462049,-0.029340,1.489524,-0.048893,1.504474,-0.072447,1.513912,-0.096276,1.519166,-0.156506,1.522536,-0.219086,1.519124,-0.265163,1.510074,-0.298529,1.496642,-0.322054,1.479269,-0.339074,1.457354,-0.352545,1.428147,-0.361616,1.389828,-0.364992,1.340270,-0.368314,1.210064,-0.500000,1.210064,-0.500000,5.312076,
-0.499040,5.321829,-0.494330,5.345511,-0.486863,5.363537,-0.476236,5.379441,-0.462442,5.393235,-0.446538,5.403862,-0.428514,5.411328,-0.404831,5.416039,-0.395076,5.417000,0.395076,5.417000,0.404831,5.416039,0.404831,5.416039,$1*%
%AMFreePoly39*
4,1,138,0.404831,5.416039,0.428513,5.411328,0.446537,5.403862,0.462441,5.393235,0.476235,5.379441,0.486862,5.363537,0.494328,5.345513,0.499039,5.321831,0.500000,5.312076,0.500000,0.054924,0.499039,0.050092,0.499039,0.050000,0.500000,0.050000,0.500000,0.000000,0.496194,-0.019134,0.485355,-0.035355,0.469134,-0.046194,0.450000,-0.050000,-0.450000,-0.050000,-0.469134,-0.046194,
-0.485355,-0.035355,-0.496194,-0.019134,-0.500000,0.000000,-0.500000,0.050000,-0.499040,0.050000,-0.499039,0.050096,-0.500000,0.054924,-0.500000,0.712322,-0.368314,0.712322,-0.368314,0.097416,0.072496,0.089869,0.072496,0.233520,0.053167,0.237614,0.040772,0.244329,0.033515,0.253670,0.024234,0.283089,0.022475,0.315842,0.022475,0.408239,0.024722,0.499794,0.027906,0.528492,
0.036091,0.547933,0.047974,0.560683,0.065084,0.569494,0.090963,0.575552,0.128916,0.577903,0.170943,0.574876,0.196977,0.567321,0.212154,0.556470,0.221440,0.541332,0.228153,0.517618,0.230814,0.482135,0.231938,0.410767,0.229691,0.329288,0.227618,0.295489,0.221240,0.259972,0.213880,0.244655,0.200682,0.233909,0.180528,0.226941,0.150654,0.224288,0.150654,0.068033,
0.222425,0.071663,0.273982,0.081165,0.310152,0.095009,0.334666,0.112547,0.352233,0.135071,0.366313,0.165942,0.375907,0.207398,0.379509,0.262060,0.385127,0.422527,0.385127,0.486348,0.384003,0.549363,0.378939,0.603871,0.365434,0.644634,0.345316,0.674677,0.319328,0.696348,0.286167,0.712495,0.242363,0.725119,0.185279,0.733557,0.111770,0.736685,0.036482,0.732755,
-0.016809,0.722532,-0.053582,0.707705,-0.075989,0.691868,-0.093629,0.671952,-0.106571,0.647200,-0.114350,0.616554,-0.123875,0.519541,-0.124461,0.448576,-0.124461,0.396479,-0.123338,0.344419,-0.119917,0.309658,-0.110442,0.281404,-0.092757,0.256403,-0.063889,0.233520,-0.218251,0.233520,-0.218251,0.712322,-0.368314,0.712322,-0.500000,0.712322,-0.500000,1.183200,-0.302745,1.183200,
-0.028327,0.856413,0.231938,0.856413,0.231938,1.183200,0.081875,1.183200,0.081875,0.973173,-0.098117,1.183200,-0.302745,1.183200,-0.500000,1.183200,-0.500000,1.458715,-0.368314,1.458715,-0.368314,1.261282,-0.344732,1.233200,-0.140967,1.233200,-0.200323,1.302461,0.081875,1.302461,0.081875,1.233200,0.231938,1.233200,0.231938,1.302461,0.385127,1.302461,0.385127,1.458715,
0.231938,1.458715,0.231938,1.549427,0.081875,1.549427,0.081875,1.458715,-0.368314,1.458715,-0.500000,1.458715,-0.500000,5.312076,-0.499040,5.321829,-0.494330,5.345511,-0.486863,5.363537,-0.476236,5.379441,-0.462442,5.393235,-0.446538,5.403862,-0.428514,5.411328,-0.404831,5.416039,-0.395076,5.417000,0.395076,5.417000,0.404831,5.416039,0.404831,5.416039,$1*%
%AMFreePoly40*
4,1,181,0.404831,5.416039,0.428513,5.411328,0.446537,5.403862,0.462441,5.393235,0.476235,5.379441,0.486862,5.363537,0.494328,5.345513,0.499039,5.321831,0.500000,5.312076,0.500000,0.054924,0.499039,0.050092,0.499039,0.050000,0.500000,0.050000,0.500000,0.000000,0.496194,-0.019134,0.485355,-0.035355,0.469134,-0.046194,0.450000,-0.050000,-0.450000,-0.050000,-0.469134,-0.046194,
-0.485355,-0.035355,-0.496194,-0.019134,-0.500000,0.000000,-0.500000,0.050000,-0.499040,0.050000,-0.499039,0.050096,-0.500000,0.054924,-0.500000,0.712322,-0.368314,0.712322,-0.368314,0.097416,0.072496,0.089869,0.072496,0.233520,0.053167,0.237614,0.040772,0.244329,0.033515,0.253670,0.024234,0.283089,0.022475,0.315842,0.022475,0.408239,0.024722,0.499794,0.027906,0.528492,
0.036091,0.547933,0.047974,0.560683,0.065084,0.569494,0.090963,0.575552,0.128916,0.577903,0.170943,0.574876,0.196977,0.567321,0.212154,0.556470,0.221440,0.541332,0.228153,0.517618,0.230814,0.482135,0.231938,0.410767,0.229691,0.329288,0.227618,0.295489,0.221240,0.259972,0.213880,0.244655,0.200682,0.233909,0.180528,0.226941,0.150654,0.224288,0.150654,0.068033,
0.222425,0.071663,0.273982,0.081165,0.310152,0.095009,0.334666,0.112547,0.352233,0.135071,0.366313,0.165942,0.375907,0.207398,0.379509,0.262060,0.385127,0.422527,0.385127,0.486348,0.384003,0.549363,0.378939,0.603871,0.365434,0.644634,0.345316,0.674677,0.319328,0.696348,0.286167,0.712495,0.242363,0.725119,0.185279,0.733557,0.111770,0.736685,0.036482,0.732755,
-0.016809,0.722532,-0.053582,0.707705,-0.075989,0.691868,-0.093629,0.671952,-0.106571,0.647200,-0.114350,0.616554,-0.123875,0.519541,-0.124461,0.448576,-0.124461,0.396479,-0.123338,0.344419,-0.119917,0.309658,-0.110442,0.281404,-0.092757,0.256403,-0.063889,0.233520,-0.218251,0.233520,-0.218251,0.712322,-0.368314,0.712322,-0.500000,0.712322,-0.500000,1.512461,-0.368314,1.512461,
-0.368314,0.897555,0.072496,0.890008,0.072496,1.033660,0.053167,1.037754,0.040772,1.044469,0.033515,1.053810,0.024234,1.083229,0.022475,1.115982,0.022475,1.208379,0.024722,1.299933,0.027906,1.328631,0.036091,1.348072,0.047974,1.360823,0.065084,1.369633,0.090963,1.375691,0.128916,1.378042,0.170943,1.375016,0.196977,1.367460,0.212154,1.356610,0.221440,1.341472,
0.228153,1.317758,0.230814,1.282274,0.231938,1.210907,0.229691,1.129427,0.227618,1.095629,0.221240,1.060111,0.213880,1.044795,0.200682,1.034048,0.180528,1.027080,0.150654,1.024427,0.150654,0.868173,0.222425,0.871803,0.273982,0.881305,0.310152,0.895149,0.334666,0.912686,0.352233,0.935210,0.366313,0.966081,0.375907,1.007538,0.379509,1.062199,0.385127,1.222667,
0.385127,1.286488,0.384003,1.349502,0.378939,1.404011,0.365434,1.444774,0.345316,1.474817,0.319328,1.496488,0.286167,1.512634,0.242363,1.525259,0.185279,1.533697,0.111770,1.536824,0.036482,1.532895,-0.016809,1.522672,-0.053582,1.507845,-0.075989,1.492008,-0.093629,1.472091,-0.106571,1.447340,-0.114350,1.416693,-0.123875,1.319680,-0.124461,1.248715,-0.124461,1.196618,
-0.123338,1.144558,-0.119917,1.109797,-0.110442,1.081543,-0.092757,1.056542,-0.063889,1.033660,-0.218251,1.033660,-0.218251,1.512461,-0.368314,1.512461,-0.500000,1.512461,-0.500000,5.312076,-0.499040,5.321829,-0.494330,5.345511,-0.486863,5.363537,-0.476236,5.379441,-0.462442,5.393235,-0.446538,5.403862,-0.428514,5.411328,-0.404831,5.416039,-0.395076,5.417000,0.395076,5.417000,
0.404831,5.416039,0.404831,5.416039,$1*%
%AMFreePoly41*
4,1,215,0.404831,5.416039,0.428513,5.411328,0.446537,5.403862,0.462441,5.393235,0.476235,5.379441,0.486862,5.363537,0.494328,5.345513,0.499039,5.321831,0.500000,5.312076,0.500000,0.054924,0.499039,0.050092,0.499039,0.050000,0.500000,0.050000,0.500000,0.000000,0.496194,-0.019134,0.485355,-0.035355,0.469134,-0.046194,0.450000,-0.050000,-0.450000,-0.050000,-0.469134,-0.046194,
-0.485355,-0.035355,-0.496194,-0.019134,-0.500000,0.000000,-0.500000,0.050000,-0.499040,0.050000,-0.499039,0.050096,-0.500000,0.054924,-0.500000,0.712322,-0.368314,0.712322,-0.368314,0.097416,0.072496,0.089869,0.072496,0.233520,0.053167,0.237614,0.040772,0.244329,0.033515,0.253670,0.024234,0.283089,0.022475,0.315842,0.022475,0.408239,0.024722,0.499794,0.027906,0.528492,
0.036091,0.547933,0.047974,0.560683,0.065084,0.569494,0.090963,0.575552,0.128916,0.577903,0.170943,0.574876,0.196977,0.567321,0.212154,0.556470,0.221440,0.541332,0.228153,0.517618,0.230814,0.482135,0.231938,0.410767,0.229691,0.329288,0.227618,0.295489,0.221240,0.259972,0.213880,0.244655,0.200682,0.233909,0.180528,0.226941,0.150654,0.224288,0.150654,0.068033,
0.222425,0.071663,0.273982,0.081165,0.310152,0.095009,0.334666,0.112547,0.352233,0.135071,0.366313,0.165942,0.375907,0.207398,0.379509,0.262060,0.385127,0.422527,0.385127,0.486348,0.384003,0.549363,0.378939,0.603871,0.365434,0.644634,0.345316,0.674677,0.319328,0.696348,0.286167,0.712495,0.242363,0.725119,0.185279,0.733557,0.111770,0.736685,0.036482,0.732755,
-0.016809,0.722532,-0.053582,0.707705,-0.075989,0.691868,-0.093629,0.671952,-0.106571,0.647200,-0.114350,0.616554,-0.123875,0.519541,-0.124461,0.448576,-0.124461,0.396479,-0.123338,0.344419,-0.119917,0.309658,-0.110442,0.281404,-0.092757,0.256403,-0.063889,0.233520,-0.218251,0.233520,-0.218251,0.712322,-0.368314,0.712322,-0.500000,0.712322,-0.500000,1.206693,-0.368314,1.206693,
-0.367190,1.136132,-0.361621,1.072311,-0.356103,1.018903,-0.340662,0.974654,-0.316339,0.937892,-0.290910,0.913048,-0.264498,0.895711,-0.236835,0.884627,-0.207309,0.879091,-0.122361,0.873229,-0.078788,0.873229,0.082168,0.874071,0.170604,0.876425,0.232573,0.882461,0.268753,0.890966,0.298563,0.904619,0.323089,0.923640,0.351080,0.958926,0.370619,1.001749,0.380852,1.052873,
0.385127,1.138660,0.384125,1.190600,0.231017,1.190600,0.231938,1.126899,0.227508,1.081627,0.216941,1.055495,0.203929,1.043735,0.181786,1.035900,0.146306,1.032817,0.115055,1.035526,0.095088,1.042474,0.082950,1.052967,0.072670,1.075935,0.068490,1.113454,0.066878,1.190600,-0.086666,1.190600,-0.083021,1.134228,-0.072975,1.092021,-0.059435,1.068403,-0.037351,1.049147,
-0.005320,1.033660,-0.098425,1.033660,-0.146101,1.036591,-0.166088,1.041523,-0.185913,1.050879,-0.201182,1.063970,-0.208921,1.080701,-0.212877,1.136132,-0.215124,1.233585,-0.214001,1.283154,-0.211236,1.311693,-0.088069,1.311693,-0.087385,1.240600,0.066243,1.240600,0.066243,1.302461,0.070799,1.332242,0.082950,1.353276,0.096042,1.363340,0.114963,1.369773,0.141861,1.372180,
0.177512,1.369207,0.200056,1.361638,0.213571,1.350345,0.224972,1.325172,0.229691,1.282311,0.230294,1.240600,0.383160,1.240600,0.381756,1.313379,0.377675,1.379758,0.367015,1.428043,0.351759,1.462193,0.333250,1.485570,0.306942,1.503526,0.267252,1.517920,0.209663,1.527920,0.128428,1.531769,0.066818,1.528892,0.015197,1.520851,-0.015066,1.510851,-0.037930,1.496176,
-0.054559,1.476338,-0.071199,1.441613,-0.081377,1.403248,-0.086276,1.362239,-0.088069,1.311693,-0.211236,1.311693,-0.210966,1.314480,-0.202766,1.338585,-0.192705,1.351534,-0.177487,1.360387,-0.155725,1.365476,-0.155725,1.520008,-0.216584,1.517146,-0.262523,1.509507,-0.296702,1.498173,-0.317971,1.485740,-0.334852,1.469121,-0.347493,1.447492,-0.355418,1.419624,-0.363198,1.364760,
-0.366604,1.321366,-0.368314,1.206693,-0.500000,1.206693,-0.500000,5.312076,-0.499040,5.321829,-0.494330,5.345511,-0.486863,5.363537,-0.476236,5.379441,-0.462442,5.393235,-0.446538,5.403862,-0.428514,5.411328,-0.404831,5.416039,-0.395076,5.417000,0.395076,5.417000,0.404831,5.416039,0.404831,5.416039,$1*%
%AMFreePoly42*
4,1,120,0.404831,5.416039,0.428513,5.411328,0.446537,5.403862,0.462441,5.393235,0.476235,5.379441,0.486862,5.363537,0.494328,5.345513,0.499039,5.321831,0.500000,5.312076,0.500000,0.054924,0.499039,0.050092,0.499039,0.050000,0.500000,0.050000,0.500000,0.000000,0.496194,-0.019134,0.485355,-0.035355,0.469134,-0.046194,0.450000,-0.050000,-0.450000,-0.050000,-0.469134,-0.046194,
-0.485355,-0.035355,-0.496194,-0.019134,-0.500000,0.000000,-0.500000,0.050000,-0.499040,0.050000,-0.499039,0.050096,-0.500000,0.054924,-0.500000,0.712322,-0.368314,0.712322,-0.368314,0.097416,0.072496,0.089869,0.072496,0.233520,0.053167,0.237614,0.040772,0.244329,0.033515,0.253670,0.024234,0.283089,0.022475,0.315842,0.022475,0.408239,0.024722,0.499794,0.027906,0.528492,
0.036091,0.547933,0.047974,0.560683,0.065084,0.569494,0.090963,0.575552,0.128916,0.577903,0.170943,0.574876,0.196977,0.567321,0.212154,0.556470,0.221440,0.541332,0.228153,0.517618,0.230814,0.482135,0.231938,0.410767,0.229691,0.329288,0.227618,0.295489,0.221240,0.259972,0.213880,0.244655,0.200682,0.233909,0.180528,0.226941,0.150654,0.224288,0.150654,0.068033,
0.222425,0.071663,0.273982,0.081165,0.310152,0.095009,0.334666,0.112547,0.352233,0.135071,0.366313,0.165942,0.375907,0.207398,0.379509,0.262060,0.385127,0.422527,0.385127,0.486348,0.384003,0.549363,0.378939,0.603871,0.365434,0.644634,0.345316,0.674677,0.319328,0.696348,0.286167,0.712495,0.242363,0.725119,0.185279,0.733557,0.111770,0.736685,0.036482,0.732755,
-0.016809,0.722532,-0.053582,0.707705,-0.075989,0.691868,-0.093629,0.671952,-0.106571,0.647200,-0.114350,0.616554,-0.123875,0.519541,-0.124461,0.448576,-0.124461,0.396479,-0.123338,0.344419,-0.119917,0.309658,-0.110442,0.281404,-0.092757,0.256403,-0.063889,0.233520,-0.218251,0.233520,-0.218251,0.712322,-0.368314,0.712322,-0.500000,0.712322,-0.500000,0.866488,-0.368314,0.866488,
-0.183861,0.866488,-0.183861,1.327667,0.385127,0.962255,0.385127,1.163866,-0.197344,1.534296,-0.368314,1.534296,-0.368314,0.866488,-0.500000,0.866488,-0.500000,5.312076,-0.499040,5.321829,-0.494330,5.345511,-0.486863,5.363537,-0.476236,5.379441,-0.462442,5.393235,-0.446538,5.403862,-0.428514,5.411328,-0.404831,5.416039,-0.395076,5.417000,0.395076,5.417000,0.404831,5.416039,
0.404831,5.416039,$1*%
%AMFreePoly43*
4,1,234,0.404831,5.416039,0.428513,5.411328,0.446537,5.403862,0.462441,5.393235,0.476235,5.379441,0.486862,5.363537,0.494328,5.345513,0.499039,5.321831,0.500000,5.312076,0.500000,0.054924,0.499039,0.050092,0.499039,0.050000,0.500000,0.050000,0.500000,0.000000,0.496194,-0.019134,0.485355,-0.035355,0.469134,-0.046194,0.450000,-0.050000,-0.450000,-0.050000,-0.469134,-0.046194,
-0.485355,-0.035355,-0.496194,-0.019134,-0.500000,0.000000,-0.500000,0.050000,-0.499040,0.050000,-0.499039,0.050096,-0.500000,0.054924,-0.500000,0.712322,-0.368314,0.712322,-0.368314,0.097416,0.072496,0.089869,0.072496,0.233520,0.053167,0.237614,0.040772,0.244329,0.033515,0.253670,0.024234,0.283089,0.022475,0.315842,0.022475,0.408239,0.024722,0.499794,0.027906,0.528492,
0.036091,0.547933,0.047974,0.560683,0.065084,0.569494,0.090963,0.575552,0.128916,0.577903,0.170943,0.574876,0.196977,0.567321,0.212154,0.556470,0.221440,0.541332,0.228153,0.517618,0.230814,0.482135,0.231938,0.410767,0.229691,0.329288,0.227618,0.295489,0.221240,0.259972,0.213880,0.244655,0.200682,0.233909,0.180528,0.226941,0.150654,0.224288,0.150654,0.068033,
0.222425,0.071663,0.273982,0.081165,0.310152,0.095009,0.334666,0.112547,0.352233,0.135071,0.366313,0.165942,0.375907,0.207398,0.379509,0.262060,0.385127,0.422527,0.385127,0.486348,0.384003,0.549363,0.378939,0.603871,0.365434,0.644634,0.345316,0.674677,0.319328,0.696348,0.286167,0.712495,0.242363,0.725119,0.185279,0.733557,0.111770,0.736685,0.036482,0.732755,
-0.016809,0.722532,-0.053582,0.707705,-0.075989,0.691868,-0.093629,0.671952,-0.106571,0.647200,-0.114350,0.616554,-0.123875,0.519541,-0.124461,0.448576,-0.124461,0.396479,-0.123338,0.344419,-0.119917,0.309658,-0.110442,0.281404,-0.092757,0.256403,-0.063889,0.233520,-0.218251,0.233520,-0.218251,0.712322,-0.368314,0.712322,-0.500000,0.712322,-0.500000,1.140345,-0.368314,1.140345,
-0.363868,1.037873,-0.358500,0.985399,-0.344076,0.945739,-0.322298,0.916057,-0.299493,0.898682,-0.269296,0.885682,-0.229882,0.877196,-0.178732,0.874071,-0.120654,0.877186,-0.081796,0.885101,-0.056806,0.896310,-0.037505,0.913068,-0.018136,0.940483,0.000835,0.982405,0.022106,0.938703,0.042796,0.909885,0.062629,0.892096,0.088132,0.880010,0.127850,0.871514,0.187339,0.868173,
0.239911,0.870969,0.280089,0.878502,0.310472,0.889858,0.333078,0.904677,0.349174,0.923201,0.366959,0.961002,0.379298,1.013793,0.384003,1.085720,0.384976,1.183200,0.231663,1.183200,0.231938,1.152948,0.228567,1.101693,0.223635,1.076128,0.216795,1.057620,0.206200,1.042512,0.193250,1.033660,0.176081,1.028863,0.148993,1.026955,0.117829,1.029910,0.097385,1.037633,
0.084513,1.049633,0.073635,1.074805,0.069370,1.112648,0.069370,1.183200,-0.074019,1.183200,-0.074441,1.115982,-0.079051,1.081221,-0.091293,1.056338,-0.104994,1.044057,-0.124475,1.036456,-0.151817,1.033660,-0.176503,1.036593,-0.193620,1.044624,-0.205159,1.058023,-0.214616,1.084453,-0.218251,1.121844,-0.217846,1.183200,-0.367213,1.183200,-0.368314,1.140345,-0.500000,1.140345,
-0.500000,1.233200,-0.365930,1.233200,-0.217516,1.233200,-0.217176,1.284802,-0.213353,1.322035,-0.203547,1.347377,-0.191645,1.359808,-0.173095,1.367574,-0.145271,1.370495,-0.120763,1.367905,-0.102793,1.360766,-0.089681,1.349063,-0.077712,1.325811,-0.073317,1.294914,-0.073705,1.233200,0.069370,1.233200,0.069370,1.283996,0.074288,1.323964,0.086760,1.349905,0.101004,1.362182,
0.122635,1.370046,0.154562,1.373023,0.183576,1.369721,0.203300,1.360794,0.216257,1.346132,0.226789,1.317064,0.230814,1.276413,0.231207,1.233200,0.384784,1.233200,0.384003,1.312536,0.382880,1.368810,0.377262,1.426329,0.367746,1.453474,0.345804,1.484727,0.325539,1.503264,0.302495,1.516045,0.276146,1.523782,0.230207,1.529532,0.164869,1.531769,0.116536,1.528451,
0.082156,1.519701,0.058134,1.506563,0.039512,1.488302,0.021022,1.460700,0.003082,1.420907,-0.014973,1.460463,-0.034172,1.487592,-0.054022,1.505280,-0.079432,1.517607,-0.116665,1.526012,-0.169891,1.529241,-0.218491,1.526307,-0.257984,1.518154,-0.290118,1.505384,-0.316192,1.488061,-0.334473,1.466988,-0.349816,1.434402,-0.360743,1.386219,-0.364992,1.317555,-0.364992,1.269708,
-0.365930,1.233200,-0.500000,1.233200,-0.500000,5.312076,-0.499040,5.321829,-0.494330,5.345511,-0.486863,5.363537,-0.476236,5.379441,-0.462442,5.393235,-0.446538,5.403862,-0.428514,5.411328,-0.404831,5.416039,-0.395076,5.417000,0.395076,5.417000,0.404831,5.416039,0.404831,5.416039,$1*%
%AMFreePoly44*
4,1,220,0.404831,5.416039,0.428513,5.411328,0.446537,5.403862,0.462441,5.393235,0.476235,5.379441,0.486862,5.363537,0.494328,5.345513,0.499039,5.321831,0.500000,5.312076,0.500000,0.054924,0.499039,0.050092,0.499039,0.050000,0.500000,0.050000,0.500000,0.000000,0.496194,-0.019134,0.485355,-0.035355,0.469134,-0.046194,0.450000,-0.050000,-0.450000,-0.050000,-0.469134,-0.046194,
-0.485355,-0.035355,-0.496194,-0.019134,-0.500000,0.000000,-0.500000,0.050000,-0.499040,0.050000,-0.499039,0.050096,-0.500000,0.054924,-0.500000,0.712322,-0.368314,0.712322,-0.368314,0.097416,0.072496,0.089869,0.072496,0.233520,0.053167,0.237614,0.040772,0.244329,0.033515,0.253670,0.024234,0.283089,0.022475,0.315842,0.022475,0.408239,0.024722,0.499794,0.027906,0.528492,
0.036091,0.547933,0.047974,0.560683,0.065084,0.569494,0.090963,0.575552,0.128916,0.577903,0.170943,0.574876,0.196977,0.567321,0.212154,0.556470,0.221440,0.541332,0.228153,0.517618,0.230814,0.482135,0.231938,0.410767,0.229691,0.329288,0.227618,0.295489,0.221240,0.259972,0.213880,0.244655,0.200682,0.233909,0.180528,0.226941,0.150654,0.224288,0.150654,0.068033,
0.222425,0.071663,0.273982,0.081165,0.310152,0.095009,0.334666,0.112547,0.352233,0.135071,0.366313,0.165942,0.375907,0.207398,0.379509,0.262060,0.385127,0.422527,0.385127,0.486348,0.384003,0.549363,0.378939,0.603871,0.365434,0.644634,0.345316,0.674677,0.319328,0.696348,0.286167,0.712495,0.242363,0.725119,0.185279,0.733557,0.111770,0.736685,0.036482,0.732755,
-0.016809,0.722532,-0.053582,0.707705,-0.075989,0.691868,-0.093629,0.671952,-0.106571,0.647200,-0.114350,0.616554,-0.123875,0.519541,-0.124461,0.448576,-0.124461,0.396479,-0.123338,0.344419,-0.119917,0.309658,-0.110442,0.281404,-0.092757,0.256403,-0.063889,0.233520,-0.218251,0.233520,-0.218251,0.712322,-0.368314,0.712322,-0.500000,0.712322,-0.500000,1.190600,-0.366932,1.190600,
-0.364992,1.080701,-0.361419,1.026363,-0.351785,0.983964,-0.337432,0.951316,-0.319270,0.926535,-0.293936,0.906693,-0.257993,0.891468,-0.208383,0.881252,-0.140972,0.877405,-0.076333,0.880264,-0.027205,0.887914,0.009567,0.899264,0.036585,0.913700,0.055741,0.931151,0.072846,0.957887,0.086710,0.994447,0.096193,1.043370,0.099753,1.107555,0.098365,1.190600,-0.052830,1.190600,
-0.053680,1.135326,-0.057538,1.086185,-0.066478,1.059269,-0.078396,1.047449,-0.100576,1.039423,-0.138286,1.036188,-0.161726,1.038265,-0.180066,1.044054,-0.194510,1.053407,-0.204090,1.066020,-0.211143,1.087297,-0.214001,1.121038,-0.215124,1.186543,-0.215019,1.190600,-0.366932,1.190600,-0.500000,1.190600,-0.500000,1.268866,-0.368314,1.268866,-0.367815,1.240600,-0.213720,1.240600,
-0.212877,1.273079,-0.210679,1.310851,-0.208073,1.333420,-0.201265,1.349214,-0.191189,1.360017,-0.176862,1.367652,-0.156245,1.372764,-0.127148,1.374708,-0.098084,1.371619,-0.078993,1.363439,-0.067016,1.350345,-0.057420,1.323710,-0.053680,1.284839,-0.053030,1.240600,0.097529,1.240600,0.097506,1.241974,0.094187,1.285506,0.085294,1.318838,0.074249,1.338374,0.057419,1.355187,
0.034150,1.369652,0.130772,1.369652,0.167425,1.367106,0.192397,1.360506,0.208930,1.350748,0.220009,1.337019,0.227774,1.315960,0.230814,1.284802,0.231938,1.189071,0.229642,1.103379,0.226533,1.071415,0.218309,1.047948,0.208088,1.036015,0.192457,1.028784,0.169412,1.026113,0.169412,0.868173,0.198623,0.867330,0.247439,0.870184,0.284244,0.877851,0.311703,0.889432,
0.331784,0.904699,0.351388,0.931133,0.367022,0.968569,0.377262,1.020214,0.385127,1.189071,0.381756,1.303304,0.377578,1.369180,0.366580,1.417842,0.350681,1.452913,0.331176,1.477478,0.308581,1.493960,0.271909,1.508798,0.216962,1.521251,0.137782,1.530058,0.027409,1.533454,-0.029598,1.533454,-0.133010,1.531329,-0.177139,1.527635,-0.229681,1.520008,-0.263358,1.511219,
-0.291181,1.497720,-0.314092,1.479269,-0.331977,1.457362,-0.345616,1.432457,-0.354880,1.404091,-0.366604,1.337742,-0.368314,1.268866,-0.500000,1.268866,-0.500000,5.312076,-0.499040,5.321829,-0.494330,5.345511,-0.486863,5.363537,-0.476236,5.379441,-0.462442,5.393235,-0.446538,5.403862,-0.428514,5.411328,-0.404831,5.416039,-0.395076,5.417000,0.395076,5.417000,0.404831,5.416039,
0.404831,5.416039,$1*%
%AMFreePoly45*
4,1,235,0.404831,5.416039,0.428513,5.411328,0.446537,5.403862,0.462441,5.393235,0.476235,5.379441,0.486862,5.363537,0.494328,5.345513,0.499039,5.321831,0.500000,5.312076,0.500000,0.054924,0.499039,0.050092,0.499039,0.050000,0.500000,0.050000,0.500000,0.000000,0.496194,-0.019134,0.485355,-0.035355,0.469134,-0.046194,0.450000,-0.050000,-0.450000,-0.050000,-0.469134,-0.046194,
-0.485355,-0.035355,-0.496194,-0.019134,-0.500000,0.000000,-0.500000,0.050000,-0.499040,0.050000,-0.499039,0.050096,-0.500000,0.054924,-0.500000,0.406554,-0.368314,0.406554,-0.367190,0.335992,-0.361621,0.272172,-0.356103,0.218763,-0.340662,0.174515,-0.316339,0.137752,-0.290910,0.112908,-0.264498,0.095571,-0.236835,0.084487,-0.207309,0.078951,-0.122361,0.073089,-0.078788,0.073089,
0.082168,0.073932,0.170604,0.076285,0.232573,0.082322,0.268753,0.090827,0.298563,0.104480,0.323089,0.123501,0.351080,0.158787,0.370619,0.201610,0.380852,0.252734,0.385127,0.338520,0.384022,0.395800,0.230940,0.395800,0.231938,0.326760,0.227508,0.281487,0.216941,0.255355,0.203929,0.243595,0.181786,0.235760,0.146306,0.232677,0.115055,0.235387,0.095088,0.242335,
0.082950,0.252827,0.072670,0.275796,0.068490,0.313314,0.066766,0.395800,-0.086956,0.395800,-0.086946,0.394794,-0.083021,0.334088,-0.072975,0.291882,-0.059435,0.268263,-0.037351,0.249007,-0.005320,0.233520,-0.098425,0.233520,-0.146101,0.236451,-0.166088,0.241383,-0.185913,0.250739,-0.201182,0.263831,-0.208921,0.280561,-0.212877,0.335992,-0.215124,0.433445,-0.214001,0.483014,
-0.211236,0.511554,-0.088069,0.511554,-0.087437,0.445800,0.066243,0.445800,0.066243,0.502322,0.070799,0.532103,0.082950,0.553136,0.096042,0.563201,0.114963,0.569633,0.141861,0.572041,0.177512,0.569067,0.200056,0.561499,0.213571,0.550205,0.224972,0.525032,0.229691,0.482172,0.230217,0.445800,0.383057,0.445800,0.381756,0.513239,0.377675,0.579618,0.367015,0.627904,
0.351759,0.662054,0.333250,0.685430,0.306942,0.703387,0.267252,0.717781,0.209663,0.727780,0.128428,0.731629,0.066818,0.728753,0.015197,0.720711,-0.015066,0.710711,-0.037930,0.696037,-0.054559,0.676198,-0.071199,0.641474,-0.081377,0.603108,-0.086276,0.562100,-0.088069,0.511554,-0.211236,0.511554,-0.210966,0.514340,-0.202766,0.538445,-0.192705,0.551394,-0.177487,0.560247,
-0.155725,0.565336,-0.155725,0.719869,-0.216584,0.717006,-0.262523,0.709368,-0.296702,0.698033,-0.317971,0.685600,-0.334852,0.668982,-0.347493,0.647352,-0.355418,0.619485,-0.363198,0.564621,-0.366604,0.521226,-0.368314,0.406554,-0.500000,0.406554,-0.500000,1.183200,-0.367910,1.183200,-0.366066,1.094989,-0.361853,1.027010,-0.350722,0.976362,-0.334573,0.939488,-0.314715,0.913344,
-0.291719,0.895504,-0.254249,0.879327,-0.197010,0.865694,-0.113239,0.855996,0.005036,0.852236,0.046411,0.852236,0.141911,0.855305,0.212816,0.863393,0.264161,0.875069,0.300294,0.889303,0.324750,0.905579,0.342999,0.926257,0.359183,0.955935,0.372488,0.997189,0.381666,1.053039,0.385127,1.126899,0.384410,1.183200,0.199965,1.183200,0.198428,1.137817,0.195059,1.093670,
0.186598,1.064577,0.174953,1.046355,0.161058,1.035748,0.134071,1.026689,0.085841,1.019725,0.006502,1.016844,-0.008006,1.016844,-0.073342,1.019030,-0.117070,1.024537,-0.144878,1.032060,-0.161440,1.040767,-0.172794,1.053248,-0.182808,1.075118,-0.190254,1.110569,-0.193240,1.164708,-0.193240,1.183200,-0.367910,1.183200,-0.500000,1.183200,-0.500000,1.268023,-0.369437,1.268023,
-0.368840,1.233200,-0.193240,1.233200,-0.193240,1.243660,-0.192117,1.272639,-0.186548,1.319241,-0.178820,1.339396,-0.164224,1.358332,-0.142349,1.372772,-0.108976,1.381413,-0.070274,1.385125,-0.023638,1.386468,0.022133,1.386468,0.085818,1.384000,0.128253,1.377784,0.155158,1.369242,0.171121,1.359174,0.185553,1.339239,0.196296,1.305086,0.200675,1.250364,0.200675,1.233200,
0.383773,1.233200,0.382880,1.303304,0.377836,1.382908,0.364984,1.437667,0.347123,1.473810,0.326473,1.497890,0.301984,1.516291,0.273345,1.529740,0.239802,1.538510,0.156799,1.547303,0.005036,1.551113,-0.081595,1.549794,-0.138579,1.546496,-0.190096,1.540101,-0.240868,1.530120,-0.271951,1.519711,-0.298199,1.504221,-0.320247,1.483079,-0.343862,1.445656,-0.357665,1.401599,
-0.367727,1.335214,-0.369437,1.268023,-0.500000,1.268023,-0.500000,5.312076,-0.499040,5.321829,-0.494330,5.345511,-0.486863,5.363537,-0.476236,5.379441,-0.462442,5.393235,-0.446538,5.403862,-0.428514,5.411328,-0.404831,5.416039,-0.395076,5.417000,0.395076,5.417000,0.404831,5.416039,0.404831,5.416039,$1*%
%AMFreePoly46*
4,1,82,0.380975,4.731904,0.419243,4.724292,0.421046,4.723545,0.453489,4.701868,0.454868,4.700489,0.476545,4.668046,0.477292,4.666243,0.484904,4.627975,0.485000,4.626995,0.480000,0.053488,0.479903,0.053003,0.479904,0.052517,0.472582,0.015708,0.471835,0.013905,0.451263,-0.016884,0.449884,-0.018264,0.419095,-0.038835,0.417292,-0.039582,0.380483,-0.046904,0.379991,-0.046903,
0.379508,-0.047000,-0.419508,-0.047000,-0.419991,-0.046903,-0.420484,-0.046904,-0.457293,-0.039582,-0.459096,-0.038835,-0.489885,-0.018263,-0.491265,-0.016884,-0.511836,0.013905,-0.512583,0.015708,-0.519904,0.052518,-0.519903,0.053003,-0.520000,0.053488,-0.520322,0.348286,-0.387693,0.348286,-0.207339,0.129286,0.169762,0.129286,0.347702,0.348286,-0.387693,0.348286,-0.520322,0.348286,
-0.520388,0.408286,-0.441479,0.408286,-0.406477,0.369286,0.366405,0.369287,0.399405,0.408286,-0.441479,0.408286,-0.520388,0.408286,-0.520971,0.941992,-0.315662,0.941992,-0.315662,0.858203,-0.065400,0.858203,-0.061864,0.856739,-0.060400,0.853203,-0.060400,0.600743,0.029128,0.600743,0.029128,0.853203,0.030592,0.856739,0.034128,0.858203,0.294451,0.858203,0.294451,0.941992,
0.034128,0.941992,0.030592,0.943456,0.029128,0.946992,0.029128,1.189451,-0.060400,1.189451,-0.060400,0.946992,-0.061864,0.943456,-0.065400,0.941992,-0.315662,0.941992,-0.520971,0.941992,-0.525000,4.626995,-0.524904,4.627975,-0.517292,4.666243,-0.516545,4.668046,-0.494868,4.700489,-0.493489,4.701868,-0.461046,4.723545,-0.459243,4.724292,-0.420975,4.731904,-0.420000,4.732000,
0.380000,4.732000,0.380975,4.731904,0.380975,4.731904,$1*%
%AMFreePoly47*
4,1,70,0.380975,4.681904,0.419243,4.674292,0.421046,4.673545,0.453489,4.651868,0.454868,4.650489,0.476545,4.618046,0.477292,4.616243,0.484904,4.577975,0.485000,4.576995,0.480000,0.003488,0.479903,0.003003,0.479904,0.002517,0.472582,-0.034292,0.471835,-0.036095,0.451263,-0.066884,0.449884,-0.068264,0.419095,-0.088835,0.417292,-0.089582,0.380483,-0.096904,0.379991,-0.096903,
0.379508,-0.097000,-0.419508,-0.097000,-0.419991,-0.096903,-0.420484,-0.096904,-0.457293,-0.089582,-0.459096,-0.088835,-0.489885,-0.068263,-0.491265,-0.066884,-0.511836,-0.036095,-0.512583,-0.034292,-0.519904,0.002518,-0.519903,0.003003,-0.520000,0.003488,-0.520323,0.298786,-0.378871,0.298786,-0.198518,0.079786,0.178585,0.079786,0.356523,0.298786,-0.378871,0.298786,-0.520323,0.298786,
-0.520453,0.418095,-0.482522,0.418095,-0.482223,0.414017,-0.442527,0.369786,0.417533,0.369786,0.454462,0.413426,0.454866,0.417454,0.453558,0.418786,-0.482115,0.418786,-0.482522,0.418095,-0.520453,0.418095,-0.520933,0.857051,-0.319790,0.857051,0.290323,0.857051,0.290323,0.940840,-0.319790,0.940840,-0.319790,0.857051,-0.520933,0.857051,-0.525000,4.576995,-0.524904,4.577975,
-0.517292,4.616243,-0.516545,4.618046,-0.494868,4.650489,-0.493489,4.651868,-0.461046,4.673545,-0.459243,4.674292,-0.420975,4.681904,-0.420000,4.682000,0.380000,4.682000,0.380975,4.681904,0.380975,4.681904,$1*%
%AMFreePoly48*
4,1,28,0.476334,6.762394,0.503394,6.735334,0.507200,6.716200,0.507200,0.868028,0.581291,0.621058,0.583343,0.609069,0.591146,0.445213,0.608743,0.075669,0.608800,0.073291,0.594155,0.037936,0.441755,-0.114464,0.409519,-0.129012,0.003119,-0.154412,-0.003119,-0.154412,-0.409519,-0.129012,-0.441755,-0.114464,-0.594155,0.037936,-0.595797,0.039657,-0.608743,0.075669,-0.583343,0.609069,
-0.581291,0.621058,-0.507200,0.868028,-0.507200,6.716200,-0.503394,6.735334,-0.476334,6.762394,-0.457200,6.766200,0.457200,6.766200,0.476334,6.762394,0.476334,6.762394,$1*%
%AMFreePoly49*
4,1,198,0.419907,4.673039,0.424831,4.673039,0.448513,4.668328,0.466537,4.660862,0.482440,4.650236,0.496235,4.636441,0.506862,4.620537,0.514328,4.602513,0.519039,4.578831,0.519039,4.573907,0.520000,4.569076,0.520000,0.004924,0.519039,0.000092,0.519039,-0.004831,0.514328,-0.028513,0.506862,-0.046537,0.496236,-0.062440,0.482441,-0.076235,0.466537,-0.086862,0.448513,-0.094328,
0.424831,-0.099039,0.419907,-0.099039,0.415076,-0.100000,-0.375076,-0.100000,-0.379907,-0.099039,-0.384831,-0.099039,-0.408514,-0.094328,-0.426538,-0.086862,-0.442442,-0.076235,-0.456237,-0.062439,-0.466863,-0.046537,-0.474329,-0.028513,-0.474328,-0.028511,-0.479040,-0.004829,-0.479039,0.000096,-0.480000,0.004924,-0.480000,0.209437,0.176029,0.209437,0.180947,0.195232,0.180968,0.195150,
0.183439,0.180319,0.186855,0.177878,0.187036,0.177635,0.188410,0.173667,0.201935,0.167098,0.202008,0.167055,0.214244,0.158316,0.218383,0.159005,0.218683,0.158962,0.222511,0.157103,0.241639,0.159739,0.258032,0.165413,0.258414,0.165391,0.258668,0.165105,0.258673,0.165092,0.288183,0.071638,0.297477,0.054717,0.331112,0.037227,0.367208,0.048625,0.384698,0.082261,
0.382587,0.101451,0.352252,0.197512,0.352285,0.197894,0.352565,0.198135,0.371543,0.204705,0.388209,0.214461,0.389856,0.217854,0.390074,0.218079,0.393368,0.219805,0.397984,0.234571,0.398011,0.234640,0.404772,0.248560,0.403556,0.252075,0.403551,0.252388,0.404660,0.255936,0.397480,0.269640,0.397450,0.269709,0.392389,0.284332,0.389045,0.285957,0.388820,0.286175,
0.387070,0.289517,0.370118,0.298761,0.290212,0.323731,0.287613,0.324010,0.287375,0.324100,0.286558,0.324683,0.284576,0.324353,0.284441,0.324349,0.281998,0.324610,0.281820,0.324663,0.279687,0.325772,0.277622,0.325120,0.277418,0.325100,0.271016,0.325784,0.260749,0.320407,0.260599,0.320357,0.249163,0.318450,0.245529,0.315037,0.245337,0.314924,0.243592,0.314374,
0.242457,0.312189,0.242355,0.312055,0.239320,0.309204,0.239210,0.309125,0.237433,0.308193,0.237133,0.307237,0.236999,0.307023,0.235094,0.305231,0.185149,0.235310,0.177207,0.217710,0.177907,0.213515,0.177864,0.213214,0.176029,0.209437,-0.480000,0.209437,-0.480000,0.423971,-0.359099,0.423971,-0.359099,0.324028,-0.357668,0.309489,-0.346535,0.282616,-0.325981,0.262063,
-0.299133,0.250940,-0.270066,0.250940,-0.243216,0.262063,-0.222663,0.282616,-0.211531,0.309488,-0.210099,0.324028,-0.210100,0.349000,-0.209954,0.349354,-0.209600,0.349500,0.245371,0.349500,0.259910,0.350931,0.286784,0.362063,0.307336,0.382615,0.318459,0.409467,0.318459,0.438531,0.307338,0.465383,0.286785,0.485936,0.259910,0.497068,0.245371,0.498500,-0.284571,0.498500,
-0.299110,0.497068,-0.325981,0.485936,-0.346535,0.465382,-0.357667,0.438510,-0.359099,0.423971,-0.480000,0.423971,-0.480000,0.798531,-0.357658,0.798531,-0.357658,0.769467,-0.346535,0.742615,-0.325981,0.722063,-0.299110,0.710930,-0.284570,0.709500,0.255372,0.709500,0.269910,0.710932,0.296784,0.722062,0.317337,0.742615,0.328468,0.769489,0.329900,0.784028,0.329900,0.883971,
0.328469,0.898510,0.317336,0.925383,0.296784,0.945935,0.269932,0.957058,0.240869,0.957058,0.214017,0.945936,0.193464,0.925383,0.182332,0.898510,0.180900,0.883971,0.180901,0.859000,0.180755,0.858646,0.180401,0.858500,-0.284570,0.858500,-0.299109,0.857068,-0.325983,0.845936,-0.346536,0.825383,-0.357658,0.798531,-0.480000,0.798531,-0.480000,1.027805,-0.380000,1.027805,
-0.374913,1.026793,-0.380000,1.030192,-0.380000,1.027805,-0.480000,1.027805,-0.480000,4.569076,-0.479039,4.573903,-0.479040,4.578829,-0.474329,4.602513,-0.466863,4.620537,-0.456236,4.636441,-0.442440,4.650236,-0.426538,4.660862,-0.408514,4.668328,-0.384831,4.673039,-0.379907,4.673039,-0.375076,4.674000,0.415076,4.674000,0.419907,4.673039,0.419907,4.673039,$1*%
%AMFreePoly50*
4,1,191,0.413727,4.693039,0.418651,4.693039,0.442333,4.688328,0.460357,4.680862,0.476260,4.670236,0.490055,4.656441,0.500682,4.640537,0.508148,4.622513,0.512859,4.598831,0.512859,4.593907,0.513820,4.589076,0.513820,0.024924,0.512859,0.020092,0.512859,0.015169,0.508148,-0.008513,0.500682,-0.026537,0.490056,-0.042440,0.476261,-0.056235,0.460357,-0.066862,0.442333,-0.074328,
0.418651,-0.079039,0.413727,-0.079039,0.408896,-0.080000,-0.381256,-0.080000,-0.386087,-0.079039,-0.391011,-0.079039,-0.414694,-0.074328,-0.432718,-0.066862,-0.448622,-0.056235,-0.462417,-0.042439,-0.473043,-0.026537,-0.480509,-0.008513,-0.480508,-0.008511,-0.485220,0.015171,-0.485219,0.020096,-0.486180,0.024924,-0.486180,0.273971,-0.304871,0.273971,-0.304871,0.174028,-0.303439,0.159489,
-0.292307,0.132616,-0.271753,0.112063,-0.244904,0.100941,-0.215838,0.100941,-0.188987,0.112063,-0.168434,0.132616,-0.157303,0.159489,-0.155871,0.174028,-0.155871,0.199000,-0.155725,0.199354,-0.155371,0.199500,0.309600,0.199500,0.324138,0.200931,0.351012,0.212063,0.371565,0.232616,0.382688,0.259466,0.382688,0.288532,0.371565,0.315383,0.351012,0.335936,0.324139,0.347069,
0.309600,0.348500,-0.230342,0.348500,-0.244881,0.347068,-0.271753,0.335936,-0.292307,0.315383,-0.303439,0.288510,-0.304871,0.273971,-0.486180,0.273971,-0.486180,0.648532,-0.293430,0.648532,-0.293430,0.619467,-0.282307,0.592616,-0.261754,0.572063,-0.234881,0.560929,-0.220342,0.559500,0.309601,0.559500,0.324139,0.560931,0.351012,0.572063,0.371565,0.592616,0.382697,0.619489,
0.384129,0.634028,0.384129,0.733971,0.382697,0.748511,0.371565,0.775383,0.351012,0.795936,0.324161,0.807059,0.295097,0.807059,0.268245,0.795936,0.247692,0.775383,0.236560,0.748511,0.235129,0.733971,0.235129,0.709001,0.234983,0.708647,0.234629,0.708501,-0.220342,0.708500,-0.234881,0.707069,-0.261754,0.695936,-0.282307,0.675383,-0.293430,0.648532,-0.486180,0.648532,
-0.486180,0.809439,-0.379741,0.809439,-0.378525,0.805925,-0.378521,0.805612,-0.379630,0.802063,-0.372451,0.788360,-0.372421,0.788292,-0.367359,0.773666,-0.364016,0.772044,-0.363791,0.771826,-0.362040,0.768482,-0.345089,0.759238,-0.265183,0.734267,-0.262583,0.733990,-0.262346,0.733900,-0.261529,0.733316,-0.259545,0.733647,-0.259410,0.733651,-0.256969,0.733390,-0.256791,0.733336,
-0.254659,0.732225,-0.252593,0.732880,-0.252389,0.732900,-0.245985,0.732215,-0.235719,0.737593,-0.235569,0.737643,-0.224134,0.739548,-0.220499,0.742963,-0.220308,0.743076,-0.218563,0.743626,-0.217427,0.745812,-0.217325,0.745945,-0.214290,0.748796,-0.214180,0.748875,-0.212402,0.749806,-0.212103,0.750763,-0.211968,0.750978,-0.210065,0.752765,-0.160118,0.822688,-0.152179,0.840288,
-0.152877,0.844483,-0.152834,0.844783,-0.151001,0.848559,-0.155918,0.862770,-0.155938,0.862851,-0.158409,0.877680,-0.161826,0.880122,-0.162007,0.880365,-0.163380,0.884332,-0.176906,0.890903,-0.176979,0.890946,-0.189213,0.899683,-0.193354,0.898994,-0.193654,0.899037,-0.197483,0.900896,-0.216605,0.898261,-0.233002,0.892587,-0.233384,0.892610,-0.233639,0.892896,-0.263154,0.986361,
-0.272447,1.003281,-0.306082,1.020772,-0.342177,1.009373,-0.359670,0.975738,-0.357558,0.956548,-0.327223,0.860487,-0.327256,0.860105,-0.327536,0.859864,-0.346512,0.853294,-0.363180,0.843538,-0.364828,0.840146,-0.365046,0.839921,-0.368338,0.838194,-0.372953,0.823429,-0.372980,0.823360,-0.379741,0.809439,-0.486180,0.809439,-0.486180,4.589076,-0.485219,4.593903,-0.485220,4.598829,
-0.480509,4.622513,-0.473043,4.640537,-0.462416,4.656441,-0.448620,4.670236,-0.432718,4.680862,-0.414694,4.688328,-0.391011,4.693039,-0.386087,4.693039,-0.381256,4.694000,0.408896,4.694000,0.413727,4.693039,0.413727,4.693039,$1*%
G04 Aperture macros list end*
%ADD10C,1.300000*%
%ADD11FreePoly0,315.000000*%
%ADD12FreePoly1,90.000000*%
%ADD13FreePoly2,270.000000*%
%ADD14FreePoly3,90.000000*%
%ADD15FreePoly4,90.000000*%
%ADD16FreePoly4,270.000000*%
%ADD17FreePoly3,270.000000*%
%ADD18FreePoly5,90.000000*%
%ADD19FreePoly6,90.000000*%
%ADD20FreePoly6,270.000000*%
%ADD21FreePoly0,135.000000*%
%ADD22FreePoly7,90.000000*%
%ADD23FreePoly8,270.000000*%
%ADD24FreePoly9,270.000000*%
%ADD25FreePoly10,270.000000*%
%ADD26FreePoly11,270.000000*%
%ADD27FreePoly12,90.000000*%
%ADD28FreePoly13,90.000000*%
%ADD29FreePoly14,90.000000*%
%ADD30FreePoly15,0.000000*%
%ADD31FreePoly7,0.000000*%
%ADD32FreePoly16,180.000000*%
%ADD33FreePoly17,180.000000*%
%ADD34FreePoly18,180.000000*%
%ADD35FreePoly19,180.000000*%
%ADD36FreePoly20,180.000000*%
%ADD37FreePoly21,180.000000*%
%ADD38FreePoly22,180.000000*%
%ADD39FreePoly23,180.000000*%
%ADD40FreePoly24,180.000000*%
%ADD41FreePoly25,180.000000*%
%ADD42FreePoly26,180.000000*%
%ADD43FreePoly27,180.000000*%
%ADD44FreePoly28,180.000000*%
%ADD45FreePoly29,180.000000*%
%ADD46FreePoly30,180.000000*%
%ADD47FreePoly31,180.000000*%
%ADD48FreePoly32,180.000000*%
%ADD49FreePoly33,180.000000*%
%ADD50FreePoly34,180.000000*%
%ADD51FreePoly35,180.000000*%
%ADD52FreePoly36,180.000000*%
%ADD53FreePoly37,180.000000*%
%ADD54FreePoly38,180.000000*%
%ADD55FreePoly39,180.000000*%
%ADD56FreePoly40,180.000000*%
%ADD57FreePoly41,180.000000*%
%ADD58FreePoly42,180.000000*%
%ADD59FreePoly43,180.000000*%
%ADD60FreePoly44,180.000000*%
%ADD61FreePoly45,180.000000*%
%ADD62FreePoly46,180.000000*%
%ADD63FreePoly47,180.000000*%
%ADD64FreePoly48,180.000000*%
%ADD65FreePoly49,180.000000*%
%ADD66FreePoly50,180.000000*%
G04 APERTURE END LIST*
D10*
%TO.C,REF\u002A\u002A*%
X118381532Y-25510321D03*
X118381532Y-28050321D03*
X118381532Y-30590321D03*
X118381532Y-33130321D03*
X118381532Y-35670321D03*
X118381532Y-38210321D03*
D11*
X118381532Y-38210321D03*
D10*
X118381532Y-40750321D03*
X118381532Y-43290321D03*
D11*
X118381532Y-43290321D03*
D10*
X120921532Y-25510321D03*
X120921532Y-28050321D03*
X120921532Y-30590321D03*
X120921532Y-33130321D03*
X120921532Y-35670321D03*
X120921532Y-38210321D03*
D11*
X120921532Y-38210321D03*
D10*
X120921532Y-40750321D03*
X120921532Y-43290321D03*
D11*
X120921532Y-43290321D03*
D10*
X123461532Y-25510321D03*
X123461532Y-28050321D03*
X123461532Y-30590321D03*
X123461532Y-33130321D03*
X123461532Y-35670321D03*
X123461532Y-38210321D03*
D11*
X123461532Y-38210321D03*
D10*
X123461532Y-40750321D03*
X123461532Y-43290321D03*
D11*
X123461532Y-43290321D03*
D10*
X126001532Y-25510321D03*
X126001532Y-28050321D03*
X126001532Y-30590321D03*
X126001532Y-33130321D03*
X126001532Y-35670321D03*
X126001532Y-38210321D03*
D11*
X126001532Y-38210321D03*
D10*
X126001532Y-40750321D03*
X126001532Y-43290321D03*
D11*
X126001532Y-43290321D03*
D10*
X128541532Y-25510321D03*
X128541532Y-28050321D03*
X128541532Y-30590321D03*
X128541532Y-33130321D03*
X128541532Y-35670321D03*
X128541532Y-38210321D03*
D11*
X128541532Y-38210321D03*
D10*
X128541532Y-40750321D03*
X128541532Y-43290321D03*
D11*
X128541532Y-43290321D03*
D10*
X131081532Y-25510321D03*
X131081532Y-28050321D03*
X131081532Y-30590321D03*
X131081532Y-33130321D03*
X131081532Y-35670321D03*
X131081532Y-38210321D03*
D11*
X131081532Y-38210321D03*
D10*
X131081532Y-40750321D03*
X131081532Y-43290321D03*
D11*
X131081532Y-43290321D03*
D10*
X133621532Y-25510321D03*
X133621532Y-28050321D03*
X133621532Y-30590321D03*
X133621532Y-33130321D03*
X133621532Y-35670321D03*
X133621532Y-38210321D03*
D11*
X133621532Y-38210321D03*
D10*
X133621532Y-40750321D03*
X133621532Y-43290321D03*
D11*
X133621532Y-43290321D03*
D10*
X136161532Y-25510321D03*
X136161532Y-28050321D03*
X136161532Y-30590321D03*
X136161532Y-33130321D03*
X136161532Y-35670321D03*
X136161532Y-38210321D03*
D11*
X136161532Y-38210321D03*
D10*
X136161532Y-40750321D03*
X136161532Y-43290321D03*
D11*
X136161532Y-43290321D03*
D10*
X138701532Y-25510321D03*
X138701532Y-28050321D03*
X138701532Y-30590321D03*
X138701532Y-33130321D03*
X138701532Y-35670321D03*
X138701532Y-38210321D03*
D11*
X138701532Y-38210321D03*
D10*
X138701532Y-40750321D03*
X138701532Y-43290321D03*
D11*
X138701532Y-43290321D03*
D10*
X141241532Y-25510321D03*
X141241532Y-28050321D03*
X141241532Y-30590321D03*
X141241532Y-33130321D03*
X141241532Y-35670321D03*
X141241532Y-38210321D03*
D11*
X141241532Y-38210321D03*
D10*
X141241532Y-40750321D03*
X141241532Y-43290321D03*
D11*
X141241532Y-43290321D03*
D10*
X143781532Y-25510321D03*
X143781532Y-28050321D03*
X143781532Y-30590321D03*
X143781532Y-33130321D03*
X143781532Y-35670321D03*
X143781532Y-38210321D03*
D11*
X143781532Y-38210321D03*
D10*
X143781532Y-40750321D03*
X143781532Y-43290321D03*
D11*
X143781532Y-43290321D03*
D10*
X146321532Y-25510321D03*
X146321532Y-28050321D03*
X146321532Y-30590321D03*
X146321532Y-33130321D03*
X146321532Y-35670321D03*
X146321532Y-38210321D03*
D11*
X146321532Y-38210321D03*
D10*
X146321532Y-40750321D03*
X146321532Y-43290321D03*
D11*
X146321532Y-43290321D03*
D10*
X148861532Y-25510321D03*
X148861532Y-28050321D03*
X148861532Y-30590321D03*
X148861532Y-33130321D03*
X148861532Y-35670321D03*
X148861532Y-38210321D03*
D11*
X148861532Y-38210321D03*
D10*
X148861532Y-40750321D03*
X148861532Y-43290321D03*
D11*
X148861532Y-43290321D03*
D10*
X151401532Y-25510321D03*
X151401532Y-28050321D03*
X151401532Y-30590321D03*
X151401532Y-33130321D03*
X151401532Y-35670321D03*
X151401532Y-38210321D03*
D11*
X151401532Y-38210321D03*
D10*
X151401532Y-40750321D03*
X151401532Y-43290321D03*
D11*
X151401532Y-43290321D03*
D10*
X153941532Y-25510321D03*
X153941532Y-28050321D03*
X153941532Y-30590321D03*
X153941532Y-33130321D03*
X153941532Y-35670321D03*
X153941532Y-38210321D03*
D11*
X153941532Y-38210321D03*
D10*
X153941532Y-40750321D03*
X153941532Y-43290321D03*
D11*
X153941532Y-43290321D03*
D10*
X156481532Y-25510321D03*
X156481532Y-28050321D03*
X156481532Y-30590321D03*
X156481532Y-33130321D03*
X156481532Y-35670321D03*
X156481532Y-38210321D03*
D11*
X156481532Y-38210321D03*
D10*
X156481532Y-40750321D03*
X156481532Y-43290321D03*
D11*
X156481532Y-43290321D03*
D10*
X159021532Y-25510321D03*
X159021532Y-28050321D03*
X159021532Y-30590321D03*
X159021532Y-33130321D03*
X159021532Y-35670321D03*
X159021532Y-38210321D03*
D11*
X159021532Y-38210321D03*
D10*
X159021532Y-40750321D03*
X159021532Y-43290321D03*
D11*
X159021532Y-43290321D03*
D10*
X161561532Y-25510321D03*
X161561532Y-28050321D03*
X161561532Y-30590321D03*
X161561532Y-33130321D03*
X161561532Y-35670321D03*
X161561532Y-38210321D03*
D11*
X161561532Y-38210321D03*
D10*
X161561532Y-40750321D03*
X161561532Y-43290321D03*
D11*
X161561532Y-43290321D03*
D10*
X164101532Y-25510321D03*
X164101532Y-28050321D03*
X164101532Y-30590321D03*
X164101532Y-33130321D03*
X164101532Y-35670321D03*
X164101532Y-38210321D03*
D11*
X164101532Y-38210321D03*
D10*
X164101532Y-40750321D03*
X164101532Y-43290321D03*
D11*
X164101532Y-43290321D03*
D10*
X166641532Y-25510321D03*
X166641532Y-28050321D03*
X166641532Y-30590321D03*
X166641532Y-33130321D03*
X166641532Y-35670321D03*
X166641532Y-38210321D03*
D11*
X166641532Y-38210321D03*
D10*
X166641532Y-40750321D03*
X166641532Y-43290321D03*
D11*
X166641532Y-43290321D03*
D10*
X169181532Y-25510321D03*
X169181532Y-28050321D03*
X169181532Y-30590321D03*
X169181532Y-33130321D03*
X169181532Y-35670321D03*
X169181532Y-38210321D03*
D11*
X169181532Y-38210321D03*
D10*
X169181532Y-40750321D03*
X169181532Y-43290321D03*
D11*
X169181532Y-43290321D03*
D10*
X171721532Y-25510321D03*
X171721532Y-28050321D03*
X171721532Y-30590321D03*
X171721532Y-33130321D03*
X171721532Y-35670321D03*
X171721532Y-38210321D03*
D11*
X171721532Y-38210321D03*
D10*
X171721532Y-40750321D03*
X171721532Y-43290321D03*
D11*
X171721532Y-43290321D03*
D10*
X174261532Y-25510321D03*
X174261532Y-28050321D03*
X174261532Y-30590321D03*
X174261532Y-33130321D03*
X174261532Y-35670321D03*
X174261532Y-38210321D03*
D11*
X174261532Y-38210321D03*
D10*
X174261532Y-40750321D03*
X174261532Y-43290321D03*
D11*
X174261532Y-43290321D03*
D10*
X176801532Y-25510321D03*
X176801532Y-28050321D03*
X176801532Y-30590321D03*
X176801532Y-33130321D03*
X176801532Y-35670321D03*
X176801532Y-38210321D03*
D11*
X176801532Y-38210321D03*
D10*
X176801532Y-40750321D03*
X176801532Y-43290321D03*
D11*
X176801532Y-43290321D03*
D10*
X179341532Y-25510321D03*
X179341532Y-28050321D03*
X179341532Y-30590321D03*
X179341532Y-33130321D03*
X179341532Y-35670321D03*
X179341532Y-38210321D03*
D11*
X179341532Y-38210321D03*
D10*
X179341532Y-40750321D03*
X179341532Y-43290321D03*
D11*
X179341532Y-43290321D03*
D10*
X181881532Y-25510321D03*
X181881532Y-28050321D03*
X181881532Y-30590321D03*
X181881532Y-33130321D03*
X181881532Y-35670321D03*
X181881532Y-38210321D03*
D11*
X181881532Y-38210321D03*
D10*
X181881532Y-40750321D03*
X181881532Y-43290321D03*
D11*
X181881532Y-43290321D03*
D10*
X184421532Y-25510321D03*
X184421532Y-28050321D03*
X184421532Y-30590321D03*
X184421532Y-33130321D03*
X184421532Y-35670321D03*
X184421532Y-38210321D03*
D11*
X184421532Y-38210321D03*
D10*
X184421532Y-40750321D03*
X184421532Y-43290321D03*
D11*
X184421532Y-43290321D03*
D10*
X186961532Y-25510321D03*
X186961532Y-28050321D03*
X186961532Y-30590321D03*
X186961532Y-33130321D03*
X186961532Y-35670321D03*
X186961532Y-38210321D03*
D11*
X186961532Y-38210321D03*
D10*
X186961532Y-40750321D03*
X186961532Y-43290321D03*
D11*
X186961532Y-43290321D03*
D10*
X189501532Y-25510321D03*
X189501532Y-28050321D03*
X189501532Y-30590321D03*
X189501532Y-33130321D03*
X189501532Y-35670321D03*
X189501532Y-38210321D03*
D11*
X189501532Y-38210321D03*
D10*
X189501532Y-40750321D03*
X189501532Y-43290321D03*
D11*
X189501532Y-43290321D03*
D10*
X192041532Y-25510321D03*
X192041532Y-28050321D03*
X192041532Y-30590321D03*
X192041532Y-33130321D03*
X192041532Y-35670321D03*
X192041532Y-38210321D03*
D11*
X192041532Y-38210321D03*
D10*
X192041532Y-40750321D03*
X192041532Y-43290321D03*
D11*
X192041532Y-43290321D03*
%TD*%
D12*
%TO.C,U2*%
X192041532Y-63610321D03*
D13*
X192041532Y-61075321D03*
X192041532Y-58535321D03*
X192041532Y-55995321D03*
X192041532Y-53460321D03*
X192041532Y-50920321D03*
X192041532Y-48380321D03*
D14*
X192041532Y-45830321D03*
D15*
X189501532Y-63610321D03*
D13*
X189501532Y-61070321D03*
X189501532Y-58530321D03*
X189501532Y-55990321D03*
X189501532Y-53455321D03*
X189501532Y-50915321D03*
X189501532Y-48375321D03*
D16*
X189501532Y-45830321D03*
D15*
X186961532Y-63610321D03*
D13*
X186961532Y-61070321D03*
X186961532Y-58530321D03*
X186961532Y-55990321D03*
X186961532Y-53455321D03*
X186961532Y-50915321D03*
X186961532Y-48375321D03*
D16*
X186961532Y-45830321D03*
D15*
X184421532Y-63610321D03*
D13*
X184421532Y-61070321D03*
X184421532Y-58530321D03*
X184421532Y-55990321D03*
X184421532Y-53455321D03*
X184421532Y-50915321D03*
X184421532Y-48375321D03*
D16*
X184421532Y-45830321D03*
D15*
X181881532Y-63610321D03*
D13*
X181881532Y-61070321D03*
X181881532Y-58530321D03*
X181881532Y-55990321D03*
X181881532Y-53455321D03*
X181881532Y-50915321D03*
X181881532Y-48375321D03*
D16*
X181881532Y-45830321D03*
D12*
X179341532Y-63610321D03*
D13*
X179341532Y-61075321D03*
X179341532Y-58535321D03*
X179341532Y-55995321D03*
X179341532Y-53460321D03*
X179341532Y-50920321D03*
X179341532Y-48380321D03*
D14*
X179341532Y-45830321D03*
D15*
X176801532Y-63610321D03*
D13*
X176801532Y-61070321D03*
X176801532Y-58530321D03*
X176801532Y-55990321D03*
X176801532Y-53455321D03*
X176801532Y-50915321D03*
X176801532Y-48375321D03*
D16*
X176801532Y-45830321D03*
D15*
X174261532Y-63610321D03*
D13*
X174261532Y-61070321D03*
X174261532Y-58530321D03*
X174261532Y-55990321D03*
X174261532Y-53455321D03*
X174261532Y-50915321D03*
X174261532Y-48375321D03*
D16*
X174261532Y-45830321D03*
D15*
X171721532Y-63610321D03*
D13*
X171721532Y-61070321D03*
X171721532Y-58530321D03*
X171721532Y-55990321D03*
X171721532Y-53455321D03*
X171721532Y-50915321D03*
X171721532Y-48375321D03*
D16*
X171721532Y-45830321D03*
D15*
X169181532Y-63610321D03*
D13*
X169181532Y-61070321D03*
X169181532Y-58530321D03*
X169181532Y-55990321D03*
X169181532Y-53455321D03*
X169181532Y-50915321D03*
X169181532Y-48375321D03*
D16*
X169181532Y-45830321D03*
D12*
X166641532Y-63610321D03*
D13*
X166641532Y-61075321D03*
X166641532Y-58535321D03*
X166641532Y-55995321D03*
X166641532Y-53460321D03*
X166641532Y-50920321D03*
X166641532Y-48380321D03*
D14*
X166641532Y-45830321D03*
D15*
X164101532Y-63610321D03*
D13*
X164101532Y-61070321D03*
X164101532Y-58530321D03*
X164101532Y-55990321D03*
X164101532Y-53455321D03*
X164101532Y-50915321D03*
X164101532Y-48375321D03*
D16*
X164101532Y-45830321D03*
D15*
X161561532Y-63610321D03*
D13*
X161561532Y-61070321D03*
X161561532Y-58530321D03*
X161561532Y-55990321D03*
X161561532Y-53455321D03*
X161561532Y-50915321D03*
X161561532Y-48375321D03*
D16*
X161561532Y-45830321D03*
D15*
X159021532Y-63610321D03*
D13*
X159021532Y-61070321D03*
X159021532Y-58530321D03*
X159021532Y-55990321D03*
X159021532Y-53455321D03*
X159021532Y-50915321D03*
X159021532Y-48375321D03*
D16*
X159021532Y-45830321D03*
D15*
X156481532Y-63610321D03*
D13*
X156481532Y-61070321D03*
X156481532Y-58530321D03*
X156481532Y-55990321D03*
X156481532Y-53455321D03*
X156481532Y-50915321D03*
X156481532Y-48375321D03*
D16*
X156481532Y-45830321D03*
D12*
X153941532Y-63610321D03*
D13*
X153941532Y-61075321D03*
X153941532Y-58535321D03*
X153941532Y-55995321D03*
X153941532Y-53460321D03*
X153941532Y-50920321D03*
X153941532Y-48380321D03*
D14*
X153941532Y-45830321D03*
D15*
X151401532Y-63610321D03*
D13*
X151401532Y-61070321D03*
X151401532Y-58530321D03*
X151401532Y-55990321D03*
X151401532Y-53455321D03*
X151401532Y-50915321D03*
X151401532Y-48375321D03*
D16*
X151401532Y-45830321D03*
D15*
X148861532Y-63610321D03*
D13*
X148861532Y-61070321D03*
X148861532Y-58530321D03*
X148861532Y-55990321D03*
X148861532Y-53455321D03*
X148861532Y-50915321D03*
X148861532Y-48375321D03*
D16*
X148861532Y-45830321D03*
D15*
X146321532Y-63610321D03*
D13*
X146321532Y-61070321D03*
X146321532Y-58530321D03*
X146321532Y-55990321D03*
X146321532Y-53455321D03*
X146321532Y-50915321D03*
X146321532Y-48375321D03*
D16*
X146321532Y-45830321D03*
D15*
X143781532Y-63610321D03*
D13*
X143781532Y-61070321D03*
X143781532Y-58530321D03*
X143781532Y-55990321D03*
X143781532Y-53455321D03*
X143781532Y-50915321D03*
X143781532Y-48375321D03*
D16*
X143781532Y-45830321D03*
D12*
X141241532Y-63610321D03*
D13*
X141241532Y-61075321D03*
X141241532Y-58535321D03*
X141241532Y-55995321D03*
X141241532Y-53460321D03*
X141241532Y-50920321D03*
X141241532Y-48380321D03*
D14*
X141241532Y-45830321D03*
D15*
X138701532Y-63610321D03*
D13*
X138701532Y-61070321D03*
X138701532Y-58530321D03*
X138701532Y-55990321D03*
X138701532Y-53455321D03*
X138701532Y-50915321D03*
X138701532Y-48375321D03*
D16*
X138701532Y-45830321D03*
D15*
X136161532Y-63610321D03*
D13*
X136161532Y-61070321D03*
X136161532Y-58530321D03*
X136161532Y-55990321D03*
X136161532Y-53455321D03*
X136161532Y-50915321D03*
X136161532Y-48375321D03*
D16*
X136161532Y-45830321D03*
D15*
X133621532Y-63610321D03*
D13*
X133621532Y-61070321D03*
X133621532Y-58530321D03*
X133621532Y-55990321D03*
X133621532Y-53455321D03*
X133621532Y-50915321D03*
X133621532Y-48375321D03*
D16*
X133621532Y-45830321D03*
D15*
X131081532Y-63610321D03*
D13*
X131081532Y-61070321D03*
X131081532Y-58530321D03*
X131081532Y-55990321D03*
X131081532Y-53455321D03*
X131081532Y-50915321D03*
X131081532Y-48375321D03*
D16*
X131081532Y-45830321D03*
D12*
X128541532Y-63610321D03*
D13*
X128541532Y-61075321D03*
X128541532Y-58535321D03*
X128541532Y-55995321D03*
X128541532Y-53460321D03*
X128541532Y-50920321D03*
X128541532Y-48380321D03*
D14*
X128541532Y-45830321D03*
D15*
X126001532Y-63610321D03*
D13*
X126001532Y-61070321D03*
X126001532Y-58530321D03*
X126001532Y-55990321D03*
X126001532Y-53455321D03*
X126001532Y-50915321D03*
X126001532Y-48375321D03*
D16*
X126001532Y-45830321D03*
D15*
X123461532Y-63610321D03*
D13*
X123461532Y-61070321D03*
X123461532Y-58530321D03*
X123461532Y-55990321D03*
X123461532Y-53455321D03*
X123461532Y-50915321D03*
X123461532Y-48375321D03*
D16*
X123461532Y-45830321D03*
D15*
X120921532Y-63610321D03*
D13*
X120921532Y-61070321D03*
X120921532Y-58530321D03*
X120921532Y-55990321D03*
X120921532Y-53455321D03*
X120921532Y-50915321D03*
X120921532Y-48375321D03*
D16*
X120921532Y-45830321D03*
D12*
X118381532Y-63610321D03*
D13*
X118381532Y-61070321D03*
X118381532Y-58530321D03*
X118381532Y-55990321D03*
X118381532Y-53455321D03*
X118381532Y-50915321D03*
X118381532Y-48375321D03*
D14*
X118381532Y-45830321D03*
D17*
X192041532Y-43290321D03*
D18*
X192041532Y-40745321D03*
X192041532Y-38205321D03*
X192041532Y-35665321D03*
X192041532Y-33125321D03*
X192041532Y-30585321D03*
X192041532Y-28045321D03*
D14*
X192041532Y-25510321D03*
D19*
X189501532Y-43295321D03*
D18*
X189501532Y-40750321D03*
X189501532Y-38210321D03*
X189501532Y-35670321D03*
X189501532Y-33130321D03*
X189501532Y-30590321D03*
X189501532Y-28050321D03*
D20*
X189501532Y-25515321D03*
D19*
X186961532Y-43295321D03*
D18*
X186961532Y-40750321D03*
X186961532Y-38210321D03*
X186961532Y-35670321D03*
X186961532Y-33130321D03*
X186961532Y-30590321D03*
X186961532Y-28050321D03*
D20*
X186961532Y-25515321D03*
D19*
X184421532Y-43295321D03*
D18*
X184421532Y-40750321D03*
X184421532Y-38210321D03*
X184421532Y-35670321D03*
X184421532Y-33130321D03*
X184421532Y-30590321D03*
X184421532Y-28050321D03*
D20*
X184421532Y-25515321D03*
D19*
X181881532Y-43295321D03*
D18*
X181881532Y-40750321D03*
X181881532Y-38210321D03*
X181881532Y-35670321D03*
X181881532Y-33130321D03*
X181881532Y-30590321D03*
X181881532Y-28050321D03*
D20*
X181881532Y-25515321D03*
D17*
X179341532Y-43290321D03*
D18*
X179341532Y-40745321D03*
X179341532Y-38205321D03*
X179341532Y-35665321D03*
X179341532Y-33125321D03*
X179341532Y-30585321D03*
X179341532Y-28045321D03*
D14*
X179341532Y-25510321D03*
D19*
X176801532Y-43295321D03*
D18*
X176801532Y-40750321D03*
X176801532Y-38210321D03*
X176801532Y-35670321D03*
X176801532Y-33130321D03*
X176801532Y-30590321D03*
X176801532Y-28050321D03*
D20*
X176801532Y-25515321D03*
D19*
X174261532Y-43295321D03*
D18*
X174261532Y-40750321D03*
X174261532Y-38210321D03*
X174261532Y-35670321D03*
X174261532Y-33130321D03*
X174261532Y-30590321D03*
X174261532Y-28050321D03*
D20*
X174261532Y-25515321D03*
D19*
X171721532Y-43295321D03*
D18*
X171721532Y-40750321D03*
X171721532Y-38210321D03*
X171721532Y-35670321D03*
X171721532Y-33130321D03*
X171721532Y-30590321D03*
X171721532Y-28050321D03*
D20*
X171721532Y-25515321D03*
D19*
X169181532Y-43295321D03*
D18*
X169181532Y-40750321D03*
X169181532Y-38210321D03*
X169181532Y-35670321D03*
X169181532Y-33130321D03*
X169181532Y-30590321D03*
X169181532Y-28050321D03*
D20*
X169181532Y-25510321D03*
D17*
X166641532Y-43290321D03*
D18*
X166641532Y-40745321D03*
X166641532Y-38205321D03*
X166641532Y-35665321D03*
X166641532Y-33125321D03*
X166641532Y-30585321D03*
X166641532Y-28045321D03*
D14*
X166641532Y-25510321D03*
D19*
X164101532Y-43295321D03*
D18*
X164101532Y-40750321D03*
X164101532Y-38210321D03*
X164101532Y-35670321D03*
X164101532Y-33130321D03*
X164101532Y-30590321D03*
X164101532Y-28050321D03*
D20*
X164101532Y-25515321D03*
D19*
X161561532Y-43295321D03*
D18*
X161561532Y-40750321D03*
X161561532Y-38210321D03*
X161561532Y-35670321D03*
X161561532Y-33130321D03*
X161561532Y-30590321D03*
X161561532Y-28050321D03*
D20*
X161561532Y-25515321D03*
D19*
X159021532Y-43295321D03*
D18*
X159021532Y-40750321D03*
X159021532Y-38210321D03*
X159021532Y-35670321D03*
X159021532Y-33130321D03*
X159021532Y-30590321D03*
X159021532Y-28050321D03*
D20*
X159021532Y-25515321D03*
D19*
X156481532Y-43295321D03*
D18*
X156481532Y-40750321D03*
X156481532Y-38210321D03*
X156481532Y-35670321D03*
X156481532Y-33130321D03*
X156481532Y-30590321D03*
X156481532Y-28050321D03*
D20*
X156481532Y-25515321D03*
D17*
X153941532Y-43290321D03*
D18*
X153941532Y-40745321D03*
X153941532Y-38205321D03*
X153941532Y-35665321D03*
X153941532Y-33125321D03*
X153941532Y-30585321D03*
X153941532Y-28045321D03*
D14*
X153941532Y-25510321D03*
D19*
X151401532Y-43295321D03*
D18*
X151401532Y-40750321D03*
X151401532Y-38210321D03*
X151401532Y-35670321D03*
X151401532Y-33130321D03*
X151401532Y-30590321D03*
X151401532Y-28050321D03*
D20*
X151401532Y-25515321D03*
D19*
X148861532Y-43295321D03*
D18*
X148861532Y-40750321D03*
X148861532Y-38210321D03*
X148861532Y-35670321D03*
X148861532Y-33130321D03*
X148861532Y-30590321D03*
X148861532Y-28050321D03*
D20*
X148861532Y-25515321D03*
D19*
X146321532Y-43295321D03*
D18*
X146321532Y-40750321D03*
X146321532Y-38210321D03*
X146321532Y-35670321D03*
X146321532Y-33130321D03*
X146321532Y-30590321D03*
X146321532Y-28050321D03*
D20*
X146321532Y-25515321D03*
D19*
X143781532Y-43295321D03*
D18*
X143781532Y-40750321D03*
X143781532Y-38210321D03*
X143781532Y-35670321D03*
X143781532Y-33130321D03*
X143781532Y-30590321D03*
X143781532Y-28050321D03*
D20*
X143781532Y-25510321D03*
D17*
X141241532Y-43290321D03*
D18*
X141241532Y-40745321D03*
X141241532Y-38205321D03*
X141241532Y-35665321D03*
X141241532Y-33125321D03*
X141241532Y-30585321D03*
X141241532Y-28045321D03*
D14*
X141241532Y-25510321D03*
D19*
X138701532Y-43295321D03*
D18*
X138701532Y-40750321D03*
X138701532Y-38210321D03*
X138701532Y-35670321D03*
X138701532Y-33130321D03*
X138701532Y-30590321D03*
X138701532Y-28050321D03*
D20*
X138701532Y-25515321D03*
D19*
X136161532Y-43295321D03*
D18*
X136161532Y-40750321D03*
X136161532Y-38210321D03*
X136161532Y-35670321D03*
X136161532Y-33130321D03*
X136161532Y-30590321D03*
X136161532Y-28050321D03*
D20*
X136161532Y-25515321D03*
D19*
X133621532Y-43295321D03*
D18*
X133621532Y-40750321D03*
X133621532Y-38210321D03*
X133621532Y-35670321D03*
X133621532Y-33130321D03*
X133621532Y-30590321D03*
X133621532Y-28050321D03*
D20*
X133621532Y-25515321D03*
D19*
X131081532Y-43295321D03*
D18*
X131081532Y-40750321D03*
X131081532Y-38210321D03*
X131081532Y-35670321D03*
X131081532Y-33130321D03*
X131081532Y-30590321D03*
X131081532Y-28050321D03*
D20*
X131081532Y-25510321D03*
D17*
X128541532Y-43290321D03*
D18*
X128541532Y-40745321D03*
X128541532Y-38205321D03*
X128541532Y-35665321D03*
X128541532Y-33125321D03*
X128541532Y-30585321D03*
X128541532Y-28045321D03*
D14*
X128541532Y-25510321D03*
D19*
X126001532Y-43295321D03*
D18*
X126001532Y-40750321D03*
X126001532Y-38210321D03*
X126001532Y-35670321D03*
X126001532Y-33130321D03*
X126001532Y-30590321D03*
X126001532Y-28050321D03*
D20*
X126001532Y-25515321D03*
D19*
X123461532Y-43295321D03*
D18*
X123461532Y-40750321D03*
X123461532Y-38210321D03*
X123461532Y-35670321D03*
X123461532Y-33130321D03*
X123461532Y-30590321D03*
X123461532Y-28050321D03*
D20*
X123461532Y-25515321D03*
D19*
X120921532Y-43295321D03*
D18*
X120921532Y-40750321D03*
X120921532Y-38210321D03*
X120921532Y-35670321D03*
X120921532Y-33130321D03*
X120921532Y-30590321D03*
X120921532Y-28050321D03*
D20*
X120921532Y-25515321D03*
D17*
X118381532Y-43290321D03*
D18*
X118381532Y-40750321D03*
X118381532Y-38210321D03*
X118381532Y-35670321D03*
X118381532Y-33130321D03*
X118381532Y-30590321D03*
X118381532Y-28050321D03*
D14*
X118381532Y-25515321D03*
%TD*%
D10*
%TO.C,REF\u002A\u002A*%
X192041533Y-63610321D03*
X192041532Y-61070321D03*
X192041532Y-58530321D03*
X192041532Y-55990319D03*
X192041533Y-53450322D03*
X192041533Y-50910322D03*
D21*
X192041533Y-50910322D03*
D10*
X192041531Y-48370320D03*
X192041532Y-45830321D03*
D21*
X192041532Y-45830321D03*
D10*
X189501532Y-63610321D03*
X189501532Y-61070321D03*
X189501532Y-58530321D03*
X189501532Y-55990321D03*
X189501532Y-53450321D03*
X189501533Y-50910321D03*
D21*
X189501533Y-50910321D03*
D10*
X189501530Y-48370321D03*
X189501532Y-45830321D03*
D21*
X189501532Y-45830321D03*
D10*
X186961533Y-63610323D03*
X186961533Y-61070320D03*
X186961532Y-58530321D03*
X186961532Y-55990321D03*
X186961534Y-53450321D03*
X186961532Y-50910321D03*
D21*
X186961532Y-50910321D03*
D10*
X186961532Y-48370321D03*
X186961532Y-45830322D03*
D21*
X186961532Y-45830322D03*
D10*
X184421534Y-63610322D03*
X184421532Y-61070321D03*
X184421531Y-58530321D03*
X184421532Y-55990321D03*
X184421532Y-53450321D03*
X184421532Y-50910321D03*
D21*
X184421532Y-50910321D03*
D10*
X184421532Y-48370321D03*
X184421532Y-45830322D03*
D21*
X184421532Y-45830322D03*
D10*
X181881532Y-63610321D03*
X181881532Y-61070321D03*
X181881534Y-58530321D03*
X181881532Y-55990322D03*
X181881532Y-53450321D03*
X181881533Y-50910322D03*
D21*
X181881533Y-50910322D03*
D10*
X181881532Y-48370321D03*
X181881532Y-45830321D03*
D21*
X181881532Y-45830321D03*
D10*
X179341532Y-63610321D03*
X179341533Y-61070322D03*
X179341533Y-58530320D03*
X179341531Y-55990321D03*
X179341532Y-53450321D03*
X179341532Y-50910322D03*
D21*
X179341532Y-50910322D03*
D10*
X179341534Y-48370320D03*
X179341532Y-45830321D03*
D21*
X179341532Y-45830321D03*
D10*
X176801531Y-63610321D03*
X176801532Y-61070323D03*
X176801534Y-58530321D03*
X176801531Y-55990320D03*
X176801531Y-53450322D03*
X176801531Y-50910322D03*
D21*
X176801531Y-50910322D03*
D10*
X176801532Y-48370321D03*
X176801531Y-45830322D03*
D21*
X176801531Y-45830322D03*
D10*
X174261532Y-63610320D03*
X174261532Y-61070320D03*
X174261531Y-58530323D03*
X174261532Y-55990322D03*
X174261534Y-53450321D03*
X174261532Y-50910321D03*
D21*
X174261532Y-50910321D03*
D10*
X174261531Y-48370323D03*
X174261531Y-45830322D03*
D21*
X174261531Y-45830322D03*
D10*
X171721532Y-63610322D03*
X171721533Y-61070320D03*
X171721532Y-58530322D03*
X171721531Y-55990323D03*
X171721532Y-53450321D03*
X171721532Y-50910321D03*
D21*
X171721532Y-50910321D03*
D10*
X171721532Y-48370321D03*
X171721532Y-45830321D03*
D21*
X171721532Y-45830321D03*
D10*
X169181533Y-63610322D03*
X169181533Y-61070321D03*
X169181534Y-58530322D03*
X169181533Y-55990321D03*
X169181531Y-53450320D03*
X169181534Y-50910321D03*
D21*
X169181534Y-50910321D03*
D10*
X169181532Y-48370321D03*
X169181533Y-45830320D03*
D21*
X169181533Y-45830320D03*
D10*
X166641532Y-63610320D03*
X166641533Y-61070321D03*
X166641532Y-58530320D03*
X166641531Y-55990321D03*
X166641534Y-53450321D03*
X166641533Y-50910321D03*
D21*
X166641533Y-50910321D03*
D10*
X166641533Y-48370320D03*
X166641533Y-45830320D03*
D21*
X166641533Y-45830320D03*
D10*
X164101531Y-63610322D03*
X164101533Y-61070321D03*
X164101533Y-58530322D03*
X164101534Y-55990322D03*
X164101532Y-53450321D03*
X164101531Y-50910319D03*
D21*
X164101531Y-50910319D03*
D10*
X164101533Y-48370320D03*
X164101532Y-45830321D03*
D21*
X164101532Y-45830321D03*
D10*
X161561532Y-63610321D03*
X161561531Y-61070320D03*
X161561533Y-58530321D03*
X161561533Y-55990322D03*
X161561530Y-53450321D03*
X161561532Y-50910321D03*
D21*
X161561532Y-50910321D03*
D10*
X161561532Y-48370321D03*
X161561533Y-45830322D03*
D21*
X161561533Y-45830322D03*
D10*
X159021532Y-63610321D03*
X159021530Y-61070321D03*
X159021532Y-58530321D03*
X159021534Y-55990320D03*
X159021533Y-53450322D03*
X159021532Y-50910321D03*
D21*
X159021532Y-50910321D03*
D10*
X159021532Y-48370321D03*
X159021532Y-45830321D03*
D21*
X159021532Y-45830321D03*
D10*
X156481531Y-63610320D03*
X156481533Y-61070319D03*
X156481533Y-58530323D03*
X156481532Y-55990321D03*
X156481533Y-53450322D03*
X156481533Y-50910322D03*
D21*
X156481533Y-50910322D03*
D10*
X156481533Y-48370321D03*
X156481532Y-45830321D03*
D21*
X156481532Y-45830321D03*
D10*
X153941531Y-63610320D03*
X153941532Y-61070321D03*
X153941533Y-58530322D03*
X153941533Y-55990322D03*
X153941532Y-53450321D03*
X153941531Y-50910322D03*
D21*
X153941531Y-50910322D03*
D10*
X153941532Y-48370321D03*
X153941532Y-45830321D03*
D21*
X153941532Y-45830321D03*
D10*
X151401530Y-63610320D03*
X151401532Y-61070321D03*
X151401532Y-58530321D03*
X151401533Y-55990322D03*
X151401533Y-53450322D03*
X151401532Y-50910321D03*
D21*
X151401532Y-50910321D03*
D10*
X151401532Y-48370321D03*
X151401532Y-45830322D03*
D21*
X151401532Y-45830322D03*
D10*
X148861532Y-63610321D03*
X148861532Y-61070321D03*
X148861532Y-58530323D03*
X148861532Y-55990322D03*
X148861534Y-53450320D03*
X148861532Y-50910321D03*
D21*
X148861532Y-50910321D03*
D10*
X148861532Y-48370321D03*
X148861531Y-45830322D03*
D21*
X148861531Y-45830322D03*
D10*
X146321532Y-63610323D03*
X146321532Y-61070321D03*
X146321533Y-58530320D03*
X146321532Y-55990323D03*
X146321532Y-53450321D03*
X146321532Y-50910319D03*
D21*
X146321532Y-50910319D03*
D10*
X146321531Y-48370322D03*
X146321531Y-45830322D03*
D21*
X146321531Y-45830322D03*
D10*
X143781531Y-63610321D03*
X143781530Y-61070320D03*
X143781532Y-58530322D03*
X143781532Y-55990320D03*
X143781531Y-53450323D03*
X143781531Y-50910322D03*
D21*
X143781531Y-50910322D03*
D10*
X143781533Y-48370323D03*
X143781532Y-45830321D03*
D21*
X143781532Y-45830321D03*
D10*
X141241530Y-63610320D03*
X141241531Y-61070321D03*
X141241531Y-58530323D03*
X141241533Y-55990321D03*
X141241531Y-53450322D03*
X141241532Y-50910322D03*
D21*
X141241532Y-50910322D03*
D10*
X141241532Y-48370321D03*
X141241530Y-45830322D03*
D21*
X141241530Y-45830322D03*
D10*
X138701533Y-63610321D03*
X138701533Y-61070322D03*
X138701532Y-58530322D03*
X138701532Y-55990322D03*
X138701532Y-53450322D03*
X138701533Y-50910320D03*
D21*
X138701533Y-50910320D03*
D10*
X138701532Y-48370319D03*
X138701534Y-45830322D03*
D21*
X138701534Y-45830322D03*
D10*
X136161533Y-63610321D03*
X136161531Y-61070321D03*
X136161531Y-58530322D03*
X136161533Y-55990321D03*
X136161531Y-53450320D03*
X136161532Y-50910321D03*
D21*
X136161532Y-50910321D03*
D10*
X136161532Y-48370321D03*
X136161533Y-45830320D03*
D21*
X136161533Y-45830320D03*
D10*
X133621533Y-63610319D03*
X133621532Y-61070320D03*
X133621531Y-58530320D03*
X133621532Y-55990320D03*
X133621533Y-53450322D03*
X133621533Y-50910322D03*
D21*
X133621533Y-50910322D03*
D10*
X133621532Y-48370321D03*
X133621532Y-45830321D03*
D21*
X133621532Y-45830321D03*
D10*
X131081531Y-63610320D03*
X131081532Y-61070320D03*
X131081533Y-58530322D03*
X131081533Y-55990321D03*
X131081532Y-53450321D03*
X131081533Y-50910322D03*
D21*
X131081533Y-50910322D03*
D10*
X131081532Y-48370320D03*
X131081532Y-45830321D03*
D21*
X131081532Y-45830321D03*
D10*
X128541532Y-63610321D03*
X128541532Y-61070321D03*
X128541530Y-58530320D03*
X128541531Y-55990322D03*
X128541534Y-53450320D03*
X128541532Y-50910321D03*
D21*
X128541532Y-50910321D03*
D10*
X128541533Y-48370322D03*
X128541532Y-45830321D03*
D21*
X128541532Y-45830321D03*
D10*
X126001532Y-63610321D03*
X126001532Y-61070321D03*
X126001530Y-58530321D03*
X126001532Y-55990321D03*
X126001533Y-53450323D03*
X126001532Y-50910321D03*
D21*
X126001532Y-50910321D03*
D10*
X126001532Y-48370321D03*
X126001532Y-45830321D03*
D21*
X126001532Y-45830321D03*
D10*
X123461532Y-63610321D03*
X123461530Y-61070321D03*
X123461532Y-58530321D03*
X123461532Y-55990321D03*
X123461532Y-53450321D03*
X123461532Y-50910321D03*
D21*
X123461532Y-50910321D03*
D10*
X123461532Y-48370321D03*
X123461532Y-45830321D03*
D21*
X123461532Y-45830321D03*
D10*
X120921532Y-63610321D03*
X120921532Y-61070321D03*
X120921532Y-58530321D03*
X120921532Y-55990321D03*
X120921532Y-53450321D03*
X120921532Y-50910322D03*
D21*
X120921532Y-50910322D03*
D10*
X120921534Y-48370322D03*
X120921532Y-45830321D03*
D21*
X120921532Y-45830321D03*
D10*
X118381531Y-63610320D03*
X118381532Y-61070321D03*
X118381532Y-58530321D03*
X118381532Y-55990321D03*
X118381531Y-53450322D03*
X118381531Y-50910322D03*
D21*
X118381531Y-50910322D03*
D10*
X118381532Y-48370321D03*
X118381532Y-45830321D03*
D21*
X118381532Y-45830321D03*
%TD*%
D22*
%TO.C,REF\u002A\u002A*%
X195633421Y-29943900D03*
X195633421Y-31213900D03*
X195633421Y-32483900D03*
X195633421Y-33753900D03*
X195633421Y-35023900D03*
X195633421Y-36293900D03*
X195633421Y-41373900D03*
X195633421Y-42643900D03*
X195633421Y-43913900D03*
X195633421Y-45183900D03*
X195633421Y-46453900D03*
X195633421Y-47723900D03*
X195633421Y-52803900D03*
X195633421Y-54073900D03*
X195633421Y-55343900D03*
X195633421Y-56613900D03*
X195633421Y-57883900D03*
X195633421Y-59153900D03*
D23*
X197446303Y-36928898D03*
D24*
X197446303Y-38198899D03*
X197446303Y-39468900D03*
D25*
X197446303Y-40738899D03*
D22*
X197538421Y-35658900D03*
X197538421Y-42008900D03*
X197538421Y-47088900D03*
D23*
X197538421Y-48358899D03*
D24*
X197538421Y-49628900D03*
X197538421Y-50898901D03*
D25*
X197538421Y-52168900D03*
D22*
X197538421Y-53438900D03*
%TD*%
D26*
%TO.C,REF\u002A\u002A*%
X112894949Y-36305321D03*
X112894949Y-41385321D03*
X112894949Y-47735321D03*
X112894949Y-52815321D03*
D27*
X112987067Y-32495321D03*
X112987067Y-33765322D03*
D28*
X112987067Y-35035323D03*
D29*
X112987067Y-42655322D03*
D27*
X112987067Y-43925321D03*
X112987067Y-45195322D03*
D28*
X112987067Y-46465323D03*
D29*
X112987067Y-54085322D03*
D27*
X112987067Y-55355321D03*
X112987067Y-56625322D03*
D29*
X113021949Y-29955321D03*
D27*
X113021949Y-31225321D03*
X113021949Y-57895321D03*
D28*
X113021949Y-59165321D03*
D22*
X114926949Y-35670321D03*
X114926949Y-36940321D03*
X114926949Y-38210321D03*
X114926949Y-39480321D03*
X114926949Y-40750321D03*
X114926949Y-42020321D03*
X114926949Y-47100321D03*
X114926949Y-48370321D03*
X114926949Y-49640321D03*
X114926949Y-50910321D03*
X114926949Y-52180321D03*
X114926949Y-53450321D03*
%TD*%
D30*
%TO.C,J2*%
X176908253Y-69088001D03*
%TD*%
%TO.C,J4*%
X133474253Y-69088001D03*
%TD*%
D31*
%TO.C,U3*%
X136141253Y-21285201D03*
X137411253Y-21285201D03*
X138681253Y-21285201D03*
X139951253Y-21285201D03*
X141221253Y-21285201D03*
X142491253Y-21285201D03*
X143761253Y-21285201D03*
X145031253Y-21285201D03*
X146301253Y-21285201D03*
X147571253Y-21285201D03*
X148841253Y-21285201D03*
X150111253Y-21285201D03*
X151381253Y-21285201D03*
X152651253Y-21285201D03*
X153921253Y-21285201D03*
X156461253Y-21285201D03*
X157731253Y-21285201D03*
X159001253Y-21285201D03*
X160271253Y-21285201D03*
X161541253Y-21285201D03*
X162811253Y-21285201D03*
X164081253Y-21285201D03*
X165351253Y-21285201D03*
X166621253Y-21285201D03*
X167891253Y-21285201D03*
X169161253Y-21285201D03*
X170431253Y-21285201D03*
X171701253Y-21285201D03*
X172971253Y-21285201D03*
X174241253Y-21285201D03*
X134871253Y-21285201D03*
X133601253Y-21285201D03*
X155191253Y-21285201D03*
X175511253Y-21285201D03*
X176781253Y-21285201D03*
%TD*%
D32*
%TO.C,U1*%
X136141252Y-69977000D03*
D33*
X137411252Y-69977001D03*
D34*
X138681252Y-69977001D03*
D35*
X139951252Y-69977000D03*
D36*
X141221252Y-69977001D03*
D37*
X142491252Y-69976999D03*
D38*
X143761252Y-69977001D03*
D39*
X145031252Y-69977001D03*
D40*
X146301252Y-69977000D03*
D41*
X147571252Y-69977001D03*
D42*
X148841252Y-69977001D03*
D43*
X150111252Y-69977001D03*
D44*
X151381252Y-69977001D03*
D45*
X152651252Y-69977000D03*
D46*
X153921252Y-69977001D03*
D47*
X156461252Y-69977000D03*
D48*
X157731252Y-69977001D03*
D49*
X159001252Y-69977000D03*
D50*
X160271252Y-69977001D03*
D51*
X161541252Y-69977001D03*
D52*
X162811252Y-69977000D03*
D53*
X164081252Y-69977001D03*
D54*
X165351252Y-69977001D03*
D55*
X166621252Y-69977001D03*
D56*
X167891252Y-69977001D03*
D57*
X169161252Y-69977000D03*
D58*
X170431252Y-69977001D03*
D59*
X171701252Y-69977001D03*
D60*
X172971252Y-69976999D03*
D61*
X174241252Y-69977001D03*
D62*
X134845852Y-70671000D03*
D63*
X133575852Y-70721000D03*
D64*
X155191252Y-68630799D03*
D65*
X175536653Y-70719999D03*
D66*
X176796653Y-70700000D03*
%TD*%
D30*
%TO.C,J5*%
X155191253Y-69088001D03*
%TD*%
%TO.C,J3*%
X134998253Y-69088001D03*
%TD*%
%TO.C,J1*%
X175384253Y-69088001D03*
%TD*%
M02*
