M48
; DRILL file KiCad 10.0.4 date 2026-07-15T21:07:59
; FORMAT={-:-/ absolute / metric / decimal}
; #@! TF.CreationDate,2026-07-15T21:07:59-07:00
; #@! TF.GenerationSoftware,Kicad,Pcbnew,10.0.4
; #@! TF.FileFunction,Plated,1,2,PTH
FMAT,2
METRIC
; #@! TA.AperFunction,Plated,PTH,ViaDrill
T1C0.200
; #@! TA.AperFunction,Plated,PTH,ComponentDrill
T2C0.630
; #@! TA.AperFunction,Plated,PTH,ComponentDrill
T3C0.650
; #@! TA.AperFunction,Plated,PTH,ComponentDrill
T4C0.750
; #@! TA.AperFunction,Plated,PTH,ComponentDrill
T5C0.800
; #@! TA.AperFunction,Plated,PTH,ComponentDrill
T6C1.000
%
G90
G05
T1
X75.841Y-76.31
X78.377Y-76.31
X79.647Y-53.577
X79.647Y-62.975
X80.917Y-76.31
X82.187Y-62.975
X83.457Y-76.31
X85.997Y-76.31
X88.169Y-62.862
X88.283Y-50.529
X88.537Y-76.31
X89.108Y-63.674
X89.172Y-49.64
X91.077Y-76.31
X93.617Y-76.31
X94.887Y-50.148
X94.887Y-62.848
X96.157Y-76.31
X96.411Y-50.275
X96.614Y-62.848
X97.78Y-62.876
X98.062Y-50.91
X98.697Y-76.31
X101.237Y-76.31
X103.777Y-76.31
X105.428Y-50.402
X105.428Y-62.975
X106.317Y-76.31
X107.587Y-50.402
X107.587Y-62.975
X108.857Y-76.31
X111.041Y-76.691
X111.397Y-77.326
X113.302Y-36.316
X114.449Y-36.309
X114.572Y-34.654
X115.207Y-51.037
X115.207Y-62.467
X117.239Y-62.213
X117.366Y-50.91
X117.95Y-79.282
X118.509Y-78.215
X119.652Y-78.85
X121.548Y-78.207
X124.097Y-76.945
X124.605Y-50.783
X124.605Y-62.34
X125.875Y-51.545
X125.875Y-62.213
X126.637Y-76.31
X128.669Y-50.529
X128.923Y-62.721
X129.177Y-76.31
X129.812Y-49.64
X131.691Y-61.578
X131.717Y-64.245
X131.717Y-76.31
X133.291Y-51.215
X134.257Y-63.61
X134.257Y-76.31
X134.828Y-61.769
X135.146Y-51.799
X135.527Y-50.275
X135.781Y-61.451
X136.543Y-51.037
X136.543Y-51.799
X136.797Y-63.61
X136.797Y-76.31
X139.337Y-62.975
X139.337Y-76.31
X140.607Y-49.64
X141.877Y-48.751
X141.877Y-63.61
X141.877Y-76.31
X143.782Y-64.245
X144.417Y-48.497
X144.417Y-76.31
X146.322Y-64.245
X146.957Y-48.497
X146.957Y-76.31
X147.338Y-52.294
X147.338Y-53.374
X147.338Y-54.39
X147.338Y-55.406
X147.363Y-60.334
X147.456Y-59.383
X147.465Y-56.371
X147.465Y-57.387
X147.465Y-58.403
X147.566Y-61.426
X147.716Y-52.915
X147.719Y-53.914
X147.719Y-54.898
X147.719Y-55.863
X147.719Y-56.879
X147.719Y-57.895
X147.719Y-58.911
X147.719Y-59.877
X147.719Y-64.245
X147.728Y-60.847
X149.243Y-48.751
X149.497Y-62.975
X149.497Y-76.31
X152.037Y-76.31
T2
X126.765Y-55.893
X126.848Y-57.686
X127.528Y-54.268
X127.754Y-59.239
X128.959Y-53.18
X129.276Y-60.192
X130.73Y-52.883
X131.067Y-60.328
X132.437Y-53.442
X132.716Y-59.615
X133.687Y-54.732
X133.846Y-58.216
X134.196Y-56.457
T3
X151.071Y-53.45
X151.071Y-52.18
X151.071Y-54.72
X151.071Y-55.99
X151.071Y-58.53
X151.071Y-59.8
X151.071Y-61.07
X151.071Y-57.26
X152.341Y-52.18
X152.341Y-53.45
X152.341Y-54.72
X152.341Y-57.26
X152.341Y-58.53
X152.341Y-59.8
X152.341Y-61.07
X152.341Y-55.99
T4
X128.542Y-55.99
X129.812Y-54.72
X129.812Y-57.26
X131.082Y-55.99
X131.082Y-58.53
X132.352Y-57.26
T5
X92.22Y-81.119
X93.744Y-81.119
X113.937Y-81.119
X134.13Y-81.119
X135.654Y-81.119
T6
X77.107Y-37.697
X77.107Y-40.11
X77.107Y-42.65
X77.107Y-45.19
X77.107Y-47.73
X77.107Y-65.515
X77.107Y-68.055
X77.107Y-70.595
X77.107Y-73.135
X77.107Y-75.548
X79.647Y-37.443
X79.647Y-40.11
X79.647Y-42.65
X79.647Y-45.19
X79.647Y-47.735
X79.647Y-65.51
X79.647Y-68.055
X79.647Y-70.595
X79.647Y-73.135
X79.647Y-75.802
X82.187Y-37.697
X82.187Y-40.11
X82.187Y-42.65
X82.187Y-45.19
X82.187Y-47.735
X82.187Y-65.51
X82.187Y-68.055
X82.187Y-70.595
X82.187Y-73.135
X82.187Y-75.548
X84.727Y-37.443
X84.727Y-40.11
X84.727Y-42.65
X84.727Y-45.19
X84.727Y-47.735
X84.727Y-65.51
X84.727Y-68.055
X84.727Y-70.595
X84.727Y-73.135
X84.727Y-75.802
X87.267Y-37.697
X87.267Y-40.105
X87.267Y-42.645
X87.267Y-45.185
X87.267Y-47.73
X87.267Y-65.515
X87.267Y-68.06
X87.267Y-70.6
X87.267Y-73.14
X87.267Y-75.548
X89.807Y-37.443
X89.807Y-40.11
X89.807Y-42.65
X89.807Y-45.19
X89.807Y-47.735
X89.807Y-65.51
X89.807Y-68.055
X89.807Y-70.595
X89.807Y-73.135
X89.807Y-75.802
X92.347Y-37.697
X92.347Y-40.11
X92.347Y-42.65
X92.347Y-45.19
X92.347Y-47.735
X92.347Y-65.51
X92.347Y-68.055
X92.347Y-70.595
X92.347Y-73.135
X92.347Y-75.548
X94.887Y-37.443
X94.887Y-40.11
X94.887Y-42.65
X94.887Y-45.19
X94.887Y-47.735
X94.887Y-65.51
X94.887Y-68.055
X94.887Y-70.595
X94.887Y-73.135
X94.887Y-75.802
X97.427Y-37.697
X97.427Y-40.11
X97.427Y-42.65
X97.427Y-45.19
X97.427Y-47.735
X97.427Y-65.51
X97.427Y-68.055
X97.427Y-70.595
X97.427Y-73.135
X97.427Y-75.548
X99.967Y-37.443
X99.967Y-40.105
X99.967Y-42.645
X99.967Y-45.185
X99.967Y-47.73
X99.967Y-47.73
X99.967Y-65.515
X99.967Y-65.515
X99.967Y-68.06
X99.967Y-70.6
X99.967Y-73.14
X99.967Y-75.802
X102.507Y-37.697
X102.507Y-40.11
X102.507Y-42.65
X102.507Y-45.19
X102.507Y-47.735
X102.507Y-65.51
X102.507Y-68.055
X102.507Y-70.595
X102.507Y-73.135
X102.507Y-75.548
X105.047Y-37.443
X105.047Y-40.11
X105.047Y-42.65
X105.047Y-45.19
X105.047Y-47.735
X105.047Y-65.51
X105.047Y-68.055
X105.047Y-70.595
X105.047Y-73.135
X105.047Y-75.802
X107.587Y-37.697
X107.587Y-40.11
X107.587Y-42.65
X107.587Y-45.19
X107.587Y-47.735
X107.587Y-65.51
X107.587Y-68.055
X107.587Y-70.595
X107.587Y-73.135
X107.587Y-75.548
X110.127Y-37.443
X110.127Y-40.11
X110.127Y-42.65
X110.127Y-45.19
X110.127Y-47.735
X110.127Y-65.51
X110.127Y-68.055
X110.127Y-70.595
X110.127Y-73.135
X110.127Y-75.802
X112.667Y-37.697
X112.667Y-40.105
X112.667Y-42.645
X112.667Y-45.185
X112.667Y-47.73
X112.667Y-65.515
X112.667Y-68.06
X112.667Y-70.6
X112.667Y-73.14
X112.667Y-75.548
X115.207Y-37.443
X115.207Y-40.11
X115.207Y-42.65
X115.207Y-45.19
X115.207Y-47.735
X115.207Y-65.51
X115.207Y-68.055
X115.207Y-70.595
X115.207Y-73.135
X115.207Y-75.802
X117.747Y-37.697
X117.747Y-40.11
X117.747Y-42.65
X117.747Y-45.19
X117.747Y-47.735
X117.747Y-65.51
X117.747Y-68.055
X117.747Y-70.595
X117.747Y-73.135
X117.747Y-75.548
X120.287Y-37.443
X120.287Y-40.11
X120.287Y-42.65
X120.287Y-45.19
X120.287Y-47.735
X120.287Y-65.51
X120.287Y-68.055
X120.287Y-70.595
X120.287Y-73.135
X120.287Y-75.802
X122.827Y-37.697
X122.827Y-40.11
X122.827Y-42.65
X122.827Y-45.19
X122.827Y-47.735
X122.827Y-65.51
X122.827Y-68.055
X122.827Y-70.595
X122.827Y-73.135
X122.827Y-75.548
X125.367Y-37.443
X125.367Y-40.105
X125.367Y-42.645
X125.367Y-45.185
X125.367Y-47.73
X125.367Y-65.515
X125.367Y-68.06
X125.367Y-70.6
X125.367Y-73.14
X125.367Y-75.802
X127.907Y-37.697
X127.907Y-40.11
X127.907Y-42.65
X127.907Y-45.19
X127.907Y-47.735
X127.907Y-65.51
X127.907Y-68.055
X127.907Y-70.595
X127.907Y-73.135
X127.907Y-75.548
X130.447Y-37.443
X130.447Y-40.11
X130.447Y-42.65
X130.447Y-45.19
X130.447Y-47.735
X130.447Y-65.51
X130.447Y-68.055
X130.447Y-70.595
X130.447Y-73.135
X130.447Y-75.802
X132.987Y-37.697
X132.987Y-40.11
X132.987Y-42.65
X132.987Y-45.19
X132.987Y-47.735
X132.987Y-65.51
X132.987Y-68.055
X132.987Y-70.595
X132.987Y-73.135
X132.987Y-75.548
X135.527Y-37.443
X135.527Y-40.11
X135.527Y-42.65
X135.527Y-45.19
X135.527Y-47.735
X135.527Y-65.51
X135.527Y-68.055
X135.527Y-70.595
X135.527Y-73.135
X135.527Y-75.802
X138.067Y-37.697
X138.067Y-40.105
X138.067Y-42.645
X138.067Y-45.185
X138.067Y-47.73
X138.067Y-65.515
X138.067Y-68.06
X138.067Y-70.6
X138.067Y-73.14
X138.067Y-75.548
X140.607Y-37.443
X140.607Y-40.11
X140.607Y-42.65
X140.607Y-45.19
X140.607Y-47.735
X140.607Y-65.51
X140.607Y-68.055
X140.607Y-70.595
X140.607Y-73.135
X140.607Y-75.802
X143.147Y-37.697
X143.147Y-40.11
X143.147Y-42.65
X143.147Y-45.19
X143.147Y-47.735
X143.147Y-65.51
X143.147Y-68.055
X143.147Y-70.595
X143.147Y-73.135
X143.147Y-75.548
X145.687Y-37.443
X145.687Y-40.11
X145.687Y-42.65
X145.687Y-45.19
X145.687Y-47.735
X145.687Y-65.51
X145.687Y-68.055
X145.687Y-70.595
X145.687Y-73.135
X145.687Y-75.802
X148.227Y-37.697
X148.227Y-40.11
X148.227Y-42.65
X148.227Y-45.19
X148.227Y-47.735
X148.227Y-65.51
X148.227Y-68.055
X148.227Y-70.595
X148.227Y-73.135
X148.227Y-75.548
X150.767Y-37.443
X150.767Y-40.105
X150.767Y-42.645
X150.767Y-45.185
X150.767Y-47.73
X150.767Y-65.515
X150.767Y-68.06
X150.767Y-70.6
X150.767Y-73.14
X150.767Y-75.802
M30
