M48
; DRILL file KiCad 10.0.4 date 2026-07-15T16:18:33
; FORMAT={-:-/ absolute / metric / decimal}
; #@! TF.CreationDate,2026-07-15T16:18:33-07:00
; #@! TF.GenerationSoftware,Kicad,Pcbnew,10.0.4
; #@! TF.FileFunction,Plated,1,4,PTH
FMAT,2
METRIC
; #@! TA.AperFunction,Plated,PTH,ViaDrill
T1C0.300
; #@! TA.AperFunction,Plated,PTH,ComponentDrill
T2C0.762
; #@! TA.AperFunction,Plated,PTH,ComponentDrill
T3C0.800
; #@! TA.AperFunction,Plated,PTH,ComponentDrill
T4C1.000
; #@! TA.AperFunction,Plated,PTH,ComponentDrill
T5C1.200
; #@! TA.AperFunction,Plated,PTH,ComponentDrill
T6C3.950
%
G90
G05
T1
X114.678Y-37.201
X116.38Y-40.63
X116.786Y-65.115
X117.269Y-59.629
X118.717Y-56.454
X121.384Y-49.545
X122.044Y-46.98
X122.171Y-58.689
X122.603Y-42.586
X124.471Y-45.384
X124.585Y-50.604
X124.914Y-66.487
X127.581Y-29.784
X127.632Y-43.754
X127.683Y-49.418
X127.759Y-53.025
X129.207Y-29.428
X129.664Y-53.66
X129.791Y-43.246
X130.713Y-29.111
X131.569Y-42.611
X131.696Y-54.371
X132.992Y-55.184
X133.042Y-70.145
X133.474Y-41.976
X134.439Y-70.068
X135.379Y-41.214
X135.379Y-55.692
X136.243Y-44.643
X136.268Y-50.79
X136.649Y-69.332
X137.157Y-56.327
X137.284Y-40.706
X137.97Y-44.033
X137.97Y-69.433
X139.189Y-40.071
X139.189Y-56.962
X139.189Y-69.433
X139.392Y-43.373
X140.256Y-69.433
X141.018Y-42.738
X141.094Y-57.597
X141.221Y-39.436
X141.628Y-69.433
X141.958Y-51.145
X142.059Y-45.684
X142.11Y-37.785
X142.898Y-69.433
X142.974Y-42.103
X142.999Y-58.232
X144.066Y-69.484
X144.472Y-41.468
X144.708Y-58.759
X144.777Y-37.912
X145.463Y-69.383
X145.953Y-40.902
X146.656Y-69.282
X146.809Y-59.375
X146.936Y-37.531
X147.317Y-48.453
X147.577Y-40.328
X147.927Y-69.459
X148.145Y-56.2
X149.095Y-41.849
X149.121Y-66.995
X149.139Y-69.522
X149.222Y-40.706
X149.461Y-37.405
X149.857Y-55.438
X150.391Y-69.459
X150.693Y-59.248
X151.711Y-69.357
X151.991Y-48.453
X152.931Y-69.357
X153.032Y-37.912
X153.159Y-67.428
X153.87Y-68.824
X154.011Y-66.753
X154.066Y-56.69
X154.175Y-40.706
X154.886Y-57.343
X155.191Y-40.833
X155.191Y-48.453
X155.242Y-31.638
X156.614Y-68.849
X157.412Y-40.959
X157.477Y-67.884
X157.528Y-69.383
X157.706Y-40.096
X157.927Y-48.37
X157.934Y-38.903
X158.053Y-43.043
X158.849Y-69.357
X159.001Y-59.756
X159.077Y-54.498
X159.103Y-48.758
X159.204Y-56.403
X159.23Y-42.484
X159.458Y-39.131
X159.636Y-66.665
X160.093Y-69.459
X160.154Y-41.228
X161.057Y-39.286
X161.305Y-59.584
X161.414Y-69.459
X161.646Y-55.579
X162.125Y-56.454
X162.252Y-38.979
X162.481Y-55.692
X162.684Y-37.785
X162.76Y-69.433
X162.964Y-56.454
X163.294Y-50.333
X163.319Y-46.65
X163.363Y-58.551
X163.726Y-57.368
X163.98Y-69.408
X164.698Y-37.788
X164.843Y-50.739
X165.003Y-58.359
X165.199Y-69.433
X165.326Y-44.567
X165.79Y-43.907
X166.113Y-37.785
X166.469Y-69.408
X166.774Y-44.77
X166.875Y-39.436
X167.035Y-43.627
X167.383Y-57.978
X167.441Y-51.882
X167.713Y-69.433
X167.891Y-48.834
X168.044Y-44.16
X168.755Y-43.576
X168.933Y-69.484
X169.034Y-39.69
X169.796Y-43.754
X169.88Y-58.105
X169.923Y-51.882
X169.999Y-47.31
X170.228Y-69.433
X170.246Y-44.532
X171.066Y-52.009
X171.081Y-40.198
X171.32Y-43.881
X171.828Y-49.469
X171.828Y-57.343
X172.772Y-51.993
X172.781Y-46.103
X172.844Y-41.087
X172.971Y-56.073
X173.606Y-45.024
X174.11Y-52.011
X174.317Y-39.639
X174.368Y-41.976
X174.495Y-55.057
X175.511Y-52.011
X175.562Y-44.668
X176.146Y-70.043
X176.273Y-42.985
X176.4Y-54.422
X176.654Y-44.643
X177.035Y-52.511
X177.797Y-45.151
X178.178Y-43.246
X178.305Y-54.041
X181.099Y-30.038
X181.226Y-28.387
X181.734Y-42.357
X184.274Y-42.357
X184.274Y-53.787
X184.782Y-48.453
X185.036Y-54.549
X185.671Y-55.057
X186.306Y-56.962
X186.307Y-42.993
X186.56Y-58.867
X187.068Y-53.787
X187.449Y-50.485
X187.507Y-49.596
X187.703Y-59.07
X190.37Y-48.58
X190.878Y-39.563
X191.386Y-38.547
X191.386Y-56.454
X191.513Y-65.852
X192.91Y-39.182
X195.196Y-39.563
T2
X116.456Y-47.183
X116.456Y-49.723
X193.926Y-47.183
X193.926Y-49.723
T3
X133.474Y-69.088
X134.998Y-69.088
X155.191Y-69.088
X175.384Y-69.088
X176.908Y-69.088
T4
X118.361Y-33.213
X118.361Y-35.753
X118.361Y-61.153
X118.361Y-63.693
X120.901Y-33.213
X120.901Y-35.753
X120.901Y-61.153
X120.901Y-63.693
X123.441Y-33.213
X123.441Y-35.753
X123.441Y-61.153
X123.441Y-63.693
X125.981Y-33.213
X125.981Y-35.753
X125.981Y-61.153
X125.981Y-63.693
X128.521Y-33.213
X128.521Y-35.753
X128.521Y-61.153
X128.521Y-63.693
X131.061Y-33.213
X131.061Y-35.753
X131.061Y-61.153
X131.061Y-63.693
X133.601Y-33.213
X133.601Y-35.753
X133.601Y-61.153
X133.601Y-63.693
X136.141Y-33.213
X136.141Y-35.753
X136.141Y-61.153
X136.141Y-63.693
X138.681Y-33.213
X138.681Y-35.753
X138.681Y-61.153
X138.681Y-63.693
X141.221Y-33.213
X141.221Y-35.753
X141.221Y-61.153
X141.221Y-63.693
X143.761Y-33.213
X143.761Y-35.753
X143.761Y-61.153
X143.761Y-63.693
X146.301Y-33.213
X146.301Y-35.753
X146.301Y-61.153
X146.301Y-63.693
X148.841Y-33.213
X148.841Y-35.753
X148.841Y-61.153
X148.841Y-63.693
X151.381Y-33.213
X151.381Y-35.753
X151.381Y-61.153
X151.381Y-63.693
X153.921Y-33.213
X153.921Y-35.753
X153.921Y-61.153
X153.921Y-63.693
X156.461Y-33.213
X156.461Y-35.753
X156.461Y-61.153
X156.461Y-63.693
X159.001Y-33.213
X159.001Y-35.753
X159.001Y-61.153
X159.001Y-63.693
X161.541Y-33.213
X161.541Y-35.753
X161.541Y-61.153
X161.541Y-63.693
X164.081Y-33.213
X164.081Y-35.753
X164.081Y-61.153
X164.081Y-63.693
X166.621Y-33.213
X166.621Y-35.753
X166.621Y-61.153
X166.621Y-63.693
X169.161Y-33.213
X169.161Y-35.753
X169.161Y-61.153
X169.161Y-63.693
X171.701Y-33.213
X171.701Y-35.753
X171.701Y-61.153
X171.701Y-63.693
X174.241Y-33.213
X174.241Y-35.753
X174.241Y-61.153
X174.241Y-63.693
X176.781Y-33.213
X176.781Y-35.753
X176.781Y-61.153
X176.781Y-63.693
X179.321Y-33.213
X179.321Y-35.753
X179.321Y-61.153
X179.321Y-63.693
X181.861Y-33.213
X181.861Y-35.753
X181.861Y-61.153
X181.861Y-63.693
X184.401Y-33.213
X184.401Y-35.753
X184.401Y-61.153
X184.401Y-63.693
X186.941Y-33.213
X186.941Y-35.753
X186.941Y-61.153
X186.941Y-63.693
X189.481Y-33.213
X189.481Y-35.753
X189.481Y-61.153
X189.481Y-63.693
X192.021Y-33.213
X192.021Y-35.753
X192.021Y-61.153
X192.021Y-63.693
T5
X115.186Y-47.183
X115.186Y-49.723
X195.196Y-47.183
X195.196Y-49.723
T6
X116.456Y-44.008
X116.456Y-52.898
X193.926Y-44.003
X193.927Y-52.898
M30
