%TF.GenerationSoftware,KiCad,Pcbnew,10.0.4*%
%TF.CreationDate,2026-07-15T16:18:33-07:00*%
%TF.ProjectId,WaferSpaceCOB,57616665-7253-4706-9163-65434f422e6b,rev?*%
%TF.SameCoordinates,Original*%
%TF.FileFunction,Drillmap*%
%TF.FilePolarity,Positive*%
%FSLAX45Y45*%
G04 Gerber Fmt 4.5, Leading zero omitted, Abs format (unit mm)*
G04 Created by KiCad (PCBNEW 10.0.4) date 2026-07-15 16:18:33*
%MOMM*%
%LPD*%
G01*
G04 APERTURE LIST*
%ADD10C,0.050000*%
%ADD11C,0.200000*%
G04 APERTURE END LIST*
D10*
X11394404Y-3132456D02*
G75*
G02*
X11411414Y-3072058I105846J2784D01*
G01*
X19632381Y-3072402D02*
G75*
G02*
X19649125Y-3131960I-90871J-57679D01*
G01*
X18568125Y-2799300D02*
X19344332Y-2799300D01*
X12979125Y-6870700D02*
X11698205Y-6870700D01*
X19481563Y-2879443D02*
X19632382Y-3072403D01*
X11698205Y-6870700D02*
G75*
G02*
X11560995Y-6790598I6645J168950D01*
G01*
X11394404Y-3132456D02*
X11393404Y-6555136D01*
X11410148Y-6597597D02*
G75*
G02*
X11393405Y-6555146I66072J50587D01*
G01*
X11561973Y-2879435D02*
G75*
G02*
X11699210Y-2799301I143887J-88836D01*
G01*
X12472125Y-2799300D02*
X11699210Y-2799300D01*
X19480556Y-6790564D02*
X19631463Y-6597493D01*
X18059125Y-6870700D02*
X19343297Y-6870700D01*
X19649125Y-3131960D02*
X19648127Y-6555150D01*
X19344332Y-2799300D02*
G75*
G02*
X19481566Y-2879441I-6652J-168961D01*
G01*
X11561973Y-2879435D02*
X11411416Y-3072060D01*
X11560998Y-6790596D02*
X11410148Y-6597597D01*
X19648127Y-6555151D02*
G75*
G02*
X19631462Y-6597492I-82907J8181D01*
G01*
X19480556Y-6790564D02*
G75*
G02*
X19343297Y-6870705I-143886J88824D01*
G01*
X18388883Y-2680000D02*
G75*
G02*
X18382136Y-2696132I-22660J0D01*
G01*
X18366023Y-2631740D02*
G75*
G02*
X18388883Y-2654600I0J-22860D01*
G01*
X18353823Y-2799300D02*
G75*
G02*
X18330896Y-2752197I-10J29126D01*
G01*
X17817316Y-2752197D02*
G75*
G02*
X17794389Y-2799300I-22917J-17976D01*
G01*
X17766075Y-2696132D02*
G75*
G02*
X17759329Y-2680000I15914J16132D01*
G01*
X17759329Y-2654600D02*
G75*
G02*
X17782189Y-2631740I22860J0D01*
G01*
X13283975Y-2679897D02*
G75*
G02*
X13277228Y-2696029I-22660J0D01*
G01*
X13261115Y-2631637D02*
G75*
G02*
X13283975Y-2654497I0J-22860D01*
G01*
X13248915Y-2799197D02*
G75*
G02*
X13225987Y-2752094I-10J29126D01*
G01*
X12708752Y-2752197D02*
G75*
G02*
X12685825Y-2799300I-22917J-17976D01*
G01*
X12657512Y-2696132D02*
G75*
G02*
X12650765Y-2680000I15914J16132D01*
G01*
X12650765Y-2654600D02*
G75*
G02*
X12673625Y-2631740I22860J0D01*
G01*
X18568125Y-2799300D02*
X18354653Y-2799300D01*
X18388883Y-2680000D02*
X18388883Y-2654600D01*
X18366023Y-2631740D02*
X18074049Y-2631745D01*
X18330972Y-2752100D02*
X18382137Y-2696131D01*
X18074049Y-2631745D02*
X17782189Y-2631740D01*
X17817239Y-2752100D02*
X17766075Y-2696131D01*
X17759329Y-2680000D02*
X17759329Y-2654600D01*
X15520239Y-2799385D02*
X17794400Y-2799300D01*
X15520239Y-2799385D02*
X13248915Y-2799197D01*
X13283975Y-2679897D02*
X13283975Y-2654497D01*
X13226064Y-2751997D02*
X13277229Y-2696028D01*
X12966428Y-2631745D02*
X13261115Y-2631637D01*
X12708676Y-2752100D02*
X12657511Y-2696131D01*
X12673625Y-2631740D02*
X12966428Y-2631745D01*
X12650765Y-2680000D02*
X12650765Y-2654600D01*
X12472125Y-2799300D02*
X12685825Y-2799300D01*
X18059125Y-6870700D02*
X17792425Y-6870700D01*
X17792425Y-7556500D02*
X17792425Y-6870700D01*
X17779725Y-7632700D02*
X17792425Y-7556500D01*
X13258525Y-7632700D02*
X17779725Y-7632700D01*
X13245825Y-7556500D02*
X13258525Y-7632700D01*
X13245825Y-7556500D02*
X13245825Y-6870700D01*
X12979125Y-6870700D02*
X13245825Y-6870700D01*
D11*
X11651680Y-7946684D02*
X11651680Y-7746684D01*
X11651680Y-7746684D02*
X11699299Y-7746684D01*
X11699299Y-7746684D02*
X11727871Y-7756208D01*
X11727871Y-7756208D02*
X11746918Y-7775255D01*
X11746918Y-7775255D02*
X11756442Y-7794303D01*
X11756442Y-7794303D02*
X11765966Y-7832398D01*
X11765966Y-7832398D02*
X11765966Y-7860970D01*
X11765966Y-7860970D02*
X11756442Y-7899065D01*
X11756442Y-7899065D02*
X11746918Y-7918112D01*
X11746918Y-7918112D02*
X11727871Y-7937160D01*
X11727871Y-7937160D02*
X11699299Y-7946684D01*
X11699299Y-7946684D02*
X11651680Y-7946684D01*
X11851680Y-7946684D02*
X11851680Y-7813350D01*
X11851680Y-7851446D02*
X11861204Y-7832398D01*
X11861204Y-7832398D02*
X11870728Y-7822874D01*
X11870728Y-7822874D02*
X11889776Y-7813350D01*
X11889776Y-7813350D02*
X11908823Y-7813350D01*
X11975490Y-7946684D02*
X11975490Y-7813350D01*
X11975490Y-7746684D02*
X11965966Y-7756208D01*
X11965966Y-7756208D02*
X11975490Y-7765731D01*
X11975490Y-7765731D02*
X11985014Y-7756208D01*
X11985014Y-7756208D02*
X11975490Y-7746684D01*
X11975490Y-7746684D02*
X11975490Y-7765731D01*
X12099299Y-7946684D02*
X12080252Y-7937160D01*
X12080252Y-7937160D02*
X12070728Y-7918112D01*
X12070728Y-7918112D02*
X12070728Y-7746684D01*
X12204061Y-7946684D02*
X12185014Y-7937160D01*
X12185014Y-7937160D02*
X12175490Y-7918112D01*
X12175490Y-7918112D02*
X12175490Y-7746684D01*
X12432633Y-7946684D02*
X12432633Y-7746684D01*
X12432633Y-7746684D02*
X12499299Y-7889541D01*
X12499299Y-7889541D02*
X12565966Y-7746684D01*
X12565966Y-7746684D02*
X12565966Y-7946684D01*
X12746918Y-7946684D02*
X12746918Y-7841922D01*
X12746918Y-7841922D02*
X12737395Y-7822874D01*
X12737395Y-7822874D02*
X12718347Y-7813350D01*
X12718347Y-7813350D02*
X12680252Y-7813350D01*
X12680252Y-7813350D02*
X12661204Y-7822874D01*
X12746918Y-7937160D02*
X12727871Y-7946684D01*
X12727871Y-7946684D02*
X12680252Y-7946684D01*
X12680252Y-7946684D02*
X12661204Y-7937160D01*
X12661204Y-7937160D02*
X12651680Y-7918112D01*
X12651680Y-7918112D02*
X12651680Y-7899065D01*
X12651680Y-7899065D02*
X12661204Y-7880017D01*
X12661204Y-7880017D02*
X12680252Y-7870493D01*
X12680252Y-7870493D02*
X12727871Y-7870493D01*
X12727871Y-7870493D02*
X12746918Y-7860970D01*
X12842157Y-7813350D02*
X12842157Y-8013350D01*
X12842157Y-7822874D02*
X12861204Y-7813350D01*
X12861204Y-7813350D02*
X12899299Y-7813350D01*
X12899299Y-7813350D02*
X12918347Y-7822874D01*
X12918347Y-7822874D02*
X12927871Y-7832398D01*
X12927871Y-7832398D02*
X12937395Y-7851446D01*
X12937395Y-7851446D02*
X12937395Y-7908589D01*
X12937395Y-7908589D02*
X12927871Y-7927636D01*
X12927871Y-7927636D02*
X12918347Y-7937160D01*
X12918347Y-7937160D02*
X12899299Y-7946684D01*
X12899299Y-7946684D02*
X12861204Y-7946684D01*
X12861204Y-7946684D02*
X12842157Y-7937160D01*
X13023109Y-7927636D02*
X13032633Y-7937160D01*
X13032633Y-7937160D02*
X13023109Y-7946684D01*
X13023109Y-7946684D02*
X13013585Y-7937160D01*
X13013585Y-7937160D02*
X13023109Y-7927636D01*
X13023109Y-7927636D02*
X13023109Y-7946684D01*
X13023109Y-7822874D02*
X13032633Y-7832398D01*
X13032633Y-7832398D02*
X13023109Y-7841922D01*
X13023109Y-7841922D02*
X13013585Y-7832398D01*
X13013585Y-7832398D02*
X13023109Y-7822874D01*
X13023109Y-7822874D02*
X13023109Y-7841922D01*
M02*
