%TF.GenerationSoftware,KiCad,Pcbnew,10.0.4*%
%TF.CreationDate,2026-07-15T16:18:33-07:00*%
%TF.ProjectId,WaferSpaceCOB,57616665-7253-4706-9163-65434f422e6b,rev?*%
%TF.SameCoordinates,Original*%
%TF.FileFunction,Drillmap*%
%TF.FilePolarity,Positive*%
%FSLAX45Y45*%
G04 Gerber Fmt 4.5, Leading zero omitted, Abs format (unit mm)*
G04 Created by KiCad (PCBNEW 10.0.4) date 2026-07-15 16:18:33*
%MOMM*%
%LPD*%
G01*
G04 APERTURE LIST*
%ADD10C,0.050000*%
%ADD11C,0.200000*%
%ADD12C,0.100000*%
%ADD13C,0.120000*%
%ADD14C,0.395000*%
G04 APERTURE END LIST*
D10*
X11394404Y-3132456D02*
G75*
G02*
X11411414Y-3072058I105846J2784D01*
G01*
X19632381Y-3072402D02*
G75*
G02*
X19649125Y-3131960I-90871J-57679D01*
G01*
X18568125Y-2799300D02*
X19344332Y-2799300D01*
X12979125Y-6870700D02*
X11698205Y-6870700D01*
X19481563Y-2879443D02*
X19632382Y-3072403D01*
X11698205Y-6870700D02*
G75*
G02*
X11560995Y-6790598I6645J168950D01*
G01*
X11394404Y-3132456D02*
X11393404Y-6555136D01*
X11410148Y-6597597D02*
G75*
G02*
X11393405Y-6555146I66072J50587D01*
G01*
X11561973Y-2879435D02*
G75*
G02*
X11699210Y-2799301I143887J-88836D01*
G01*
X12472125Y-2799300D02*
X11699210Y-2799300D01*
X19480556Y-6790564D02*
X19631463Y-6597493D01*
X18059125Y-6870700D02*
X19343297Y-6870700D01*
X19649125Y-3131960D02*
X19648127Y-6555150D01*
X19344332Y-2799300D02*
G75*
G02*
X19481566Y-2879441I-6652J-168961D01*
G01*
X11561973Y-2879435D02*
X11411416Y-3072060D01*
X11560998Y-6790596D02*
X11410148Y-6597597D01*
X19648127Y-6555151D02*
G75*
G02*
X19631462Y-6597492I-82907J8181D01*
G01*
X19480556Y-6790564D02*
G75*
G02*
X19343297Y-6870705I-143886J88824D01*
G01*
X18388883Y-2680000D02*
G75*
G02*
X18382136Y-2696132I-22660J0D01*
G01*
X18366023Y-2631740D02*
G75*
G02*
X18388883Y-2654600I0J-22860D01*
G01*
X18353823Y-2799300D02*
G75*
G02*
X18330896Y-2752197I-10J29126D01*
G01*
X17817316Y-2752197D02*
G75*
G02*
X17794389Y-2799300I-22917J-17976D01*
G01*
X17766075Y-2696132D02*
G75*
G02*
X17759329Y-2680000I15914J16132D01*
G01*
X17759329Y-2654600D02*
G75*
G02*
X17782189Y-2631740I22860J0D01*
G01*
X13283975Y-2679897D02*
G75*
G02*
X13277228Y-2696029I-22660J0D01*
G01*
X13261115Y-2631637D02*
G75*
G02*
X13283975Y-2654497I0J-22860D01*
G01*
X13248915Y-2799197D02*
G75*
G02*
X13225987Y-2752094I-10J29126D01*
G01*
X12708752Y-2752197D02*
G75*
G02*
X12685825Y-2799300I-22917J-17976D01*
G01*
X12657512Y-2696132D02*
G75*
G02*
X12650765Y-2680000I15914J16132D01*
G01*
X12650765Y-2654600D02*
G75*
G02*
X12673625Y-2631740I22860J0D01*
G01*
X18568125Y-2799300D02*
X18354653Y-2799300D01*
X18388883Y-2680000D02*
X18388883Y-2654600D01*
X18366023Y-2631740D02*
X18074049Y-2631745D01*
X18330972Y-2752100D02*
X18382137Y-2696131D01*
X18074049Y-2631745D02*
X17782189Y-2631740D01*
X17817239Y-2752100D02*
X17766075Y-2696131D01*
X17759329Y-2680000D02*
X17759329Y-2654600D01*
X15520239Y-2799385D02*
X17794400Y-2799300D01*
X15520239Y-2799385D02*
X13248915Y-2799197D01*
X13283975Y-2679897D02*
X13283975Y-2654497D01*
X13226064Y-2751997D02*
X13277229Y-2696028D01*
X12966428Y-2631745D02*
X13261115Y-2631637D01*
X12708676Y-2752100D02*
X12657511Y-2696131D01*
X12673625Y-2631740D02*
X12966428Y-2631745D01*
X12650765Y-2680000D02*
X12650765Y-2654600D01*
X12472125Y-2799300D02*
X12685825Y-2799300D01*
X18059125Y-6870700D02*
X17792425Y-6870700D01*
X17792425Y-7556500D02*
X17792425Y-6870700D01*
X17779725Y-7632700D02*
X17792425Y-7556500D01*
X13258525Y-7632700D02*
X17779725Y-7632700D01*
X13245825Y-7556500D02*
X13258525Y-7632700D01*
X13245825Y-7556500D02*
X13245825Y-6870700D01*
X12979125Y-6870700D02*
X13245825Y-6870700D01*
D11*
D12*
X11452825Y-3705080D02*
X11482825Y-3735080D01*
X11482825Y-3705080D02*
X11452825Y-3735080D01*
X11623005Y-4047980D02*
X11653005Y-4077980D01*
X11653005Y-4047980D02*
X11623005Y-4077980D01*
X11663645Y-6496540D02*
X11693645Y-6526540D01*
X11693645Y-6496540D02*
X11663645Y-6526540D01*
X11711905Y-5947900D02*
X11741905Y-5977900D01*
X11741905Y-5947900D02*
X11711905Y-5977900D01*
X11856685Y-5630400D02*
X11886685Y-5660400D01*
X11886685Y-5630400D02*
X11856685Y-5660400D01*
X12123385Y-4939520D02*
X12153385Y-4969520D01*
X12153385Y-4939520D02*
X12123385Y-4969520D01*
X12189425Y-4682980D02*
X12219425Y-4712980D01*
X12219425Y-4682980D02*
X12189425Y-4712980D01*
X12202125Y-5853920D02*
X12232125Y-5883920D01*
X12232125Y-5853920D02*
X12202125Y-5883920D01*
X12245305Y-4243560D02*
X12275305Y-4273560D01*
X12275305Y-4243560D02*
X12245305Y-4273560D01*
X12432085Y-4523374D02*
X12462085Y-4553374D01*
X12462085Y-4523374D02*
X12432085Y-4553374D01*
X12443527Y-5045357D02*
X12473527Y-5075357D01*
X12473527Y-5045357D02*
X12443527Y-5075357D01*
X12476445Y-6633700D02*
X12506445Y-6663700D01*
X12506445Y-6633700D02*
X12476445Y-6663700D01*
X12743145Y-2963400D02*
X12773145Y-2993400D01*
X12773145Y-2963400D02*
X12743145Y-2993400D01*
X12748225Y-4360400D02*
X12778225Y-4390400D01*
X12778225Y-4360400D02*
X12748225Y-4390400D01*
X12753305Y-4926820D02*
X12783305Y-4956820D01*
X12783305Y-4926820D02*
X12753305Y-4956820D01*
X12760925Y-5287500D02*
X12790925Y-5317500D01*
X12790925Y-5287500D02*
X12760925Y-5317500D01*
X12905705Y-2927840D02*
X12935705Y-2957840D01*
X12935705Y-2927840D02*
X12905705Y-2957840D01*
X12951425Y-5351000D02*
X12981425Y-5381000D01*
X12981425Y-5351000D02*
X12951425Y-5381000D01*
X12964125Y-4309600D02*
X12994125Y-4339600D01*
X12994125Y-4309600D02*
X12964125Y-4339600D01*
X13056297Y-2896149D02*
X13086297Y-2926149D01*
X13086297Y-2896149D02*
X13056297Y-2926149D01*
X13141925Y-4246100D02*
X13171925Y-4276100D01*
X13171925Y-4246100D02*
X13141925Y-4276100D01*
X13154625Y-5422120D02*
X13184625Y-5452120D01*
X13184625Y-5422120D02*
X13154625Y-5452120D01*
X13284165Y-5503400D02*
X13314165Y-5533400D01*
X13314165Y-5503400D02*
X13284165Y-5533400D01*
X13289245Y-6999460D02*
X13319245Y-7029460D01*
X13319245Y-6999460D02*
X13289245Y-7029460D01*
X13332425Y-4182600D02*
X13362425Y-4212600D01*
X13362425Y-4182600D02*
X13332425Y-4212600D01*
X13428945Y-6991840D02*
X13458945Y-7021840D01*
X13458945Y-6991840D02*
X13428945Y-7021840D01*
X13522925Y-4106400D02*
X13552925Y-4136400D01*
X13552925Y-4106400D02*
X13522925Y-4136400D01*
X13522925Y-5554200D02*
X13552925Y-5584200D01*
X13552925Y-5554200D02*
X13522925Y-5584200D01*
X13609285Y-4449300D02*
X13639285Y-4479300D01*
X13639285Y-4449300D02*
X13609285Y-4479300D01*
X13611825Y-5063980D02*
X13641825Y-5093980D01*
X13641825Y-5063980D02*
X13611825Y-5093980D01*
X13649925Y-6918180D02*
X13679925Y-6948180D01*
X13679925Y-6918180D02*
X13649925Y-6948180D01*
X13700725Y-5617700D02*
X13730725Y-5647700D01*
X13730725Y-5617700D02*
X13700725Y-5647700D01*
X13713425Y-4055600D02*
X13743425Y-4085600D01*
X13743425Y-4055600D02*
X13713425Y-4085600D01*
X13782005Y-4388340D02*
X13812005Y-4418340D01*
X13812005Y-4388340D02*
X13782005Y-4418340D01*
X13782005Y-6928340D02*
X13812005Y-6958340D01*
X13812005Y-6928340D02*
X13782005Y-6958340D01*
X13903925Y-3992100D02*
X13933925Y-4022100D01*
X13933925Y-3992100D02*
X13903925Y-4022100D01*
X13903925Y-5681200D02*
X13933925Y-5711200D01*
X13933925Y-5681200D02*
X13903925Y-5711200D01*
X13903925Y-6928340D02*
X13933925Y-6958340D01*
X13933925Y-6928340D02*
X13903925Y-6958340D01*
X13924245Y-4322300D02*
X13954245Y-4352300D01*
X13954245Y-4322300D02*
X13924245Y-4352300D01*
X14010605Y-6928340D02*
X14040605Y-6958340D01*
X14040605Y-6928340D02*
X14010605Y-6958340D01*
X14086805Y-4258800D02*
X14116805Y-4288800D01*
X14116805Y-4258800D02*
X14086805Y-4288800D01*
X14094425Y-5744700D02*
X14124425Y-5774700D01*
X14124425Y-5744700D02*
X14094425Y-5774700D01*
X14107125Y-3928600D02*
X14137125Y-3958600D01*
X14137125Y-3928600D02*
X14107125Y-3958600D01*
X14147765Y-6928340D02*
X14177765Y-6958340D01*
X14177765Y-6928340D02*
X14147765Y-6958340D01*
X14180785Y-5099540D02*
X14210785Y-5129540D01*
X14210785Y-5099540D02*
X14180785Y-5129540D01*
X14190945Y-4553440D02*
X14220945Y-4583440D01*
X14220945Y-4553440D02*
X14190945Y-4583440D01*
X14196025Y-3763500D02*
X14226025Y-3793500D01*
X14226025Y-3763500D02*
X14196025Y-3793500D01*
X14274765Y-6928340D02*
X14304765Y-6958340D01*
X14304765Y-6928340D02*
X14274765Y-6958340D01*
X14282385Y-4195300D02*
X14312385Y-4225300D01*
X14312385Y-4195300D02*
X14282385Y-4225300D01*
X14284925Y-5808200D02*
X14314925Y-5838200D01*
X14314925Y-5808200D02*
X14284925Y-5838200D01*
X14391605Y-6933420D02*
X14421605Y-6963420D01*
X14421605Y-6933420D02*
X14391605Y-6963420D01*
X14432245Y-4131800D02*
X14462245Y-4161800D01*
X14462245Y-4131800D02*
X14432245Y-4161800D01*
X14455825Y-5860938D02*
X14485825Y-5890938D01*
X14485825Y-5860938D02*
X14455825Y-5890938D01*
X14462725Y-3776200D02*
X14492725Y-3806200D01*
X14492725Y-3776200D02*
X14462725Y-3806200D01*
X14531305Y-6923260D02*
X14561305Y-6953260D01*
X14561305Y-6923260D02*
X14531305Y-6953260D01*
X14580285Y-4075243D02*
X14610285Y-4105243D01*
X14610285Y-4075243D02*
X14580285Y-4105243D01*
X14650615Y-6913170D02*
X14680615Y-6943170D01*
X14680615Y-6913170D02*
X14650615Y-6943170D01*
X14665925Y-5922500D02*
X14695925Y-5952500D01*
X14695925Y-5922500D02*
X14665925Y-5952500D01*
X14678625Y-3738100D02*
X14708625Y-3768100D01*
X14708625Y-3738100D02*
X14678625Y-3768100D01*
X14716725Y-4830300D02*
X14746725Y-4860300D01*
X14746725Y-4830300D02*
X14716725Y-4860300D01*
X14742698Y-4017790D02*
X14772698Y-4047790D01*
X14772698Y-4017790D02*
X14742698Y-4047790D01*
X14777685Y-6930880D02*
X14807685Y-6960880D01*
X14807685Y-6930880D02*
X14777685Y-6960880D01*
X14799505Y-5605000D02*
X14829505Y-5635000D01*
X14829505Y-5605000D02*
X14799505Y-5635000D01*
X14894525Y-4169900D02*
X14924525Y-4199900D01*
X14924525Y-4169900D02*
X14894525Y-4199900D01*
X14897065Y-6684500D02*
X14927065Y-6714500D01*
X14927065Y-6684500D02*
X14897065Y-6714500D01*
X14898941Y-6937200D02*
X14928941Y-6967200D01*
X14928941Y-6937200D02*
X14898941Y-6967200D01*
X14907225Y-4055600D02*
X14937225Y-4085600D01*
X14937225Y-4055600D02*
X14907225Y-4085600D01*
X14931125Y-3725550D02*
X14961125Y-3755550D01*
X14961125Y-3725550D02*
X14931125Y-3755550D01*
X14970725Y-5528800D02*
X15000725Y-5558800D01*
X15000725Y-5528800D02*
X14970725Y-5558800D01*
X15024065Y-6930880D02*
X15054065Y-6960880D01*
X15054065Y-6930880D02*
X15024065Y-6960880D01*
X15054265Y-5909800D02*
X15084265Y-5939800D01*
X15084265Y-5909800D02*
X15054265Y-5939800D01*
X15156145Y-6920720D02*
X15186145Y-6950720D01*
X15186145Y-6920720D02*
X15156145Y-6950720D01*
X15184125Y-4830300D02*
X15214125Y-4860300D01*
X15214125Y-4830300D02*
X15184125Y-4860300D01*
X15278065Y-6920720D02*
X15308065Y-6950720D01*
X15308065Y-6920720D02*
X15278065Y-6950720D01*
X15288225Y-3776200D02*
X15318225Y-3806200D01*
X15318225Y-3776200D02*
X15288225Y-3806200D01*
X15300857Y-6727752D02*
X15330857Y-6757752D01*
X15330857Y-6727752D02*
X15300857Y-6757752D01*
X15372045Y-6867380D02*
X15402045Y-6897380D01*
X15402045Y-6867380D02*
X15372045Y-6897380D01*
X15386085Y-6660300D02*
X15416085Y-6690300D01*
X15416085Y-6660300D02*
X15386085Y-6690300D01*
X15391628Y-5653997D02*
X15421628Y-5683997D01*
X15421628Y-5653997D02*
X15391628Y-5683997D01*
X15402525Y-4055600D02*
X15432525Y-4085600D01*
X15432525Y-4055600D02*
X15402525Y-4085600D01*
X15473645Y-5719300D02*
X15503645Y-5749300D01*
X15503645Y-5719300D02*
X15473645Y-5749300D01*
X15504125Y-4068300D02*
X15534125Y-4098300D01*
X15534125Y-4068300D02*
X15504125Y-4098300D01*
X15504125Y-4830300D02*
X15534125Y-4860300D01*
X15534125Y-4830300D02*
X15504125Y-4860300D01*
X15509205Y-3148820D02*
X15539205Y-3178820D01*
X15539205Y-3148820D02*
X15509205Y-3178820D01*
X15646365Y-6869920D02*
X15676365Y-6899920D01*
X15676365Y-6869920D02*
X15646365Y-6899920D01*
X15726243Y-4080885D02*
X15756243Y-4110885D01*
X15756243Y-4080885D02*
X15726243Y-4110885D01*
X15732725Y-6773400D02*
X15762725Y-6803400D01*
X15762725Y-6773400D02*
X15732725Y-6803400D01*
X15737805Y-6923260D02*
X15767805Y-6953260D01*
X15767805Y-6923260D02*
X15737805Y-6953260D01*
X15755585Y-3994640D02*
X15785585Y-4024640D01*
X15785585Y-3994640D02*
X15755585Y-4024640D01*
X15777725Y-4822038D02*
X15807725Y-4852038D01*
X15807725Y-4822038D02*
X15777725Y-4852038D01*
X15778445Y-3875260D02*
X15808445Y-3905260D01*
X15808445Y-3875260D02*
X15778445Y-3905260D01*
X15790308Y-4289280D02*
X15820308Y-4319280D01*
X15820308Y-4289280D02*
X15790308Y-4319280D01*
X15869885Y-6920720D02*
X15899885Y-6950720D01*
X15899885Y-6920720D02*
X15869885Y-6950720D01*
X15885125Y-5960600D02*
X15915125Y-5990600D01*
X15915125Y-5960600D02*
X15885125Y-5990600D01*
X15892745Y-5434820D02*
X15922745Y-5464820D01*
X15922745Y-5434820D02*
X15892745Y-5464820D01*
X15895285Y-4860780D02*
X15925285Y-4890780D01*
X15925285Y-4860780D02*
X15895285Y-4890780D01*
X15905445Y-5625320D02*
X15935445Y-5655320D01*
X15935445Y-5625320D02*
X15905445Y-5655320D01*
X15907985Y-4233400D02*
X15937985Y-4263400D01*
X15937985Y-4233400D02*
X15907985Y-4263400D01*
X15930845Y-3898120D02*
X15960845Y-3928120D01*
X15960845Y-3898120D02*
X15930845Y-3928120D01*
X15948625Y-6651480D02*
X15978625Y-6681480D01*
X15978625Y-6651480D02*
X15948625Y-6681480D01*
X15994345Y-6930880D02*
X16024345Y-6960880D01*
X16024345Y-6930880D02*
X15994345Y-6960880D01*
X16000445Y-4107805D02*
X16030445Y-4137805D01*
X16030445Y-4107805D02*
X16000445Y-4137805D01*
X16090661Y-3913565D02*
X16120661Y-3943565D01*
X16120661Y-3913565D02*
X16090661Y-3943565D01*
X16115545Y-5943387D02*
X16145545Y-5973387D01*
X16145545Y-5943387D02*
X16115545Y-5973387D01*
X16126425Y-6930880D02*
X16156425Y-6960880D01*
X16156425Y-6930880D02*
X16126425Y-6960880D01*
X16149586Y-5542935D02*
X16179586Y-5572935D01*
X16179586Y-5542935D02*
X16149586Y-5572935D01*
X16197545Y-5630400D02*
X16227545Y-5660400D01*
X16227545Y-5630400D02*
X16197545Y-5660400D01*
X16210245Y-3882880D02*
X16240245Y-3912880D01*
X16240245Y-3882880D02*
X16210245Y-3912880D01*
X16233105Y-5554200D02*
X16263105Y-5584200D01*
X16263105Y-5554200D02*
X16233105Y-5584200D01*
X16253425Y-3763500D02*
X16283425Y-3793500D01*
X16283425Y-3763500D02*
X16253425Y-3793500D01*
X16260975Y-6928270D02*
X16290975Y-6958270D01*
X16290975Y-6928270D02*
X16260975Y-6958270D01*
X16281365Y-5630400D02*
X16311365Y-5660400D01*
X16311365Y-5630400D02*
X16281365Y-5660400D01*
X16314385Y-5018260D02*
X16344385Y-5048260D01*
X16344385Y-5018260D02*
X16314385Y-5048260D01*
X16316925Y-4649960D02*
X16346925Y-4679960D01*
X16346925Y-4649960D02*
X16316925Y-4679960D01*
X16321285Y-5840141D02*
X16351285Y-5870141D01*
X16351285Y-5840141D02*
X16321285Y-5870141D01*
X16357565Y-5721840D02*
X16387565Y-5751840D01*
X16387565Y-5721840D02*
X16357565Y-5751840D01*
X16382965Y-6925800D02*
X16412965Y-6955800D01*
X16412965Y-6925800D02*
X16382965Y-6955800D01*
X16454805Y-3763792D02*
X16484805Y-3793792D01*
X16484805Y-3763792D02*
X16454805Y-3793792D01*
X16469325Y-5058900D02*
X16499325Y-5088900D01*
X16499325Y-5058900D02*
X16469325Y-5088900D01*
X16485285Y-5820900D02*
X16515285Y-5850900D01*
X16515285Y-5820900D02*
X16485285Y-5850900D01*
X16504885Y-6928340D02*
X16534885Y-6958340D01*
X16534885Y-6928340D02*
X16504885Y-6958340D01*
X16517585Y-4441680D02*
X16547585Y-4471680D01*
X16547585Y-4441680D02*
X16517585Y-4471680D01*
X16564025Y-4375710D02*
X16594025Y-4405710D01*
X16594025Y-4375710D02*
X16564025Y-4405710D01*
X16596325Y-3763500D02*
X16626325Y-3793500D01*
X16626325Y-3763500D02*
X16596325Y-3793500D01*
X16631885Y-6925800D02*
X16661885Y-6955800D01*
X16661885Y-6925800D02*
X16631885Y-6955800D01*
X16662365Y-4462000D02*
X16692365Y-4492000D01*
X16692365Y-4462000D02*
X16662365Y-4492000D01*
X16672525Y-3928600D02*
X16702525Y-3958600D01*
X16702525Y-3928600D02*
X16672525Y-3958600D01*
X16688485Y-4347700D02*
X16718485Y-4377700D01*
X16718485Y-4347700D02*
X16688485Y-4377700D01*
X16723325Y-5782800D02*
X16753325Y-5812800D01*
X16753325Y-5782800D02*
X16723325Y-5812800D01*
X16729125Y-5173200D02*
X16759125Y-5203200D01*
X16759125Y-5173200D02*
X16729125Y-5203200D01*
X16756345Y-6928340D02*
X16786345Y-6958340D01*
X16786345Y-6928340D02*
X16756345Y-6958340D01*
X16774125Y-4868400D02*
X16804125Y-4898400D01*
X16804125Y-4868400D02*
X16774125Y-4898400D01*
X16789365Y-4401040D02*
X16819365Y-4431040D01*
X16819365Y-4401040D02*
X16789365Y-4431040D01*
X16860485Y-4342620D02*
X16890485Y-4372620D01*
X16890485Y-4342620D02*
X16860485Y-4372620D01*
X16878265Y-6933420D02*
X16908265Y-6963420D01*
X16908265Y-6933420D02*
X16878265Y-6963420D01*
X16888425Y-3954000D02*
X16918425Y-3984000D01*
X16918425Y-3954000D02*
X16888425Y-3984000D01*
X16964625Y-4360400D02*
X16994625Y-4390400D01*
X16994625Y-4360400D02*
X16964625Y-4390400D01*
X16972965Y-5795500D02*
X17002965Y-5825500D01*
X17002965Y-5795500D02*
X16972965Y-5825500D01*
X16977325Y-5173200D02*
X17007325Y-5203200D01*
X17007325Y-5173200D02*
X16977325Y-5203200D01*
X16984945Y-4716000D02*
X17014945Y-4746000D01*
X17014945Y-4716000D02*
X16984945Y-4746000D01*
X17007805Y-6928340D02*
X17037805Y-6958340D01*
X17037805Y-6928340D02*
X17007805Y-6958340D01*
X17009597Y-4438212D02*
X17039597Y-4468212D01*
X17039597Y-4438212D02*
X17009597Y-4468212D01*
X17091625Y-5185900D02*
X17121625Y-5215900D01*
X17121625Y-5185900D02*
X17091625Y-5215900D01*
X17093125Y-4004800D02*
X17123125Y-4034800D01*
X17123125Y-4004800D02*
X17093125Y-4034800D01*
X17117025Y-4373100D02*
X17147025Y-4403100D01*
X17147025Y-4373100D02*
X17117025Y-4403100D01*
X17167825Y-4931900D02*
X17197825Y-4961900D01*
X17197825Y-4931900D02*
X17167825Y-4961900D01*
X17167825Y-5719300D02*
X17197825Y-5749300D01*
X17197825Y-5719300D02*
X17167825Y-5749300D01*
X17262240Y-5184279D02*
X17292240Y-5214279D01*
X17292240Y-5184279D02*
X17262240Y-5214279D01*
X17263075Y-4595350D02*
X17293075Y-4625350D01*
X17293075Y-4595350D02*
X17263075Y-4625350D01*
X17269425Y-4093700D02*
X17299425Y-4123700D01*
X17299425Y-4093700D02*
X17269425Y-4123700D01*
X17282125Y-5592300D02*
X17312125Y-5622300D01*
X17312125Y-5592300D02*
X17282125Y-5622300D01*
X17345625Y-4487400D02*
X17375625Y-4517400D01*
X17375625Y-4487400D02*
X17345625Y-4517400D01*
X17395975Y-5186100D02*
X17425975Y-5216100D01*
X17425975Y-5186100D02*
X17395975Y-5216100D01*
X17416745Y-3948920D02*
X17446745Y-3978920D01*
X17446745Y-3948920D02*
X17416745Y-3978920D01*
X17421825Y-4182600D02*
X17451825Y-4212600D01*
X17451825Y-4182600D02*
X17421825Y-4212600D01*
X17434525Y-5490700D02*
X17464525Y-5520700D01*
X17464525Y-5490700D02*
X17434525Y-5520700D01*
X17536125Y-5186100D02*
X17566125Y-5216100D01*
X17566125Y-5186100D02*
X17536125Y-5216100D01*
X17541205Y-4451840D02*
X17571205Y-4481840D01*
X17571205Y-4451840D02*
X17541205Y-4481840D01*
X17599625Y-6989300D02*
X17629625Y-7019300D01*
X17629625Y-6989300D02*
X17599625Y-7019300D01*
X17612325Y-4283480D02*
X17642325Y-4313480D01*
X17642325Y-4283480D02*
X17612325Y-4313480D01*
X17625025Y-5427200D02*
X17655025Y-5457200D01*
X17655025Y-5427200D02*
X17625025Y-5457200D01*
X17650425Y-4449300D02*
X17680425Y-4479300D01*
X17680425Y-4449300D02*
X17650425Y-4479300D01*
X17688525Y-5236100D02*
X17718525Y-5266100D01*
X17718525Y-5236100D02*
X17688525Y-5266100D01*
X17764725Y-4500100D02*
X17794725Y-4530100D01*
X17794725Y-4500100D02*
X17764725Y-4530100D01*
X17802825Y-4309600D02*
X17832825Y-4339600D01*
X17832825Y-4309600D02*
X17802825Y-4339600D01*
X17815525Y-5389100D02*
X17845525Y-5419100D01*
X17845525Y-5389100D02*
X17815525Y-5419100D01*
X18094925Y-2988800D02*
X18124925Y-3018800D01*
X18124925Y-2988800D02*
X18094925Y-3018800D01*
X18107625Y-2823700D02*
X18137625Y-2853700D01*
X18137625Y-2823700D02*
X18107625Y-2853700D01*
X18158425Y-4220700D02*
X18188425Y-4250700D01*
X18188425Y-4220700D02*
X18158425Y-4250700D01*
X18412425Y-4220700D02*
X18442425Y-4250700D01*
X18442425Y-4220700D02*
X18412425Y-4250700D01*
X18412425Y-5363700D02*
X18442425Y-5393700D01*
X18442425Y-5363700D02*
X18412425Y-5393700D01*
X18463225Y-4830300D02*
X18493225Y-4860300D01*
X18493225Y-4830300D02*
X18463225Y-4860300D01*
X18488625Y-5439900D02*
X18518625Y-5469900D01*
X18518625Y-5439900D02*
X18488625Y-5469900D01*
X18552125Y-5490700D02*
X18582125Y-5520700D01*
X18582125Y-5490700D02*
X18552125Y-5520700D01*
X18615625Y-5681200D02*
X18645625Y-5711200D01*
X18645625Y-5681200D02*
X18615625Y-5711200D01*
X18615695Y-4284270D02*
X18645695Y-4314270D01*
X18645695Y-4284270D02*
X18615695Y-4314270D01*
X18641025Y-5871700D02*
X18671025Y-5901700D01*
X18671025Y-5871700D02*
X18641025Y-5901700D01*
X18691825Y-5363700D02*
X18721825Y-5393700D01*
X18721825Y-5363700D02*
X18691825Y-5393700D01*
X18729925Y-5033500D02*
X18759925Y-5063500D01*
X18759925Y-5033500D02*
X18729925Y-5063500D01*
X18735725Y-4944600D02*
X18765725Y-4974600D01*
X18765725Y-4944600D02*
X18735725Y-4974600D01*
X18755325Y-5892020D02*
X18785325Y-5922020D01*
X18785325Y-5892020D02*
X18755325Y-5922020D01*
X19022025Y-4843000D02*
X19052025Y-4873000D01*
X19052025Y-4843000D02*
X19022025Y-4873000D01*
X19072825Y-3941300D02*
X19102825Y-3971300D01*
X19102825Y-3941300D02*
X19072825Y-3971300D01*
X19123625Y-3839700D02*
X19153625Y-3869700D01*
X19153625Y-3839700D02*
X19123625Y-3869700D01*
X19123625Y-5630400D02*
X19153625Y-5660400D01*
X19153625Y-5630400D02*
X19123625Y-5660400D01*
X19136325Y-6570200D02*
X19166325Y-6600200D01*
X19166325Y-6570200D02*
X19136325Y-6600200D01*
X19276025Y-3903200D02*
X19306025Y-3933200D01*
X19306025Y-3903200D02*
X19276025Y-3933200D01*
X19504625Y-3941300D02*
X19534625Y-3971300D01*
X19534625Y-3941300D02*
X19504625Y-3971300D01*
X11683725Y-4718300D02*
G75*
G02*
X11607525Y-4718300I-38100J0D01*
G01*
X11607525Y-4718300D02*
G75*
G02*
X11683725Y-4718300I38100J0D01*
G01*
X11683725Y-4972300D02*
G75*
G02*
X11607525Y-4972300I-38100J0D01*
G01*
X11607525Y-4972300D02*
G75*
G02*
X11683725Y-4972300I38100J0D01*
G01*
X19430725Y-4718300D02*
G75*
G02*
X19354525Y-4718300I-38100J0D01*
G01*
X19354525Y-4718300D02*
G75*
G02*
X19430725Y-4718300I38100J0D01*
G01*
X19430725Y-4972300D02*
G75*
G02*
X19354525Y-4972300I-38100J0D01*
G01*
X19354525Y-4972300D02*
G75*
G02*
X19430725Y-4972300I38100J0D01*
G01*
X13347425Y-6868800D02*
X13347425Y-6948800D01*
X13307425Y-6908800D02*
X13387425Y-6908800D01*
X13499825Y-6868800D02*
X13499825Y-6948800D01*
X13459825Y-6908800D02*
X13539825Y-6908800D01*
X15519125Y-6868800D02*
X15519125Y-6948800D01*
X15479125Y-6908800D02*
X15559125Y-6908800D01*
X17538425Y-6868800D02*
X17538425Y-6948800D01*
X17498425Y-6908800D02*
X17578425Y-6908800D01*
X17690825Y-6868800D02*
X17690825Y-6948800D01*
X17650825Y-6908800D02*
X17730825Y-6908800D01*
X11871481Y-3356656D02*
X11871481Y-3285944D01*
X11800770Y-3285944D01*
X11800770Y-3356656D01*
X11871481Y-3356656D01*
X11871481Y-3610656D02*
X11871481Y-3539944D01*
X11800770Y-3539944D01*
X11800770Y-3610656D01*
X11871481Y-3610656D01*
X11871481Y-6150656D02*
X11871481Y-6079944D01*
X11800770Y-6079944D01*
X11800770Y-6150656D01*
X11871481Y-6150656D01*
X11871481Y-6404656D02*
X11871481Y-6333944D01*
X11800770Y-6333944D01*
X11800770Y-6404656D01*
X11871481Y-6404656D01*
X12125481Y-3356656D02*
X12125481Y-3285944D01*
X12054770Y-3285944D01*
X12054770Y-3356656D01*
X12125481Y-3356656D01*
X12125481Y-3610656D02*
X12125481Y-3539944D01*
X12054770Y-3539944D01*
X12054770Y-3610656D01*
X12125481Y-3610656D01*
X12125481Y-6150656D02*
X12125481Y-6079944D01*
X12054770Y-6079944D01*
X12054770Y-6150656D01*
X12125481Y-6150656D01*
X12125481Y-6404656D02*
X12125481Y-6333944D01*
X12054770Y-6333944D01*
X12054770Y-6404656D01*
X12125481Y-6404656D01*
X12379481Y-3356656D02*
X12379481Y-3285944D01*
X12308770Y-3285944D01*
X12308770Y-3356656D01*
X12379481Y-3356656D01*
X12379481Y-3610656D02*
X12379481Y-3539944D01*
X12308770Y-3539944D01*
X12308770Y-3610656D01*
X12379481Y-3610656D01*
X12379481Y-6150656D02*
X12379481Y-6079944D01*
X12308770Y-6079944D01*
X12308770Y-6150656D01*
X12379481Y-6150656D01*
X12379481Y-6404656D02*
X12379481Y-6333944D01*
X12308770Y-6333944D01*
X12308770Y-6404656D01*
X12379481Y-6404656D01*
X12633481Y-3356656D02*
X12633481Y-3285944D01*
X12562770Y-3285944D01*
X12562770Y-3356656D01*
X12633481Y-3356656D01*
X12633481Y-3610656D02*
X12633481Y-3539944D01*
X12562770Y-3539944D01*
X12562770Y-3610656D01*
X12633481Y-3610656D01*
X12633481Y-6150656D02*
X12633481Y-6079944D01*
X12562770Y-6079944D01*
X12562770Y-6150656D01*
X12633481Y-6150656D01*
X12633481Y-6404656D02*
X12633481Y-6333944D01*
X12562770Y-6333944D01*
X12562770Y-6404656D01*
X12633481Y-6404656D01*
X12887481Y-3356656D02*
X12887481Y-3285944D01*
X12816770Y-3285944D01*
X12816770Y-3356656D01*
X12887481Y-3356656D01*
X12887481Y-3610656D02*
X12887481Y-3539944D01*
X12816770Y-3539944D01*
X12816770Y-3610656D01*
X12887481Y-3610656D01*
X12887481Y-6150656D02*
X12887481Y-6079944D01*
X12816770Y-6079944D01*
X12816770Y-6150656D01*
X12887481Y-6150656D01*
X12887481Y-6404656D02*
X12887481Y-6333944D01*
X12816770Y-6333944D01*
X12816770Y-6404656D01*
X12887481Y-6404656D01*
X13141481Y-3356656D02*
X13141481Y-3285944D01*
X13070770Y-3285944D01*
X13070770Y-3356656D01*
X13141481Y-3356656D01*
X13141481Y-3610656D02*
X13141481Y-3539944D01*
X13070770Y-3539944D01*
X13070770Y-3610656D01*
X13141481Y-3610656D01*
X13141481Y-6150656D02*
X13141481Y-6079944D01*
X13070770Y-6079944D01*
X13070770Y-6150656D01*
X13141481Y-6150656D01*
X13141481Y-6404656D02*
X13141481Y-6333944D01*
X13070770Y-6333944D01*
X13070770Y-6404656D01*
X13141481Y-6404656D01*
X13395481Y-3356656D02*
X13395481Y-3285944D01*
X13324770Y-3285944D01*
X13324770Y-3356656D01*
X13395481Y-3356656D01*
X13395481Y-3610656D02*
X13395481Y-3539944D01*
X13324770Y-3539944D01*
X13324770Y-3610656D01*
X13395481Y-3610656D01*
X13395481Y-6150656D02*
X13395481Y-6079944D01*
X13324770Y-6079944D01*
X13324770Y-6150656D01*
X13395481Y-6150656D01*
X13395481Y-6404656D02*
X13395481Y-6333944D01*
X13324770Y-6333944D01*
X13324770Y-6404656D01*
X13395481Y-6404656D01*
X13649481Y-3356656D02*
X13649481Y-3285944D01*
X13578770Y-3285944D01*
X13578770Y-3356656D01*
X13649481Y-3356656D01*
X13649481Y-3610656D02*
X13649481Y-3539944D01*
X13578770Y-3539944D01*
X13578770Y-3610656D01*
X13649481Y-3610656D01*
X13649481Y-6150656D02*
X13649481Y-6079944D01*
X13578770Y-6079944D01*
X13578770Y-6150656D01*
X13649481Y-6150656D01*
X13649481Y-6404656D02*
X13649481Y-6333944D01*
X13578770Y-6333944D01*
X13578770Y-6404656D01*
X13649481Y-6404656D01*
X13903481Y-3356656D02*
X13903481Y-3285944D01*
X13832770Y-3285944D01*
X13832770Y-3356656D01*
X13903481Y-3356656D01*
X13903481Y-3610656D02*
X13903481Y-3539944D01*
X13832770Y-3539944D01*
X13832770Y-3610656D01*
X13903481Y-3610656D01*
X13903481Y-6150656D02*
X13903481Y-6079944D01*
X13832770Y-6079944D01*
X13832770Y-6150656D01*
X13903481Y-6150656D01*
X13903481Y-6404656D02*
X13903481Y-6333944D01*
X13832770Y-6333944D01*
X13832770Y-6404656D01*
X13903481Y-6404656D01*
X14157481Y-3356656D02*
X14157481Y-3285944D01*
X14086770Y-3285944D01*
X14086770Y-3356656D01*
X14157481Y-3356656D01*
X14157481Y-3610656D02*
X14157481Y-3539944D01*
X14086770Y-3539944D01*
X14086770Y-3610656D01*
X14157481Y-3610656D01*
X14157481Y-6150656D02*
X14157481Y-6079944D01*
X14086770Y-6079944D01*
X14086770Y-6150656D01*
X14157481Y-6150656D01*
X14157481Y-6404656D02*
X14157481Y-6333944D01*
X14086770Y-6333944D01*
X14086770Y-6404656D01*
X14157481Y-6404656D01*
X14411481Y-3356656D02*
X14411481Y-3285944D01*
X14340770Y-3285944D01*
X14340770Y-3356656D01*
X14411481Y-3356656D01*
X14411481Y-3610656D02*
X14411481Y-3539944D01*
X14340770Y-3539944D01*
X14340770Y-3610656D01*
X14411481Y-3610656D01*
X14411481Y-6150656D02*
X14411481Y-6079944D01*
X14340770Y-6079944D01*
X14340770Y-6150656D01*
X14411481Y-6150656D01*
X14411481Y-6404656D02*
X14411481Y-6333944D01*
X14340770Y-6333944D01*
X14340770Y-6404656D01*
X14411481Y-6404656D01*
X14665481Y-3356656D02*
X14665481Y-3285944D01*
X14594770Y-3285944D01*
X14594770Y-3356656D01*
X14665481Y-3356656D01*
X14665481Y-3610656D02*
X14665481Y-3539944D01*
X14594770Y-3539944D01*
X14594770Y-3610656D01*
X14665481Y-3610656D01*
X14665481Y-6150656D02*
X14665481Y-6079944D01*
X14594770Y-6079944D01*
X14594770Y-6150656D01*
X14665481Y-6150656D01*
X14665481Y-6404656D02*
X14665481Y-6333944D01*
X14594770Y-6333944D01*
X14594770Y-6404656D01*
X14665481Y-6404656D01*
X14919481Y-3356656D02*
X14919481Y-3285944D01*
X14848770Y-3285944D01*
X14848770Y-3356656D01*
X14919481Y-3356656D01*
X14919481Y-3610656D02*
X14919481Y-3539944D01*
X14848770Y-3539944D01*
X14848770Y-3610656D01*
X14919481Y-3610656D01*
X14919481Y-6150656D02*
X14919481Y-6079944D01*
X14848770Y-6079944D01*
X14848770Y-6150656D01*
X14919481Y-6150656D01*
X14919481Y-6404656D02*
X14919481Y-6333944D01*
X14848770Y-6333944D01*
X14848770Y-6404656D01*
X14919481Y-6404656D01*
X15173481Y-3356656D02*
X15173481Y-3285944D01*
X15102770Y-3285944D01*
X15102770Y-3356656D01*
X15173481Y-3356656D01*
X15173481Y-3610656D02*
X15173481Y-3539944D01*
X15102770Y-3539944D01*
X15102770Y-3610656D01*
X15173481Y-3610656D01*
X15173481Y-6150656D02*
X15173481Y-6079944D01*
X15102770Y-6079944D01*
X15102770Y-6150656D01*
X15173481Y-6150656D01*
X15173481Y-6404656D02*
X15173481Y-6333944D01*
X15102770Y-6333944D01*
X15102770Y-6404656D01*
X15173481Y-6404656D01*
X15427481Y-3356656D02*
X15427481Y-3285944D01*
X15356770Y-3285944D01*
X15356770Y-3356656D01*
X15427481Y-3356656D01*
X15427481Y-3610656D02*
X15427481Y-3539944D01*
X15356770Y-3539944D01*
X15356770Y-3610656D01*
X15427481Y-3610656D01*
X15427481Y-6150656D02*
X15427481Y-6079944D01*
X15356770Y-6079944D01*
X15356770Y-6150656D01*
X15427481Y-6150656D01*
X15427481Y-6404656D02*
X15427481Y-6333944D01*
X15356770Y-6333944D01*
X15356770Y-6404656D01*
X15427481Y-6404656D01*
X15681481Y-3356656D02*
X15681481Y-3285944D01*
X15610770Y-3285944D01*
X15610770Y-3356656D01*
X15681481Y-3356656D01*
X15681481Y-3610656D02*
X15681481Y-3539944D01*
X15610770Y-3539944D01*
X15610770Y-3610656D01*
X15681481Y-3610656D01*
X15681481Y-6150656D02*
X15681481Y-6079944D01*
X15610770Y-6079944D01*
X15610770Y-6150656D01*
X15681481Y-6150656D01*
X15681481Y-6404656D02*
X15681481Y-6333944D01*
X15610770Y-6333944D01*
X15610770Y-6404656D01*
X15681481Y-6404656D01*
X15935481Y-3356656D02*
X15935481Y-3285944D01*
X15864770Y-3285944D01*
X15864770Y-3356656D01*
X15935481Y-3356656D01*
X15935481Y-3610656D02*
X15935481Y-3539944D01*
X15864770Y-3539944D01*
X15864770Y-3610656D01*
X15935481Y-3610656D01*
X15935481Y-6150656D02*
X15935481Y-6079944D01*
X15864770Y-6079944D01*
X15864770Y-6150656D01*
X15935481Y-6150656D01*
X15935481Y-6404656D02*
X15935481Y-6333944D01*
X15864770Y-6333944D01*
X15864770Y-6404656D01*
X15935481Y-6404656D01*
X16189481Y-3356656D02*
X16189481Y-3285944D01*
X16118770Y-3285944D01*
X16118770Y-3356656D01*
X16189481Y-3356656D01*
X16189481Y-3610656D02*
X16189481Y-3539944D01*
X16118770Y-3539944D01*
X16118770Y-3610656D01*
X16189481Y-3610656D01*
X16189481Y-6150656D02*
X16189481Y-6079944D01*
X16118770Y-6079944D01*
X16118770Y-6150656D01*
X16189481Y-6150656D01*
X16189481Y-6404656D02*
X16189481Y-6333944D01*
X16118770Y-6333944D01*
X16118770Y-6404656D01*
X16189481Y-6404656D01*
X16443481Y-3356656D02*
X16443481Y-3285944D01*
X16372770Y-3285944D01*
X16372770Y-3356656D01*
X16443481Y-3356656D01*
X16443481Y-3610656D02*
X16443481Y-3539944D01*
X16372770Y-3539944D01*
X16372770Y-3610656D01*
X16443481Y-3610656D01*
X16443481Y-6150656D02*
X16443481Y-6079944D01*
X16372770Y-6079944D01*
X16372770Y-6150656D01*
X16443481Y-6150656D01*
X16443481Y-6404656D02*
X16443481Y-6333944D01*
X16372770Y-6333944D01*
X16372770Y-6404656D01*
X16443481Y-6404656D01*
X16697481Y-3356656D02*
X16697481Y-3285944D01*
X16626770Y-3285944D01*
X16626770Y-3356656D01*
X16697481Y-3356656D01*
X16697481Y-3610656D02*
X16697481Y-3539944D01*
X16626770Y-3539944D01*
X16626770Y-3610656D01*
X16697481Y-3610656D01*
X16697481Y-6150656D02*
X16697481Y-6079944D01*
X16626770Y-6079944D01*
X16626770Y-6150656D01*
X16697481Y-6150656D01*
X16697481Y-6404656D02*
X16697481Y-6333944D01*
X16626770Y-6333944D01*
X16626770Y-6404656D01*
X16697481Y-6404656D01*
X16951481Y-3356656D02*
X16951481Y-3285944D01*
X16880770Y-3285944D01*
X16880770Y-3356656D01*
X16951481Y-3356656D01*
X16951481Y-3610656D02*
X16951481Y-3539944D01*
X16880770Y-3539944D01*
X16880770Y-3610656D01*
X16951481Y-3610656D01*
X16951481Y-6150656D02*
X16951481Y-6079944D01*
X16880770Y-6079944D01*
X16880770Y-6150656D01*
X16951481Y-6150656D01*
X16951481Y-6404656D02*
X16951481Y-6333944D01*
X16880770Y-6333944D01*
X16880770Y-6404656D01*
X16951481Y-6404656D01*
X17205481Y-3356656D02*
X17205481Y-3285944D01*
X17134770Y-3285944D01*
X17134770Y-3356656D01*
X17205481Y-3356656D01*
X17205481Y-3610656D02*
X17205481Y-3539944D01*
X17134770Y-3539944D01*
X17134770Y-3610656D01*
X17205481Y-3610656D01*
X17205481Y-6150656D02*
X17205481Y-6079944D01*
X17134770Y-6079944D01*
X17134770Y-6150656D01*
X17205481Y-6150656D01*
X17205481Y-6404656D02*
X17205481Y-6333944D01*
X17134770Y-6333944D01*
X17134770Y-6404656D01*
X17205481Y-6404656D01*
X17459481Y-3356656D02*
X17459481Y-3285944D01*
X17388770Y-3285944D01*
X17388770Y-3356656D01*
X17459481Y-3356656D01*
X17459481Y-3610656D02*
X17459481Y-3539944D01*
X17388770Y-3539944D01*
X17388770Y-3610656D01*
X17459481Y-3610656D01*
X17459481Y-6150656D02*
X17459481Y-6079944D01*
X17388770Y-6079944D01*
X17388770Y-6150656D01*
X17459481Y-6150656D01*
X17459481Y-6404656D02*
X17459481Y-6333944D01*
X17388770Y-6333944D01*
X17388770Y-6404656D01*
X17459481Y-6404656D01*
X17713481Y-3356656D02*
X17713481Y-3285944D01*
X17642770Y-3285944D01*
X17642770Y-3356656D01*
X17713481Y-3356656D01*
X17713481Y-3610656D02*
X17713481Y-3539944D01*
X17642770Y-3539944D01*
X17642770Y-3610656D01*
X17713481Y-3610656D01*
X17713481Y-6150656D02*
X17713481Y-6079944D01*
X17642770Y-6079944D01*
X17642770Y-6150656D01*
X17713481Y-6150656D01*
X17713481Y-6404656D02*
X17713481Y-6333944D01*
X17642770Y-6333944D01*
X17642770Y-6404656D01*
X17713481Y-6404656D01*
X17967481Y-3356656D02*
X17967481Y-3285944D01*
X17896770Y-3285944D01*
X17896770Y-3356656D01*
X17967481Y-3356656D01*
X17967481Y-3610656D02*
X17967481Y-3539944D01*
X17896770Y-3539944D01*
X17896770Y-3610656D01*
X17967481Y-3610656D01*
X17967481Y-6150656D02*
X17967481Y-6079944D01*
X17896770Y-6079944D01*
X17896770Y-6150656D01*
X17967481Y-6150656D01*
X17967481Y-6404656D02*
X17967481Y-6333944D01*
X17896770Y-6333944D01*
X17896770Y-6404656D01*
X17967481Y-6404656D01*
X18221481Y-3356656D02*
X18221481Y-3285944D01*
X18150770Y-3285944D01*
X18150770Y-3356656D01*
X18221481Y-3356656D01*
X18221481Y-3610656D02*
X18221481Y-3539944D01*
X18150770Y-3539944D01*
X18150770Y-3610656D01*
X18221481Y-3610656D01*
X18221481Y-6150656D02*
X18221481Y-6079944D01*
X18150770Y-6079944D01*
X18150770Y-6150656D01*
X18221481Y-6150656D01*
X18221481Y-6404656D02*
X18221481Y-6333944D01*
X18150770Y-6333944D01*
X18150770Y-6404656D01*
X18221481Y-6404656D01*
X18475481Y-3356656D02*
X18475481Y-3285944D01*
X18404770Y-3285944D01*
X18404770Y-3356656D01*
X18475481Y-3356656D01*
X18475481Y-3610656D02*
X18475481Y-3539944D01*
X18404770Y-3539944D01*
X18404770Y-3610656D01*
X18475481Y-3610656D01*
X18475481Y-6150656D02*
X18475481Y-6079944D01*
X18404770Y-6079944D01*
X18404770Y-6150656D01*
X18475481Y-6150656D01*
X18475481Y-6404656D02*
X18475481Y-6333944D01*
X18404770Y-6333944D01*
X18404770Y-6404656D01*
X18475481Y-6404656D01*
X18729481Y-3356656D02*
X18729481Y-3285944D01*
X18658770Y-3285944D01*
X18658770Y-3356656D01*
X18729481Y-3356656D01*
X18729481Y-3610656D02*
X18729481Y-3539944D01*
X18658770Y-3539944D01*
X18658770Y-3610656D01*
X18729481Y-3610656D01*
X18729481Y-6150656D02*
X18729481Y-6079944D01*
X18658770Y-6079944D01*
X18658770Y-6150656D01*
X18729481Y-6150656D01*
X18729481Y-6404656D02*
X18729481Y-6333944D01*
X18658770Y-6333944D01*
X18658770Y-6404656D01*
X18729481Y-6404656D01*
X18983481Y-3356656D02*
X18983481Y-3285944D01*
X18912770Y-3285944D01*
X18912770Y-3356656D01*
X18983481Y-3356656D01*
X18983481Y-3610656D02*
X18983481Y-3539944D01*
X18912770Y-3539944D01*
X18912770Y-3610656D01*
X18983481Y-3610656D01*
X18983481Y-6150656D02*
X18983481Y-6079944D01*
X18912770Y-6079944D01*
X18912770Y-6150656D01*
X18983481Y-6150656D01*
X18983481Y-6404656D02*
X18983481Y-6333944D01*
X18912770Y-6333944D01*
X18912770Y-6404656D01*
X18983481Y-6404656D01*
X19237481Y-3356656D02*
X19237481Y-3285944D01*
X19166770Y-3285944D01*
X19166770Y-3356656D01*
X19237481Y-3356656D01*
X19237481Y-3610656D02*
X19237481Y-3539944D01*
X19166770Y-3539944D01*
X19166770Y-3610656D01*
X19237481Y-3610656D01*
X19237481Y-6150656D02*
X19237481Y-6079944D01*
X19166770Y-6079944D01*
X19166770Y-6150656D01*
X19237481Y-6150656D01*
X19237481Y-6404656D02*
X19237481Y-6333944D01*
X19166770Y-6333944D01*
X19166770Y-6404656D01*
X19237481Y-6404656D01*
D13*
X11518625Y-4778300D02*
X11578625Y-4718300D01*
X11518625Y-4658300D01*
X11458625Y-4718300D01*
X11518625Y-4778300D01*
X11518625Y-5032300D02*
X11578625Y-4972300D01*
X11518625Y-4912300D01*
X11458625Y-4972300D01*
X11518625Y-5032300D01*
X19519625Y-4778300D02*
X19579625Y-4718300D01*
X19519625Y-4658300D01*
X19459625Y-4718300D01*
X19519625Y-4778300D01*
X19519625Y-5032300D02*
X19579625Y-4972300D01*
X19519625Y-4912300D01*
X19459625Y-4972300D01*
X19519625Y-5032300D01*
D14*
X11448125Y-4203300D02*
X11843125Y-4598300D01*
X11843125Y-4203300D02*
X11448125Y-4598300D01*
X11843125Y-4400800D02*
G75*
G02*
X11448125Y-4400800I-197500J0D01*
G01*
X11448125Y-4400800D02*
G75*
G02*
X11843125Y-4400800I197500J0D01*
G01*
X11448125Y-5092300D02*
X11843125Y-5487300D01*
X11843125Y-5092300D02*
X11448125Y-5487300D01*
X11843125Y-5289800D02*
G75*
G02*
X11448125Y-5289800I-197500J0D01*
G01*
X11448125Y-5289800D02*
G75*
G02*
X11843125Y-5289800I197500J0D01*
G01*
X19195125Y-4202801D02*
X19590125Y-4597801D01*
X19590125Y-4202801D02*
X19195125Y-4597801D01*
X19590125Y-4400301D02*
G75*
G02*
X19195125Y-4400301I-197500J0D01*
G01*
X19195125Y-4400301D02*
G75*
G02*
X19590125Y-4400301I197500J0D01*
G01*
X19195151Y-5092300D02*
X19590151Y-5487300D01*
X19590151Y-5092300D02*
X19195151Y-5487300D01*
X19590151Y-5289800D02*
G75*
G02*
X19195151Y-5289800I-197500J0D01*
G01*
X19195151Y-5289800D02*
G75*
G02*
X19590151Y-5289800I197500J0D01*
G01*
D11*
X11651680Y-7946684D02*
X11651680Y-7746684D01*
X11651680Y-7746684D02*
X11699299Y-7746684D01*
X11699299Y-7746684D02*
X11727871Y-7756208D01*
X11727871Y-7756208D02*
X11746918Y-7775255D01*
X11746918Y-7775255D02*
X11756442Y-7794303D01*
X11756442Y-7794303D02*
X11765966Y-7832398D01*
X11765966Y-7832398D02*
X11765966Y-7860970D01*
X11765966Y-7860970D02*
X11756442Y-7899065D01*
X11756442Y-7899065D02*
X11746918Y-7918112D01*
X11746918Y-7918112D02*
X11727871Y-7937160D01*
X11727871Y-7937160D02*
X11699299Y-7946684D01*
X11699299Y-7946684D02*
X11651680Y-7946684D01*
X11851680Y-7946684D02*
X11851680Y-7813350D01*
X11851680Y-7851446D02*
X11861204Y-7832398D01*
X11861204Y-7832398D02*
X11870728Y-7822874D01*
X11870728Y-7822874D02*
X11889776Y-7813350D01*
X11889776Y-7813350D02*
X11908823Y-7813350D01*
X11975490Y-7946684D02*
X11975490Y-7813350D01*
X11975490Y-7746684D02*
X11965966Y-7756208D01*
X11965966Y-7756208D02*
X11975490Y-7765731D01*
X11975490Y-7765731D02*
X11985014Y-7756208D01*
X11985014Y-7756208D02*
X11975490Y-7746684D01*
X11975490Y-7746684D02*
X11975490Y-7765731D01*
X12099299Y-7946684D02*
X12080252Y-7937160D01*
X12080252Y-7937160D02*
X12070728Y-7918112D01*
X12070728Y-7918112D02*
X12070728Y-7746684D01*
X12204061Y-7946684D02*
X12185014Y-7937160D01*
X12185014Y-7937160D02*
X12175490Y-7918112D01*
X12175490Y-7918112D02*
X12175490Y-7746684D01*
X12432633Y-7946684D02*
X12432633Y-7746684D01*
X12432633Y-7746684D02*
X12499299Y-7889541D01*
X12499299Y-7889541D02*
X12565966Y-7746684D01*
X12565966Y-7746684D02*
X12565966Y-7946684D01*
X12746918Y-7946684D02*
X12746918Y-7841922D01*
X12746918Y-7841922D02*
X12737395Y-7822874D01*
X12737395Y-7822874D02*
X12718347Y-7813350D01*
X12718347Y-7813350D02*
X12680252Y-7813350D01*
X12680252Y-7813350D02*
X12661204Y-7822874D01*
X12746918Y-7937160D02*
X12727871Y-7946684D01*
X12727871Y-7946684D02*
X12680252Y-7946684D01*
X12680252Y-7946684D02*
X12661204Y-7937160D01*
X12661204Y-7937160D02*
X12651680Y-7918112D01*
X12651680Y-7918112D02*
X12651680Y-7899065D01*
X12651680Y-7899065D02*
X12661204Y-7880017D01*
X12661204Y-7880017D02*
X12680252Y-7870493D01*
X12680252Y-7870493D02*
X12727871Y-7870493D01*
X12727871Y-7870493D02*
X12746918Y-7860970D01*
X12842157Y-7813350D02*
X12842157Y-8013350D01*
X12842157Y-7822874D02*
X12861204Y-7813350D01*
X12861204Y-7813350D02*
X12899299Y-7813350D01*
X12899299Y-7813350D02*
X12918347Y-7822874D01*
X12918347Y-7822874D02*
X12927871Y-7832398D01*
X12927871Y-7832398D02*
X12937395Y-7851446D01*
X12937395Y-7851446D02*
X12937395Y-7908589D01*
X12937395Y-7908589D02*
X12927871Y-7927636D01*
X12927871Y-7927636D02*
X12918347Y-7937160D01*
X12918347Y-7937160D02*
X12899299Y-7946684D01*
X12899299Y-7946684D02*
X12861204Y-7946684D01*
X12861204Y-7946684D02*
X12842157Y-7937160D01*
X13023109Y-7927636D02*
X13032633Y-7937160D01*
X13032633Y-7937160D02*
X13023109Y-7946684D01*
X13023109Y-7946684D02*
X13013585Y-7937160D01*
X13013585Y-7937160D02*
X13023109Y-7927636D01*
X13023109Y-7927636D02*
X13023109Y-7946684D01*
X13023109Y-7822874D02*
X13032633Y-7832398D01*
X13032633Y-7832398D02*
X13023109Y-7841922D01*
X13023109Y-7841922D02*
X13013585Y-7832398D01*
X13013585Y-7832398D02*
X13023109Y-7822874D01*
X13023109Y-7822874D02*
X13023109Y-7841922D01*
D12*
X11360904Y-8260200D02*
X11390904Y-8290200D01*
X11390904Y-8260200D02*
X11360904Y-8290200D01*
D11*
X11689776Y-8166684D02*
X11708823Y-8166684D01*
X11708823Y-8166684D02*
X11727871Y-8176208D01*
X11727871Y-8176208D02*
X11737395Y-8185731D01*
X11737395Y-8185731D02*
X11746918Y-8204779D01*
X11746918Y-8204779D02*
X11756442Y-8242874D01*
X11756442Y-8242874D02*
X11756442Y-8290493D01*
X11756442Y-8290493D02*
X11746918Y-8328589D01*
X11746918Y-8328589D02*
X11737395Y-8347636D01*
X11737395Y-8347636D02*
X11727871Y-8357160D01*
X11727871Y-8357160D02*
X11708823Y-8366684D01*
X11708823Y-8366684D02*
X11689776Y-8366684D01*
X11689776Y-8366684D02*
X11670728Y-8357160D01*
X11670728Y-8357160D02*
X11661204Y-8347636D01*
X11661204Y-8347636D02*
X11651680Y-8328589D01*
X11651680Y-8328589D02*
X11642157Y-8290493D01*
X11642157Y-8290493D02*
X11642157Y-8242874D01*
X11642157Y-8242874D02*
X11651680Y-8204779D01*
X11651680Y-8204779D02*
X11661204Y-8185731D01*
X11661204Y-8185731D02*
X11670728Y-8176208D01*
X11670728Y-8176208D02*
X11689776Y-8166684D01*
X11842157Y-8347636D02*
X11851680Y-8357160D01*
X11851680Y-8357160D02*
X11842157Y-8366684D01*
X11842157Y-8366684D02*
X11832633Y-8357160D01*
X11832633Y-8357160D02*
X11842157Y-8347636D01*
X11842157Y-8347636D02*
X11842157Y-8366684D01*
X11918347Y-8166684D02*
X12042157Y-8166684D01*
X12042157Y-8166684D02*
X11975490Y-8242874D01*
X11975490Y-8242874D02*
X12004061Y-8242874D01*
X12004061Y-8242874D02*
X12023109Y-8252398D01*
X12023109Y-8252398D02*
X12032633Y-8261922D01*
X12032633Y-8261922D02*
X12042157Y-8280970D01*
X12042157Y-8280970D02*
X12042157Y-8328589D01*
X12042157Y-8328589D02*
X12032633Y-8347636D01*
X12032633Y-8347636D02*
X12023109Y-8357160D01*
X12023109Y-8357160D02*
X12004061Y-8366684D01*
X12004061Y-8366684D02*
X11946918Y-8366684D01*
X11946918Y-8366684D02*
X11927871Y-8357160D01*
X11927871Y-8357160D02*
X11918347Y-8347636D01*
X12165966Y-8166684D02*
X12185014Y-8166684D01*
X12185014Y-8166684D02*
X12204061Y-8176208D01*
X12204061Y-8176208D02*
X12213585Y-8185731D01*
X12213585Y-8185731D02*
X12223109Y-8204779D01*
X12223109Y-8204779D02*
X12232633Y-8242874D01*
X12232633Y-8242874D02*
X12232633Y-8290493D01*
X12232633Y-8290493D02*
X12223109Y-8328589D01*
X12223109Y-8328589D02*
X12213585Y-8347636D01*
X12213585Y-8347636D02*
X12204061Y-8357160D01*
X12204061Y-8357160D02*
X12185014Y-8366684D01*
X12185014Y-8366684D02*
X12165966Y-8366684D01*
X12165966Y-8366684D02*
X12146918Y-8357160D01*
X12146918Y-8357160D02*
X12137395Y-8347636D01*
X12137395Y-8347636D02*
X12127871Y-8328589D01*
X12127871Y-8328589D02*
X12118347Y-8290493D01*
X12118347Y-8290493D02*
X12118347Y-8242874D01*
X12118347Y-8242874D02*
X12127871Y-8204779D01*
X12127871Y-8204779D02*
X12137395Y-8185731D01*
X12137395Y-8185731D02*
X12146918Y-8176208D01*
X12146918Y-8176208D02*
X12165966Y-8166684D01*
X12356442Y-8166684D02*
X12375490Y-8166684D01*
X12375490Y-8166684D02*
X12394538Y-8176208D01*
X12394538Y-8176208D02*
X12404061Y-8185731D01*
X12404061Y-8185731D02*
X12413585Y-8204779D01*
X12413585Y-8204779D02*
X12423109Y-8242874D01*
X12423109Y-8242874D02*
X12423109Y-8290493D01*
X12423109Y-8290493D02*
X12413585Y-8328589D01*
X12413585Y-8328589D02*
X12404061Y-8347636D01*
X12404061Y-8347636D02*
X12394538Y-8357160D01*
X12394538Y-8357160D02*
X12375490Y-8366684D01*
X12375490Y-8366684D02*
X12356442Y-8366684D01*
X12356442Y-8366684D02*
X12337395Y-8357160D01*
X12337395Y-8357160D02*
X12327871Y-8347636D01*
X12327871Y-8347636D02*
X12318347Y-8328589D01*
X12318347Y-8328589D02*
X12308823Y-8290493D01*
X12308823Y-8290493D02*
X12308823Y-8242874D01*
X12308823Y-8242874D02*
X12318347Y-8204779D01*
X12318347Y-8204779D02*
X12327871Y-8185731D01*
X12327871Y-8185731D02*
X12337395Y-8176208D01*
X12337395Y-8176208D02*
X12356442Y-8166684D01*
X12508823Y-8366684D02*
X12508823Y-8233350D01*
X12508823Y-8252398D02*
X12518347Y-8242874D01*
X12518347Y-8242874D02*
X12537395Y-8233350D01*
X12537395Y-8233350D02*
X12565966Y-8233350D01*
X12565966Y-8233350D02*
X12585014Y-8242874D01*
X12585014Y-8242874D02*
X12594538Y-8261922D01*
X12594538Y-8261922D02*
X12594538Y-8366684D01*
X12594538Y-8261922D02*
X12604061Y-8242874D01*
X12604061Y-8242874D02*
X12623109Y-8233350D01*
X12623109Y-8233350D02*
X12651680Y-8233350D01*
X12651680Y-8233350D02*
X12670728Y-8242874D01*
X12670728Y-8242874D02*
X12680252Y-8261922D01*
X12680252Y-8261922D02*
X12680252Y-8366684D01*
X12775490Y-8366684D02*
X12775490Y-8233350D01*
X12775490Y-8252398D02*
X12785014Y-8242874D01*
X12785014Y-8242874D02*
X12804061Y-8233350D01*
X12804061Y-8233350D02*
X12832633Y-8233350D01*
X12832633Y-8233350D02*
X12851680Y-8242874D01*
X12851680Y-8242874D02*
X12861204Y-8261922D01*
X12861204Y-8261922D02*
X12861204Y-8366684D01*
X12861204Y-8261922D02*
X12870728Y-8242874D01*
X12870728Y-8242874D02*
X12889776Y-8233350D01*
X12889776Y-8233350D02*
X12918347Y-8233350D01*
X12918347Y-8233350D02*
X12937395Y-8242874D01*
X12937395Y-8242874D02*
X12946919Y-8261922D01*
X12946919Y-8261922D02*
X12946919Y-8366684D01*
X13337395Y-8157160D02*
X13165966Y-8414303D01*
X13594538Y-8166684D02*
X13613585Y-8166684D01*
X13613585Y-8166684D02*
X13632633Y-8176208D01*
X13632633Y-8176208D02*
X13642157Y-8185731D01*
X13642157Y-8185731D02*
X13651681Y-8204779D01*
X13651681Y-8204779D02*
X13661204Y-8242874D01*
X13661204Y-8242874D02*
X13661204Y-8290493D01*
X13661204Y-8290493D02*
X13651681Y-8328589D01*
X13651681Y-8328589D02*
X13642157Y-8347636D01*
X13642157Y-8347636D02*
X13632633Y-8357160D01*
X13632633Y-8357160D02*
X13613585Y-8366684D01*
X13613585Y-8366684D02*
X13594538Y-8366684D01*
X13594538Y-8366684D02*
X13575490Y-8357160D01*
X13575490Y-8357160D02*
X13565966Y-8347636D01*
X13565966Y-8347636D02*
X13556442Y-8328589D01*
X13556442Y-8328589D02*
X13546919Y-8290493D01*
X13546919Y-8290493D02*
X13546919Y-8242874D01*
X13546919Y-8242874D02*
X13556442Y-8204779D01*
X13556442Y-8204779D02*
X13565966Y-8185731D01*
X13565966Y-8185731D02*
X13575490Y-8176208D01*
X13575490Y-8176208D02*
X13594538Y-8166684D01*
X13746919Y-8347636D02*
X13756442Y-8357160D01*
X13756442Y-8357160D02*
X13746919Y-8366684D01*
X13746919Y-8366684D02*
X13737395Y-8357160D01*
X13737395Y-8357160D02*
X13746919Y-8347636D01*
X13746919Y-8347636D02*
X13746919Y-8366684D01*
X13880252Y-8166684D02*
X13899300Y-8166684D01*
X13899300Y-8166684D02*
X13918347Y-8176208D01*
X13918347Y-8176208D02*
X13927871Y-8185731D01*
X13927871Y-8185731D02*
X13937395Y-8204779D01*
X13937395Y-8204779D02*
X13946919Y-8242874D01*
X13946919Y-8242874D02*
X13946919Y-8290493D01*
X13946919Y-8290493D02*
X13937395Y-8328589D01*
X13937395Y-8328589D02*
X13927871Y-8347636D01*
X13927871Y-8347636D02*
X13918347Y-8357160D01*
X13918347Y-8357160D02*
X13899300Y-8366684D01*
X13899300Y-8366684D02*
X13880252Y-8366684D01*
X13880252Y-8366684D02*
X13861204Y-8357160D01*
X13861204Y-8357160D02*
X13851681Y-8347636D01*
X13851681Y-8347636D02*
X13842157Y-8328589D01*
X13842157Y-8328589D02*
X13832633Y-8290493D01*
X13832633Y-8290493D02*
X13832633Y-8242874D01*
X13832633Y-8242874D02*
X13842157Y-8204779D01*
X13842157Y-8204779D02*
X13851681Y-8185731D01*
X13851681Y-8185731D02*
X13861204Y-8176208D01*
X13861204Y-8176208D02*
X13880252Y-8166684D01*
X14137395Y-8366684D02*
X14023109Y-8366684D01*
X14080252Y-8366684D02*
X14080252Y-8166684D01*
X14080252Y-8166684D02*
X14061204Y-8195255D01*
X14061204Y-8195255D02*
X14042157Y-8214303D01*
X14042157Y-8214303D02*
X14023109Y-8223827D01*
X14327871Y-8366684D02*
X14213585Y-8366684D01*
X14270728Y-8366684D02*
X14270728Y-8166684D01*
X14270728Y-8166684D02*
X14251681Y-8195255D01*
X14251681Y-8195255D02*
X14232633Y-8214303D01*
X14232633Y-8214303D02*
X14213585Y-8223827D01*
X14442157Y-8252398D02*
X14423109Y-8242874D01*
X14423109Y-8242874D02*
X14413585Y-8233350D01*
X14413585Y-8233350D02*
X14404062Y-8214303D01*
X14404062Y-8214303D02*
X14404062Y-8204779D01*
X14404062Y-8204779D02*
X14413585Y-8185731D01*
X14413585Y-8185731D02*
X14423109Y-8176208D01*
X14423109Y-8176208D02*
X14442157Y-8166684D01*
X14442157Y-8166684D02*
X14480252Y-8166684D01*
X14480252Y-8166684D02*
X14499300Y-8176208D01*
X14499300Y-8176208D02*
X14508823Y-8185731D01*
X14508823Y-8185731D02*
X14518347Y-8204779D01*
X14518347Y-8204779D02*
X14518347Y-8214303D01*
X14518347Y-8214303D02*
X14508823Y-8233350D01*
X14508823Y-8233350D02*
X14499300Y-8242874D01*
X14499300Y-8242874D02*
X14480252Y-8252398D01*
X14480252Y-8252398D02*
X14442157Y-8252398D01*
X14442157Y-8252398D02*
X14423109Y-8261922D01*
X14423109Y-8261922D02*
X14413585Y-8271446D01*
X14413585Y-8271446D02*
X14404062Y-8290493D01*
X14404062Y-8290493D02*
X14404062Y-8328589D01*
X14404062Y-8328589D02*
X14413585Y-8347636D01*
X14413585Y-8347636D02*
X14423109Y-8357160D01*
X14423109Y-8357160D02*
X14442157Y-8366684D01*
X14442157Y-8366684D02*
X14480252Y-8366684D01*
X14480252Y-8366684D02*
X14499300Y-8357160D01*
X14499300Y-8357160D02*
X14508823Y-8347636D01*
X14508823Y-8347636D02*
X14518347Y-8328589D01*
X14518347Y-8328589D02*
X14518347Y-8290493D01*
X14518347Y-8290493D02*
X14508823Y-8271446D01*
X14508823Y-8271446D02*
X14499300Y-8261922D01*
X14499300Y-8261922D02*
X14480252Y-8252398D01*
X14594538Y-8166684D02*
X14594538Y-8204779D01*
X14670728Y-8166684D02*
X14670728Y-8204779D01*
X14965966Y-8442874D02*
X14956443Y-8433351D01*
X14956443Y-8433351D02*
X14937395Y-8404779D01*
X14937395Y-8404779D02*
X14927871Y-8385731D01*
X14927871Y-8385731D02*
X14918347Y-8357160D01*
X14918347Y-8357160D02*
X14908824Y-8309541D01*
X14908824Y-8309541D02*
X14908824Y-8271446D01*
X14908824Y-8271446D02*
X14918347Y-8223827D01*
X14918347Y-8223827D02*
X14927871Y-8195255D01*
X14927871Y-8195255D02*
X14937395Y-8176208D01*
X14937395Y-8176208D02*
X14956443Y-8147636D01*
X14956443Y-8147636D02*
X14965966Y-8138112D01*
X15146919Y-8366684D02*
X15032633Y-8366684D01*
X15089776Y-8366684D02*
X15089776Y-8166684D01*
X15089776Y-8166684D02*
X15070728Y-8195255D01*
X15070728Y-8195255D02*
X15051681Y-8214303D01*
X15051681Y-8214303D02*
X15032633Y-8223827D01*
X15261204Y-8252398D02*
X15242157Y-8242874D01*
X15242157Y-8242874D02*
X15232633Y-8233350D01*
X15232633Y-8233350D02*
X15223109Y-8214303D01*
X15223109Y-8214303D02*
X15223109Y-8204779D01*
X15223109Y-8204779D02*
X15232633Y-8185731D01*
X15232633Y-8185731D02*
X15242157Y-8176208D01*
X15242157Y-8176208D02*
X15261204Y-8166684D01*
X15261204Y-8166684D02*
X15299300Y-8166684D01*
X15299300Y-8166684D02*
X15318347Y-8176208D01*
X15318347Y-8176208D02*
X15327871Y-8185731D01*
X15327871Y-8185731D02*
X15337395Y-8204779D01*
X15337395Y-8204779D02*
X15337395Y-8214303D01*
X15337395Y-8214303D02*
X15327871Y-8233350D01*
X15327871Y-8233350D02*
X15318347Y-8242874D01*
X15318347Y-8242874D02*
X15299300Y-8252398D01*
X15299300Y-8252398D02*
X15261204Y-8252398D01*
X15261204Y-8252398D02*
X15242157Y-8261922D01*
X15242157Y-8261922D02*
X15232633Y-8271446D01*
X15232633Y-8271446D02*
X15223109Y-8290493D01*
X15223109Y-8290493D02*
X15223109Y-8328589D01*
X15223109Y-8328589D02*
X15232633Y-8347636D01*
X15232633Y-8347636D02*
X15242157Y-8357160D01*
X15242157Y-8357160D02*
X15261204Y-8366684D01*
X15261204Y-8366684D02*
X15299300Y-8366684D01*
X15299300Y-8366684D02*
X15318347Y-8357160D01*
X15318347Y-8357160D02*
X15327871Y-8347636D01*
X15327871Y-8347636D02*
X15337395Y-8328589D01*
X15337395Y-8328589D02*
X15337395Y-8290493D01*
X15337395Y-8290493D02*
X15327871Y-8271446D01*
X15327871Y-8271446D02*
X15318347Y-8261922D01*
X15318347Y-8261922D02*
X15299300Y-8252398D01*
X15451681Y-8252398D02*
X15432633Y-8242874D01*
X15432633Y-8242874D02*
X15423109Y-8233350D01*
X15423109Y-8233350D02*
X15413585Y-8214303D01*
X15413585Y-8214303D02*
X15413585Y-8204779D01*
X15413585Y-8204779D02*
X15423109Y-8185731D01*
X15423109Y-8185731D02*
X15432633Y-8176208D01*
X15432633Y-8176208D02*
X15451681Y-8166684D01*
X15451681Y-8166684D02*
X15489776Y-8166684D01*
X15489776Y-8166684D02*
X15508824Y-8176208D01*
X15508824Y-8176208D02*
X15518347Y-8185731D01*
X15518347Y-8185731D02*
X15527871Y-8204779D01*
X15527871Y-8204779D02*
X15527871Y-8214303D01*
X15527871Y-8214303D02*
X15518347Y-8233350D01*
X15518347Y-8233350D02*
X15508824Y-8242874D01*
X15508824Y-8242874D02*
X15489776Y-8252398D01*
X15489776Y-8252398D02*
X15451681Y-8252398D01*
X15451681Y-8252398D02*
X15432633Y-8261922D01*
X15432633Y-8261922D02*
X15423109Y-8271446D01*
X15423109Y-8271446D02*
X15413585Y-8290493D01*
X15413585Y-8290493D02*
X15413585Y-8328589D01*
X15413585Y-8328589D02*
X15423109Y-8347636D01*
X15423109Y-8347636D02*
X15432633Y-8357160D01*
X15432633Y-8357160D02*
X15451681Y-8366684D01*
X15451681Y-8366684D02*
X15489776Y-8366684D01*
X15489776Y-8366684D02*
X15508824Y-8357160D01*
X15508824Y-8357160D02*
X15518347Y-8347636D01*
X15518347Y-8347636D02*
X15527871Y-8328589D01*
X15527871Y-8328589D02*
X15527871Y-8290493D01*
X15527871Y-8290493D02*
X15518347Y-8271446D01*
X15518347Y-8271446D02*
X15508824Y-8261922D01*
X15508824Y-8261922D02*
X15489776Y-8252398D01*
X15765966Y-8366684D02*
X15765966Y-8166684D01*
X15851681Y-8366684D02*
X15851681Y-8261922D01*
X15851681Y-8261922D02*
X15842157Y-8242874D01*
X15842157Y-8242874D02*
X15823109Y-8233350D01*
X15823109Y-8233350D02*
X15794538Y-8233350D01*
X15794538Y-8233350D02*
X15775490Y-8242874D01*
X15775490Y-8242874D02*
X15765966Y-8252398D01*
X15975490Y-8366684D02*
X15956443Y-8357160D01*
X15956443Y-8357160D02*
X15946919Y-8347636D01*
X15946919Y-8347636D02*
X15937395Y-8328589D01*
X15937395Y-8328589D02*
X15937395Y-8271446D01*
X15937395Y-8271446D02*
X15946919Y-8252398D01*
X15946919Y-8252398D02*
X15956443Y-8242874D01*
X15956443Y-8242874D02*
X15975490Y-8233350D01*
X15975490Y-8233350D02*
X16004062Y-8233350D01*
X16004062Y-8233350D02*
X16023109Y-8242874D01*
X16023109Y-8242874D02*
X16032633Y-8252398D01*
X16032633Y-8252398D02*
X16042157Y-8271446D01*
X16042157Y-8271446D02*
X16042157Y-8328589D01*
X16042157Y-8328589D02*
X16032633Y-8347636D01*
X16032633Y-8347636D02*
X16023109Y-8357160D01*
X16023109Y-8357160D02*
X16004062Y-8366684D01*
X16004062Y-8366684D02*
X15975490Y-8366684D01*
X16156443Y-8366684D02*
X16137395Y-8357160D01*
X16137395Y-8357160D02*
X16127871Y-8338112D01*
X16127871Y-8338112D02*
X16127871Y-8166684D01*
X16308824Y-8357160D02*
X16289776Y-8366684D01*
X16289776Y-8366684D02*
X16251681Y-8366684D01*
X16251681Y-8366684D02*
X16232633Y-8357160D01*
X16232633Y-8357160D02*
X16223109Y-8338112D01*
X16223109Y-8338112D02*
X16223109Y-8261922D01*
X16223109Y-8261922D02*
X16232633Y-8242874D01*
X16232633Y-8242874D02*
X16251681Y-8233350D01*
X16251681Y-8233350D02*
X16289776Y-8233350D01*
X16289776Y-8233350D02*
X16308824Y-8242874D01*
X16308824Y-8242874D02*
X16318347Y-8261922D01*
X16318347Y-8261922D02*
X16318347Y-8280970D01*
X16318347Y-8280970D02*
X16223109Y-8300017D01*
X16394538Y-8357160D02*
X16413586Y-8366684D01*
X16413586Y-8366684D02*
X16451681Y-8366684D01*
X16451681Y-8366684D02*
X16470728Y-8357160D01*
X16470728Y-8357160D02*
X16480252Y-8338112D01*
X16480252Y-8338112D02*
X16480252Y-8328589D01*
X16480252Y-8328589D02*
X16470728Y-8309541D01*
X16470728Y-8309541D02*
X16451681Y-8300017D01*
X16451681Y-8300017D02*
X16423109Y-8300017D01*
X16423109Y-8300017D02*
X16404062Y-8290493D01*
X16404062Y-8290493D02*
X16394538Y-8271446D01*
X16394538Y-8271446D02*
X16394538Y-8261922D01*
X16394538Y-8261922D02*
X16404062Y-8242874D01*
X16404062Y-8242874D02*
X16423109Y-8233350D01*
X16423109Y-8233350D02*
X16451681Y-8233350D01*
X16451681Y-8233350D02*
X16470728Y-8242874D01*
X16546919Y-8442874D02*
X16556443Y-8433351D01*
X16556443Y-8433351D02*
X16575490Y-8404779D01*
X16575490Y-8404779D02*
X16585014Y-8385731D01*
X16585014Y-8385731D02*
X16594538Y-8357160D01*
X16594538Y-8357160D02*
X16604062Y-8309541D01*
X16604062Y-8309541D02*
X16604062Y-8271446D01*
X16604062Y-8271446D02*
X16594538Y-8223827D01*
X16594538Y-8223827D02*
X16585014Y-8195255D01*
X16585014Y-8195255D02*
X16575490Y-8176208D01*
X16575490Y-8176208D02*
X16556443Y-8147636D01*
X16556443Y-8147636D02*
X16546919Y-8138112D01*
D12*
X11390904Y-8539200D02*
G75*
G02*
X11314704Y-8539200I-38100J0D01*
G01*
X11314704Y-8539200D02*
G75*
G02*
X11390904Y-8539200I38100J0D01*
G01*
D11*
X11689776Y-8430684D02*
X11708823Y-8430684D01*
X11708823Y-8430684D02*
X11727871Y-8440208D01*
X11727871Y-8440208D02*
X11737395Y-8449732D01*
X11737395Y-8449732D02*
X11746918Y-8468779D01*
X11746918Y-8468779D02*
X11756442Y-8506874D01*
X11756442Y-8506874D02*
X11756442Y-8554493D01*
X11756442Y-8554493D02*
X11746918Y-8592589D01*
X11746918Y-8592589D02*
X11737395Y-8611636D01*
X11737395Y-8611636D02*
X11727871Y-8621160D01*
X11727871Y-8621160D02*
X11708823Y-8630684D01*
X11708823Y-8630684D02*
X11689776Y-8630684D01*
X11689776Y-8630684D02*
X11670728Y-8621160D01*
X11670728Y-8621160D02*
X11661204Y-8611636D01*
X11661204Y-8611636D02*
X11651680Y-8592589D01*
X11651680Y-8592589D02*
X11642157Y-8554493D01*
X11642157Y-8554493D02*
X11642157Y-8506874D01*
X11642157Y-8506874D02*
X11651680Y-8468779D01*
X11651680Y-8468779D02*
X11661204Y-8449732D01*
X11661204Y-8449732D02*
X11670728Y-8440208D01*
X11670728Y-8440208D02*
X11689776Y-8430684D01*
X11842157Y-8611636D02*
X11851680Y-8621160D01*
X11851680Y-8621160D02*
X11842157Y-8630684D01*
X11842157Y-8630684D02*
X11832633Y-8621160D01*
X11832633Y-8621160D02*
X11842157Y-8611636D01*
X11842157Y-8611636D02*
X11842157Y-8630684D01*
X11918347Y-8430684D02*
X12051680Y-8430684D01*
X12051680Y-8430684D02*
X11965966Y-8630684D01*
X12213585Y-8430684D02*
X12175490Y-8430684D01*
X12175490Y-8430684D02*
X12156442Y-8440208D01*
X12156442Y-8440208D02*
X12146918Y-8449732D01*
X12146918Y-8449732D02*
X12127871Y-8478303D01*
X12127871Y-8478303D02*
X12118347Y-8516398D01*
X12118347Y-8516398D02*
X12118347Y-8592589D01*
X12118347Y-8592589D02*
X12127871Y-8611636D01*
X12127871Y-8611636D02*
X12137395Y-8621160D01*
X12137395Y-8621160D02*
X12156442Y-8630684D01*
X12156442Y-8630684D02*
X12194538Y-8630684D01*
X12194538Y-8630684D02*
X12213585Y-8621160D01*
X12213585Y-8621160D02*
X12223109Y-8611636D01*
X12223109Y-8611636D02*
X12232633Y-8592589D01*
X12232633Y-8592589D02*
X12232633Y-8544970D01*
X12232633Y-8544970D02*
X12223109Y-8525922D01*
X12223109Y-8525922D02*
X12213585Y-8516398D01*
X12213585Y-8516398D02*
X12194538Y-8506874D01*
X12194538Y-8506874D02*
X12156442Y-8506874D01*
X12156442Y-8506874D02*
X12137395Y-8516398D01*
X12137395Y-8516398D02*
X12127871Y-8525922D01*
X12127871Y-8525922D02*
X12118347Y-8544970D01*
X12308823Y-8449732D02*
X12318347Y-8440208D01*
X12318347Y-8440208D02*
X12337395Y-8430684D01*
X12337395Y-8430684D02*
X12385014Y-8430684D01*
X12385014Y-8430684D02*
X12404061Y-8440208D01*
X12404061Y-8440208D02*
X12413585Y-8449732D01*
X12413585Y-8449732D02*
X12423109Y-8468779D01*
X12423109Y-8468779D02*
X12423109Y-8487827D01*
X12423109Y-8487827D02*
X12413585Y-8516398D01*
X12413585Y-8516398D02*
X12299299Y-8630684D01*
X12299299Y-8630684D02*
X12423109Y-8630684D01*
X12508823Y-8630684D02*
X12508823Y-8497351D01*
X12508823Y-8516398D02*
X12518347Y-8506874D01*
X12518347Y-8506874D02*
X12537395Y-8497351D01*
X12537395Y-8497351D02*
X12565966Y-8497351D01*
X12565966Y-8497351D02*
X12585014Y-8506874D01*
X12585014Y-8506874D02*
X12594538Y-8525922D01*
X12594538Y-8525922D02*
X12594538Y-8630684D01*
X12594538Y-8525922D02*
X12604061Y-8506874D01*
X12604061Y-8506874D02*
X12623109Y-8497351D01*
X12623109Y-8497351D02*
X12651680Y-8497351D01*
X12651680Y-8497351D02*
X12670728Y-8506874D01*
X12670728Y-8506874D02*
X12680252Y-8525922D01*
X12680252Y-8525922D02*
X12680252Y-8630684D01*
X12775490Y-8630684D02*
X12775490Y-8497351D01*
X12775490Y-8516398D02*
X12785014Y-8506874D01*
X12785014Y-8506874D02*
X12804061Y-8497351D01*
X12804061Y-8497351D02*
X12832633Y-8497351D01*
X12832633Y-8497351D02*
X12851680Y-8506874D01*
X12851680Y-8506874D02*
X12861204Y-8525922D01*
X12861204Y-8525922D02*
X12861204Y-8630684D01*
X12861204Y-8525922D02*
X12870728Y-8506874D01*
X12870728Y-8506874D02*
X12889776Y-8497351D01*
X12889776Y-8497351D02*
X12918347Y-8497351D01*
X12918347Y-8497351D02*
X12937395Y-8506874D01*
X12937395Y-8506874D02*
X12946919Y-8525922D01*
X12946919Y-8525922D02*
X12946919Y-8630684D01*
X13337395Y-8421160D02*
X13165966Y-8678303D01*
X13594538Y-8430684D02*
X13613585Y-8430684D01*
X13613585Y-8430684D02*
X13632633Y-8440208D01*
X13632633Y-8440208D02*
X13642157Y-8449732D01*
X13642157Y-8449732D02*
X13651681Y-8468779D01*
X13651681Y-8468779D02*
X13661204Y-8506874D01*
X13661204Y-8506874D02*
X13661204Y-8554493D01*
X13661204Y-8554493D02*
X13651681Y-8592589D01*
X13651681Y-8592589D02*
X13642157Y-8611636D01*
X13642157Y-8611636D02*
X13632633Y-8621160D01*
X13632633Y-8621160D02*
X13613585Y-8630684D01*
X13613585Y-8630684D02*
X13594538Y-8630684D01*
X13594538Y-8630684D02*
X13575490Y-8621160D01*
X13575490Y-8621160D02*
X13565966Y-8611636D01*
X13565966Y-8611636D02*
X13556442Y-8592589D01*
X13556442Y-8592589D02*
X13546919Y-8554493D01*
X13546919Y-8554493D02*
X13546919Y-8506874D01*
X13546919Y-8506874D02*
X13556442Y-8468779D01*
X13556442Y-8468779D02*
X13565966Y-8449732D01*
X13565966Y-8449732D02*
X13575490Y-8440208D01*
X13575490Y-8440208D02*
X13594538Y-8430684D01*
X13746919Y-8611636D02*
X13756442Y-8621160D01*
X13756442Y-8621160D02*
X13746919Y-8630684D01*
X13746919Y-8630684D02*
X13737395Y-8621160D01*
X13737395Y-8621160D02*
X13746919Y-8611636D01*
X13746919Y-8611636D02*
X13746919Y-8630684D01*
X13880252Y-8430684D02*
X13899300Y-8430684D01*
X13899300Y-8430684D02*
X13918347Y-8440208D01*
X13918347Y-8440208D02*
X13927871Y-8449732D01*
X13927871Y-8449732D02*
X13937395Y-8468779D01*
X13937395Y-8468779D02*
X13946919Y-8506874D01*
X13946919Y-8506874D02*
X13946919Y-8554493D01*
X13946919Y-8554493D02*
X13937395Y-8592589D01*
X13937395Y-8592589D02*
X13927871Y-8611636D01*
X13927871Y-8611636D02*
X13918347Y-8621160D01*
X13918347Y-8621160D02*
X13899300Y-8630684D01*
X13899300Y-8630684D02*
X13880252Y-8630684D01*
X13880252Y-8630684D02*
X13861204Y-8621160D01*
X13861204Y-8621160D02*
X13851681Y-8611636D01*
X13851681Y-8611636D02*
X13842157Y-8592589D01*
X13842157Y-8592589D02*
X13832633Y-8554493D01*
X13832633Y-8554493D02*
X13832633Y-8506874D01*
X13832633Y-8506874D02*
X13842157Y-8468779D01*
X13842157Y-8468779D02*
X13851681Y-8449732D01*
X13851681Y-8449732D02*
X13861204Y-8440208D01*
X13861204Y-8440208D02*
X13880252Y-8430684D01*
X14013585Y-8430684D02*
X14137395Y-8430684D01*
X14137395Y-8430684D02*
X14070728Y-8506874D01*
X14070728Y-8506874D02*
X14099300Y-8506874D01*
X14099300Y-8506874D02*
X14118347Y-8516398D01*
X14118347Y-8516398D02*
X14127871Y-8525922D01*
X14127871Y-8525922D02*
X14137395Y-8544970D01*
X14137395Y-8544970D02*
X14137395Y-8592589D01*
X14137395Y-8592589D02*
X14127871Y-8611636D01*
X14127871Y-8611636D02*
X14118347Y-8621160D01*
X14118347Y-8621160D02*
X14099300Y-8630684D01*
X14099300Y-8630684D02*
X14042157Y-8630684D01*
X14042157Y-8630684D02*
X14023109Y-8621160D01*
X14023109Y-8621160D02*
X14013585Y-8611636D01*
X14261204Y-8430684D02*
X14280252Y-8430684D01*
X14280252Y-8430684D02*
X14299300Y-8440208D01*
X14299300Y-8440208D02*
X14308823Y-8449732D01*
X14308823Y-8449732D02*
X14318347Y-8468779D01*
X14318347Y-8468779D02*
X14327871Y-8506874D01*
X14327871Y-8506874D02*
X14327871Y-8554493D01*
X14327871Y-8554493D02*
X14318347Y-8592589D01*
X14318347Y-8592589D02*
X14308823Y-8611636D01*
X14308823Y-8611636D02*
X14299300Y-8621160D01*
X14299300Y-8621160D02*
X14280252Y-8630684D01*
X14280252Y-8630684D02*
X14261204Y-8630684D01*
X14261204Y-8630684D02*
X14242157Y-8621160D01*
X14242157Y-8621160D02*
X14232633Y-8611636D01*
X14232633Y-8611636D02*
X14223109Y-8592589D01*
X14223109Y-8592589D02*
X14213585Y-8554493D01*
X14213585Y-8554493D02*
X14213585Y-8506874D01*
X14213585Y-8506874D02*
X14223109Y-8468779D01*
X14223109Y-8468779D02*
X14232633Y-8449732D01*
X14232633Y-8449732D02*
X14242157Y-8440208D01*
X14242157Y-8440208D02*
X14261204Y-8430684D01*
X14451681Y-8430684D02*
X14470728Y-8430684D01*
X14470728Y-8430684D02*
X14489776Y-8440208D01*
X14489776Y-8440208D02*
X14499300Y-8449732D01*
X14499300Y-8449732D02*
X14508823Y-8468779D01*
X14508823Y-8468779D02*
X14518347Y-8506874D01*
X14518347Y-8506874D02*
X14518347Y-8554493D01*
X14518347Y-8554493D02*
X14508823Y-8592589D01*
X14508823Y-8592589D02*
X14499300Y-8611636D01*
X14499300Y-8611636D02*
X14489776Y-8621160D01*
X14489776Y-8621160D02*
X14470728Y-8630684D01*
X14470728Y-8630684D02*
X14451681Y-8630684D01*
X14451681Y-8630684D02*
X14432633Y-8621160D01*
X14432633Y-8621160D02*
X14423109Y-8611636D01*
X14423109Y-8611636D02*
X14413585Y-8592589D01*
X14413585Y-8592589D02*
X14404062Y-8554493D01*
X14404062Y-8554493D02*
X14404062Y-8506874D01*
X14404062Y-8506874D02*
X14413585Y-8468779D01*
X14413585Y-8468779D02*
X14423109Y-8449732D01*
X14423109Y-8449732D02*
X14432633Y-8440208D01*
X14432633Y-8440208D02*
X14451681Y-8430684D01*
X14594538Y-8430684D02*
X14594538Y-8468779D01*
X14670728Y-8430684D02*
X14670728Y-8468779D01*
X14965966Y-8706874D02*
X14956443Y-8697351D01*
X14956443Y-8697351D02*
X14937395Y-8668779D01*
X14937395Y-8668779D02*
X14927871Y-8649732D01*
X14927871Y-8649732D02*
X14918347Y-8621160D01*
X14918347Y-8621160D02*
X14908824Y-8573541D01*
X14908824Y-8573541D02*
X14908824Y-8535446D01*
X14908824Y-8535446D02*
X14918347Y-8487827D01*
X14918347Y-8487827D02*
X14927871Y-8459255D01*
X14927871Y-8459255D02*
X14937395Y-8440208D01*
X14937395Y-8440208D02*
X14956443Y-8411636D01*
X14956443Y-8411636D02*
X14965966Y-8402112D01*
X15127871Y-8497351D02*
X15127871Y-8630684D01*
X15080252Y-8421160D02*
X15032633Y-8564017D01*
X15032633Y-8564017D02*
X15156443Y-8564017D01*
X15385014Y-8630684D02*
X15385014Y-8430684D01*
X15470728Y-8630684D02*
X15470728Y-8525922D01*
X15470728Y-8525922D02*
X15461205Y-8506874D01*
X15461205Y-8506874D02*
X15442157Y-8497351D01*
X15442157Y-8497351D02*
X15413585Y-8497351D01*
X15413585Y-8497351D02*
X15394538Y-8506874D01*
X15394538Y-8506874D02*
X15385014Y-8516398D01*
X15594538Y-8630684D02*
X15575490Y-8621160D01*
X15575490Y-8621160D02*
X15565966Y-8611636D01*
X15565966Y-8611636D02*
X15556443Y-8592589D01*
X15556443Y-8592589D02*
X15556443Y-8535446D01*
X15556443Y-8535446D02*
X15565966Y-8516398D01*
X15565966Y-8516398D02*
X15575490Y-8506874D01*
X15575490Y-8506874D02*
X15594538Y-8497351D01*
X15594538Y-8497351D02*
X15623109Y-8497351D01*
X15623109Y-8497351D02*
X15642157Y-8506874D01*
X15642157Y-8506874D02*
X15651681Y-8516398D01*
X15651681Y-8516398D02*
X15661205Y-8535446D01*
X15661205Y-8535446D02*
X15661205Y-8592589D01*
X15661205Y-8592589D02*
X15651681Y-8611636D01*
X15651681Y-8611636D02*
X15642157Y-8621160D01*
X15642157Y-8621160D02*
X15623109Y-8630684D01*
X15623109Y-8630684D02*
X15594538Y-8630684D01*
X15775490Y-8630684D02*
X15756443Y-8621160D01*
X15756443Y-8621160D02*
X15746919Y-8602112D01*
X15746919Y-8602112D02*
X15746919Y-8430684D01*
X15927871Y-8621160D02*
X15908824Y-8630684D01*
X15908824Y-8630684D02*
X15870728Y-8630684D01*
X15870728Y-8630684D02*
X15851681Y-8621160D01*
X15851681Y-8621160D02*
X15842157Y-8602112D01*
X15842157Y-8602112D02*
X15842157Y-8525922D01*
X15842157Y-8525922D02*
X15851681Y-8506874D01*
X15851681Y-8506874D02*
X15870728Y-8497351D01*
X15870728Y-8497351D02*
X15908824Y-8497351D01*
X15908824Y-8497351D02*
X15927871Y-8506874D01*
X15927871Y-8506874D02*
X15937395Y-8525922D01*
X15937395Y-8525922D02*
X15937395Y-8544970D01*
X15937395Y-8544970D02*
X15842157Y-8564017D01*
X16013586Y-8621160D02*
X16032633Y-8630684D01*
X16032633Y-8630684D02*
X16070728Y-8630684D01*
X16070728Y-8630684D02*
X16089776Y-8621160D01*
X16089776Y-8621160D02*
X16099300Y-8602112D01*
X16099300Y-8602112D02*
X16099300Y-8592589D01*
X16099300Y-8592589D02*
X16089776Y-8573541D01*
X16089776Y-8573541D02*
X16070728Y-8564017D01*
X16070728Y-8564017D02*
X16042157Y-8564017D01*
X16042157Y-8564017D02*
X16023109Y-8554493D01*
X16023109Y-8554493D02*
X16013586Y-8535446D01*
X16013586Y-8535446D02*
X16013586Y-8525922D01*
X16013586Y-8525922D02*
X16023109Y-8506874D01*
X16023109Y-8506874D02*
X16042157Y-8497351D01*
X16042157Y-8497351D02*
X16070728Y-8497351D01*
X16070728Y-8497351D02*
X16089776Y-8506874D01*
X16165967Y-8706874D02*
X16175490Y-8697351D01*
X16175490Y-8697351D02*
X16194538Y-8668779D01*
X16194538Y-8668779D02*
X16204062Y-8649732D01*
X16204062Y-8649732D02*
X16213586Y-8621160D01*
X16213586Y-8621160D02*
X16223109Y-8573541D01*
X16223109Y-8573541D02*
X16223109Y-8535446D01*
X16223109Y-8535446D02*
X16213586Y-8487827D01*
X16213586Y-8487827D02*
X16204062Y-8459255D01*
X16204062Y-8459255D02*
X16194538Y-8440208D01*
X16194538Y-8440208D02*
X16175490Y-8411636D01*
X16175490Y-8411636D02*
X16165967Y-8402112D01*
D12*
X11350904Y-8763200D02*
X11350904Y-8843200D01*
X11310904Y-8803200D02*
X11390904Y-8803200D01*
D11*
X11689776Y-8694684D02*
X11708823Y-8694684D01*
X11708823Y-8694684D02*
X11727871Y-8704208D01*
X11727871Y-8704208D02*
X11737395Y-8713732D01*
X11737395Y-8713732D02*
X11746918Y-8732779D01*
X11746918Y-8732779D02*
X11756442Y-8770874D01*
X11756442Y-8770874D02*
X11756442Y-8818493D01*
X11756442Y-8818493D02*
X11746918Y-8856589D01*
X11746918Y-8856589D02*
X11737395Y-8875636D01*
X11737395Y-8875636D02*
X11727871Y-8885160D01*
X11727871Y-8885160D02*
X11708823Y-8894684D01*
X11708823Y-8894684D02*
X11689776Y-8894684D01*
X11689776Y-8894684D02*
X11670728Y-8885160D01*
X11670728Y-8885160D02*
X11661204Y-8875636D01*
X11661204Y-8875636D02*
X11651680Y-8856589D01*
X11651680Y-8856589D02*
X11642157Y-8818493D01*
X11642157Y-8818493D02*
X11642157Y-8770874D01*
X11642157Y-8770874D02*
X11651680Y-8732779D01*
X11651680Y-8732779D02*
X11661204Y-8713732D01*
X11661204Y-8713732D02*
X11670728Y-8704208D01*
X11670728Y-8704208D02*
X11689776Y-8694684D01*
X11842157Y-8875636D02*
X11851680Y-8885160D01*
X11851680Y-8885160D02*
X11842157Y-8894684D01*
X11842157Y-8894684D02*
X11832633Y-8885160D01*
X11832633Y-8885160D02*
X11842157Y-8875636D01*
X11842157Y-8875636D02*
X11842157Y-8894684D01*
X11965966Y-8780398D02*
X11946918Y-8770874D01*
X11946918Y-8770874D02*
X11937395Y-8761351D01*
X11937395Y-8761351D02*
X11927871Y-8742303D01*
X11927871Y-8742303D02*
X11927871Y-8732779D01*
X11927871Y-8732779D02*
X11937395Y-8713732D01*
X11937395Y-8713732D02*
X11946918Y-8704208D01*
X11946918Y-8704208D02*
X11965966Y-8694684D01*
X11965966Y-8694684D02*
X12004061Y-8694684D01*
X12004061Y-8694684D02*
X12023109Y-8704208D01*
X12023109Y-8704208D02*
X12032633Y-8713732D01*
X12032633Y-8713732D02*
X12042157Y-8732779D01*
X12042157Y-8732779D02*
X12042157Y-8742303D01*
X12042157Y-8742303D02*
X12032633Y-8761351D01*
X12032633Y-8761351D02*
X12023109Y-8770874D01*
X12023109Y-8770874D02*
X12004061Y-8780398D01*
X12004061Y-8780398D02*
X11965966Y-8780398D01*
X11965966Y-8780398D02*
X11946918Y-8789922D01*
X11946918Y-8789922D02*
X11937395Y-8799446D01*
X11937395Y-8799446D02*
X11927871Y-8818493D01*
X11927871Y-8818493D02*
X11927871Y-8856589D01*
X11927871Y-8856589D02*
X11937395Y-8875636D01*
X11937395Y-8875636D02*
X11946918Y-8885160D01*
X11946918Y-8885160D02*
X11965966Y-8894684D01*
X11965966Y-8894684D02*
X12004061Y-8894684D01*
X12004061Y-8894684D02*
X12023109Y-8885160D01*
X12023109Y-8885160D02*
X12032633Y-8875636D01*
X12032633Y-8875636D02*
X12042157Y-8856589D01*
X12042157Y-8856589D02*
X12042157Y-8818493D01*
X12042157Y-8818493D02*
X12032633Y-8799446D01*
X12032633Y-8799446D02*
X12023109Y-8789922D01*
X12023109Y-8789922D02*
X12004061Y-8780398D01*
X12165966Y-8694684D02*
X12185014Y-8694684D01*
X12185014Y-8694684D02*
X12204061Y-8704208D01*
X12204061Y-8704208D02*
X12213585Y-8713732D01*
X12213585Y-8713732D02*
X12223109Y-8732779D01*
X12223109Y-8732779D02*
X12232633Y-8770874D01*
X12232633Y-8770874D02*
X12232633Y-8818493D01*
X12232633Y-8818493D02*
X12223109Y-8856589D01*
X12223109Y-8856589D02*
X12213585Y-8875636D01*
X12213585Y-8875636D02*
X12204061Y-8885160D01*
X12204061Y-8885160D02*
X12185014Y-8894684D01*
X12185014Y-8894684D02*
X12165966Y-8894684D01*
X12165966Y-8894684D02*
X12146918Y-8885160D01*
X12146918Y-8885160D02*
X12137395Y-8875636D01*
X12137395Y-8875636D02*
X12127871Y-8856589D01*
X12127871Y-8856589D02*
X12118347Y-8818493D01*
X12118347Y-8818493D02*
X12118347Y-8770874D01*
X12118347Y-8770874D02*
X12127871Y-8732779D01*
X12127871Y-8732779D02*
X12137395Y-8713732D01*
X12137395Y-8713732D02*
X12146918Y-8704208D01*
X12146918Y-8704208D02*
X12165966Y-8694684D01*
X12356442Y-8694684D02*
X12375490Y-8694684D01*
X12375490Y-8694684D02*
X12394538Y-8704208D01*
X12394538Y-8704208D02*
X12404061Y-8713732D01*
X12404061Y-8713732D02*
X12413585Y-8732779D01*
X12413585Y-8732779D02*
X12423109Y-8770874D01*
X12423109Y-8770874D02*
X12423109Y-8818493D01*
X12423109Y-8818493D02*
X12413585Y-8856589D01*
X12413585Y-8856589D02*
X12404061Y-8875636D01*
X12404061Y-8875636D02*
X12394538Y-8885160D01*
X12394538Y-8885160D02*
X12375490Y-8894684D01*
X12375490Y-8894684D02*
X12356442Y-8894684D01*
X12356442Y-8894684D02*
X12337395Y-8885160D01*
X12337395Y-8885160D02*
X12327871Y-8875636D01*
X12327871Y-8875636D02*
X12318347Y-8856589D01*
X12318347Y-8856589D02*
X12308823Y-8818493D01*
X12308823Y-8818493D02*
X12308823Y-8770874D01*
X12308823Y-8770874D02*
X12318347Y-8732779D01*
X12318347Y-8732779D02*
X12327871Y-8713732D01*
X12327871Y-8713732D02*
X12337395Y-8704208D01*
X12337395Y-8704208D02*
X12356442Y-8694684D01*
X12508823Y-8894684D02*
X12508823Y-8761351D01*
X12508823Y-8780398D02*
X12518347Y-8770874D01*
X12518347Y-8770874D02*
X12537395Y-8761351D01*
X12537395Y-8761351D02*
X12565966Y-8761351D01*
X12565966Y-8761351D02*
X12585014Y-8770874D01*
X12585014Y-8770874D02*
X12594538Y-8789922D01*
X12594538Y-8789922D02*
X12594538Y-8894684D01*
X12594538Y-8789922D02*
X12604061Y-8770874D01*
X12604061Y-8770874D02*
X12623109Y-8761351D01*
X12623109Y-8761351D02*
X12651680Y-8761351D01*
X12651680Y-8761351D02*
X12670728Y-8770874D01*
X12670728Y-8770874D02*
X12680252Y-8789922D01*
X12680252Y-8789922D02*
X12680252Y-8894684D01*
X12775490Y-8894684D02*
X12775490Y-8761351D01*
X12775490Y-8780398D02*
X12785014Y-8770874D01*
X12785014Y-8770874D02*
X12804061Y-8761351D01*
X12804061Y-8761351D02*
X12832633Y-8761351D01*
X12832633Y-8761351D02*
X12851680Y-8770874D01*
X12851680Y-8770874D02*
X12861204Y-8789922D01*
X12861204Y-8789922D02*
X12861204Y-8894684D01*
X12861204Y-8789922D02*
X12870728Y-8770874D01*
X12870728Y-8770874D02*
X12889776Y-8761351D01*
X12889776Y-8761351D02*
X12918347Y-8761351D01*
X12918347Y-8761351D02*
X12937395Y-8770874D01*
X12937395Y-8770874D02*
X12946919Y-8789922D01*
X12946919Y-8789922D02*
X12946919Y-8894684D01*
X13337395Y-8685160D02*
X13165966Y-8942303D01*
X13594538Y-8694684D02*
X13613585Y-8694684D01*
X13613585Y-8694684D02*
X13632633Y-8704208D01*
X13632633Y-8704208D02*
X13642157Y-8713732D01*
X13642157Y-8713732D02*
X13651681Y-8732779D01*
X13651681Y-8732779D02*
X13661204Y-8770874D01*
X13661204Y-8770874D02*
X13661204Y-8818493D01*
X13661204Y-8818493D02*
X13651681Y-8856589D01*
X13651681Y-8856589D02*
X13642157Y-8875636D01*
X13642157Y-8875636D02*
X13632633Y-8885160D01*
X13632633Y-8885160D02*
X13613585Y-8894684D01*
X13613585Y-8894684D02*
X13594538Y-8894684D01*
X13594538Y-8894684D02*
X13575490Y-8885160D01*
X13575490Y-8885160D02*
X13565966Y-8875636D01*
X13565966Y-8875636D02*
X13556442Y-8856589D01*
X13556442Y-8856589D02*
X13546919Y-8818493D01*
X13546919Y-8818493D02*
X13546919Y-8770874D01*
X13546919Y-8770874D02*
X13556442Y-8732779D01*
X13556442Y-8732779D02*
X13565966Y-8713732D01*
X13565966Y-8713732D02*
X13575490Y-8704208D01*
X13575490Y-8704208D02*
X13594538Y-8694684D01*
X13746919Y-8875636D02*
X13756442Y-8885160D01*
X13756442Y-8885160D02*
X13746919Y-8894684D01*
X13746919Y-8894684D02*
X13737395Y-8885160D01*
X13737395Y-8885160D02*
X13746919Y-8875636D01*
X13746919Y-8875636D02*
X13746919Y-8894684D01*
X13880252Y-8694684D02*
X13899300Y-8694684D01*
X13899300Y-8694684D02*
X13918347Y-8704208D01*
X13918347Y-8704208D02*
X13927871Y-8713732D01*
X13927871Y-8713732D02*
X13937395Y-8732779D01*
X13937395Y-8732779D02*
X13946919Y-8770874D01*
X13946919Y-8770874D02*
X13946919Y-8818493D01*
X13946919Y-8818493D02*
X13937395Y-8856589D01*
X13937395Y-8856589D02*
X13927871Y-8875636D01*
X13927871Y-8875636D02*
X13918347Y-8885160D01*
X13918347Y-8885160D02*
X13899300Y-8894684D01*
X13899300Y-8894684D02*
X13880252Y-8894684D01*
X13880252Y-8894684D02*
X13861204Y-8885160D01*
X13861204Y-8885160D02*
X13851681Y-8875636D01*
X13851681Y-8875636D02*
X13842157Y-8856589D01*
X13842157Y-8856589D02*
X13832633Y-8818493D01*
X13832633Y-8818493D02*
X13832633Y-8770874D01*
X13832633Y-8770874D02*
X13842157Y-8732779D01*
X13842157Y-8732779D02*
X13851681Y-8713732D01*
X13851681Y-8713732D02*
X13861204Y-8704208D01*
X13861204Y-8704208D02*
X13880252Y-8694684D01*
X14013585Y-8694684D02*
X14137395Y-8694684D01*
X14137395Y-8694684D02*
X14070728Y-8770874D01*
X14070728Y-8770874D02*
X14099300Y-8770874D01*
X14099300Y-8770874D02*
X14118347Y-8780398D01*
X14118347Y-8780398D02*
X14127871Y-8789922D01*
X14127871Y-8789922D02*
X14137395Y-8808970D01*
X14137395Y-8808970D02*
X14137395Y-8856589D01*
X14137395Y-8856589D02*
X14127871Y-8875636D01*
X14127871Y-8875636D02*
X14118347Y-8885160D01*
X14118347Y-8885160D02*
X14099300Y-8894684D01*
X14099300Y-8894684D02*
X14042157Y-8894684D01*
X14042157Y-8894684D02*
X14023109Y-8885160D01*
X14023109Y-8885160D02*
X14013585Y-8875636D01*
X14327871Y-8894684D02*
X14213585Y-8894684D01*
X14270728Y-8894684D02*
X14270728Y-8694684D01*
X14270728Y-8694684D02*
X14251681Y-8723255D01*
X14251681Y-8723255D02*
X14232633Y-8742303D01*
X14232633Y-8742303D02*
X14213585Y-8751827D01*
X14508823Y-8694684D02*
X14413585Y-8694684D01*
X14413585Y-8694684D02*
X14404062Y-8789922D01*
X14404062Y-8789922D02*
X14413585Y-8780398D01*
X14413585Y-8780398D02*
X14432633Y-8770874D01*
X14432633Y-8770874D02*
X14480252Y-8770874D01*
X14480252Y-8770874D02*
X14499300Y-8780398D01*
X14499300Y-8780398D02*
X14508823Y-8789922D01*
X14508823Y-8789922D02*
X14518347Y-8808970D01*
X14518347Y-8808970D02*
X14518347Y-8856589D01*
X14518347Y-8856589D02*
X14508823Y-8875636D01*
X14508823Y-8875636D02*
X14499300Y-8885160D01*
X14499300Y-8885160D02*
X14480252Y-8894684D01*
X14480252Y-8894684D02*
X14432633Y-8894684D01*
X14432633Y-8894684D02*
X14413585Y-8885160D01*
X14413585Y-8885160D02*
X14404062Y-8875636D01*
X14594538Y-8694684D02*
X14594538Y-8732779D01*
X14670728Y-8694684D02*
X14670728Y-8732779D01*
X14965966Y-8970874D02*
X14956443Y-8961351D01*
X14956443Y-8961351D02*
X14937395Y-8932779D01*
X14937395Y-8932779D02*
X14927871Y-8913732D01*
X14927871Y-8913732D02*
X14918347Y-8885160D01*
X14918347Y-8885160D02*
X14908824Y-8837541D01*
X14908824Y-8837541D02*
X14908824Y-8799446D01*
X14908824Y-8799446D02*
X14918347Y-8751827D01*
X14918347Y-8751827D02*
X14927871Y-8723255D01*
X14927871Y-8723255D02*
X14937395Y-8704208D01*
X14937395Y-8704208D02*
X14956443Y-8675636D01*
X14956443Y-8675636D02*
X14965966Y-8666112D01*
X15137395Y-8694684D02*
X15042157Y-8694684D01*
X15042157Y-8694684D02*
X15032633Y-8789922D01*
X15032633Y-8789922D02*
X15042157Y-8780398D01*
X15042157Y-8780398D02*
X15061204Y-8770874D01*
X15061204Y-8770874D02*
X15108824Y-8770874D01*
X15108824Y-8770874D02*
X15127871Y-8780398D01*
X15127871Y-8780398D02*
X15137395Y-8789922D01*
X15137395Y-8789922D02*
X15146919Y-8808970D01*
X15146919Y-8808970D02*
X15146919Y-8856589D01*
X15146919Y-8856589D02*
X15137395Y-8875636D01*
X15137395Y-8875636D02*
X15127871Y-8885160D01*
X15127871Y-8885160D02*
X15108824Y-8894684D01*
X15108824Y-8894684D02*
X15061204Y-8894684D01*
X15061204Y-8894684D02*
X15042157Y-8885160D01*
X15042157Y-8885160D02*
X15032633Y-8875636D01*
X15385014Y-8894684D02*
X15385014Y-8694684D01*
X15470728Y-8894684D02*
X15470728Y-8789922D01*
X15470728Y-8789922D02*
X15461205Y-8770874D01*
X15461205Y-8770874D02*
X15442157Y-8761351D01*
X15442157Y-8761351D02*
X15413585Y-8761351D01*
X15413585Y-8761351D02*
X15394538Y-8770874D01*
X15394538Y-8770874D02*
X15385014Y-8780398D01*
X15594538Y-8894684D02*
X15575490Y-8885160D01*
X15575490Y-8885160D02*
X15565966Y-8875636D01*
X15565966Y-8875636D02*
X15556443Y-8856589D01*
X15556443Y-8856589D02*
X15556443Y-8799446D01*
X15556443Y-8799446D02*
X15565966Y-8780398D01*
X15565966Y-8780398D02*
X15575490Y-8770874D01*
X15575490Y-8770874D02*
X15594538Y-8761351D01*
X15594538Y-8761351D02*
X15623109Y-8761351D01*
X15623109Y-8761351D02*
X15642157Y-8770874D01*
X15642157Y-8770874D02*
X15651681Y-8780398D01*
X15651681Y-8780398D02*
X15661205Y-8799446D01*
X15661205Y-8799446D02*
X15661205Y-8856589D01*
X15661205Y-8856589D02*
X15651681Y-8875636D01*
X15651681Y-8875636D02*
X15642157Y-8885160D01*
X15642157Y-8885160D02*
X15623109Y-8894684D01*
X15623109Y-8894684D02*
X15594538Y-8894684D01*
X15775490Y-8894684D02*
X15756443Y-8885160D01*
X15756443Y-8885160D02*
X15746919Y-8866112D01*
X15746919Y-8866112D02*
X15746919Y-8694684D01*
X15927871Y-8885160D02*
X15908824Y-8894684D01*
X15908824Y-8894684D02*
X15870728Y-8894684D01*
X15870728Y-8894684D02*
X15851681Y-8885160D01*
X15851681Y-8885160D02*
X15842157Y-8866112D01*
X15842157Y-8866112D02*
X15842157Y-8789922D01*
X15842157Y-8789922D02*
X15851681Y-8770874D01*
X15851681Y-8770874D02*
X15870728Y-8761351D01*
X15870728Y-8761351D02*
X15908824Y-8761351D01*
X15908824Y-8761351D02*
X15927871Y-8770874D01*
X15927871Y-8770874D02*
X15937395Y-8789922D01*
X15937395Y-8789922D02*
X15937395Y-8808970D01*
X15937395Y-8808970D02*
X15842157Y-8828017D01*
X16013586Y-8885160D02*
X16032633Y-8894684D01*
X16032633Y-8894684D02*
X16070728Y-8894684D01*
X16070728Y-8894684D02*
X16089776Y-8885160D01*
X16089776Y-8885160D02*
X16099300Y-8866112D01*
X16099300Y-8866112D02*
X16099300Y-8856589D01*
X16099300Y-8856589D02*
X16089776Y-8837541D01*
X16089776Y-8837541D02*
X16070728Y-8828017D01*
X16070728Y-8828017D02*
X16042157Y-8828017D01*
X16042157Y-8828017D02*
X16023109Y-8818493D01*
X16023109Y-8818493D02*
X16013586Y-8799446D01*
X16013586Y-8799446D02*
X16013586Y-8789922D01*
X16013586Y-8789922D02*
X16023109Y-8770874D01*
X16023109Y-8770874D02*
X16042157Y-8761351D01*
X16042157Y-8761351D02*
X16070728Y-8761351D01*
X16070728Y-8761351D02*
X16089776Y-8770874D01*
X16165967Y-8970874D02*
X16175490Y-8961351D01*
X16175490Y-8961351D02*
X16194538Y-8932779D01*
X16194538Y-8932779D02*
X16204062Y-8913732D01*
X16204062Y-8913732D02*
X16213586Y-8885160D01*
X16213586Y-8885160D02*
X16223109Y-8837541D01*
X16223109Y-8837541D02*
X16223109Y-8799446D01*
X16223109Y-8799446D02*
X16213586Y-8751827D01*
X16213586Y-8751827D02*
X16204062Y-8723255D01*
X16204062Y-8723255D02*
X16194538Y-8704208D01*
X16194538Y-8704208D02*
X16175490Y-8675636D01*
X16175490Y-8675636D02*
X16165967Y-8666112D01*
D12*
X11376259Y-9102556D02*
X11376259Y-9031844D01*
X11305548Y-9031844D01*
X11305548Y-9102556D01*
X11376259Y-9102556D01*
D11*
X11756442Y-9158684D02*
X11642157Y-9158684D01*
X11699299Y-9158684D02*
X11699299Y-8958684D01*
X11699299Y-8958684D02*
X11680252Y-8987255D01*
X11680252Y-8987255D02*
X11661204Y-9006303D01*
X11661204Y-9006303D02*
X11642157Y-9015827D01*
X11842157Y-9139636D02*
X11851680Y-9149160D01*
X11851680Y-9149160D02*
X11842157Y-9158684D01*
X11842157Y-9158684D02*
X11832633Y-9149160D01*
X11832633Y-9149160D02*
X11842157Y-9139636D01*
X11842157Y-9139636D02*
X11842157Y-9158684D01*
X11975490Y-8958684D02*
X11994538Y-8958684D01*
X11994538Y-8958684D02*
X12013585Y-8968208D01*
X12013585Y-8968208D02*
X12023109Y-8977732D01*
X12023109Y-8977732D02*
X12032633Y-8996779D01*
X12032633Y-8996779D02*
X12042157Y-9034874D01*
X12042157Y-9034874D02*
X12042157Y-9082493D01*
X12042157Y-9082493D02*
X12032633Y-9120589D01*
X12032633Y-9120589D02*
X12023109Y-9139636D01*
X12023109Y-9139636D02*
X12013585Y-9149160D01*
X12013585Y-9149160D02*
X11994538Y-9158684D01*
X11994538Y-9158684D02*
X11975490Y-9158684D01*
X11975490Y-9158684D02*
X11956442Y-9149160D01*
X11956442Y-9149160D02*
X11946918Y-9139636D01*
X11946918Y-9139636D02*
X11937395Y-9120589D01*
X11937395Y-9120589D02*
X11927871Y-9082493D01*
X11927871Y-9082493D02*
X11927871Y-9034874D01*
X11927871Y-9034874D02*
X11937395Y-8996779D01*
X11937395Y-8996779D02*
X11946918Y-8977732D01*
X11946918Y-8977732D02*
X11956442Y-8968208D01*
X11956442Y-8968208D02*
X11975490Y-8958684D01*
X12165966Y-8958684D02*
X12185014Y-8958684D01*
X12185014Y-8958684D02*
X12204061Y-8968208D01*
X12204061Y-8968208D02*
X12213585Y-8977732D01*
X12213585Y-8977732D02*
X12223109Y-8996779D01*
X12223109Y-8996779D02*
X12232633Y-9034874D01*
X12232633Y-9034874D02*
X12232633Y-9082493D01*
X12232633Y-9082493D02*
X12223109Y-9120589D01*
X12223109Y-9120589D02*
X12213585Y-9139636D01*
X12213585Y-9139636D02*
X12204061Y-9149160D01*
X12204061Y-9149160D02*
X12185014Y-9158684D01*
X12185014Y-9158684D02*
X12165966Y-9158684D01*
X12165966Y-9158684D02*
X12146918Y-9149160D01*
X12146918Y-9149160D02*
X12137395Y-9139636D01*
X12137395Y-9139636D02*
X12127871Y-9120589D01*
X12127871Y-9120589D02*
X12118347Y-9082493D01*
X12118347Y-9082493D02*
X12118347Y-9034874D01*
X12118347Y-9034874D02*
X12127871Y-8996779D01*
X12127871Y-8996779D02*
X12137395Y-8977732D01*
X12137395Y-8977732D02*
X12146918Y-8968208D01*
X12146918Y-8968208D02*
X12165966Y-8958684D01*
X12356442Y-8958684D02*
X12375490Y-8958684D01*
X12375490Y-8958684D02*
X12394538Y-8968208D01*
X12394538Y-8968208D02*
X12404061Y-8977732D01*
X12404061Y-8977732D02*
X12413585Y-8996779D01*
X12413585Y-8996779D02*
X12423109Y-9034874D01*
X12423109Y-9034874D02*
X12423109Y-9082493D01*
X12423109Y-9082493D02*
X12413585Y-9120589D01*
X12413585Y-9120589D02*
X12404061Y-9139636D01*
X12404061Y-9139636D02*
X12394538Y-9149160D01*
X12394538Y-9149160D02*
X12375490Y-9158684D01*
X12375490Y-9158684D02*
X12356442Y-9158684D01*
X12356442Y-9158684D02*
X12337395Y-9149160D01*
X12337395Y-9149160D02*
X12327871Y-9139636D01*
X12327871Y-9139636D02*
X12318347Y-9120589D01*
X12318347Y-9120589D02*
X12308823Y-9082493D01*
X12308823Y-9082493D02*
X12308823Y-9034874D01*
X12308823Y-9034874D02*
X12318347Y-8996779D01*
X12318347Y-8996779D02*
X12327871Y-8977732D01*
X12327871Y-8977732D02*
X12337395Y-8968208D01*
X12337395Y-8968208D02*
X12356442Y-8958684D01*
X12508823Y-9158684D02*
X12508823Y-9025351D01*
X12508823Y-9044398D02*
X12518347Y-9034874D01*
X12518347Y-9034874D02*
X12537395Y-9025351D01*
X12537395Y-9025351D02*
X12565966Y-9025351D01*
X12565966Y-9025351D02*
X12585014Y-9034874D01*
X12585014Y-9034874D02*
X12594538Y-9053922D01*
X12594538Y-9053922D02*
X12594538Y-9158684D01*
X12594538Y-9053922D02*
X12604061Y-9034874D01*
X12604061Y-9034874D02*
X12623109Y-9025351D01*
X12623109Y-9025351D02*
X12651680Y-9025351D01*
X12651680Y-9025351D02*
X12670728Y-9034874D01*
X12670728Y-9034874D02*
X12680252Y-9053922D01*
X12680252Y-9053922D02*
X12680252Y-9158684D01*
X12775490Y-9158684D02*
X12775490Y-9025351D01*
X12775490Y-9044398D02*
X12785014Y-9034874D01*
X12785014Y-9034874D02*
X12804061Y-9025351D01*
X12804061Y-9025351D02*
X12832633Y-9025351D01*
X12832633Y-9025351D02*
X12851680Y-9034874D01*
X12851680Y-9034874D02*
X12861204Y-9053922D01*
X12861204Y-9053922D02*
X12861204Y-9158684D01*
X12861204Y-9053922D02*
X12870728Y-9034874D01*
X12870728Y-9034874D02*
X12889776Y-9025351D01*
X12889776Y-9025351D02*
X12918347Y-9025351D01*
X12918347Y-9025351D02*
X12937395Y-9034874D01*
X12937395Y-9034874D02*
X12946919Y-9053922D01*
X12946919Y-9053922D02*
X12946919Y-9158684D01*
X13337395Y-8949160D02*
X13165966Y-9206303D01*
X13594538Y-8958684D02*
X13613585Y-8958684D01*
X13613585Y-8958684D02*
X13632633Y-8968208D01*
X13632633Y-8968208D02*
X13642157Y-8977732D01*
X13642157Y-8977732D02*
X13651681Y-8996779D01*
X13651681Y-8996779D02*
X13661204Y-9034874D01*
X13661204Y-9034874D02*
X13661204Y-9082493D01*
X13661204Y-9082493D02*
X13651681Y-9120589D01*
X13651681Y-9120589D02*
X13642157Y-9139636D01*
X13642157Y-9139636D02*
X13632633Y-9149160D01*
X13632633Y-9149160D02*
X13613585Y-9158684D01*
X13613585Y-9158684D02*
X13594538Y-9158684D01*
X13594538Y-9158684D02*
X13575490Y-9149160D01*
X13575490Y-9149160D02*
X13565966Y-9139636D01*
X13565966Y-9139636D02*
X13556442Y-9120589D01*
X13556442Y-9120589D02*
X13546919Y-9082493D01*
X13546919Y-9082493D02*
X13546919Y-9034874D01*
X13546919Y-9034874D02*
X13556442Y-8996779D01*
X13556442Y-8996779D02*
X13565966Y-8977732D01*
X13565966Y-8977732D02*
X13575490Y-8968208D01*
X13575490Y-8968208D02*
X13594538Y-8958684D01*
X13746919Y-9139636D02*
X13756442Y-9149160D01*
X13756442Y-9149160D02*
X13746919Y-9158684D01*
X13746919Y-9158684D02*
X13737395Y-9149160D01*
X13737395Y-9149160D02*
X13746919Y-9139636D01*
X13746919Y-9139636D02*
X13746919Y-9158684D01*
X13880252Y-8958684D02*
X13899300Y-8958684D01*
X13899300Y-8958684D02*
X13918347Y-8968208D01*
X13918347Y-8968208D02*
X13927871Y-8977732D01*
X13927871Y-8977732D02*
X13937395Y-8996779D01*
X13937395Y-8996779D02*
X13946919Y-9034874D01*
X13946919Y-9034874D02*
X13946919Y-9082493D01*
X13946919Y-9082493D02*
X13937395Y-9120589D01*
X13937395Y-9120589D02*
X13927871Y-9139636D01*
X13927871Y-9139636D02*
X13918347Y-9149160D01*
X13918347Y-9149160D02*
X13899300Y-9158684D01*
X13899300Y-9158684D02*
X13880252Y-9158684D01*
X13880252Y-9158684D02*
X13861204Y-9149160D01*
X13861204Y-9149160D02*
X13851681Y-9139636D01*
X13851681Y-9139636D02*
X13842157Y-9120589D01*
X13842157Y-9120589D02*
X13832633Y-9082493D01*
X13832633Y-9082493D02*
X13832633Y-9034874D01*
X13832633Y-9034874D02*
X13842157Y-8996779D01*
X13842157Y-8996779D02*
X13851681Y-8977732D01*
X13851681Y-8977732D02*
X13861204Y-8968208D01*
X13861204Y-8968208D02*
X13880252Y-8958684D01*
X14013585Y-8958684D02*
X14137395Y-8958684D01*
X14137395Y-8958684D02*
X14070728Y-9034874D01*
X14070728Y-9034874D02*
X14099300Y-9034874D01*
X14099300Y-9034874D02*
X14118347Y-9044398D01*
X14118347Y-9044398D02*
X14127871Y-9053922D01*
X14127871Y-9053922D02*
X14137395Y-9072970D01*
X14137395Y-9072970D02*
X14137395Y-9120589D01*
X14137395Y-9120589D02*
X14127871Y-9139636D01*
X14127871Y-9139636D02*
X14118347Y-9149160D01*
X14118347Y-9149160D02*
X14099300Y-9158684D01*
X14099300Y-9158684D02*
X14042157Y-9158684D01*
X14042157Y-9158684D02*
X14023109Y-9149160D01*
X14023109Y-9149160D02*
X14013585Y-9139636D01*
X14232633Y-9158684D02*
X14270728Y-9158684D01*
X14270728Y-9158684D02*
X14289776Y-9149160D01*
X14289776Y-9149160D02*
X14299300Y-9139636D01*
X14299300Y-9139636D02*
X14318347Y-9111065D01*
X14318347Y-9111065D02*
X14327871Y-9072970D01*
X14327871Y-9072970D02*
X14327871Y-8996779D01*
X14327871Y-8996779D02*
X14318347Y-8977732D01*
X14318347Y-8977732D02*
X14308823Y-8968208D01*
X14308823Y-8968208D02*
X14289776Y-8958684D01*
X14289776Y-8958684D02*
X14251681Y-8958684D01*
X14251681Y-8958684D02*
X14232633Y-8968208D01*
X14232633Y-8968208D02*
X14223109Y-8977732D01*
X14223109Y-8977732D02*
X14213585Y-8996779D01*
X14213585Y-8996779D02*
X14213585Y-9044398D01*
X14213585Y-9044398D02*
X14223109Y-9063446D01*
X14223109Y-9063446D02*
X14232633Y-9072970D01*
X14232633Y-9072970D02*
X14251681Y-9082493D01*
X14251681Y-9082493D02*
X14289776Y-9082493D01*
X14289776Y-9082493D02*
X14308823Y-9072970D01*
X14308823Y-9072970D02*
X14318347Y-9063446D01*
X14318347Y-9063446D02*
X14327871Y-9044398D01*
X14499300Y-9025351D02*
X14499300Y-9158684D01*
X14451681Y-8949160D02*
X14404062Y-9092017D01*
X14404062Y-9092017D02*
X14527871Y-9092017D01*
X14594538Y-8958684D02*
X14594538Y-8996779D01*
X14670728Y-8958684D02*
X14670728Y-8996779D01*
X14965966Y-9234874D02*
X14956443Y-9225351D01*
X14956443Y-9225351D02*
X14937395Y-9196779D01*
X14937395Y-9196779D02*
X14927871Y-9177732D01*
X14927871Y-9177732D02*
X14918347Y-9149160D01*
X14918347Y-9149160D02*
X14908824Y-9101541D01*
X14908824Y-9101541D02*
X14908824Y-9063446D01*
X14908824Y-9063446D02*
X14918347Y-9015827D01*
X14918347Y-9015827D02*
X14927871Y-8987255D01*
X14927871Y-8987255D02*
X14937395Y-8968208D01*
X14937395Y-8968208D02*
X14956443Y-8939636D01*
X14956443Y-8939636D02*
X14965966Y-8930112D01*
X15146919Y-9158684D02*
X15032633Y-9158684D01*
X15089776Y-9158684D02*
X15089776Y-8958684D01*
X15089776Y-8958684D02*
X15070728Y-8987255D01*
X15070728Y-8987255D02*
X15051681Y-9006303D01*
X15051681Y-9006303D02*
X15032633Y-9015827D01*
X15223109Y-8977732D02*
X15232633Y-8968208D01*
X15232633Y-8968208D02*
X15251681Y-8958684D01*
X15251681Y-8958684D02*
X15299300Y-8958684D01*
X15299300Y-8958684D02*
X15318347Y-8968208D01*
X15318347Y-8968208D02*
X15327871Y-8977732D01*
X15327871Y-8977732D02*
X15337395Y-8996779D01*
X15337395Y-8996779D02*
X15337395Y-9015827D01*
X15337395Y-9015827D02*
X15327871Y-9044398D01*
X15327871Y-9044398D02*
X15213585Y-9158684D01*
X15213585Y-9158684D02*
X15337395Y-9158684D01*
X15461204Y-8958684D02*
X15480252Y-8958684D01*
X15480252Y-8958684D02*
X15499300Y-8968208D01*
X15499300Y-8968208D02*
X15508824Y-8977732D01*
X15508824Y-8977732D02*
X15518347Y-8996779D01*
X15518347Y-8996779D02*
X15527871Y-9034874D01*
X15527871Y-9034874D02*
X15527871Y-9082493D01*
X15527871Y-9082493D02*
X15518347Y-9120589D01*
X15518347Y-9120589D02*
X15508824Y-9139636D01*
X15508824Y-9139636D02*
X15499300Y-9149160D01*
X15499300Y-9149160D02*
X15480252Y-9158684D01*
X15480252Y-9158684D02*
X15461204Y-9158684D01*
X15461204Y-9158684D02*
X15442157Y-9149160D01*
X15442157Y-9149160D02*
X15432633Y-9139636D01*
X15432633Y-9139636D02*
X15423109Y-9120589D01*
X15423109Y-9120589D02*
X15413585Y-9082493D01*
X15413585Y-9082493D02*
X15413585Y-9034874D01*
X15413585Y-9034874D02*
X15423109Y-8996779D01*
X15423109Y-8996779D02*
X15432633Y-8977732D01*
X15432633Y-8977732D02*
X15442157Y-8968208D01*
X15442157Y-8968208D02*
X15461204Y-8958684D01*
X15765966Y-9158684D02*
X15765966Y-8958684D01*
X15851681Y-9158684D02*
X15851681Y-9053922D01*
X15851681Y-9053922D02*
X15842157Y-9034874D01*
X15842157Y-9034874D02*
X15823109Y-9025351D01*
X15823109Y-9025351D02*
X15794538Y-9025351D01*
X15794538Y-9025351D02*
X15775490Y-9034874D01*
X15775490Y-9034874D02*
X15765966Y-9044398D01*
X15975490Y-9158684D02*
X15956443Y-9149160D01*
X15956443Y-9149160D02*
X15946919Y-9139636D01*
X15946919Y-9139636D02*
X15937395Y-9120589D01*
X15937395Y-9120589D02*
X15937395Y-9063446D01*
X15937395Y-9063446D02*
X15946919Y-9044398D01*
X15946919Y-9044398D02*
X15956443Y-9034874D01*
X15956443Y-9034874D02*
X15975490Y-9025351D01*
X15975490Y-9025351D02*
X16004062Y-9025351D01*
X16004062Y-9025351D02*
X16023109Y-9034874D01*
X16023109Y-9034874D02*
X16032633Y-9044398D01*
X16032633Y-9044398D02*
X16042157Y-9063446D01*
X16042157Y-9063446D02*
X16042157Y-9120589D01*
X16042157Y-9120589D02*
X16032633Y-9139636D01*
X16032633Y-9139636D02*
X16023109Y-9149160D01*
X16023109Y-9149160D02*
X16004062Y-9158684D01*
X16004062Y-9158684D02*
X15975490Y-9158684D01*
X16156443Y-9158684D02*
X16137395Y-9149160D01*
X16137395Y-9149160D02*
X16127871Y-9130112D01*
X16127871Y-9130112D02*
X16127871Y-8958684D01*
X16308824Y-9149160D02*
X16289776Y-9158684D01*
X16289776Y-9158684D02*
X16251681Y-9158684D01*
X16251681Y-9158684D02*
X16232633Y-9149160D01*
X16232633Y-9149160D02*
X16223109Y-9130112D01*
X16223109Y-9130112D02*
X16223109Y-9053922D01*
X16223109Y-9053922D02*
X16232633Y-9034874D01*
X16232633Y-9034874D02*
X16251681Y-9025351D01*
X16251681Y-9025351D02*
X16289776Y-9025351D01*
X16289776Y-9025351D02*
X16308824Y-9034874D01*
X16308824Y-9034874D02*
X16318347Y-9053922D01*
X16318347Y-9053922D02*
X16318347Y-9072970D01*
X16318347Y-9072970D02*
X16223109Y-9092017D01*
X16394538Y-9149160D02*
X16413586Y-9158684D01*
X16413586Y-9158684D02*
X16451681Y-9158684D01*
X16451681Y-9158684D02*
X16470728Y-9149160D01*
X16470728Y-9149160D02*
X16480252Y-9130112D01*
X16480252Y-9130112D02*
X16480252Y-9120589D01*
X16480252Y-9120589D02*
X16470728Y-9101541D01*
X16470728Y-9101541D02*
X16451681Y-9092017D01*
X16451681Y-9092017D02*
X16423109Y-9092017D01*
X16423109Y-9092017D02*
X16404062Y-9082493D01*
X16404062Y-9082493D02*
X16394538Y-9063446D01*
X16394538Y-9063446D02*
X16394538Y-9053922D01*
X16394538Y-9053922D02*
X16404062Y-9034874D01*
X16404062Y-9034874D02*
X16423109Y-9025351D01*
X16423109Y-9025351D02*
X16451681Y-9025351D01*
X16451681Y-9025351D02*
X16470728Y-9034874D01*
X16546919Y-9234874D02*
X16556443Y-9225351D01*
X16556443Y-9225351D02*
X16575490Y-9196779D01*
X16575490Y-9196779D02*
X16585014Y-9177732D01*
X16585014Y-9177732D02*
X16594538Y-9149160D01*
X16594538Y-9149160D02*
X16604062Y-9101541D01*
X16604062Y-9101541D02*
X16604062Y-9063446D01*
X16604062Y-9063446D02*
X16594538Y-9015827D01*
X16594538Y-9015827D02*
X16585014Y-8987255D01*
X16585014Y-8987255D02*
X16575490Y-8968208D01*
X16575490Y-8968208D02*
X16556443Y-8939636D01*
X16556443Y-8939636D02*
X16546919Y-8930112D01*
D13*
X11330904Y-9391200D02*
X11390904Y-9331200D01*
X11330904Y-9271200D01*
X11270904Y-9331200D01*
X11330904Y-9391200D01*
D11*
X11756442Y-9422684D02*
X11642157Y-9422684D01*
X11699299Y-9422684D02*
X11699299Y-9222684D01*
X11699299Y-9222684D02*
X11680252Y-9251255D01*
X11680252Y-9251255D02*
X11661204Y-9270303D01*
X11661204Y-9270303D02*
X11642157Y-9279827D01*
X11842157Y-9403636D02*
X11851680Y-9413160D01*
X11851680Y-9413160D02*
X11842157Y-9422684D01*
X11842157Y-9422684D02*
X11832633Y-9413160D01*
X11832633Y-9413160D02*
X11842157Y-9403636D01*
X11842157Y-9403636D02*
X11842157Y-9422684D01*
X11927871Y-9241732D02*
X11937395Y-9232208D01*
X11937395Y-9232208D02*
X11956442Y-9222684D01*
X11956442Y-9222684D02*
X12004061Y-9222684D01*
X12004061Y-9222684D02*
X12023109Y-9232208D01*
X12023109Y-9232208D02*
X12032633Y-9241732D01*
X12032633Y-9241732D02*
X12042157Y-9260779D01*
X12042157Y-9260779D02*
X12042157Y-9279827D01*
X12042157Y-9279827D02*
X12032633Y-9308398D01*
X12032633Y-9308398D02*
X11918347Y-9422684D01*
X11918347Y-9422684D02*
X12042157Y-9422684D01*
X12165966Y-9222684D02*
X12185014Y-9222684D01*
X12185014Y-9222684D02*
X12204061Y-9232208D01*
X12204061Y-9232208D02*
X12213585Y-9241732D01*
X12213585Y-9241732D02*
X12223109Y-9260779D01*
X12223109Y-9260779D02*
X12232633Y-9298874D01*
X12232633Y-9298874D02*
X12232633Y-9346493D01*
X12232633Y-9346493D02*
X12223109Y-9384589D01*
X12223109Y-9384589D02*
X12213585Y-9403636D01*
X12213585Y-9403636D02*
X12204061Y-9413160D01*
X12204061Y-9413160D02*
X12185014Y-9422684D01*
X12185014Y-9422684D02*
X12165966Y-9422684D01*
X12165966Y-9422684D02*
X12146918Y-9413160D01*
X12146918Y-9413160D02*
X12137395Y-9403636D01*
X12137395Y-9403636D02*
X12127871Y-9384589D01*
X12127871Y-9384589D02*
X12118347Y-9346493D01*
X12118347Y-9346493D02*
X12118347Y-9298874D01*
X12118347Y-9298874D02*
X12127871Y-9260779D01*
X12127871Y-9260779D02*
X12137395Y-9241732D01*
X12137395Y-9241732D02*
X12146918Y-9232208D01*
X12146918Y-9232208D02*
X12165966Y-9222684D01*
X12356442Y-9222684D02*
X12375490Y-9222684D01*
X12375490Y-9222684D02*
X12394538Y-9232208D01*
X12394538Y-9232208D02*
X12404061Y-9241732D01*
X12404061Y-9241732D02*
X12413585Y-9260779D01*
X12413585Y-9260779D02*
X12423109Y-9298874D01*
X12423109Y-9298874D02*
X12423109Y-9346493D01*
X12423109Y-9346493D02*
X12413585Y-9384589D01*
X12413585Y-9384589D02*
X12404061Y-9403636D01*
X12404061Y-9403636D02*
X12394538Y-9413160D01*
X12394538Y-9413160D02*
X12375490Y-9422684D01*
X12375490Y-9422684D02*
X12356442Y-9422684D01*
X12356442Y-9422684D02*
X12337395Y-9413160D01*
X12337395Y-9413160D02*
X12327871Y-9403636D01*
X12327871Y-9403636D02*
X12318347Y-9384589D01*
X12318347Y-9384589D02*
X12308823Y-9346493D01*
X12308823Y-9346493D02*
X12308823Y-9298874D01*
X12308823Y-9298874D02*
X12318347Y-9260779D01*
X12318347Y-9260779D02*
X12327871Y-9241732D01*
X12327871Y-9241732D02*
X12337395Y-9232208D01*
X12337395Y-9232208D02*
X12356442Y-9222684D01*
X12508823Y-9422684D02*
X12508823Y-9289351D01*
X12508823Y-9308398D02*
X12518347Y-9298874D01*
X12518347Y-9298874D02*
X12537395Y-9289351D01*
X12537395Y-9289351D02*
X12565966Y-9289351D01*
X12565966Y-9289351D02*
X12585014Y-9298874D01*
X12585014Y-9298874D02*
X12594538Y-9317922D01*
X12594538Y-9317922D02*
X12594538Y-9422684D01*
X12594538Y-9317922D02*
X12604061Y-9298874D01*
X12604061Y-9298874D02*
X12623109Y-9289351D01*
X12623109Y-9289351D02*
X12651680Y-9289351D01*
X12651680Y-9289351D02*
X12670728Y-9298874D01*
X12670728Y-9298874D02*
X12680252Y-9317922D01*
X12680252Y-9317922D02*
X12680252Y-9422684D01*
X12775490Y-9422684D02*
X12775490Y-9289351D01*
X12775490Y-9308398D02*
X12785014Y-9298874D01*
X12785014Y-9298874D02*
X12804061Y-9289351D01*
X12804061Y-9289351D02*
X12832633Y-9289351D01*
X12832633Y-9289351D02*
X12851680Y-9298874D01*
X12851680Y-9298874D02*
X12861204Y-9317922D01*
X12861204Y-9317922D02*
X12861204Y-9422684D01*
X12861204Y-9317922D02*
X12870728Y-9298874D01*
X12870728Y-9298874D02*
X12889776Y-9289351D01*
X12889776Y-9289351D02*
X12918347Y-9289351D01*
X12918347Y-9289351D02*
X12937395Y-9298874D01*
X12937395Y-9298874D02*
X12946919Y-9317922D01*
X12946919Y-9317922D02*
X12946919Y-9422684D01*
X13337395Y-9213160D02*
X13165966Y-9470303D01*
X13594538Y-9222684D02*
X13613585Y-9222684D01*
X13613585Y-9222684D02*
X13632633Y-9232208D01*
X13632633Y-9232208D02*
X13642157Y-9241732D01*
X13642157Y-9241732D02*
X13651681Y-9260779D01*
X13651681Y-9260779D02*
X13661204Y-9298874D01*
X13661204Y-9298874D02*
X13661204Y-9346493D01*
X13661204Y-9346493D02*
X13651681Y-9384589D01*
X13651681Y-9384589D02*
X13642157Y-9403636D01*
X13642157Y-9403636D02*
X13632633Y-9413160D01*
X13632633Y-9413160D02*
X13613585Y-9422684D01*
X13613585Y-9422684D02*
X13594538Y-9422684D01*
X13594538Y-9422684D02*
X13575490Y-9413160D01*
X13575490Y-9413160D02*
X13565966Y-9403636D01*
X13565966Y-9403636D02*
X13556442Y-9384589D01*
X13556442Y-9384589D02*
X13546919Y-9346493D01*
X13546919Y-9346493D02*
X13546919Y-9298874D01*
X13546919Y-9298874D02*
X13556442Y-9260779D01*
X13556442Y-9260779D02*
X13565966Y-9241732D01*
X13565966Y-9241732D02*
X13575490Y-9232208D01*
X13575490Y-9232208D02*
X13594538Y-9222684D01*
X13746919Y-9403636D02*
X13756442Y-9413160D01*
X13756442Y-9413160D02*
X13746919Y-9422684D01*
X13746919Y-9422684D02*
X13737395Y-9413160D01*
X13737395Y-9413160D02*
X13746919Y-9403636D01*
X13746919Y-9403636D02*
X13746919Y-9422684D01*
X13880252Y-9222684D02*
X13899300Y-9222684D01*
X13899300Y-9222684D02*
X13918347Y-9232208D01*
X13918347Y-9232208D02*
X13927871Y-9241732D01*
X13927871Y-9241732D02*
X13937395Y-9260779D01*
X13937395Y-9260779D02*
X13946919Y-9298874D01*
X13946919Y-9298874D02*
X13946919Y-9346493D01*
X13946919Y-9346493D02*
X13937395Y-9384589D01*
X13937395Y-9384589D02*
X13927871Y-9403636D01*
X13927871Y-9403636D02*
X13918347Y-9413160D01*
X13918347Y-9413160D02*
X13899300Y-9422684D01*
X13899300Y-9422684D02*
X13880252Y-9422684D01*
X13880252Y-9422684D02*
X13861204Y-9413160D01*
X13861204Y-9413160D02*
X13851681Y-9403636D01*
X13851681Y-9403636D02*
X13842157Y-9384589D01*
X13842157Y-9384589D02*
X13832633Y-9346493D01*
X13832633Y-9346493D02*
X13832633Y-9298874D01*
X13832633Y-9298874D02*
X13842157Y-9260779D01*
X13842157Y-9260779D02*
X13851681Y-9241732D01*
X13851681Y-9241732D02*
X13861204Y-9232208D01*
X13861204Y-9232208D02*
X13880252Y-9222684D01*
X14118347Y-9289351D02*
X14118347Y-9422684D01*
X14070728Y-9213160D02*
X14023109Y-9356017D01*
X14023109Y-9356017D02*
X14146919Y-9356017D01*
X14204062Y-9222684D02*
X14337395Y-9222684D01*
X14337395Y-9222684D02*
X14251681Y-9422684D01*
X14404062Y-9241732D02*
X14413585Y-9232208D01*
X14413585Y-9232208D02*
X14432633Y-9222684D01*
X14432633Y-9222684D02*
X14480252Y-9222684D01*
X14480252Y-9222684D02*
X14499300Y-9232208D01*
X14499300Y-9232208D02*
X14508823Y-9241732D01*
X14508823Y-9241732D02*
X14518347Y-9260779D01*
X14518347Y-9260779D02*
X14518347Y-9279827D01*
X14518347Y-9279827D02*
X14508823Y-9308398D01*
X14508823Y-9308398D02*
X14394538Y-9422684D01*
X14394538Y-9422684D02*
X14518347Y-9422684D01*
X14594538Y-9222684D02*
X14594538Y-9260779D01*
X14670728Y-9222684D02*
X14670728Y-9260779D01*
X14965966Y-9498874D02*
X14956443Y-9489351D01*
X14956443Y-9489351D02*
X14937395Y-9460779D01*
X14937395Y-9460779D02*
X14927871Y-9441732D01*
X14927871Y-9441732D02*
X14918347Y-9413160D01*
X14918347Y-9413160D02*
X14908824Y-9365541D01*
X14908824Y-9365541D02*
X14908824Y-9327446D01*
X14908824Y-9327446D02*
X14918347Y-9279827D01*
X14918347Y-9279827D02*
X14927871Y-9251255D01*
X14927871Y-9251255D02*
X14937395Y-9232208D01*
X14937395Y-9232208D02*
X14956443Y-9203636D01*
X14956443Y-9203636D02*
X14965966Y-9194112D01*
X15127871Y-9289351D02*
X15127871Y-9422684D01*
X15080252Y-9213160D02*
X15032633Y-9356017D01*
X15032633Y-9356017D02*
X15156443Y-9356017D01*
X15385014Y-9422684D02*
X15385014Y-9222684D01*
X15470728Y-9422684D02*
X15470728Y-9317922D01*
X15470728Y-9317922D02*
X15461205Y-9298874D01*
X15461205Y-9298874D02*
X15442157Y-9289351D01*
X15442157Y-9289351D02*
X15413585Y-9289351D01*
X15413585Y-9289351D02*
X15394538Y-9298874D01*
X15394538Y-9298874D02*
X15385014Y-9308398D01*
X15594538Y-9422684D02*
X15575490Y-9413160D01*
X15575490Y-9413160D02*
X15565966Y-9403636D01*
X15565966Y-9403636D02*
X15556443Y-9384589D01*
X15556443Y-9384589D02*
X15556443Y-9327446D01*
X15556443Y-9327446D02*
X15565966Y-9308398D01*
X15565966Y-9308398D02*
X15575490Y-9298874D01*
X15575490Y-9298874D02*
X15594538Y-9289351D01*
X15594538Y-9289351D02*
X15623109Y-9289351D01*
X15623109Y-9289351D02*
X15642157Y-9298874D01*
X15642157Y-9298874D02*
X15651681Y-9308398D01*
X15651681Y-9308398D02*
X15661205Y-9327446D01*
X15661205Y-9327446D02*
X15661205Y-9384589D01*
X15661205Y-9384589D02*
X15651681Y-9403636D01*
X15651681Y-9403636D02*
X15642157Y-9413160D01*
X15642157Y-9413160D02*
X15623109Y-9422684D01*
X15623109Y-9422684D02*
X15594538Y-9422684D01*
X15775490Y-9422684D02*
X15756443Y-9413160D01*
X15756443Y-9413160D02*
X15746919Y-9394112D01*
X15746919Y-9394112D02*
X15746919Y-9222684D01*
X15927871Y-9413160D02*
X15908824Y-9422684D01*
X15908824Y-9422684D02*
X15870728Y-9422684D01*
X15870728Y-9422684D02*
X15851681Y-9413160D01*
X15851681Y-9413160D02*
X15842157Y-9394112D01*
X15842157Y-9394112D02*
X15842157Y-9317922D01*
X15842157Y-9317922D02*
X15851681Y-9298874D01*
X15851681Y-9298874D02*
X15870728Y-9289351D01*
X15870728Y-9289351D02*
X15908824Y-9289351D01*
X15908824Y-9289351D02*
X15927871Y-9298874D01*
X15927871Y-9298874D02*
X15937395Y-9317922D01*
X15937395Y-9317922D02*
X15937395Y-9336970D01*
X15937395Y-9336970D02*
X15842157Y-9356017D01*
X16013586Y-9413160D02*
X16032633Y-9422684D01*
X16032633Y-9422684D02*
X16070728Y-9422684D01*
X16070728Y-9422684D02*
X16089776Y-9413160D01*
X16089776Y-9413160D02*
X16099300Y-9394112D01*
X16099300Y-9394112D02*
X16099300Y-9384589D01*
X16099300Y-9384589D02*
X16089776Y-9365541D01*
X16089776Y-9365541D02*
X16070728Y-9356017D01*
X16070728Y-9356017D02*
X16042157Y-9356017D01*
X16042157Y-9356017D02*
X16023109Y-9346493D01*
X16023109Y-9346493D02*
X16013586Y-9327446D01*
X16013586Y-9327446D02*
X16013586Y-9317922D01*
X16013586Y-9317922D02*
X16023109Y-9298874D01*
X16023109Y-9298874D02*
X16042157Y-9289351D01*
X16042157Y-9289351D02*
X16070728Y-9289351D01*
X16070728Y-9289351D02*
X16089776Y-9298874D01*
X16165967Y-9498874D02*
X16175490Y-9489351D01*
X16175490Y-9489351D02*
X16194538Y-9460779D01*
X16194538Y-9460779D02*
X16204062Y-9441732D01*
X16204062Y-9441732D02*
X16213586Y-9413160D01*
X16213586Y-9413160D02*
X16223109Y-9365541D01*
X16223109Y-9365541D02*
X16223109Y-9327446D01*
X16223109Y-9327446D02*
X16213586Y-9279827D01*
X16213586Y-9279827D02*
X16204062Y-9251255D01*
X16204062Y-9251255D02*
X16194538Y-9232208D01*
X16194538Y-9232208D02*
X16175490Y-9203636D01*
X16175490Y-9203636D02*
X16165967Y-9194112D01*
X11190904Y-9495200D02*
X11390904Y-9695200D01*
X11390904Y-9495200D02*
X11190904Y-9695200D01*
X11390904Y-9595200D02*
G75*
G02*
X11190904Y-9595200I-100000J0D01*
G01*
X11190904Y-9595200D02*
G75*
G02*
X11390904Y-9595200I100000J0D01*
G01*
X11632633Y-9486684D02*
X11756442Y-9486684D01*
X11756442Y-9486684D02*
X11689776Y-9562874D01*
X11689776Y-9562874D02*
X11718347Y-9562874D01*
X11718347Y-9562874D02*
X11737395Y-9572398D01*
X11737395Y-9572398D02*
X11746918Y-9581922D01*
X11746918Y-9581922D02*
X11756442Y-9600970D01*
X11756442Y-9600970D02*
X11756442Y-9648589D01*
X11756442Y-9648589D02*
X11746918Y-9667636D01*
X11746918Y-9667636D02*
X11737395Y-9677160D01*
X11737395Y-9677160D02*
X11718347Y-9686684D01*
X11718347Y-9686684D02*
X11661204Y-9686684D01*
X11661204Y-9686684D02*
X11642157Y-9677160D01*
X11642157Y-9677160D02*
X11632633Y-9667636D01*
X11842157Y-9667636D02*
X11851680Y-9677160D01*
X11851680Y-9677160D02*
X11842157Y-9686684D01*
X11842157Y-9686684D02*
X11832633Y-9677160D01*
X11832633Y-9677160D02*
X11842157Y-9667636D01*
X11842157Y-9667636D02*
X11842157Y-9686684D01*
X11946918Y-9686684D02*
X11985014Y-9686684D01*
X11985014Y-9686684D02*
X12004061Y-9677160D01*
X12004061Y-9677160D02*
X12013585Y-9667636D01*
X12013585Y-9667636D02*
X12032633Y-9639065D01*
X12032633Y-9639065D02*
X12042157Y-9600970D01*
X12042157Y-9600970D02*
X12042157Y-9524779D01*
X12042157Y-9524779D02*
X12032633Y-9505732D01*
X12032633Y-9505732D02*
X12023109Y-9496208D01*
X12023109Y-9496208D02*
X12004061Y-9486684D01*
X12004061Y-9486684D02*
X11965966Y-9486684D01*
X11965966Y-9486684D02*
X11946918Y-9496208D01*
X11946918Y-9496208D02*
X11937395Y-9505732D01*
X11937395Y-9505732D02*
X11927871Y-9524779D01*
X11927871Y-9524779D02*
X11927871Y-9572398D01*
X11927871Y-9572398D02*
X11937395Y-9591446D01*
X11937395Y-9591446D02*
X11946918Y-9600970D01*
X11946918Y-9600970D02*
X11965966Y-9610493D01*
X11965966Y-9610493D02*
X12004061Y-9610493D01*
X12004061Y-9610493D02*
X12023109Y-9600970D01*
X12023109Y-9600970D02*
X12032633Y-9591446D01*
X12032633Y-9591446D02*
X12042157Y-9572398D01*
X12223109Y-9486684D02*
X12127871Y-9486684D01*
X12127871Y-9486684D02*
X12118347Y-9581922D01*
X12118347Y-9581922D02*
X12127871Y-9572398D01*
X12127871Y-9572398D02*
X12146918Y-9562874D01*
X12146918Y-9562874D02*
X12194538Y-9562874D01*
X12194538Y-9562874D02*
X12213585Y-9572398D01*
X12213585Y-9572398D02*
X12223109Y-9581922D01*
X12223109Y-9581922D02*
X12232633Y-9600970D01*
X12232633Y-9600970D02*
X12232633Y-9648589D01*
X12232633Y-9648589D02*
X12223109Y-9667636D01*
X12223109Y-9667636D02*
X12213585Y-9677160D01*
X12213585Y-9677160D02*
X12194538Y-9686684D01*
X12194538Y-9686684D02*
X12146918Y-9686684D01*
X12146918Y-9686684D02*
X12127871Y-9677160D01*
X12127871Y-9677160D02*
X12118347Y-9667636D01*
X12356442Y-9486684D02*
X12375490Y-9486684D01*
X12375490Y-9486684D02*
X12394538Y-9496208D01*
X12394538Y-9496208D02*
X12404061Y-9505732D01*
X12404061Y-9505732D02*
X12413585Y-9524779D01*
X12413585Y-9524779D02*
X12423109Y-9562874D01*
X12423109Y-9562874D02*
X12423109Y-9610493D01*
X12423109Y-9610493D02*
X12413585Y-9648589D01*
X12413585Y-9648589D02*
X12404061Y-9667636D01*
X12404061Y-9667636D02*
X12394538Y-9677160D01*
X12394538Y-9677160D02*
X12375490Y-9686684D01*
X12375490Y-9686684D02*
X12356442Y-9686684D01*
X12356442Y-9686684D02*
X12337395Y-9677160D01*
X12337395Y-9677160D02*
X12327871Y-9667636D01*
X12327871Y-9667636D02*
X12318347Y-9648589D01*
X12318347Y-9648589D02*
X12308823Y-9610493D01*
X12308823Y-9610493D02*
X12308823Y-9562874D01*
X12308823Y-9562874D02*
X12318347Y-9524779D01*
X12318347Y-9524779D02*
X12327871Y-9505732D01*
X12327871Y-9505732D02*
X12337395Y-9496208D01*
X12337395Y-9496208D02*
X12356442Y-9486684D01*
X12508823Y-9686684D02*
X12508823Y-9553351D01*
X12508823Y-9572398D02*
X12518347Y-9562874D01*
X12518347Y-9562874D02*
X12537395Y-9553351D01*
X12537395Y-9553351D02*
X12565966Y-9553351D01*
X12565966Y-9553351D02*
X12585014Y-9562874D01*
X12585014Y-9562874D02*
X12594538Y-9581922D01*
X12594538Y-9581922D02*
X12594538Y-9686684D01*
X12594538Y-9581922D02*
X12604061Y-9562874D01*
X12604061Y-9562874D02*
X12623109Y-9553351D01*
X12623109Y-9553351D02*
X12651680Y-9553351D01*
X12651680Y-9553351D02*
X12670728Y-9562874D01*
X12670728Y-9562874D02*
X12680252Y-9581922D01*
X12680252Y-9581922D02*
X12680252Y-9686684D01*
X12775490Y-9686684D02*
X12775490Y-9553351D01*
X12775490Y-9572398D02*
X12785014Y-9562874D01*
X12785014Y-9562874D02*
X12804061Y-9553351D01*
X12804061Y-9553351D02*
X12832633Y-9553351D01*
X12832633Y-9553351D02*
X12851680Y-9562874D01*
X12851680Y-9562874D02*
X12861204Y-9581922D01*
X12861204Y-9581922D02*
X12861204Y-9686684D01*
X12861204Y-9581922D02*
X12870728Y-9562874D01*
X12870728Y-9562874D02*
X12889776Y-9553351D01*
X12889776Y-9553351D02*
X12918347Y-9553351D01*
X12918347Y-9553351D02*
X12937395Y-9562874D01*
X12937395Y-9562874D02*
X12946919Y-9581922D01*
X12946919Y-9581922D02*
X12946919Y-9686684D01*
X13337395Y-9477160D02*
X13165966Y-9734303D01*
X13594538Y-9486684D02*
X13613585Y-9486684D01*
X13613585Y-9486684D02*
X13632633Y-9496208D01*
X13632633Y-9496208D02*
X13642157Y-9505732D01*
X13642157Y-9505732D02*
X13651681Y-9524779D01*
X13651681Y-9524779D02*
X13661204Y-9562874D01*
X13661204Y-9562874D02*
X13661204Y-9610493D01*
X13661204Y-9610493D02*
X13651681Y-9648589D01*
X13651681Y-9648589D02*
X13642157Y-9667636D01*
X13642157Y-9667636D02*
X13632633Y-9677160D01*
X13632633Y-9677160D02*
X13613585Y-9686684D01*
X13613585Y-9686684D02*
X13594538Y-9686684D01*
X13594538Y-9686684D02*
X13575490Y-9677160D01*
X13575490Y-9677160D02*
X13565966Y-9667636D01*
X13565966Y-9667636D02*
X13556442Y-9648589D01*
X13556442Y-9648589D02*
X13546919Y-9610493D01*
X13546919Y-9610493D02*
X13546919Y-9562874D01*
X13546919Y-9562874D02*
X13556442Y-9524779D01*
X13556442Y-9524779D02*
X13565966Y-9505732D01*
X13565966Y-9505732D02*
X13575490Y-9496208D01*
X13575490Y-9496208D02*
X13594538Y-9486684D01*
X13746919Y-9667636D02*
X13756442Y-9677160D01*
X13756442Y-9677160D02*
X13746919Y-9686684D01*
X13746919Y-9686684D02*
X13737395Y-9677160D01*
X13737395Y-9677160D02*
X13746919Y-9667636D01*
X13746919Y-9667636D02*
X13746919Y-9686684D01*
X13946919Y-9686684D02*
X13832633Y-9686684D01*
X13889776Y-9686684D02*
X13889776Y-9486684D01*
X13889776Y-9486684D02*
X13870728Y-9515255D01*
X13870728Y-9515255D02*
X13851681Y-9534303D01*
X13851681Y-9534303D02*
X13832633Y-9543827D01*
X14127871Y-9486684D02*
X14032633Y-9486684D01*
X14032633Y-9486684D02*
X14023109Y-9581922D01*
X14023109Y-9581922D02*
X14032633Y-9572398D01*
X14032633Y-9572398D02*
X14051681Y-9562874D01*
X14051681Y-9562874D02*
X14099300Y-9562874D01*
X14099300Y-9562874D02*
X14118347Y-9572398D01*
X14118347Y-9572398D02*
X14127871Y-9581922D01*
X14127871Y-9581922D02*
X14137395Y-9600970D01*
X14137395Y-9600970D02*
X14137395Y-9648589D01*
X14137395Y-9648589D02*
X14127871Y-9667636D01*
X14127871Y-9667636D02*
X14118347Y-9677160D01*
X14118347Y-9677160D02*
X14099300Y-9686684D01*
X14099300Y-9686684D02*
X14051681Y-9686684D01*
X14051681Y-9686684D02*
X14032633Y-9677160D01*
X14032633Y-9677160D02*
X14023109Y-9667636D01*
X14318347Y-9486684D02*
X14223109Y-9486684D01*
X14223109Y-9486684D02*
X14213585Y-9581922D01*
X14213585Y-9581922D02*
X14223109Y-9572398D01*
X14223109Y-9572398D02*
X14242157Y-9562874D01*
X14242157Y-9562874D02*
X14289776Y-9562874D01*
X14289776Y-9562874D02*
X14308823Y-9572398D01*
X14308823Y-9572398D02*
X14318347Y-9581922D01*
X14318347Y-9581922D02*
X14327871Y-9600970D01*
X14327871Y-9600970D02*
X14327871Y-9648589D01*
X14327871Y-9648589D02*
X14318347Y-9667636D01*
X14318347Y-9667636D02*
X14308823Y-9677160D01*
X14308823Y-9677160D02*
X14289776Y-9686684D01*
X14289776Y-9686684D02*
X14242157Y-9686684D01*
X14242157Y-9686684D02*
X14223109Y-9677160D01*
X14223109Y-9677160D02*
X14213585Y-9667636D01*
X14508823Y-9486684D02*
X14413585Y-9486684D01*
X14413585Y-9486684D02*
X14404062Y-9581922D01*
X14404062Y-9581922D02*
X14413585Y-9572398D01*
X14413585Y-9572398D02*
X14432633Y-9562874D01*
X14432633Y-9562874D02*
X14480252Y-9562874D01*
X14480252Y-9562874D02*
X14499300Y-9572398D01*
X14499300Y-9572398D02*
X14508823Y-9581922D01*
X14508823Y-9581922D02*
X14518347Y-9600970D01*
X14518347Y-9600970D02*
X14518347Y-9648589D01*
X14518347Y-9648589D02*
X14508823Y-9667636D01*
X14508823Y-9667636D02*
X14499300Y-9677160D01*
X14499300Y-9677160D02*
X14480252Y-9686684D01*
X14480252Y-9686684D02*
X14432633Y-9686684D01*
X14432633Y-9686684D02*
X14413585Y-9677160D01*
X14413585Y-9677160D02*
X14404062Y-9667636D01*
X14594538Y-9486684D02*
X14594538Y-9524779D01*
X14670728Y-9486684D02*
X14670728Y-9524779D01*
X14965966Y-9762874D02*
X14956443Y-9753351D01*
X14956443Y-9753351D02*
X14937395Y-9724779D01*
X14937395Y-9724779D02*
X14927871Y-9705732D01*
X14927871Y-9705732D02*
X14918347Y-9677160D01*
X14918347Y-9677160D02*
X14908824Y-9629541D01*
X14908824Y-9629541D02*
X14908824Y-9591446D01*
X14908824Y-9591446D02*
X14918347Y-9543827D01*
X14918347Y-9543827D02*
X14927871Y-9515255D01*
X14927871Y-9515255D02*
X14937395Y-9496208D01*
X14937395Y-9496208D02*
X14956443Y-9467636D01*
X14956443Y-9467636D02*
X14965966Y-9458112D01*
X15127871Y-9553351D02*
X15127871Y-9686684D01*
X15080252Y-9477160D02*
X15032633Y-9620017D01*
X15032633Y-9620017D02*
X15156443Y-9620017D01*
X15385014Y-9686684D02*
X15385014Y-9486684D01*
X15470728Y-9686684D02*
X15470728Y-9581922D01*
X15470728Y-9581922D02*
X15461205Y-9562874D01*
X15461205Y-9562874D02*
X15442157Y-9553351D01*
X15442157Y-9553351D02*
X15413585Y-9553351D01*
X15413585Y-9553351D02*
X15394538Y-9562874D01*
X15394538Y-9562874D02*
X15385014Y-9572398D01*
X15594538Y-9686684D02*
X15575490Y-9677160D01*
X15575490Y-9677160D02*
X15565966Y-9667636D01*
X15565966Y-9667636D02*
X15556443Y-9648589D01*
X15556443Y-9648589D02*
X15556443Y-9591446D01*
X15556443Y-9591446D02*
X15565966Y-9572398D01*
X15565966Y-9572398D02*
X15575490Y-9562874D01*
X15575490Y-9562874D02*
X15594538Y-9553351D01*
X15594538Y-9553351D02*
X15623109Y-9553351D01*
X15623109Y-9553351D02*
X15642157Y-9562874D01*
X15642157Y-9562874D02*
X15651681Y-9572398D01*
X15651681Y-9572398D02*
X15661205Y-9591446D01*
X15661205Y-9591446D02*
X15661205Y-9648589D01*
X15661205Y-9648589D02*
X15651681Y-9667636D01*
X15651681Y-9667636D02*
X15642157Y-9677160D01*
X15642157Y-9677160D02*
X15623109Y-9686684D01*
X15623109Y-9686684D02*
X15594538Y-9686684D01*
X15775490Y-9686684D02*
X15756443Y-9677160D01*
X15756443Y-9677160D02*
X15746919Y-9658112D01*
X15746919Y-9658112D02*
X15746919Y-9486684D01*
X15927871Y-9677160D02*
X15908824Y-9686684D01*
X15908824Y-9686684D02*
X15870728Y-9686684D01*
X15870728Y-9686684D02*
X15851681Y-9677160D01*
X15851681Y-9677160D02*
X15842157Y-9658112D01*
X15842157Y-9658112D02*
X15842157Y-9581922D01*
X15842157Y-9581922D02*
X15851681Y-9562874D01*
X15851681Y-9562874D02*
X15870728Y-9553351D01*
X15870728Y-9553351D02*
X15908824Y-9553351D01*
X15908824Y-9553351D02*
X15927871Y-9562874D01*
X15927871Y-9562874D02*
X15937395Y-9581922D01*
X15937395Y-9581922D02*
X15937395Y-9600970D01*
X15937395Y-9600970D02*
X15842157Y-9620017D01*
X16013586Y-9677160D02*
X16032633Y-9686684D01*
X16032633Y-9686684D02*
X16070728Y-9686684D01*
X16070728Y-9686684D02*
X16089776Y-9677160D01*
X16089776Y-9677160D02*
X16099300Y-9658112D01*
X16099300Y-9658112D02*
X16099300Y-9648589D01*
X16099300Y-9648589D02*
X16089776Y-9629541D01*
X16089776Y-9629541D02*
X16070728Y-9620017D01*
X16070728Y-9620017D02*
X16042157Y-9620017D01*
X16042157Y-9620017D02*
X16023109Y-9610493D01*
X16023109Y-9610493D02*
X16013586Y-9591446D01*
X16013586Y-9591446D02*
X16013586Y-9581922D01*
X16013586Y-9581922D02*
X16023109Y-9562874D01*
X16023109Y-9562874D02*
X16042157Y-9553351D01*
X16042157Y-9553351D02*
X16070728Y-9553351D01*
X16070728Y-9553351D02*
X16089776Y-9562874D01*
X16165967Y-9762874D02*
X16175490Y-9753351D01*
X16175490Y-9753351D02*
X16194538Y-9724779D01*
X16194538Y-9724779D02*
X16204062Y-9705732D01*
X16204062Y-9705732D02*
X16213586Y-9677160D01*
X16213586Y-9677160D02*
X16223109Y-9629541D01*
X16223109Y-9629541D02*
X16223109Y-9591446D01*
X16223109Y-9591446D02*
X16213586Y-9543827D01*
X16213586Y-9543827D02*
X16204062Y-9515255D01*
X16204062Y-9515255D02*
X16194538Y-9496208D01*
X16194538Y-9496208D02*
X16175490Y-9467636D01*
X16175490Y-9467636D02*
X16165967Y-9458112D01*
M02*
