%TF.GenerationSoftware,KiCad,Pcbnew,10.0.4*%
%TF.CreationDate,2026-07-15T16:18:25-07:00*%
%TF.ProjectId,WaferSpaceCOB,57616665-7253-4706-9163-65434f422e6b,rev?*%
%TF.SameCoordinates,Original*%
%TF.FileFunction,Profile,NP*%
%FSLAX46Y46*%
G04 Gerber Fmt 4.6, Leading zero omitted, Abs format (unit mm)*
G04 Created by KiCad (PCBNEW 10.0.4) date 2026-07-15 16:18:25*
%MOMM*%
%LPD*%
G01*
G04 APERTURE LIST*
%TA.AperFunction,Profile*%
%ADD10C,0.050000*%
%TD*%
G04 APERTURE END LIST*
D10*
X113944038Y-31324558D02*
G75*
G02*
X114114136Y-30720584I1058462J27844D01*
G01*
X196323810Y-30724023D02*
G75*
G02*
X196491245Y-31319600I-908710J-576791D01*
G01*
X185681253Y-27993000D02*
X193443324Y-27993000D01*
X129791253Y-68707001D02*
X116982054Y-68707001D01*
X194815625Y-28794434D02*
X196323817Y-30724032D01*
X116982054Y-68707001D02*
G75*
G02*
X115609949Y-67905981I66446J1689501D01*
G01*
X113944038Y-31324558D02*
X113934036Y-65551359D01*
X114101478Y-65975971D02*
G75*
G02*
X113934046Y-65551459I660722J505871D01*
G01*
X115619731Y-28794351D02*
G75*
G02*
X116992103Y-27993007I1438869J-888363D01*
G01*
X124721253Y-27993000D02*
X116992103Y-27993000D01*
X194805564Y-67905644D02*
X196314629Y-65974929D01*
X180591253Y-68707001D02*
X193432968Y-68707001D01*
X196491253Y-31319600D02*
X196481271Y-65551503D01*
X193443324Y-27993000D02*
G75*
G02*
X194815660Y-28794412I-66524J-1689614D01*
G01*
X115619731Y-28794351D02*
X114114157Y-30720599D01*
X115609978Y-67905963D02*
X114101478Y-65975971D01*
X196481271Y-65551506D02*
G75*
G02*
X196314621Y-65974923I-829071J81806D01*
G01*
X194805564Y-67905644D02*
G75*
G02*
X193432970Y-68707049I-1438864J888244D01*
G01*
%TO.C,U3*%
X183888829Y-26800000D02*
G75*
G02*
X183821363Y-26961319I-226603J1D01*
G01*
X183660229Y-26317400D02*
G75*
G02*
X183888829Y-26546000I1J-228599D01*
G01*
X183538229Y-27993000D02*
G75*
G02*
X183308958Y-27521974I-98J291264D01*
G01*
X178173160Y-27521974D02*
G75*
G02*
X177943888Y-27993001I-229174J-179762D01*
G01*
X177660754Y-26961319D02*
G75*
G02*
X177593288Y-26800000I159137J161320D01*
G01*
X177593288Y-26546000D02*
G75*
G02*
X177821888Y-26317400I228599J1D01*
G01*
X132839746Y-26798966D02*
G75*
G02*
X132772280Y-26960285I-226603J1D01*
G01*
X132611146Y-26316366D02*
G75*
G02*
X132839746Y-26544966I1J-228599D01*
G01*
X132489146Y-27991966D02*
G75*
G02*
X132259875Y-27520940I-98J291264D01*
G01*
X127087525Y-27521974D02*
G75*
G02*
X126858253Y-27993001I-229174J-179762D01*
G01*
X126575119Y-26961319D02*
G75*
G02*
X126507653Y-26800000I159137J161320D01*
G01*
X126507653Y-26546000D02*
G75*
G02*
X126736253Y-26317400I228599J1D01*
G01*
X185681253Y-27993000D02*
X183546525Y-27993000D01*
X183888829Y-26800000D02*
X183888829Y-26546000D01*
X183660226Y-26317399D02*
X180740493Y-26317446D01*
X183309724Y-27521002D02*
X183821372Y-26961309D01*
X180740493Y-26317446D02*
X177821888Y-26317400D01*
X178172393Y-27521002D02*
X177660745Y-26961309D01*
X177593288Y-26800000D02*
X177593288Y-26546000D01*
X155202389Y-27993846D02*
X177943997Y-27992998D01*
X155202389Y-27993846D02*
X132489146Y-27991966D01*
X132839746Y-26798966D02*
X132839746Y-26544966D01*
X132260641Y-27519968D02*
X132772289Y-26960275D01*
X129664285Y-26317446D02*
X132611147Y-26316366D01*
X127086758Y-27521002D02*
X126575110Y-26961309D01*
X126736253Y-26317400D02*
X129664285Y-26317446D01*
X126507653Y-26800000D02*
X126507653Y-26546000D01*
X124721253Y-27993000D02*
X126858253Y-27993000D01*
%TO.C,U4*%
X180591253Y-68707000D02*
X177924253Y-68707001D01*
X177924253Y-75565001D02*
X177924253Y-68707001D01*
X177797253Y-76327001D02*
X177924253Y-75565001D01*
X132585253Y-76327000D02*
X177797253Y-76327001D01*
X132458253Y-75565001D02*
X132585253Y-76327000D01*
X132458253Y-75565001D02*
X132458253Y-68707000D01*
X129791253Y-68706999D02*
X132458253Y-68707000D01*
%TD*%
M02*
