%TF.GenerationSoftware,KiCad,Pcbnew,10.0.4*%
%TF.CreationDate,2026-07-15T16:18:24-07:00*%
%TF.ProjectId,WaferSpaceCOB,57616665-7253-4706-9163-65434f422e6b,rev?*%
%TF.SameCoordinates,Original*%
%TF.FileFunction,Paste,Bot*%
%TF.FilePolarity,Positive*%
%FSLAX46Y46*%
G04 Gerber Fmt 4.6, Leading zero omitted, Abs format (unit mm)*
G04 Created by KiCad (PCBNEW 10.0.4) date 2026-07-15 16:18:24*
%MOMM*%
%LPD*%
G01*
G04 APERTURE LIST*
G04 Aperture macros list*
%AMRoundRect*
0 Rectangle with rounded corners*
0 $1 Rounding radius*
0 $2 $3 $4 $5 $6 $7 $8 $9 X,Y pos of 4 corners*
0 Add a 4 corners polygon primitive as box body*
4,1,4,$2,$3,$4,$5,$6,$7,$8,$9,$2,$3,0*
0 Add four circle primitives for the rounded corners*
1,1,$1+$1,$2,$3*
1,1,$1+$1,$4,$5*
1,1,$1+$1,$6,$7*
1,1,$1+$1,$8,$9*
0 Add four rect primitives between the rounded corners*
20,1,$1+$1,$2,$3,$4,$5,0*
20,1,$1+$1,$4,$5,$6,$7,0*
20,1,$1+$1,$6,$7,$8,$9,0*
20,1,$1+$1,$8,$9,$2,$3,0*%
%AMFreePoly0*
4,1,163,0.839908,7.308418,0.851064,7.307805,1.105064,7.282405,1.122943,7.279293,1.224543,7.253893,1.279282,7.224224,1.634882,6.894024,1.642319,6.886509,1.896319,6.607109,1.903826,6.598025,1.980026,6.496425,2.004513,6.432742,2.029913,6.153342,2.030260,6.148459,2.081060,5.162757,2.079827,5.157588,2.081113,5.151009,2.030313,3.957209,2.027999,3.938008,2.002599,3.811008,
2.000703,3.806939,2.000786,3.804756,1.995660,3.788976,1.849111,3.422604,1.776000,2.862083,1.776000,0.584200,1.773573,0.559685,1.748173,0.432685,1.715461,0.370309,1.698255,0.355483,1.342655,0.101483,1.337595,0.098053,0.981995,-0.130547,0.934950,-0.148699,0.782550,-0.174099,0.762000,-0.175800,-0.762000,-0.175800,-0.782550,-0.174099,-0.934950,-0.148699,-0.981995,-0.130547,
-1.337595,0.098053,-1.342655,0.101483,-1.698255,0.355483,-1.741713,0.410911,-1.748173,0.432685,-1.773573,0.559685,-1.776000,0.584200,-1.776000,1.092200,-0.940901,1.092200,-0.925183,0.935020,-0.301231,0.912736,-0.287440,0.910879,-0.285291,0.910879,-0.284256,0.910450,-0.281803,0.910120,-0.265654,0.902744,-0.249243,0.895947,-0.247327,0.894375,-0.246311,0.893911,-0.244850,0.892342,
-0.234089,0.883511,-0.208689,0.858111,-0.199857,0.847349,-0.198289,0.845889,-0.197824,0.844872,-0.196253,0.842957,-0.189455,0.826545,-0.182080,0.810397,-0.181749,0.807943,-0.181321,0.806909,-0.181321,0.804760,-0.179464,0.790969,-0.157179,0.167017,0.000000,0.151299,0.157180,0.167017,0.179464,0.790969,0.181321,0.804760,0.181321,0.806909,0.181749,0.807943,0.182080,0.810397,
0.189455,0.826545,0.196253,0.842957,0.197824,0.844872,0.198289,0.845889,0.199857,0.847349,0.208689,0.858111,0.234089,0.883511,0.244850,0.892342,0.246311,0.893911,0.247327,0.894375,0.249243,0.895947,0.265654,0.902744,0.281803,0.910120,0.284256,0.910450,0.285291,0.910879,0.287440,0.910879,0.301231,0.912736,0.925182,0.935020,0.940900,1.092200,0.925193,1.249271,
0.302261,1.270752,0.282830,1.273345,0.253654,1.286625,0.249243,1.288453,0.248748,1.288858,0.247318,1.289510,0.245233,1.291743,0.234089,1.300889,0.208689,1.326289,0.199543,1.337433,0.197310,1.339518,0.196658,1.340948,0.196253,1.341443,0.194425,1.345854,0.181145,1.375030,0.178552,1.394461,0.157071,2.017393,0.000000,2.033100,-0.157071,2.017393,-0.178583,1.393554,
-0.181176,1.374123,-0.197341,1.338611,-0.202622,1.333681,-0.208689,1.326289,-0.234089,1.300889,-0.245233,1.291743,-0.247318,1.289510,-0.248748,1.288858,-0.249243,1.288453,-0.253654,1.286625,-0.282830,1.273345,-0.302261,1.270752,-0.925193,1.249271,-0.940901,1.092200,-1.776000,1.092200,-1.776000,2.862083,-1.849111,3.422604,-1.995660,3.788976,-1.996732,3.800247,-2.001747,3.811008,
-2.027147,3.938008,-2.029461,3.957209,-2.080261,5.151009,-2.079292,5.154915,-2.080208,5.162757,-2.029408,6.148459,-2.029061,6.153342,-2.003661,6.432742,-1.979174,6.496425,-1.902974,6.598025,-1.895467,6.607109,-1.641467,6.886509,-1.634030,6.894024,-1.278430,7.224224,-1.223691,7.253893,-1.122091,7.279293,-1.104212,7.282405,-0.850212,7.307805,-0.839056,7.308418,-0.000856,7.317018,
0.000243,7.316707,0.001708,7.317018,0.839908,7.308418,0.839908,7.308418,$1*%
%AMFreePoly1*
4,1,90,0.839908,7.359873,0.851064,7.359260,1.105064,7.333860,1.122943,7.330748,1.224543,7.305348,1.279282,7.275679,1.634882,6.945479,1.642319,6.937964,1.896319,6.658564,1.903826,6.649480,1.980026,6.547880,2.004513,6.484197,2.029913,6.204797,2.030261,6.199909,2.081061,5.213552,2.079828,5.208384,2.081113,5.201809,2.030313,4.008009,2.027999,3.988808,2.002599,3.861808,
2.000703,3.857739,2.000786,3.855556,1.995660,3.839776,1.849111,3.473404,1.776000,2.912883,1.776000,0.635000,1.773573,0.610485,1.748173,0.483485,1.715461,0.421109,1.698255,0.406283,1.342655,0.152283,1.337595,0.148853,0.981995,-0.079747,0.934950,-0.097899,0.782550,-0.123299,0.762000,-0.125000,-0.762000,-0.125000,-0.782550,-0.123299,-0.934950,-0.097899,-0.981995,-0.079747,
-1.337595,0.148853,-1.342655,0.152283,-1.698255,0.406283,-1.741713,0.461711,-1.748173,0.483485,-1.773573,0.610485,-1.776000,0.635000,-1.776000,1.143000,-0.940901,1.143000,-0.925183,0.985820,-0.305596,0.963691,-0.305281,0.963723,0.306133,0.963723,0.306221,0.963714,0.925182,0.985820,0.940900,1.143000,0.925193,1.300071,0.303972,1.321493,-0.303972,1.321493,-0.925193,1.300071,
-0.940901,1.143000,-1.776000,1.143000,-1.776000,2.912883,-1.849111,3.473404,-1.995660,3.839776,-1.996732,3.851047,-2.001747,3.861808,-2.027147,3.988808,-2.029461,4.008009,-2.080261,5.201809,-2.079292,5.205715,-2.080209,5.213552,-2.029409,6.199909,-2.029061,6.204797,-2.003661,6.484197,-1.979174,6.547880,-1.902974,6.649480,-1.895467,6.658564,-1.641467,6.937964,-1.634030,6.945479,
-1.278430,7.275679,-1.223691,7.305348,-1.122091,7.330748,-1.104212,7.333860,-0.850212,7.359260,-0.839056,7.359873,-0.000856,7.368473,0.000243,7.368162,0.001708,7.368473,0.839908,7.359873,0.839908,7.359873,$1*%
%AMFreePoly2*
4,1,79,0.000002,0.792226,0.293920,0.792226,0.294131,0.792222,0.314197,0.791375,0.315932,0.790985,0.352898,0.775363,0.354381,0.774396,0.368999,0.760623,0.369152,0.760472,0.435597,0.692225,0.503889,0.625737,0.504040,0.625584,0.517813,0.610966,0.518780,0.609483,0.534402,0.572517,0.534792,0.570782,0.535639,0.550716,0.535643,0.550505,0.535642,0.087985,0.535643,0.087963,
0.535642,-0.205958,0.535643,-0.499879,0.535639,-0.500090,0.534792,-0.520156,0.534402,-0.521891,0.518780,-0.558857,0.517813,-0.560340,0.504040,-0.574958,0.503889,-0.575111,0.435619,-0.641577,0.369153,-0.709847,0.369000,-0.709998,0.354382,-0.723772,0.352899,-0.724739,0.315933,-0.740360,0.314198,-0.740750,0.294132,-0.741597,0.293921,-0.741601,0.000000,-0.741601,-0.000002,-0.741600,
-0.293920,-0.741600,-0.294131,-0.741596,-0.314197,-0.740749,-0.315932,-0.740359,-0.352898,-0.724737,-0.354381,-0.723770,-0.368999,-0.709997,-0.369152,-0.709846,-0.435597,-0.641599,-0.503889,-0.575111,-0.504040,-0.574958,-0.517813,-0.560340,-0.518780,-0.558857,-0.534402,-0.521891,-0.534792,-0.520156,-0.535639,-0.500090,-0.535643,-0.499879,-0.535642,-0.205958,-0.535643,0.087963,-0.535642,0.087985,
-0.535643,0.550505,-0.535639,0.550716,-0.534792,0.570782,-0.534402,0.572517,-0.518780,0.609483,-0.517813,0.610966,-0.504040,0.625584,-0.503889,0.625737,-0.435619,0.692203,-0.369153,0.760473,-0.369000,0.760624,-0.354382,0.774398,-0.352899,0.775365,-0.315933,0.790986,-0.314198,0.791376,-0.294132,0.792223,-0.293921,0.792227,0.000000,0.792227,0.000002,0.792226,0.000002,0.792226,
$1*%
%AMFreePoly3*
4,1,191,0.413727,4.693039,0.418651,4.693039,0.442333,4.688328,0.460357,4.680862,0.476260,4.670236,0.490055,4.656441,0.500682,4.640537,0.508148,4.622513,0.512859,4.598831,0.512859,4.593907,0.513820,4.589076,0.513820,0.024924,0.512859,0.020092,0.512859,0.015169,0.508148,-0.008513,0.500682,-0.026537,0.490056,-0.042440,0.476261,-0.056235,0.460357,-0.066862,0.442333,-0.074328,
0.418651,-0.079039,0.413727,-0.079039,0.408896,-0.080000,-0.381256,-0.080000,-0.386087,-0.079039,-0.391011,-0.079039,-0.414694,-0.074328,-0.432718,-0.066862,-0.448622,-0.056235,-0.462417,-0.042439,-0.473043,-0.026537,-0.480509,-0.008513,-0.480508,-0.008511,-0.485220,0.015171,-0.485219,0.020096,-0.486180,0.024924,-0.486180,0.273971,-0.304871,0.273971,-0.304871,0.174028,-0.303439,0.159489,
-0.292307,0.132616,-0.271753,0.112063,-0.244904,0.100941,-0.215838,0.100941,-0.188987,0.112063,-0.168434,0.132616,-0.157303,0.159489,-0.155871,0.174028,-0.155871,0.199000,-0.155725,0.199354,-0.155371,0.199500,0.309600,0.199500,0.324138,0.200931,0.351012,0.212063,0.371565,0.232616,0.382688,0.259466,0.382688,0.288532,0.371565,0.315383,0.351012,0.335936,0.324139,0.347069,
0.309600,0.348500,-0.230342,0.348500,-0.244881,0.347068,-0.271753,0.335936,-0.292307,0.315383,-0.303439,0.288510,-0.304871,0.273971,-0.486180,0.273971,-0.486180,0.648532,-0.293430,0.648532,-0.293430,0.619467,-0.282307,0.592616,-0.261754,0.572063,-0.234881,0.560929,-0.220342,0.559500,0.309601,0.559500,0.324139,0.560931,0.351012,0.572063,0.371565,0.592616,0.382697,0.619489,
0.384129,0.634028,0.384129,0.733971,0.382697,0.748511,0.371565,0.775383,0.351012,0.795936,0.324161,0.807059,0.295097,0.807059,0.268245,0.795936,0.247692,0.775383,0.236560,0.748511,0.235129,0.733971,0.235129,0.709001,0.234983,0.708647,0.234629,0.708501,-0.220342,0.708500,-0.234881,0.707069,-0.261754,0.695936,-0.282307,0.675383,-0.293430,0.648532,-0.486180,0.648532,
-0.486180,0.809439,-0.379741,0.809439,-0.378525,0.805925,-0.378521,0.805612,-0.379630,0.802063,-0.372451,0.788360,-0.372421,0.788292,-0.367359,0.773666,-0.364016,0.772044,-0.363791,0.771826,-0.362040,0.768482,-0.345089,0.759238,-0.265183,0.734267,-0.262583,0.733990,-0.262346,0.733900,-0.261529,0.733316,-0.259545,0.733647,-0.259410,0.733651,-0.256969,0.733390,-0.256791,0.733336,
-0.254659,0.732225,-0.252593,0.732880,-0.252389,0.732900,-0.245985,0.732215,-0.235719,0.737593,-0.235569,0.737643,-0.224134,0.739548,-0.220499,0.742963,-0.220308,0.743076,-0.218563,0.743626,-0.217427,0.745812,-0.217325,0.745945,-0.214290,0.748796,-0.214180,0.748875,-0.212402,0.749806,-0.212103,0.750763,-0.211968,0.750978,-0.210065,0.752765,-0.160118,0.822688,-0.152179,0.840288,
-0.152877,0.844483,-0.152834,0.844783,-0.151001,0.848559,-0.155918,0.862770,-0.155938,0.862851,-0.158409,0.877680,-0.161826,0.880122,-0.162007,0.880365,-0.163380,0.884332,-0.176906,0.890903,-0.176979,0.890946,-0.189213,0.899683,-0.193354,0.898994,-0.193654,0.899037,-0.197483,0.900896,-0.216605,0.898261,-0.233002,0.892587,-0.233384,0.892610,-0.233639,0.892896,-0.263154,0.986361,
-0.272447,1.003281,-0.306082,1.020772,-0.342177,1.009373,-0.359670,0.975738,-0.357558,0.956548,-0.327223,0.860487,-0.327256,0.860105,-0.327536,0.859864,-0.346512,0.853294,-0.363180,0.843538,-0.364828,0.840146,-0.365046,0.839921,-0.368338,0.838194,-0.372953,0.823429,-0.372980,0.823360,-0.379741,0.809439,-0.486180,0.809439,-0.486180,4.589076,-0.485219,4.593903,-0.485220,4.598829,
-0.480509,4.622513,-0.473043,4.640537,-0.462416,4.656441,-0.448620,4.670236,-0.432718,4.680862,-0.414694,4.688328,-0.391011,4.693039,-0.386087,4.693039,-0.381256,4.694000,0.408896,4.694000,0.413727,4.693039,0.413727,4.693039,$1*%
%AMFreePoly4*
4,1,198,0.419907,4.673039,0.424831,4.673039,0.448513,4.668328,0.466537,4.660862,0.482440,4.650236,0.496235,4.636441,0.506862,4.620537,0.514328,4.602513,0.519039,4.578831,0.519039,4.573907,0.520000,4.569076,0.520000,0.004924,0.519039,0.000092,0.519039,-0.004831,0.514328,-0.028513,0.506862,-0.046537,0.496236,-0.062440,0.482441,-0.076235,0.466537,-0.086862,0.448513,-0.094328,
0.424831,-0.099039,0.419907,-0.099039,0.415076,-0.100000,-0.375076,-0.100000,-0.379907,-0.099039,-0.384831,-0.099039,-0.408514,-0.094328,-0.426538,-0.086862,-0.442442,-0.076235,-0.456237,-0.062439,-0.466863,-0.046537,-0.474329,-0.028513,-0.474328,-0.028511,-0.479040,-0.004829,-0.479039,0.000096,-0.480000,0.004924,-0.480000,0.209437,0.176029,0.209437,0.180947,0.195232,0.180968,0.195150,
0.183439,0.180319,0.186855,0.177878,0.187036,0.177635,0.188410,0.173667,0.201935,0.167098,0.202008,0.167055,0.214244,0.158316,0.218383,0.159005,0.218683,0.158962,0.222511,0.157103,0.241639,0.159739,0.258032,0.165413,0.258414,0.165391,0.258668,0.165105,0.258673,0.165092,0.288183,0.071638,0.297477,0.054717,0.331112,0.037227,0.367208,0.048625,0.384698,0.082261,
0.382587,0.101451,0.352252,0.197512,0.352285,0.197894,0.352565,0.198135,0.371543,0.204705,0.388209,0.214461,0.389856,0.217854,0.390074,0.218079,0.393368,0.219805,0.397984,0.234571,0.398011,0.234640,0.404772,0.248560,0.403556,0.252075,0.403551,0.252388,0.404660,0.255936,0.397480,0.269640,0.397450,0.269709,0.392389,0.284332,0.389045,0.285957,0.388820,0.286175,
0.387070,0.289517,0.370118,0.298761,0.290212,0.323731,0.287613,0.324010,0.287375,0.324100,0.286558,0.324683,0.284576,0.324353,0.284441,0.324349,0.281998,0.324610,0.281820,0.324663,0.279687,0.325772,0.277622,0.325120,0.277418,0.325100,0.271016,0.325784,0.260749,0.320407,0.260599,0.320357,0.249163,0.318450,0.245529,0.315037,0.245337,0.314924,0.243592,0.314374,
0.242457,0.312189,0.242355,0.312055,0.239320,0.309204,0.239210,0.309125,0.237433,0.308193,0.237133,0.307237,0.236999,0.307023,0.235094,0.305231,0.185149,0.235310,0.177207,0.217710,0.177907,0.213515,0.177864,0.213214,0.176029,0.209437,-0.480000,0.209437,-0.480000,0.423971,-0.359099,0.423971,-0.359099,0.324028,-0.357668,0.309489,-0.346535,0.282616,-0.325981,0.262063,
-0.299133,0.250940,-0.270066,0.250940,-0.243216,0.262063,-0.222663,0.282616,-0.211531,0.309488,-0.210099,0.324028,-0.210100,0.349000,-0.209954,0.349354,-0.209600,0.349500,0.245371,0.349500,0.259910,0.350931,0.286784,0.362063,0.307336,0.382615,0.318459,0.409467,0.318459,0.438531,0.307338,0.465383,0.286785,0.485936,0.259910,0.497068,0.245371,0.498500,-0.284571,0.498500,
-0.299110,0.497068,-0.325981,0.485936,-0.346535,0.465382,-0.357667,0.438510,-0.359099,0.423971,-0.480000,0.423971,-0.480000,0.798531,-0.357658,0.798531,-0.357658,0.769467,-0.346535,0.742615,-0.325981,0.722063,-0.299110,0.710930,-0.284570,0.709500,0.255372,0.709500,0.269910,0.710932,0.296784,0.722062,0.317337,0.742615,0.328468,0.769489,0.329900,0.784028,0.329900,0.883971,
0.328469,0.898510,0.317336,0.925383,0.296784,0.945935,0.269932,0.957058,0.240869,0.957058,0.214017,0.945936,0.193464,0.925383,0.182332,0.898510,0.180900,0.883971,0.180901,0.859000,0.180755,0.858646,0.180401,0.858500,-0.284570,0.858500,-0.299109,0.857068,-0.325983,0.845936,-0.346536,0.825383,-0.357658,0.798531,-0.480000,0.798531,-0.480000,1.027805,-0.380000,1.027805,
-0.374913,1.026793,-0.380000,1.030192,-0.380000,1.027805,-0.480000,1.027805,-0.480000,4.569076,-0.479039,4.573903,-0.479040,4.578829,-0.474329,4.602513,-0.466863,4.620537,-0.456236,4.636441,-0.442440,4.650236,-0.426538,4.660862,-0.408514,4.668328,-0.384831,4.673039,-0.379907,4.673039,-0.375076,4.674000,0.415076,4.674000,0.419907,4.673039,0.419907,4.673039,$1*%
%AMFreePoly5*
4,1,28,0.476334,6.762394,0.503394,6.735334,0.507200,6.716200,0.507200,0.868028,0.581291,0.621058,0.583343,0.609069,0.591146,0.445213,0.608743,0.075669,0.608800,0.073291,0.594155,0.037936,0.441755,-0.114464,0.409519,-0.129012,0.003119,-0.154412,-0.003119,-0.154412,-0.409519,-0.129012,-0.441755,-0.114464,-0.594155,0.037936,-0.595797,0.039657,-0.608743,0.075669,-0.583343,0.609069,
-0.581291,0.621058,-0.507200,0.868028,-0.507200,6.716200,-0.503394,6.735334,-0.476334,6.762394,-0.457200,6.766200,0.457200,6.766200,0.476334,6.762394,0.476334,6.762394,$1*%
%AMFreePoly6*
4,1,70,0.380975,4.681904,0.419243,4.674292,0.421046,4.673545,0.453489,4.651868,0.454868,4.650489,0.476545,4.618046,0.477292,4.616243,0.484904,4.577975,0.485000,4.576995,0.480000,0.003488,0.479903,0.003003,0.479904,0.002517,0.472582,-0.034292,0.471835,-0.036095,0.451263,-0.066884,0.449884,-0.068264,0.419095,-0.088835,0.417292,-0.089582,0.380483,-0.096904,0.379991,-0.096903,
0.379508,-0.097000,-0.419508,-0.097000,-0.419991,-0.096903,-0.420484,-0.096904,-0.457293,-0.089582,-0.459096,-0.088835,-0.489885,-0.068263,-0.491265,-0.066884,-0.511836,-0.036095,-0.512583,-0.034292,-0.519904,0.002518,-0.519903,0.003003,-0.520000,0.003488,-0.520323,0.298786,-0.378871,0.298786,-0.198518,0.079786,0.178585,0.079786,0.356523,0.298786,-0.378871,0.298786,-0.520323,0.298786,
-0.520453,0.418095,-0.482522,0.418095,-0.482223,0.414017,-0.442527,0.369786,0.417533,0.369786,0.454462,0.413426,0.454866,0.417454,0.453558,0.418786,-0.482115,0.418786,-0.482522,0.418095,-0.520453,0.418095,-0.520933,0.857051,-0.319790,0.857051,0.290323,0.857051,0.290323,0.940840,-0.319790,0.940840,-0.319790,0.857051,-0.520933,0.857051,-0.525000,4.576995,-0.524904,4.577975,
-0.517292,4.616243,-0.516545,4.618046,-0.494868,4.650489,-0.493489,4.651868,-0.461046,4.673545,-0.459243,4.674292,-0.420975,4.681904,-0.420000,4.682000,0.380000,4.682000,0.380975,4.681904,0.380975,4.681904,$1*%
%AMFreePoly7*
4,1,82,0.380975,4.731904,0.419243,4.724292,0.421046,4.723545,0.453489,4.701868,0.454868,4.700489,0.476545,4.668046,0.477292,4.666243,0.484904,4.627975,0.485000,4.626995,0.480000,0.053488,0.479903,0.053003,0.479904,0.052517,0.472582,0.015708,0.471835,0.013905,0.451263,-0.016884,0.449884,-0.018264,0.419095,-0.038835,0.417292,-0.039582,0.380483,-0.046904,0.379991,-0.046903,
0.379508,-0.047000,-0.419508,-0.047000,-0.419991,-0.046903,-0.420484,-0.046904,-0.457293,-0.039582,-0.459096,-0.038835,-0.489885,-0.018263,-0.491265,-0.016884,-0.511836,0.013905,-0.512583,0.015708,-0.519904,0.052518,-0.519903,0.053003,-0.520000,0.053488,-0.520322,0.348286,-0.387693,0.348286,-0.207339,0.129286,0.169762,0.129286,0.347702,0.348286,-0.387693,0.348286,-0.520322,0.348286,
-0.520388,0.408286,-0.441479,0.408286,-0.406477,0.369286,0.366405,0.369287,0.399405,0.408286,-0.441479,0.408286,-0.520388,0.408286,-0.520971,0.941992,-0.315662,0.941992,-0.315662,0.858203,-0.065400,0.858203,-0.061864,0.856739,-0.060400,0.853203,-0.060400,0.600743,0.029128,0.600743,0.029128,0.853203,0.030592,0.856739,0.034128,0.858203,0.294451,0.858203,0.294451,0.941992,
0.034128,0.941992,0.030592,0.943456,0.029128,0.946992,0.029128,1.189451,-0.060400,1.189451,-0.060400,0.946992,-0.061864,0.943456,-0.065400,0.941992,-0.315662,0.941992,-0.520971,0.941992,-0.525000,4.626995,-0.524904,4.627975,-0.517292,4.666243,-0.516545,4.668046,-0.494868,4.700489,-0.493489,4.701868,-0.461046,4.723545,-0.459243,4.724292,-0.420975,4.731904,-0.420000,4.732000,
0.380000,4.732000,0.380975,4.731904,0.380975,4.731904,$1*%
%AMFreePoly8*
4,1,235,0.404831,5.416039,0.428513,5.411328,0.446537,5.403862,0.462441,5.393235,0.476235,5.379441,0.486862,5.363537,0.494328,5.345513,0.499039,5.321831,0.500000,5.312076,0.500000,0.054924,0.499039,0.050092,0.499039,0.050000,0.500000,0.050000,0.500000,0.000000,0.496194,-0.019134,0.485355,-0.035355,0.469134,-0.046194,0.450000,-0.050000,-0.450000,-0.050000,-0.469134,-0.046194,
-0.485355,-0.035355,-0.496194,-0.019134,-0.500000,0.000000,-0.500000,0.050000,-0.499040,0.050000,-0.499039,0.050096,-0.500000,0.054924,-0.500000,0.406554,-0.368314,0.406554,-0.367190,0.335992,-0.361621,0.272172,-0.356103,0.218763,-0.340662,0.174515,-0.316339,0.137752,-0.290910,0.112908,-0.264498,0.095571,-0.236835,0.084487,-0.207309,0.078951,-0.122361,0.073089,-0.078788,0.073089,
0.082168,0.073932,0.170604,0.076285,0.232573,0.082322,0.268753,0.090827,0.298563,0.104480,0.323089,0.123501,0.351080,0.158787,0.370619,0.201610,0.380852,0.252734,0.385127,0.338520,0.384022,0.395800,0.230940,0.395800,0.231938,0.326760,0.227508,0.281487,0.216941,0.255355,0.203929,0.243595,0.181786,0.235760,0.146306,0.232677,0.115055,0.235387,0.095088,0.242335,
0.082950,0.252827,0.072670,0.275796,0.068490,0.313314,0.066766,0.395800,-0.086956,0.395800,-0.086946,0.394794,-0.083021,0.334088,-0.072975,0.291882,-0.059435,0.268263,-0.037351,0.249007,-0.005320,0.233520,-0.098425,0.233520,-0.146101,0.236451,-0.166088,0.241383,-0.185913,0.250739,-0.201182,0.263831,-0.208921,0.280561,-0.212877,0.335992,-0.215124,0.433445,-0.214001,0.483014,
-0.211236,0.511554,-0.088069,0.511554,-0.087437,0.445800,0.066243,0.445800,0.066243,0.502322,0.070799,0.532103,0.082950,0.553136,0.096042,0.563201,0.114963,0.569633,0.141861,0.572041,0.177512,0.569067,0.200056,0.561499,0.213571,0.550205,0.224972,0.525032,0.229691,0.482172,0.230217,0.445800,0.383057,0.445800,0.381756,0.513239,0.377675,0.579618,0.367015,0.627904,
0.351759,0.662054,0.333250,0.685430,0.306942,0.703387,0.267252,0.717781,0.209663,0.727780,0.128428,0.731629,0.066818,0.728753,0.015197,0.720711,-0.015066,0.710711,-0.037930,0.696037,-0.054559,0.676198,-0.071199,0.641474,-0.081377,0.603108,-0.086276,0.562100,-0.088069,0.511554,-0.211236,0.511554,-0.210966,0.514340,-0.202766,0.538445,-0.192705,0.551394,-0.177487,0.560247,
-0.155725,0.565336,-0.155725,0.719869,-0.216584,0.717006,-0.262523,0.709368,-0.296702,0.698033,-0.317971,0.685600,-0.334852,0.668982,-0.347493,0.647352,-0.355418,0.619485,-0.363198,0.564621,-0.366604,0.521226,-0.368314,0.406554,-0.500000,0.406554,-0.500000,1.183200,-0.367910,1.183200,-0.366066,1.094989,-0.361853,1.027010,-0.350722,0.976362,-0.334573,0.939488,-0.314715,0.913344,
-0.291719,0.895504,-0.254249,0.879327,-0.197010,0.865694,-0.113239,0.855996,0.005036,0.852236,0.046411,0.852236,0.141911,0.855305,0.212816,0.863393,0.264161,0.875069,0.300294,0.889303,0.324750,0.905579,0.342999,0.926257,0.359183,0.955935,0.372488,0.997189,0.381666,1.053039,0.385127,1.126899,0.384410,1.183200,0.199965,1.183200,0.198428,1.137817,0.195059,1.093670,
0.186598,1.064577,0.174953,1.046355,0.161058,1.035748,0.134071,1.026689,0.085841,1.019725,0.006502,1.016844,-0.008006,1.016844,-0.073342,1.019030,-0.117070,1.024537,-0.144878,1.032060,-0.161440,1.040767,-0.172794,1.053248,-0.182808,1.075118,-0.190254,1.110569,-0.193240,1.164708,-0.193240,1.183200,-0.367910,1.183200,-0.500000,1.183200,-0.500000,1.268023,-0.369437,1.268023,
-0.368840,1.233200,-0.193240,1.233200,-0.193240,1.243660,-0.192117,1.272639,-0.186548,1.319241,-0.178820,1.339396,-0.164224,1.358332,-0.142349,1.372772,-0.108976,1.381413,-0.070274,1.385125,-0.023638,1.386468,0.022133,1.386468,0.085818,1.384000,0.128253,1.377784,0.155158,1.369242,0.171121,1.359174,0.185553,1.339239,0.196296,1.305086,0.200675,1.250364,0.200675,1.233200,
0.383773,1.233200,0.382880,1.303304,0.377836,1.382908,0.364984,1.437667,0.347123,1.473810,0.326473,1.497890,0.301984,1.516291,0.273345,1.529740,0.239802,1.538510,0.156799,1.547303,0.005036,1.551113,-0.081595,1.549794,-0.138579,1.546496,-0.190096,1.540101,-0.240868,1.530120,-0.271951,1.519711,-0.298199,1.504221,-0.320247,1.483079,-0.343862,1.445656,-0.357665,1.401599,
-0.367727,1.335214,-0.369437,1.268023,-0.500000,1.268023,-0.500000,5.312076,-0.499040,5.321829,-0.494330,5.345511,-0.486863,5.363537,-0.476236,5.379441,-0.462442,5.393235,-0.446538,5.403862,-0.428514,5.411328,-0.404831,5.416039,-0.395076,5.417000,0.395076,5.417000,0.404831,5.416039,0.404831,5.416039,$1*%
%AMFreePoly9*
4,1,220,0.404831,5.416039,0.428513,5.411328,0.446537,5.403862,0.462441,5.393235,0.476235,5.379441,0.486862,5.363537,0.494328,5.345513,0.499039,5.321831,0.500000,5.312076,0.500000,0.054924,0.499039,0.050092,0.499039,0.050000,0.500000,0.050000,0.500000,0.000000,0.496194,-0.019134,0.485355,-0.035355,0.469134,-0.046194,0.450000,-0.050000,-0.450000,-0.050000,-0.469134,-0.046194,
-0.485355,-0.035355,-0.496194,-0.019134,-0.500000,0.000000,-0.500000,0.050000,-0.499040,0.050000,-0.499039,0.050096,-0.500000,0.054924,-0.500000,0.712322,-0.368314,0.712322,-0.368314,0.097416,0.072496,0.089869,0.072496,0.233520,0.053167,0.237614,0.040772,0.244329,0.033515,0.253670,0.024234,0.283089,0.022475,0.315842,0.022475,0.408239,0.024722,0.499794,0.027906,0.528492,
0.036091,0.547933,0.047974,0.560683,0.065084,0.569494,0.090963,0.575552,0.128916,0.577903,0.170943,0.574876,0.196977,0.567321,0.212154,0.556470,0.221440,0.541332,0.228153,0.517618,0.230814,0.482135,0.231938,0.410767,0.229691,0.329288,0.227618,0.295489,0.221240,0.259972,0.213880,0.244655,0.200682,0.233909,0.180528,0.226941,0.150654,0.224288,0.150654,0.068033,
0.222425,0.071663,0.273982,0.081165,0.310152,0.095009,0.334666,0.112547,0.352233,0.135071,0.366313,0.165942,0.375907,0.207398,0.379509,0.262060,0.385127,0.422527,0.385127,0.486348,0.384003,0.549363,0.378939,0.603871,0.365434,0.644634,0.345316,0.674677,0.319328,0.696348,0.286167,0.712495,0.242363,0.725119,0.185279,0.733557,0.111770,0.736685,0.036482,0.732755,
-0.016809,0.722532,-0.053582,0.707705,-0.075989,0.691868,-0.093629,0.671952,-0.106571,0.647200,-0.114350,0.616554,-0.123875,0.519541,-0.124461,0.448576,-0.124461,0.396479,-0.123338,0.344419,-0.119917,0.309658,-0.110442,0.281404,-0.092757,0.256403,-0.063889,0.233520,-0.218251,0.233520,-0.218251,0.712322,-0.368314,0.712322,-0.500000,0.712322,-0.500000,1.190600,-0.366932,1.190600,
-0.364992,1.080701,-0.361419,1.026363,-0.351785,0.983964,-0.337432,0.951316,-0.319270,0.926535,-0.293936,0.906693,-0.257993,0.891468,-0.208383,0.881252,-0.140972,0.877405,-0.076333,0.880264,-0.027205,0.887914,0.009567,0.899264,0.036585,0.913700,0.055741,0.931151,0.072846,0.957887,0.086710,0.994447,0.096193,1.043370,0.099753,1.107555,0.098365,1.190600,-0.052830,1.190600,
-0.053680,1.135326,-0.057538,1.086185,-0.066478,1.059269,-0.078396,1.047449,-0.100576,1.039423,-0.138286,1.036188,-0.161726,1.038265,-0.180066,1.044054,-0.194510,1.053407,-0.204090,1.066020,-0.211143,1.087297,-0.214001,1.121038,-0.215124,1.186543,-0.215019,1.190600,-0.366932,1.190600,-0.500000,1.190600,-0.500000,1.268866,-0.368314,1.268866,-0.367815,1.240600,-0.213720,1.240600,
-0.212877,1.273079,-0.210679,1.310851,-0.208073,1.333420,-0.201265,1.349214,-0.191189,1.360017,-0.176862,1.367652,-0.156245,1.372764,-0.127148,1.374708,-0.098084,1.371619,-0.078993,1.363439,-0.067016,1.350345,-0.057420,1.323710,-0.053680,1.284839,-0.053030,1.240600,0.097529,1.240600,0.097506,1.241974,0.094187,1.285506,0.085294,1.318838,0.074249,1.338374,0.057419,1.355187,
0.034150,1.369652,0.130772,1.369652,0.167425,1.367106,0.192397,1.360506,0.208930,1.350748,0.220009,1.337019,0.227774,1.315960,0.230814,1.284802,0.231938,1.189071,0.229642,1.103379,0.226533,1.071415,0.218309,1.047948,0.208088,1.036015,0.192457,1.028784,0.169412,1.026113,0.169412,0.868173,0.198623,0.867330,0.247439,0.870184,0.284244,0.877851,0.311703,0.889432,
0.331784,0.904699,0.351388,0.931133,0.367022,0.968569,0.377262,1.020214,0.385127,1.189071,0.381756,1.303304,0.377578,1.369180,0.366580,1.417842,0.350681,1.452913,0.331176,1.477478,0.308581,1.493960,0.271909,1.508798,0.216962,1.521251,0.137782,1.530058,0.027409,1.533454,-0.029598,1.533454,-0.133010,1.531329,-0.177139,1.527635,-0.229681,1.520008,-0.263358,1.511219,
-0.291181,1.497720,-0.314092,1.479269,-0.331977,1.457362,-0.345616,1.432457,-0.354880,1.404091,-0.366604,1.337742,-0.368314,1.268866,-0.500000,1.268866,-0.500000,5.312076,-0.499040,5.321829,-0.494330,5.345511,-0.486863,5.363537,-0.476236,5.379441,-0.462442,5.393235,-0.446538,5.403862,-0.428514,5.411328,-0.404831,5.416039,-0.395076,5.417000,0.395076,5.417000,0.404831,5.416039,
0.404831,5.416039,$1*%
%AMFreePoly10*
4,1,234,0.404831,5.416039,0.428513,5.411328,0.446537,5.403862,0.462441,5.393235,0.476235,5.379441,0.486862,5.363537,0.494328,5.345513,0.499039,5.321831,0.500000,5.312076,0.500000,0.054924,0.499039,0.050092,0.499039,0.050000,0.500000,0.050000,0.500000,0.000000,0.496194,-0.019134,0.485355,-0.035355,0.469134,-0.046194,0.450000,-0.050000,-0.450000,-0.050000,-0.469134,-0.046194,
-0.485355,-0.035355,-0.496194,-0.019134,-0.500000,0.000000,-0.500000,0.050000,-0.499040,0.050000,-0.499039,0.050096,-0.500000,0.054924,-0.500000,0.712322,-0.368314,0.712322,-0.368314,0.097416,0.072496,0.089869,0.072496,0.233520,0.053167,0.237614,0.040772,0.244329,0.033515,0.253670,0.024234,0.283089,0.022475,0.315842,0.022475,0.408239,0.024722,0.499794,0.027906,0.528492,
0.036091,0.547933,0.047974,0.560683,0.065084,0.569494,0.090963,0.575552,0.128916,0.577903,0.170943,0.574876,0.196977,0.567321,0.212154,0.556470,0.221440,0.541332,0.228153,0.517618,0.230814,0.482135,0.231938,0.410767,0.229691,0.329288,0.227618,0.295489,0.221240,0.259972,0.213880,0.244655,0.200682,0.233909,0.180528,0.226941,0.150654,0.224288,0.150654,0.068033,
0.222425,0.071663,0.273982,0.081165,0.310152,0.095009,0.334666,0.112547,0.352233,0.135071,0.366313,0.165942,0.375907,0.207398,0.379509,0.262060,0.385127,0.422527,0.385127,0.486348,0.384003,0.549363,0.378939,0.603871,0.365434,0.644634,0.345316,0.674677,0.319328,0.696348,0.286167,0.712495,0.242363,0.725119,0.185279,0.733557,0.111770,0.736685,0.036482,0.732755,
-0.016809,0.722532,-0.053582,0.707705,-0.075989,0.691868,-0.093629,0.671952,-0.106571,0.647200,-0.114350,0.616554,-0.123875,0.519541,-0.124461,0.448576,-0.124461,0.396479,-0.123338,0.344419,-0.119917,0.309658,-0.110442,0.281404,-0.092757,0.256403,-0.063889,0.233520,-0.218251,0.233520,-0.218251,0.712322,-0.368314,0.712322,-0.500000,0.712322,-0.500000,1.140345,-0.368314,1.140345,
-0.363868,1.037873,-0.358500,0.985399,-0.344076,0.945739,-0.322298,0.916057,-0.299493,0.898682,-0.269296,0.885682,-0.229882,0.877196,-0.178732,0.874071,-0.120654,0.877186,-0.081796,0.885101,-0.056806,0.896310,-0.037505,0.913068,-0.018136,0.940483,0.000835,0.982405,0.022106,0.938703,0.042796,0.909885,0.062629,0.892096,0.088132,0.880010,0.127850,0.871514,0.187339,0.868173,
0.239911,0.870969,0.280089,0.878502,0.310472,0.889858,0.333078,0.904677,0.349174,0.923201,0.366959,0.961002,0.379298,1.013793,0.384003,1.085720,0.384976,1.183200,0.231663,1.183200,0.231938,1.152948,0.228567,1.101693,0.223635,1.076128,0.216795,1.057620,0.206200,1.042512,0.193250,1.033660,0.176081,1.028863,0.148993,1.026955,0.117829,1.029910,0.097385,1.037633,
0.084513,1.049633,0.073635,1.074805,0.069370,1.112648,0.069370,1.183200,-0.074019,1.183200,-0.074441,1.115982,-0.079051,1.081221,-0.091293,1.056338,-0.104994,1.044057,-0.124475,1.036456,-0.151817,1.033660,-0.176503,1.036593,-0.193620,1.044624,-0.205159,1.058023,-0.214616,1.084453,-0.218251,1.121844,-0.217846,1.183200,-0.367213,1.183200,-0.368314,1.140345,-0.500000,1.140345,
-0.500000,1.233200,-0.365930,1.233200,-0.217516,1.233200,-0.217176,1.284802,-0.213353,1.322035,-0.203547,1.347377,-0.191645,1.359808,-0.173095,1.367574,-0.145271,1.370495,-0.120763,1.367905,-0.102793,1.360766,-0.089681,1.349063,-0.077712,1.325811,-0.073317,1.294914,-0.073705,1.233200,0.069370,1.233200,0.069370,1.283996,0.074288,1.323964,0.086760,1.349905,0.101004,1.362182,
0.122635,1.370046,0.154562,1.373023,0.183576,1.369721,0.203300,1.360794,0.216257,1.346132,0.226789,1.317064,0.230814,1.276413,0.231207,1.233200,0.384784,1.233200,0.384003,1.312536,0.382880,1.368810,0.377262,1.426329,0.367746,1.453474,0.345804,1.484727,0.325539,1.503264,0.302495,1.516045,0.276146,1.523782,0.230207,1.529532,0.164869,1.531769,0.116536,1.528451,
0.082156,1.519701,0.058134,1.506563,0.039512,1.488302,0.021022,1.460700,0.003082,1.420907,-0.014973,1.460463,-0.034172,1.487592,-0.054022,1.505280,-0.079432,1.517607,-0.116665,1.526012,-0.169891,1.529241,-0.218491,1.526307,-0.257984,1.518154,-0.290118,1.505384,-0.316192,1.488061,-0.334473,1.466988,-0.349816,1.434402,-0.360743,1.386219,-0.364992,1.317555,-0.364992,1.269708,
-0.365930,1.233200,-0.500000,1.233200,-0.500000,5.312076,-0.499040,5.321829,-0.494330,5.345511,-0.486863,5.363537,-0.476236,5.379441,-0.462442,5.393235,-0.446538,5.403862,-0.428514,5.411328,-0.404831,5.416039,-0.395076,5.417000,0.395076,5.417000,0.404831,5.416039,0.404831,5.416039,$1*%
%AMFreePoly11*
4,1,120,0.404831,5.416039,0.428513,5.411328,0.446537,5.403862,0.462441,5.393235,0.476235,5.379441,0.486862,5.363537,0.494328,5.345513,0.499039,5.321831,0.500000,5.312076,0.500000,0.054924,0.499039,0.050092,0.499039,0.050000,0.500000,0.050000,0.500000,0.000000,0.496194,-0.019134,0.485355,-0.035355,0.469134,-0.046194,0.450000,-0.050000,-0.450000,-0.050000,-0.469134,-0.046194,
-0.485355,-0.035355,-0.496194,-0.019134,-0.500000,0.000000,-0.500000,0.050000,-0.499040,0.050000,-0.499039,0.050096,-0.500000,0.054924,-0.500000,0.712322,-0.368314,0.712322,-0.368314,0.097416,0.072496,0.089869,0.072496,0.233520,0.053167,0.237614,0.040772,0.244329,0.033515,0.253670,0.024234,0.283089,0.022475,0.315842,0.022475,0.408239,0.024722,0.499794,0.027906,0.528492,
0.036091,0.547933,0.047974,0.560683,0.065084,0.569494,0.090963,0.575552,0.128916,0.577903,0.170943,0.574876,0.196977,0.567321,0.212154,0.556470,0.221440,0.541332,0.228153,0.517618,0.230814,0.482135,0.231938,0.410767,0.229691,0.329288,0.227618,0.295489,0.221240,0.259972,0.213880,0.244655,0.200682,0.233909,0.180528,0.226941,0.150654,0.224288,0.150654,0.068033,
0.222425,0.071663,0.273982,0.081165,0.310152,0.095009,0.334666,0.112547,0.352233,0.135071,0.366313,0.165942,0.375907,0.207398,0.379509,0.262060,0.385127,0.422527,0.385127,0.486348,0.384003,0.549363,0.378939,0.603871,0.365434,0.644634,0.345316,0.674677,0.319328,0.696348,0.286167,0.712495,0.242363,0.725119,0.185279,0.733557,0.111770,0.736685,0.036482,0.732755,
-0.016809,0.722532,-0.053582,0.707705,-0.075989,0.691868,-0.093629,0.671952,-0.106571,0.647200,-0.114350,0.616554,-0.123875,0.519541,-0.124461,0.448576,-0.124461,0.396479,-0.123338,0.344419,-0.119917,0.309658,-0.110442,0.281404,-0.092757,0.256403,-0.063889,0.233520,-0.218251,0.233520,-0.218251,0.712322,-0.368314,0.712322,-0.500000,0.712322,-0.500000,0.866488,-0.368314,0.866488,
-0.183861,0.866488,-0.183861,1.327667,0.385127,0.962255,0.385127,1.163866,-0.197344,1.534296,-0.368314,1.534296,-0.368314,0.866488,-0.500000,0.866488,-0.500000,5.312076,-0.499040,5.321829,-0.494330,5.345511,-0.486863,5.363537,-0.476236,5.379441,-0.462442,5.393235,-0.446538,5.403862,-0.428514,5.411328,-0.404831,5.416039,-0.395076,5.417000,0.395076,5.417000,0.404831,5.416039,
0.404831,5.416039,$1*%
%AMFreePoly12*
4,1,215,0.404831,5.416039,0.428513,5.411328,0.446537,5.403862,0.462441,5.393235,0.476235,5.379441,0.486862,5.363537,0.494328,5.345513,0.499039,5.321831,0.500000,5.312076,0.500000,0.054924,0.499039,0.050092,0.499039,0.050000,0.500000,0.050000,0.500000,0.000000,0.496194,-0.019134,0.485355,-0.035355,0.469134,-0.046194,0.450000,-0.050000,-0.450000,-0.050000,-0.469134,-0.046194,
-0.485355,-0.035355,-0.496194,-0.019134,-0.500000,0.000000,-0.500000,0.050000,-0.499040,0.050000,-0.499039,0.050096,-0.500000,0.054924,-0.500000,0.712322,-0.368314,0.712322,-0.368314,0.097416,0.072496,0.089869,0.072496,0.233520,0.053167,0.237614,0.040772,0.244329,0.033515,0.253670,0.024234,0.283089,0.022475,0.315842,0.022475,0.408239,0.024722,0.499794,0.027906,0.528492,
0.036091,0.547933,0.047974,0.560683,0.065084,0.569494,0.090963,0.575552,0.128916,0.577903,0.170943,0.574876,0.196977,0.567321,0.212154,0.556470,0.221440,0.541332,0.228153,0.517618,0.230814,0.482135,0.231938,0.410767,0.229691,0.329288,0.227618,0.295489,0.221240,0.259972,0.213880,0.244655,0.200682,0.233909,0.180528,0.226941,0.150654,0.224288,0.150654,0.068033,
0.222425,0.071663,0.273982,0.081165,0.310152,0.095009,0.334666,0.112547,0.352233,0.135071,0.366313,0.165942,0.375907,0.207398,0.379509,0.262060,0.385127,0.422527,0.385127,0.486348,0.384003,0.549363,0.378939,0.603871,0.365434,0.644634,0.345316,0.674677,0.319328,0.696348,0.286167,0.712495,0.242363,0.725119,0.185279,0.733557,0.111770,0.736685,0.036482,0.732755,
-0.016809,0.722532,-0.053582,0.707705,-0.075989,0.691868,-0.093629,0.671952,-0.106571,0.647200,-0.114350,0.616554,-0.123875,0.519541,-0.124461,0.448576,-0.124461,0.396479,-0.123338,0.344419,-0.119917,0.309658,-0.110442,0.281404,-0.092757,0.256403,-0.063889,0.233520,-0.218251,0.233520,-0.218251,0.712322,-0.368314,0.712322,-0.500000,0.712322,-0.500000,1.206693,-0.368314,1.206693,
-0.367190,1.136132,-0.361621,1.072311,-0.356103,1.018903,-0.340662,0.974654,-0.316339,0.937892,-0.290910,0.913048,-0.264498,0.895711,-0.236835,0.884627,-0.207309,0.879091,-0.122361,0.873229,-0.078788,0.873229,0.082168,0.874071,0.170604,0.876425,0.232573,0.882461,0.268753,0.890966,0.298563,0.904619,0.323089,0.923640,0.351080,0.958926,0.370619,1.001749,0.380852,1.052873,
0.385127,1.138660,0.384125,1.190600,0.231017,1.190600,0.231938,1.126899,0.227508,1.081627,0.216941,1.055495,0.203929,1.043735,0.181786,1.035900,0.146306,1.032817,0.115055,1.035526,0.095088,1.042474,0.082950,1.052967,0.072670,1.075935,0.068490,1.113454,0.066878,1.190600,-0.086666,1.190600,-0.083021,1.134228,-0.072975,1.092021,-0.059435,1.068403,-0.037351,1.049147,
-0.005320,1.033660,-0.098425,1.033660,-0.146101,1.036591,-0.166088,1.041523,-0.185913,1.050879,-0.201182,1.063970,-0.208921,1.080701,-0.212877,1.136132,-0.215124,1.233585,-0.214001,1.283154,-0.211236,1.311693,-0.088069,1.311693,-0.087385,1.240600,0.066243,1.240600,0.066243,1.302461,0.070799,1.332242,0.082950,1.353276,0.096042,1.363340,0.114963,1.369773,0.141861,1.372180,
0.177512,1.369207,0.200056,1.361638,0.213571,1.350345,0.224972,1.325172,0.229691,1.282311,0.230294,1.240600,0.383160,1.240600,0.381756,1.313379,0.377675,1.379758,0.367015,1.428043,0.351759,1.462193,0.333250,1.485570,0.306942,1.503526,0.267252,1.517920,0.209663,1.527920,0.128428,1.531769,0.066818,1.528892,0.015197,1.520851,-0.015066,1.510851,-0.037930,1.496176,
-0.054559,1.476338,-0.071199,1.441613,-0.081377,1.403248,-0.086276,1.362239,-0.088069,1.311693,-0.211236,1.311693,-0.210966,1.314480,-0.202766,1.338585,-0.192705,1.351534,-0.177487,1.360387,-0.155725,1.365476,-0.155725,1.520008,-0.216584,1.517146,-0.262523,1.509507,-0.296702,1.498173,-0.317971,1.485740,-0.334852,1.469121,-0.347493,1.447492,-0.355418,1.419624,-0.363198,1.364760,
-0.366604,1.321366,-0.368314,1.206693,-0.500000,1.206693,-0.500000,5.312076,-0.499040,5.321829,-0.494330,5.345511,-0.486863,5.363537,-0.476236,5.379441,-0.462442,5.393235,-0.446538,5.403862,-0.428514,5.411328,-0.404831,5.416039,-0.395076,5.417000,0.395076,5.417000,0.404831,5.416039,0.404831,5.416039,$1*%
%AMFreePoly13*
4,1,181,0.404831,5.416039,0.428513,5.411328,0.446537,5.403862,0.462441,5.393235,0.476235,5.379441,0.486862,5.363537,0.494328,5.345513,0.499039,5.321831,0.500000,5.312076,0.500000,0.054924,0.499039,0.050092,0.499039,0.050000,0.500000,0.050000,0.500000,0.000000,0.496194,-0.019134,0.485355,-0.035355,0.469134,-0.046194,0.450000,-0.050000,-0.450000,-0.050000,-0.469134,-0.046194,
-0.485355,-0.035355,-0.496194,-0.019134,-0.500000,0.000000,-0.500000,0.050000,-0.499040,0.050000,-0.499039,0.050096,-0.500000,0.054924,-0.500000,0.712322,-0.368314,0.712322,-0.368314,0.097416,0.072496,0.089869,0.072496,0.233520,0.053167,0.237614,0.040772,0.244329,0.033515,0.253670,0.024234,0.283089,0.022475,0.315842,0.022475,0.408239,0.024722,0.499794,0.027906,0.528492,
0.036091,0.547933,0.047974,0.560683,0.065084,0.569494,0.090963,0.575552,0.128916,0.577903,0.170943,0.574876,0.196977,0.567321,0.212154,0.556470,0.221440,0.541332,0.228153,0.517618,0.230814,0.482135,0.231938,0.410767,0.229691,0.329288,0.227618,0.295489,0.221240,0.259972,0.213880,0.244655,0.200682,0.233909,0.180528,0.226941,0.150654,0.224288,0.150654,0.068033,
0.222425,0.071663,0.273982,0.081165,0.310152,0.095009,0.334666,0.112547,0.352233,0.135071,0.366313,0.165942,0.375907,0.207398,0.379509,0.262060,0.385127,0.422527,0.385127,0.486348,0.384003,0.549363,0.378939,0.603871,0.365434,0.644634,0.345316,0.674677,0.319328,0.696348,0.286167,0.712495,0.242363,0.725119,0.185279,0.733557,0.111770,0.736685,0.036482,0.732755,
-0.016809,0.722532,-0.053582,0.707705,-0.075989,0.691868,-0.093629,0.671952,-0.106571,0.647200,-0.114350,0.616554,-0.123875,0.519541,-0.124461,0.448576,-0.124461,0.396479,-0.123338,0.344419,-0.119917,0.309658,-0.110442,0.281404,-0.092757,0.256403,-0.063889,0.233520,-0.218251,0.233520,-0.218251,0.712322,-0.368314,0.712322,-0.500000,0.712322,-0.500000,1.512461,-0.368314,1.512461,
-0.368314,0.897555,0.072496,0.890008,0.072496,1.033660,0.053167,1.037754,0.040772,1.044469,0.033515,1.053810,0.024234,1.083229,0.022475,1.115982,0.022475,1.208379,0.024722,1.299933,0.027906,1.328631,0.036091,1.348072,0.047974,1.360823,0.065084,1.369633,0.090963,1.375691,0.128916,1.378042,0.170943,1.375016,0.196977,1.367460,0.212154,1.356610,0.221440,1.341472,
0.228153,1.317758,0.230814,1.282274,0.231938,1.210907,0.229691,1.129427,0.227618,1.095629,0.221240,1.060111,0.213880,1.044795,0.200682,1.034048,0.180528,1.027080,0.150654,1.024427,0.150654,0.868173,0.222425,0.871803,0.273982,0.881305,0.310152,0.895149,0.334666,0.912686,0.352233,0.935210,0.366313,0.966081,0.375907,1.007538,0.379509,1.062199,0.385127,1.222667,
0.385127,1.286488,0.384003,1.349502,0.378939,1.404011,0.365434,1.444774,0.345316,1.474817,0.319328,1.496488,0.286167,1.512634,0.242363,1.525259,0.185279,1.533697,0.111770,1.536824,0.036482,1.532895,-0.016809,1.522672,-0.053582,1.507845,-0.075989,1.492008,-0.093629,1.472091,-0.106571,1.447340,-0.114350,1.416693,-0.123875,1.319680,-0.124461,1.248715,-0.124461,1.196618,
-0.123338,1.144558,-0.119917,1.109797,-0.110442,1.081543,-0.092757,1.056542,-0.063889,1.033660,-0.218251,1.033660,-0.218251,1.512461,-0.368314,1.512461,-0.500000,1.512461,-0.500000,5.312076,-0.499040,5.321829,-0.494330,5.345511,-0.486863,5.363537,-0.476236,5.379441,-0.462442,5.393235,-0.446538,5.403862,-0.428514,5.411328,-0.404831,5.416039,-0.395076,5.417000,0.395076,5.417000,
0.404831,5.416039,0.404831,5.416039,$1*%
%AMFreePoly14*
4,1,138,0.404831,5.416039,0.428513,5.411328,0.446537,5.403862,0.462441,5.393235,0.476235,5.379441,0.486862,5.363537,0.494328,5.345513,0.499039,5.321831,0.500000,5.312076,0.500000,0.054924,0.499039,0.050092,0.499039,0.050000,0.500000,0.050000,0.500000,0.000000,0.496194,-0.019134,0.485355,-0.035355,0.469134,-0.046194,0.450000,-0.050000,-0.450000,-0.050000,-0.469134,-0.046194,
-0.485355,-0.035355,-0.496194,-0.019134,-0.500000,0.000000,-0.500000,0.050000,-0.499040,0.050000,-0.499039,0.050096,-0.500000,0.054924,-0.500000,0.712322,-0.368314,0.712322,-0.368314,0.097416,0.072496,0.089869,0.072496,0.233520,0.053167,0.237614,0.040772,0.244329,0.033515,0.253670,0.024234,0.283089,0.022475,0.315842,0.022475,0.408239,0.024722,0.499794,0.027906,0.528492,
0.036091,0.547933,0.047974,0.560683,0.065084,0.569494,0.090963,0.575552,0.128916,0.577903,0.170943,0.574876,0.196977,0.567321,0.212154,0.556470,0.221440,0.541332,0.228153,0.517618,0.230814,0.482135,0.231938,0.410767,0.229691,0.329288,0.227618,0.295489,0.221240,0.259972,0.213880,0.244655,0.200682,0.233909,0.180528,0.226941,0.150654,0.224288,0.150654,0.068033,
0.222425,0.071663,0.273982,0.081165,0.310152,0.095009,0.334666,0.112547,0.352233,0.135071,0.366313,0.165942,0.375907,0.207398,0.379509,0.262060,0.385127,0.422527,0.385127,0.486348,0.384003,0.549363,0.378939,0.603871,0.365434,0.644634,0.345316,0.674677,0.319328,0.696348,0.286167,0.712495,0.242363,0.725119,0.185279,0.733557,0.111770,0.736685,0.036482,0.732755,
-0.016809,0.722532,-0.053582,0.707705,-0.075989,0.691868,-0.093629,0.671952,-0.106571,0.647200,-0.114350,0.616554,-0.123875,0.519541,-0.124461,0.448576,-0.124461,0.396479,-0.123338,0.344419,-0.119917,0.309658,-0.110442,0.281404,-0.092757,0.256403,-0.063889,0.233520,-0.218251,0.233520,-0.218251,0.712322,-0.368314,0.712322,-0.500000,0.712322,-0.500000,1.183200,-0.302745,1.183200,
-0.028327,0.856413,0.231938,0.856413,0.231938,1.183200,0.081875,1.183200,0.081875,0.973173,-0.098117,1.183200,-0.302745,1.183200,-0.500000,1.183200,-0.500000,1.458715,-0.368314,1.458715,-0.368314,1.261282,-0.344732,1.233200,-0.140967,1.233200,-0.200323,1.302461,0.081875,1.302461,0.081875,1.233200,0.231938,1.233200,0.231938,1.302461,0.385127,1.302461,0.385127,1.458715,
0.231938,1.458715,0.231938,1.549427,0.081875,1.549427,0.081875,1.458715,-0.368314,1.458715,-0.500000,1.458715,-0.500000,5.312076,-0.499040,5.321829,-0.494330,5.345511,-0.486863,5.363537,-0.476236,5.379441,-0.462442,5.393235,-0.446538,5.403862,-0.428514,5.411328,-0.404831,5.416039,-0.395076,5.417000,0.395076,5.417000,0.404831,5.416039,0.404831,5.416039,$1*%
%AMFreePoly15*
4,1,211,0.404831,5.416039,0.428513,5.411328,0.446537,5.403862,0.462441,5.393235,0.476235,5.379441,0.486862,5.363537,0.494328,5.345513,0.499039,5.321831,0.500000,5.312076,0.500000,0.054924,0.499039,0.050092,0.499039,0.050000,0.500000,0.050000,0.500000,0.000000,0.496194,-0.019134,0.485355,-0.035355,0.469134,-0.046194,0.450000,-0.050000,-0.450000,-0.050000,-0.469134,-0.046194,
-0.485355,-0.035355,-0.496194,-0.019134,-0.500000,0.000000,-0.500000,0.050000,-0.499040,0.050000,-0.499039,0.050096,-0.500000,0.054924,-0.500000,0.712322,-0.368314,0.712322,-0.368314,0.097416,0.072496,0.089869,0.072496,0.233520,0.053167,0.237614,0.040772,0.244329,0.033515,0.253670,0.024234,0.283089,0.022475,0.315842,0.022475,0.408239,0.024722,0.499794,0.027906,0.528492,
0.036091,0.547933,0.047974,0.560683,0.065084,0.569494,0.090963,0.575552,0.128916,0.577903,0.170943,0.574876,0.196977,0.567321,0.212154,0.556470,0.221440,0.541332,0.228153,0.517618,0.230814,0.482135,0.231938,0.410767,0.229691,0.329288,0.227618,0.295489,0.221240,0.259972,0.213880,0.244655,0.200682,0.233909,0.180528,0.226941,0.150654,0.224288,0.150654,0.068033,
0.222425,0.071663,0.273982,0.081165,0.310152,0.095009,0.334666,0.112547,0.352233,0.135071,0.366313,0.165942,0.375907,0.207398,0.379509,0.262060,0.385127,0.422527,0.385127,0.486348,0.384003,0.549363,0.378939,0.603871,0.365434,0.644634,0.345316,0.674677,0.319328,0.696348,0.286167,0.712495,0.242363,0.725119,0.185279,0.733557,0.111770,0.736685,0.036482,0.732755,
-0.016809,0.722532,-0.053582,0.707705,-0.075989,0.691868,-0.093629,0.671952,-0.106571,0.647200,-0.114350,0.616554,-0.123875,0.519541,-0.124461,0.448576,-0.124461,0.396479,-0.123338,0.344419,-0.119917,0.309658,-0.110442,0.281404,-0.092757,0.256403,-0.063889,0.233520,-0.218251,0.233520,-0.218251,0.712322,-0.368314,0.712322,-0.500000,0.712322,-0.500000,1.210064,-0.368314,1.210064,
-0.368314,1.187386,-0.366653,1.103782,-0.356590,1.002152,-0.349009,0.967596,-0.336201,0.939910,-0.318804,0.917854,-0.296946,0.900486,-0.270788,0.887971,-0.233535,0.877830,-0.181895,0.870831,-0.111956,0.868173,-0.111956,1.026955,-0.131691,1.026113,-0.161249,1.028587,-0.181408,1.035084,-0.194803,1.045017,-0.207026,1.066667,-0.211852,1.100887,-0.215124,1.181524,-0.211803,1.274764,
-0.211803,1.282311,-0.209335,1.316971,-0.203426,1.337526,-0.195780,1.348660,-0.183350,1.356262,-0.162407,1.361636,-0.129053,1.363790,-0.101541,1.360969,-0.084611,1.353710,-0.074978,1.342358,-0.067996,1.318011,-0.065062,1.276413,-0.065062,1.133604,0.078749,1.133604,0.078749,1.268023,0.077625,1.309166,0.080006,1.333022,0.086196,1.349783,0.095211,1.361263,0.108624,1.369474,
0.129393,1.375063,0.160472,1.377236,0.187755,1.374691,0.206200,1.367972,0.218309,1.357489,0.229008,1.335751,0.233061,1.304989,0.231938,1.285682,0.231938,1.191599,0.230814,1.094146,0.227441,1.065510,0.218895,1.046893,0.206585,1.035308,0.189051,1.027680,0.162190,1.022315,0.122517,1.020214,0.122517,0.866488,0.162915,0.864802,0.221576,0.867474,0.266391,0.874644,
0.300157,0.885329,0.325168,0.898995,0.343068,0.915617,0.359105,0.940910,0.371992,0.974834,0.380739,1.019504,0.384003,1.077330,0.385127,1.184858,0.385127,1.317592,0.380547,1.389869,0.368810,1.440144,0.352390,1.473784,0.332859,1.495242,0.305099,1.512797,0.271509,1.525700,0.230884,1.533893,0.181624,1.536824,0.117787,1.533006,0.076809,1.523433,0.051784,1.509933,
0.034227,1.490221,0.018939,1.458440,0.007381,1.409989,-0.011572,1.462049,-0.029340,1.489524,-0.048893,1.504474,-0.072447,1.513912,-0.096276,1.519166,-0.156506,1.522536,-0.219086,1.519124,-0.265163,1.510074,-0.298529,1.496642,-0.322054,1.479269,-0.339074,1.457354,-0.352545,1.428147,-0.361616,1.389828,-0.364992,1.340270,-0.368314,1.210064,-0.500000,1.210064,-0.500000,5.312076,
-0.499040,5.321829,-0.494330,5.345511,-0.486863,5.363537,-0.476236,5.379441,-0.462442,5.393235,-0.446538,5.403862,-0.428514,5.411328,-0.404831,5.416039,-0.395076,5.417000,0.395076,5.417000,0.404831,5.416039,0.404831,5.416039,$1*%
%AMFreePoly16*
4,1,183,0.404831,5.416039,0.428513,5.411328,0.446537,5.403862,0.462441,5.393235,0.476235,5.379441,0.486862,5.363537,0.494328,5.345513,0.499039,5.321831,0.500000,5.312076,0.500000,0.054924,0.499039,0.050092,0.499039,0.050000,0.500000,0.050000,0.500000,0.000000,0.496194,-0.019134,0.485355,-0.035355,0.469134,-0.046194,0.450000,-0.050000,-0.450000,-0.050000,-0.469134,-0.046194,
-0.485355,-0.035355,-0.496194,-0.019134,-0.500000,0.000000,-0.500000,0.050000,-0.499040,0.050000,-0.499039,0.050096,-0.500000,0.054924,-0.500000,0.712322,-0.368314,0.712322,-0.368314,0.097416,0.072496,0.089869,0.072496,0.233520,0.053167,0.237614,0.040772,0.244329,0.033515,0.253670,0.024234,0.283089,0.022475,0.315842,0.022475,0.408239,0.024722,0.499794,0.027906,0.528492,
0.036091,0.547933,0.047974,0.560683,0.065084,0.569494,0.090963,0.575552,0.128916,0.577903,0.170943,0.574876,0.196977,0.567321,0.212154,0.556470,0.221440,0.541332,0.228153,0.517618,0.230814,0.482135,0.231938,0.410767,0.229691,0.329288,0.227618,0.295489,0.221240,0.259972,0.213880,0.244655,0.200682,0.233909,0.180528,0.226941,0.150654,0.224288,0.150654,0.068033,
0.222425,0.071663,0.273982,0.081165,0.310152,0.095009,0.334666,0.112547,0.352233,0.135071,0.366313,0.165942,0.375907,0.207398,0.379509,0.262060,0.385127,0.422527,0.385127,0.486348,0.384003,0.549363,0.378939,0.603871,0.365434,0.644634,0.345316,0.674677,0.319328,0.696348,0.286167,0.712495,0.242363,0.725119,0.185279,0.733557,0.111770,0.736685,0.036482,0.732755,
-0.016809,0.722532,-0.053582,0.707705,-0.075989,0.691868,-0.093629,0.671952,-0.106571,0.647200,-0.114350,0.616554,-0.123875,0.519541,-0.124461,0.448576,-0.124461,0.396479,-0.123338,0.344419,-0.119917,0.309658,-0.110442,0.281404,-0.092757,0.256403,-0.063889,0.233520,-0.218251,0.233520,-0.218251,0.712322,-0.368314,0.712322,-0.500000,0.712322,-0.500000,1.267180,-0.368314,1.267180,
-0.363819,1.079016,-0.360774,1.016632,-0.352822,0.971114,-0.341512,0.938901,-0.328013,0.916899,-0.307470,0.899788,-0.273858,0.885981,-0.222172,0.876216,-0.145759,0.872386,-0.093198,0.873229,-0.093198,1.027761,-0.118942,1.027761,-0.152452,1.029849,-0.166783,1.033366,-0.182689,1.040364,-0.195928,1.050598,-0.205599,1.065973,-0.210931,1.084069,-0.212877,1.106713,-0.215124,1.205851,
-0.215124,1.293229,-0.212863,1.324355,-0.207333,1.343727,-0.199981,1.354961,-0.188173,1.362965,-0.169535,1.368383,-0.141217,1.370495,-0.125536,1.371338,-0.099038,1.369076,-0.081203,1.363161,-0.069556,1.354118,-0.058180,1.333801,-0.049430,1.297405,-0.017825,1.003435,-0.007686,0.965989,0.006380,0.937637,0.023596,0.916572,0.043675,0.901366,0.077864,0.886838,0.126210,0.876979,
0.193250,0.873229,0.385127,0.873229,0.385127,1.530083,0.235064,1.530083,0.235064,1.026955,0.201261,1.026955,0.171395,1.029461,0.153268,1.035742,0.143033,1.045017,0.134691,1.065211,0.131358,1.096674,0.119684,1.214277,0.106885,1.352836,0.102439,1.407326,0.090783,1.446821,0.073860,1.474776,0.052663,1.493960,0.024795,1.508014,-0.014774,1.519337,-0.069509,1.527128,
-0.143561,1.530083,-0.208160,1.527103,-0.256443,1.519184,-0.291915,1.507504,-0.317413,1.492677,-0.336686,1.473202,-0.351891,1.446276,-0.362195,1.409813,-0.366066,1.361263,-0.368314,1.267180,-0.500000,1.267180,-0.500000,5.312076,-0.499040,5.321829,-0.494330,5.345511,-0.486863,5.363537,-0.476236,5.379441,-0.462442,5.393235,-0.446538,5.403862,-0.428514,5.411328,-0.404831,5.416039,
-0.395076,5.417000,0.395076,5.417000,0.404831,5.416039,0.404831,5.416039,$1*%
%AMFreePoly17*
4,1,120,0.404831,5.416039,0.428513,5.411328,0.446537,5.403862,0.462441,5.393235,0.476235,5.379441,0.486862,5.363537,0.494328,5.345513,0.499039,5.321831,0.500000,5.312076,0.500000,0.054924,0.499039,0.050092,0.499039,0.050000,0.500000,0.050000,0.500000,0.000000,0.496194,-0.019134,0.485355,-0.035355,0.469134,-0.046194,0.450000,-0.050000,-0.450000,-0.050000,-0.469134,-0.046194,
-0.485355,-0.035355,-0.496194,-0.019134,-0.500000,0.000000,-0.500000,0.050000,-0.499040,0.050000,-0.499039,0.050096,-0.500000,0.054924,-0.500000,0.712322,-0.368314,0.712322,-0.368314,0.097416,0.072496,0.089869,0.072496,0.233520,0.053167,0.237614,0.040772,0.244329,0.033515,0.253670,0.024234,0.283089,0.022475,0.315842,0.022475,0.408239,0.024722,0.499794,0.027906,0.528492,
0.036091,0.547933,0.047974,0.560683,0.065084,0.569494,0.090963,0.575552,0.128916,0.577903,0.170943,0.574876,0.196977,0.567321,0.212154,0.556470,0.221440,0.541332,0.228153,0.517618,0.230814,0.482135,0.231938,0.410767,0.229691,0.329288,0.227618,0.295489,0.221240,0.259972,0.213880,0.244655,0.200682,0.233909,0.180528,0.226941,0.150654,0.224288,0.150654,0.068033,
0.222425,0.071663,0.273982,0.081165,0.310152,0.095009,0.334666,0.112547,0.352233,0.135071,0.366313,0.165942,0.375907,0.207398,0.379509,0.262060,0.385127,0.422527,0.385127,0.486348,0.384003,0.549363,0.378939,0.603871,0.365434,0.644634,0.345316,0.674677,0.319328,0.696348,0.286167,0.712495,0.242363,0.725119,0.185279,0.733557,0.111770,0.736685,0.036482,0.732755,
-0.016809,0.722532,-0.053582,0.707705,-0.075989,0.691868,-0.093629,0.671952,-0.106571,0.647200,-0.114350,0.616554,-0.123875,0.519541,-0.124461,0.448576,-0.124461,0.396479,-0.123338,0.344419,-0.119917,0.309658,-0.110442,0.281404,-0.092757,0.256403,-0.063889,0.233520,-0.218251,0.233520,-0.218251,0.712322,-0.368314,0.712322,-0.500000,0.712322,-0.500000,1.152105,-0.368314,1.152105,
-0.155725,0.912686,-0.003415,0.988304,-0.192459,1.191563,0.385127,1.191563,0.385127,1.358735,-0.368314,1.358735,-0.368314,1.152105,-0.500000,1.152105,-0.500000,5.312076,-0.499040,5.321829,-0.494330,5.345511,-0.486863,5.363537,-0.476236,5.379441,-0.462442,5.393235,-0.446538,5.403862,-0.428514,5.411328,-0.404831,5.416039,-0.395076,5.417000,0.395076,5.417000,0.404831,5.416039,
0.404831,5.416039,$1*%
%AMFreePoly18*
4,1,200,0.404831,5.416039,0.428513,5.411328,0.446537,5.403862,0.462441,5.393235,0.476235,5.379441,0.486862,5.363537,0.494328,5.345513,0.499039,5.321831,0.500000,5.312076,0.500000,0.054924,0.499039,0.050092,0.499039,0.050000,0.500000,0.050000,0.500000,0.000000,0.496194,-0.019134,0.485355,-0.035355,0.469134,-0.046194,0.450000,-0.050000,-0.450000,-0.050000,-0.469134,-0.046194,
-0.485355,-0.035355,-0.496194,-0.019134,-0.500000,0.000000,-0.500000,0.050000,-0.499040,0.050000,-0.499039,0.050096,-0.500000,0.054924,-0.500000,0.712322,-0.368314,0.712322,-0.368314,0.097416,0.072496,0.089869,0.072496,0.233520,0.053167,0.237614,0.040772,0.244329,0.033515,0.253670,0.024234,0.283089,0.022475,0.315842,0.022475,0.408239,0.024722,0.499794,0.027906,0.528492,
0.036091,0.547933,0.047974,0.560683,0.065084,0.569494,0.090963,0.575552,0.128916,0.577903,0.170943,0.574876,0.196977,0.567321,0.212154,0.556470,0.221440,0.541332,0.228153,0.517618,0.230814,0.482135,0.231938,0.410767,0.229691,0.329288,0.227618,0.295489,0.221240,0.259972,0.213880,0.244655,0.200682,0.233909,0.180528,0.226941,0.150654,0.224288,0.150654,0.068033,
0.222425,0.071663,0.273982,0.081165,0.310152,0.095009,0.334666,0.112547,0.352233,0.135071,0.366313,0.165942,0.375907,0.207398,0.379509,0.262060,0.385127,0.422527,0.385127,0.486348,0.384003,0.549363,0.378939,0.603871,0.365434,0.644634,0.345316,0.674677,0.319328,0.696348,0.286167,0.712495,0.242363,0.725119,0.185279,0.733557,0.111770,0.736685,0.036482,0.732755,
-0.016809,0.722532,-0.053582,0.707705,-0.075989,0.691868,-0.093629,0.671952,-0.106571,0.647200,-0.114350,0.616554,-0.123875,0.519541,-0.124461,0.448576,-0.124461,0.396479,-0.123338,0.344419,-0.119917,0.309658,-0.110442,0.281404,-0.092757,0.256403,-0.063889,0.233520,-0.218251,0.233520,-0.218251,0.712322,-0.368314,0.712322,-0.500000,0.712322,-0.500000,1.183200,-0.367910,1.183200,
-0.366066,1.094989,-0.361853,1.027010,-0.350722,0.976362,-0.334573,0.939488,-0.314715,0.913344,-0.291719,0.895504,-0.254249,0.879327,-0.197010,0.865694,-0.113239,0.855996,0.005036,0.852236,0.046411,0.852236,0.141911,0.855305,0.212816,0.863393,0.264161,0.875069,0.300294,0.889303,0.324750,0.905579,0.342999,0.926257,0.359183,0.955935,0.372488,0.997189,0.381666,1.053039,
0.385127,1.126899,0.384410,1.183200,0.199965,1.183200,0.198428,1.137817,0.195059,1.093670,0.186598,1.064577,0.174953,1.046355,0.161058,1.035748,0.134071,1.026689,0.085841,1.019725,0.006502,1.016844,-0.008006,1.016844,-0.073342,1.019030,-0.117070,1.024537,-0.144878,1.032060,-0.161440,1.040767,-0.172794,1.053248,-0.182808,1.075118,-0.190254,1.110569,-0.193240,1.164708,
-0.193240,1.183200,-0.367910,1.183200,-0.500000,1.183200,-0.500000,1.268023,-0.369437,1.268023,-0.368840,1.233200,-0.193240,1.233200,-0.193240,1.243660,-0.192117,1.272639,-0.186548,1.319241,-0.178820,1.339396,-0.164224,1.358332,-0.142349,1.372772,-0.108976,1.381413,-0.070274,1.385125,-0.023638,1.386468,0.022133,1.386468,0.085818,1.384000,0.128253,1.377784,0.155158,1.369242,
0.171121,1.359174,0.185553,1.339239,0.196296,1.305086,0.200675,1.250364,0.200675,1.233200,0.383773,1.233200,0.382880,1.303304,0.377836,1.382908,0.364984,1.437667,0.347123,1.473810,0.326473,1.497890,0.301984,1.516291,0.273345,1.529740,0.239802,1.538510,0.156799,1.547303,0.005036,1.551113,-0.081595,1.549794,-0.138579,1.546496,-0.190096,1.540101,-0.240868,1.530120,
-0.271951,1.519711,-0.298199,1.504221,-0.320247,1.483079,-0.343862,1.445656,-0.357665,1.401599,-0.367727,1.335214,-0.369437,1.268023,-0.500000,1.268023,-0.500000,5.312076,-0.499040,5.321829,-0.494330,5.345511,-0.486863,5.363537,-0.476236,5.379441,-0.462442,5.393235,-0.446538,5.403862,-0.428514,5.411328,-0.404831,5.416039,-0.395076,5.417000,0.395076,5.417000,0.404831,5.416039,
0.404831,5.416039,$1*%
%AMFreePoly19*
4,1,177,0.404831,5.416039,0.428513,5.411328,0.446537,5.403862,0.462441,5.393235,0.476235,5.379441,0.486862,5.363537,0.494328,5.345513,0.499039,5.321831,0.500000,5.312076,0.500000,0.054924,0.499039,0.050092,0.499039,0.050000,0.500000,0.050000,0.500000,0.000000,0.496194,-0.019134,0.485355,-0.035355,0.469134,-0.046194,0.450000,-0.050000,-0.450000,-0.050000,-0.469134,-0.046194,
-0.485355,-0.035355,-0.496194,-0.019134,-0.500000,0.000000,-0.500000,0.050000,-0.499040,0.050000,-0.499039,0.050096,-0.500000,0.054924,-0.500000,0.395800,-0.313443,0.395800,-0.028327,0.056273,0.231938,0.056273,0.231938,0.395800,0.081875,0.395800,0.081875,0.173033,-0.109035,0.395800,-0.313443,0.395800,-0.500000,0.395800,-0.500000,0.658576,-0.368314,0.658576,-0.368314,0.461142,
-0.355431,0.445800,-0.151884,0.445800,-0.200323,0.502322,0.081875,0.502322,0.081875,0.445800,0.231938,0.445800,0.231938,0.502322,0.385127,0.502322,0.385127,0.658576,0.231938,0.658576,0.231938,0.749288,0.081875,0.749288,0.081875,0.658576,-0.368314,0.658576,-0.500000,0.658576,-0.500000,1.190600,-0.366932,1.190600,-0.364992,1.080701,-0.361419,1.026363,-0.351785,0.983964,
-0.337432,0.951316,-0.319270,0.926535,-0.293936,0.906693,-0.257993,0.891468,-0.208383,0.881252,-0.140972,0.877405,-0.076333,0.880264,-0.027205,0.887914,0.009567,0.899264,0.036585,0.913700,0.055741,0.931151,0.072846,0.957887,0.086710,0.994447,0.096193,1.043370,0.099753,1.107555,0.098365,1.190600,-0.052830,1.190600,-0.053680,1.135326,-0.057538,1.086185,-0.066478,1.059269,
-0.078396,1.047449,-0.100576,1.039423,-0.138286,1.036188,-0.161726,1.038265,-0.180066,1.044054,-0.194510,1.053407,-0.204090,1.066020,-0.211143,1.087297,-0.214001,1.121038,-0.215124,1.186543,-0.215019,1.190600,-0.366932,1.190600,-0.500000,1.190600,-0.500000,1.268866,-0.368314,1.268866,-0.367815,1.240600,-0.213720,1.240600,-0.212877,1.273079,-0.210679,1.310851,-0.208073,1.333420,
-0.201265,1.349214,-0.191189,1.360017,-0.176862,1.367652,-0.156245,1.372764,-0.127148,1.374708,-0.098084,1.371619,-0.078993,1.363439,-0.067016,1.350345,-0.057420,1.323710,-0.053680,1.284839,-0.053030,1.240600,0.097529,1.240600,0.097506,1.241974,0.094187,1.285506,0.085294,1.318838,0.074249,1.338374,0.057419,1.355187,0.034150,1.369652,0.130772,1.369652,0.167425,1.367106,
0.192397,1.360506,0.208930,1.350748,0.220009,1.337019,0.227774,1.315960,0.230814,1.284802,0.231938,1.189071,0.229642,1.103379,0.226533,1.071415,0.218309,1.047948,0.208088,1.036015,0.192457,1.028784,0.169412,1.026113,0.169412,0.868173,0.198623,0.867330,0.247439,0.870184,0.284244,0.877851,0.311703,0.889432,0.331784,0.904699,0.351388,0.931133,0.367022,0.968569,
0.377262,1.020214,0.385127,1.189071,0.381756,1.303304,0.377578,1.369180,0.366580,1.417842,0.350681,1.452913,0.331176,1.477478,0.308581,1.493960,0.271909,1.508798,0.216962,1.521251,0.137782,1.530058,0.027409,1.533454,-0.029598,1.533454,-0.133010,1.531329,-0.177139,1.527635,-0.229681,1.520008,-0.263358,1.511219,-0.291181,1.497720,-0.314092,1.479269,-0.331977,1.457362,
-0.345616,1.432457,-0.354880,1.404091,-0.366604,1.337742,-0.368314,1.268866,-0.500000,1.268866,-0.500000,5.312076,-0.499040,5.321829,-0.494330,5.345511,-0.486863,5.363537,-0.476236,5.379441,-0.462442,5.393235,-0.446538,5.403862,-0.428514,5.411328,-0.404831,5.416039,-0.395076,5.417000,0.395076,5.417000,0.404831,5.416039,0.404831,5.416039,$1*%
%AMFreePoly20*
4,1,191,0.404831,5.416039,0.428513,5.411328,0.446537,5.403862,0.462441,5.393235,0.476235,5.379441,0.486862,5.363537,0.494328,5.345513,0.499039,5.321831,0.500000,5.312076,0.500000,0.054924,0.499039,0.050092,0.499039,0.050000,0.500000,0.050000,0.500000,0.000000,0.496194,-0.019134,0.485355,-0.035355,0.469134,-0.046194,0.450000,-0.050000,-0.450000,-0.050000,-0.469134,-0.046194,
-0.485355,-0.035355,-0.496194,-0.019134,-0.500000,0.000000,-0.500000,0.050000,-0.499040,0.050000,-0.499039,0.050096,-0.500000,0.054924,-0.500000,0.395800,-0.313443,0.395800,-0.028327,0.056273,0.231938,0.056273,0.231938,0.395800,0.081875,0.395800,0.081875,0.173033,-0.109035,0.395800,-0.313443,0.395800,-0.500000,0.395800,-0.500000,0.658576,-0.368314,0.658576,-0.368314,0.461142,
-0.355431,0.445800,-0.151884,0.445800,-0.200323,0.502322,0.081875,0.502322,0.081875,0.445800,0.231938,0.445800,0.231938,0.502322,0.385127,0.502322,0.385127,0.658576,0.231938,0.658576,0.231938,0.749288,0.081875,0.749288,0.081875,0.658576,-0.368314,0.658576,-0.500000,0.658576,-0.500000,1.140345,-0.368314,1.140345,-0.363868,1.037873,-0.358500,0.985399,-0.344076,0.945739,
-0.322298,0.916057,-0.299493,0.898682,-0.269296,0.885682,-0.229882,0.877196,-0.178732,0.874071,-0.120654,0.877186,-0.081796,0.885101,-0.056806,0.896310,-0.037505,0.913068,-0.018136,0.940483,0.000835,0.982405,0.022106,0.938703,0.042796,0.909885,0.062629,0.892096,0.088132,0.880010,0.127850,0.871514,0.187339,0.868173,0.239911,0.870969,0.280089,0.878502,0.310472,0.889858,
0.333078,0.904677,0.349174,0.923201,0.366959,0.961002,0.379298,1.013793,0.384003,1.085720,0.384976,1.183200,0.231663,1.183200,0.231938,1.152948,0.228567,1.101693,0.223635,1.076128,0.216795,1.057620,0.206200,1.042512,0.193250,1.033660,0.176081,1.028863,0.148993,1.026955,0.117829,1.029910,0.097385,1.037633,0.084513,1.049633,0.073635,1.074805,0.069370,1.112648,
0.069370,1.183200,-0.074019,1.183200,-0.074441,1.115982,-0.079051,1.081221,-0.091293,1.056338,-0.104994,1.044057,-0.124475,1.036456,-0.151817,1.033660,-0.176503,1.036593,-0.193620,1.044624,-0.205159,1.058023,-0.214616,1.084453,-0.218251,1.121844,-0.217846,1.183200,-0.367213,1.183200,-0.368314,1.140345,-0.500000,1.140345,-0.500000,1.233200,-0.365930,1.233200,-0.217516,1.233200,
-0.217176,1.284802,-0.213353,1.322035,-0.203547,1.347377,-0.191645,1.359808,-0.173095,1.367574,-0.145271,1.370495,-0.120763,1.367905,-0.102793,1.360766,-0.089681,1.349063,-0.077712,1.325811,-0.073317,1.294914,-0.073705,1.233200,0.069370,1.233200,0.069370,1.283996,0.074288,1.323964,0.086760,1.349905,0.101004,1.362182,0.122635,1.370046,0.154562,1.373023,0.183576,1.369721,
0.203300,1.360794,0.216257,1.346132,0.226789,1.317064,0.230814,1.276413,0.231207,1.233200,0.384784,1.233200,0.384003,1.312536,0.382880,1.368810,0.377262,1.426329,0.367746,1.453474,0.345804,1.484727,0.325539,1.503264,0.302495,1.516045,0.276146,1.523782,0.230207,1.529532,0.164869,1.531769,0.116536,1.528451,0.082156,1.519701,0.058134,1.506563,0.039512,1.488302,
0.021022,1.460700,0.003082,1.420907,-0.014973,1.460463,-0.034172,1.487592,-0.054022,1.505280,-0.079432,1.517607,-0.116665,1.526012,-0.169891,1.529241,-0.218491,1.526307,-0.257984,1.518154,-0.290118,1.505384,-0.316192,1.488061,-0.334473,1.466988,-0.349816,1.434402,-0.360743,1.386219,-0.364992,1.317555,-0.364992,1.269708,-0.365930,1.233200,-0.500000,1.233200,-0.500000,5.312076,
-0.499040,5.321829,-0.494330,5.345511,-0.486863,5.363537,-0.476236,5.379441,-0.462442,5.393235,-0.446538,5.403862,-0.428514,5.411328,-0.404831,5.416039,-0.395076,5.417000,0.395076,5.417000,0.404831,5.416039,0.404831,5.416039,$1*%
%AMFreePoly21*
4,1,77,0.404831,5.416039,0.428513,5.411328,0.446537,5.403862,0.462441,5.393235,0.476235,5.379441,0.486862,5.363537,0.494328,5.345513,0.499039,5.321831,0.500000,5.312076,0.500000,0.054924,0.499039,0.050092,0.499039,0.050000,0.500000,0.050000,0.500000,0.000000,0.496194,-0.019134,0.485355,-0.035355,0.469134,-0.046194,0.450000,-0.050000,-0.450000,-0.050000,-0.469134,-0.046194,
-0.485355,-0.035355,-0.496194,-0.019134,-0.500000,0.000000,-0.500000,0.050000,-0.499040,0.050000,-0.499039,0.050096,-0.500000,0.054924,-0.500000,0.395800,-0.313443,0.395800,-0.028327,0.056273,0.231938,0.056273,0.231938,0.395800,0.081875,0.395800,0.081875,0.173033,-0.109035,0.395800,-0.313443,0.395800,-0.500000,0.395800,-0.500000,0.658576,-0.368314,0.658576,-0.368314,0.461142,
-0.355431,0.445800,-0.151884,0.445800,-0.200323,0.502322,0.081875,0.502322,0.081875,0.445800,0.231938,0.445800,0.231938,0.502322,0.385127,0.502322,0.385127,0.658576,0.231938,0.658576,0.231938,0.749288,0.081875,0.749288,0.081875,0.658576,-0.368314,0.658576,-0.500000,0.658576,-0.500000,0.866488,-0.368314,0.866488,-0.183861,0.866488,-0.183861,1.327667,0.385127,0.962255,
0.385127,1.163866,-0.197344,1.534296,-0.368314,1.534296,-0.368314,0.866488,-0.500000,0.866488,-0.500000,5.312076,-0.499040,5.321829,-0.494330,5.345511,-0.486863,5.363537,-0.476236,5.379441,-0.462442,5.393235,-0.446538,5.403862,-0.428514,5.411328,-0.404831,5.416039,-0.395076,5.417000,0.395076,5.417000,0.404831,5.416039,0.404831,5.416039,$1*%
%AMFreePoly22*
4,1,172,0.404831,5.416039,0.428513,5.411328,0.446537,5.403862,0.462441,5.393235,0.476235,5.379441,0.486862,5.363537,0.494328,5.345513,0.499039,5.321831,0.500000,5.312076,0.500000,0.054924,0.499039,0.050092,0.499039,0.050000,0.500000,0.050000,0.500000,0.000000,0.496194,-0.019134,0.485355,-0.035355,0.469134,-0.046194,0.450000,-0.050000,-0.450000,-0.050000,-0.469134,-0.046194,
-0.485355,-0.035355,-0.496194,-0.019134,-0.500000,0.000000,-0.500000,0.050000,-0.499040,0.050000,-0.499039,0.050096,-0.500000,0.054924,-0.500000,0.395800,-0.313443,0.395800,-0.028327,0.056273,0.231938,0.056273,0.231938,0.395800,0.081875,0.395800,0.081875,0.173033,-0.109035,0.395800,-0.313443,0.395800,-0.500000,0.395800,-0.500000,0.658576,-0.368314,0.658576,-0.368314,0.461142,
-0.355431,0.445800,-0.151884,0.445800,-0.200323,0.502322,0.081875,0.502322,0.081875,0.445800,0.231938,0.445800,0.231938,0.502322,0.385127,0.502322,0.385127,0.658576,0.231938,0.658576,0.231938,0.749288,0.081875,0.749288,0.081875,0.658576,-0.368314,0.658576,-0.500000,0.658576,-0.500000,1.206693,-0.368314,1.206693,-0.367190,1.136132,-0.361621,1.072311,-0.356103,1.018903,
-0.340662,0.974654,-0.316339,0.937892,-0.290910,0.913048,-0.264498,0.895711,-0.236835,0.884627,-0.207309,0.879091,-0.122361,0.873229,-0.078788,0.873229,0.082168,0.874071,0.170604,0.876425,0.232573,0.882461,0.268753,0.890966,0.298563,0.904619,0.323089,0.923640,0.351080,0.958926,0.370619,1.001749,0.380852,1.052873,0.385127,1.138660,0.384268,1.183200,0.231124,1.183200,
0.231938,1.126899,0.227508,1.081627,0.216941,1.055495,0.203929,1.043735,0.181786,1.035900,0.146306,1.032817,0.115055,1.035526,0.095088,1.042474,0.082950,1.052967,0.072670,1.075935,0.068490,1.113454,0.067033,1.183200,-0.086187,1.183200,-0.083021,1.134228,-0.072975,1.092021,-0.059435,1.068403,-0.037351,1.049147,-0.005320,1.033660,-0.098425,1.033660,-0.146101,1.036591,
-0.166088,1.041523,-0.185913,1.050879,-0.201182,1.063970,-0.208921,1.080701,-0.212877,1.136132,-0.215124,1.233585,-0.214001,1.283154,-0.211236,1.311693,-0.088069,1.311693,-0.087314,1.233200,0.066243,1.233200,0.066243,1.302461,0.070799,1.332242,0.082950,1.353276,0.096042,1.363340,0.114963,1.369773,0.141861,1.372180,0.177512,1.369207,0.200056,1.361638,0.213571,1.350345,
0.224972,1.325172,0.229691,1.282311,0.230401,1.233200,0.383303,1.233200,0.381756,1.313379,0.377675,1.379758,0.367015,1.428043,0.351759,1.462193,0.333250,1.485570,0.306942,1.503526,0.267252,1.517920,0.209663,1.527920,0.128428,1.531769,0.066818,1.528892,0.015197,1.520851,-0.015066,1.510851,-0.037930,1.496176,-0.054559,1.476338,-0.071199,1.441613,-0.081377,1.403248,
-0.086276,1.362239,-0.088069,1.311693,-0.211236,1.311693,-0.210966,1.314480,-0.202766,1.338585,-0.192705,1.351534,-0.177487,1.360387,-0.155725,1.365476,-0.155725,1.520008,-0.216584,1.517146,-0.262523,1.509507,-0.296702,1.498173,-0.317971,1.485740,-0.334852,1.469121,-0.347493,1.447492,-0.355418,1.419624,-0.363198,1.364760,-0.366604,1.321366,-0.368314,1.206693,-0.500000,1.206693,
-0.500000,5.312076,-0.499040,5.321829,-0.494330,5.345511,-0.486863,5.363537,-0.476236,5.379441,-0.462442,5.393235,-0.446538,5.403862,-0.428514,5.411328,-0.404831,5.416039,-0.395076,5.417000,0.395076,5.417000,0.404831,5.416039,0.404831,5.416039,$1*%
%AMFreePoly23*
4,1,138,0.404831,5.416039,0.428513,5.411328,0.446537,5.403862,0.462441,5.393235,0.476235,5.379441,0.486862,5.363537,0.494328,5.345513,0.499039,5.321831,0.500000,5.312076,0.500000,0.054924,0.499039,0.050092,0.499039,0.050000,0.500000,0.050000,0.500000,0.000000,0.496194,-0.019134,0.485355,-0.035355,0.469134,-0.046194,0.450000,-0.050000,-0.450000,-0.050000,-0.469134,-0.046194,
-0.485355,-0.035355,-0.496194,-0.019134,-0.500000,0.000000,-0.500000,0.050000,-0.499040,0.050000,-0.499039,0.050096,-0.500000,0.054924,-0.500000,0.395800,-0.313443,0.395800,-0.028327,0.056273,0.231937,0.056273,0.231937,0.395800,0.081874,0.395800,0.081874,0.173033,-0.109035,0.395800,-0.313443,0.395800,-0.500000,0.395800,-0.500000,0.658576,-0.368314,0.658576,-0.368314,0.461142,
-0.355431,0.445800,-0.151884,0.445800,-0.200323,0.502322,0.081874,0.502322,0.081874,0.445800,0.231937,0.445800,0.231937,0.502322,0.385126,0.502322,0.385126,0.658576,0.231937,0.658576,0.231937,0.749288,0.081874,0.749288,0.081874,0.658576,-0.368314,0.658576,-0.500000,0.658576,-0.500000,1.512461,-0.368314,1.512461,-0.368314,0.897555,0.072495,0.890008,0.072495,1.033660,
0.053166,1.037754,0.040771,1.044469,0.033514,1.053810,0.024233,1.083229,0.022474,1.115982,0.022474,1.208379,0.024721,1.299933,0.027905,1.328631,0.036090,1.348072,0.047973,1.360823,0.065083,1.369633,0.090962,1.375691,0.128915,1.378042,0.170942,1.375016,0.196976,1.367460,0.212153,1.356610,0.221439,1.341472,0.228152,1.317758,0.230813,1.282274,0.231937,1.210907,
0.229690,1.129427,0.227617,1.095629,0.221239,1.060111,0.213879,1.044795,0.200681,1.034048,0.180527,1.027080,0.150653,1.024427,0.150653,0.868173,0.222424,0.871803,0.273981,0.881305,0.310151,0.895149,0.334665,0.912686,0.352232,0.935210,0.366312,0.966081,0.375906,1.007538,0.379508,1.062199,0.385126,1.222667,0.385126,1.286488,0.384002,1.349502,0.378938,1.404011,
0.365433,1.444774,0.345315,1.474817,0.319327,1.496488,0.286166,1.512634,0.242362,1.525259,0.185278,1.533697,0.111769,1.536824,0.036481,1.532895,-0.016809,1.522672,-0.053582,1.507845,-0.075989,1.492008,-0.093629,1.472091,-0.106571,1.447340,-0.114350,1.416693,-0.123875,1.319680,-0.124461,1.248715,-0.124461,1.196618,-0.123338,1.144558,-0.119917,1.109797,-0.110442,1.081543,
-0.092757,1.056542,-0.063889,1.033660,-0.218251,1.033660,-0.218251,1.512461,-0.368314,1.512461,-0.500000,1.512461,-0.500000,5.312076,-0.499040,5.321829,-0.494330,5.345511,-0.486863,5.363537,-0.476236,5.379441,-0.462442,5.393235,-0.446538,5.403862,-0.428514,5.411328,-0.404831,5.416039,-0.395076,5.417000,0.395076,5.417000,0.404831,5.416039,0.404831,5.416039,$1*%
%AMFreePoly24*
4,1,95,0.404831,5.416039,0.428513,5.411328,0.446537,5.403862,0.462441,5.393235,0.476235,5.379441,0.486862,5.363537,0.494328,5.345513,0.499039,5.321831,0.500000,5.312076,0.500000,0.054924,0.499039,0.050092,0.499039,0.050000,0.500000,0.050000,0.500000,0.000000,0.496194,-0.019134,0.485355,-0.035355,0.469134,-0.046194,0.450000,-0.050000,-0.450000,-0.050000,-0.469134,-0.046194,
-0.485355,-0.035355,-0.496194,-0.019134,-0.500000,0.000000,-0.500000,0.050000,-0.499040,0.050000,-0.499039,0.050096,-0.500000,0.054924,-0.500000,0.395800,-0.313444,0.395800,-0.028328,0.056273,0.231937,0.056273,0.231937,0.395800,0.081874,0.395800,0.081874,0.173033,-0.109036,0.395800,-0.313444,0.395800,-0.500000,0.395800,-0.500000,0.658576,-0.368315,0.658576,-0.368315,0.461142,
-0.355432,0.445800,-0.151885,0.445800,-0.200324,0.502322,0.081874,0.502322,0.081874,0.445800,0.231937,0.445800,0.231937,0.502322,0.385126,0.502322,0.385126,0.658576,0.231937,0.658576,0.231937,0.749288,0.081874,0.749288,0.081874,0.658576,-0.368315,0.658576,-0.500000,0.658576,-0.500000,1.183200,-0.302746,1.183200,-0.028328,0.856413,0.231937,0.856413,0.231937,1.183200,
0.081874,1.183200,0.081874,0.973173,-0.098118,1.183200,-0.302746,1.183200,-0.500000,1.183200,-0.500000,1.458715,-0.368315,1.458715,-0.368315,1.261282,-0.344733,1.233200,-0.140968,1.233200,-0.200324,1.302461,0.081874,1.302461,0.081874,1.233200,0.231937,1.233200,0.231937,1.302461,0.385126,1.302461,0.385126,1.458715,0.231937,1.458715,0.231937,1.549427,0.081874,1.549427,
0.081874,1.458715,-0.368315,1.458715,-0.500000,1.458715,-0.500000,5.312076,-0.499040,5.321829,-0.494330,5.345511,-0.486863,5.363537,-0.476236,5.379441,-0.462442,5.393235,-0.446538,5.403862,-0.428514,5.411328,-0.404831,5.416039,-0.395076,5.417000,0.395076,5.417000,0.404831,5.416039,0.404831,5.416039,$1*%
%AMFreePoly25*
4,1,168,0.404831,5.416039,0.428513,5.411328,0.446537,5.403862,0.462441,5.393235,0.476235,5.379441,0.486862,5.363537,0.494328,5.345513,0.499039,5.321831,0.500000,5.312076,0.500000,0.054924,0.499039,0.050092,0.499039,0.050000,0.500000,0.050000,0.500000,0.000000,0.496194,-0.019134,0.485355,-0.035355,0.469134,-0.046194,0.450000,-0.050000,-0.450000,-0.050000,-0.469134,-0.046194,
-0.485355,-0.035355,-0.496194,-0.019134,-0.500000,0.000000,-0.500000,0.050000,-0.499040,0.050000,-0.499039,0.050096,-0.500000,0.054924,-0.500000,0.395800,-0.313444,0.395800,-0.028328,0.056273,0.231937,0.056273,0.231937,0.395800,0.081874,0.395800,0.081874,0.173033,-0.109036,0.395800,-0.313444,0.395800,-0.500000,0.395800,-0.500000,0.658576,-0.368315,0.658576,-0.368315,0.461142,
-0.355432,0.445800,-0.151885,0.445800,-0.200324,0.502322,0.081874,0.502322,0.081874,0.445800,0.231937,0.445800,0.231937,0.502322,0.385126,0.502322,0.385126,0.658576,0.231937,0.658576,0.231937,0.749288,0.081874,0.749288,0.081874,0.658576,-0.368315,0.658576,-0.500000,0.658576,-0.500000,1.210064,-0.368315,1.210064,-0.368315,1.187386,-0.366654,1.103782,-0.356591,1.002152,
-0.349010,0.967596,-0.336202,0.939910,-0.318805,0.917854,-0.296947,0.900486,-0.270789,0.887971,-0.233536,0.877830,-0.181896,0.870831,-0.111957,0.868173,-0.111957,1.026955,-0.131692,1.026113,-0.161250,1.028587,-0.181409,1.035084,-0.194804,1.045017,-0.207027,1.066667,-0.211853,1.100887,-0.215125,1.181524,-0.211804,1.274764,-0.211804,1.282311,-0.209336,1.316971,-0.203427,1.337526,
-0.195781,1.348660,-0.183351,1.356262,-0.162408,1.361636,-0.129054,1.363790,-0.101542,1.360969,-0.084612,1.353710,-0.074979,1.342358,-0.067997,1.318011,-0.065063,1.276413,-0.065063,1.133604,0.078748,1.133604,0.078748,1.268023,0.077624,1.309166,0.080005,1.333022,0.086195,1.349783,0.095210,1.361263,0.108623,1.369474,0.129392,1.375063,0.160471,1.377236,0.187754,1.374691,
0.206199,1.367972,0.218308,1.357489,0.229007,1.335751,0.233060,1.304989,0.231937,1.285682,0.231937,1.191599,0.230813,1.094146,0.227440,1.065510,0.218894,1.046893,0.206584,1.035308,0.189050,1.027680,0.162189,1.022315,0.122516,1.020214,0.122516,0.866488,0.162914,0.864802,0.221575,0.867474,0.266390,0.874644,0.300156,0.885329,0.325167,0.898995,0.343067,0.915617,
0.359104,0.940910,0.371991,0.974834,0.380738,1.019504,0.384002,1.077330,0.385126,1.184858,0.385126,1.317592,0.380546,1.389869,0.368809,1.440144,0.352389,1.473784,0.332858,1.495242,0.305098,1.512797,0.271508,1.525700,0.230883,1.533893,0.181623,1.536824,0.117786,1.533006,0.076808,1.523433,0.051783,1.509933,0.034226,1.490221,0.018938,1.458440,0.007380,1.409989,
-0.011573,1.462049,-0.029341,1.489524,-0.048894,1.504474,-0.072448,1.513912,-0.096277,1.519166,-0.156507,1.522536,-0.219087,1.519124,-0.265164,1.510074,-0.298530,1.496642,-0.322055,1.479269,-0.339075,1.457354,-0.352546,1.428147,-0.361617,1.389828,-0.364993,1.340270,-0.368315,1.210064,-0.500000,1.210064,-0.500000,5.312076,-0.499040,5.321829,-0.494330,5.345511,-0.486863,5.363537,
-0.476236,5.379441,-0.462442,5.393235,-0.446538,5.403862,-0.428514,5.411328,-0.404831,5.416039,-0.395076,5.417000,0.395076,5.417000,0.404831,5.416039,0.404831,5.416039,$1*%
%AMFreePoly26*
4,1,140,0.404831,5.416039,0.428513,5.411328,0.446537,5.403862,0.462441,5.393235,0.476235,5.379441,0.486862,5.363537,0.494328,5.345513,0.499039,5.321831,0.500000,5.312076,0.500000,0.054924,0.499039,0.050092,0.499039,0.050000,0.500000,0.050000,0.500000,0.000000,0.496194,-0.019134,0.485355,-0.035355,0.469134,-0.046194,0.450000,-0.050000,-0.450000,-0.050000,-0.469134,-0.046194,
-0.485355,-0.035355,-0.496194,-0.019134,-0.500000,0.000000,-0.500000,0.050000,-0.499040,0.050000,-0.499039,0.050096,-0.500000,0.054924,-0.500000,0.395800,-0.313444,0.395800,-0.028328,0.056273,0.231937,0.056273,0.231937,0.395800,0.081874,0.395800,0.081874,0.173033,-0.109036,0.395800,-0.313444,0.395800,-0.500000,0.395800,-0.500000,0.658576,-0.368315,0.658576,-0.368315,0.461142,
-0.355432,0.445800,-0.151885,0.445800,-0.200324,0.502322,0.081874,0.502322,0.081874,0.445800,0.231937,0.445800,0.231937,0.502322,0.385126,0.502322,0.385126,0.658576,0.231937,0.658576,0.231937,0.749288,0.081874,0.749288,0.081874,0.658576,-0.368315,0.658576,-0.500000,0.658576,-0.500000,1.267180,-0.368315,1.267180,-0.363820,1.079016,-0.360775,1.016632,-0.352823,0.971114,
-0.341513,0.938901,-0.328014,0.916899,-0.307471,0.899788,-0.273859,0.885981,-0.222173,0.876216,-0.145760,0.872386,-0.093199,0.873229,-0.093199,1.027761,-0.118943,1.027761,-0.152453,1.029849,-0.166784,1.033366,-0.182690,1.040364,-0.195929,1.050598,-0.205600,1.065973,-0.210932,1.084069,-0.212878,1.106713,-0.215125,1.205851,-0.215125,1.293229,-0.212864,1.324355,-0.207334,1.343727,
-0.199982,1.354961,-0.188174,1.362965,-0.169536,1.368383,-0.141218,1.370495,-0.125537,1.371338,-0.099039,1.369076,-0.081204,1.363161,-0.069557,1.354118,-0.058181,1.333801,-0.049431,1.297405,-0.017826,1.003435,-0.007687,0.965989,0.006379,0.937637,0.023595,0.916572,0.043674,0.901366,0.077863,0.886838,0.126209,0.876979,0.193249,0.873229,0.385126,0.873229,0.385126,1.530083,
0.235063,1.530083,0.235063,1.026955,0.201260,1.026955,0.171394,1.029461,0.153267,1.035742,0.143032,1.045017,0.134690,1.065211,0.131357,1.096674,0.119683,1.214277,0.106884,1.352836,0.102438,1.407326,0.090782,1.446821,0.073859,1.474776,0.052662,1.493960,0.024794,1.508014,-0.014775,1.519337,-0.069510,1.527128,-0.143562,1.530083,-0.208161,1.527103,-0.256444,1.519184,
-0.291916,1.507504,-0.317414,1.492677,-0.336687,1.473202,-0.351892,1.446276,-0.362196,1.409813,-0.366067,1.361263,-0.368315,1.267180,-0.500000,1.267180,-0.500000,5.312076,-0.499040,5.321829,-0.494330,5.345511,-0.486863,5.363537,-0.476236,5.379441,-0.462442,5.393235,-0.446538,5.403862,-0.428514,5.411328,-0.404831,5.416039,-0.395076,5.417000,0.395076,5.417000,0.404831,5.416039,
0.404831,5.416039,$1*%
%AMFreePoly27*
4,1,77,0.404831,5.416039,0.428513,5.411328,0.446537,5.403862,0.462441,5.393235,0.476235,5.379441,0.486862,5.363537,0.494328,5.345513,0.499039,5.321831,0.500000,5.312076,0.500000,0.054924,0.499039,0.050092,0.499039,0.050000,0.500000,0.050000,0.500000,0.000000,0.496194,-0.019134,0.485355,-0.035355,0.469134,-0.046194,0.450000,-0.050000,-0.450000,-0.050000,-0.469134,-0.046194,
-0.485355,-0.035355,-0.496194,-0.019134,-0.500000,0.000000,-0.500000,0.050000,-0.499040,0.050000,-0.499039,0.050096,-0.500000,0.054924,-0.500000,0.395800,-0.313444,0.395800,-0.028328,0.056273,0.231937,0.056273,0.231937,0.395800,0.081874,0.395800,0.081874,0.173033,-0.109036,0.395800,-0.313444,0.395800,-0.500000,0.395800,-0.500000,0.658576,-0.368315,0.658576,-0.368315,0.461142,
-0.355432,0.445800,-0.151885,0.445800,-0.200324,0.502322,0.081874,0.502322,0.081874,0.445800,0.231937,0.445800,0.231937,0.502322,0.385126,0.502322,0.385126,0.658576,0.231937,0.658576,0.231937,0.749288,0.081874,0.749288,0.081874,0.658576,-0.368315,0.658576,-0.500000,0.658576,-0.500000,1.152105,-0.368315,1.152105,-0.155726,0.912686,-0.003416,0.988304,-0.192460,1.191563,
0.385126,1.191563,0.385126,1.358735,-0.368315,1.358735,-0.368315,1.152105,-0.500000,1.152105,-0.500000,5.312076,-0.499040,5.321829,-0.494330,5.345511,-0.486863,5.363537,-0.476236,5.379441,-0.462442,5.393235,-0.446538,5.403862,-0.428514,5.411328,-0.404831,5.416039,-0.395076,5.417000,0.395076,5.417000,0.404831,5.416039,0.404831,5.416039,$1*%
%AMFreePoly28*
4,1,157,0.404831,5.416039,0.428513,5.411328,0.446537,5.403862,0.462441,5.393235,0.476235,5.379441,0.486862,5.363537,0.494328,5.345513,0.499039,5.321831,0.500000,5.312076,0.500000,0.054924,0.499039,0.050092,0.499039,0.050000,0.500000,0.050000,0.500000,0.000000,0.496194,-0.019134,0.485355,-0.035355,0.469134,-0.046194,0.450000,-0.050000,-0.450000,-0.050000,-0.469134,-0.046194,
-0.485355,-0.035355,-0.496194,-0.019134,-0.500000,0.000000,-0.500000,0.050000,-0.499040,0.050000,-0.499039,0.050096,-0.500000,0.054924,-0.500000,0.395800,-0.313444,0.395800,-0.028328,0.056273,0.231937,0.056273,0.231937,0.395800,0.081874,0.395800,0.081874,0.173033,-0.109036,0.395800,-0.313444,0.395800,-0.500000,0.395800,-0.500000,0.658576,-0.368315,0.658576,-0.368315,0.461142,
-0.355432,0.445800,-0.151885,0.445800,-0.200324,0.502322,0.081874,0.502322,0.081874,0.445800,0.231937,0.445800,0.231937,0.502322,0.385126,0.502322,0.385126,0.658576,0.231937,0.658576,0.231937,0.749288,0.081874,0.749288,0.081874,0.658576,-0.368315,0.658576,-0.500000,0.658576,-0.500000,1.190600,-0.368066,1.190600,-0.366067,1.094989,-0.361854,1.027010,-0.350723,0.976362,
-0.334574,0.939488,-0.314716,0.913344,-0.291720,0.895504,-0.254250,0.879327,-0.197011,0.865694,-0.113240,0.855996,0.005035,0.852236,0.046410,0.852236,0.141910,0.855305,0.212815,0.863393,0.264160,0.875069,0.300293,0.889303,0.324749,0.905579,0.342998,0.926257,0.359182,0.955935,0.372487,0.997189,0.381665,1.053039,0.385126,1.126899,0.384314,1.190600,0.200215,1.190600,
0.198427,1.137817,0.195058,1.093670,0.186597,1.064577,0.174952,1.046355,0.161057,1.035748,0.134070,1.026689,0.085840,1.019725,0.006501,1.016844,-0.008007,1.016844,-0.073343,1.019030,-0.117071,1.024537,-0.144879,1.032060,-0.161441,1.040767,-0.172795,1.053248,-0.182809,1.075118,-0.190255,1.110569,-0.193241,1.164708,-0.193241,1.190600,-0.368066,1.190600,-0.500000,1.190600,
-0.500000,1.268023,-0.369438,1.268023,-0.368968,1.240600,-0.193241,1.240600,-0.193241,1.243660,-0.192118,1.272639,-0.186549,1.319241,-0.178821,1.339396,-0.164225,1.358332,-0.142350,1.372772,-0.108977,1.381413,-0.070275,1.385125,-0.023639,1.386468,0.022132,1.386468,0.085817,1.384000,0.128252,1.377784,0.155157,1.369242,0.171120,1.359174,0.185552,1.339239,0.196295,1.305086,
0.200674,1.250364,0.200674,1.240600,0.383677,1.240600,0.382879,1.303304,0.377835,1.382908,0.364983,1.437667,0.347122,1.473810,0.326472,1.497890,0.301983,1.516291,0.273344,1.529740,0.239801,1.538510,0.156798,1.547303,0.005035,1.551113,-0.081596,1.549794,-0.138580,1.546496,-0.190097,1.540101,-0.240869,1.530120,-0.271952,1.519711,-0.298200,1.504221,-0.320248,1.483079,
-0.343863,1.445656,-0.357666,1.401599,-0.367728,1.335214,-0.369438,1.268023,-0.500000,1.268023,-0.500000,5.312076,-0.499040,5.321829,-0.494330,5.345511,-0.486863,5.363537,-0.476236,5.379441,-0.462442,5.393235,-0.446538,5.403862,-0.428514,5.411328,-0.404831,5.416039,-0.395076,5.417000,0.395076,5.417000,0.404831,5.416039,0.404831,5.416039,$1*%
%AMFreePoly29*
4,1,250,0.404831,5.416039,0.428513,5.411328,0.446537,5.403862,0.462441,5.393235,0.476235,5.379441,0.486862,5.363537,0.494328,5.345513,0.499039,5.321831,0.500000,5.312076,0.500000,0.054924,0.499039,0.050092,0.499039,0.050000,0.500000,0.050000,0.500000,0.000000,0.496194,-0.019134,0.485355,-0.035355,0.469134,-0.046194,0.450000,-0.050000,-0.450000,-0.050000,-0.469134,-0.046194,
-0.485355,-0.035355,-0.496194,-0.019134,-0.500000,0.000000,-0.500000,0.050000,-0.499040,0.050000,-0.499039,0.050096,-0.500000,0.054924,-0.500000,0.409924,-0.368315,0.409924,-0.368315,0.387247,-0.366654,0.303642,-0.356591,0.202013,-0.349010,0.167456,-0.336202,0.139770,-0.318805,0.117715,-0.296947,0.100347,-0.270789,0.087832,-0.233536,0.077691,-0.181896,0.070692,-0.111957,0.068033,
-0.111957,0.226816,-0.131692,0.225973,-0.161250,0.228448,-0.181409,0.234944,-0.194804,0.244877,-0.207027,0.266528,-0.211853,0.300748,-0.215125,0.381385,-0.211804,0.474624,-0.211804,0.482172,-0.209336,0.516831,-0.203427,0.537386,-0.195781,0.548520,-0.183351,0.556122,-0.162408,0.561496,-0.129054,0.563651,-0.101542,0.560830,-0.084612,0.553571,-0.074979,0.542219,-0.067997,0.517872,
-0.065063,0.476273,-0.065063,0.333464,0.078748,0.333464,0.078748,0.467883,0.077624,0.509026,0.080005,0.532882,0.086195,0.549643,0.095210,0.561123,0.108623,0.569334,0.129392,0.574923,0.160471,0.577096,0.187754,0.574551,0.206199,0.567833,0.218308,0.557349,0.229007,0.535611,0.233060,0.504849,0.231937,0.485542,0.231937,0.391460,0.230813,0.294007,0.227440,0.265371,
0.218894,0.246754,0.206584,0.235169,0.189050,0.227540,0.162189,0.222176,0.122516,0.220075,0.122516,0.066348,0.162914,0.064663,0.221575,0.067335,0.266390,0.074504,0.300156,0.085189,0.325167,0.098855,0.343067,0.115478,0.359104,0.140770,0.371991,0.174695,0.380738,0.219364,0.384002,0.277191,0.385126,0.384719,0.385126,0.517452,0.380546,0.589729,0.368809,0.640004,
0.352389,0.673644,0.332858,0.695102,0.305098,0.712658,0.271508,0.725560,0.230883,0.733753,0.181623,0.736685,0.117786,0.732867,0.076808,0.723293,0.051783,0.709794,0.034226,0.690082,0.018938,0.658301,0.007380,0.609849,-0.011573,0.661910,-0.029341,0.689384,-0.048894,0.704335,-0.072448,0.713772,-0.096277,0.719026,-0.156507,0.722397,-0.219087,0.718984,-0.265164,0.709934,
-0.298530,0.696502,-0.322055,0.679129,-0.339075,0.657214,-0.352546,0.628007,-0.361617,0.589689,-0.364993,0.540130,-0.368315,0.409924,-0.500000,0.409924,-0.500000,1.190600,-0.366933,1.190600,-0.364993,1.080701,-0.361420,1.026363,-0.351786,0.983964,-0.337433,0.951316,-0.319271,0.926535,-0.293937,0.906693,-0.257994,0.891468,-0.208384,0.881252,-0.140973,0.877405,-0.076334,0.880264,
-0.027206,0.887914,0.009566,0.899264,0.036584,0.913700,0.055740,0.931151,0.072845,0.957887,0.086709,0.994447,0.096192,1.043370,0.099752,1.107555,0.098364,1.190600,-0.052831,1.190600,-0.053681,1.135326,-0.057539,1.086185,-0.066479,1.059269,-0.078397,1.047449,-0.100577,1.039423,-0.138287,1.036188,-0.161727,1.038265,-0.180067,1.044054,-0.194511,1.053407,-0.204091,1.066020,
-0.211144,1.087297,-0.214002,1.121038,-0.215125,1.186543,-0.215020,1.190600,-0.366933,1.190600,-0.500000,1.190600,-0.500000,1.268866,-0.368315,1.268866,-0.367816,1.240600,-0.213721,1.240600,-0.212878,1.273079,-0.210680,1.310851,-0.208074,1.333420,-0.201266,1.349214,-0.191190,1.360017,-0.176863,1.367652,-0.156246,1.372764,-0.127149,1.374708,-0.098085,1.371619,-0.078994,1.363439,
-0.067017,1.350345,-0.057421,1.323710,-0.053681,1.284839,-0.053031,1.240600,0.097528,1.240600,0.097505,1.241974,0.094186,1.285506,0.085293,1.318838,0.074248,1.338374,0.057418,1.355187,0.034149,1.369652,0.130771,1.369652,0.167424,1.367106,0.192396,1.360506,0.208929,1.350748,0.220008,1.337019,0.227773,1.315960,0.230813,1.284802,0.231937,1.189071,0.229641,1.103379,
0.226532,1.071415,0.218308,1.047948,0.208087,1.036015,0.192456,1.028784,0.169411,1.026113,0.169411,0.868173,0.198622,0.867330,0.247438,0.870184,0.284243,0.877851,0.311702,0.889432,0.331783,0.904699,0.351387,0.931133,0.367021,0.968569,0.377261,1.020214,0.385126,1.189071,0.381755,1.303304,0.377577,1.369180,0.366579,1.417842,0.350680,1.452913,0.331175,1.477478,
0.308580,1.493960,0.271908,1.508798,0.216961,1.521251,0.137781,1.530058,0.027408,1.533454,-0.029599,1.533454,-0.133011,1.531329,-0.177140,1.527635,-0.229682,1.520008,-0.263359,1.511219,-0.291182,1.497720,-0.314093,1.479269,-0.331978,1.457362,-0.345617,1.432457,-0.354881,1.404091,-0.366605,1.337742,-0.368315,1.268866,-0.500000,1.268866,-0.500000,5.312076,-0.499040,5.321829,
-0.494330,5.345511,-0.486863,5.363537,-0.476236,5.379441,-0.462442,5.393235,-0.446538,5.403862,-0.428514,5.411328,-0.404831,5.416039,-0.395076,5.417000,0.395076,5.417000,0.404831,5.416039,0.404831,5.416039,$1*%
%AMFreePoly30*
4,1,264,0.404831,5.416039,0.428513,5.411328,0.446537,5.403862,0.462441,5.393235,0.476235,5.379441,0.486862,5.363537,0.494328,5.345513,0.499039,5.321831,0.500000,5.312076,0.500000,0.054924,0.499039,0.050092,0.499039,0.050000,0.500000,0.050000,0.500000,0.000000,0.496194,-0.019134,0.485355,-0.035355,0.469134,-0.046194,0.450000,-0.050000,-0.450000,-0.050000,-0.469134,-0.046194,
-0.485355,-0.035355,-0.496194,-0.019134,-0.500000,0.000000,-0.500000,0.050000,-0.499040,0.050000,-0.499039,0.050096,-0.500000,0.054924,-0.500000,0.409924,-0.368315,0.409924,-0.368315,0.387247,-0.366654,0.303642,-0.356591,0.202013,-0.349010,0.167456,-0.336202,0.139770,-0.318805,0.117715,-0.296947,0.100347,-0.270789,0.087832,-0.233536,0.077691,-0.181896,0.070692,-0.111957,0.068033,
-0.111957,0.226816,-0.131692,0.225973,-0.161250,0.228448,-0.181409,0.234944,-0.194804,0.244877,-0.207027,0.266528,-0.211853,0.300748,-0.215125,0.381385,-0.211804,0.474624,-0.211804,0.482172,-0.209336,0.516831,-0.203427,0.537386,-0.195781,0.548520,-0.183351,0.556122,-0.162408,0.561496,-0.129054,0.563651,-0.101542,0.560830,-0.084612,0.553571,-0.074979,0.542219,-0.067997,0.517872,
-0.065063,0.476273,-0.065063,0.333464,0.078748,0.333464,0.078748,0.467883,0.077624,0.509026,0.080005,0.532882,0.086195,0.549643,0.095210,0.561123,0.108623,0.569334,0.129392,0.574923,0.160471,0.577096,0.187754,0.574551,0.206199,0.567833,0.218308,0.557349,0.229007,0.535611,0.233060,0.504849,0.231937,0.485542,0.231937,0.391460,0.230813,0.294007,0.227440,0.265371,
0.218894,0.246754,0.206584,0.235169,0.189050,0.227540,0.162189,0.222176,0.122516,0.220075,0.122516,0.066348,0.162914,0.064663,0.221575,0.067335,0.266390,0.074504,0.300156,0.085189,0.325167,0.098855,0.343067,0.115478,0.359104,0.140770,0.371991,0.174695,0.380738,0.219364,0.384002,0.277191,0.385126,0.384719,0.385126,0.517452,0.380546,0.589729,0.368809,0.640004,
0.352389,0.673644,0.332858,0.695102,0.305098,0.712658,0.271508,0.725560,0.230883,0.733753,0.181623,0.736685,0.117786,0.732867,0.076808,0.723293,0.051783,0.709794,0.034226,0.690082,0.018938,0.658301,0.007380,0.609849,-0.011573,0.661910,-0.029341,0.689384,-0.048894,0.704335,-0.072448,0.713772,-0.096277,0.719026,-0.156507,0.722397,-0.219087,0.718984,-0.265164,0.709934,
-0.298530,0.696502,-0.322055,0.679129,-0.339075,0.657214,-0.352546,0.628007,-0.361617,0.589689,-0.364993,0.540130,-0.368315,0.409924,-0.500000,0.409924,-0.500000,1.140345,-0.368315,1.140345,-0.363869,1.037873,-0.358501,0.985399,-0.344077,0.945739,-0.322299,0.916057,-0.299494,0.898682,-0.269297,0.885682,-0.229883,0.877196,-0.178733,0.874071,-0.120655,0.877186,-0.081797,0.885101,
-0.056807,0.896310,-0.037506,0.913068,-0.018137,0.940483,0.000834,0.982405,0.022105,0.938703,0.042795,0.909885,0.062628,0.892096,0.088131,0.880010,0.127849,0.871514,0.187338,0.868173,0.239910,0.870969,0.280088,0.878502,0.310471,0.889858,0.333077,0.904677,0.349173,0.923201,0.366958,0.961002,0.379297,1.013793,0.384002,1.085720,0.385049,1.190600,0.231594,1.190600,
0.231937,1.152948,0.228566,1.101693,0.223634,1.076128,0.216794,1.057620,0.206199,1.042512,0.193249,1.033660,0.176080,1.028863,0.148992,1.026955,0.117828,1.029910,0.097384,1.037633,0.084512,1.049633,0.073634,1.074805,0.069369,1.112648,0.069369,1.190600,-0.073973,1.190600,-0.074442,1.115982,-0.079052,1.081221,-0.091294,1.056338,-0.104995,1.044057,-0.124476,1.036456,
-0.151818,1.033660,-0.176504,1.036593,-0.193621,1.044624,-0.205160,1.058023,-0.214617,1.084453,-0.218252,1.121844,-0.217798,1.190600,-0.367024,1.190600,-0.368315,1.140345,-0.500000,1.140345,-0.500000,1.240600,-0.365740,1.240600,-0.217469,1.240600,-0.217177,1.284802,-0.213354,1.322035,-0.203548,1.347377,-0.191646,1.359808,-0.173096,1.367574,-0.145272,1.370495,-0.120764,1.367905,
-0.102794,1.360766,-0.089682,1.349063,-0.077713,1.325811,-0.073318,1.294914,-0.073659,1.240600,0.069369,1.240600,0.069369,1.283996,0.074287,1.323964,0.086759,1.349905,0.101003,1.362182,0.122634,1.370046,0.154561,1.373023,0.183575,1.369721,0.203299,1.360794,0.216256,1.346132,0.226788,1.317064,0.230813,1.276413,0.231139,1.240600,0.384710,1.240600,0.384002,1.312536,
0.382879,1.368810,0.377261,1.426329,0.367745,1.453474,0.345803,1.484727,0.325538,1.503264,0.302494,1.516045,0.276145,1.523782,0.230206,1.529532,0.164868,1.531769,0.116535,1.528451,0.082155,1.519701,0.058133,1.506563,0.039511,1.488302,0.021021,1.460700,0.003081,1.420907,-0.014974,1.460463,-0.034173,1.487592,-0.054023,1.505280,-0.079433,1.517607,-0.116666,1.526012,
-0.169892,1.529241,-0.218492,1.526307,-0.257985,1.518154,-0.290119,1.505384,-0.316193,1.488061,-0.334474,1.466988,-0.349817,1.434402,-0.360744,1.386219,-0.364993,1.317555,-0.364993,1.269708,-0.365740,1.240600,-0.500000,1.240600,-0.500000,5.312076,-0.499040,5.321829,-0.494330,5.345511,-0.486863,5.363537,-0.476236,5.379441,-0.462442,5.393235,-0.446538,5.403862,-0.428514,5.411328,
-0.404831,5.416039,-0.395076,5.417000,0.395076,5.417000,0.404831,5.416039,0.404831,5.416039,$1*%
%AMFreePoly31*
4,1,150,0.404831,5.416039,0.428513,5.411328,0.446537,5.403862,0.462441,5.393235,0.476235,5.379441,0.486862,5.363537,0.494328,5.345513,0.499039,5.321831,0.500000,5.312076,0.500000,0.054924,0.499039,0.050092,0.499039,0.050000,0.500000,0.050000,0.500000,0.000000,0.496194,-0.019134,0.485355,-0.035355,0.469134,-0.046194,0.450000,-0.050000,-0.450000,-0.050000,-0.469134,-0.046194,
-0.485355,-0.035355,-0.496194,-0.019134,-0.500000,0.000000,-0.500000,0.050000,-0.499040,0.050000,-0.499039,0.050096,-0.500000,0.054924,-0.500000,0.409924,-0.368315,0.409924,-0.368315,0.387247,-0.366654,0.303642,-0.356591,0.202013,-0.349010,0.167456,-0.336202,0.139770,-0.318805,0.117715,-0.296947,0.100347,-0.270789,0.087832,-0.233536,0.077691,-0.181896,0.070692,-0.111957,0.068033,
-0.111957,0.226816,-0.131692,0.225973,-0.161250,0.228448,-0.181409,0.234944,-0.194804,0.244877,-0.207027,0.266528,-0.211853,0.300748,-0.215125,0.381385,-0.211804,0.474624,-0.211804,0.482172,-0.209336,0.516831,-0.203427,0.537386,-0.195781,0.548520,-0.183351,0.556122,-0.162408,0.561496,-0.129054,0.563651,-0.101542,0.560830,-0.084612,0.553571,-0.074979,0.542219,-0.067997,0.517872,
-0.065063,0.476273,-0.065063,0.333464,0.078748,0.333464,0.078748,0.467883,0.077624,0.509026,0.080005,0.532882,0.086195,0.549643,0.095210,0.561123,0.108623,0.569334,0.129392,0.574923,0.160471,0.577096,0.187754,0.574551,0.206199,0.567833,0.218308,0.557349,0.229007,0.535611,0.233060,0.504849,0.231937,0.485542,0.231937,0.391460,0.230813,0.294007,0.227440,0.265371,
0.218894,0.246754,0.206584,0.235169,0.189050,0.227540,0.162189,0.222176,0.122516,0.220075,0.122516,0.066348,0.162914,0.064663,0.221575,0.067335,0.266390,0.074504,0.300156,0.085189,0.325167,0.098855,0.343067,0.115478,0.359104,0.140770,0.371991,0.174695,0.380738,0.219364,0.384002,0.277191,0.385126,0.384719,0.385126,0.517452,0.380546,0.589729,0.368809,0.640004,
0.352389,0.673644,0.332858,0.695102,0.305098,0.712658,0.271508,0.725560,0.230883,0.733753,0.181623,0.736685,0.117786,0.732867,0.076808,0.723293,0.051783,0.709794,0.034226,0.690082,0.018938,0.658301,0.007380,0.609849,-0.011573,0.661910,-0.029341,0.689384,-0.048894,0.704335,-0.072448,0.713772,-0.096277,0.719026,-0.156507,0.722397,-0.219087,0.718984,-0.265164,0.709934,
-0.298530,0.696502,-0.322055,0.679129,-0.339075,0.657214,-0.352546,0.628007,-0.361617,0.589689,-0.364993,0.540130,-0.368315,0.409924,-0.500000,0.409924,-0.500000,0.866488,-0.368315,0.866488,-0.183862,0.866488,-0.183862,1.327667,0.385126,0.962255,0.385126,1.163866,-0.197345,1.534296,-0.368315,1.534296,-0.368315,0.866488,-0.500000,0.866488,-0.500000,5.312076,-0.499040,5.321829,
-0.494330,5.345511,-0.486863,5.363537,-0.476236,5.379441,-0.462442,5.393235,-0.446538,5.403862,-0.428514,5.411328,-0.404831,5.416039,-0.395076,5.417000,0.395076,5.417000,0.404831,5.416039,0.404831,5.416039,$1*%
%AMFreePoly32*
4,1,245,0.404831,5.416039,0.428513,5.411328,0.446537,5.403862,0.462441,5.393235,0.476235,5.379441,0.486862,5.363537,0.494328,5.345513,0.499039,5.321831,0.500000,5.312076,0.500000,0.054924,0.499039,0.050092,0.499039,0.050000,0.500000,0.050000,0.500000,0.000000,0.496194,-0.019134,0.485355,-0.035355,0.469134,-0.046194,0.450000,-0.050000,-0.450000,-0.050000,-0.469134,-0.046194,
-0.485355,-0.035355,-0.496194,-0.019134,-0.500000,0.000000,-0.500000,0.050000,-0.499040,0.050000,-0.499039,0.050096,-0.500000,0.054924,-0.500000,0.409924,-0.368315,0.409924,-0.368315,0.387247,-0.366654,0.303642,-0.356591,0.202013,-0.349010,0.167456,-0.336202,0.139770,-0.318805,0.117715,-0.296947,0.100347,-0.270789,0.087832,-0.233536,0.077691,-0.181896,0.070692,-0.111957,0.068033,
-0.111957,0.226816,-0.131692,0.225973,-0.161250,0.228448,-0.181409,0.234944,-0.194804,0.244877,-0.207027,0.266528,-0.211853,0.300748,-0.215125,0.381385,-0.211804,0.474624,-0.211804,0.482172,-0.209336,0.516831,-0.203427,0.537386,-0.195781,0.548520,-0.183351,0.556122,-0.162408,0.561496,-0.129054,0.563651,-0.101542,0.560830,-0.084612,0.553571,-0.074979,0.542219,-0.067997,0.517872,
-0.065063,0.476273,-0.065063,0.333464,0.078748,0.333464,0.078748,0.467883,0.077624,0.509026,0.080005,0.532882,0.086195,0.549643,0.095210,0.561123,0.108623,0.569334,0.129392,0.574923,0.160471,0.577096,0.187754,0.574551,0.206199,0.567833,0.218308,0.557349,0.229007,0.535611,0.233060,0.504849,0.231937,0.485542,0.231937,0.391460,0.230813,0.294007,0.227440,0.265371,
0.218894,0.246754,0.206584,0.235169,0.189050,0.227540,0.162189,0.222176,0.122516,0.220075,0.122516,0.066348,0.162914,0.064663,0.221575,0.067335,0.266390,0.074504,0.300156,0.085189,0.325167,0.098855,0.343067,0.115478,0.359104,0.140770,0.371991,0.174695,0.380738,0.219364,0.384002,0.277191,0.385126,0.384719,0.385126,0.517452,0.380546,0.589729,0.368809,0.640004,
0.352389,0.673644,0.332858,0.695102,0.305098,0.712658,0.271508,0.725560,0.230883,0.733753,0.181623,0.736685,0.117786,0.732867,0.076808,0.723293,0.051783,0.709794,0.034226,0.690082,0.018938,0.658301,0.007380,0.609849,-0.011573,0.661910,-0.029341,0.689384,-0.048894,0.704335,-0.072448,0.713772,-0.096277,0.719026,-0.156507,0.722397,-0.219087,0.718984,-0.265164,0.709934,
-0.298530,0.696502,-0.322055,0.679129,-0.339075,0.657214,-0.352546,0.628007,-0.361617,0.589689,-0.364993,0.540130,-0.368315,0.409924,-0.500000,0.409924,-0.500000,1.206693,-0.368315,1.206693,-0.367191,1.136132,-0.361622,1.072311,-0.356104,1.018903,-0.340663,0.974654,-0.316340,0.937892,-0.290911,0.913048,-0.264499,0.895711,-0.236836,0.884627,-0.207310,0.879091,-0.122362,0.873229,
-0.078789,0.873229,0.082167,0.874071,0.170603,0.876425,0.232572,0.882461,0.268752,0.890966,0.298562,0.904619,0.323088,0.923640,0.351079,0.958926,0.370618,1.001749,0.380851,1.052873,0.385126,1.138660,0.384124,1.190600,0.231016,1.190600,0.231937,1.126899,0.227507,1.081627,0.216940,1.055495,0.203928,1.043735,0.181785,1.035900,0.146305,1.032817,0.115054,1.035526,
0.095087,1.042474,0.082949,1.052967,0.072669,1.075935,0.068489,1.113454,0.066877,1.190600,-0.086667,1.190600,-0.083022,1.134228,-0.072976,1.092021,-0.059436,1.068403,-0.037352,1.049147,-0.005321,1.033660,-0.098426,1.033660,-0.146102,1.036591,-0.166089,1.041523,-0.185914,1.050879,-0.201183,1.063970,-0.208922,1.080701,-0.212878,1.136132,-0.215125,1.233585,-0.214002,1.283154,
-0.211237,1.311693,-0.088070,1.311693,-0.087386,1.240600,0.066242,1.240600,0.066242,1.302461,0.070798,1.332242,0.082949,1.353276,0.096041,1.363340,0.114962,1.369773,0.141860,1.372180,0.177511,1.369207,0.200055,1.361638,0.213570,1.350345,0.224971,1.325172,0.229690,1.282311,0.230293,1.240600,0.383159,1.240600,0.381755,1.313379,0.377674,1.379758,0.367014,1.428043,
0.351758,1.462193,0.333249,1.485570,0.306941,1.503526,0.267251,1.517920,0.209662,1.527920,0.128427,1.531769,0.066817,1.528892,0.015196,1.520851,-0.015067,1.510851,-0.037931,1.496176,-0.054560,1.476338,-0.071200,1.441613,-0.081378,1.403248,-0.086277,1.362239,-0.088070,1.311693,-0.211237,1.311693,-0.210967,1.314480,-0.202767,1.338585,-0.192706,1.351534,-0.177488,1.360387,
-0.155726,1.365476,-0.155726,1.520008,-0.216585,1.517146,-0.262524,1.509507,-0.296703,1.498173,-0.317972,1.485740,-0.334853,1.469121,-0.347494,1.447492,-0.355419,1.419624,-0.363199,1.364760,-0.366605,1.321366,-0.368315,1.206693,-0.500000,1.206693,-0.500000,5.312076,-0.499040,5.321829,-0.494330,5.345511,-0.486863,5.363537,-0.476236,5.379441,-0.462442,5.393235,-0.446538,5.403862,
-0.428514,5.411328,-0.404831,5.416039,-0.395076,5.417000,0.395076,5.417000,0.404831,5.416039,0.404831,5.416039,$1*%
%AMFreePoly33*
4,1,211,0.404831,5.416039,0.428513,5.411328,0.446537,5.403862,0.462441,5.393235,0.476235,5.379441,0.486862,5.363537,0.494328,5.345513,0.499039,5.321831,0.500000,5.312076,0.500000,0.054924,0.499039,0.050092,0.499039,0.050000,0.500000,0.050000,0.500000,0.000000,0.496194,-0.019134,0.485355,-0.035355,0.469134,-0.046194,0.450000,-0.050000,-0.450000,-0.050000,-0.469134,-0.046194,
-0.485355,-0.035355,-0.496194,-0.019134,-0.500000,0.000000,-0.500000,0.050000,-0.499040,0.050000,-0.499039,0.050096,-0.500000,0.054924,-0.500000,0.409924,-0.368315,0.409924,-0.368315,0.387247,-0.366654,0.303642,-0.356591,0.202013,-0.349010,0.167456,-0.336202,0.139770,-0.318805,0.117715,-0.296947,0.100347,-0.270789,0.087832,-0.233536,0.077691,-0.181896,0.070692,-0.111957,0.068033,
-0.111957,0.226816,-0.131692,0.225973,-0.161250,0.228448,-0.181409,0.234944,-0.194804,0.244877,-0.207027,0.266528,-0.211853,0.300748,-0.215125,0.381385,-0.211804,0.474624,-0.211804,0.482172,-0.209336,0.516831,-0.203427,0.537386,-0.195781,0.548520,-0.183351,0.556122,-0.162408,0.561496,-0.129054,0.563651,-0.101542,0.560830,-0.084612,0.553571,-0.074979,0.542219,-0.067997,0.517872,
-0.065063,0.476273,-0.065063,0.333464,0.078748,0.333464,0.078748,0.467883,0.077624,0.509026,0.080005,0.532882,0.086195,0.549643,0.095210,0.561123,0.108623,0.569334,0.129392,0.574923,0.160471,0.577096,0.187754,0.574551,0.206199,0.567833,0.218308,0.557349,0.229007,0.535611,0.233060,0.504849,0.231937,0.485542,0.231937,0.391460,0.230813,0.294007,0.227440,0.265371,
0.218894,0.246754,0.206584,0.235169,0.189050,0.227540,0.162189,0.222176,0.122516,0.220075,0.122516,0.066348,0.162914,0.064663,0.221575,0.067335,0.266390,0.074504,0.300156,0.085189,0.325167,0.098855,0.343067,0.115478,0.359104,0.140770,0.371991,0.174695,0.380738,0.219364,0.384002,0.277191,0.385126,0.384719,0.385126,0.517452,0.380546,0.589729,0.368809,0.640004,
0.352389,0.673644,0.332858,0.695102,0.305098,0.712658,0.271508,0.725560,0.230883,0.733753,0.181623,0.736685,0.117786,0.732867,0.076808,0.723293,0.051783,0.709794,0.034226,0.690082,0.018938,0.658301,0.007380,0.609849,-0.011573,0.661910,-0.029341,0.689384,-0.048894,0.704335,-0.072448,0.713772,-0.096277,0.719026,-0.156507,0.722397,-0.219087,0.718984,-0.265164,0.709934,
-0.298530,0.696502,-0.322055,0.679129,-0.339075,0.657214,-0.352546,0.628007,-0.361617,0.589689,-0.364993,0.540130,-0.368315,0.409924,-0.500000,0.409924,-0.500000,1.512461,-0.368315,1.512461,-0.368315,0.897555,0.072495,0.890008,0.072495,1.033660,0.053166,1.037754,0.040771,1.044469,0.033514,1.053810,0.024233,1.083229,0.022474,1.115982,0.022474,1.208379,0.024721,1.299933,
0.027905,1.328631,0.036090,1.348072,0.047973,1.360823,0.065083,1.369633,0.090962,1.375691,0.128915,1.378042,0.170942,1.375016,0.196976,1.367460,0.212153,1.356610,0.221439,1.341472,0.228152,1.317758,0.230813,1.282274,0.231937,1.210907,0.229690,1.129427,0.227617,1.095629,0.221239,1.060111,0.213879,1.044795,0.200681,1.034048,0.180527,1.027080,0.150653,1.024427,
0.150653,0.868173,0.222424,0.871803,0.273981,0.881305,0.310151,0.895149,0.334665,0.912686,0.352232,0.935210,0.366312,0.966081,0.375906,1.007538,0.379508,1.062199,0.385126,1.222667,0.385126,1.286488,0.384002,1.349502,0.378938,1.404011,0.365433,1.444774,0.345315,1.474817,0.319327,1.496488,0.286166,1.512634,0.242362,1.525259,0.185278,1.533697,0.111769,1.536824,
0.036481,1.532895,-0.016810,1.522672,-0.053583,1.507845,-0.075990,1.492008,-0.093630,1.472091,-0.106572,1.447340,-0.114351,1.416693,-0.123876,1.319680,-0.124462,1.248715,-0.124462,1.196618,-0.123339,1.144558,-0.119918,1.109797,-0.110443,1.081543,-0.092758,1.056542,-0.063890,1.033660,-0.218252,1.033660,-0.218252,1.512461,-0.368315,1.512461,-0.500000,1.512461,-0.500000,5.312076,
-0.499040,5.321829,-0.494330,5.345511,-0.486863,5.363537,-0.476236,5.379441,-0.462442,5.393235,-0.446538,5.403862,-0.428514,5.411328,-0.404831,5.416039,-0.395076,5.417000,0.395076,5.417000,0.404831,5.416039,0.404831,5.416039,$1*%
%AMFreePoly34*
4,1,168,0.404831,5.416039,0.428513,5.411328,0.446537,5.403862,0.462441,5.393235,0.476235,5.379441,0.486862,5.363537,0.494328,5.345513,0.499039,5.321831,0.500000,5.312076,0.500000,0.054924,0.499039,0.050092,0.499039,0.050000,0.500000,0.050000,0.500000,0.000000,0.496194,-0.019134,0.485355,-0.035355,0.469134,-0.046194,0.450000,-0.050000,-0.450000,-0.050000,-0.469134,-0.046194,
-0.485355,-0.035355,-0.496194,-0.019134,-0.500000,0.000000,-0.500000,0.050000,-0.499040,0.050000,-0.499039,0.050096,-0.500000,0.054924,-0.500000,0.409924,-0.368315,0.409924,-0.368315,0.387247,-0.366654,0.303642,-0.356591,0.202013,-0.349010,0.167456,-0.336202,0.139770,-0.318805,0.117715,-0.296947,0.100347,-0.270789,0.087832,-0.233536,0.077691,-0.181896,0.070692,-0.111957,0.068033,
-0.111957,0.226816,-0.131692,0.225973,-0.161250,0.228448,-0.181409,0.234944,-0.194804,0.244877,-0.207027,0.266528,-0.211853,0.300748,-0.215125,0.381385,-0.211804,0.474624,-0.211804,0.482172,-0.209336,0.516831,-0.203427,0.537386,-0.195781,0.548520,-0.183351,0.556122,-0.162408,0.561496,-0.129054,0.563651,-0.101542,0.560830,-0.084612,0.553571,-0.074979,0.542219,-0.067997,0.517872,
-0.065063,0.476273,-0.065063,0.333464,0.078748,0.333464,0.078748,0.467883,0.077624,0.509026,0.080005,0.532882,0.086195,0.549643,0.095210,0.561123,0.108623,0.569334,0.129392,0.574923,0.160471,0.577096,0.187754,0.574551,0.206199,0.567833,0.218308,0.557349,0.229007,0.535611,0.233060,0.504849,0.231937,0.485542,0.231937,0.391460,0.230813,0.294007,0.227440,0.265371,
0.218894,0.246754,0.206584,0.235169,0.189050,0.227540,0.162189,0.222176,0.122516,0.220075,0.122516,0.066348,0.162914,0.064663,0.221575,0.067335,0.266390,0.074504,0.300156,0.085189,0.325167,0.098855,0.343067,0.115478,0.359104,0.140770,0.371991,0.174695,0.380738,0.219364,0.384002,0.277191,0.385126,0.384719,0.385126,0.517452,0.380546,0.589729,0.368809,0.640004,
0.352389,0.673644,0.332858,0.695102,0.305098,0.712658,0.271508,0.725560,0.230883,0.733753,0.181623,0.736685,0.117786,0.732867,0.076808,0.723293,0.051783,0.709794,0.034226,0.690082,0.018938,0.658301,0.007380,0.609849,-0.011573,0.661910,-0.029341,0.689384,-0.048894,0.704335,-0.072448,0.713772,-0.096277,0.719026,-0.156507,0.722397,-0.219087,0.718984,-0.265164,0.709934,
-0.298530,0.696502,-0.322055,0.679129,-0.339075,0.657214,-0.352546,0.628007,-0.361617,0.589689,-0.364993,0.540130,-0.368315,0.409924,-0.500000,0.409924,-0.500000,1.190600,-0.308960,1.190600,-0.028328,0.856413,0.231937,0.856413,0.231937,1.190600,0.081874,1.190600,0.081874,0.973173,-0.104460,1.190600,-0.308960,1.190600,-0.500000,1.190600,-0.500000,1.458715,-0.368315,1.458715,
-0.368315,1.261282,-0.350947,1.240600,-0.147309,1.240600,-0.200324,1.302461,0.081874,1.302461,0.081874,1.240600,0.231937,1.240600,0.231937,1.302461,0.385126,1.302461,0.385126,1.458715,0.231937,1.458715,0.231937,1.549427,0.081874,1.549427,0.081874,1.458715,-0.368315,1.458715,-0.500000,1.458715,-0.500000,5.312076,-0.499040,5.321829,-0.494330,5.345511,-0.486863,5.363537,
-0.476236,5.379441,-0.462442,5.393235,-0.446538,5.403862,-0.428514,5.411328,-0.404831,5.416039,-0.395076,5.417000,0.395076,5.417000,0.404831,5.416039,0.404831,5.416039,$1*%
%AMFreePoly35*
4,1,241,0.404831,5.416039,0.428513,5.411328,0.446537,5.403862,0.462441,5.393235,0.476235,5.379441,0.486862,5.363537,0.494328,5.345513,0.499039,5.321831,0.500000,5.312076,0.500000,0.054924,0.499039,0.050092,0.499039,0.050000,0.500000,0.050000,0.500000,0.000000,0.496194,-0.019134,0.485355,-0.035355,0.469134,-0.046194,0.450000,-0.050000,-0.450000,-0.050000,-0.469134,-0.046194,
-0.485355,-0.035355,-0.496194,-0.019134,-0.500000,0.000000,-0.500000,0.050000,-0.499040,0.050000,-0.499039,0.050096,-0.500000,0.054924,-0.500000,0.409924,-0.368315,0.409924,-0.368315,0.387247,-0.366654,0.303642,-0.356591,0.202013,-0.349010,0.167456,-0.336202,0.139770,-0.318805,0.117715,-0.296947,0.100347,-0.270789,0.087832,-0.233536,0.077691,-0.181896,0.070692,-0.111957,0.068033,
-0.111957,0.226816,-0.131692,0.225973,-0.161250,0.228448,-0.181409,0.234944,-0.194804,0.244877,-0.207027,0.266528,-0.211853,0.300748,-0.215125,0.381385,-0.211804,0.474624,-0.211804,0.482172,-0.209336,0.516831,-0.203427,0.537386,-0.195781,0.548520,-0.183351,0.556122,-0.162408,0.561496,-0.129054,0.563651,-0.101542,0.560830,-0.084612,0.553571,-0.074979,0.542219,-0.067997,0.517872,
-0.065063,0.476273,-0.065063,0.333464,0.078748,0.333464,0.078748,0.467883,0.077624,0.509026,0.080005,0.532882,0.086195,0.549643,0.095210,0.561123,0.108623,0.569334,0.129392,0.574923,0.160471,0.577096,0.187754,0.574551,0.206199,0.567833,0.218308,0.557349,0.229007,0.535611,0.233060,0.504849,0.231937,0.485542,0.231937,0.391460,0.230813,0.294007,0.227440,0.265371,
0.218894,0.246754,0.206584,0.235169,0.189050,0.227540,0.162189,0.222176,0.122516,0.220075,0.122516,0.066348,0.162914,0.064663,0.221575,0.067335,0.266390,0.074504,0.300156,0.085189,0.325167,0.098855,0.343067,0.115478,0.359104,0.140770,0.371991,0.174695,0.380738,0.219364,0.384002,0.277191,0.385126,0.384719,0.385126,0.517452,0.380546,0.589729,0.368809,0.640004,
0.352389,0.673644,0.332858,0.695102,0.305098,0.712658,0.271508,0.725560,0.230883,0.733753,0.181623,0.736685,0.117786,0.732867,0.076808,0.723293,0.051783,0.709794,0.034226,0.690082,0.018938,0.658301,0.007380,0.609849,-0.011573,0.661910,-0.029341,0.689384,-0.048894,0.704335,-0.072448,0.713772,-0.096277,0.719026,-0.156507,0.722397,-0.219087,0.718984,-0.265164,0.709934,
-0.298530,0.696502,-0.322055,0.679129,-0.339075,0.657214,-0.352546,0.628007,-0.361617,0.589689,-0.364993,0.540130,-0.368315,0.409924,-0.500000,0.409924,-0.500000,1.210064,-0.368315,1.210064,-0.368315,1.187386,-0.366654,1.103782,-0.356591,1.002152,-0.349010,0.967596,-0.336202,0.939910,-0.318805,0.917854,-0.296947,0.900486,-0.270789,0.887971,-0.233536,0.877830,-0.181896,0.870831,
-0.111957,0.868173,-0.111957,1.026955,-0.131692,1.026113,-0.161250,1.028587,-0.181409,1.035084,-0.194804,1.045017,-0.207027,1.066667,-0.211853,1.100887,-0.215125,1.181524,-0.211804,1.274764,-0.211804,1.282311,-0.209336,1.316971,-0.203427,1.337526,-0.195781,1.348660,-0.183351,1.356262,-0.162408,1.361636,-0.129054,1.363790,-0.101542,1.360969,-0.084612,1.353710,-0.074979,1.342358,
-0.067997,1.318011,-0.065063,1.276413,-0.065063,1.133604,0.078748,1.133604,0.078748,1.268023,0.077624,1.309166,0.080005,1.333022,0.086195,1.349783,0.095210,1.361263,0.108623,1.369474,0.129392,1.375063,0.160471,1.377236,0.187754,1.374691,0.206199,1.367972,0.218308,1.357489,0.229007,1.335751,0.233060,1.304989,0.231937,1.285682,0.231937,1.191599,0.230813,1.094146,
0.227440,1.065510,0.218894,1.046893,0.206584,1.035308,0.189050,1.027680,0.162189,1.022315,0.122516,1.020214,0.122516,0.866488,0.162914,0.864802,0.221575,0.867474,0.266390,0.874644,0.300156,0.885329,0.325167,0.898995,0.343067,0.915617,0.359104,0.940910,0.371991,0.974834,0.380738,1.019504,0.384002,1.077330,0.385126,1.184858,0.385126,1.317592,0.380546,1.389869,
0.368809,1.440144,0.352389,1.473784,0.332858,1.495242,0.305098,1.512797,0.271508,1.525700,0.230883,1.533893,0.181623,1.536824,0.117786,1.533006,0.076808,1.523433,0.051783,1.509933,0.034226,1.490221,0.018938,1.458440,0.007380,1.409989,-0.011573,1.462049,-0.029341,1.489524,-0.048894,1.504474,-0.072448,1.513912,-0.096277,1.519166,-0.156507,1.522536,-0.219087,1.519124,
-0.265164,1.510074,-0.298530,1.496642,-0.322055,1.479269,-0.339075,1.457354,-0.352546,1.428147,-0.361617,1.389828,-0.364993,1.340270,-0.368315,1.210064,-0.500000,1.210064,-0.500000,5.312076,-0.499040,5.321829,-0.494330,5.345511,-0.486863,5.363537,-0.476236,5.379441,-0.462442,5.393235,-0.446538,5.403862,-0.428514,5.411328,-0.404831,5.416039,-0.395076,5.417000,0.395076,5.417000,
0.404831,5.416039,0.404831,5.416039,$1*%
%AMFreePoly36*
4,1,213,0.404831,5.416039,0.428513,5.411328,0.446537,5.403862,0.462441,5.393235,0.476235,5.379441,0.486862,5.363537,0.494328,5.345513,0.499039,5.321831,0.500000,5.312076,0.500000,0.054924,0.499039,0.050092,0.499039,0.050000,0.500000,0.050000,0.500000,0.000000,0.496194,-0.019134,0.485355,-0.035355,0.469134,-0.046194,0.450000,-0.050000,-0.450000,-0.050000,-0.469134,-0.046194,
-0.485355,-0.035355,-0.496194,-0.019134,-0.500000,0.000000,-0.500000,0.050000,-0.499040,0.050000,-0.499039,0.050096,-0.500000,0.054924,-0.500000,0.409924,-0.368315,0.409924,-0.368315,0.387247,-0.366654,0.303642,-0.356591,0.202013,-0.349010,0.167456,-0.336202,0.139770,-0.318805,0.117715,-0.296947,0.100347,-0.270789,0.087832,-0.233536,0.077691,-0.181896,0.070692,-0.111957,0.068033,
-0.111957,0.226816,-0.131692,0.225973,-0.161250,0.228448,-0.181409,0.234944,-0.194804,0.244877,-0.207027,0.266528,-0.211853,0.300748,-0.215125,0.381385,-0.211804,0.474624,-0.211804,0.482172,-0.209336,0.516831,-0.203427,0.537386,-0.195781,0.548520,-0.183351,0.556122,-0.162408,0.561496,-0.129054,0.563651,-0.101542,0.560830,-0.084612,0.553571,-0.074979,0.542219,-0.067997,0.517872,
-0.065063,0.476273,-0.065063,0.333464,0.078748,0.333464,0.078748,0.467883,0.077624,0.509026,0.080005,0.532882,0.086195,0.549643,0.095210,0.561123,0.108623,0.569334,0.129392,0.574923,0.160471,0.577096,0.187754,0.574551,0.206199,0.567833,0.218308,0.557349,0.229007,0.535611,0.233060,0.504849,0.231937,0.485542,0.231937,0.391460,0.230813,0.294007,0.227440,0.265371,
0.218894,0.246754,0.206584,0.235169,0.189050,0.227540,0.162189,0.222176,0.122516,0.220075,0.122516,0.066348,0.162914,0.064663,0.221575,0.067335,0.266390,0.074504,0.300156,0.085189,0.325167,0.098855,0.343067,0.115478,0.359104,0.140770,0.371991,0.174695,0.380738,0.219364,0.384002,0.277191,0.385126,0.384719,0.385126,0.517452,0.380546,0.589729,0.368809,0.640004,
0.352389,0.673644,0.332858,0.695102,0.305098,0.712658,0.271508,0.725560,0.230883,0.733753,0.181623,0.736685,0.117786,0.732867,0.076808,0.723293,0.051783,0.709794,0.034226,0.690082,0.018938,0.658301,0.007380,0.609849,-0.011573,0.661910,-0.029341,0.689384,-0.048894,0.704335,-0.072448,0.713772,-0.096277,0.719026,-0.156507,0.722397,-0.219087,0.718984,-0.265164,0.709934,
-0.298530,0.696502,-0.322055,0.679129,-0.339075,0.657214,-0.352546,0.628007,-0.361617,0.589689,-0.364993,0.540130,-0.368315,0.409924,-0.500000,0.409924,-0.500000,1.267180,-0.368315,1.267180,-0.363820,1.079016,-0.360775,1.016632,-0.352823,0.971114,-0.341513,0.938901,-0.328014,0.916899,-0.307471,0.899788,-0.273859,0.885981,-0.222173,0.876216,-0.145760,0.872386,-0.093199,0.873229,
-0.093199,1.027761,-0.118943,1.027761,-0.152453,1.029849,-0.166784,1.033366,-0.182690,1.040364,-0.195929,1.050598,-0.205600,1.065973,-0.210932,1.084069,-0.212878,1.106713,-0.215125,1.205851,-0.215125,1.293229,-0.212864,1.324355,-0.207334,1.343727,-0.199982,1.354961,-0.188174,1.362965,-0.169536,1.368383,-0.141218,1.370495,-0.125537,1.371338,-0.099039,1.369076,-0.081204,1.363161,
-0.069557,1.354118,-0.058181,1.333801,-0.049431,1.297405,-0.017826,1.003435,-0.007687,0.965989,0.006379,0.937637,0.023595,0.916572,0.043674,0.901366,0.077863,0.886838,0.126209,0.876979,0.193249,0.873229,0.385126,0.873229,0.385126,1.530083,0.235063,1.530083,0.235063,1.026955,0.201260,1.026955,0.171394,1.029461,0.153267,1.035742,0.143032,1.045017,0.134690,1.065211,
0.131357,1.096674,0.119683,1.214277,0.106884,1.352836,0.102438,1.407326,0.090782,1.446821,0.073859,1.474776,0.052662,1.493960,0.024794,1.508014,-0.014775,1.519337,-0.069510,1.527128,-0.143562,1.530083,-0.208161,1.527103,-0.256444,1.519184,-0.291916,1.507504,-0.317414,1.492677,-0.336687,1.473202,-0.351892,1.446276,-0.362196,1.409813,-0.366067,1.361263,-0.368315,1.267180,
-0.500000,1.267180,-0.500000,5.312076,-0.499040,5.321829,-0.494330,5.345511,-0.486863,5.363537,-0.476236,5.379441,-0.462442,5.393235,-0.446538,5.403862,-0.428514,5.411328,-0.404831,5.416039,-0.395076,5.417000,0.395076,5.417000,0.404831,5.416039,0.404831,5.416039,$1*%
%AMFreePoly37*
4,1,150,0.404831,5.416039,0.428513,5.411328,0.446537,5.403862,0.462441,5.393235,0.476235,5.379441,0.486862,5.363537,0.494328,5.345513,0.499039,5.321831,0.500000,5.312076,0.500000,0.054924,0.499039,0.050092,0.499039,0.050000,0.500000,0.050000,0.500000,0.000000,0.496194,-0.019134,0.485355,-0.035355,0.469134,-0.046194,0.450000,-0.050000,-0.450000,-0.050000,-0.469134,-0.046194,
-0.485355,-0.035355,-0.496194,-0.019134,-0.500000,0.000000,-0.500000,0.050000,-0.499040,0.050000,-0.499039,0.050096,-0.500000,0.054924,-0.500000,0.409924,-0.368315,0.409924,-0.368315,0.387247,-0.366654,0.303642,-0.356591,0.202013,-0.349010,0.167456,-0.336202,0.139770,-0.318805,0.117715,-0.296947,0.100347,-0.270789,0.087832,-0.233536,0.077691,-0.181896,0.070692,-0.111957,0.068033,
-0.111957,0.226816,-0.131692,0.225973,-0.161250,0.228448,-0.181409,0.234944,-0.194804,0.244877,-0.207027,0.266528,-0.211853,0.300748,-0.215125,0.381385,-0.211804,0.474624,-0.211804,0.482172,-0.209336,0.516831,-0.203427,0.537386,-0.195781,0.548520,-0.183351,0.556122,-0.162408,0.561496,-0.129054,0.563651,-0.101542,0.560830,-0.084612,0.553571,-0.074979,0.542219,-0.067997,0.517872,
-0.065063,0.476273,-0.065063,0.333464,0.078748,0.333464,0.078748,0.467883,0.077624,0.509026,0.080005,0.532882,0.086195,0.549643,0.095210,0.561123,0.108623,0.569334,0.129392,0.574923,0.160471,0.577096,0.187754,0.574551,0.206199,0.567833,0.218308,0.557349,0.229007,0.535611,0.233060,0.504849,0.231937,0.485542,0.231937,0.391460,0.230813,0.294007,0.227440,0.265371,
0.218894,0.246754,0.206584,0.235169,0.189050,0.227540,0.162189,0.222176,0.122516,0.220075,0.122516,0.066348,0.162914,0.064663,0.221575,0.067335,0.266390,0.074504,0.300156,0.085189,0.325167,0.098855,0.343067,0.115478,0.359104,0.140770,0.371991,0.174695,0.380738,0.219364,0.384002,0.277191,0.385126,0.384719,0.385126,0.517452,0.380546,0.589729,0.368809,0.640004,
0.352389,0.673644,0.332858,0.695102,0.305098,0.712658,0.271508,0.725560,0.230883,0.733753,0.181623,0.736685,0.117786,0.732867,0.076808,0.723293,0.051783,0.709794,0.034226,0.690082,0.018938,0.658301,0.007380,0.609849,-0.011573,0.661910,-0.029341,0.689384,-0.048894,0.704335,-0.072448,0.713772,-0.096277,0.719026,-0.156507,0.722397,-0.219087,0.718984,-0.265164,0.709934,
-0.298530,0.696502,-0.322055,0.679129,-0.339075,0.657214,-0.352546,0.628007,-0.361617,0.589689,-0.364993,0.540130,-0.368315,0.409924,-0.500000,0.409924,-0.500000,1.152105,-0.368315,1.152105,-0.155726,0.912686,-0.003416,0.988304,-0.192460,1.191563,0.385126,1.191563,0.385126,1.358735,-0.368315,1.358735,-0.368315,1.152105,-0.500000,1.152105,-0.500000,5.312076,-0.499040,5.321829,
-0.494330,5.345511,-0.486863,5.363537,-0.476236,5.379441,-0.462442,5.393235,-0.446538,5.403862,-0.428514,5.411328,-0.404831,5.416039,-0.395076,5.417000,0.395076,5.417000,0.404831,5.416039,0.404831,5.416039,$1*%
G04 Aperture macros list end*
%ADD10FreePoly0,270.000000*%
%ADD11RoundRect,0.015000X-0.035000X0.035000X-0.035000X-0.035000X0.035000X-0.035000X0.035000X0.035000X0*%
%ADD12C,1.000000*%
%ADD13FreePoly1,90.000000*%
%ADD14FreePoly1,270.000000*%
%ADD15FreePoly2,0.000000*%
%ADD16FreePoly3,180.000000*%
%ADD17FreePoly4,180.000000*%
%ADD18FreePoly5,180.000000*%
%ADD19FreePoly6,180.000000*%
%ADD20FreePoly7,180.000000*%
%ADD21FreePoly8,180.000000*%
%ADD22FreePoly9,180.000000*%
%ADD23FreePoly10,180.000000*%
%ADD24FreePoly11,180.000000*%
%ADD25FreePoly12,180.000000*%
%ADD26FreePoly13,180.000000*%
%ADD27FreePoly14,180.000000*%
%ADD28FreePoly15,180.000000*%
%ADD29FreePoly16,180.000000*%
%ADD30FreePoly17,180.000000*%
%ADD31FreePoly18,180.000000*%
%ADD32FreePoly19,180.000000*%
%ADD33FreePoly20,180.000000*%
%ADD34FreePoly21,180.000000*%
%ADD35FreePoly22,180.000000*%
%ADD36FreePoly23,180.000000*%
%ADD37FreePoly24,180.000000*%
%ADD38FreePoly25,180.000000*%
%ADD39FreePoly26,180.000000*%
%ADD40FreePoly27,180.000000*%
%ADD41FreePoly28,180.000000*%
%ADD42FreePoly29,180.000000*%
%ADD43FreePoly30,180.000000*%
%ADD44FreePoly31,180.000000*%
%ADD45FreePoly32,180.000000*%
%ADD46FreePoly33,180.000000*%
%ADD47FreePoly34,180.000000*%
%ADD48FreePoly35,180.000000*%
%ADD49FreePoly36,180.000000*%
%ADD50FreePoly37,180.000000*%
%ADD51FreePoly0,90.000000*%
%ADD52RoundRect,0.015000X0.035000X-0.035000X0.035000X0.035000X-0.035000X0.035000X-0.035000X-0.035000X0*%
G04 APERTURE END LIST*
D10*
%TO.C,TP2*%
X188769930Y-44002584D03*
D11*
X188769930Y-44002584D03*
%TD*%
D12*
%TO.C,TP4*%
X121282253Y-52898000D03*
D13*
X121663376Y-52898426D03*
%TD*%
D12*
%TO.C,TP9*%
X189100507Y-52898000D03*
D14*
X188719384Y-52897574D03*
%TD*%
D15*
%TO.C,U3*%
X176791253Y-28882000D03*
X175521253Y-28882000D03*
X155201253Y-28882000D03*
X133611253Y-28882000D03*
X134881253Y-28882000D03*
X174251253Y-28882000D03*
X172981253Y-28882000D03*
X171711253Y-28882000D03*
X170441253Y-28882000D03*
X169171253Y-28882000D03*
X167901253Y-28882000D03*
X166631253Y-28882000D03*
X165361253Y-28882000D03*
X164091253Y-28882000D03*
X162821253Y-28882000D03*
X161551253Y-28882000D03*
X160281253Y-28882000D03*
X159011253Y-28882000D03*
X157741253Y-28882000D03*
X156471253Y-28882000D03*
X153931253Y-28882000D03*
X152661253Y-28882000D03*
X151391253Y-28882000D03*
X150121253Y-28882000D03*
X148851253Y-28882000D03*
X147581253Y-28882000D03*
X146311253Y-28882000D03*
X145041253Y-28882000D03*
X143771253Y-28882000D03*
X142501253Y-28882000D03*
X141231253Y-28882000D03*
X139961253Y-28882000D03*
X138691253Y-28882000D03*
X137421253Y-28882000D03*
X136151253Y-28882000D03*
%TD*%
D16*
%TO.C,U4*%
X176796653Y-70700000D03*
D17*
X175536653Y-70719999D03*
D18*
X155191252Y-68630799D03*
D19*
X133575852Y-70721000D03*
D20*
X134845852Y-70671000D03*
D21*
X174241252Y-69977001D03*
D22*
X172971252Y-69976999D03*
D23*
X171701252Y-69977001D03*
D24*
X170431252Y-69977001D03*
D25*
X169161252Y-69977000D03*
D26*
X167891252Y-69977001D03*
D27*
X166621252Y-69977001D03*
D28*
X165351252Y-69977001D03*
D29*
X164081252Y-69977001D03*
D30*
X162811252Y-69977000D03*
D31*
X161541252Y-69977001D03*
D32*
X160271252Y-69977001D03*
D33*
X159001252Y-69977000D03*
D34*
X157731252Y-69977001D03*
D35*
X156461252Y-69977000D03*
D36*
X153921252Y-69977001D03*
D37*
X152651252Y-69977000D03*
D38*
X151381252Y-69977001D03*
D39*
X150111252Y-69977001D03*
D40*
X148841252Y-69977001D03*
D41*
X147571252Y-69977001D03*
D42*
X146301252Y-69977000D03*
D43*
X145031252Y-69977001D03*
D44*
X143761252Y-69977001D03*
D45*
X142491252Y-69976999D03*
D46*
X141221252Y-69977001D03*
D47*
X139951252Y-69977000D03*
D48*
X138681252Y-69977001D03*
D49*
X137411252Y-69977001D03*
D50*
X136141252Y-69977000D03*
%TD*%
D51*
%TO.C,TP3*%
X121612576Y-44008426D03*
D52*
X121612576Y-44008426D03*
%TD*%
M02*
