M48
; DRILL file KiCad 10.0.1 date 2026-07-05T21:53:46
; FORMAT={-:-/ absolute / metric / decimal}
; #@! TF.CreationDate,2026-07-05T21:53:46-07:00
; #@! TF.GenerationSoftware,Kicad,Pcbnew,10.0.1
; #@! TF.FileFunction,Plated,1,2,PTH
FMAT,2
METRIC
; #@! TA.AperFunction,Plated,PTH,ComponentDrill
T1C0.800
; #@! TA.AperFunction,Plated,PTH,ComponentDrill
T2C1.200
%
G90
G05
T1
X92.22Y-84.311
X93.744Y-84.311
X113.937Y-84.311
X134.13Y-84.311
X135.654Y-84.311
X170.96Y-84.311
X172.484Y-84.311
X192.677Y-84.311
X212.87Y-84.311
X214.394Y-84.311
T2
X77.107Y-32.495
X77.107Y-35.035
X77.107Y-35.035
X77.107Y-42.651
X77.107Y-45.191
X77.107Y-47.731
X77.107Y-50.271
X77.107Y-52.811
X77.107Y-55.351
X77.107Y-57.896
X77.107Y-60.436
X77.107Y-62.976
X77.107Y-65.516
X77.107Y-68.056
X77.107Y-70.596
X77.107Y-78.215
X77.107Y-80.755
X77.107Y-80.755
X79.647Y-32.495
X79.647Y-32.495
X79.647Y-35.035
X79.647Y-35.035
X79.647Y-42.651
X79.647Y-45.191
X79.647Y-47.731
X79.647Y-50.271
X79.647Y-52.811
X79.647Y-55.351
X79.647Y-57.896
X79.647Y-60.436
X79.647Y-62.976
X79.647Y-65.516
X79.647Y-68.056
X79.647Y-70.596
X79.647Y-78.215
X79.647Y-78.215
X79.647Y-80.755
X79.647Y-80.755
X82.187Y-32.495
X82.187Y-32.495
X82.187Y-35.035
X82.187Y-35.035
X82.187Y-42.651
X82.187Y-45.191
X82.187Y-47.731
X82.187Y-50.271
X82.187Y-52.811
X82.187Y-55.351
X82.187Y-57.896
X82.187Y-60.436
X82.187Y-62.976
X82.187Y-65.516
X82.187Y-68.056
X82.187Y-70.596
X82.187Y-78.215
X82.187Y-78.215
X82.187Y-80.755
X82.187Y-80.755
X84.727Y-32.495
X84.727Y-35.035
X84.727Y-35.035
X84.727Y-35.035
X84.727Y-42.651
X84.727Y-45.191
X84.727Y-47.731
X84.727Y-50.271
X84.727Y-52.811
X84.727Y-55.351
X84.727Y-57.896
X84.727Y-60.436
X84.727Y-62.976
X84.727Y-65.516
X84.727Y-68.056
X84.727Y-70.596
X84.727Y-78.215
X84.727Y-80.755
X84.727Y-80.755
X84.727Y-80.755
X84.727Y-32.495
X84.727Y-32.495
X84.727Y-78.215
X84.727Y-78.215
X87.267Y-32.495
X87.267Y-32.495
X87.267Y-32.495
X87.267Y-35.035
X87.267Y-35.035
X87.267Y-35.035
X87.267Y-42.651
X87.267Y-45.191
X87.267Y-47.731
X87.267Y-50.271
X87.267Y-52.811
X87.267Y-55.351
X87.267Y-57.896
X87.267Y-60.436
X87.267Y-62.976
X87.267Y-65.516
X87.267Y-68.056
X87.267Y-70.596
X87.267Y-78.215
X87.267Y-78.215
X87.267Y-78.215
X87.267Y-80.755
X87.267Y-80.755
X87.267Y-80.755
X89.807Y-32.495
X89.807Y-32.495
X89.807Y-32.495
X89.807Y-35.035
X89.807Y-35.035
X89.807Y-35.035
X89.807Y-42.651
X89.807Y-45.191
X89.807Y-47.731
X89.807Y-50.271
X89.807Y-52.811
X89.807Y-55.351
X89.807Y-57.896
X89.807Y-60.436
X89.807Y-62.976
X89.807Y-65.516
X89.807Y-68.056
X89.807Y-70.596
X89.807Y-78.215
X89.807Y-78.215
X89.807Y-78.215
X89.807Y-80.755
X89.807Y-80.755
X89.807Y-80.755
X92.347Y-32.495
X92.347Y-35.035
X92.347Y-35.035
X92.347Y-35.035
X92.347Y-42.651
X92.347Y-45.191
X92.347Y-47.731
X92.347Y-50.271
X92.347Y-52.811
X92.347Y-55.351
X92.347Y-57.896
X92.347Y-60.436
X92.347Y-62.976
X92.347Y-65.516
X92.347Y-68.056
X92.347Y-70.596
X92.347Y-78.215
X92.347Y-80.755
X92.347Y-80.755
X92.347Y-80.755
X92.347Y-32.495
X92.347Y-78.215
X94.887Y-32.495
X94.887Y-32.495
X94.887Y-32.495
X94.887Y-35.035
X94.887Y-35.035
X94.887Y-35.035
X94.887Y-42.651
X94.887Y-45.191
X94.887Y-47.731
X94.887Y-50.271
X94.887Y-52.811
X94.887Y-55.351
X94.887Y-57.896
X94.887Y-60.436
X94.887Y-62.976
X94.887Y-65.516
X94.887Y-68.056
X94.887Y-70.596
X94.887Y-78.215
X94.887Y-78.215
X94.887Y-78.215
X94.887Y-80.755
X94.887Y-80.755
X94.887Y-80.755
X97.427Y-32.495
X97.427Y-32.495
X97.427Y-32.495
X97.427Y-35.035
X97.427Y-35.035
X97.427Y-35.035
X97.427Y-42.651
X97.427Y-45.191
X97.427Y-47.731
X97.427Y-50.271
X97.427Y-52.811
X97.427Y-55.351
X97.427Y-57.896
X97.427Y-60.436
X97.427Y-62.976
X97.427Y-65.516
X97.427Y-68.056
X97.427Y-70.596
X97.427Y-78.215
X97.427Y-78.215
X97.427Y-78.215
X97.427Y-80.755
X97.427Y-80.755
X97.427Y-80.755
X99.967Y-32.495
X99.967Y-35.035
X99.967Y-35.035
X99.967Y-35.035
X99.967Y-42.651
X99.967Y-45.191
X99.967Y-47.731
X99.967Y-50.271
X99.967Y-52.811
X99.967Y-55.351
X99.967Y-57.896
X99.967Y-60.436
X99.967Y-62.976
X99.967Y-65.516
X99.967Y-68.056
X99.967Y-70.596
X99.967Y-78.215
X99.967Y-80.755
X99.967Y-80.755
X99.967Y-80.755
X99.967Y-32.495
X99.967Y-32.495
X99.967Y-78.215
X99.967Y-78.215
X102.507Y-32.495
X102.507Y-32.495
X102.507Y-32.495
X102.507Y-35.035
X102.507Y-35.035
X102.507Y-35.035
X102.507Y-42.651
X102.507Y-45.191
X102.507Y-47.731
X102.507Y-50.271
X102.507Y-52.811
X102.507Y-55.351
X102.507Y-57.896
X102.507Y-60.436
X102.507Y-62.976
X102.507Y-65.516
X102.507Y-68.056
X102.507Y-70.596
X102.507Y-78.215
X102.507Y-78.215
X102.507Y-78.215
X102.507Y-80.755
X102.507Y-80.755
X102.507Y-80.755
X105.047Y-32.495
X105.047Y-32.495
X105.047Y-32.495
X105.047Y-35.035
X105.047Y-35.035
X105.047Y-35.035
X105.047Y-42.651
X105.047Y-45.191
X105.047Y-47.731
X105.047Y-50.271
X105.047Y-52.811
X105.047Y-55.351
X105.047Y-57.896
X105.047Y-60.436
X105.047Y-62.976
X105.047Y-65.516
X105.047Y-68.056
X105.047Y-70.596
X105.047Y-78.215
X105.047Y-78.215
X105.047Y-78.215
X105.047Y-80.755
X105.047Y-80.755
X105.047Y-80.755
X107.587Y-32.495
X107.587Y-32.495
X107.587Y-35.035
X107.587Y-35.035
X107.587Y-35.035
X107.587Y-42.651
X107.587Y-45.191
X107.587Y-47.731
X107.587Y-50.271
X107.587Y-52.811
X107.587Y-55.351
X107.587Y-57.896
X107.587Y-60.436
X107.587Y-62.976
X107.587Y-65.516
X107.587Y-68.056
X107.587Y-70.596
X107.587Y-78.215
X107.587Y-78.215
X107.587Y-80.755
X107.587Y-80.755
X107.587Y-80.755
X107.587Y-32.495
X107.587Y-78.215
X110.127Y-32.495
X110.127Y-32.495
X110.127Y-32.495
X110.127Y-35.035
X110.127Y-35.035
X110.127Y-35.035
X110.127Y-42.651
X110.127Y-45.191
X110.127Y-47.731
X110.127Y-50.271
X110.127Y-52.811
X110.127Y-55.351
X110.127Y-57.896
X110.127Y-60.436
X110.127Y-62.976
X110.127Y-65.516
X110.127Y-68.056
X110.127Y-70.596
X110.127Y-78.215
X110.127Y-78.215
X110.127Y-78.215
X110.127Y-80.755
X110.127Y-80.755
X110.127Y-80.755
X112.667Y-32.495
X112.667Y-32.495
X112.667Y-32.495
X112.667Y-35.035
X112.667Y-35.035
X112.667Y-35.035
X112.667Y-42.651
X112.667Y-45.191
X112.667Y-47.731
X112.667Y-50.271
X112.667Y-52.811
X112.667Y-55.351
X112.667Y-57.896
X112.667Y-60.436
X112.667Y-62.976
X112.667Y-65.516
X112.667Y-68.056
X112.667Y-70.596
X112.667Y-78.215
X112.667Y-78.215
X112.667Y-78.215
X112.667Y-80.755
X112.667Y-80.755
X112.667Y-80.755
X115.207Y-32.495
X115.207Y-35.035
X115.207Y-35.035
X115.207Y-35.035
X115.207Y-42.651
X115.207Y-45.191
X115.207Y-47.731
X115.207Y-50.271
X115.207Y-52.811
X115.207Y-55.351
X115.207Y-57.896
X115.207Y-60.436
X115.207Y-62.976
X115.207Y-65.516
X115.207Y-68.056
X115.207Y-70.596
X115.207Y-78.215
X115.207Y-80.755
X115.207Y-80.755
X115.207Y-80.755
X115.207Y-32.495
X115.207Y-32.495
X115.207Y-78.215
X115.207Y-78.215
X117.747Y-32.495
X117.747Y-32.495
X117.747Y-32.495
X117.747Y-35.035
X117.747Y-35.035
X117.747Y-35.035
X117.747Y-42.651
X117.747Y-45.191
X117.747Y-47.731
X117.747Y-50.271
X117.747Y-52.811
X117.747Y-55.351
X117.747Y-57.896
X117.747Y-60.436
X117.747Y-62.976
X117.747Y-65.516
X117.747Y-68.056
X117.747Y-70.596
X117.747Y-78.215
X117.747Y-78.215
X117.747Y-78.215
X117.747Y-80.755
X117.747Y-80.755
X117.747Y-80.755
X120.287Y-32.495
X120.287Y-32.495
X120.287Y-32.495
X120.287Y-35.035
X120.287Y-35.035
X120.287Y-35.035
X120.287Y-42.651
X120.287Y-45.191
X120.287Y-47.731
X120.287Y-50.271
X120.287Y-52.811
X120.287Y-55.351
X120.287Y-57.896
X120.287Y-60.436
X120.287Y-62.976
X120.287Y-65.516
X120.287Y-68.056
X120.287Y-70.596
X120.287Y-78.215
X120.287Y-78.215
X120.287Y-78.215
X120.287Y-80.755
X120.287Y-80.755
X120.287Y-80.755
X122.827Y-32.495
X122.827Y-32.495
X122.827Y-35.035
X122.827Y-35.035
X122.827Y-35.035
X122.827Y-42.651
X122.827Y-45.191
X122.827Y-47.731
X122.827Y-50.271
X122.827Y-52.811
X122.827Y-55.351
X122.827Y-57.896
X122.827Y-60.436
X122.827Y-62.976
X122.827Y-65.516
X122.827Y-68.056
X122.827Y-70.596
X122.827Y-78.215
X122.827Y-78.215
X122.827Y-80.755
X122.827Y-80.755
X122.827Y-80.755
X122.827Y-32.495
X122.827Y-78.215
X125.367Y-32.495
X125.367Y-32.495
X125.367Y-32.495
X125.367Y-35.035
X125.367Y-35.035
X125.367Y-35.035
X125.367Y-42.651
X125.367Y-45.191
X125.367Y-47.731
X125.367Y-50.271
X125.367Y-52.811
X125.367Y-55.351
X125.367Y-57.896
X125.367Y-60.436
X125.367Y-62.976
X125.367Y-65.516
X125.367Y-68.056
X125.367Y-70.596
X125.367Y-78.215
X125.367Y-78.215
X125.367Y-78.215
X125.367Y-80.755
X125.367Y-80.755
X125.367Y-80.755
X127.907Y-32.495
X127.907Y-32.495
X127.907Y-32.495
X127.907Y-35.035
X127.907Y-35.035
X127.907Y-35.035
X127.907Y-42.651
X127.907Y-45.191
X127.907Y-47.731
X127.907Y-50.271
X127.907Y-52.811
X127.907Y-55.351
X127.907Y-57.896
X127.907Y-60.436
X127.907Y-62.976
X127.907Y-65.516
X127.907Y-68.056
X127.907Y-70.596
X127.907Y-78.215
X127.907Y-78.215
X127.907Y-78.215
X127.907Y-80.755
X127.907Y-80.755
X127.907Y-80.755
X130.447Y-32.495
X130.447Y-35.035
X130.447Y-35.035
X130.447Y-35.035
X130.447Y-42.651
X130.447Y-45.191
X130.447Y-47.731
X130.447Y-50.271
X130.447Y-52.811
X130.447Y-55.351
X130.447Y-57.896
X130.447Y-60.436
X130.447Y-62.976
X130.447Y-65.516
X130.447Y-68.056
X130.447Y-70.596
X130.447Y-78.215
X130.447Y-80.755
X130.447Y-80.755
X130.447Y-80.755
X130.447Y-32.495
X130.447Y-32.495
X130.447Y-78.215
X130.447Y-78.215
X132.987Y-32.495
X132.987Y-32.495
X132.987Y-32.495
X132.987Y-35.035
X132.987Y-35.035
X132.987Y-35.035
X132.987Y-42.651
X132.987Y-45.191
X132.987Y-47.731
X132.987Y-50.271
X132.987Y-52.811
X132.987Y-55.351
X132.987Y-57.896
X132.987Y-60.436
X132.987Y-62.976
X132.987Y-65.516
X132.987Y-68.056
X132.987Y-70.596
X132.987Y-78.215
X132.987Y-78.215
X132.987Y-78.215
X132.987Y-80.755
X132.987Y-80.755
X132.987Y-80.755
X135.527Y-32.495
X135.527Y-32.495
X135.527Y-32.495
X135.527Y-35.035
X135.527Y-35.035
X135.527Y-35.035
X135.527Y-42.651
X135.527Y-45.191
X135.527Y-47.731
X135.527Y-50.271
X135.527Y-52.811
X135.527Y-55.351
X135.527Y-57.896
X135.527Y-60.436
X135.527Y-62.976
X135.527Y-65.516
X135.527Y-68.056
X135.527Y-70.596
X135.527Y-78.215
X135.527Y-78.215
X135.527Y-78.215
X135.527Y-80.755
X135.527Y-80.755
X135.527Y-80.755
X138.067Y-32.495
X138.067Y-32.495
X138.067Y-35.035
X138.067Y-35.035
X138.067Y-35.035
X138.067Y-42.651
X138.067Y-45.191
X138.067Y-47.731
X138.067Y-50.271
X138.067Y-52.811
X138.067Y-55.351
X138.067Y-57.896
X138.067Y-60.436
X138.067Y-62.976
X138.067Y-65.516
X138.067Y-68.056
X138.067Y-70.596
X138.067Y-78.215
X138.067Y-78.215
X138.067Y-80.755
X138.067Y-80.755
X138.067Y-80.755
X138.067Y-32.495
X138.067Y-78.215
X140.607Y-32.495
X140.607Y-32.495
X140.607Y-32.495
X140.607Y-35.035
X140.607Y-35.035
X140.607Y-35.035
X140.607Y-42.651
X140.607Y-45.191
X140.607Y-47.731
X140.607Y-50.271
X140.607Y-52.811
X140.607Y-55.351
X140.607Y-57.896
X140.607Y-60.436
X140.607Y-62.976
X140.607Y-65.516
X140.607Y-68.056
X140.607Y-70.596
X140.607Y-78.215
X140.607Y-78.215
X140.607Y-78.215
X140.607Y-80.755
X140.607Y-80.755
X140.607Y-80.755
X143.147Y-32.495
X143.147Y-32.495
X143.147Y-32.495
X143.147Y-35.035
X143.147Y-35.035
X143.147Y-35.035
X143.147Y-42.651
X143.147Y-45.191
X143.147Y-47.731
X143.147Y-50.271
X143.147Y-52.811
X143.147Y-55.351
X143.147Y-57.896
X143.147Y-60.436
X143.147Y-62.976
X143.147Y-65.516
X143.147Y-68.056
X143.147Y-70.596
X143.147Y-78.215
X143.147Y-78.215
X143.147Y-78.215
X143.147Y-80.755
X143.147Y-80.755
X143.147Y-80.755
X145.687Y-35.035
X145.687Y-35.035
X145.687Y-42.651
X145.687Y-45.191
X145.687Y-47.731
X145.687Y-50.271
X145.687Y-52.811
X145.687Y-55.351
X145.687Y-57.896
X145.687Y-60.436
X145.687Y-62.976
X145.687Y-65.516
X145.687Y-68.056
X145.687Y-70.596
X145.687Y-80.755
X145.687Y-80.755
X145.687Y-32.495
X145.687Y-32.495
X145.687Y-78.215
X145.687Y-78.215
X148.227Y-32.495
X148.227Y-32.495
X148.227Y-35.035
X148.227Y-35.035
X148.227Y-42.651
X148.227Y-45.191
X148.227Y-47.731
X148.227Y-50.271
X148.227Y-52.811
X148.227Y-55.351
X148.227Y-57.896
X148.227Y-60.436
X148.227Y-62.976
X148.227Y-65.516
X148.227Y-68.056
X148.227Y-70.596
X148.227Y-78.215
X148.227Y-78.215
X148.227Y-80.755
X148.227Y-80.755
X150.767Y-32.495
X150.767Y-32.495
X150.767Y-35.035
X150.767Y-35.035
X150.767Y-42.651
X150.767Y-45.191
X150.767Y-47.731
X150.767Y-50.271
X150.767Y-52.811
X150.767Y-55.351
X150.767Y-57.896
X150.767Y-60.436
X150.767Y-62.976
X150.767Y-65.516
X150.767Y-68.056
X150.767Y-70.596
X150.767Y-78.215
X150.767Y-78.215
X150.767Y-80.755
X150.767Y-80.755
X155.847Y-32.495
X155.847Y-32.495
X155.847Y-35.035
X155.847Y-35.035
X155.847Y-42.651
X155.847Y-45.191
X155.847Y-47.731
X155.847Y-50.271
X155.847Y-52.811
X155.847Y-55.351
X155.847Y-57.896
X155.847Y-60.436
X155.847Y-62.976
X155.847Y-65.516
X155.847Y-68.056
X155.847Y-70.596
X155.847Y-78.215
X155.847Y-78.215
X155.847Y-80.755
X155.847Y-80.755
X158.387Y-32.495
X158.387Y-32.495
X158.387Y-35.035
X158.387Y-35.035
X158.387Y-42.651
X158.387Y-45.191
X158.387Y-47.731
X158.387Y-50.271
X158.387Y-52.811
X158.387Y-55.351
X158.387Y-57.896
X158.387Y-60.436
X158.387Y-62.976
X158.387Y-65.516
X158.387Y-68.056
X158.387Y-70.596
X158.387Y-78.215
X158.387Y-78.215
X158.387Y-80.755
X158.387Y-80.755
X160.927Y-32.495
X160.927Y-32.495
X160.927Y-35.035
X160.927Y-35.035
X160.927Y-42.651
X160.927Y-45.191
X160.927Y-47.731
X160.927Y-50.271
X160.927Y-52.811
X160.927Y-55.351
X160.927Y-57.896
X160.927Y-60.436
X160.927Y-62.976
X160.927Y-65.516
X160.927Y-68.056
X160.927Y-70.596
X160.927Y-78.215
X160.927Y-78.215
X160.927Y-80.755
X160.927Y-80.755
X163.467Y-32.495
X163.467Y-35.035
X163.467Y-35.035
X163.467Y-35.035
X163.467Y-42.651
X163.467Y-45.191
X163.467Y-47.731
X163.467Y-50.271
X163.467Y-52.811
X163.467Y-55.351
X163.467Y-57.896
X163.467Y-60.436
X163.467Y-62.976
X163.467Y-65.516
X163.467Y-68.056
X163.467Y-70.596
X163.467Y-78.215
X163.467Y-80.755
X163.467Y-80.755
X163.467Y-80.755
X163.467Y-32.495
X163.467Y-32.495
X163.467Y-78.215
X163.467Y-78.215
X166.007Y-32.495
X166.007Y-32.495
X166.007Y-32.495
X166.007Y-35.035
X166.007Y-35.035
X166.007Y-35.035
X166.007Y-42.651
X166.007Y-45.191
X166.007Y-47.731
X166.007Y-50.271
X166.007Y-52.811
X166.007Y-55.351
X166.007Y-57.896
X166.007Y-60.436
X166.007Y-62.976
X166.007Y-65.516
X166.007Y-68.056
X166.007Y-70.596
X166.007Y-78.215
X166.007Y-78.215
X166.007Y-78.215
X166.007Y-80.755
X166.007Y-80.755
X166.007Y-80.755
X168.547Y-32.495
X168.547Y-32.495
X168.547Y-32.495
X168.547Y-35.035
X168.547Y-35.035
X168.547Y-35.035
X168.547Y-42.651
X168.547Y-45.191
X168.547Y-47.731
X168.547Y-50.271
X168.547Y-52.811
X168.547Y-55.351
X168.547Y-57.896
X168.547Y-60.436
X168.547Y-62.976
X168.547Y-65.516
X168.547Y-68.056
X168.547Y-70.596
X168.547Y-78.215
X168.547Y-78.215
X168.547Y-78.215
X168.547Y-80.755
X168.547Y-80.755
X168.547Y-80.755
X171.087Y-32.495
X171.087Y-32.495
X171.087Y-35.035
X171.087Y-35.035
X171.087Y-35.035
X171.087Y-42.651
X171.087Y-45.191
X171.087Y-47.731
X171.087Y-50.271
X171.087Y-52.811
X171.087Y-55.351
X171.087Y-57.896
X171.087Y-60.436
X171.087Y-62.976
X171.087Y-65.516
X171.087Y-68.056
X171.087Y-70.596
X171.087Y-78.215
X171.087Y-78.215
X171.087Y-80.755
X171.087Y-80.755
X171.087Y-80.755
X171.087Y-32.495
X171.087Y-78.215
X173.627Y-32.495
X173.627Y-32.495
X173.627Y-32.495
X173.627Y-35.035
X173.627Y-35.035
X173.627Y-35.035
X173.627Y-42.651
X173.627Y-45.191
X173.627Y-47.731
X173.627Y-50.271
X173.627Y-52.811
X173.627Y-55.351
X173.627Y-57.896
X173.627Y-60.436
X173.627Y-62.976
X173.627Y-65.516
X173.627Y-68.056
X173.627Y-70.596
X173.627Y-78.215
X173.627Y-78.215
X173.627Y-78.215
X173.627Y-80.755
X173.627Y-80.755
X173.627Y-80.755
X176.167Y-32.495
X176.167Y-32.495
X176.167Y-32.495
X176.167Y-35.035
X176.167Y-35.035
X176.167Y-35.035
X176.167Y-42.651
X176.167Y-45.191
X176.167Y-47.731
X176.167Y-50.271
X176.167Y-52.811
X176.167Y-55.351
X176.167Y-57.896
X176.167Y-60.436
X176.167Y-62.976
X176.167Y-65.516
X176.167Y-68.056
X176.167Y-70.596
X176.167Y-78.215
X176.167Y-78.215
X176.167Y-78.215
X176.167Y-80.755
X176.167Y-80.755
X176.167Y-80.755
X178.707Y-32.495
X178.707Y-35.035
X178.707Y-35.035
X178.707Y-35.035
X178.707Y-42.651
X178.707Y-45.191
X178.707Y-47.731
X178.707Y-50.271
X178.707Y-52.811
X178.707Y-55.351
X178.707Y-57.896
X178.707Y-60.436
X178.707Y-62.976
X178.707Y-65.516
X178.707Y-68.056
X178.707Y-70.596
X178.707Y-78.215
X178.707Y-80.755
X178.707Y-80.755
X178.707Y-80.755
X178.707Y-32.495
X178.707Y-32.495
X178.707Y-78.215
X178.707Y-78.215
X181.247Y-32.495
X181.247Y-32.495
X181.247Y-32.495
X181.247Y-35.035
X181.247Y-35.035
X181.247Y-35.035
X181.247Y-42.651
X181.247Y-45.191
X181.247Y-47.731
X181.247Y-50.271
X181.247Y-52.811
X181.247Y-55.351
X181.247Y-57.896
X181.247Y-60.436
X181.247Y-62.976
X181.247Y-65.516
X181.247Y-68.056
X181.247Y-70.596
X181.247Y-78.215
X181.247Y-78.215
X181.247Y-78.215
X181.247Y-80.755
X181.247Y-80.755
X181.247Y-80.755
X183.787Y-32.495
X183.787Y-32.495
X183.787Y-32.495
X183.787Y-35.035
X183.787Y-35.035
X183.787Y-35.035
X183.787Y-42.651
X183.787Y-45.191
X183.787Y-47.731
X183.787Y-50.271
X183.787Y-52.811
X183.787Y-55.351
X183.787Y-57.896
X183.787Y-60.436
X183.787Y-62.976
X183.787Y-65.516
X183.787Y-68.056
X183.787Y-70.596
X183.787Y-78.215
X183.787Y-78.215
X183.787Y-78.215
X183.787Y-80.755
X183.787Y-80.755
X183.787Y-80.755
X186.327Y-32.495
X186.327Y-32.495
X186.327Y-35.035
X186.327Y-35.035
X186.327Y-35.035
X186.327Y-42.651
X186.327Y-45.191
X186.327Y-47.731
X186.327Y-50.271
X186.327Y-52.811
X186.327Y-55.351
X186.327Y-57.896
X186.327Y-60.436
X186.327Y-62.976
X186.327Y-65.516
X186.327Y-68.056
X186.327Y-70.596
X186.327Y-78.215
X186.327Y-78.215
X186.327Y-80.755
X186.327Y-80.755
X186.327Y-80.755
X186.327Y-32.495
X186.327Y-78.215
X188.867Y-32.495
X188.867Y-32.495
X188.867Y-32.495
X188.867Y-35.035
X188.867Y-35.035
X188.867Y-35.035
X188.867Y-42.651
X188.867Y-45.191
X188.867Y-47.731
X188.867Y-50.271
X188.867Y-52.811
X188.867Y-55.351
X188.867Y-57.896
X188.867Y-60.436
X188.867Y-62.976
X188.867Y-65.516
X188.867Y-68.056
X188.867Y-70.596
X188.867Y-78.215
X188.867Y-78.215
X188.867Y-78.215
X188.867Y-80.755
X188.867Y-80.755
X188.867Y-80.755
X191.407Y-32.495
X191.407Y-32.495
X191.407Y-32.495
X191.407Y-35.035
X191.407Y-35.035
X191.407Y-35.035
X191.407Y-42.651
X191.407Y-45.191
X191.407Y-47.731
X191.407Y-50.271
X191.407Y-52.811
X191.407Y-55.351
X191.407Y-57.896
X191.407Y-60.436
X191.407Y-62.976
X191.407Y-65.516
X191.407Y-68.056
X191.407Y-70.596
X191.407Y-78.215
X191.407Y-78.215
X191.407Y-78.215
X191.407Y-80.755
X191.407Y-80.755
X191.407Y-80.755
X193.947Y-32.495
X193.947Y-35.035
X193.947Y-35.035
X193.947Y-35.035
X193.947Y-42.651
X193.947Y-45.191
X193.947Y-47.731
X193.947Y-50.271
X193.947Y-52.811
X193.947Y-55.351
X193.947Y-57.896
X193.947Y-60.436
X193.947Y-62.976
X193.947Y-65.516
X193.947Y-68.056
X193.947Y-70.596
X193.947Y-78.215
X193.947Y-80.755
X193.947Y-80.755
X193.947Y-80.755
X193.947Y-32.495
X193.947Y-32.495
X193.947Y-78.215
X193.947Y-78.215
X196.487Y-32.495
X196.487Y-32.495
X196.487Y-32.495
X196.487Y-35.035
X196.487Y-35.035
X196.487Y-35.035
X196.487Y-42.651
X196.487Y-45.191
X196.487Y-47.731
X196.487Y-50.271
X196.487Y-52.811
X196.487Y-55.351
X196.487Y-57.896
X196.487Y-60.436
X196.487Y-62.976
X196.487Y-65.516
X196.487Y-68.056
X196.487Y-70.596
X196.487Y-78.215
X196.487Y-78.215
X196.487Y-78.215
X196.487Y-80.755
X196.487Y-80.755
X196.487Y-80.755
X199.027Y-32.495
X199.027Y-32.495
X199.027Y-32.495
X199.027Y-35.035
X199.027Y-35.035
X199.027Y-35.035
X199.027Y-42.651
X199.027Y-45.191
X199.027Y-47.731
X199.027Y-50.271
X199.027Y-52.811
X199.027Y-55.351
X199.027Y-57.896
X199.027Y-60.436
X199.027Y-62.976
X199.027Y-65.516
X199.027Y-68.056
X199.027Y-70.596
X199.027Y-78.215
X199.027Y-78.215
X199.027Y-78.215
X199.027Y-80.755
X199.027Y-80.755
X199.027Y-80.755
X201.567Y-32.495
X201.567Y-32.495
X201.567Y-35.035
X201.567Y-35.035
X201.567Y-35.035
X201.567Y-42.651
X201.567Y-45.191
X201.567Y-47.731
X201.567Y-50.271
X201.567Y-52.811
X201.567Y-55.351
X201.567Y-57.896
X201.567Y-60.436
X201.567Y-62.976
X201.567Y-65.516
X201.567Y-68.056
X201.567Y-70.596
X201.567Y-78.215
X201.567Y-78.215
X201.567Y-80.755
X201.567Y-80.755
X201.567Y-80.755
X201.567Y-32.495
X201.567Y-78.215
X204.107Y-32.495
X204.107Y-32.495
X204.107Y-32.495
X204.107Y-35.035
X204.107Y-35.035
X204.107Y-35.035
X204.107Y-42.651
X204.107Y-45.191
X204.107Y-47.731
X204.107Y-50.271
X204.107Y-52.811
X204.107Y-55.351
X204.107Y-57.896
X204.107Y-60.436
X204.107Y-62.976
X204.107Y-65.516
X204.107Y-68.056
X204.107Y-70.596
X204.107Y-78.215
X204.107Y-78.215
X204.107Y-78.215
X204.107Y-80.755
X204.107Y-80.755
X204.107Y-80.755
X206.647Y-32.495
X206.647Y-32.495
X206.647Y-32.495
X206.647Y-35.035
X206.647Y-35.035
X206.647Y-35.035
X206.647Y-42.651
X206.647Y-45.191
X206.647Y-47.731
X206.647Y-50.271
X206.647Y-52.811
X206.647Y-55.351
X206.647Y-57.896
X206.647Y-60.436
X206.647Y-62.976
X206.647Y-65.516
X206.647Y-68.056
X206.647Y-70.596
X206.647Y-78.215
X206.647Y-78.215
X206.647Y-78.215
X206.647Y-80.755
X206.647Y-80.755
X206.647Y-80.755
X209.187Y-32.495
X209.187Y-35.035
X209.187Y-35.035
X209.187Y-35.035
X209.187Y-42.651
X209.187Y-45.191
X209.187Y-47.731
X209.187Y-50.271
X209.187Y-52.811
X209.187Y-55.351
X209.187Y-57.896
X209.187Y-60.436
X209.187Y-62.976
X209.187Y-65.516
X209.187Y-68.056
X209.187Y-70.596
X209.187Y-78.215
X209.187Y-80.755
X209.187Y-80.755
X209.187Y-80.755
X209.187Y-32.495
X209.187Y-32.495
X209.187Y-78.215
X209.187Y-78.215
X211.727Y-32.495
X211.727Y-32.495
X211.727Y-32.495
X211.727Y-35.035
X211.727Y-35.035
X211.727Y-35.035
X211.727Y-42.651
X211.727Y-45.191
X211.727Y-47.731
X211.727Y-50.271
X211.727Y-52.811
X211.727Y-55.351
X211.727Y-57.896
X211.727Y-60.436
X211.727Y-62.976
X211.727Y-65.516
X211.727Y-68.056
X211.727Y-70.596
X211.727Y-78.215
X211.727Y-78.215
X211.727Y-78.215
X211.727Y-80.755
X211.727Y-80.755
X211.727Y-80.755
X214.267Y-32.495
X214.267Y-32.495
X214.267Y-32.495
X214.267Y-35.035
X214.267Y-35.035
X214.267Y-35.035
X214.267Y-42.651
X214.267Y-45.191
X214.267Y-47.731
X214.267Y-50.271
X214.267Y-52.811
X214.267Y-55.351
X214.267Y-57.896
X214.267Y-60.436
X214.267Y-62.976
X214.267Y-65.516
X214.267Y-68.056
X214.267Y-70.596
X214.267Y-78.215
X214.267Y-78.215
X214.267Y-78.215
X214.267Y-80.755
X214.267Y-80.755
X214.267Y-80.755
X216.807Y-32.495
X216.807Y-32.495
X216.807Y-35.035
X216.807Y-35.035
X216.807Y-35.035
X216.807Y-42.651
X216.807Y-45.191
X216.807Y-47.731
X216.807Y-50.271
X216.807Y-52.811
X216.807Y-55.351
X216.807Y-57.896
X216.807Y-60.436
X216.807Y-62.976
X216.807Y-65.516
X216.807Y-68.056
X216.807Y-70.596
X216.807Y-78.215
X216.807Y-78.215
X216.807Y-80.755
X216.807Y-80.755
X216.807Y-80.755
X216.807Y-32.495
X216.807Y-78.215
X219.347Y-32.495
X219.347Y-32.495
X219.347Y-32.495
X219.347Y-35.035
X219.347Y-35.035
X219.347Y-35.035
X219.347Y-42.651
X219.347Y-45.191
X219.347Y-47.731
X219.347Y-50.271
X219.347Y-52.811
X219.347Y-55.351
X219.347Y-57.896
X219.347Y-60.436
X219.347Y-62.976
X219.347Y-65.516
X219.347Y-68.056
X219.347Y-70.596
X219.347Y-78.215
X219.347Y-78.215
X219.347Y-78.215
X219.347Y-80.755
X219.347Y-80.755
X219.347Y-80.755
X221.887Y-32.495
X221.887Y-32.495
X221.887Y-32.495
X221.887Y-35.035
X221.887Y-35.035
X221.887Y-35.035
X221.887Y-42.651
X221.887Y-45.191
X221.887Y-47.731
X221.887Y-50.271
X221.887Y-52.811
X221.887Y-55.351
X221.887Y-57.896
X221.887Y-60.436
X221.887Y-62.976
X221.887Y-65.516
X221.887Y-68.056
X221.887Y-70.596
X221.887Y-78.215
X221.887Y-78.215
X221.887Y-78.215
X221.887Y-80.755
X221.887Y-80.755
X221.887Y-80.755
X224.427Y-35.035
X224.427Y-35.035
X224.427Y-42.651
X224.427Y-45.191
X224.427Y-47.731
X224.427Y-50.271
X224.427Y-52.811
X224.427Y-55.351
X224.427Y-57.896
X224.427Y-60.436
X224.427Y-62.976
X224.427Y-65.516
X224.427Y-68.056
X224.427Y-70.596
X224.427Y-80.755
X224.427Y-80.755
X224.427Y-32.495
X224.427Y-32.495
X224.427Y-78.215
X224.427Y-78.215
X226.967Y-32.495
X226.967Y-32.495
X226.967Y-35.035
X226.967Y-35.035
X226.967Y-42.651
X226.967Y-45.191
X226.967Y-47.731
X226.967Y-50.271
X226.967Y-52.811
X226.967Y-55.351
X226.967Y-57.896
X226.967Y-60.436
X226.967Y-62.976
X226.967Y-65.516
X226.967Y-68.056
X226.967Y-70.596
X226.967Y-78.215
X226.967Y-78.215
X226.967Y-80.755
X226.967Y-80.755
X229.507Y-32.495
X229.507Y-32.495
X229.507Y-35.035
X229.507Y-35.035
X229.507Y-42.651
X229.507Y-45.191
X229.507Y-47.731
X229.507Y-50.271
X229.507Y-52.811
X229.507Y-55.351
X229.507Y-57.896
X229.507Y-60.436
X229.507Y-62.976
X229.507Y-65.516
X229.507Y-68.056
X229.507Y-70.596
X229.507Y-78.215
X229.507Y-78.215
X229.507Y-80.755
X229.507Y-80.755
M30
