G04 #@! TF.GenerationSoftware,KiCad,Pcbnew,10.0.1*
G04 #@! TF.CreationDate,2026-07-05T21:53:45-07:00*
G04 #@! TF.ProjectId,wig,7769672e-6b69-4636-9164-5f7063625858,rev?*
G04 #@! TF.SameCoordinates,Original*
G04 #@! TF.FileFunction,Copper,L2,Bot*
G04 #@! TF.FilePolarity,Positive*
%FSLAX46Y46*%
G04 Gerber Fmt 4.6, Leading zero omitted, Abs format (unit mm)*
G04 Created by KiCad (PCBNEW 10.0.1) date 2026-07-05 21:53:45*
%MOMM*%
%LPD*%
G01*
G04 APERTURE LIST*
G04 Aperture macros list*
%AMFreePoly0*
4,1,344,-8.784665,9.888161,-8.713953,9.852803,-8.711353,9.850931,-8.109183,9.248757,-8.107310,9.246161,-8.071954,9.175451,-8.070898,9.170976,-8.070898,8.782068,-8.071954,8.777596,-8.107312,8.706884,-8.109185,8.704284,-8.140370,8.673099,-8.140561,8.672629,-8.214742,8.597074,-8.229532,8.571722,-8.228892,8.445939,-8.214018,8.420438,-8.159005,8.364068,-7.975964,8.181027,-7.975951,8.181012,
-7.796659,8.001720,-7.740291,7.946709,-7.714788,7.931833,-7.589006,7.931195,-7.563655,7.945983,-7.488098,8.020166,-7.487628,8.020355,-7.456443,8.051541,-7.453845,8.053414,-7.383132,8.088771,-7.378660,8.089827,-6.989750,8.089827,-6.985277,8.088771,-6.914567,8.053415,-6.911969,8.051542,-6.610883,7.750456,-6.309796,7.449372,-6.307923,7.446773,-6.272567,7.376061,-6.271512,7.371589,
-6.271512,6.982679,-6.272567,6.978206,-6.307924,6.907496,-6.309797,6.904898,-6.340791,6.873903,-6.341173,6.873237,-6.415356,6.797683,-6.430144,6.772333,-6.429503,6.646547,-6.414629,6.621045,-6.359734,6.564795,-6.000608,6.205669,-5.944239,6.150658,-5.918737,6.135782,-5.792955,6.135143,-5.767603,6.149932,-5.692047,6.224115,-5.691577,6.224304,-5.660392,6.255490,-5.657793,6.257363,
-5.587081,6.292720,-5.582609,6.293776,-5.193699,6.293776,-5.189226,6.292720,-5.118516,6.257364,-5.115918,6.255491,-4.513745,5.653321,-4.511872,5.650722,-4.476516,5.580010,-4.475461,5.575538,-4.475461,5.186628,-4.476516,5.182155,-4.511872,5.111445,-4.513745,5.108846,-4.544740,5.077852,-4.545122,5.077186,-4.619305,5.001632,-4.634093,4.976282,-4.633452,4.850496,-4.618578,4.824994,
-4.563683,4.768744,-4.204557,4.409618,-4.148188,4.354607,-4.122686,4.339731,-3.996903,4.339092,-3.971552,4.353881,-3.895996,4.428064,-3.895526,4.428253,-3.864341,4.459439,-3.861742,4.461312,-3.791030,4.496669,-3.786558,4.497725,-3.397647,4.497725,-3.393175,4.496669,-3.322465,4.461313,-3.319866,4.459440,-3.018780,4.158354,-2.717693,3.857270,-2.715820,3.854671,-2.680465,3.783959,
-2.679409,3.779486,-2.679409,3.390576,-2.680465,3.386104,-2.715821,3.315394,-2.717694,3.312795,-2.748689,3.281801,-2.749071,3.281135,-2.823254,3.205581,-2.838042,3.180230,-2.837401,3.054445,-2.822527,3.028943,-2.767631,2.972692,-2.412041,2.617102,-2.355673,2.562091,-2.330170,2.547215,-2.204388,2.546576,-2.179037,2.561365,-2.103480,2.635548,-2.103010,2.635737,-2.071825,2.666923,
-2.069226,2.668796,-1.998514,2.704153,-1.994042,2.705209,-1.605132,2.705209,-1.600659,2.704153,-1.529949,2.668797,-1.527351,2.666924,-1.226265,2.365838,-0.925178,2.064754,-0.923305,2.062155,-0.887949,1.991443,-0.886894,1.986971,-0.886894,1.598061,-0.887949,1.593588,-0.923305,1.522878,-0.925179,1.520280,-0.956173,1.489285,-0.956555,1.488619,-1.030738,1.413065,-1.045526,1.387715,
-1.044885,1.261929,-1.030011,1.236427,-0.975116,1.180177,-0.615051,0.820112,-0.558683,0.765102,-0.533180,0.750225,-0.407398,0.749587,-0.382047,0.764375,-0.306490,0.838559,-0.306020,0.838747,-0.274835,0.869934,-0.272237,0.871807,-0.201525,0.907164,-0.197052,0.908219,0.191858,0.908219,0.196330,0.907164,0.267040,0.871808,0.269639,0.869934,0.570725,0.568848,0.871812,0.267764,
0.873685,0.265166,0.909040,0.194454,0.910096,0.189981,0.910096,-0.198929,0.909040,-0.203401,0.873684,-0.274111,0.871811,-0.276710,0.273177,-0.875346,0.270578,-0.877219,0.199866,-0.912576,0.195393,-0.913631,-0.193517,-0.913631,-0.197989,-0.912576,-0.268699,-0.877220,-0.271298,-0.875347,-0.873469,-0.273177,-0.875342,-0.270578,-0.910699,-0.199866,-0.911755,-0.195393,-0.911755,0.193517,
-0.910699,0.197989,-0.875343,0.268699,-0.873470,0.271298,-0.846008,0.298760,-0.845630,0.299419,-0.771446,0.374976,-0.756658,0.400327,-0.757297,0.526109,-0.772173,0.551612,-0.827183,0.607980,-1.187133,0.967929,-1.243501,1.022940,-1.269004,1.037816,-1.394786,1.038455,-1.420137,1.023666,-1.495693,0.949483,-1.496164,0.949294,-1.523813,0.921644,-1.526412,0.919771,-1.597124,0.884414,
-1.601596,0.883358,-1.990506,0.883358,-1.994979,0.884414,-2.065689,0.919770,-2.068287,0.921643,-2.369373,1.222729,-2.670459,1.523813,-2.672332,1.526412,-2.707689,1.597124,-2.708744,1.601596,-2.708744,1.990506,-2.707689,1.994979,-2.672333,2.065689,-2.670459,2.068287,-2.642998,2.095749,-2.642619,2.096409,-2.568436,2.171965,-2.553648,2.197317,-2.554286,2.323099,-2.569162,2.348601,
-2.624173,2.404970,-2.979648,2.760445,-3.036017,2.815456,-3.061519,2.830332,-3.187301,2.830971,-3.212653,2.816182,-3.288209,2.741999,-3.288679,2.741810,-3.316329,2.714159,-3.318927,2.712286,-3.389639,2.676929,-3.394112,2.675874,-3.783022,2.675874,-3.787494,2.676929,-3.858204,2.712286,-3.860803,2.714159,-4.462974,3.316329,-4.464848,3.318927,-4.500204,3.389639,-4.501260,3.394112,
-4.501260,3.783022,-4.500204,3.787494,-4.464848,3.858204,-4.462975,3.860803,-4.435513,3.888265,-4.435135,3.888925,-4.360952,3.964481,-4.346163,3.989832,-4.346802,4.115615,-4.361678,4.141117,-4.416689,4.197486,-4.775699,4.556496,-4.832068,4.611507,-4.857570,4.626383,-4.983353,4.627022,-5.008704,4.612233,-5.084260,4.538050,-5.084731,4.537861,-5.112380,4.510211,-5.114979,4.508337,
-5.185691,4.472981,-5.190163,4.471925,-5.579073,4.471925,-5.583546,4.472981,-5.654256,4.508337,-5.656854,4.510210,-5.957940,4.811296,-6.259026,5.112380,-6.260899,5.114979,-6.296256,5.185691,-6.297311,5.190163,-6.297311,5.579073,-6.296256,5.583546,-6.260900,5.654256,-6.259026,5.656854,-6.231564,5.684316,-6.231186,5.684976,-6.157003,5.760532,-6.142214,5.785884,-6.142853,5.911666,
-6.157729,5.937168,-6.212740,5.993537,-6.571751,6.352548,-6.628119,6.407558,-6.653622,6.422435,-6.779404,6.423073,-6.804755,6.408285,-6.880312,6.334101,-6.880782,6.333913,-6.908431,6.306262,-6.911030,6.304389,-6.981742,6.269032,-6.986214,6.267976,-7.375124,6.267976,-7.379597,6.269032,-7.450307,6.304388,-7.452905,6.306261,-8.055077,6.908431,-8.056950,6.911030,-8.092307,6.981742,
-8.093362,6.986214,-8.093362,7.375124,-8.092307,7.379597,-8.056951,7.450307,-8.055078,7.452905,-8.027616,7.480367,-8.027237,7.481027,-7.953054,7.556584,-7.938266,7.581935,-7.938904,7.707717,-7.953780,7.733220,-8.008791,7.789588,-8.191832,7.972629,-8.191831,7.972630,-8.371137,8.151936,-8.427507,8.206948,-8.453008,8.221823,-8.578791,8.222462,-8.604143,8.207673,-8.679698,8.133491,
-8.680359,8.133112,-8.707821,8.105651,-8.710419,8.103777,-8.781129,8.068421,-8.785602,8.067366,-9.174512,8.067366,-9.178984,8.068421,-9.249696,8.103777,-9.252294,8.105650,-9.553378,8.406737,-9.854464,8.707823,-9.856337,8.710419,-9.891693,8.781129,-9.892749,8.785604,-9.892749,9.174514,-9.891693,9.178984,-9.856337,9.249698,-9.854464,9.252296,-9.255828,9.850931,-9.253230,9.852805,
-9.182520,9.888161,-9.178047,9.889216,-8.789137,9.889216,-8.784665,9.888161,-8.784665,9.888161,$1*%
%AMFreePoly1*
4,1,150,0.404831,5.416039,0.428513,5.411328,0.446537,5.403862,0.462441,5.393235,0.476235,5.379441,0.486862,5.363537,0.494328,5.345513,0.499039,5.321831,0.500000,5.312076,0.500000,0.054924,0.499039,0.050092,0.499039,0.050000,0.500000,0.050000,0.500000,0.000000,0.496194,-0.019134,0.485355,-0.035355,0.469134,-0.046194,0.450000,-0.050000,-0.450000,-0.050000,-0.469134,-0.046194,
-0.485355,-0.035355,-0.496194,-0.019134,-0.500000,0.000000,-0.500000,0.050000,-0.499040,0.050000,-0.499039,0.050096,-0.500000,0.054924,-0.500000,0.409924,-0.368315,0.409924,-0.368315,0.387247,-0.366654,0.303642,-0.356591,0.202013,-0.349010,0.167456,-0.336202,0.139770,-0.318805,0.117715,-0.296947,0.100347,-0.270789,0.087832,-0.233536,0.077691,-0.181896,0.070692,-0.111957,0.068033,
-0.111957,0.226816,-0.131692,0.225973,-0.161250,0.228448,-0.181409,0.234944,-0.194804,0.244877,-0.207027,0.266528,-0.211853,0.300748,-0.215125,0.381385,-0.211804,0.474624,-0.211804,0.482172,-0.209336,0.516831,-0.203427,0.537386,-0.195781,0.548520,-0.183351,0.556122,-0.162408,0.561496,-0.129054,0.563651,-0.101542,0.560830,-0.084612,0.553571,-0.074979,0.542219,-0.067997,0.517872,
-0.065063,0.476273,-0.065063,0.333464,0.078748,0.333464,0.078748,0.467883,0.077624,0.509026,0.080005,0.532882,0.086195,0.549643,0.095210,0.561123,0.108623,0.569334,0.129392,0.574923,0.160471,0.577096,0.187754,0.574551,0.206199,0.567833,0.218308,0.557349,0.229007,0.535611,0.233060,0.504849,0.231937,0.485542,0.231937,0.391460,0.230813,0.294007,0.227440,0.265371,
0.218894,0.246754,0.206584,0.235169,0.189050,0.227540,0.162189,0.222176,0.122516,0.220075,0.122516,0.066348,0.162914,0.064663,0.221575,0.067335,0.266390,0.074504,0.300156,0.085189,0.325167,0.098855,0.343067,0.115478,0.359104,0.140770,0.371991,0.174695,0.380738,0.219364,0.384002,0.277191,0.385126,0.384719,0.385126,0.517452,0.380546,0.589729,0.368809,0.640004,
0.352389,0.673644,0.332858,0.695102,0.305098,0.712658,0.271508,0.725560,0.230883,0.733753,0.181623,0.736685,0.117786,0.732867,0.076808,0.723293,0.051783,0.709794,0.034226,0.690082,0.018938,0.658301,0.007380,0.609849,-0.011573,0.661910,-0.029341,0.689384,-0.048894,0.704335,-0.072448,0.713772,-0.096277,0.719026,-0.156507,0.722397,-0.219087,0.718984,-0.265164,0.709934,
-0.298530,0.696502,-0.322055,0.679129,-0.339075,0.657214,-0.352546,0.628007,-0.361617,0.589689,-0.364993,0.540130,-0.368315,0.409924,-0.500000,0.409924,-0.500000,1.152105,-0.368315,1.152105,-0.155726,0.912686,-0.003416,0.988304,-0.192460,1.191563,0.385126,1.191563,0.385126,1.358735,-0.368315,1.358735,-0.368315,1.152105,-0.500000,1.152105,-0.500000,5.312076,-0.499040,5.321829,
-0.494330,5.345511,-0.486863,5.363537,-0.476236,5.379441,-0.462442,5.393235,-0.446538,5.403862,-0.428514,5.411328,-0.404831,5.416039,-0.395076,5.417000,0.395076,5.417000,0.404831,5.416039,0.404831,5.416039,$1*%
%AMFreePoly2*
4,1,213,0.404831,5.416039,0.428513,5.411328,0.446537,5.403862,0.462441,5.393235,0.476235,5.379441,0.486862,5.363537,0.494328,5.345513,0.499039,5.321831,0.500000,5.312076,0.500000,0.054924,0.499039,0.050092,0.499039,0.050000,0.500000,0.050000,0.500000,0.000000,0.496194,-0.019134,0.485355,-0.035355,0.469134,-0.046194,0.450000,-0.050000,-0.450000,-0.050000,-0.469134,-0.046194,
-0.485355,-0.035355,-0.496194,-0.019134,-0.500000,0.000000,-0.500000,0.050000,-0.499040,0.050000,-0.499039,0.050096,-0.500000,0.054924,-0.500000,0.409924,-0.368315,0.409924,-0.368315,0.387247,-0.366654,0.303642,-0.356591,0.202013,-0.349010,0.167456,-0.336202,0.139770,-0.318805,0.117715,-0.296947,0.100347,-0.270789,0.087832,-0.233536,0.077691,-0.181896,0.070692,-0.111957,0.068033,
-0.111957,0.226816,-0.131692,0.225973,-0.161250,0.228448,-0.181409,0.234944,-0.194804,0.244877,-0.207027,0.266528,-0.211853,0.300748,-0.215125,0.381385,-0.211804,0.474624,-0.211804,0.482172,-0.209336,0.516831,-0.203427,0.537386,-0.195781,0.548520,-0.183351,0.556122,-0.162408,0.561496,-0.129054,0.563651,-0.101542,0.560830,-0.084612,0.553571,-0.074979,0.542219,-0.067997,0.517872,
-0.065063,0.476273,-0.065063,0.333464,0.078748,0.333464,0.078748,0.467883,0.077624,0.509026,0.080005,0.532882,0.086195,0.549643,0.095210,0.561123,0.108623,0.569334,0.129392,0.574923,0.160471,0.577096,0.187754,0.574551,0.206199,0.567833,0.218308,0.557349,0.229007,0.535611,0.233060,0.504849,0.231937,0.485542,0.231937,0.391460,0.230813,0.294007,0.227440,0.265371,
0.218894,0.246754,0.206584,0.235169,0.189050,0.227540,0.162189,0.222176,0.122516,0.220075,0.122516,0.066348,0.162914,0.064663,0.221575,0.067335,0.266390,0.074504,0.300156,0.085189,0.325167,0.098855,0.343067,0.115478,0.359104,0.140770,0.371991,0.174695,0.380738,0.219364,0.384002,0.277191,0.385126,0.384719,0.385126,0.517452,0.380546,0.589729,0.368809,0.640004,
0.352389,0.673644,0.332858,0.695102,0.305098,0.712658,0.271508,0.725560,0.230883,0.733753,0.181623,0.736685,0.117786,0.732867,0.076808,0.723293,0.051783,0.709794,0.034226,0.690082,0.018938,0.658301,0.007380,0.609849,-0.011573,0.661910,-0.029341,0.689384,-0.048894,0.704335,-0.072448,0.713772,-0.096277,0.719026,-0.156507,0.722397,-0.219087,0.718984,-0.265164,0.709934,
-0.298530,0.696502,-0.322055,0.679129,-0.339075,0.657214,-0.352546,0.628007,-0.361617,0.589689,-0.364993,0.540130,-0.368315,0.409924,-0.500000,0.409924,-0.500000,1.267180,-0.368315,1.267180,-0.363820,1.079016,-0.360775,1.016632,-0.352823,0.971114,-0.341513,0.938901,-0.328014,0.916899,-0.307471,0.899788,-0.273859,0.885981,-0.222173,0.876216,-0.145760,0.872386,-0.093199,0.873229,
-0.093199,1.027761,-0.118943,1.027761,-0.152453,1.029849,-0.166784,1.033366,-0.182690,1.040364,-0.195929,1.050598,-0.205600,1.065973,-0.210932,1.084069,-0.212878,1.106713,-0.215125,1.205851,-0.215125,1.293229,-0.212864,1.324355,-0.207334,1.343727,-0.199982,1.354961,-0.188174,1.362965,-0.169536,1.368383,-0.141218,1.370495,-0.125537,1.371338,-0.099039,1.369076,-0.081204,1.363161,
-0.069557,1.354118,-0.058181,1.333801,-0.049431,1.297405,-0.017826,1.003435,-0.007687,0.965989,0.006379,0.937637,0.023595,0.916572,0.043674,0.901366,0.077863,0.886838,0.126209,0.876979,0.193249,0.873229,0.385126,0.873229,0.385126,1.530083,0.235063,1.530083,0.235063,1.026955,0.201260,1.026955,0.171394,1.029461,0.153267,1.035742,0.143032,1.045017,0.134690,1.065211,
0.131357,1.096674,0.119683,1.214277,0.106884,1.352836,0.102438,1.407326,0.090782,1.446821,0.073859,1.474776,0.052662,1.493960,0.024794,1.508014,-0.014775,1.519337,-0.069510,1.527128,-0.143562,1.530083,-0.208161,1.527103,-0.256444,1.519184,-0.291916,1.507504,-0.317414,1.492677,-0.336687,1.473202,-0.351892,1.446276,-0.362196,1.409813,-0.366067,1.361263,-0.368315,1.267180,
-0.500000,1.267180,-0.500000,5.312076,-0.499040,5.321829,-0.494330,5.345511,-0.486863,5.363537,-0.476236,5.379441,-0.462442,5.393235,-0.446538,5.403862,-0.428514,5.411328,-0.404831,5.416039,-0.395076,5.417000,0.395076,5.417000,0.404831,5.416039,0.404831,5.416039,$1*%
%AMFreePoly3*
4,1,241,0.404831,5.416039,0.428513,5.411328,0.446537,5.403862,0.462441,5.393235,0.476235,5.379441,0.486862,5.363537,0.494328,5.345513,0.499039,5.321831,0.500000,5.312076,0.500000,0.054924,0.499039,0.050092,0.499039,0.050000,0.500000,0.050000,0.500000,0.000000,0.496194,-0.019134,0.485355,-0.035355,0.469134,-0.046194,0.450000,-0.050000,-0.450000,-0.050000,-0.469134,-0.046194,
-0.485355,-0.035355,-0.496194,-0.019134,-0.500000,0.000000,-0.500000,0.050000,-0.499040,0.050000,-0.499039,0.050096,-0.500000,0.054924,-0.500000,0.409924,-0.368315,0.409924,-0.368315,0.387247,-0.366654,0.303642,-0.356591,0.202013,-0.349010,0.167456,-0.336202,0.139770,-0.318805,0.117715,-0.296947,0.100347,-0.270789,0.087832,-0.233536,0.077691,-0.181896,0.070692,-0.111957,0.068033,
-0.111957,0.226816,-0.131692,0.225973,-0.161250,0.228448,-0.181409,0.234944,-0.194804,0.244877,-0.207027,0.266528,-0.211853,0.300748,-0.215125,0.381385,-0.211804,0.474624,-0.211804,0.482172,-0.209336,0.516831,-0.203427,0.537386,-0.195781,0.548520,-0.183351,0.556122,-0.162408,0.561496,-0.129054,0.563651,-0.101542,0.560830,-0.084612,0.553571,-0.074979,0.542219,-0.067997,0.517872,
-0.065063,0.476273,-0.065063,0.333464,0.078748,0.333464,0.078748,0.467883,0.077624,0.509026,0.080005,0.532882,0.086195,0.549643,0.095210,0.561123,0.108623,0.569334,0.129392,0.574923,0.160471,0.577096,0.187754,0.574551,0.206199,0.567833,0.218308,0.557349,0.229007,0.535611,0.233060,0.504849,0.231937,0.485542,0.231937,0.391460,0.230813,0.294007,0.227440,0.265371,
0.218894,0.246754,0.206584,0.235169,0.189050,0.227540,0.162189,0.222176,0.122516,0.220075,0.122516,0.066348,0.162914,0.064663,0.221575,0.067335,0.266390,0.074504,0.300156,0.085189,0.325167,0.098855,0.343067,0.115478,0.359104,0.140770,0.371991,0.174695,0.380738,0.219364,0.384002,0.277191,0.385126,0.384719,0.385126,0.517452,0.380546,0.589729,0.368809,0.640004,
0.352389,0.673644,0.332858,0.695102,0.305098,0.712658,0.271508,0.725560,0.230883,0.733753,0.181623,0.736685,0.117786,0.732867,0.076808,0.723293,0.051783,0.709794,0.034226,0.690082,0.018938,0.658301,0.007380,0.609849,-0.011573,0.661910,-0.029341,0.689384,-0.048894,0.704335,-0.072448,0.713772,-0.096277,0.719026,-0.156507,0.722397,-0.219087,0.718984,-0.265164,0.709934,
-0.298530,0.696502,-0.322055,0.679129,-0.339075,0.657214,-0.352546,0.628007,-0.361617,0.589689,-0.364993,0.540130,-0.368315,0.409924,-0.500000,0.409924,-0.500000,1.210064,-0.368315,1.210064,-0.368315,1.187386,-0.366654,1.103782,-0.356591,1.002152,-0.349010,0.967596,-0.336202,0.939910,-0.318805,0.917854,-0.296947,0.900486,-0.270789,0.887971,-0.233536,0.877830,-0.181896,0.870831,
-0.111957,0.868173,-0.111957,1.026955,-0.131692,1.026113,-0.161250,1.028587,-0.181409,1.035084,-0.194804,1.045017,-0.207027,1.066667,-0.211853,1.100887,-0.215125,1.181524,-0.211804,1.274764,-0.211804,1.282311,-0.209336,1.316971,-0.203427,1.337526,-0.195781,1.348660,-0.183351,1.356262,-0.162408,1.361636,-0.129054,1.363790,-0.101542,1.360969,-0.084612,1.353710,-0.074979,1.342358,
-0.067997,1.318011,-0.065063,1.276413,-0.065063,1.133604,0.078748,1.133604,0.078748,1.268023,0.077624,1.309166,0.080005,1.333022,0.086195,1.349783,0.095210,1.361263,0.108623,1.369474,0.129392,1.375063,0.160471,1.377236,0.187754,1.374691,0.206199,1.367972,0.218308,1.357489,0.229007,1.335751,0.233060,1.304989,0.231937,1.285682,0.231937,1.191599,0.230813,1.094146,
0.227440,1.065510,0.218894,1.046893,0.206584,1.035308,0.189050,1.027680,0.162189,1.022315,0.122516,1.020214,0.122516,0.866488,0.162914,0.864802,0.221575,0.867474,0.266390,0.874644,0.300156,0.885329,0.325167,0.898995,0.343067,0.915617,0.359104,0.940910,0.371991,0.974834,0.380738,1.019504,0.384002,1.077330,0.385126,1.184858,0.385126,1.317592,0.380546,1.389869,
0.368809,1.440144,0.352389,1.473784,0.332858,1.495242,0.305098,1.512797,0.271508,1.525700,0.230883,1.533893,0.181623,1.536824,0.117786,1.533006,0.076808,1.523433,0.051783,1.509933,0.034226,1.490221,0.018938,1.458440,0.007380,1.409989,-0.011573,1.462049,-0.029341,1.489524,-0.048894,1.504474,-0.072448,1.513912,-0.096277,1.519166,-0.156507,1.522536,-0.219087,1.519124,
-0.265164,1.510074,-0.298530,1.496642,-0.322055,1.479269,-0.339075,1.457354,-0.352546,1.428147,-0.361617,1.389828,-0.364993,1.340270,-0.368315,1.210064,-0.500000,1.210064,-0.500000,5.312076,-0.499040,5.321829,-0.494330,5.345511,-0.486863,5.363537,-0.476236,5.379441,-0.462442,5.393235,-0.446538,5.403862,-0.428514,5.411328,-0.404831,5.416039,-0.395076,5.417000,0.395076,5.417000,
0.404831,5.416039,0.404831,5.416039,$1*%
%AMFreePoly4*
4,1,168,0.404831,5.416039,0.428513,5.411328,0.446537,5.403862,0.462441,5.393235,0.476235,5.379441,0.486862,5.363537,0.494328,5.345513,0.499039,5.321831,0.500000,5.312076,0.500000,0.054924,0.499039,0.050092,0.499039,0.050000,0.500000,0.050000,0.500000,0.000000,0.496194,-0.019134,0.485355,-0.035355,0.469134,-0.046194,0.450000,-0.050000,-0.450000,-0.050000,-0.469134,-0.046194,
-0.485355,-0.035355,-0.496194,-0.019134,-0.500000,0.000000,-0.500000,0.050000,-0.499040,0.050000,-0.499039,0.050096,-0.500000,0.054924,-0.500000,0.409924,-0.368315,0.409924,-0.368315,0.387247,-0.366654,0.303642,-0.356591,0.202013,-0.349010,0.167456,-0.336202,0.139770,-0.318805,0.117715,-0.296947,0.100347,-0.270789,0.087832,-0.233536,0.077691,-0.181896,0.070692,-0.111957,0.068033,
-0.111957,0.226816,-0.131692,0.225973,-0.161250,0.228448,-0.181409,0.234944,-0.194804,0.244877,-0.207027,0.266528,-0.211853,0.300748,-0.215125,0.381385,-0.211804,0.474624,-0.211804,0.482172,-0.209336,0.516831,-0.203427,0.537386,-0.195781,0.548520,-0.183351,0.556122,-0.162408,0.561496,-0.129054,0.563651,-0.101542,0.560830,-0.084612,0.553571,-0.074979,0.542219,-0.067997,0.517872,
-0.065063,0.476273,-0.065063,0.333464,0.078748,0.333464,0.078748,0.467883,0.077624,0.509026,0.080005,0.532882,0.086195,0.549643,0.095210,0.561123,0.108623,0.569334,0.129392,0.574923,0.160471,0.577096,0.187754,0.574551,0.206199,0.567833,0.218308,0.557349,0.229007,0.535611,0.233060,0.504849,0.231937,0.485542,0.231937,0.391460,0.230813,0.294007,0.227440,0.265371,
0.218894,0.246754,0.206584,0.235169,0.189050,0.227540,0.162189,0.222176,0.122516,0.220075,0.122516,0.066348,0.162914,0.064663,0.221575,0.067335,0.266390,0.074504,0.300156,0.085189,0.325167,0.098855,0.343067,0.115478,0.359104,0.140770,0.371991,0.174695,0.380738,0.219364,0.384002,0.277191,0.385126,0.384719,0.385126,0.517452,0.380546,0.589729,0.368809,0.640004,
0.352389,0.673644,0.332858,0.695102,0.305098,0.712658,0.271508,0.725560,0.230883,0.733753,0.181623,0.736685,0.117786,0.732867,0.076808,0.723293,0.051783,0.709794,0.034226,0.690082,0.018938,0.658301,0.007380,0.609849,-0.011573,0.661910,-0.029341,0.689384,-0.048894,0.704335,-0.072448,0.713772,-0.096277,0.719026,-0.156507,0.722397,-0.219087,0.718984,-0.265164,0.709934,
-0.298530,0.696502,-0.322055,0.679129,-0.339075,0.657214,-0.352546,0.628007,-0.361617,0.589689,-0.364993,0.540130,-0.368315,0.409924,-0.500000,0.409924,-0.500000,1.190600,-0.308960,1.190600,-0.028328,0.856413,0.231937,0.856413,0.231937,1.190600,0.081874,1.190600,0.081874,0.973173,-0.104460,1.190600,-0.308960,1.190600,-0.500000,1.190600,-0.500000,1.458715,-0.368315,1.458715,
-0.368315,1.261282,-0.350947,1.240600,-0.147309,1.240600,-0.200324,1.302461,0.081874,1.302461,0.081874,1.240600,0.231937,1.240600,0.231937,1.302461,0.385126,1.302461,0.385126,1.458715,0.231937,1.458715,0.231937,1.549427,0.081874,1.549427,0.081874,1.458715,-0.368315,1.458715,-0.500000,1.458715,-0.500000,5.312076,-0.499040,5.321829,-0.494330,5.345511,-0.486863,5.363537,
-0.476236,5.379441,-0.462442,5.393235,-0.446538,5.403862,-0.428514,5.411328,-0.404831,5.416039,-0.395076,5.417000,0.395076,5.417000,0.404831,5.416039,0.404831,5.416039,$1*%
%AMFreePoly5*
4,1,211,0.404831,5.416039,0.428513,5.411328,0.446537,5.403862,0.462441,5.393235,0.476235,5.379441,0.486862,5.363537,0.494328,5.345513,0.499039,5.321831,0.500000,5.312076,0.500000,0.054924,0.499039,0.050092,0.499039,0.050000,0.500000,0.050000,0.500000,0.000000,0.496194,-0.019134,0.485355,-0.035355,0.469134,-0.046194,0.450000,-0.050000,-0.450000,-0.050000,-0.469134,-0.046194,
-0.485355,-0.035355,-0.496194,-0.019134,-0.500000,0.000000,-0.500000,0.050000,-0.499040,0.050000,-0.499039,0.050096,-0.500000,0.054924,-0.500000,0.409924,-0.368315,0.409924,-0.368315,0.387247,-0.366654,0.303642,-0.356591,0.202013,-0.349010,0.167456,-0.336202,0.139770,-0.318805,0.117715,-0.296947,0.100347,-0.270789,0.087832,-0.233536,0.077691,-0.181896,0.070692,-0.111957,0.068033,
-0.111957,0.226816,-0.131692,0.225973,-0.161250,0.228448,-0.181409,0.234944,-0.194804,0.244877,-0.207027,0.266528,-0.211853,0.300748,-0.215125,0.381385,-0.211804,0.474624,-0.211804,0.482172,-0.209336,0.516831,-0.203427,0.537386,-0.195781,0.548520,-0.183351,0.556122,-0.162408,0.561496,-0.129054,0.563651,-0.101542,0.560830,-0.084612,0.553571,-0.074979,0.542219,-0.067997,0.517872,
-0.065063,0.476273,-0.065063,0.333464,0.078748,0.333464,0.078748,0.467883,0.077624,0.509026,0.080005,0.532882,0.086195,0.549643,0.095210,0.561123,0.108623,0.569334,0.129392,0.574923,0.160471,0.577096,0.187754,0.574551,0.206199,0.567833,0.218308,0.557349,0.229007,0.535611,0.233060,0.504849,0.231937,0.485542,0.231937,0.391460,0.230813,0.294007,0.227440,0.265371,
0.218894,0.246754,0.206584,0.235169,0.189050,0.227540,0.162189,0.222176,0.122516,0.220075,0.122516,0.066348,0.162914,0.064663,0.221575,0.067335,0.266390,0.074504,0.300156,0.085189,0.325167,0.098855,0.343067,0.115478,0.359104,0.140770,0.371991,0.174695,0.380738,0.219364,0.384002,0.277191,0.385126,0.384719,0.385126,0.517452,0.380546,0.589729,0.368809,0.640004,
0.352389,0.673644,0.332858,0.695102,0.305098,0.712658,0.271508,0.725560,0.230883,0.733753,0.181623,0.736685,0.117786,0.732867,0.076808,0.723293,0.051783,0.709794,0.034226,0.690082,0.018938,0.658301,0.007380,0.609849,-0.011573,0.661910,-0.029341,0.689384,-0.048894,0.704335,-0.072448,0.713772,-0.096277,0.719026,-0.156507,0.722397,-0.219087,0.718984,-0.265164,0.709934,
-0.298530,0.696502,-0.322055,0.679129,-0.339075,0.657214,-0.352546,0.628007,-0.361617,0.589689,-0.364993,0.540130,-0.368315,0.409924,-0.500000,0.409924,-0.500000,1.512461,-0.368315,1.512461,-0.368315,0.897555,0.072495,0.890008,0.072495,1.033660,0.053166,1.037754,0.040771,1.044469,0.033514,1.053810,0.024233,1.083229,0.022474,1.115982,0.022474,1.208379,0.024721,1.299933,
0.027905,1.328631,0.036090,1.348072,0.047973,1.360823,0.065083,1.369633,0.090962,1.375691,0.128915,1.378042,0.170942,1.375016,0.196976,1.367460,0.212153,1.356610,0.221439,1.341472,0.228152,1.317758,0.230813,1.282274,0.231937,1.210907,0.229690,1.129427,0.227617,1.095629,0.221239,1.060111,0.213879,1.044795,0.200681,1.034048,0.180527,1.027080,0.150653,1.024427,
0.150653,0.868173,0.222424,0.871803,0.273981,0.881305,0.310151,0.895149,0.334665,0.912686,0.352232,0.935210,0.366312,0.966081,0.375906,1.007538,0.379508,1.062199,0.385126,1.222667,0.385126,1.286488,0.384002,1.349502,0.378938,1.404011,0.365433,1.444774,0.345315,1.474817,0.319327,1.496488,0.286166,1.512634,0.242362,1.525259,0.185278,1.533697,0.111769,1.536824,
0.036481,1.532895,-0.016810,1.522672,-0.053583,1.507845,-0.075990,1.492008,-0.093630,1.472091,-0.106572,1.447340,-0.114351,1.416693,-0.123876,1.319680,-0.124462,1.248715,-0.124462,1.196618,-0.123339,1.144558,-0.119918,1.109797,-0.110443,1.081543,-0.092758,1.056542,-0.063890,1.033660,-0.218252,1.033660,-0.218252,1.512461,-0.368315,1.512461,-0.500000,1.512461,-0.500000,5.312076,
-0.499040,5.321829,-0.494330,5.345511,-0.486863,5.363537,-0.476236,5.379441,-0.462442,5.393235,-0.446538,5.403862,-0.428514,5.411328,-0.404831,5.416039,-0.395076,5.417000,0.395076,5.417000,0.404831,5.416039,0.404831,5.416039,$1*%
%AMFreePoly6*
4,1,245,0.404831,5.416039,0.428513,5.411328,0.446537,5.403862,0.462441,5.393235,0.476235,5.379441,0.486862,5.363537,0.494328,5.345513,0.499039,5.321831,0.500000,5.312076,0.500000,0.054924,0.499039,0.050092,0.499039,0.050000,0.500000,0.050000,0.500000,0.000000,0.496194,-0.019134,0.485355,-0.035355,0.469134,-0.046194,0.450000,-0.050000,-0.450000,-0.050000,-0.469134,-0.046194,
-0.485355,-0.035355,-0.496194,-0.019134,-0.500000,0.000000,-0.500000,0.050000,-0.499040,0.050000,-0.499039,0.050096,-0.500000,0.054924,-0.500000,0.409924,-0.368315,0.409924,-0.368315,0.387247,-0.366654,0.303642,-0.356591,0.202013,-0.349010,0.167456,-0.336202,0.139770,-0.318805,0.117715,-0.296947,0.100347,-0.270789,0.087832,-0.233536,0.077691,-0.181896,0.070692,-0.111957,0.068033,
-0.111957,0.226816,-0.131692,0.225973,-0.161250,0.228448,-0.181409,0.234944,-0.194804,0.244877,-0.207027,0.266528,-0.211853,0.300748,-0.215125,0.381385,-0.211804,0.474624,-0.211804,0.482172,-0.209336,0.516831,-0.203427,0.537386,-0.195781,0.548520,-0.183351,0.556122,-0.162408,0.561496,-0.129054,0.563651,-0.101542,0.560830,-0.084612,0.553571,-0.074979,0.542219,-0.067997,0.517872,
-0.065063,0.476273,-0.065063,0.333464,0.078748,0.333464,0.078748,0.467883,0.077624,0.509026,0.080005,0.532882,0.086195,0.549643,0.095210,0.561123,0.108623,0.569334,0.129392,0.574923,0.160471,0.577096,0.187754,0.574551,0.206199,0.567833,0.218308,0.557349,0.229007,0.535611,0.233060,0.504849,0.231937,0.485542,0.231937,0.391460,0.230813,0.294007,0.227440,0.265371,
0.218894,0.246754,0.206584,0.235169,0.189050,0.227540,0.162189,0.222176,0.122516,0.220075,0.122516,0.066348,0.162914,0.064663,0.221575,0.067335,0.266390,0.074504,0.300156,0.085189,0.325167,0.098855,0.343067,0.115478,0.359104,0.140770,0.371991,0.174695,0.380738,0.219364,0.384002,0.277191,0.385126,0.384719,0.385126,0.517452,0.380546,0.589729,0.368809,0.640004,
0.352389,0.673644,0.332858,0.695102,0.305098,0.712658,0.271508,0.725560,0.230883,0.733753,0.181623,0.736685,0.117786,0.732867,0.076808,0.723293,0.051783,0.709794,0.034226,0.690082,0.018938,0.658301,0.007380,0.609849,-0.011573,0.661910,-0.029341,0.689384,-0.048894,0.704335,-0.072448,0.713772,-0.096277,0.719026,-0.156507,0.722397,-0.219087,0.718984,-0.265164,0.709934,
-0.298530,0.696502,-0.322055,0.679129,-0.339075,0.657214,-0.352546,0.628007,-0.361617,0.589689,-0.364993,0.540130,-0.368315,0.409924,-0.500000,0.409924,-0.500000,1.206693,-0.368315,1.206693,-0.367191,1.136132,-0.361622,1.072311,-0.356104,1.018903,-0.340663,0.974654,-0.316340,0.937892,-0.290911,0.913048,-0.264499,0.895711,-0.236836,0.884627,-0.207310,0.879091,-0.122362,0.873229,
-0.078789,0.873229,0.082167,0.874071,0.170603,0.876425,0.232572,0.882461,0.268752,0.890966,0.298562,0.904619,0.323088,0.923640,0.351079,0.958926,0.370618,1.001749,0.380851,1.052873,0.385126,1.138660,0.384124,1.190600,0.231016,1.190600,0.231937,1.126899,0.227507,1.081627,0.216940,1.055495,0.203928,1.043735,0.181785,1.035900,0.146305,1.032817,0.115054,1.035526,
0.095087,1.042474,0.082949,1.052967,0.072669,1.075935,0.068489,1.113454,0.066877,1.190600,-0.086667,1.190600,-0.083022,1.134228,-0.072976,1.092021,-0.059436,1.068403,-0.037352,1.049147,-0.005321,1.033660,-0.098426,1.033660,-0.146102,1.036591,-0.166089,1.041523,-0.185914,1.050879,-0.201183,1.063970,-0.208922,1.080701,-0.212878,1.136132,-0.215125,1.233585,-0.214002,1.283154,
-0.211237,1.311693,-0.088070,1.311693,-0.087386,1.240600,0.066242,1.240600,0.066242,1.302461,0.070798,1.332242,0.082949,1.353276,0.096041,1.363340,0.114962,1.369773,0.141860,1.372180,0.177511,1.369207,0.200055,1.361638,0.213570,1.350345,0.224971,1.325172,0.229690,1.282311,0.230293,1.240600,0.383159,1.240600,0.381755,1.313379,0.377674,1.379758,0.367014,1.428043,
0.351758,1.462193,0.333249,1.485570,0.306941,1.503526,0.267251,1.517920,0.209662,1.527920,0.128427,1.531769,0.066817,1.528892,0.015196,1.520851,-0.015067,1.510851,-0.037931,1.496176,-0.054560,1.476338,-0.071200,1.441613,-0.081378,1.403248,-0.086277,1.362239,-0.088070,1.311693,-0.211237,1.311693,-0.210967,1.314480,-0.202767,1.338585,-0.192706,1.351534,-0.177488,1.360387,
-0.155726,1.365476,-0.155726,1.520008,-0.216585,1.517146,-0.262524,1.509507,-0.296703,1.498173,-0.317972,1.485740,-0.334853,1.469121,-0.347494,1.447492,-0.355419,1.419624,-0.363199,1.364760,-0.366605,1.321366,-0.368315,1.206693,-0.500000,1.206693,-0.500000,5.312076,-0.499040,5.321829,-0.494330,5.345511,-0.486863,5.363537,-0.476236,5.379441,-0.462442,5.393235,-0.446538,5.403862,
-0.428514,5.411328,-0.404831,5.416039,-0.395076,5.417000,0.395076,5.417000,0.404831,5.416039,0.404831,5.416039,$1*%
%AMFreePoly7*
4,1,150,0.404831,5.416039,0.428513,5.411328,0.446537,5.403862,0.462441,5.393235,0.476235,5.379441,0.486862,5.363537,0.494328,5.345513,0.499039,5.321831,0.500000,5.312076,0.500000,0.054924,0.499039,0.050092,0.499039,0.050000,0.500000,0.050000,0.500000,0.000000,0.496194,-0.019134,0.485355,-0.035355,0.469134,-0.046194,0.450000,-0.050000,-0.450000,-0.050000,-0.469134,-0.046194,
-0.485355,-0.035355,-0.496194,-0.019134,-0.500000,0.000000,-0.500000,0.050000,-0.499040,0.050000,-0.499039,0.050096,-0.500000,0.054924,-0.500000,0.409924,-0.368315,0.409924,-0.368315,0.387247,-0.366654,0.303642,-0.356591,0.202013,-0.349010,0.167456,-0.336202,0.139770,-0.318805,0.117715,-0.296947,0.100347,-0.270789,0.087832,-0.233536,0.077691,-0.181896,0.070692,-0.111957,0.068033,
-0.111957,0.226816,-0.131692,0.225973,-0.161250,0.228448,-0.181409,0.234944,-0.194804,0.244877,-0.207027,0.266528,-0.211853,0.300748,-0.215125,0.381385,-0.211804,0.474624,-0.211804,0.482172,-0.209336,0.516831,-0.203427,0.537386,-0.195781,0.548520,-0.183351,0.556122,-0.162408,0.561496,-0.129054,0.563651,-0.101542,0.560830,-0.084612,0.553571,-0.074979,0.542219,-0.067997,0.517872,
-0.065063,0.476273,-0.065063,0.333464,0.078748,0.333464,0.078748,0.467883,0.077624,0.509026,0.080005,0.532882,0.086195,0.549643,0.095210,0.561123,0.108623,0.569334,0.129392,0.574923,0.160471,0.577096,0.187754,0.574551,0.206199,0.567833,0.218308,0.557349,0.229007,0.535611,0.233060,0.504849,0.231937,0.485542,0.231937,0.391460,0.230813,0.294007,0.227440,0.265371,
0.218894,0.246754,0.206584,0.235169,0.189050,0.227540,0.162189,0.222176,0.122516,0.220075,0.122516,0.066348,0.162914,0.064663,0.221575,0.067335,0.266390,0.074504,0.300156,0.085189,0.325167,0.098855,0.343067,0.115478,0.359104,0.140770,0.371991,0.174695,0.380738,0.219364,0.384002,0.277191,0.385126,0.384719,0.385126,0.517452,0.380546,0.589729,0.368809,0.640004,
0.352389,0.673644,0.332858,0.695102,0.305098,0.712658,0.271508,0.725560,0.230883,0.733753,0.181623,0.736685,0.117786,0.732867,0.076808,0.723293,0.051783,0.709794,0.034226,0.690082,0.018938,0.658301,0.007380,0.609849,-0.011573,0.661910,-0.029341,0.689384,-0.048894,0.704335,-0.072448,0.713772,-0.096277,0.719026,-0.156507,0.722397,-0.219087,0.718984,-0.265164,0.709934,
-0.298530,0.696502,-0.322055,0.679129,-0.339075,0.657214,-0.352546,0.628007,-0.361617,0.589689,-0.364993,0.540130,-0.368315,0.409924,-0.500000,0.409924,-0.500000,0.866488,-0.368315,0.866488,-0.183862,0.866488,-0.183862,1.327667,0.385126,0.962255,0.385126,1.163866,-0.197345,1.534296,-0.368315,1.534296,-0.368315,0.866488,-0.500000,0.866488,-0.500000,5.312076,-0.499040,5.321829,
-0.494330,5.345511,-0.486863,5.363537,-0.476236,5.379441,-0.462442,5.393235,-0.446538,5.403862,-0.428514,5.411328,-0.404831,5.416039,-0.395076,5.417000,0.395076,5.417000,0.404831,5.416039,0.404831,5.416039,$1*%
%AMFreePoly8*
4,1,264,0.404831,5.416039,0.428513,5.411328,0.446537,5.403862,0.462441,5.393235,0.476235,5.379441,0.486862,5.363537,0.494328,5.345513,0.499039,5.321831,0.500000,5.312076,0.500000,0.054924,0.499039,0.050092,0.499039,0.050000,0.500000,0.050000,0.500000,0.000000,0.496194,-0.019134,0.485355,-0.035355,0.469134,-0.046194,0.450000,-0.050000,-0.450000,-0.050000,-0.469134,-0.046194,
-0.485355,-0.035355,-0.496194,-0.019134,-0.500000,0.000000,-0.500000,0.050000,-0.499040,0.050000,-0.499039,0.050096,-0.500000,0.054924,-0.500000,0.409924,-0.368315,0.409924,-0.368315,0.387247,-0.366654,0.303642,-0.356591,0.202013,-0.349010,0.167456,-0.336202,0.139770,-0.318805,0.117715,-0.296947,0.100347,-0.270789,0.087832,-0.233536,0.077691,-0.181896,0.070692,-0.111957,0.068033,
-0.111957,0.226816,-0.131692,0.225973,-0.161250,0.228448,-0.181409,0.234944,-0.194804,0.244877,-0.207027,0.266528,-0.211853,0.300748,-0.215125,0.381385,-0.211804,0.474624,-0.211804,0.482172,-0.209336,0.516831,-0.203427,0.537386,-0.195781,0.548520,-0.183351,0.556122,-0.162408,0.561496,-0.129054,0.563651,-0.101542,0.560830,-0.084612,0.553571,-0.074979,0.542219,-0.067997,0.517872,
-0.065063,0.476273,-0.065063,0.333464,0.078748,0.333464,0.078748,0.467883,0.077624,0.509026,0.080005,0.532882,0.086195,0.549643,0.095210,0.561123,0.108623,0.569334,0.129392,0.574923,0.160471,0.577096,0.187754,0.574551,0.206199,0.567833,0.218308,0.557349,0.229007,0.535611,0.233060,0.504849,0.231937,0.485542,0.231937,0.391460,0.230813,0.294007,0.227440,0.265371,
0.218894,0.246754,0.206584,0.235169,0.189050,0.227540,0.162189,0.222176,0.122516,0.220075,0.122516,0.066348,0.162914,0.064663,0.221575,0.067335,0.266390,0.074504,0.300156,0.085189,0.325167,0.098855,0.343067,0.115478,0.359104,0.140770,0.371991,0.174695,0.380738,0.219364,0.384002,0.277191,0.385126,0.384719,0.385126,0.517452,0.380546,0.589729,0.368809,0.640004,
0.352389,0.673644,0.332858,0.695102,0.305098,0.712658,0.271508,0.725560,0.230883,0.733753,0.181623,0.736685,0.117786,0.732867,0.076808,0.723293,0.051783,0.709794,0.034226,0.690082,0.018938,0.658301,0.007380,0.609849,-0.011573,0.661910,-0.029341,0.689384,-0.048894,0.704335,-0.072448,0.713772,-0.096277,0.719026,-0.156507,0.722397,-0.219087,0.718984,-0.265164,0.709934,
-0.298530,0.696502,-0.322055,0.679129,-0.339075,0.657214,-0.352546,0.628007,-0.361617,0.589689,-0.364993,0.540130,-0.368315,0.409924,-0.500000,0.409924,-0.500000,1.140345,-0.368315,1.140345,-0.363869,1.037873,-0.358501,0.985399,-0.344077,0.945739,-0.322299,0.916057,-0.299494,0.898682,-0.269297,0.885682,-0.229883,0.877196,-0.178733,0.874071,-0.120655,0.877186,-0.081797,0.885101,
-0.056807,0.896310,-0.037506,0.913068,-0.018137,0.940483,0.000834,0.982405,0.022105,0.938703,0.042795,0.909885,0.062628,0.892096,0.088131,0.880010,0.127849,0.871514,0.187338,0.868173,0.239910,0.870969,0.280088,0.878502,0.310471,0.889858,0.333077,0.904677,0.349173,0.923201,0.366958,0.961002,0.379297,1.013793,0.384002,1.085720,0.385049,1.190600,0.231594,1.190600,
0.231937,1.152948,0.228566,1.101693,0.223634,1.076128,0.216794,1.057620,0.206199,1.042512,0.193249,1.033660,0.176080,1.028863,0.148992,1.026955,0.117828,1.029910,0.097384,1.037633,0.084512,1.049633,0.073634,1.074805,0.069369,1.112648,0.069369,1.190600,-0.073973,1.190600,-0.074442,1.115982,-0.079052,1.081221,-0.091294,1.056338,-0.104995,1.044057,-0.124476,1.036456,
-0.151818,1.033660,-0.176504,1.036593,-0.193621,1.044624,-0.205160,1.058023,-0.214617,1.084453,-0.218252,1.121844,-0.217798,1.190600,-0.367024,1.190600,-0.368315,1.140345,-0.500000,1.140345,-0.500000,1.240600,-0.365740,1.240600,-0.217469,1.240600,-0.217177,1.284802,-0.213354,1.322035,-0.203548,1.347377,-0.191646,1.359808,-0.173096,1.367574,-0.145272,1.370495,-0.120764,1.367905,
-0.102794,1.360766,-0.089682,1.349063,-0.077713,1.325811,-0.073318,1.294914,-0.073659,1.240600,0.069369,1.240600,0.069369,1.283996,0.074287,1.323964,0.086759,1.349905,0.101003,1.362182,0.122634,1.370046,0.154561,1.373023,0.183575,1.369721,0.203299,1.360794,0.216256,1.346132,0.226788,1.317064,0.230813,1.276413,0.231139,1.240600,0.384710,1.240600,0.384002,1.312536,
0.382879,1.368810,0.377261,1.426329,0.367745,1.453474,0.345803,1.484727,0.325538,1.503264,0.302494,1.516045,0.276145,1.523782,0.230206,1.529532,0.164868,1.531769,0.116535,1.528451,0.082155,1.519701,0.058133,1.506563,0.039511,1.488302,0.021021,1.460700,0.003081,1.420907,-0.014974,1.460463,-0.034173,1.487592,-0.054023,1.505280,-0.079433,1.517607,-0.116666,1.526012,
-0.169892,1.529241,-0.218492,1.526307,-0.257985,1.518154,-0.290119,1.505384,-0.316193,1.488061,-0.334474,1.466988,-0.349817,1.434402,-0.360744,1.386219,-0.364993,1.317555,-0.364993,1.269708,-0.365740,1.240600,-0.500000,1.240600,-0.500000,5.312076,-0.499040,5.321829,-0.494330,5.345511,-0.486863,5.363537,-0.476236,5.379441,-0.462442,5.393235,-0.446538,5.403862,-0.428514,5.411328,
-0.404831,5.416039,-0.395076,5.417000,0.395076,5.417000,0.404831,5.416039,0.404831,5.416039,$1*%
%AMFreePoly9*
4,1,250,0.404831,5.416039,0.428513,5.411328,0.446537,5.403862,0.462441,5.393235,0.476235,5.379441,0.486862,5.363537,0.494328,5.345513,0.499039,5.321831,0.500000,5.312076,0.500000,0.054924,0.499039,0.050092,0.499039,0.050000,0.500000,0.050000,0.500000,0.000000,0.496194,-0.019134,0.485355,-0.035355,0.469134,-0.046194,0.450000,-0.050000,-0.450000,-0.050000,-0.469134,-0.046194,
-0.485355,-0.035355,-0.496194,-0.019134,-0.500000,0.000000,-0.500000,0.050000,-0.499040,0.050000,-0.499039,0.050096,-0.500000,0.054924,-0.500000,0.409924,-0.368315,0.409924,-0.368315,0.387247,-0.366654,0.303642,-0.356591,0.202013,-0.349010,0.167456,-0.336202,0.139770,-0.318805,0.117715,-0.296947,0.100347,-0.270789,0.087832,-0.233536,0.077691,-0.181896,0.070692,-0.111957,0.068033,
-0.111957,0.226816,-0.131692,0.225973,-0.161250,0.228448,-0.181409,0.234944,-0.194804,0.244877,-0.207027,0.266528,-0.211853,0.300748,-0.215125,0.381385,-0.211804,0.474624,-0.211804,0.482172,-0.209336,0.516831,-0.203427,0.537386,-0.195781,0.548520,-0.183351,0.556122,-0.162408,0.561496,-0.129054,0.563651,-0.101542,0.560830,-0.084612,0.553571,-0.074979,0.542219,-0.067997,0.517872,
-0.065063,0.476273,-0.065063,0.333464,0.078748,0.333464,0.078748,0.467883,0.077624,0.509026,0.080005,0.532882,0.086195,0.549643,0.095210,0.561123,0.108623,0.569334,0.129392,0.574923,0.160471,0.577096,0.187754,0.574551,0.206199,0.567833,0.218308,0.557349,0.229007,0.535611,0.233060,0.504849,0.231937,0.485542,0.231937,0.391460,0.230813,0.294007,0.227440,0.265371,
0.218894,0.246754,0.206584,0.235169,0.189050,0.227540,0.162189,0.222176,0.122516,0.220075,0.122516,0.066348,0.162914,0.064663,0.221575,0.067335,0.266390,0.074504,0.300156,0.085189,0.325167,0.098855,0.343067,0.115478,0.359104,0.140770,0.371991,0.174695,0.380738,0.219364,0.384002,0.277191,0.385126,0.384719,0.385126,0.517452,0.380546,0.589729,0.368809,0.640004,
0.352389,0.673644,0.332858,0.695102,0.305098,0.712658,0.271508,0.725560,0.230883,0.733753,0.181623,0.736685,0.117786,0.732867,0.076808,0.723293,0.051783,0.709794,0.034226,0.690082,0.018938,0.658301,0.007380,0.609849,-0.011573,0.661910,-0.029341,0.689384,-0.048894,0.704335,-0.072448,0.713772,-0.096277,0.719026,-0.156507,0.722397,-0.219087,0.718984,-0.265164,0.709934,
-0.298530,0.696502,-0.322055,0.679129,-0.339075,0.657214,-0.352546,0.628007,-0.361617,0.589689,-0.364993,0.540130,-0.368315,0.409924,-0.500000,0.409924,-0.500000,1.190600,-0.366933,1.190600,-0.364993,1.080701,-0.361420,1.026363,-0.351786,0.983964,-0.337433,0.951316,-0.319271,0.926535,-0.293937,0.906693,-0.257994,0.891468,-0.208384,0.881252,-0.140973,0.877405,-0.076334,0.880264,
-0.027206,0.887914,0.009566,0.899264,0.036584,0.913700,0.055740,0.931151,0.072845,0.957887,0.086709,0.994447,0.096192,1.043370,0.099752,1.107555,0.098364,1.190600,-0.052831,1.190600,-0.053681,1.135326,-0.057539,1.086185,-0.066479,1.059269,-0.078397,1.047449,-0.100577,1.039423,-0.138287,1.036188,-0.161727,1.038265,-0.180067,1.044054,-0.194511,1.053407,-0.204091,1.066020,
-0.211144,1.087297,-0.214002,1.121038,-0.215125,1.186543,-0.215020,1.190600,-0.366933,1.190600,-0.500000,1.190600,-0.500000,1.268866,-0.368315,1.268866,-0.367816,1.240600,-0.213721,1.240600,-0.212878,1.273079,-0.210680,1.310851,-0.208074,1.333420,-0.201266,1.349214,-0.191190,1.360017,-0.176863,1.367652,-0.156246,1.372764,-0.127149,1.374708,-0.098085,1.371619,-0.078994,1.363439,
-0.067017,1.350345,-0.057421,1.323710,-0.053681,1.284839,-0.053031,1.240600,0.097528,1.240600,0.097505,1.241974,0.094186,1.285506,0.085293,1.318838,0.074248,1.338374,0.057418,1.355187,0.034149,1.369652,0.130771,1.369652,0.167424,1.367106,0.192396,1.360506,0.208929,1.350748,0.220008,1.337019,0.227773,1.315960,0.230813,1.284802,0.231937,1.189071,0.229641,1.103379,
0.226532,1.071415,0.218308,1.047948,0.208087,1.036015,0.192456,1.028784,0.169411,1.026113,0.169411,0.868173,0.198622,0.867330,0.247438,0.870184,0.284243,0.877851,0.311702,0.889432,0.331783,0.904699,0.351387,0.931133,0.367021,0.968569,0.377261,1.020214,0.385126,1.189071,0.381755,1.303304,0.377577,1.369180,0.366579,1.417842,0.350680,1.452913,0.331175,1.477478,
0.308580,1.493960,0.271908,1.508798,0.216961,1.521251,0.137781,1.530058,0.027408,1.533454,-0.029599,1.533454,-0.133011,1.531329,-0.177140,1.527635,-0.229682,1.520008,-0.263359,1.511219,-0.291182,1.497720,-0.314093,1.479269,-0.331978,1.457362,-0.345617,1.432457,-0.354881,1.404091,-0.366605,1.337742,-0.368315,1.268866,-0.500000,1.268866,-0.500000,5.312076,-0.499040,5.321829,
-0.494330,5.345511,-0.486863,5.363537,-0.476236,5.379441,-0.462442,5.393235,-0.446538,5.403862,-0.428514,5.411328,-0.404831,5.416039,-0.395076,5.417000,0.395076,5.417000,0.404831,5.416039,0.404831,5.416039,$1*%
%AMFreePoly10*
4,1,157,0.404831,5.416039,0.428513,5.411328,0.446537,5.403862,0.462441,5.393235,0.476235,5.379441,0.486862,5.363537,0.494328,5.345513,0.499039,5.321831,0.500000,5.312076,0.500000,0.054924,0.499039,0.050092,0.499039,0.050000,0.500000,0.050000,0.500000,0.000000,0.496194,-0.019134,0.485355,-0.035355,0.469134,-0.046194,0.450000,-0.050000,-0.450000,-0.050000,-0.469134,-0.046194,
-0.485355,-0.035355,-0.496194,-0.019134,-0.500000,0.000000,-0.500000,0.050000,-0.499040,0.050000,-0.499039,0.050096,-0.500000,0.054924,-0.500000,0.395800,-0.313444,0.395800,-0.028328,0.056273,0.231937,0.056273,0.231937,0.395800,0.081874,0.395800,0.081874,0.173033,-0.109036,0.395800,-0.313444,0.395800,-0.500000,0.395800,-0.500000,0.658576,-0.368315,0.658576,-0.368315,0.461142,
-0.355432,0.445800,-0.151885,0.445800,-0.200324,0.502322,0.081874,0.502322,0.081874,0.445800,0.231937,0.445800,0.231937,0.502322,0.385126,0.502322,0.385126,0.658576,0.231937,0.658576,0.231937,0.749288,0.081874,0.749288,0.081874,0.658576,-0.368315,0.658576,-0.500000,0.658576,-0.500000,1.190600,-0.368066,1.190600,-0.366067,1.094989,-0.361854,1.027010,-0.350723,0.976362,
-0.334574,0.939488,-0.314716,0.913344,-0.291720,0.895504,-0.254250,0.879327,-0.197011,0.865694,-0.113240,0.855996,0.005035,0.852236,0.046410,0.852236,0.141910,0.855305,0.212815,0.863393,0.264160,0.875069,0.300293,0.889303,0.324749,0.905579,0.342998,0.926257,0.359182,0.955935,0.372487,0.997189,0.381665,1.053039,0.385126,1.126899,0.384314,1.190600,0.200215,1.190600,
0.198427,1.137817,0.195058,1.093670,0.186597,1.064577,0.174952,1.046355,0.161057,1.035748,0.134070,1.026689,0.085840,1.019725,0.006501,1.016844,-0.008007,1.016844,-0.073343,1.019030,-0.117071,1.024537,-0.144879,1.032060,-0.161441,1.040767,-0.172795,1.053248,-0.182809,1.075118,-0.190255,1.110569,-0.193241,1.164708,-0.193241,1.190600,-0.368066,1.190600,-0.500000,1.190600,
-0.500000,1.268023,-0.369438,1.268023,-0.368968,1.240600,-0.193241,1.240600,-0.193241,1.243660,-0.192118,1.272639,-0.186549,1.319241,-0.178821,1.339396,-0.164225,1.358332,-0.142350,1.372772,-0.108977,1.381413,-0.070275,1.385125,-0.023639,1.386468,0.022132,1.386468,0.085817,1.384000,0.128252,1.377784,0.155157,1.369242,0.171120,1.359174,0.185552,1.339239,0.196295,1.305086,
0.200674,1.250364,0.200674,1.240600,0.383677,1.240600,0.382879,1.303304,0.377835,1.382908,0.364983,1.437667,0.347122,1.473810,0.326472,1.497890,0.301983,1.516291,0.273344,1.529740,0.239801,1.538510,0.156798,1.547303,0.005035,1.551113,-0.081596,1.549794,-0.138580,1.546496,-0.190097,1.540101,-0.240869,1.530120,-0.271952,1.519711,-0.298200,1.504221,-0.320248,1.483079,
-0.343863,1.445656,-0.357666,1.401599,-0.367728,1.335214,-0.369438,1.268023,-0.500000,1.268023,-0.500000,5.312076,-0.499040,5.321829,-0.494330,5.345511,-0.486863,5.363537,-0.476236,5.379441,-0.462442,5.393235,-0.446538,5.403862,-0.428514,5.411328,-0.404831,5.416039,-0.395076,5.417000,0.395076,5.417000,0.404831,5.416039,0.404831,5.416039,$1*%
%AMFreePoly11*
4,1,77,0.404831,5.416039,0.428513,5.411328,0.446537,5.403862,0.462441,5.393235,0.476235,5.379441,0.486862,5.363537,0.494328,5.345513,0.499039,5.321831,0.500000,5.312076,0.500000,0.054924,0.499039,0.050092,0.499039,0.050000,0.500000,0.050000,0.500000,0.000000,0.496194,-0.019134,0.485355,-0.035355,0.469134,-0.046194,0.450000,-0.050000,-0.450000,-0.050000,-0.469134,-0.046194,
-0.485355,-0.035355,-0.496194,-0.019134,-0.500000,0.000000,-0.500000,0.050000,-0.499040,0.050000,-0.499039,0.050096,-0.500000,0.054924,-0.500000,0.395800,-0.313444,0.395800,-0.028328,0.056273,0.231937,0.056273,0.231937,0.395800,0.081874,0.395800,0.081874,0.173033,-0.109036,0.395800,-0.313444,0.395800,-0.500000,0.395800,-0.500000,0.658576,-0.368315,0.658576,-0.368315,0.461142,
-0.355432,0.445800,-0.151885,0.445800,-0.200324,0.502322,0.081874,0.502322,0.081874,0.445800,0.231937,0.445800,0.231937,0.502322,0.385126,0.502322,0.385126,0.658576,0.231937,0.658576,0.231937,0.749288,0.081874,0.749288,0.081874,0.658576,-0.368315,0.658576,-0.500000,0.658576,-0.500000,1.152105,-0.368315,1.152105,-0.155726,0.912686,-0.003416,0.988304,-0.192460,1.191563,
0.385126,1.191563,0.385126,1.358735,-0.368315,1.358735,-0.368315,1.152105,-0.500000,1.152105,-0.500000,5.312076,-0.499040,5.321829,-0.494330,5.345511,-0.486863,5.363537,-0.476236,5.379441,-0.462442,5.393235,-0.446538,5.403862,-0.428514,5.411328,-0.404831,5.416039,-0.395076,5.417000,0.395076,5.417000,0.404831,5.416039,0.404831,5.416039,$1*%
%AMFreePoly12*
4,1,140,0.404831,5.416039,0.428513,5.411328,0.446537,5.403862,0.462441,5.393235,0.476235,5.379441,0.486862,5.363537,0.494328,5.345513,0.499039,5.321831,0.500000,5.312076,0.500000,0.054924,0.499039,0.050092,0.499039,0.050000,0.500000,0.050000,0.500000,0.000000,0.496194,-0.019134,0.485355,-0.035355,0.469134,-0.046194,0.450000,-0.050000,-0.450000,-0.050000,-0.469134,-0.046194,
-0.485355,-0.035355,-0.496194,-0.019134,-0.500000,0.000000,-0.500000,0.050000,-0.499040,0.050000,-0.499039,0.050096,-0.500000,0.054924,-0.500000,0.395800,-0.313444,0.395800,-0.028328,0.056273,0.231937,0.056273,0.231937,0.395800,0.081874,0.395800,0.081874,0.173033,-0.109036,0.395800,-0.313444,0.395800,-0.500000,0.395800,-0.500000,0.658576,-0.368315,0.658576,-0.368315,0.461142,
-0.355432,0.445800,-0.151885,0.445800,-0.200324,0.502322,0.081874,0.502322,0.081874,0.445800,0.231937,0.445800,0.231937,0.502322,0.385126,0.502322,0.385126,0.658576,0.231937,0.658576,0.231937,0.749288,0.081874,0.749288,0.081874,0.658576,-0.368315,0.658576,-0.500000,0.658576,-0.500000,1.267180,-0.368315,1.267180,-0.363820,1.079016,-0.360775,1.016632,-0.352823,0.971114,
-0.341513,0.938901,-0.328014,0.916899,-0.307471,0.899788,-0.273859,0.885981,-0.222173,0.876216,-0.145760,0.872386,-0.093199,0.873229,-0.093199,1.027761,-0.118943,1.027761,-0.152453,1.029849,-0.166784,1.033366,-0.182690,1.040364,-0.195929,1.050598,-0.205600,1.065973,-0.210932,1.084069,-0.212878,1.106713,-0.215125,1.205851,-0.215125,1.293229,-0.212864,1.324355,-0.207334,1.343727,
-0.199982,1.354961,-0.188174,1.362965,-0.169536,1.368383,-0.141218,1.370495,-0.125537,1.371338,-0.099039,1.369076,-0.081204,1.363161,-0.069557,1.354118,-0.058181,1.333801,-0.049431,1.297405,-0.017826,1.003435,-0.007687,0.965989,0.006379,0.937637,0.023595,0.916572,0.043674,0.901366,0.077863,0.886838,0.126209,0.876979,0.193249,0.873229,0.385126,0.873229,0.385126,1.530083,
0.235063,1.530083,0.235063,1.026955,0.201260,1.026955,0.171394,1.029461,0.153267,1.035742,0.143032,1.045017,0.134690,1.065211,0.131357,1.096674,0.119683,1.214277,0.106884,1.352836,0.102438,1.407326,0.090782,1.446821,0.073859,1.474776,0.052662,1.493960,0.024794,1.508014,-0.014775,1.519337,-0.069510,1.527128,-0.143562,1.530083,-0.208161,1.527103,-0.256444,1.519184,
-0.291916,1.507504,-0.317414,1.492677,-0.336687,1.473202,-0.351892,1.446276,-0.362196,1.409813,-0.366067,1.361263,-0.368315,1.267180,-0.500000,1.267180,-0.500000,5.312076,-0.499040,5.321829,-0.494330,5.345511,-0.486863,5.363537,-0.476236,5.379441,-0.462442,5.393235,-0.446538,5.403862,-0.428514,5.411328,-0.404831,5.416039,-0.395076,5.417000,0.395076,5.417000,0.404831,5.416039,
0.404831,5.416039,$1*%
%AMFreePoly13*
4,1,168,0.404831,5.416039,0.428513,5.411328,0.446537,5.403862,0.462441,5.393235,0.476235,5.379441,0.486862,5.363537,0.494328,5.345513,0.499039,5.321831,0.500000,5.312076,0.500000,0.054924,0.499039,0.050092,0.499039,0.050000,0.500000,0.050000,0.500000,0.000000,0.496194,-0.019134,0.485355,-0.035355,0.469134,-0.046194,0.450000,-0.050000,-0.450000,-0.050000,-0.469134,-0.046194,
-0.485355,-0.035355,-0.496194,-0.019134,-0.500000,0.000000,-0.500000,0.050000,-0.499040,0.050000,-0.499039,0.050096,-0.500000,0.054924,-0.500000,0.395800,-0.313444,0.395800,-0.028328,0.056273,0.231937,0.056273,0.231937,0.395800,0.081874,0.395800,0.081874,0.173033,-0.109036,0.395800,-0.313444,0.395800,-0.500000,0.395800,-0.500000,0.658576,-0.368315,0.658576,-0.368315,0.461142,
-0.355432,0.445800,-0.151885,0.445800,-0.200324,0.502322,0.081874,0.502322,0.081874,0.445800,0.231937,0.445800,0.231937,0.502322,0.385126,0.502322,0.385126,0.658576,0.231937,0.658576,0.231937,0.749288,0.081874,0.749288,0.081874,0.658576,-0.368315,0.658576,-0.500000,0.658576,-0.500000,1.210064,-0.368315,1.210064,-0.368315,1.187386,-0.366654,1.103782,-0.356591,1.002152,
-0.349010,0.967596,-0.336202,0.939910,-0.318805,0.917854,-0.296947,0.900486,-0.270789,0.887971,-0.233536,0.877830,-0.181896,0.870831,-0.111957,0.868173,-0.111957,1.026955,-0.131692,1.026113,-0.161250,1.028587,-0.181409,1.035084,-0.194804,1.045017,-0.207027,1.066667,-0.211853,1.100887,-0.215125,1.181524,-0.211804,1.274764,-0.211804,1.282311,-0.209336,1.316971,-0.203427,1.337526,
-0.195781,1.348660,-0.183351,1.356262,-0.162408,1.361636,-0.129054,1.363790,-0.101542,1.360969,-0.084612,1.353710,-0.074979,1.342358,-0.067997,1.318011,-0.065063,1.276413,-0.065063,1.133604,0.078748,1.133604,0.078748,1.268023,0.077624,1.309166,0.080005,1.333022,0.086195,1.349783,0.095210,1.361263,0.108623,1.369474,0.129392,1.375063,0.160471,1.377236,0.187754,1.374691,
0.206199,1.367972,0.218308,1.357489,0.229007,1.335751,0.233060,1.304989,0.231937,1.285682,0.231937,1.191599,0.230813,1.094146,0.227440,1.065510,0.218894,1.046893,0.206584,1.035308,0.189050,1.027680,0.162189,1.022315,0.122516,1.020214,0.122516,0.866488,0.162914,0.864802,0.221575,0.867474,0.266390,0.874644,0.300156,0.885329,0.325167,0.898995,0.343067,0.915617,
0.359104,0.940910,0.371991,0.974834,0.380738,1.019504,0.384002,1.077330,0.385126,1.184858,0.385126,1.317592,0.380546,1.389869,0.368809,1.440144,0.352389,1.473784,0.332858,1.495242,0.305098,1.512797,0.271508,1.525700,0.230883,1.533893,0.181623,1.536824,0.117786,1.533006,0.076808,1.523433,0.051783,1.509933,0.034226,1.490221,0.018938,1.458440,0.007380,1.409989,
-0.011573,1.462049,-0.029341,1.489524,-0.048894,1.504474,-0.072448,1.513912,-0.096277,1.519166,-0.156507,1.522536,-0.219087,1.519124,-0.265164,1.510074,-0.298530,1.496642,-0.322055,1.479269,-0.339075,1.457354,-0.352546,1.428147,-0.361617,1.389828,-0.364993,1.340270,-0.368315,1.210064,-0.500000,1.210064,-0.500000,5.312076,-0.499040,5.321829,-0.494330,5.345511,-0.486863,5.363537,
-0.476236,5.379441,-0.462442,5.393235,-0.446538,5.403862,-0.428514,5.411328,-0.404831,5.416039,-0.395076,5.417000,0.395076,5.417000,0.404831,5.416039,0.404831,5.416039,$1*%
%AMFreePoly14*
4,1,95,0.404831,5.416039,0.428513,5.411328,0.446537,5.403862,0.462441,5.393235,0.476235,5.379441,0.486862,5.363537,0.494328,5.345513,0.499039,5.321831,0.500000,5.312076,0.500000,0.054924,0.499039,0.050092,0.499039,0.050000,0.500000,0.050000,0.500000,0.000000,0.496194,-0.019134,0.485355,-0.035355,0.469134,-0.046194,0.450000,-0.050000,-0.450000,-0.050000,-0.469134,-0.046194,
-0.485355,-0.035355,-0.496194,-0.019134,-0.500000,0.000000,-0.500000,0.050000,-0.499040,0.050000,-0.499039,0.050096,-0.500000,0.054924,-0.500000,0.395800,-0.313444,0.395800,-0.028328,0.056273,0.231937,0.056273,0.231937,0.395800,0.081874,0.395800,0.081874,0.173033,-0.109036,0.395800,-0.313444,0.395800,-0.500000,0.395800,-0.500000,0.658576,-0.368315,0.658576,-0.368315,0.461142,
-0.355432,0.445800,-0.151885,0.445800,-0.200324,0.502322,0.081874,0.502322,0.081874,0.445800,0.231937,0.445800,0.231937,0.502322,0.385126,0.502322,0.385126,0.658576,0.231937,0.658576,0.231937,0.749288,0.081874,0.749288,0.081874,0.658576,-0.368315,0.658576,-0.500000,0.658576,-0.500000,1.183200,-0.302746,1.183200,-0.028328,0.856413,0.231937,0.856413,0.231937,1.183200,
0.081874,1.183200,0.081874,0.973173,-0.098118,1.183200,-0.302746,1.183200,-0.500000,1.183200,-0.500000,1.458715,-0.368315,1.458715,-0.368315,1.261282,-0.344733,1.233200,-0.140968,1.233200,-0.200324,1.302461,0.081874,1.302461,0.081874,1.233200,0.231937,1.233200,0.231937,1.302461,0.385126,1.302461,0.385126,1.458715,0.231937,1.458715,0.231937,1.549427,0.081874,1.549427,
0.081874,1.458715,-0.368315,1.458715,-0.500000,1.458715,-0.500000,5.312076,-0.499040,5.321829,-0.494330,5.345511,-0.486863,5.363537,-0.476236,5.379441,-0.462442,5.393235,-0.446538,5.403862,-0.428514,5.411328,-0.404831,5.416039,-0.395076,5.417000,0.395076,5.417000,0.404831,5.416039,0.404831,5.416039,$1*%
%AMFreePoly15*
4,1,138,0.404831,5.416039,0.428513,5.411328,0.446537,5.403862,0.462441,5.393235,0.476235,5.379441,0.486862,5.363537,0.494328,5.345513,0.499039,5.321831,0.500000,5.312076,0.500000,0.054924,0.499039,0.050092,0.499039,0.050000,0.500000,0.050000,0.500000,0.000000,0.496194,-0.019134,0.485355,-0.035355,0.469134,-0.046194,0.450000,-0.050000,-0.450000,-0.050000,-0.469134,-0.046194,
-0.485355,-0.035355,-0.496194,-0.019134,-0.500000,0.000000,-0.500000,0.050000,-0.499040,0.050000,-0.499039,0.050096,-0.500000,0.054924,-0.500000,0.395800,-0.313443,0.395800,-0.028327,0.056273,0.231937,0.056273,0.231937,0.395800,0.081874,0.395800,0.081874,0.173033,-0.109035,0.395800,-0.313443,0.395800,-0.500000,0.395800,-0.500000,0.658576,-0.368314,0.658576,-0.368314,0.461142,
-0.355431,0.445800,-0.151884,0.445800,-0.200323,0.502322,0.081874,0.502322,0.081874,0.445800,0.231937,0.445800,0.231937,0.502322,0.385126,0.502322,0.385126,0.658576,0.231937,0.658576,0.231937,0.749288,0.081874,0.749288,0.081874,0.658576,-0.368314,0.658576,-0.500000,0.658576,-0.500000,1.512461,-0.368314,1.512461,-0.368314,0.897555,0.072495,0.890008,0.072495,1.033660,
0.053166,1.037754,0.040771,1.044469,0.033514,1.053810,0.024233,1.083229,0.022474,1.115982,0.022474,1.208379,0.024721,1.299933,0.027905,1.328631,0.036090,1.348072,0.047973,1.360823,0.065083,1.369633,0.090962,1.375691,0.128915,1.378042,0.170942,1.375016,0.196976,1.367460,0.212153,1.356610,0.221439,1.341472,0.228152,1.317758,0.230813,1.282274,0.231937,1.210907,
0.229690,1.129427,0.227617,1.095629,0.221239,1.060111,0.213879,1.044795,0.200681,1.034048,0.180527,1.027080,0.150653,1.024427,0.150653,0.868173,0.222424,0.871803,0.273981,0.881305,0.310151,0.895149,0.334665,0.912686,0.352232,0.935210,0.366312,0.966081,0.375906,1.007538,0.379508,1.062199,0.385126,1.222667,0.385126,1.286488,0.384002,1.349502,0.378938,1.404011,
0.365433,1.444774,0.345315,1.474817,0.319327,1.496488,0.286166,1.512634,0.242362,1.525259,0.185278,1.533697,0.111769,1.536824,0.036481,1.532895,-0.016809,1.522672,-0.053582,1.507845,-0.075989,1.492008,-0.093629,1.472091,-0.106571,1.447340,-0.114350,1.416693,-0.123875,1.319680,-0.124461,1.248715,-0.124461,1.196618,-0.123338,1.144558,-0.119917,1.109797,-0.110442,1.081543,
-0.092757,1.056542,-0.063889,1.033660,-0.218251,1.033660,-0.218251,1.512461,-0.368314,1.512461,-0.500000,1.512461,-0.500000,5.312076,-0.499040,5.321829,-0.494330,5.345511,-0.486863,5.363537,-0.476236,5.379441,-0.462442,5.393235,-0.446538,5.403862,-0.428514,5.411328,-0.404831,5.416039,-0.395076,5.417000,0.395076,5.417000,0.404831,5.416039,0.404831,5.416039,$1*%
%AMFreePoly16*
4,1,172,0.404831,5.416039,0.428513,5.411328,0.446537,5.403862,0.462441,5.393235,0.476235,5.379441,0.486862,5.363537,0.494328,5.345513,0.499039,5.321831,0.500000,5.312076,0.500000,0.054924,0.499039,0.050092,0.499039,0.050000,0.500000,0.050000,0.500000,0.000000,0.496194,-0.019134,0.485355,-0.035355,0.469134,-0.046194,0.450000,-0.050000,-0.450000,-0.050000,-0.469134,-0.046194,
-0.485355,-0.035355,-0.496194,-0.019134,-0.500000,0.000000,-0.500000,0.050000,-0.499040,0.050000,-0.499039,0.050096,-0.500000,0.054924,-0.500000,0.395800,-0.313443,0.395800,-0.028327,0.056273,0.231938,0.056273,0.231938,0.395800,0.081875,0.395800,0.081875,0.173033,-0.109035,0.395800,-0.313443,0.395800,-0.500000,0.395800,-0.500000,0.658576,-0.368314,0.658576,-0.368314,0.461142,
-0.355431,0.445800,-0.151884,0.445800,-0.200323,0.502322,0.081875,0.502322,0.081875,0.445800,0.231938,0.445800,0.231938,0.502322,0.385127,0.502322,0.385127,0.658576,0.231938,0.658576,0.231938,0.749288,0.081875,0.749288,0.081875,0.658576,-0.368314,0.658576,-0.500000,0.658576,-0.500000,1.206693,-0.368314,1.206693,-0.367190,1.136132,-0.361621,1.072311,-0.356103,1.018903,
-0.340662,0.974654,-0.316339,0.937892,-0.290910,0.913048,-0.264498,0.895711,-0.236835,0.884627,-0.207309,0.879091,-0.122361,0.873229,-0.078788,0.873229,0.082168,0.874071,0.170604,0.876425,0.232573,0.882461,0.268753,0.890966,0.298563,0.904619,0.323089,0.923640,0.351080,0.958926,0.370619,1.001749,0.380852,1.052873,0.385127,1.138660,0.384268,1.183200,0.231124,1.183200,
0.231938,1.126899,0.227508,1.081627,0.216941,1.055495,0.203929,1.043735,0.181786,1.035900,0.146306,1.032817,0.115055,1.035526,0.095088,1.042474,0.082950,1.052967,0.072670,1.075935,0.068490,1.113454,0.067033,1.183200,-0.086187,1.183200,-0.083021,1.134228,-0.072975,1.092021,-0.059435,1.068403,-0.037351,1.049147,-0.005320,1.033660,-0.098425,1.033660,-0.146101,1.036591,
-0.166088,1.041523,-0.185913,1.050879,-0.201182,1.063970,-0.208921,1.080701,-0.212877,1.136132,-0.215124,1.233585,-0.214001,1.283154,-0.211236,1.311693,-0.088069,1.311693,-0.087314,1.233200,0.066243,1.233200,0.066243,1.302461,0.070799,1.332242,0.082950,1.353276,0.096042,1.363340,0.114963,1.369773,0.141861,1.372180,0.177512,1.369207,0.200056,1.361638,0.213571,1.350345,
0.224972,1.325172,0.229691,1.282311,0.230401,1.233200,0.383303,1.233200,0.381756,1.313379,0.377675,1.379758,0.367015,1.428043,0.351759,1.462193,0.333250,1.485570,0.306942,1.503526,0.267252,1.517920,0.209663,1.527920,0.128428,1.531769,0.066818,1.528892,0.015197,1.520851,-0.015066,1.510851,-0.037930,1.496176,-0.054559,1.476338,-0.071199,1.441613,-0.081377,1.403248,
-0.086276,1.362239,-0.088069,1.311693,-0.211236,1.311693,-0.210966,1.314480,-0.202766,1.338585,-0.192705,1.351534,-0.177487,1.360387,-0.155725,1.365476,-0.155725,1.520008,-0.216584,1.517146,-0.262523,1.509507,-0.296702,1.498173,-0.317971,1.485740,-0.334852,1.469121,-0.347493,1.447492,-0.355418,1.419624,-0.363198,1.364760,-0.366604,1.321366,-0.368314,1.206693,-0.500000,1.206693,
-0.500000,5.312076,-0.499040,5.321829,-0.494330,5.345511,-0.486863,5.363537,-0.476236,5.379441,-0.462442,5.393235,-0.446538,5.403862,-0.428514,5.411328,-0.404831,5.416039,-0.395076,5.417000,0.395076,5.417000,0.404831,5.416039,0.404831,5.416039,$1*%
%AMFreePoly17*
4,1,77,0.404831,5.416039,0.428513,5.411328,0.446537,5.403862,0.462441,5.393235,0.476235,5.379441,0.486862,5.363537,0.494328,5.345513,0.499039,5.321831,0.500000,5.312076,0.500000,0.054924,0.499039,0.050092,0.499039,0.050000,0.500000,0.050000,0.500000,0.000000,0.496194,-0.019134,0.485355,-0.035355,0.469134,-0.046194,0.450000,-0.050000,-0.450000,-0.050000,-0.469134,-0.046194,
-0.485355,-0.035355,-0.496194,-0.019134,-0.500000,0.000000,-0.500000,0.050000,-0.499040,0.050000,-0.499039,0.050096,-0.500000,0.054924,-0.500000,0.395800,-0.313443,0.395800,-0.028327,0.056273,0.231938,0.056273,0.231938,0.395800,0.081875,0.395800,0.081875,0.173033,-0.109035,0.395800,-0.313443,0.395800,-0.500000,0.395800,-0.500000,0.658576,-0.368314,0.658576,-0.368314,0.461142,
-0.355431,0.445800,-0.151884,0.445800,-0.200323,0.502322,0.081875,0.502322,0.081875,0.445800,0.231938,0.445800,0.231938,0.502322,0.385127,0.502322,0.385127,0.658576,0.231938,0.658576,0.231938,0.749288,0.081875,0.749288,0.081875,0.658576,-0.368314,0.658576,-0.500000,0.658576,-0.500000,0.866488,-0.368314,0.866488,-0.183861,0.866488,-0.183861,1.327667,0.385127,0.962255,
0.385127,1.163866,-0.197344,1.534296,-0.368314,1.534296,-0.368314,0.866488,-0.500000,0.866488,-0.500000,5.312076,-0.499040,5.321829,-0.494330,5.345511,-0.486863,5.363537,-0.476236,5.379441,-0.462442,5.393235,-0.446538,5.403862,-0.428514,5.411328,-0.404831,5.416039,-0.395076,5.417000,0.395076,5.417000,0.404831,5.416039,0.404831,5.416039,$1*%
%AMFreePoly18*
4,1,191,0.404831,5.416039,0.428513,5.411328,0.446537,5.403862,0.462441,5.393235,0.476235,5.379441,0.486862,5.363537,0.494328,5.345513,0.499039,5.321831,0.500000,5.312076,0.500000,0.054924,0.499039,0.050092,0.499039,0.050000,0.500000,0.050000,0.500000,0.000000,0.496194,-0.019134,0.485355,-0.035355,0.469134,-0.046194,0.450000,-0.050000,-0.450000,-0.050000,-0.469134,-0.046194,
-0.485355,-0.035355,-0.496194,-0.019134,-0.500000,0.000000,-0.500000,0.050000,-0.499040,0.050000,-0.499039,0.050096,-0.500000,0.054924,-0.500000,0.395800,-0.313443,0.395800,-0.028327,0.056273,0.231938,0.056273,0.231938,0.395800,0.081875,0.395800,0.081875,0.173033,-0.109035,0.395800,-0.313443,0.395800,-0.500000,0.395800,-0.500000,0.658576,-0.368314,0.658576,-0.368314,0.461142,
-0.355431,0.445800,-0.151884,0.445800,-0.200323,0.502322,0.081875,0.502322,0.081875,0.445800,0.231938,0.445800,0.231938,0.502322,0.385127,0.502322,0.385127,0.658576,0.231938,0.658576,0.231938,0.749288,0.081875,0.749288,0.081875,0.658576,-0.368314,0.658576,-0.500000,0.658576,-0.500000,1.140345,-0.368314,1.140345,-0.363868,1.037873,-0.358500,0.985399,-0.344076,0.945739,
-0.322298,0.916057,-0.299493,0.898682,-0.269296,0.885682,-0.229882,0.877196,-0.178732,0.874071,-0.120654,0.877186,-0.081796,0.885101,-0.056806,0.896310,-0.037505,0.913068,-0.018136,0.940483,0.000835,0.982405,0.022106,0.938703,0.042796,0.909885,0.062629,0.892096,0.088132,0.880010,0.127850,0.871514,0.187339,0.868173,0.239911,0.870969,0.280089,0.878502,0.310472,0.889858,
0.333078,0.904677,0.349174,0.923201,0.366959,0.961002,0.379298,1.013793,0.384003,1.085720,0.384976,1.183200,0.231663,1.183200,0.231938,1.152948,0.228567,1.101693,0.223635,1.076128,0.216795,1.057620,0.206200,1.042512,0.193250,1.033660,0.176081,1.028863,0.148993,1.026955,0.117829,1.029910,0.097385,1.037633,0.084513,1.049633,0.073635,1.074805,0.069370,1.112648,
0.069370,1.183200,-0.074019,1.183200,-0.074441,1.115982,-0.079051,1.081221,-0.091293,1.056338,-0.104994,1.044057,-0.124475,1.036456,-0.151817,1.033660,-0.176503,1.036593,-0.193620,1.044624,-0.205159,1.058023,-0.214616,1.084453,-0.218251,1.121844,-0.217846,1.183200,-0.367213,1.183200,-0.368314,1.140345,-0.500000,1.140345,-0.500000,1.233200,-0.365930,1.233200,-0.217516,1.233200,
-0.217176,1.284802,-0.213353,1.322035,-0.203547,1.347377,-0.191645,1.359808,-0.173095,1.367574,-0.145271,1.370495,-0.120763,1.367905,-0.102793,1.360766,-0.089681,1.349063,-0.077712,1.325811,-0.073317,1.294914,-0.073705,1.233200,0.069370,1.233200,0.069370,1.283996,0.074288,1.323964,0.086760,1.349905,0.101004,1.362182,0.122635,1.370046,0.154562,1.373023,0.183576,1.369721,
0.203300,1.360794,0.216257,1.346132,0.226789,1.317064,0.230814,1.276413,0.231207,1.233200,0.384784,1.233200,0.384003,1.312536,0.382880,1.368810,0.377262,1.426329,0.367746,1.453474,0.345804,1.484727,0.325539,1.503264,0.302495,1.516045,0.276146,1.523782,0.230207,1.529532,0.164869,1.531769,0.116536,1.528451,0.082156,1.519701,0.058134,1.506563,0.039512,1.488302,
0.021022,1.460700,0.003082,1.420907,-0.014973,1.460463,-0.034172,1.487592,-0.054022,1.505280,-0.079432,1.517607,-0.116665,1.526012,-0.169891,1.529241,-0.218491,1.526307,-0.257984,1.518154,-0.290118,1.505384,-0.316192,1.488061,-0.334473,1.466988,-0.349816,1.434402,-0.360743,1.386219,-0.364992,1.317555,-0.364992,1.269708,-0.365930,1.233200,-0.500000,1.233200,-0.500000,5.312076,
-0.499040,5.321829,-0.494330,5.345511,-0.486863,5.363537,-0.476236,5.379441,-0.462442,5.393235,-0.446538,5.403862,-0.428514,5.411328,-0.404831,5.416039,-0.395076,5.417000,0.395076,5.417000,0.404831,5.416039,0.404831,5.416039,$1*%
%AMFreePoly19*
4,1,177,0.404831,5.416039,0.428513,5.411328,0.446537,5.403862,0.462441,5.393235,0.476235,5.379441,0.486862,5.363537,0.494328,5.345513,0.499039,5.321831,0.500000,5.312076,0.500000,0.054924,0.499039,0.050092,0.499039,0.050000,0.500000,0.050000,0.500000,0.000000,0.496194,-0.019134,0.485355,-0.035355,0.469134,-0.046194,0.450000,-0.050000,-0.450000,-0.050000,-0.469134,-0.046194,
-0.485355,-0.035355,-0.496194,-0.019134,-0.500000,0.000000,-0.500000,0.050000,-0.499040,0.050000,-0.499039,0.050096,-0.500000,0.054924,-0.500000,0.395800,-0.313443,0.395800,-0.028327,0.056273,0.231938,0.056273,0.231938,0.395800,0.081875,0.395800,0.081875,0.173033,-0.109035,0.395800,-0.313443,0.395800,-0.500000,0.395800,-0.500000,0.658576,-0.368314,0.658576,-0.368314,0.461142,
-0.355431,0.445800,-0.151884,0.445800,-0.200323,0.502322,0.081875,0.502322,0.081875,0.445800,0.231938,0.445800,0.231938,0.502322,0.385127,0.502322,0.385127,0.658576,0.231938,0.658576,0.231938,0.749288,0.081875,0.749288,0.081875,0.658576,-0.368314,0.658576,-0.500000,0.658576,-0.500000,1.190600,-0.366932,1.190600,-0.364992,1.080701,-0.361419,1.026363,-0.351785,0.983964,
-0.337432,0.951316,-0.319270,0.926535,-0.293936,0.906693,-0.257993,0.891468,-0.208383,0.881252,-0.140972,0.877405,-0.076333,0.880264,-0.027205,0.887914,0.009567,0.899264,0.036585,0.913700,0.055741,0.931151,0.072846,0.957887,0.086710,0.994447,0.096193,1.043370,0.099753,1.107555,0.098365,1.190600,-0.052830,1.190600,-0.053680,1.135326,-0.057538,1.086185,-0.066478,1.059269,
-0.078396,1.047449,-0.100576,1.039423,-0.138286,1.036188,-0.161726,1.038265,-0.180066,1.044054,-0.194510,1.053407,-0.204090,1.066020,-0.211143,1.087297,-0.214001,1.121038,-0.215124,1.186543,-0.215019,1.190600,-0.366932,1.190600,-0.500000,1.190600,-0.500000,1.268866,-0.368314,1.268866,-0.367815,1.240600,-0.213720,1.240600,-0.212877,1.273079,-0.210679,1.310851,-0.208073,1.333420,
-0.201265,1.349214,-0.191189,1.360017,-0.176862,1.367652,-0.156245,1.372764,-0.127148,1.374708,-0.098084,1.371619,-0.078993,1.363439,-0.067016,1.350345,-0.057420,1.323710,-0.053680,1.284839,-0.053030,1.240600,0.097529,1.240600,0.097506,1.241974,0.094187,1.285506,0.085294,1.318838,0.074249,1.338374,0.057419,1.355187,0.034150,1.369652,0.130772,1.369652,0.167425,1.367106,
0.192397,1.360506,0.208930,1.350748,0.220009,1.337019,0.227774,1.315960,0.230814,1.284802,0.231938,1.189071,0.229642,1.103379,0.226533,1.071415,0.218309,1.047948,0.208088,1.036015,0.192457,1.028784,0.169412,1.026113,0.169412,0.868173,0.198623,0.867330,0.247439,0.870184,0.284244,0.877851,0.311703,0.889432,0.331784,0.904699,0.351388,0.931133,0.367022,0.968569,
0.377262,1.020214,0.385127,1.189071,0.381756,1.303304,0.377578,1.369180,0.366580,1.417842,0.350681,1.452913,0.331176,1.477478,0.308581,1.493960,0.271909,1.508798,0.216962,1.521251,0.137782,1.530058,0.027409,1.533454,-0.029598,1.533454,-0.133010,1.531329,-0.177139,1.527635,-0.229681,1.520008,-0.263358,1.511219,-0.291181,1.497720,-0.314092,1.479269,-0.331977,1.457362,
-0.345616,1.432457,-0.354880,1.404091,-0.366604,1.337742,-0.368314,1.268866,-0.500000,1.268866,-0.500000,5.312076,-0.499040,5.321829,-0.494330,5.345511,-0.486863,5.363537,-0.476236,5.379441,-0.462442,5.393235,-0.446538,5.403862,-0.428514,5.411328,-0.404831,5.416039,-0.395076,5.417000,0.395076,5.417000,0.404831,5.416039,0.404831,5.416039,$1*%
%AMFreePoly20*
4,1,200,0.404831,5.416039,0.428513,5.411328,0.446537,5.403862,0.462441,5.393235,0.476235,5.379441,0.486862,5.363537,0.494328,5.345513,0.499039,5.321831,0.500000,5.312076,0.500000,0.054924,0.499039,0.050092,0.499039,0.050000,0.500000,0.050000,0.500000,0.000000,0.496194,-0.019134,0.485355,-0.035355,0.469134,-0.046194,0.450000,-0.050000,-0.450000,-0.050000,-0.469134,-0.046194,
-0.485355,-0.035355,-0.496194,-0.019134,-0.500000,0.000000,-0.500000,0.050000,-0.499040,0.050000,-0.499039,0.050096,-0.500000,0.054924,-0.500000,0.712322,-0.368314,0.712322,-0.368314,0.097416,0.072496,0.089869,0.072496,0.233520,0.053167,0.237614,0.040772,0.244329,0.033515,0.253670,0.024234,0.283089,0.022475,0.315842,0.022475,0.408239,0.024722,0.499794,0.027906,0.528492,
0.036091,0.547933,0.047974,0.560683,0.065084,0.569494,0.090963,0.575552,0.128916,0.577903,0.170943,0.574876,0.196977,0.567321,0.212154,0.556470,0.221440,0.541332,0.228153,0.517618,0.230814,0.482135,0.231938,0.410767,0.229691,0.329288,0.227618,0.295489,0.221240,0.259972,0.213880,0.244655,0.200682,0.233909,0.180528,0.226941,0.150654,0.224288,0.150654,0.068033,
0.222425,0.071663,0.273982,0.081165,0.310152,0.095009,0.334666,0.112547,0.352233,0.135071,0.366313,0.165942,0.375907,0.207398,0.379509,0.262060,0.385127,0.422527,0.385127,0.486348,0.384003,0.549363,0.378939,0.603871,0.365434,0.644634,0.345316,0.674677,0.319328,0.696348,0.286167,0.712495,0.242363,0.725119,0.185279,0.733557,0.111770,0.736685,0.036482,0.732755,
-0.016809,0.722532,-0.053582,0.707705,-0.075989,0.691868,-0.093629,0.671952,-0.106571,0.647200,-0.114350,0.616554,-0.123875,0.519541,-0.124461,0.448576,-0.124461,0.396479,-0.123338,0.344419,-0.119917,0.309658,-0.110442,0.281404,-0.092757,0.256403,-0.063889,0.233520,-0.218251,0.233520,-0.218251,0.712322,-0.368314,0.712322,-0.500000,0.712322,-0.500000,1.183200,-0.367910,1.183200,
-0.366066,1.094989,-0.361853,1.027010,-0.350722,0.976362,-0.334573,0.939488,-0.314715,0.913344,-0.291719,0.895504,-0.254249,0.879327,-0.197010,0.865694,-0.113239,0.855996,0.005036,0.852236,0.046411,0.852236,0.141911,0.855305,0.212816,0.863393,0.264161,0.875069,0.300294,0.889303,0.324750,0.905579,0.342999,0.926257,0.359183,0.955935,0.372488,0.997189,0.381666,1.053039,
0.385127,1.126899,0.384410,1.183200,0.199965,1.183200,0.198428,1.137817,0.195059,1.093670,0.186598,1.064577,0.174953,1.046355,0.161058,1.035748,0.134071,1.026689,0.085841,1.019725,0.006502,1.016844,-0.008006,1.016844,-0.073342,1.019030,-0.117070,1.024537,-0.144878,1.032060,-0.161440,1.040767,-0.172794,1.053248,-0.182808,1.075118,-0.190254,1.110569,-0.193240,1.164708,
-0.193240,1.183200,-0.367910,1.183200,-0.500000,1.183200,-0.500000,1.268023,-0.369437,1.268023,-0.368840,1.233200,-0.193240,1.233200,-0.193240,1.243660,-0.192117,1.272639,-0.186548,1.319241,-0.178820,1.339396,-0.164224,1.358332,-0.142349,1.372772,-0.108976,1.381413,-0.070274,1.385125,-0.023638,1.386468,0.022133,1.386468,0.085818,1.384000,0.128253,1.377784,0.155158,1.369242,
0.171121,1.359174,0.185553,1.339239,0.196296,1.305086,0.200675,1.250364,0.200675,1.233200,0.383773,1.233200,0.382880,1.303304,0.377836,1.382908,0.364984,1.437667,0.347123,1.473810,0.326473,1.497890,0.301984,1.516291,0.273345,1.529740,0.239802,1.538510,0.156799,1.547303,0.005036,1.551113,-0.081595,1.549794,-0.138579,1.546496,-0.190096,1.540101,-0.240868,1.530120,
-0.271951,1.519711,-0.298199,1.504221,-0.320247,1.483079,-0.343862,1.445656,-0.357665,1.401599,-0.367727,1.335214,-0.369437,1.268023,-0.500000,1.268023,-0.500000,5.312076,-0.499040,5.321829,-0.494330,5.345511,-0.486863,5.363537,-0.476236,5.379441,-0.462442,5.393235,-0.446538,5.403862,-0.428514,5.411328,-0.404831,5.416039,-0.395076,5.417000,0.395076,5.417000,0.404831,5.416039,
0.404831,5.416039,$1*%
%AMFreePoly21*
4,1,120,0.404831,5.416039,0.428513,5.411328,0.446537,5.403862,0.462441,5.393235,0.476235,5.379441,0.486862,5.363537,0.494328,5.345513,0.499039,5.321831,0.500000,5.312076,0.500000,0.054924,0.499039,0.050092,0.499039,0.050000,0.500000,0.050000,0.500000,0.000000,0.496194,-0.019134,0.485355,-0.035355,0.469134,-0.046194,0.450000,-0.050000,-0.450000,-0.050000,-0.469134,-0.046194,
-0.485355,-0.035355,-0.496194,-0.019134,-0.500000,0.000000,-0.500000,0.050000,-0.499040,0.050000,-0.499039,0.050096,-0.500000,0.054924,-0.500000,0.712322,-0.368314,0.712322,-0.368314,0.097416,0.072496,0.089869,0.072496,0.233520,0.053167,0.237614,0.040772,0.244329,0.033515,0.253670,0.024234,0.283089,0.022475,0.315842,0.022475,0.408239,0.024722,0.499794,0.027906,0.528492,
0.036091,0.547933,0.047974,0.560683,0.065084,0.569494,0.090963,0.575552,0.128916,0.577903,0.170943,0.574876,0.196977,0.567321,0.212154,0.556470,0.221440,0.541332,0.228153,0.517618,0.230814,0.482135,0.231938,0.410767,0.229691,0.329288,0.227618,0.295489,0.221240,0.259972,0.213880,0.244655,0.200682,0.233909,0.180528,0.226941,0.150654,0.224288,0.150654,0.068033,
0.222425,0.071663,0.273982,0.081165,0.310152,0.095009,0.334666,0.112547,0.352233,0.135071,0.366313,0.165942,0.375907,0.207398,0.379509,0.262060,0.385127,0.422527,0.385127,0.486348,0.384003,0.549363,0.378939,0.603871,0.365434,0.644634,0.345316,0.674677,0.319328,0.696348,0.286167,0.712495,0.242363,0.725119,0.185279,0.733557,0.111770,0.736685,0.036482,0.732755,
-0.016809,0.722532,-0.053582,0.707705,-0.075989,0.691868,-0.093629,0.671952,-0.106571,0.647200,-0.114350,0.616554,-0.123875,0.519541,-0.124461,0.448576,-0.124461,0.396479,-0.123338,0.344419,-0.119917,0.309658,-0.110442,0.281404,-0.092757,0.256403,-0.063889,0.233520,-0.218251,0.233520,-0.218251,0.712322,-0.368314,0.712322,-0.500000,0.712322,-0.500000,1.152105,-0.368314,1.152105,
-0.155725,0.912686,-0.003415,0.988304,-0.192459,1.191563,0.385127,1.191563,0.385127,1.358735,-0.368314,1.358735,-0.368314,1.152105,-0.500000,1.152105,-0.500000,5.312076,-0.499040,5.321829,-0.494330,5.345511,-0.486863,5.363537,-0.476236,5.379441,-0.462442,5.393235,-0.446538,5.403862,-0.428514,5.411328,-0.404831,5.416039,-0.395076,5.417000,0.395076,5.417000,0.404831,5.416039,
0.404831,5.416039,$1*%
%AMFreePoly22*
4,1,183,0.404831,5.416039,0.428513,5.411328,0.446537,5.403862,0.462441,5.393235,0.476235,5.379441,0.486862,5.363537,0.494328,5.345513,0.499039,5.321831,0.500000,5.312076,0.500000,0.054924,0.499039,0.050092,0.499039,0.050000,0.500000,0.050000,0.500000,0.000000,0.496194,-0.019134,0.485355,-0.035355,0.469134,-0.046194,0.450000,-0.050000,-0.450000,-0.050000,-0.469134,-0.046194,
-0.485355,-0.035355,-0.496194,-0.019134,-0.500000,0.000000,-0.500000,0.050000,-0.499040,0.050000,-0.499039,0.050096,-0.500000,0.054924,-0.500000,0.712322,-0.368314,0.712322,-0.368314,0.097416,0.072496,0.089869,0.072496,0.233520,0.053167,0.237614,0.040772,0.244329,0.033515,0.253670,0.024234,0.283089,0.022475,0.315842,0.022475,0.408239,0.024722,0.499794,0.027906,0.528492,
0.036091,0.547933,0.047974,0.560683,0.065084,0.569494,0.090963,0.575552,0.128916,0.577903,0.170943,0.574876,0.196977,0.567321,0.212154,0.556470,0.221440,0.541332,0.228153,0.517618,0.230814,0.482135,0.231938,0.410767,0.229691,0.329288,0.227618,0.295489,0.221240,0.259972,0.213880,0.244655,0.200682,0.233909,0.180528,0.226941,0.150654,0.224288,0.150654,0.068033,
0.222425,0.071663,0.273982,0.081165,0.310152,0.095009,0.334666,0.112547,0.352233,0.135071,0.366313,0.165942,0.375907,0.207398,0.379509,0.262060,0.385127,0.422527,0.385127,0.486348,0.384003,0.549363,0.378939,0.603871,0.365434,0.644634,0.345316,0.674677,0.319328,0.696348,0.286167,0.712495,0.242363,0.725119,0.185279,0.733557,0.111770,0.736685,0.036482,0.732755,
-0.016809,0.722532,-0.053582,0.707705,-0.075989,0.691868,-0.093629,0.671952,-0.106571,0.647200,-0.114350,0.616554,-0.123875,0.519541,-0.124461,0.448576,-0.124461,0.396479,-0.123338,0.344419,-0.119917,0.309658,-0.110442,0.281404,-0.092757,0.256403,-0.063889,0.233520,-0.218251,0.233520,-0.218251,0.712322,-0.368314,0.712322,-0.500000,0.712322,-0.500000,1.267180,-0.368314,1.267180,
-0.363819,1.079016,-0.360774,1.016632,-0.352822,0.971114,-0.341512,0.938901,-0.328013,0.916899,-0.307470,0.899788,-0.273858,0.885981,-0.222172,0.876216,-0.145759,0.872386,-0.093198,0.873229,-0.093198,1.027761,-0.118942,1.027761,-0.152452,1.029849,-0.166783,1.033366,-0.182689,1.040364,-0.195928,1.050598,-0.205599,1.065973,-0.210931,1.084069,-0.212877,1.106713,-0.215124,1.205851,
-0.215124,1.293229,-0.212863,1.324355,-0.207333,1.343727,-0.199981,1.354961,-0.188173,1.362965,-0.169535,1.368383,-0.141217,1.370495,-0.125536,1.371338,-0.099038,1.369076,-0.081203,1.363161,-0.069556,1.354118,-0.058180,1.333801,-0.049430,1.297405,-0.017825,1.003435,-0.007686,0.965989,0.006380,0.937637,0.023596,0.916572,0.043675,0.901366,0.077864,0.886838,0.126210,0.876979,
0.193250,0.873229,0.385127,0.873229,0.385127,1.530083,0.235064,1.530083,0.235064,1.026955,0.201261,1.026955,0.171395,1.029461,0.153268,1.035742,0.143033,1.045017,0.134691,1.065211,0.131358,1.096674,0.119684,1.214277,0.106885,1.352836,0.102439,1.407326,0.090783,1.446821,0.073860,1.474776,0.052663,1.493960,0.024795,1.508014,-0.014774,1.519337,-0.069509,1.527128,
-0.143561,1.530083,-0.208160,1.527103,-0.256443,1.519184,-0.291915,1.507504,-0.317413,1.492677,-0.336686,1.473202,-0.351891,1.446276,-0.362195,1.409813,-0.366066,1.361263,-0.368314,1.267180,-0.500000,1.267180,-0.500000,5.312076,-0.499040,5.321829,-0.494330,5.345511,-0.486863,5.363537,-0.476236,5.379441,-0.462442,5.393235,-0.446538,5.403862,-0.428514,5.411328,-0.404831,5.416039,
-0.395076,5.417000,0.395076,5.417000,0.404831,5.416039,0.404831,5.416039,$1*%
%AMFreePoly23*
4,1,211,0.404831,5.416039,0.428513,5.411328,0.446537,5.403862,0.462441,5.393235,0.476235,5.379441,0.486862,5.363537,0.494328,5.345513,0.499039,5.321831,0.500000,5.312076,0.500000,0.054924,0.499039,0.050092,0.499039,0.050000,0.500000,0.050000,0.500000,0.000000,0.496194,-0.019134,0.485355,-0.035355,0.469134,-0.046194,0.450000,-0.050000,-0.450000,-0.050000,-0.469134,-0.046194,
-0.485355,-0.035355,-0.496194,-0.019134,-0.500000,0.000000,-0.500000,0.050000,-0.499040,0.050000,-0.499039,0.050096,-0.500000,0.054924,-0.500000,0.712322,-0.368314,0.712322,-0.368314,0.097416,0.072496,0.089869,0.072496,0.233520,0.053167,0.237614,0.040772,0.244329,0.033515,0.253670,0.024234,0.283089,0.022475,0.315842,0.022475,0.408239,0.024722,0.499794,0.027906,0.528492,
0.036091,0.547933,0.047974,0.560683,0.065084,0.569494,0.090963,0.575552,0.128916,0.577903,0.170943,0.574876,0.196977,0.567321,0.212154,0.556470,0.221440,0.541332,0.228153,0.517618,0.230814,0.482135,0.231938,0.410767,0.229691,0.329288,0.227618,0.295489,0.221240,0.259972,0.213880,0.244655,0.200682,0.233909,0.180528,0.226941,0.150654,0.224288,0.150654,0.068033,
0.222425,0.071663,0.273982,0.081165,0.310152,0.095009,0.334666,0.112547,0.352233,0.135071,0.366313,0.165942,0.375907,0.207398,0.379509,0.262060,0.385127,0.422527,0.385127,0.486348,0.384003,0.549363,0.378939,0.603871,0.365434,0.644634,0.345316,0.674677,0.319328,0.696348,0.286167,0.712495,0.242363,0.725119,0.185279,0.733557,0.111770,0.736685,0.036482,0.732755,
-0.016809,0.722532,-0.053582,0.707705,-0.075989,0.691868,-0.093629,0.671952,-0.106571,0.647200,-0.114350,0.616554,-0.123875,0.519541,-0.124461,0.448576,-0.124461,0.396479,-0.123338,0.344419,-0.119917,0.309658,-0.110442,0.281404,-0.092757,0.256403,-0.063889,0.233520,-0.218251,0.233520,-0.218251,0.712322,-0.368314,0.712322,-0.500000,0.712322,-0.500000,1.210064,-0.368314,1.210064,
-0.368314,1.187386,-0.366653,1.103782,-0.356590,1.002152,-0.349009,0.967596,-0.336201,0.939910,-0.318804,0.917854,-0.296946,0.900486,-0.270788,0.887971,-0.233535,0.877830,-0.181895,0.870831,-0.111956,0.868173,-0.111956,1.026955,-0.131691,1.026113,-0.161249,1.028587,-0.181408,1.035084,-0.194803,1.045017,-0.207026,1.066667,-0.211852,1.100887,-0.215124,1.181524,-0.211803,1.274764,
-0.211803,1.282311,-0.209335,1.316971,-0.203426,1.337526,-0.195780,1.348660,-0.183350,1.356262,-0.162407,1.361636,-0.129053,1.363790,-0.101541,1.360969,-0.084611,1.353710,-0.074978,1.342358,-0.067996,1.318011,-0.065062,1.276413,-0.065062,1.133604,0.078749,1.133604,0.078749,1.268023,0.077625,1.309166,0.080006,1.333022,0.086196,1.349783,0.095211,1.361263,0.108624,1.369474,
0.129393,1.375063,0.160472,1.377236,0.187755,1.374691,0.206200,1.367972,0.218309,1.357489,0.229008,1.335751,0.233061,1.304989,0.231938,1.285682,0.231938,1.191599,0.230814,1.094146,0.227441,1.065510,0.218895,1.046893,0.206585,1.035308,0.189051,1.027680,0.162190,1.022315,0.122517,1.020214,0.122517,0.866488,0.162915,0.864802,0.221576,0.867474,0.266391,0.874644,
0.300157,0.885329,0.325168,0.898995,0.343068,0.915617,0.359105,0.940910,0.371992,0.974834,0.380739,1.019504,0.384003,1.077330,0.385127,1.184858,0.385127,1.317592,0.380547,1.389869,0.368810,1.440144,0.352390,1.473784,0.332859,1.495242,0.305099,1.512797,0.271509,1.525700,0.230884,1.533893,0.181624,1.536824,0.117787,1.533006,0.076809,1.523433,0.051784,1.509933,
0.034227,1.490221,0.018939,1.458440,0.007381,1.409989,-0.011572,1.462049,-0.029340,1.489524,-0.048893,1.504474,-0.072447,1.513912,-0.096276,1.519166,-0.156506,1.522536,-0.219086,1.519124,-0.265163,1.510074,-0.298529,1.496642,-0.322054,1.479269,-0.339074,1.457354,-0.352545,1.428147,-0.361616,1.389828,-0.364992,1.340270,-0.368314,1.210064,-0.500000,1.210064,-0.500000,5.312076,
-0.499040,5.321829,-0.494330,5.345511,-0.486863,5.363537,-0.476236,5.379441,-0.462442,5.393235,-0.446538,5.403862,-0.428514,5.411328,-0.404831,5.416039,-0.395076,5.417000,0.395076,5.417000,0.404831,5.416039,0.404831,5.416039,$1*%
%AMFreePoly24*
4,1,138,0.404831,5.416039,0.428513,5.411328,0.446537,5.403862,0.462441,5.393235,0.476235,5.379441,0.486862,5.363537,0.494328,5.345513,0.499039,5.321831,0.500000,5.312076,0.500000,0.054924,0.499039,0.050092,0.499039,0.050000,0.500000,0.050000,0.500000,0.000000,0.496194,-0.019134,0.485355,-0.035355,0.469134,-0.046194,0.450000,-0.050000,-0.450000,-0.050000,-0.469134,-0.046194,
-0.485355,-0.035355,-0.496194,-0.019134,-0.500000,0.000000,-0.500000,0.050000,-0.499040,0.050000,-0.499039,0.050096,-0.500000,0.054924,-0.500000,0.712322,-0.368314,0.712322,-0.368314,0.097416,0.072496,0.089869,0.072496,0.233520,0.053167,0.237614,0.040772,0.244329,0.033515,0.253670,0.024234,0.283089,0.022475,0.315842,0.022475,0.408239,0.024722,0.499794,0.027906,0.528492,
0.036091,0.547933,0.047974,0.560683,0.065084,0.569494,0.090963,0.575552,0.128916,0.577903,0.170943,0.574876,0.196977,0.567321,0.212154,0.556470,0.221440,0.541332,0.228153,0.517618,0.230814,0.482135,0.231938,0.410767,0.229691,0.329288,0.227618,0.295489,0.221240,0.259972,0.213880,0.244655,0.200682,0.233909,0.180528,0.226941,0.150654,0.224288,0.150654,0.068033,
0.222425,0.071663,0.273982,0.081165,0.310152,0.095009,0.334666,0.112547,0.352233,0.135071,0.366313,0.165942,0.375907,0.207398,0.379509,0.262060,0.385127,0.422527,0.385127,0.486348,0.384003,0.549363,0.378939,0.603871,0.365434,0.644634,0.345316,0.674677,0.319328,0.696348,0.286167,0.712495,0.242363,0.725119,0.185279,0.733557,0.111770,0.736685,0.036482,0.732755,
-0.016809,0.722532,-0.053582,0.707705,-0.075989,0.691868,-0.093629,0.671952,-0.106571,0.647200,-0.114350,0.616554,-0.123875,0.519541,-0.124461,0.448576,-0.124461,0.396479,-0.123338,0.344419,-0.119917,0.309658,-0.110442,0.281404,-0.092757,0.256403,-0.063889,0.233520,-0.218251,0.233520,-0.218251,0.712322,-0.368314,0.712322,-0.500000,0.712322,-0.500000,1.183200,-0.302745,1.183200,
-0.028327,0.856413,0.231938,0.856413,0.231938,1.183200,0.081875,1.183200,0.081875,0.973173,-0.098117,1.183200,-0.302745,1.183200,-0.500000,1.183200,-0.500000,1.458715,-0.368314,1.458715,-0.368314,1.261282,-0.344732,1.233200,-0.140967,1.233200,-0.200323,1.302461,0.081875,1.302461,0.081875,1.233200,0.231938,1.233200,0.231938,1.302461,0.385127,1.302461,0.385127,1.458715,
0.231938,1.458715,0.231938,1.549427,0.081875,1.549427,0.081875,1.458715,-0.368314,1.458715,-0.500000,1.458715,-0.500000,5.312076,-0.499040,5.321829,-0.494330,5.345511,-0.486863,5.363537,-0.476236,5.379441,-0.462442,5.393235,-0.446538,5.403862,-0.428514,5.411328,-0.404831,5.416039,-0.395076,5.417000,0.395076,5.417000,0.404831,5.416039,0.404831,5.416039,$1*%
%AMFreePoly25*
4,1,181,0.404831,5.416039,0.428513,5.411328,0.446537,5.403862,0.462441,5.393235,0.476235,5.379441,0.486862,5.363537,0.494328,5.345513,0.499039,5.321831,0.500000,5.312076,0.500000,0.054924,0.499039,0.050092,0.499039,0.050000,0.500000,0.050000,0.500000,0.000000,0.496194,-0.019134,0.485355,-0.035355,0.469134,-0.046194,0.450000,-0.050000,-0.450000,-0.050000,-0.469134,-0.046194,
-0.485355,-0.035355,-0.496194,-0.019134,-0.500000,0.000000,-0.500000,0.050000,-0.499040,0.050000,-0.499039,0.050096,-0.500000,0.054924,-0.500000,0.712322,-0.368314,0.712322,-0.368314,0.097416,0.072496,0.089869,0.072496,0.233520,0.053167,0.237614,0.040772,0.244329,0.033515,0.253670,0.024234,0.283089,0.022475,0.315842,0.022475,0.408239,0.024722,0.499794,0.027906,0.528492,
0.036091,0.547933,0.047974,0.560683,0.065084,0.569494,0.090963,0.575552,0.128916,0.577903,0.170943,0.574876,0.196977,0.567321,0.212154,0.556470,0.221440,0.541332,0.228153,0.517618,0.230814,0.482135,0.231938,0.410767,0.229691,0.329288,0.227618,0.295489,0.221240,0.259972,0.213880,0.244655,0.200682,0.233909,0.180528,0.226941,0.150654,0.224288,0.150654,0.068033,
0.222425,0.071663,0.273982,0.081165,0.310152,0.095009,0.334666,0.112547,0.352233,0.135071,0.366313,0.165942,0.375907,0.207398,0.379509,0.262060,0.385127,0.422527,0.385127,0.486348,0.384003,0.549363,0.378939,0.603871,0.365434,0.644634,0.345316,0.674677,0.319328,0.696348,0.286167,0.712495,0.242363,0.725119,0.185279,0.733557,0.111770,0.736685,0.036482,0.732755,
-0.016809,0.722532,-0.053582,0.707705,-0.075989,0.691868,-0.093629,0.671952,-0.106571,0.647200,-0.114350,0.616554,-0.123875,0.519541,-0.124461,0.448576,-0.124461,0.396479,-0.123338,0.344419,-0.119917,0.309658,-0.110442,0.281404,-0.092757,0.256403,-0.063889,0.233520,-0.218251,0.233520,-0.218251,0.712322,-0.368314,0.712322,-0.500000,0.712322,-0.500000,1.512461,-0.368314,1.512461,
-0.368314,0.897555,0.072496,0.890008,0.072496,1.033660,0.053167,1.037754,0.040772,1.044469,0.033515,1.053810,0.024234,1.083229,0.022475,1.115982,0.022475,1.208379,0.024722,1.299933,0.027906,1.328631,0.036091,1.348072,0.047974,1.360823,0.065084,1.369633,0.090963,1.375691,0.128916,1.378042,0.170943,1.375016,0.196977,1.367460,0.212154,1.356610,0.221440,1.341472,
0.228153,1.317758,0.230814,1.282274,0.231938,1.210907,0.229691,1.129427,0.227618,1.095629,0.221240,1.060111,0.213880,1.044795,0.200682,1.034048,0.180528,1.027080,0.150654,1.024427,0.150654,0.868173,0.222425,0.871803,0.273982,0.881305,0.310152,0.895149,0.334666,0.912686,0.352233,0.935210,0.366313,0.966081,0.375907,1.007538,0.379509,1.062199,0.385127,1.222667,
0.385127,1.286488,0.384003,1.349502,0.378939,1.404011,0.365434,1.444774,0.345316,1.474817,0.319328,1.496488,0.286167,1.512634,0.242363,1.525259,0.185279,1.533697,0.111770,1.536824,0.036482,1.532895,-0.016809,1.522672,-0.053582,1.507845,-0.075989,1.492008,-0.093629,1.472091,-0.106571,1.447340,-0.114350,1.416693,-0.123875,1.319680,-0.124461,1.248715,-0.124461,1.196618,
-0.123338,1.144558,-0.119917,1.109797,-0.110442,1.081543,-0.092757,1.056542,-0.063889,1.033660,-0.218251,1.033660,-0.218251,1.512461,-0.368314,1.512461,-0.500000,1.512461,-0.500000,5.312076,-0.499040,5.321829,-0.494330,5.345511,-0.486863,5.363537,-0.476236,5.379441,-0.462442,5.393235,-0.446538,5.403862,-0.428514,5.411328,-0.404831,5.416039,-0.395076,5.417000,0.395076,5.417000,
0.404831,5.416039,0.404831,5.416039,$1*%
%AMFreePoly26*
4,1,215,0.404831,5.416039,0.428513,5.411328,0.446537,5.403862,0.462441,5.393235,0.476235,5.379441,0.486862,5.363537,0.494328,5.345513,0.499039,5.321831,0.500000,5.312076,0.500000,0.054924,0.499039,0.050092,0.499039,0.050000,0.500000,0.050000,0.500000,0.000000,0.496194,-0.019134,0.485355,-0.035355,0.469134,-0.046194,0.450000,-0.050000,-0.450000,-0.050000,-0.469134,-0.046194,
-0.485355,-0.035355,-0.496194,-0.019134,-0.500000,0.000000,-0.500000,0.050000,-0.499040,0.050000,-0.499039,0.050096,-0.500000,0.054924,-0.500000,0.712322,-0.368314,0.712322,-0.368314,0.097416,0.072496,0.089869,0.072496,0.233520,0.053167,0.237614,0.040772,0.244329,0.033515,0.253670,0.024234,0.283089,0.022475,0.315842,0.022475,0.408239,0.024722,0.499794,0.027906,0.528492,
0.036091,0.547933,0.047974,0.560683,0.065084,0.569494,0.090963,0.575552,0.128916,0.577903,0.170943,0.574876,0.196977,0.567321,0.212154,0.556470,0.221440,0.541332,0.228153,0.517618,0.230814,0.482135,0.231938,0.410767,0.229691,0.329288,0.227618,0.295489,0.221240,0.259972,0.213880,0.244655,0.200682,0.233909,0.180528,0.226941,0.150654,0.224288,0.150654,0.068033,
0.222425,0.071663,0.273982,0.081165,0.310152,0.095009,0.334666,0.112547,0.352233,0.135071,0.366313,0.165942,0.375907,0.207398,0.379509,0.262060,0.385127,0.422527,0.385127,0.486348,0.384003,0.549363,0.378939,0.603871,0.365434,0.644634,0.345316,0.674677,0.319328,0.696348,0.286167,0.712495,0.242363,0.725119,0.185279,0.733557,0.111770,0.736685,0.036482,0.732755,
-0.016809,0.722532,-0.053582,0.707705,-0.075989,0.691868,-0.093629,0.671952,-0.106571,0.647200,-0.114350,0.616554,-0.123875,0.519541,-0.124461,0.448576,-0.124461,0.396479,-0.123338,0.344419,-0.119917,0.309658,-0.110442,0.281404,-0.092757,0.256403,-0.063889,0.233520,-0.218251,0.233520,-0.218251,0.712322,-0.368314,0.712322,-0.500000,0.712322,-0.500000,1.206693,-0.368314,1.206693,
-0.367190,1.136132,-0.361621,1.072311,-0.356103,1.018903,-0.340662,0.974654,-0.316339,0.937892,-0.290910,0.913048,-0.264498,0.895711,-0.236835,0.884627,-0.207309,0.879091,-0.122361,0.873229,-0.078788,0.873229,0.082168,0.874071,0.170604,0.876425,0.232573,0.882461,0.268753,0.890966,0.298563,0.904619,0.323089,0.923640,0.351080,0.958926,0.370619,1.001749,0.380852,1.052873,
0.385127,1.138660,0.384125,1.190600,0.231017,1.190600,0.231938,1.126899,0.227508,1.081627,0.216941,1.055495,0.203929,1.043735,0.181786,1.035900,0.146306,1.032817,0.115055,1.035526,0.095088,1.042474,0.082950,1.052967,0.072670,1.075935,0.068490,1.113454,0.066878,1.190600,-0.086666,1.190600,-0.083021,1.134228,-0.072975,1.092021,-0.059435,1.068403,-0.037351,1.049147,
-0.005320,1.033660,-0.098425,1.033660,-0.146101,1.036591,-0.166088,1.041523,-0.185913,1.050879,-0.201182,1.063970,-0.208921,1.080701,-0.212877,1.136132,-0.215124,1.233585,-0.214001,1.283154,-0.211236,1.311693,-0.088069,1.311693,-0.087385,1.240600,0.066243,1.240600,0.066243,1.302461,0.070799,1.332242,0.082950,1.353276,0.096042,1.363340,0.114963,1.369773,0.141861,1.372180,
0.177512,1.369207,0.200056,1.361638,0.213571,1.350345,0.224972,1.325172,0.229691,1.282311,0.230294,1.240600,0.383160,1.240600,0.381756,1.313379,0.377675,1.379758,0.367015,1.428043,0.351759,1.462193,0.333250,1.485570,0.306942,1.503526,0.267252,1.517920,0.209663,1.527920,0.128428,1.531769,0.066818,1.528892,0.015197,1.520851,-0.015066,1.510851,-0.037930,1.496176,
-0.054559,1.476338,-0.071199,1.441613,-0.081377,1.403248,-0.086276,1.362239,-0.088069,1.311693,-0.211236,1.311693,-0.210966,1.314480,-0.202766,1.338585,-0.192705,1.351534,-0.177487,1.360387,-0.155725,1.365476,-0.155725,1.520008,-0.216584,1.517146,-0.262523,1.509507,-0.296702,1.498173,-0.317971,1.485740,-0.334852,1.469121,-0.347493,1.447492,-0.355418,1.419624,-0.363198,1.364760,
-0.366604,1.321366,-0.368314,1.206693,-0.500000,1.206693,-0.500000,5.312076,-0.499040,5.321829,-0.494330,5.345511,-0.486863,5.363537,-0.476236,5.379441,-0.462442,5.393235,-0.446538,5.403862,-0.428514,5.411328,-0.404831,5.416039,-0.395076,5.417000,0.395076,5.417000,0.404831,5.416039,0.404831,5.416039,$1*%
%AMFreePoly27*
4,1,120,0.404831,5.416039,0.428513,5.411328,0.446537,5.403862,0.462441,5.393235,0.476235,5.379441,0.486862,5.363537,0.494328,5.345513,0.499039,5.321831,0.500000,5.312076,0.500000,0.054924,0.499039,0.050092,0.499039,0.050000,0.500000,0.050000,0.500000,0.000000,0.496194,-0.019134,0.485355,-0.035355,0.469134,-0.046194,0.450000,-0.050000,-0.450000,-0.050000,-0.469134,-0.046194,
-0.485355,-0.035355,-0.496194,-0.019134,-0.500000,0.000000,-0.500000,0.050000,-0.499040,0.050000,-0.499039,0.050096,-0.500000,0.054924,-0.500000,0.712322,-0.368314,0.712322,-0.368314,0.097416,0.072496,0.089869,0.072496,0.233520,0.053167,0.237614,0.040772,0.244329,0.033515,0.253670,0.024234,0.283089,0.022475,0.315842,0.022475,0.408239,0.024722,0.499794,0.027906,0.528492,
0.036091,0.547933,0.047974,0.560683,0.065084,0.569494,0.090963,0.575552,0.128916,0.577903,0.170943,0.574876,0.196977,0.567321,0.212154,0.556470,0.221440,0.541332,0.228153,0.517618,0.230814,0.482135,0.231938,0.410767,0.229691,0.329288,0.227618,0.295489,0.221240,0.259972,0.213880,0.244655,0.200682,0.233909,0.180528,0.226941,0.150654,0.224288,0.150654,0.068033,
0.222425,0.071663,0.273982,0.081165,0.310152,0.095009,0.334666,0.112547,0.352233,0.135071,0.366313,0.165942,0.375907,0.207398,0.379509,0.262060,0.385127,0.422527,0.385127,0.486348,0.384003,0.549363,0.378939,0.603871,0.365434,0.644634,0.345316,0.674677,0.319328,0.696348,0.286167,0.712495,0.242363,0.725119,0.185279,0.733557,0.111770,0.736685,0.036482,0.732755,
-0.016809,0.722532,-0.053582,0.707705,-0.075989,0.691868,-0.093629,0.671952,-0.106571,0.647200,-0.114350,0.616554,-0.123875,0.519541,-0.124461,0.448576,-0.124461,0.396479,-0.123338,0.344419,-0.119917,0.309658,-0.110442,0.281404,-0.092757,0.256403,-0.063889,0.233520,-0.218251,0.233520,-0.218251,0.712322,-0.368314,0.712322,-0.500000,0.712322,-0.500000,0.866488,-0.368314,0.866488,
-0.183861,0.866488,-0.183861,1.327667,0.385127,0.962255,0.385127,1.163866,-0.197344,1.534296,-0.368314,1.534296,-0.368314,0.866488,-0.500000,0.866488,-0.500000,5.312076,-0.499040,5.321829,-0.494330,5.345511,-0.486863,5.363537,-0.476236,5.379441,-0.462442,5.393235,-0.446538,5.403862,-0.428514,5.411328,-0.404831,5.416039,-0.395076,5.417000,0.395076,5.417000,0.404831,5.416039,
0.404831,5.416039,$1*%
%AMFreePoly28*
4,1,234,0.404831,5.416039,0.428513,5.411328,0.446537,5.403862,0.462441,5.393235,0.476235,5.379441,0.486862,5.363537,0.494328,5.345513,0.499039,5.321831,0.500000,5.312076,0.500000,0.054924,0.499039,0.050092,0.499039,0.050000,0.500000,0.050000,0.500000,0.000000,0.496194,-0.019134,0.485355,-0.035355,0.469134,-0.046194,0.450000,-0.050000,-0.450000,-0.050000,-0.469134,-0.046194,
-0.485355,-0.035355,-0.496194,-0.019134,-0.500000,0.000000,-0.500000,0.050000,-0.499040,0.050000,-0.499039,0.050096,-0.500000,0.054924,-0.500000,0.712322,-0.368314,0.712322,-0.368314,0.097416,0.072496,0.089869,0.072496,0.233520,0.053167,0.237614,0.040772,0.244329,0.033515,0.253670,0.024234,0.283089,0.022475,0.315842,0.022475,0.408239,0.024722,0.499794,0.027906,0.528492,
0.036091,0.547933,0.047974,0.560683,0.065084,0.569494,0.090963,0.575552,0.128916,0.577903,0.170943,0.574876,0.196977,0.567321,0.212154,0.556470,0.221440,0.541332,0.228153,0.517618,0.230814,0.482135,0.231938,0.410767,0.229691,0.329288,0.227618,0.295489,0.221240,0.259972,0.213880,0.244655,0.200682,0.233909,0.180528,0.226941,0.150654,0.224288,0.150654,0.068033,
0.222425,0.071663,0.273982,0.081165,0.310152,0.095009,0.334666,0.112547,0.352233,0.135071,0.366313,0.165942,0.375907,0.207398,0.379509,0.262060,0.385127,0.422527,0.385127,0.486348,0.384003,0.549363,0.378939,0.603871,0.365434,0.644634,0.345316,0.674677,0.319328,0.696348,0.286167,0.712495,0.242363,0.725119,0.185279,0.733557,0.111770,0.736685,0.036482,0.732755,
-0.016809,0.722532,-0.053582,0.707705,-0.075989,0.691868,-0.093629,0.671952,-0.106571,0.647200,-0.114350,0.616554,-0.123875,0.519541,-0.124461,0.448576,-0.124461,0.396479,-0.123338,0.344419,-0.119917,0.309658,-0.110442,0.281404,-0.092757,0.256403,-0.063889,0.233520,-0.218251,0.233520,-0.218251,0.712322,-0.368314,0.712322,-0.500000,0.712322,-0.500000,1.140345,-0.368314,1.140345,
-0.363868,1.037873,-0.358500,0.985399,-0.344076,0.945739,-0.322298,0.916057,-0.299493,0.898682,-0.269296,0.885682,-0.229882,0.877196,-0.178732,0.874071,-0.120654,0.877186,-0.081796,0.885101,-0.056806,0.896310,-0.037505,0.913068,-0.018136,0.940483,0.000835,0.982405,0.022106,0.938703,0.042796,0.909885,0.062629,0.892096,0.088132,0.880010,0.127850,0.871514,0.187339,0.868173,
0.239911,0.870969,0.280089,0.878502,0.310472,0.889858,0.333078,0.904677,0.349174,0.923201,0.366959,0.961002,0.379298,1.013793,0.384003,1.085720,0.384976,1.183200,0.231663,1.183200,0.231938,1.152948,0.228567,1.101693,0.223635,1.076128,0.216795,1.057620,0.206200,1.042512,0.193250,1.033660,0.176081,1.028863,0.148993,1.026955,0.117829,1.029910,0.097385,1.037633,
0.084513,1.049633,0.073635,1.074805,0.069370,1.112648,0.069370,1.183200,-0.074019,1.183200,-0.074441,1.115982,-0.079051,1.081221,-0.091293,1.056338,-0.104994,1.044057,-0.124475,1.036456,-0.151817,1.033660,-0.176503,1.036593,-0.193620,1.044624,-0.205159,1.058023,-0.214616,1.084453,-0.218251,1.121844,-0.217846,1.183200,-0.367213,1.183200,-0.368314,1.140345,-0.500000,1.140345,
-0.500000,1.233200,-0.365930,1.233200,-0.217516,1.233200,-0.217176,1.284802,-0.213353,1.322035,-0.203547,1.347377,-0.191645,1.359808,-0.173095,1.367574,-0.145271,1.370495,-0.120763,1.367905,-0.102793,1.360766,-0.089681,1.349063,-0.077712,1.325811,-0.073317,1.294914,-0.073705,1.233200,0.069370,1.233200,0.069370,1.283996,0.074288,1.323964,0.086760,1.349905,0.101004,1.362182,
0.122635,1.370046,0.154562,1.373023,0.183576,1.369721,0.203300,1.360794,0.216257,1.346132,0.226789,1.317064,0.230814,1.276413,0.231207,1.233200,0.384784,1.233200,0.384003,1.312536,0.382880,1.368810,0.377262,1.426329,0.367746,1.453474,0.345804,1.484727,0.325539,1.503264,0.302495,1.516045,0.276146,1.523782,0.230207,1.529532,0.164869,1.531769,0.116536,1.528451,
0.082156,1.519701,0.058134,1.506563,0.039512,1.488302,0.021022,1.460700,0.003082,1.420907,-0.014973,1.460463,-0.034172,1.487592,-0.054022,1.505280,-0.079432,1.517607,-0.116665,1.526012,-0.169891,1.529241,-0.218491,1.526307,-0.257984,1.518154,-0.290118,1.505384,-0.316192,1.488061,-0.334473,1.466988,-0.349816,1.434402,-0.360743,1.386219,-0.364992,1.317555,-0.364992,1.269708,
-0.365930,1.233200,-0.500000,1.233200,-0.500000,5.312076,-0.499040,5.321829,-0.494330,5.345511,-0.486863,5.363537,-0.476236,5.379441,-0.462442,5.393235,-0.446538,5.403862,-0.428514,5.411328,-0.404831,5.416039,-0.395076,5.417000,0.395076,5.417000,0.404831,5.416039,0.404831,5.416039,$1*%
%AMFreePoly29*
4,1,220,0.404831,5.416039,0.428513,5.411328,0.446537,5.403862,0.462441,5.393235,0.476235,5.379441,0.486862,5.363537,0.494328,5.345513,0.499039,5.321831,0.500000,5.312076,0.500000,0.054924,0.499039,0.050092,0.499039,0.050000,0.500000,0.050000,0.500000,0.000000,0.496194,-0.019134,0.485355,-0.035355,0.469134,-0.046194,0.450000,-0.050000,-0.450000,-0.050000,-0.469134,-0.046194,
-0.485355,-0.035355,-0.496194,-0.019134,-0.500000,0.000000,-0.500000,0.050000,-0.499040,0.050000,-0.499039,0.050096,-0.500000,0.054924,-0.500000,0.712322,-0.368314,0.712322,-0.368314,0.097416,0.072496,0.089869,0.072496,0.233520,0.053167,0.237614,0.040772,0.244329,0.033515,0.253670,0.024234,0.283089,0.022475,0.315842,0.022475,0.408239,0.024722,0.499794,0.027906,0.528492,
0.036091,0.547933,0.047974,0.560683,0.065084,0.569494,0.090963,0.575552,0.128916,0.577903,0.170943,0.574876,0.196977,0.567321,0.212154,0.556470,0.221440,0.541332,0.228153,0.517618,0.230814,0.482135,0.231938,0.410767,0.229691,0.329288,0.227618,0.295489,0.221240,0.259972,0.213880,0.244655,0.200682,0.233909,0.180528,0.226941,0.150654,0.224288,0.150654,0.068033,
0.222425,0.071663,0.273982,0.081165,0.310152,0.095009,0.334666,0.112547,0.352233,0.135071,0.366313,0.165942,0.375907,0.207398,0.379509,0.262060,0.385127,0.422527,0.385127,0.486348,0.384003,0.549363,0.378939,0.603871,0.365434,0.644634,0.345316,0.674677,0.319328,0.696348,0.286167,0.712495,0.242363,0.725119,0.185279,0.733557,0.111770,0.736685,0.036482,0.732755,
-0.016809,0.722532,-0.053582,0.707705,-0.075989,0.691868,-0.093629,0.671952,-0.106571,0.647200,-0.114350,0.616554,-0.123875,0.519541,-0.124461,0.448576,-0.124461,0.396479,-0.123338,0.344419,-0.119917,0.309658,-0.110442,0.281404,-0.092757,0.256403,-0.063889,0.233520,-0.218251,0.233520,-0.218251,0.712322,-0.368314,0.712322,-0.500000,0.712322,-0.500000,1.190600,-0.366932,1.190600,
-0.364992,1.080701,-0.361419,1.026363,-0.351785,0.983964,-0.337432,0.951316,-0.319270,0.926535,-0.293936,0.906693,-0.257993,0.891468,-0.208383,0.881252,-0.140972,0.877405,-0.076333,0.880264,-0.027205,0.887914,0.009567,0.899264,0.036585,0.913700,0.055741,0.931151,0.072846,0.957887,0.086710,0.994447,0.096193,1.043370,0.099753,1.107555,0.098365,1.190600,-0.052830,1.190600,
-0.053680,1.135326,-0.057538,1.086185,-0.066478,1.059269,-0.078396,1.047449,-0.100576,1.039423,-0.138286,1.036188,-0.161726,1.038265,-0.180066,1.044054,-0.194510,1.053407,-0.204090,1.066020,-0.211143,1.087297,-0.214001,1.121038,-0.215124,1.186543,-0.215019,1.190600,-0.366932,1.190600,-0.500000,1.190600,-0.500000,1.268866,-0.368314,1.268866,-0.367815,1.240600,-0.213720,1.240600,
-0.212877,1.273079,-0.210679,1.310851,-0.208073,1.333420,-0.201265,1.349214,-0.191189,1.360017,-0.176862,1.367652,-0.156245,1.372764,-0.127148,1.374708,-0.098084,1.371619,-0.078993,1.363439,-0.067016,1.350345,-0.057420,1.323710,-0.053680,1.284839,-0.053030,1.240600,0.097529,1.240600,0.097506,1.241974,0.094187,1.285506,0.085294,1.318838,0.074249,1.338374,0.057419,1.355187,
0.034150,1.369652,0.130772,1.369652,0.167425,1.367106,0.192397,1.360506,0.208930,1.350748,0.220009,1.337019,0.227774,1.315960,0.230814,1.284802,0.231938,1.189071,0.229642,1.103379,0.226533,1.071415,0.218309,1.047948,0.208088,1.036015,0.192457,1.028784,0.169412,1.026113,0.169412,0.868173,0.198623,0.867330,0.247439,0.870184,0.284244,0.877851,0.311703,0.889432,
0.331784,0.904699,0.351388,0.931133,0.367022,0.968569,0.377262,1.020214,0.385127,1.189071,0.381756,1.303304,0.377578,1.369180,0.366580,1.417842,0.350681,1.452913,0.331176,1.477478,0.308581,1.493960,0.271909,1.508798,0.216962,1.521251,0.137782,1.530058,0.027409,1.533454,-0.029598,1.533454,-0.133010,1.531329,-0.177139,1.527635,-0.229681,1.520008,-0.263358,1.511219,
-0.291181,1.497720,-0.314092,1.479269,-0.331977,1.457362,-0.345616,1.432457,-0.354880,1.404091,-0.366604,1.337742,-0.368314,1.268866,-0.500000,1.268866,-0.500000,5.312076,-0.499040,5.321829,-0.494330,5.345511,-0.486863,5.363537,-0.476236,5.379441,-0.462442,5.393235,-0.446538,5.403862,-0.428514,5.411328,-0.404831,5.416039,-0.395076,5.417000,0.395076,5.417000,0.404831,5.416039,
0.404831,5.416039,$1*%
%AMFreePoly30*
4,1,235,0.404831,5.416039,0.428513,5.411328,0.446537,5.403862,0.462441,5.393235,0.476235,5.379441,0.486862,5.363537,0.494328,5.345513,0.499039,5.321831,0.500000,5.312076,0.500000,0.054924,0.499039,0.050092,0.499039,0.050000,0.500000,0.050000,0.500000,0.000000,0.496194,-0.019134,0.485355,-0.035355,0.469134,-0.046194,0.450000,-0.050000,-0.450000,-0.050000,-0.469134,-0.046194,
-0.485355,-0.035355,-0.496194,-0.019134,-0.500000,0.000000,-0.500000,0.050000,-0.499040,0.050000,-0.499039,0.050096,-0.500000,0.054924,-0.500000,0.406554,-0.368314,0.406554,-0.367190,0.335992,-0.361621,0.272172,-0.356103,0.218763,-0.340662,0.174515,-0.316339,0.137752,-0.290910,0.112908,-0.264498,0.095571,-0.236835,0.084487,-0.207309,0.078951,-0.122361,0.073089,-0.078788,0.073089,
0.082168,0.073932,0.170604,0.076285,0.232573,0.082322,0.268753,0.090827,0.298563,0.104480,0.323089,0.123501,0.351080,0.158787,0.370619,0.201610,0.380852,0.252734,0.385127,0.338520,0.384022,0.395800,0.230940,0.395800,0.231938,0.326760,0.227508,0.281487,0.216941,0.255355,0.203929,0.243595,0.181786,0.235760,0.146306,0.232677,0.115055,0.235387,0.095088,0.242335,
0.082950,0.252827,0.072670,0.275796,0.068490,0.313314,0.066766,0.395800,-0.086956,0.395800,-0.086946,0.394794,-0.083021,0.334088,-0.072975,0.291882,-0.059435,0.268263,-0.037351,0.249007,-0.005320,0.233520,-0.098425,0.233520,-0.146101,0.236451,-0.166088,0.241383,-0.185913,0.250739,-0.201182,0.263831,-0.208921,0.280561,-0.212877,0.335992,-0.215124,0.433445,-0.214001,0.483014,
-0.211236,0.511554,-0.088069,0.511554,-0.087437,0.445800,0.066243,0.445800,0.066243,0.502322,0.070799,0.532103,0.082950,0.553136,0.096042,0.563201,0.114963,0.569633,0.141861,0.572041,0.177512,0.569067,0.200056,0.561499,0.213571,0.550205,0.224972,0.525032,0.229691,0.482172,0.230217,0.445800,0.383057,0.445800,0.381756,0.513239,0.377675,0.579618,0.367015,0.627904,
0.351759,0.662054,0.333250,0.685430,0.306942,0.703387,0.267252,0.717781,0.209663,0.727780,0.128428,0.731629,0.066818,0.728753,0.015197,0.720711,-0.015066,0.710711,-0.037930,0.696037,-0.054559,0.676198,-0.071199,0.641474,-0.081377,0.603108,-0.086276,0.562100,-0.088069,0.511554,-0.211236,0.511554,-0.210966,0.514340,-0.202766,0.538445,-0.192705,0.551394,-0.177487,0.560247,
-0.155725,0.565336,-0.155725,0.719869,-0.216584,0.717006,-0.262523,0.709368,-0.296702,0.698033,-0.317971,0.685600,-0.334852,0.668982,-0.347493,0.647352,-0.355418,0.619485,-0.363198,0.564621,-0.366604,0.521226,-0.368314,0.406554,-0.500000,0.406554,-0.500000,1.183200,-0.367910,1.183200,-0.366066,1.094989,-0.361853,1.027010,-0.350722,0.976362,-0.334573,0.939488,-0.314715,0.913344,
-0.291719,0.895504,-0.254249,0.879327,-0.197010,0.865694,-0.113239,0.855996,0.005036,0.852236,0.046411,0.852236,0.141911,0.855305,0.212816,0.863393,0.264161,0.875069,0.300294,0.889303,0.324750,0.905579,0.342999,0.926257,0.359183,0.955935,0.372488,0.997189,0.381666,1.053039,0.385127,1.126899,0.384410,1.183200,0.199965,1.183200,0.198428,1.137817,0.195059,1.093670,
0.186598,1.064577,0.174953,1.046355,0.161058,1.035748,0.134071,1.026689,0.085841,1.019725,0.006502,1.016844,-0.008006,1.016844,-0.073342,1.019030,-0.117070,1.024537,-0.144878,1.032060,-0.161440,1.040767,-0.172794,1.053248,-0.182808,1.075118,-0.190254,1.110569,-0.193240,1.164708,-0.193240,1.183200,-0.367910,1.183200,-0.500000,1.183200,-0.500000,1.268023,-0.369437,1.268023,
-0.368840,1.233200,-0.193240,1.233200,-0.193240,1.243660,-0.192117,1.272639,-0.186548,1.319241,-0.178820,1.339396,-0.164224,1.358332,-0.142349,1.372772,-0.108976,1.381413,-0.070274,1.385125,-0.023638,1.386468,0.022133,1.386468,0.085818,1.384000,0.128253,1.377784,0.155158,1.369242,0.171121,1.359174,0.185553,1.339239,0.196296,1.305086,0.200675,1.250364,0.200675,1.233200,
0.383773,1.233200,0.382880,1.303304,0.377836,1.382908,0.364984,1.437667,0.347123,1.473810,0.326473,1.497890,0.301984,1.516291,0.273345,1.529740,0.239802,1.538510,0.156799,1.547303,0.005036,1.551113,-0.081595,1.549794,-0.138579,1.546496,-0.190096,1.540101,-0.240868,1.530120,-0.271951,1.519711,-0.298199,1.504221,-0.320247,1.483079,-0.343862,1.445656,-0.357665,1.401599,
-0.367727,1.335214,-0.369437,1.268023,-0.500000,1.268023,-0.500000,5.312076,-0.499040,5.321829,-0.494330,5.345511,-0.486863,5.363537,-0.476236,5.379441,-0.462442,5.393235,-0.446538,5.403862,-0.428514,5.411328,-0.404831,5.416039,-0.395076,5.417000,0.395076,5.417000,0.404831,5.416039,0.404831,5.416039,$1*%
%AMFreePoly31*
4,1,82,0.380975,4.731904,0.419243,4.724292,0.421046,4.723545,0.453489,4.701868,0.454868,4.700489,0.476545,4.668046,0.477292,4.666243,0.484904,4.627975,0.485000,4.626995,0.480000,0.053488,0.479903,0.053003,0.479904,0.052517,0.472582,0.015708,0.471835,0.013905,0.451263,-0.016884,0.449884,-0.018264,0.419095,-0.038835,0.417292,-0.039582,0.380483,-0.046904,0.379991,-0.046903,
0.379508,-0.047000,-0.419508,-0.047000,-0.419991,-0.046903,-0.420484,-0.046904,-0.457293,-0.039582,-0.459096,-0.038835,-0.489885,-0.018263,-0.491265,-0.016884,-0.511836,0.013905,-0.512583,0.015708,-0.519904,0.052518,-0.519903,0.053003,-0.520000,0.053488,-0.520322,0.348286,-0.387693,0.348286,-0.207339,0.129286,0.169762,0.129286,0.347702,0.348286,-0.387693,0.348286,-0.520322,0.348286,
-0.520388,0.408286,-0.441479,0.408286,-0.406477,0.369286,0.366405,0.369287,0.399405,0.408286,-0.441479,0.408286,-0.520388,0.408286,-0.520971,0.941992,-0.315662,0.941992,-0.315662,0.858203,-0.065400,0.858203,-0.061864,0.856739,-0.060400,0.853203,-0.060400,0.600743,0.029128,0.600743,0.029128,0.853203,0.030592,0.856739,0.034128,0.858203,0.294451,0.858203,0.294451,0.941992,
0.034128,0.941992,0.030592,0.943456,0.029128,0.946992,0.029128,1.189451,-0.060400,1.189451,-0.060400,0.946992,-0.061864,0.943456,-0.065400,0.941992,-0.315662,0.941992,-0.520971,0.941992,-0.525000,4.626995,-0.524904,4.627975,-0.517292,4.666243,-0.516545,4.668046,-0.494868,4.700489,-0.493489,4.701868,-0.461046,4.723545,-0.459243,4.724292,-0.420975,4.731904,-0.420000,4.732000,
0.380000,4.732000,0.380975,4.731904,0.380975,4.731904,$1*%
%AMFreePoly32*
4,1,70,0.380975,4.681904,0.419243,4.674292,0.421046,4.673545,0.453489,4.651868,0.454868,4.650489,0.476545,4.618046,0.477292,4.616243,0.484904,4.577975,0.485000,4.576995,0.480000,0.003488,0.479903,0.003003,0.479904,0.002517,0.472582,-0.034292,0.471835,-0.036095,0.451263,-0.066884,0.449884,-0.068264,0.419095,-0.088835,0.417292,-0.089582,0.380483,-0.096904,0.379991,-0.096903,
0.379508,-0.097000,-0.419508,-0.097000,-0.419991,-0.096903,-0.420484,-0.096904,-0.457293,-0.089582,-0.459096,-0.088835,-0.489885,-0.068263,-0.491265,-0.066884,-0.511836,-0.036095,-0.512583,-0.034292,-0.519904,0.002518,-0.519903,0.003003,-0.520000,0.003488,-0.520323,0.298786,-0.378871,0.298786,-0.198518,0.079786,0.178585,0.079786,0.356523,0.298786,-0.378871,0.298786,-0.520323,0.298786,
-0.520453,0.418095,-0.482522,0.418095,-0.482223,0.414017,-0.442527,0.369786,0.417533,0.369786,0.454462,0.413426,0.454866,0.417454,0.453558,0.418786,-0.482115,0.418786,-0.482522,0.418095,-0.520453,0.418095,-0.520933,0.857051,-0.319790,0.857051,0.290323,0.857051,0.290323,0.940840,-0.319790,0.940840,-0.319790,0.857051,-0.520933,0.857051,-0.525000,4.576995,-0.524904,4.577975,
-0.517292,4.616243,-0.516545,4.618046,-0.494868,4.650489,-0.493489,4.651868,-0.461046,4.673545,-0.459243,4.674292,-0.420975,4.681904,-0.420000,4.682000,0.380000,4.682000,0.380975,4.681904,0.380975,4.681904,$1*%
%AMFreePoly33*
4,1,28,0.476334,6.762394,0.503394,6.735334,0.507200,6.716200,0.507200,0.868028,0.581291,0.621058,0.583343,0.609069,0.591146,0.445213,0.608743,0.075669,0.608800,0.073291,0.594155,0.037936,0.441755,-0.114464,0.409519,-0.129012,0.003119,-0.154412,-0.003119,-0.154412,-0.409519,-0.129012,-0.441755,-0.114464,-0.594155,0.037936,-0.595797,0.039657,-0.608743,0.075669,-0.583343,0.609069,
-0.581291,0.621058,-0.507200,0.868028,-0.507200,6.716200,-0.503394,6.735334,-0.476334,6.762394,-0.457200,6.766200,0.457200,6.766200,0.476334,6.762394,0.476334,6.762394,$1*%
%AMFreePoly34*
4,1,198,0.419907,4.673039,0.424831,4.673039,0.448513,4.668328,0.466537,4.660862,0.482440,4.650236,0.496235,4.636441,0.506862,4.620537,0.514328,4.602513,0.519039,4.578831,0.519039,4.573907,0.520000,4.569076,0.520000,0.004924,0.519039,0.000092,0.519039,-0.004831,0.514328,-0.028513,0.506862,-0.046537,0.496236,-0.062440,0.482441,-0.076235,0.466537,-0.086862,0.448513,-0.094328,
0.424831,-0.099039,0.419907,-0.099039,0.415076,-0.100000,-0.375076,-0.100000,-0.379907,-0.099039,-0.384831,-0.099039,-0.408514,-0.094328,-0.426538,-0.086862,-0.442442,-0.076235,-0.456237,-0.062439,-0.466863,-0.046537,-0.474329,-0.028513,-0.474328,-0.028511,-0.479040,-0.004829,-0.479039,0.000096,-0.480000,0.004924,-0.480000,0.209437,0.176029,0.209437,0.180947,0.195232,0.180968,0.195150,
0.183439,0.180319,0.186855,0.177878,0.187036,0.177635,0.188410,0.173667,0.201935,0.167098,0.202008,0.167055,0.214244,0.158316,0.218383,0.159005,0.218683,0.158962,0.222511,0.157103,0.241639,0.159739,0.258032,0.165413,0.258414,0.165391,0.258668,0.165105,0.258673,0.165092,0.288183,0.071638,0.297477,0.054717,0.331112,0.037227,0.367208,0.048625,0.384698,0.082261,
0.382587,0.101451,0.352252,0.197512,0.352285,0.197894,0.352565,0.198135,0.371543,0.204705,0.388209,0.214461,0.389856,0.217854,0.390074,0.218079,0.393368,0.219805,0.397984,0.234571,0.398011,0.234640,0.404772,0.248560,0.403556,0.252075,0.403551,0.252388,0.404660,0.255936,0.397480,0.269640,0.397450,0.269709,0.392389,0.284332,0.389045,0.285957,0.388820,0.286175,
0.387070,0.289517,0.370118,0.298761,0.290212,0.323731,0.287613,0.324010,0.287375,0.324100,0.286558,0.324683,0.284576,0.324353,0.284441,0.324349,0.281998,0.324610,0.281820,0.324663,0.279687,0.325772,0.277622,0.325120,0.277418,0.325100,0.271016,0.325784,0.260749,0.320407,0.260599,0.320357,0.249163,0.318450,0.245529,0.315037,0.245337,0.314924,0.243592,0.314374,
0.242457,0.312189,0.242355,0.312055,0.239320,0.309204,0.239210,0.309125,0.237433,0.308193,0.237133,0.307237,0.236999,0.307023,0.235094,0.305231,0.185149,0.235310,0.177207,0.217710,0.177907,0.213515,0.177864,0.213214,0.176029,0.209437,-0.480000,0.209437,-0.480000,0.423971,-0.359099,0.423971,-0.359099,0.324028,-0.357668,0.309489,-0.346535,0.282616,-0.325981,0.262063,
-0.299133,0.250940,-0.270066,0.250940,-0.243216,0.262063,-0.222663,0.282616,-0.211531,0.309488,-0.210099,0.324028,-0.210100,0.349000,-0.209954,0.349354,-0.209600,0.349500,0.245371,0.349500,0.259910,0.350931,0.286784,0.362063,0.307336,0.382615,0.318459,0.409467,0.318459,0.438531,0.307338,0.465383,0.286785,0.485936,0.259910,0.497068,0.245371,0.498500,-0.284571,0.498500,
-0.299110,0.497068,-0.325981,0.485936,-0.346535,0.465382,-0.357667,0.438510,-0.359099,0.423971,-0.480000,0.423971,-0.480000,0.798531,-0.357658,0.798531,-0.357658,0.769467,-0.346535,0.742615,-0.325981,0.722063,-0.299110,0.710930,-0.284570,0.709500,0.255372,0.709500,0.269910,0.710932,0.296784,0.722062,0.317337,0.742615,0.328468,0.769489,0.329900,0.784028,0.329900,0.883971,
0.328469,0.898510,0.317336,0.925383,0.296784,0.945935,0.269932,0.957058,0.240869,0.957058,0.214017,0.945936,0.193464,0.925383,0.182332,0.898510,0.180900,0.883971,0.180901,0.859000,0.180755,0.858646,0.180401,0.858500,-0.284570,0.858500,-0.299109,0.857068,-0.325983,0.845936,-0.346536,0.825383,-0.357658,0.798531,-0.480000,0.798531,-0.480000,1.027805,-0.380000,1.027805,
-0.374913,1.026793,-0.380000,1.030192,-0.380000,1.027805,-0.480000,1.027805,-0.480000,4.569076,-0.479039,4.573903,-0.479040,4.578829,-0.474329,4.602513,-0.466863,4.620537,-0.456236,4.636441,-0.442440,4.650236,-0.426538,4.660862,-0.408514,4.668328,-0.384831,4.673039,-0.379907,4.673039,-0.375076,4.674000,0.415076,4.674000,0.419907,4.673039,0.419907,4.673039,$1*%
%AMFreePoly35*
4,1,191,0.413727,4.693039,0.418651,4.693039,0.442333,4.688328,0.460357,4.680862,0.476260,4.670236,0.490055,4.656441,0.500682,4.640537,0.508148,4.622513,0.512859,4.598831,0.512859,4.593907,0.513820,4.589076,0.513820,0.024924,0.512859,0.020092,0.512859,0.015169,0.508148,-0.008513,0.500682,-0.026537,0.490056,-0.042440,0.476261,-0.056235,0.460357,-0.066862,0.442333,-0.074328,
0.418651,-0.079039,0.413727,-0.079039,0.408896,-0.080000,-0.381256,-0.080000,-0.386087,-0.079039,-0.391011,-0.079039,-0.414694,-0.074328,-0.432718,-0.066862,-0.448622,-0.056235,-0.462417,-0.042439,-0.473043,-0.026537,-0.480509,-0.008513,-0.480508,-0.008511,-0.485220,0.015171,-0.485219,0.020096,-0.486180,0.024924,-0.486180,0.273971,-0.304871,0.273971,-0.304871,0.174028,-0.303439,0.159489,
-0.292307,0.132616,-0.271753,0.112063,-0.244904,0.100941,-0.215838,0.100941,-0.188987,0.112063,-0.168434,0.132616,-0.157303,0.159489,-0.155871,0.174028,-0.155871,0.199000,-0.155725,0.199354,-0.155371,0.199500,0.309600,0.199500,0.324138,0.200931,0.351012,0.212063,0.371565,0.232616,0.382688,0.259466,0.382688,0.288532,0.371565,0.315383,0.351012,0.335936,0.324139,0.347069,
0.309600,0.348500,-0.230342,0.348500,-0.244881,0.347068,-0.271753,0.335936,-0.292307,0.315383,-0.303439,0.288510,-0.304871,0.273971,-0.486180,0.273971,-0.486180,0.648532,-0.293430,0.648532,-0.293430,0.619467,-0.282307,0.592616,-0.261754,0.572063,-0.234881,0.560929,-0.220342,0.559500,0.309601,0.559500,0.324139,0.560931,0.351012,0.572063,0.371565,0.592616,0.382697,0.619489,
0.384129,0.634028,0.384129,0.733971,0.382697,0.748511,0.371565,0.775383,0.351012,0.795936,0.324161,0.807059,0.295097,0.807059,0.268245,0.795936,0.247692,0.775383,0.236560,0.748511,0.235129,0.733971,0.235129,0.709001,0.234983,0.708647,0.234629,0.708501,-0.220342,0.708500,-0.234881,0.707069,-0.261754,0.695936,-0.282307,0.675383,-0.293430,0.648532,-0.486180,0.648532,
-0.486180,0.809439,-0.379741,0.809439,-0.378525,0.805925,-0.378521,0.805612,-0.379630,0.802063,-0.372451,0.788360,-0.372421,0.788292,-0.367359,0.773666,-0.364016,0.772044,-0.363791,0.771826,-0.362040,0.768482,-0.345089,0.759238,-0.265183,0.734267,-0.262583,0.733990,-0.262346,0.733900,-0.261529,0.733316,-0.259545,0.733647,-0.259410,0.733651,-0.256969,0.733390,-0.256791,0.733336,
-0.254659,0.732225,-0.252593,0.732880,-0.252389,0.732900,-0.245985,0.732215,-0.235719,0.737593,-0.235569,0.737643,-0.224134,0.739548,-0.220499,0.742963,-0.220308,0.743076,-0.218563,0.743626,-0.217427,0.745812,-0.217325,0.745945,-0.214290,0.748796,-0.214180,0.748875,-0.212402,0.749806,-0.212103,0.750763,-0.211968,0.750978,-0.210065,0.752765,-0.160118,0.822688,-0.152179,0.840288,
-0.152877,0.844483,-0.152834,0.844783,-0.151001,0.848559,-0.155918,0.862770,-0.155938,0.862851,-0.158409,0.877680,-0.161826,0.880122,-0.162007,0.880365,-0.163380,0.884332,-0.176906,0.890903,-0.176979,0.890946,-0.189213,0.899683,-0.193354,0.898994,-0.193654,0.899037,-0.197483,0.900896,-0.216605,0.898261,-0.233002,0.892587,-0.233384,0.892610,-0.233639,0.892896,-0.263154,0.986361,
-0.272447,1.003281,-0.306082,1.020772,-0.342177,1.009373,-0.359670,0.975738,-0.357558,0.956548,-0.327223,0.860487,-0.327256,0.860105,-0.327536,0.859864,-0.346512,0.853294,-0.363180,0.843538,-0.364828,0.840146,-0.365046,0.839921,-0.368338,0.838194,-0.372953,0.823429,-0.372980,0.823360,-0.379741,0.809439,-0.486180,0.809439,-0.486180,4.589076,-0.485219,4.593903,-0.485220,4.598829,
-0.480509,4.622513,-0.473043,4.640537,-0.462416,4.656441,-0.448620,4.670236,-0.432718,4.680862,-0.414694,4.688328,-0.391011,4.693039,-0.386087,4.693039,-0.381256,4.694000,0.408896,4.694000,0.413727,4.693039,0.413727,4.693039,$1*%
%AMFreePoly36*
4,1,33,0.265652,0.531305,0.315652,0.506305,0.324749,0.499749,0.499749,0.324749,0.506305,0.315652,0.531305,0.265652,0.535000,0.250000,0.535000,-0.250000,0.531305,-0.265652,0.506305,-0.315652,0.499749,-0.324749,0.324749,-0.499749,0.315652,-0.506305,0.265652,-0.531305,0.250000,-0.535000,-0.250000,-0.535000,-0.265652,-0.531305,-0.315652,-0.506305,-0.324749,-0.499749,-0.499749,-0.324749,
-0.506305,-0.315652,-0.531305,-0.265652,-0.535000,-0.250000,-0.535000,0.250000,-0.531305,0.265652,-0.506305,0.315652,-0.499749,0.324749,-0.324749,0.499749,-0.315652,0.506305,-0.265652,0.531305,-0.250000,0.535000,0.250000,0.535000,0.265652,0.531305,0.265652,0.531305,$1*%
G04 Aperture macros list end*
%ADD10C,0.125000*%
G04 #@! TA.AperFunction,ComponentPad*
%ADD11C,1.300000*%
G04 #@! TD*
G04 #@! TA.AperFunction,SMDPad,CuDef*
%ADD12FreePoly0,225.000000*%
G04 #@! TD*
G04 #@! TA.AperFunction,ComponentPad*
%ADD13C,1.500000*%
G04 #@! TD*
G04 #@! TA.AperFunction,SMDPad,CuDef*
%ADD14FreePoly1,180.000000*%
G04 #@! TD*
G04 #@! TA.AperFunction,SMDPad,CuDef*
%ADD15FreePoly2,180.000000*%
G04 #@! TD*
G04 #@! TA.AperFunction,SMDPad,CuDef*
%ADD16FreePoly3,180.000000*%
G04 #@! TD*
G04 #@! TA.AperFunction,SMDPad,CuDef*
%ADD17FreePoly4,180.000000*%
G04 #@! TD*
G04 #@! TA.AperFunction,SMDPad,CuDef*
%ADD18FreePoly5,180.000000*%
G04 #@! TD*
G04 #@! TA.AperFunction,SMDPad,CuDef*
%ADD19FreePoly6,180.000000*%
G04 #@! TD*
G04 #@! TA.AperFunction,SMDPad,CuDef*
%ADD20FreePoly7,180.000000*%
G04 #@! TD*
G04 #@! TA.AperFunction,SMDPad,CuDef*
%ADD21FreePoly8,180.000000*%
G04 #@! TD*
G04 #@! TA.AperFunction,SMDPad,CuDef*
%ADD22FreePoly9,180.000000*%
G04 #@! TD*
G04 #@! TA.AperFunction,SMDPad,CuDef*
%ADD23FreePoly10,180.000000*%
G04 #@! TD*
G04 #@! TA.AperFunction,SMDPad,CuDef*
%ADD24FreePoly11,180.000000*%
G04 #@! TD*
G04 #@! TA.AperFunction,SMDPad,CuDef*
%ADD25FreePoly12,180.000000*%
G04 #@! TD*
G04 #@! TA.AperFunction,SMDPad,CuDef*
%ADD26FreePoly13,180.000000*%
G04 #@! TD*
G04 #@! TA.AperFunction,SMDPad,CuDef*
%ADD27FreePoly14,180.000000*%
G04 #@! TD*
G04 #@! TA.AperFunction,SMDPad,CuDef*
%ADD28FreePoly15,180.000000*%
G04 #@! TD*
G04 #@! TA.AperFunction,SMDPad,CuDef*
%ADD29FreePoly16,180.000000*%
G04 #@! TD*
G04 #@! TA.AperFunction,SMDPad,CuDef*
%ADD30FreePoly17,180.000000*%
G04 #@! TD*
G04 #@! TA.AperFunction,SMDPad,CuDef*
%ADD31FreePoly18,180.000000*%
G04 #@! TD*
G04 #@! TA.AperFunction,SMDPad,CuDef*
%ADD32FreePoly19,180.000000*%
G04 #@! TD*
G04 #@! TA.AperFunction,SMDPad,CuDef*
%ADD33FreePoly20,180.000000*%
G04 #@! TD*
G04 #@! TA.AperFunction,SMDPad,CuDef*
%ADD34FreePoly21,180.000000*%
G04 #@! TD*
G04 #@! TA.AperFunction,SMDPad,CuDef*
%ADD35FreePoly22,180.000000*%
G04 #@! TD*
G04 #@! TA.AperFunction,SMDPad,CuDef*
%ADD36FreePoly23,180.000000*%
G04 #@! TD*
G04 #@! TA.AperFunction,SMDPad,CuDef*
%ADD37FreePoly24,180.000000*%
G04 #@! TD*
G04 #@! TA.AperFunction,SMDPad,CuDef*
%ADD38FreePoly25,180.000000*%
G04 #@! TD*
G04 #@! TA.AperFunction,SMDPad,CuDef*
%ADD39FreePoly26,180.000000*%
G04 #@! TD*
G04 #@! TA.AperFunction,SMDPad,CuDef*
%ADD40FreePoly27,180.000000*%
G04 #@! TD*
G04 #@! TA.AperFunction,SMDPad,CuDef*
%ADD41FreePoly28,180.000000*%
G04 #@! TD*
G04 #@! TA.AperFunction,SMDPad,CuDef*
%ADD42FreePoly29,180.000000*%
G04 #@! TD*
G04 #@! TA.AperFunction,SMDPad,CuDef*
%ADD43FreePoly30,180.000000*%
G04 #@! TD*
G04 #@! TA.AperFunction,SMDPad,CuDef*
%ADD44FreePoly31,180.000000*%
G04 #@! TD*
G04 #@! TA.AperFunction,SMDPad,CuDef*
%ADD45FreePoly32,180.000000*%
G04 #@! TD*
G04 #@! TA.AperFunction,SMDPad,CuDef*
%ADD46FreePoly33,180.000000*%
G04 #@! TD*
G04 #@! TA.AperFunction,SMDPad,CuDef*
%ADD47FreePoly34,180.000000*%
G04 #@! TD*
G04 #@! TA.AperFunction,SMDPad,CuDef*
%ADD48FreePoly35,180.000000*%
G04 #@! TD*
G04 #@! TA.AperFunction,SMDPad,CuDef*
%ADD49FreePoly0,135.000000*%
G04 #@! TD*
G04 #@! TA.AperFunction,ComponentPad*
%ADD50FreePoly36,0.000000*%
G04 #@! TD*
G04 APERTURE END LIST*
D10*
G36*
X114333284Y-82901006D02*
G01*
X114552517Y-83327673D01*
X114583774Y-83383952D01*
X114609688Y-83422581D01*
X114631065Y-83447584D01*
X114649354Y-83461807D01*
X114673186Y-83472688D01*
X114703909Y-83479859D01*
X114743209Y-83482499D01*
X114773435Y-83482499D01*
X114773435Y-83435604D01*
X114756618Y-83435604D01*
X114717544Y-83431622D01*
X114690014Y-83421096D01*
X114670962Y-83405086D01*
X114647848Y-83369981D01*
X114603771Y-83290707D01*
X114626449Y-83290707D01*
X114848209Y-82901006D01*
X114780176Y-82901262D01*
X114581936Y-83250481D01*
X114402161Y-82901152D01*
X114333284Y-82901006D01*
G37*
G36*
X114142703Y-82897442D02*
G01*
X114189920Y-82906593D01*
X114224057Y-82919907D01*
X114248105Y-82936470D01*
X114266363Y-82958934D01*
X114280912Y-82991366D01*
X114290904Y-83036846D01*
X114294706Y-83099209D01*
X114292070Y-83150281D01*
X114285023Y-83189272D01*
X114274622Y-83218555D01*
X114261550Y-83240149D01*
X114237171Y-83265086D01*
X114209536Y-83282239D01*
X114177946Y-83292283D01*
X114119860Y-83299050D01*
X114015830Y-83301955D01*
X113949715Y-83298963D01*
X113896517Y-83290794D01*
X113854117Y-83278471D01*
X113831609Y-83266926D01*
X113814583Y-83251666D01*
X113802227Y-83232365D01*
X113794377Y-83208145D01*
X113791542Y-83177684D01*
X113853714Y-83177684D01*
X113858095Y-83198358D01*
X113865474Y-83214027D01*
X113876850Y-83226605D01*
X113894050Y-83236852D01*
X113914212Y-83243727D01*
X113937721Y-83247843D01*
X113998171Y-83250371D01*
X114008246Y-83250371D01*
X114040193Y-83250371D01*
X114109912Y-83248026D01*
X114152740Y-83243007D01*
X114185551Y-83232416D01*
X114207142Y-83218060D01*
X114220371Y-83200252D01*
X114228386Y-83178371D01*
X114233849Y-83148838D01*
X114235905Y-83109687D01*
X113791542Y-83109687D01*
X113790699Y-83089060D01*
X113792700Y-83058103D01*
X113852028Y-83058103D01*
X114234220Y-83058103D01*
X114232534Y-83032530D01*
X114228358Y-83010365D01*
X114218116Y-82989196D01*
X114202712Y-82972007D01*
X114181569Y-82959748D01*
X114147721Y-82951124D01*
X114109100Y-82947059D01*
X114060343Y-82945556D01*
X114014145Y-82945556D01*
X113963330Y-82948120D01*
X113925118Y-82954092D01*
X113895268Y-82964830D01*
X113877234Y-82977099D01*
X113864662Y-82993148D01*
X113857084Y-83012490D01*
X113853338Y-83033931D01*
X113852028Y-83058103D01*
X113792700Y-83058103D01*
X113794599Y-83028728D01*
X113804714Y-82986086D01*
X113819275Y-82956766D01*
X113840695Y-82932317D01*
X113865918Y-82915281D01*
X113895699Y-82904999D01*
X113922926Y-82900073D01*
X113957028Y-82896536D01*
X114038508Y-82893971D01*
X114078808Y-82893971D01*
X114142703Y-82897442D01*
G37*
G36*
X113323878Y-82950245D02*
G01*
X113439795Y-82945556D01*
X113500282Y-82945556D01*
X113551097Y-82950245D01*
X113578281Y-82956903D01*
X113597735Y-82966072D01*
X113607167Y-82974868D01*
X113613136Y-82987493D01*
X113615357Y-83005346D01*
X113612990Y-83028543D01*
X113606869Y-83044032D01*
X113597735Y-83054036D01*
X113575760Y-83061958D01*
X113540582Y-83065137D01*
X113438953Y-83067482D01*
X113328933Y-83067482D01*
X113279805Y-83070648D01*
X113244670Y-83078904D01*
X113220160Y-83090856D01*
X113206035Y-83103905D01*
X113195237Y-83122465D01*
X113188005Y-83148119D01*
X113185282Y-83183033D01*
X113188628Y-83223094D01*
X113197336Y-83250979D01*
X113210132Y-83269885D01*
X113226864Y-83281988D01*
X113255515Y-83292084D01*
X113296934Y-83299205D01*
X113354945Y-83301955D01*
X113465001Y-83301955D01*
X113499439Y-83301955D01*
X113522960Y-83301955D01*
X113542267Y-83301955D01*
X113570394Y-83300117D01*
X113607370Y-83293821D01*
X113631354Y-83285878D01*
X113650076Y-83273883D01*
X113664486Y-83257771D01*
X113674411Y-83238248D01*
X113680965Y-83212631D01*
X113683391Y-83179296D01*
X113682548Y-83161271D01*
X113622941Y-83161344D01*
X113622098Y-83170503D01*
X113619857Y-83197388D01*
X113614208Y-83214784D01*
X113606161Y-83225531D01*
X113594492Y-83233001D01*
X113575533Y-83239601D01*
X113546481Y-83244692D01*
X113443166Y-83248026D01*
X113425544Y-83248026D01*
X113410413Y-83248722D01*
X113397810Y-83248722D01*
X113386892Y-83248722D01*
X113377660Y-83248722D01*
X113346153Y-83247879D01*
X113317173Y-83244509D01*
X113281078Y-83237411D01*
X113262988Y-83229415D01*
X113255337Y-83221445D01*
X113250255Y-83209145D01*
X113248297Y-83190763D01*
X113251031Y-83164154D01*
X113258161Y-83146044D01*
X113268886Y-83134050D01*
X113283516Y-83126104D01*
X113304761Y-83120624D01*
X113334832Y-83118516D01*
X113441481Y-83117673D01*
X113543147Y-83117673D01*
X113587214Y-83114941D01*
X113619985Y-83107701D01*
X113643933Y-83097047D01*
X113657972Y-83085227D01*
X113668606Y-83068256D01*
X113675701Y-83044668D01*
X113678372Y-83012380D01*
X113674233Y-82975088D01*
X113662963Y-82947223D01*
X113645216Y-82926468D01*
X113621553Y-82911689D01*
X113590971Y-82902152D01*
X113551536Y-82898661D01*
X113439795Y-82896316D01*
X113379345Y-82896316D01*
X113340694Y-82896316D01*
X113312960Y-82898661D01*
X113273446Y-82902149D01*
X113245631Y-82911292D01*
X113226461Y-82924893D01*
X113212926Y-82944118D01*
X113203860Y-82971747D01*
X113200413Y-83010695D01*
X113259214Y-83010695D01*
X113261238Y-82991197D01*
X113266703Y-82976776D01*
X113275188Y-82966182D01*
X113289977Y-82957722D01*
X113323878Y-82950245D01*
G37*
G36*
X115328068Y-82521454D02*
G01*
X115328068Y-82580072D01*
X115771589Y-82580072D01*
X115771589Y-82840337D01*
X115839623Y-82840337D01*
X115839623Y-82275257D01*
X115304548Y-82275257D01*
X115304548Y-82333875D01*
X115771589Y-82333875D01*
X115771589Y-82521454D01*
X115328068Y-82521454D01*
G37*
G36*
X114782295Y-82760616D02*
G01*
X114794978Y-82784947D01*
X114812964Y-82805485D01*
X114836920Y-82822642D01*
X114864401Y-82833932D01*
X114904984Y-82841922D01*
X114962913Y-82845027D01*
X115039291Y-82841572D01*
X115092743Y-82832700D01*
X115128754Y-82820275D01*
X115151920Y-82805533D01*
X115171119Y-82784325D01*
X115185171Y-82758490D01*
X115194084Y-82727058D01*
X115197276Y-82688699D01*
X115197276Y-82676059D01*
X115197276Y-82444078D01*
X115138475Y-82444078D01*
X115138475Y-82660416D01*
X115135486Y-82704389D01*
X115127721Y-82735416D01*
X115116499Y-82756711D01*
X115102351Y-82770728D01*
X115076292Y-82781979D01*
X115035066Y-82790180D01*
X114972988Y-82793443D01*
X114908833Y-82790343D01*
X114862420Y-82782268D01*
X114829776Y-82770728D01*
X114810555Y-82756946D01*
X114795951Y-82735692D01*
X114786074Y-82704661D01*
X114782295Y-82660416D01*
X114782295Y-82444078D01*
X114723494Y-82444078D01*
X114723494Y-82837993D01*
X114782295Y-82837993D01*
X114782295Y-82760616D01*
G37*
G36*
X114288656Y-82842682D02*
G01*
X114354199Y-82842682D01*
X114421581Y-82839681D01*
X114473557Y-82831639D01*
X114512986Y-82819781D01*
X114542363Y-82804983D01*
X114561571Y-82788691D01*
X114577400Y-82766150D01*
X114589780Y-82735916D01*
X114598078Y-82696011D01*
X114601165Y-82644039D01*
X114597831Y-82564428D01*
X114590463Y-82535985D01*
X114573028Y-82502403D01*
X114556499Y-82482733D01*
X114533595Y-82466238D01*
X114502906Y-82452980D01*
X114470047Y-82444422D01*
X114432193Y-82438971D01*
X114388637Y-82437043D01*
X114353356Y-82437043D01*
X114270836Y-82438653D01*
X114221905Y-82442502D01*
X114194192Y-82448854D01*
X114168443Y-82460706D01*
X114144199Y-82478443D01*
X114130118Y-82494720D01*
X114119410Y-82516163D01*
X114112360Y-82544059D01*
X114109760Y-82580072D01*
X114171090Y-82580072D01*
X114173262Y-82554547D01*
X114179077Y-82535559D01*
X114189343Y-82519937D01*
X114204282Y-82508265D01*
X114223844Y-82500302D01*
X114255537Y-82493573D01*
X114291998Y-82489929D01*
X114343281Y-82488518D01*
X114353356Y-82488518D01*
X114439891Y-82491449D01*
X114463651Y-82496268D01*
X114491109Y-82505737D01*
X114507774Y-82515170D01*
X114519575Y-82527498D01*
X114527233Y-82543106D01*
X114533534Y-82570034D01*
X114536465Y-82589414D01*
X114538150Y-82632829D01*
X114538150Y-82644735D01*
X114535251Y-82696094D01*
X114527982Y-82729914D01*
X114518000Y-82751091D01*
X114502901Y-82766794D01*
X114484395Y-82777797D01*
X114461727Y-82784283D01*
X114397027Y-82791098D01*
X114334049Y-82791098D01*
X114290341Y-82791098D01*
X114262296Y-82788530D01*
X114215163Y-82778678D01*
X114194075Y-82769326D01*
X114178934Y-82753530D01*
X114168986Y-82729770D01*
X114165191Y-82694964D01*
X114103862Y-82694964D01*
X114107407Y-82736837D01*
X114117000Y-82768704D01*
X114131674Y-82792790D01*
X114151343Y-82810662D01*
X114175322Y-82823658D01*
X114205334Y-82833693D01*
X114242630Y-82840282D01*
X114288656Y-82842682D01*
G37*
G36*
X113545486Y-82443198D02*
G01*
X113836123Y-82628835D01*
X113518595Y-82840337D01*
X113616048Y-82838249D01*
X113892397Y-82650487D01*
X113927677Y-82650414D01*
X113927677Y-82840337D01*
X113986479Y-82840337D01*
X113986479Y-82272912D01*
X113927677Y-82272912D01*
X113927677Y-82598830D01*
X113892397Y-82600369D01*
X113644588Y-82442722D01*
X113545486Y-82443198D01*
G37*
G36*
X193073284Y-82901027D02*
G01*
X193292517Y-83327694D01*
X193323774Y-83383973D01*
X193349688Y-83422602D01*
X193371065Y-83447605D01*
X193389354Y-83461828D01*
X193413186Y-83472709D01*
X193443909Y-83479880D01*
X193483209Y-83482520D01*
X193513435Y-83482520D01*
X193513435Y-83435625D01*
X193496618Y-83435625D01*
X193457544Y-83431643D01*
X193430014Y-83421117D01*
X193410962Y-83405107D01*
X193387848Y-83370002D01*
X193343771Y-83290728D01*
X193366449Y-83290728D01*
X193588209Y-82901027D01*
X193520176Y-82901283D01*
X193321936Y-83250502D01*
X193142161Y-82901173D01*
X193073284Y-82901027D01*
G37*
G36*
X192882703Y-82897463D02*
G01*
X192929920Y-82906614D01*
X192964057Y-82919928D01*
X192988105Y-82936491D01*
X193006363Y-82958955D01*
X193020912Y-82991387D01*
X193030904Y-83036867D01*
X193034706Y-83099230D01*
X193032070Y-83150302D01*
X193025023Y-83189293D01*
X193014622Y-83218576D01*
X193001550Y-83240170D01*
X192977171Y-83265107D01*
X192949536Y-83282260D01*
X192917946Y-83292304D01*
X192859860Y-83299071D01*
X192755830Y-83301976D01*
X192689715Y-83298984D01*
X192636517Y-83290815D01*
X192594117Y-83278492D01*
X192571609Y-83266947D01*
X192554583Y-83251687D01*
X192542227Y-83232386D01*
X192534377Y-83208166D01*
X192531542Y-83177705D01*
X192593714Y-83177705D01*
X192598095Y-83198379D01*
X192605474Y-83214048D01*
X192616850Y-83226626D01*
X192634050Y-83236873D01*
X192654212Y-83243748D01*
X192677721Y-83247864D01*
X192738171Y-83250392D01*
X192748246Y-83250392D01*
X192780193Y-83250392D01*
X192849912Y-83248047D01*
X192892740Y-83243028D01*
X192925551Y-83232437D01*
X192947142Y-83218081D01*
X192960371Y-83200273D01*
X192968386Y-83178392D01*
X192973849Y-83148859D01*
X192975905Y-83109708D01*
X192531542Y-83109708D01*
X192530699Y-83089081D01*
X192532700Y-83058124D01*
X192592028Y-83058124D01*
X192974220Y-83058124D01*
X192972534Y-83032551D01*
X192968358Y-83010386D01*
X192958116Y-82989217D01*
X192942712Y-82972028D01*
X192921569Y-82959769D01*
X192887721Y-82951145D01*
X192849100Y-82947080D01*
X192800343Y-82945577D01*
X192754145Y-82945577D01*
X192703330Y-82948141D01*
X192665118Y-82954113D01*
X192635268Y-82964851D01*
X192617234Y-82977120D01*
X192604662Y-82993169D01*
X192597084Y-83012511D01*
X192593338Y-83033952D01*
X192592028Y-83058124D01*
X192532700Y-83058124D01*
X192534599Y-83028749D01*
X192544714Y-82986107D01*
X192559275Y-82956787D01*
X192580695Y-82932338D01*
X192605918Y-82915302D01*
X192635699Y-82905020D01*
X192662926Y-82900094D01*
X192697028Y-82896557D01*
X192778508Y-82893992D01*
X192818808Y-82893992D01*
X192882703Y-82897463D01*
G37*
G36*
X192063878Y-82950266D02*
G01*
X192179795Y-82945577D01*
X192240282Y-82945577D01*
X192291097Y-82950266D01*
X192318281Y-82956924D01*
X192337735Y-82966093D01*
X192347167Y-82974889D01*
X192353136Y-82987514D01*
X192355357Y-83005367D01*
X192352990Y-83028564D01*
X192346869Y-83044053D01*
X192337735Y-83054057D01*
X192315760Y-83061979D01*
X192280582Y-83065158D01*
X192178953Y-83067503D01*
X192068933Y-83067503D01*
X192019805Y-83070669D01*
X191984670Y-83078925D01*
X191960160Y-83090877D01*
X191946035Y-83103926D01*
X191935237Y-83122486D01*
X191928005Y-83148140D01*
X191925282Y-83183054D01*
X191928628Y-83223115D01*
X191937336Y-83251000D01*
X191950132Y-83269906D01*
X191966864Y-83282009D01*
X191995515Y-83292105D01*
X192036934Y-83299226D01*
X192094945Y-83301976D01*
X192205001Y-83301976D01*
X192239439Y-83301976D01*
X192262960Y-83301976D01*
X192282267Y-83301976D01*
X192310394Y-83300138D01*
X192347370Y-83293842D01*
X192371354Y-83285899D01*
X192390076Y-83273904D01*
X192404486Y-83257792D01*
X192414411Y-83238269D01*
X192420965Y-83212652D01*
X192423391Y-83179317D01*
X192422548Y-83161292D01*
X192362941Y-83161365D01*
X192362098Y-83170524D01*
X192359857Y-83197409D01*
X192354208Y-83214805D01*
X192346161Y-83225552D01*
X192334492Y-83233022D01*
X192315533Y-83239622D01*
X192286481Y-83244713D01*
X192183166Y-83248047D01*
X192165544Y-83248047D01*
X192150413Y-83248743D01*
X192137810Y-83248743D01*
X192126892Y-83248743D01*
X192117660Y-83248743D01*
X192086153Y-83247900D01*
X192057173Y-83244530D01*
X192021078Y-83237432D01*
X192002988Y-83229436D01*
X191995337Y-83221466D01*
X191990255Y-83209166D01*
X191988297Y-83190784D01*
X191991031Y-83164175D01*
X191998161Y-83146065D01*
X192008886Y-83134071D01*
X192023516Y-83126125D01*
X192044761Y-83120645D01*
X192074832Y-83118537D01*
X192181481Y-83117694D01*
X192283147Y-83117694D01*
X192327214Y-83114962D01*
X192359985Y-83107722D01*
X192383933Y-83097068D01*
X192397972Y-83085248D01*
X192408606Y-83068277D01*
X192415701Y-83044689D01*
X192418372Y-83012401D01*
X192414233Y-82975109D01*
X192402963Y-82947244D01*
X192385216Y-82926489D01*
X192361553Y-82911710D01*
X192330971Y-82902173D01*
X192291536Y-82898682D01*
X192179795Y-82896337D01*
X192119345Y-82896337D01*
X192080694Y-82896337D01*
X192052960Y-82898682D01*
X192013446Y-82902170D01*
X191985631Y-82911313D01*
X191966461Y-82924914D01*
X191952926Y-82944139D01*
X191943860Y-82971768D01*
X191940413Y-83010716D01*
X191999214Y-83010716D01*
X192001238Y-82991218D01*
X192006703Y-82976797D01*
X192015188Y-82966203D01*
X192029977Y-82957743D01*
X192063878Y-82950266D01*
G37*
G36*
X194068068Y-82521475D02*
G01*
X194068068Y-82580093D01*
X194511589Y-82580093D01*
X194511589Y-82840358D01*
X194579623Y-82840358D01*
X194579623Y-82275278D01*
X194044548Y-82275278D01*
X194044548Y-82333896D01*
X194511589Y-82333896D01*
X194511589Y-82521475D01*
X194068068Y-82521475D01*
G37*
G36*
X193522295Y-82760637D02*
G01*
X193534978Y-82784968D01*
X193552964Y-82805506D01*
X193576920Y-82822663D01*
X193604401Y-82833953D01*
X193644984Y-82841943D01*
X193702913Y-82845048D01*
X193779291Y-82841593D01*
X193832743Y-82832721D01*
X193868754Y-82820296D01*
X193891920Y-82805554D01*
X193911119Y-82784346D01*
X193925171Y-82758511D01*
X193934084Y-82727079D01*
X193937276Y-82688720D01*
X193937276Y-82676080D01*
X193937276Y-82444099D01*
X193878475Y-82444099D01*
X193878475Y-82660437D01*
X193875486Y-82704410D01*
X193867721Y-82735437D01*
X193856499Y-82756732D01*
X193842351Y-82770749D01*
X193816292Y-82782000D01*
X193775066Y-82790201D01*
X193712988Y-82793464D01*
X193648833Y-82790364D01*
X193602420Y-82782289D01*
X193569776Y-82770749D01*
X193550555Y-82756967D01*
X193535951Y-82735713D01*
X193526074Y-82704682D01*
X193522295Y-82660437D01*
X193522295Y-82444099D01*
X193463494Y-82444099D01*
X193463494Y-82838014D01*
X193522295Y-82838014D01*
X193522295Y-82760637D01*
G37*
G36*
X193028656Y-82842703D02*
G01*
X193094199Y-82842703D01*
X193161581Y-82839702D01*
X193213557Y-82831660D01*
X193252986Y-82819802D01*
X193282363Y-82805004D01*
X193301571Y-82788712D01*
X193317400Y-82766171D01*
X193329780Y-82735937D01*
X193338078Y-82696032D01*
X193341165Y-82644060D01*
X193337831Y-82564449D01*
X193330463Y-82536006D01*
X193313028Y-82502424D01*
X193296499Y-82482754D01*
X193273595Y-82466259D01*
X193242906Y-82453001D01*
X193210047Y-82444443D01*
X193172193Y-82438992D01*
X193128637Y-82437064D01*
X193093356Y-82437064D01*
X193010836Y-82438674D01*
X192961905Y-82442523D01*
X192934192Y-82448875D01*
X192908443Y-82460727D01*
X192884199Y-82478464D01*
X192870118Y-82494741D01*
X192859410Y-82516184D01*
X192852360Y-82544080D01*
X192849760Y-82580093D01*
X192911090Y-82580093D01*
X192913262Y-82554568D01*
X192919077Y-82535580D01*
X192929343Y-82519958D01*
X192944282Y-82508286D01*
X192963844Y-82500323D01*
X192995537Y-82493594D01*
X193031998Y-82489950D01*
X193083281Y-82488539D01*
X193093356Y-82488539D01*
X193179891Y-82491470D01*
X193203651Y-82496289D01*
X193231109Y-82505758D01*
X193247774Y-82515191D01*
X193259575Y-82527519D01*
X193267233Y-82543127D01*
X193273534Y-82570055D01*
X193276465Y-82589435D01*
X193278150Y-82632850D01*
X193278150Y-82644756D01*
X193275251Y-82696115D01*
X193267982Y-82729935D01*
X193258000Y-82751112D01*
X193242901Y-82766815D01*
X193224395Y-82777818D01*
X193201727Y-82784304D01*
X193137027Y-82791119D01*
X193074049Y-82791119D01*
X193030341Y-82791119D01*
X193002296Y-82788551D01*
X192955163Y-82778699D01*
X192934075Y-82769347D01*
X192918934Y-82753551D01*
X192908986Y-82729791D01*
X192905191Y-82694985D01*
X192843862Y-82694985D01*
X192847407Y-82736858D01*
X192857000Y-82768725D01*
X192871674Y-82792811D01*
X192891343Y-82810683D01*
X192915322Y-82823679D01*
X192945334Y-82833714D01*
X192982630Y-82840303D01*
X193028656Y-82842703D01*
G37*
G36*
X192285486Y-82443219D02*
G01*
X192576123Y-82628856D01*
X192258595Y-82840358D01*
X192356048Y-82838270D01*
X192632397Y-82650508D01*
X192667677Y-82650435D01*
X192667677Y-82840358D01*
X192726479Y-82840358D01*
X192726479Y-82272933D01*
X192667677Y-82272933D01*
X192667677Y-82598851D01*
X192632397Y-82600390D01*
X192384588Y-82442743D01*
X192285486Y-82443219D01*
G37*
D11*
G04 #@! TO.P,REF\u002A\u002A,1*
G04 #@! TO.N,N/C*
X155846532Y-80755341D03*
D12*
X155846532Y-80755341D03*
X155846532Y-80755341D03*
D13*
X155846532Y-80755341D03*
D11*
X158386532Y-80755341D03*
D13*
X158386532Y-80755341D03*
D11*
X160926532Y-80755341D03*
D13*
X160926532Y-80755341D03*
D11*
X163466532Y-80755341D03*
X163466532Y-80755341D03*
D12*
X163466532Y-80755341D03*
D13*
X163466532Y-80755341D03*
D11*
X166006532Y-80755341D03*
X166006532Y-80755341D03*
D13*
X166006532Y-80755341D03*
D11*
X168546532Y-80755341D03*
X168546532Y-80755341D03*
D13*
X168546532Y-80755341D03*
D11*
X171086532Y-80755341D03*
X171086532Y-80755341D03*
D12*
X171086532Y-80755341D03*
X171086532Y-80755341D03*
D13*
X171086532Y-80755341D03*
D11*
X173626532Y-80755341D03*
X173626532Y-80755341D03*
D13*
X173626532Y-80755341D03*
D11*
X176166532Y-80755341D03*
X176166532Y-80755341D03*
D13*
X176166532Y-80755341D03*
D11*
X178706532Y-80755341D03*
X178706532Y-80755341D03*
D12*
X178706532Y-80755341D03*
D13*
X178706532Y-80755341D03*
D11*
X181246532Y-80755341D03*
X181246532Y-80755341D03*
D13*
X181246532Y-80755341D03*
D11*
X183786532Y-80755341D03*
X183786532Y-80755341D03*
D13*
X183786532Y-80755341D03*
D11*
X186326532Y-80755341D03*
X186326532Y-80755341D03*
D12*
X186326532Y-80755341D03*
X186326532Y-80755341D03*
D13*
X186326532Y-80755341D03*
D11*
X188866532Y-80755341D03*
X188866532Y-80755341D03*
D13*
X188866532Y-80755341D03*
D11*
X191406532Y-80755341D03*
X191406532Y-80755341D03*
D13*
X191406532Y-80755341D03*
D11*
X193946532Y-80755341D03*
X193946532Y-80755341D03*
D12*
X193946532Y-80755341D03*
D13*
X193946532Y-80755341D03*
D11*
X196486532Y-80755341D03*
X196486532Y-80755341D03*
D13*
X196486532Y-80755341D03*
D11*
X199026532Y-80755341D03*
X199026532Y-80755341D03*
D13*
X199026532Y-80755341D03*
D11*
X201566532Y-80755341D03*
X201566532Y-80755341D03*
D12*
X201566532Y-80755341D03*
X201566532Y-80755341D03*
D13*
X201566532Y-80755341D03*
D11*
X204106532Y-80755341D03*
X204106532Y-80755341D03*
D13*
X204106532Y-80755341D03*
D11*
X206646532Y-80755341D03*
X206646532Y-80755341D03*
D13*
X206646532Y-80755341D03*
D11*
X209186532Y-80755341D03*
X209186532Y-80755341D03*
D12*
X209186532Y-80755341D03*
D13*
X209186532Y-80755341D03*
D11*
X211726532Y-80755341D03*
X211726532Y-80755341D03*
D13*
X211726532Y-80755341D03*
D11*
X214266532Y-80755341D03*
X214266532Y-80755341D03*
D13*
X214266532Y-80755341D03*
D11*
X216806532Y-80755341D03*
X216806532Y-80755341D03*
D12*
X216806532Y-80755341D03*
X216806532Y-80755341D03*
D13*
X216806532Y-80755341D03*
D11*
X219346532Y-80755341D03*
X219346532Y-80755341D03*
D13*
X219346532Y-80755341D03*
D11*
X221886532Y-80755341D03*
X221886532Y-80755341D03*
D13*
X221886532Y-80755341D03*
D11*
X224426532Y-80755341D03*
D13*
X224426532Y-80755341D03*
D11*
X226966532Y-80755341D03*
D13*
X226966532Y-80755341D03*
D11*
X229506532Y-80755341D03*
D13*
X229506532Y-80755341D03*
D11*
G04 #@! TO.P,REF\u002A\u002A,2*
X155846532Y-78215341D03*
D12*
X155846532Y-78215341D03*
X155846532Y-78215341D03*
D13*
X155846532Y-78215341D03*
D11*
X158386532Y-78215341D03*
D13*
X158386532Y-78215341D03*
D11*
X160926532Y-78215341D03*
D13*
X160926532Y-78215341D03*
D11*
X163466532Y-78215341D03*
D12*
X163466532Y-78215341D03*
D11*
X163466533Y-78215341D03*
D13*
X163466533Y-78215341D03*
D11*
X166006532Y-78215341D03*
X166006532Y-78215341D03*
D13*
X166006532Y-78215341D03*
D11*
X168546532Y-78215341D03*
X168546532Y-78215341D03*
D13*
X168546532Y-78215341D03*
D11*
X171086532Y-78215341D03*
D12*
X171086532Y-78215341D03*
X171086532Y-78215341D03*
D13*
X171086532Y-78215341D03*
D11*
X171086533Y-78215341D03*
X173626532Y-78215341D03*
X173626532Y-78215341D03*
D13*
X173626532Y-78215341D03*
D11*
X176166532Y-78215341D03*
X176166532Y-78215341D03*
D13*
X176166532Y-78215341D03*
D11*
X178706532Y-78215341D03*
D12*
X178706532Y-78215341D03*
D11*
X178706533Y-78215341D03*
D13*
X178706533Y-78215341D03*
D11*
X181246532Y-78215341D03*
X181246532Y-78215341D03*
D13*
X181246532Y-78215341D03*
D11*
X183786532Y-78215341D03*
X183786532Y-78215341D03*
D13*
X183786532Y-78215341D03*
D11*
X186326532Y-78215341D03*
D12*
X186326532Y-78215341D03*
X186326532Y-78215341D03*
D13*
X186326532Y-78215341D03*
D11*
X186326533Y-78215341D03*
X188866532Y-78215341D03*
X188866532Y-78215341D03*
D13*
X188866532Y-78215341D03*
D11*
X191406532Y-78215341D03*
X191406532Y-78215341D03*
D13*
X191406532Y-78215341D03*
D11*
X193946532Y-78215341D03*
D12*
X193946532Y-78215341D03*
D11*
X193946533Y-78215341D03*
D13*
X193946533Y-78215341D03*
D11*
X196486532Y-78215341D03*
X196486532Y-78215341D03*
D13*
X196486532Y-78215341D03*
D11*
X199026532Y-78215341D03*
X199026532Y-78215341D03*
D13*
X199026532Y-78215341D03*
D11*
X201566532Y-78215341D03*
D12*
X201566532Y-78215341D03*
X201566532Y-78215341D03*
D13*
X201566532Y-78215341D03*
D11*
X201566533Y-78215341D03*
X204106532Y-78215341D03*
X204106532Y-78215341D03*
D13*
X204106532Y-78215341D03*
D11*
X206646532Y-78215341D03*
X206646532Y-78215341D03*
D13*
X206646532Y-78215341D03*
D11*
X209186532Y-78215341D03*
D12*
X209186532Y-78215341D03*
D11*
X209186533Y-78215341D03*
D13*
X209186533Y-78215341D03*
D11*
X211726532Y-78215341D03*
X211726532Y-78215341D03*
D13*
X211726532Y-78215341D03*
D11*
X214266532Y-78215341D03*
X214266532Y-78215341D03*
D13*
X214266532Y-78215341D03*
D11*
X216806532Y-78215341D03*
D12*
X216806532Y-78215341D03*
X216806532Y-78215341D03*
D13*
X216806532Y-78215341D03*
D11*
X216806533Y-78215341D03*
X219346532Y-78215341D03*
X219346532Y-78215341D03*
D13*
X219346532Y-78215341D03*
D11*
X221886532Y-78215341D03*
X221886532Y-78215341D03*
D13*
X221886532Y-78215341D03*
D11*
X224426533Y-78215341D03*
D13*
X224426533Y-78215341D03*
D11*
X226966532Y-78215341D03*
D13*
X226966532Y-78215341D03*
D11*
X229506532Y-78215341D03*
D13*
X229506532Y-78215341D03*
G04 #@! TD*
D14*
G04 #@! TO.P,U1,31,Pin_31*
G04 #@! TO.N,31*
X94886531Y-85200321D03*
D15*
G04 #@! TO.P,U1,32,Pin_0*
G04 #@! TO.N,32*
X96156531Y-85200322D03*
D16*
G04 #@! TO.P,U1,33,Pin_1*
G04 #@! TO.N,33*
X97426531Y-85200322D03*
D17*
G04 #@! TO.P,U1,34,Pin_2*
G04 #@! TO.N,34*
X98696531Y-85200321D03*
D18*
G04 #@! TO.P,U1,35,Pin_3*
G04 #@! TO.N,35*
X99966531Y-85200322D03*
D19*
G04 #@! TO.P,U1,36,Pin_4*
G04 #@! TO.N,36*
X101236531Y-85200320D03*
D20*
G04 #@! TO.P,U1,37,Pin_5*
G04 #@! TO.N,37*
X102506531Y-85200322D03*
D21*
G04 #@! TO.P,U1,38,Pin_6*
G04 #@! TO.N,38*
X103776531Y-85200322D03*
D22*
G04 #@! TO.P,U1,39,Pin_7*
G04 #@! TO.N,39*
X105046531Y-85200321D03*
D23*
G04 #@! TO.P,U1,40,Pin_8*
G04 #@! TO.N,40*
X106316531Y-85200322D03*
D24*
G04 #@! TO.P,U1,41,Pin_9*
G04 #@! TO.N,41*
X107586531Y-85200322D03*
D25*
G04 #@! TO.P,U1,42,Pin_10*
G04 #@! TO.N,42*
X108856531Y-85200322D03*
D26*
G04 #@! TO.P,U1,43,Pin_11*
G04 #@! TO.N,43*
X110126531Y-85200322D03*
D27*
G04 #@! TO.P,U1,44,Pin_12*
G04 #@! TO.N,44*
X111396531Y-85200321D03*
D28*
G04 #@! TO.P,U1,45,Pin_13*
G04 #@! TO.N,45*
X112666531Y-85200322D03*
D29*
G04 #@! TO.P,U1,46,Pin_14*
G04 #@! TO.N,46*
X115206531Y-85200321D03*
D30*
G04 #@! TO.P,U1,47,Pin_15*
G04 #@! TO.N,47*
X116476531Y-85200322D03*
D31*
G04 #@! TO.P,U1,48,Pin_16*
G04 #@! TO.N,48*
X117746531Y-85200321D03*
D32*
G04 #@! TO.P,U1,49,Pin_17*
G04 #@! TO.N,49*
X119016531Y-85200322D03*
D33*
G04 #@! TO.P,U1,50,Pin_18*
G04 #@! TO.N,50*
X120286531Y-85200322D03*
D34*
G04 #@! TO.P,U1,51,Pin_19*
G04 #@! TO.N,51*
X121556531Y-85200321D03*
D35*
G04 #@! TO.P,U1,52,Pin_20*
G04 #@! TO.N,52*
X122826531Y-85200322D03*
D36*
G04 #@! TO.P,U1,53,Pin_21*
G04 #@! TO.N,53*
X124096531Y-85200322D03*
D37*
G04 #@! TO.P,U1,54,Pin_22*
G04 #@! TO.N,54*
X125366531Y-85200322D03*
D38*
G04 #@! TO.P,U1,55,Pin_23*
G04 #@! TO.N,55*
X126636531Y-85200322D03*
D39*
G04 #@! TO.P,U1,56,Pin_24*
G04 #@! TO.N,56*
X127906531Y-85200321D03*
D40*
G04 #@! TO.P,U1,57,Pin_25*
G04 #@! TO.N,57*
X129176531Y-85200322D03*
D41*
G04 #@! TO.P,U1,58,Pin_26*
G04 #@! TO.N,58*
X130446531Y-85200322D03*
D42*
G04 #@! TO.P,U1,59,Pin_27*
G04 #@! TO.N,59*
X131716531Y-85200320D03*
D43*
G04 #@! TO.P,U1,60,Pin_28*
G04 #@! TO.N,60*
X132986531Y-85200322D03*
D44*
G04 #@! TO.P,U1,63,Bot_Pos*
G04 #@! TO.N,BOT_RAIL_POS*
X93591131Y-85894321D03*
D45*
G04 #@! TO.P,U1,64,Bot_Neg*
G04 #@! TO.N,BOT_RAIL_NEG*
X92321131Y-85944321D03*
D46*
G04 #@! TO.P,U1,65,Center*
G04 #@! TO.N,PASS*
X113936531Y-83854120D03*
D47*
G04 #@! TO.P,U1,66,PadSense_Top*
G04 #@! TO.N,SENSE_TOP*
X134281932Y-85943320D03*
D48*
G04 #@! TO.P,U1,67,PadSense_Bottom*
G04 #@! TO.N,SENSE_BOTTOM*
X135541932Y-85923321D03*
G04 #@! TD*
D11*
G04 #@! TO.P,J11,1*
G04 #@! TO.N,N/C*
X77106532Y-57895593D03*
D49*
X77106532Y-57895593D03*
D11*
G04 #@! TO.P,J11,1,Pin_1*
G04 #@! TO.N,31*
X77106532Y-60435593D03*
X77106532Y-62975593D03*
X77106532Y-65515593D03*
X77106532Y-68055593D03*
X77106532Y-70595593D03*
G04 #@! TO.P,J11,2*
G04 #@! TO.N,N/C*
X79646532Y-57895593D03*
D49*
X79646532Y-57895593D03*
D11*
X79646532Y-60435593D03*
X79646532Y-62975593D03*
X79646532Y-65515593D03*
X79646532Y-68055593D03*
X79646532Y-70595593D03*
G04 #@! TO.P,J11,3*
X82186532Y-57895593D03*
D49*
X82186532Y-57895593D03*
D11*
X82186532Y-60435593D03*
X82186532Y-62975593D03*
X82186532Y-65515593D03*
X82186532Y-68055593D03*
X82186532Y-70595593D03*
G04 #@! TO.P,J11,4*
X84726532Y-57895593D03*
D49*
X84726532Y-57895593D03*
D11*
X84726532Y-60435593D03*
X84726532Y-62975593D03*
X84726532Y-65515593D03*
X84726532Y-68055593D03*
X84726532Y-70595593D03*
D49*
X87266532Y-57895593D03*
D11*
G04 #@! TO.P,J11,5*
X87266532Y-57895593D03*
X87266532Y-60435593D03*
X87266532Y-62975593D03*
X87266532Y-65515593D03*
X87266532Y-68055593D03*
X87266532Y-70595593D03*
G04 #@! TO.P,J11,6*
X89806532Y-57895593D03*
D49*
X89806532Y-57895593D03*
D11*
X89806532Y-60435593D03*
X89806532Y-62975593D03*
X89806532Y-65515593D03*
X89806532Y-68055593D03*
X89806532Y-70595593D03*
G04 #@! TO.P,J11,7*
X92346532Y-57895593D03*
D49*
X92346532Y-57895593D03*
D11*
X92346532Y-60435593D03*
X92346532Y-62975593D03*
X92346532Y-65515593D03*
X92346532Y-68055593D03*
X92346532Y-70595593D03*
D49*
X94886532Y-57895593D03*
D11*
G04 #@! TO.P,J11,8*
X94886532Y-57895593D03*
X94886532Y-60435593D03*
X94886532Y-62975593D03*
X94886532Y-65515593D03*
X94886532Y-68055593D03*
X94886532Y-70595593D03*
G04 #@! TO.P,J11,9*
X97426532Y-57895593D03*
D49*
X97426532Y-57895593D03*
D11*
X97426532Y-60435593D03*
X97426532Y-62975593D03*
X97426532Y-65515593D03*
X97426532Y-68055593D03*
X97426532Y-70595593D03*
G04 #@! TO.P,J11,10*
X99966532Y-57895593D03*
D49*
X99966532Y-57895593D03*
D11*
X99966532Y-60435593D03*
X99966532Y-62975593D03*
X99966532Y-65515593D03*
X99966532Y-68055593D03*
X99966532Y-70595593D03*
G04 #@! TO.P,J11,11*
X102506532Y-57895593D03*
D49*
X102506532Y-57895593D03*
D11*
X102506532Y-60435593D03*
X102506532Y-62975593D03*
X102506532Y-65515593D03*
X102506532Y-68055593D03*
X102506532Y-70595593D03*
G04 #@! TO.P,J11,12*
X105046532Y-57895593D03*
D49*
X105046532Y-57895593D03*
D11*
X105046532Y-60435593D03*
X105046532Y-62975593D03*
X105046532Y-65515593D03*
X105046532Y-68055593D03*
X105046532Y-70595593D03*
G04 #@! TO.P,J11,13*
X107586532Y-57895593D03*
D49*
X107586532Y-57895593D03*
D11*
X107586532Y-60435593D03*
X107586532Y-62975593D03*
X107586532Y-65515593D03*
X107586532Y-68055593D03*
X107586532Y-70595593D03*
G04 #@! TO.P,J11,14*
X110126532Y-57895593D03*
D49*
X110126532Y-57895593D03*
D11*
X110126532Y-60435593D03*
X110126532Y-62975593D03*
X110126532Y-65515593D03*
X110126532Y-68055593D03*
X110126532Y-70595593D03*
G04 #@! TO.P,J11,15*
X112666532Y-57895593D03*
D49*
X112666532Y-57895593D03*
D11*
X112666532Y-60435593D03*
X112666532Y-62975593D03*
X112666532Y-65515593D03*
X112666532Y-68055593D03*
X112666532Y-70595593D03*
G04 #@! TO.P,J11,16*
X115206532Y-57895593D03*
D49*
X115206532Y-57895593D03*
D11*
X115206532Y-60435593D03*
X115206532Y-62975593D03*
X115206532Y-65515593D03*
X115206532Y-68055593D03*
X115206532Y-70595593D03*
G04 #@! TO.P,J11,17*
X117746532Y-57895593D03*
D49*
X117746532Y-57895593D03*
D11*
X117746532Y-60435593D03*
X117746532Y-62975593D03*
X117746532Y-65515593D03*
X117746532Y-68055593D03*
X117746532Y-70595593D03*
G04 #@! TO.P,J11,18*
X120286532Y-57895593D03*
D49*
X120286532Y-57895593D03*
D11*
X120286532Y-60435593D03*
X120286532Y-62975593D03*
X120286532Y-65515593D03*
X120286532Y-68055593D03*
X120286532Y-70595593D03*
G04 #@! TO.P,J11,19*
X122826532Y-57895593D03*
D49*
X122826532Y-57895593D03*
D11*
X122826532Y-60435593D03*
X122826532Y-62975593D03*
X122826532Y-65515593D03*
X122826532Y-68055593D03*
X122826532Y-70595593D03*
G04 #@! TO.P,J11,20*
X125366532Y-57895593D03*
D49*
X125366532Y-57895593D03*
D11*
X125366532Y-60435593D03*
X125366532Y-62975593D03*
X125366532Y-65515593D03*
X125366532Y-68055593D03*
X125366532Y-70595593D03*
G04 #@! TO.P,J11,21*
X127906532Y-57895593D03*
D49*
X127906532Y-57895593D03*
D11*
X127906532Y-60435593D03*
X127906532Y-62975593D03*
X127906532Y-65515593D03*
X127906532Y-68055593D03*
X127906532Y-70595593D03*
G04 #@! TO.P,J11,22*
X130446532Y-57895593D03*
D49*
X130446532Y-57895593D03*
D11*
X130446532Y-60435593D03*
X130446532Y-62975593D03*
X130446532Y-65515593D03*
X130446532Y-68055593D03*
X130446532Y-70595593D03*
G04 #@! TO.P,J11,23*
X132986532Y-57895593D03*
D49*
X132986532Y-57895593D03*
D11*
X132986532Y-60435593D03*
X132986532Y-62975593D03*
X132986532Y-65515593D03*
X132986532Y-68055593D03*
X132986532Y-70595593D03*
G04 #@! TO.P,J11,24*
X135526532Y-57895593D03*
D49*
X135526532Y-57895593D03*
D11*
X135526532Y-60435593D03*
X135526532Y-62975593D03*
X135526532Y-65515593D03*
X135526532Y-68055593D03*
X135526532Y-70595593D03*
G04 #@! TO.P,J11,25*
X138066532Y-57895593D03*
D49*
X138066532Y-57895593D03*
D11*
X138066532Y-60435593D03*
X138066532Y-62975593D03*
X138066532Y-65515593D03*
X138066532Y-68055593D03*
X138066532Y-70595593D03*
G04 #@! TO.P,J11,26*
X140606532Y-57895593D03*
D49*
X140606532Y-57895593D03*
D11*
X140606532Y-60435593D03*
X140606532Y-62975593D03*
X140606532Y-65515593D03*
X140606532Y-68055593D03*
X140606532Y-70595593D03*
G04 #@! TO.P,J11,27*
X143146532Y-57895593D03*
D49*
X143146532Y-57895593D03*
D11*
X143146532Y-60435593D03*
X143146532Y-62975593D03*
X143146532Y-65515593D03*
X143146532Y-68055593D03*
X143146532Y-70595593D03*
G04 #@! TO.P,J11,28*
X145686532Y-57895593D03*
D49*
X145686532Y-57895593D03*
D11*
X145686532Y-60435593D03*
X145686532Y-62975593D03*
X145686532Y-65515593D03*
X145686532Y-68055593D03*
X145686532Y-70595593D03*
G04 #@! TO.P,J11,29*
X148226532Y-57895593D03*
D49*
X148226532Y-57895593D03*
D11*
X148226532Y-60435593D03*
X148226532Y-62975593D03*
X148226532Y-65515593D03*
X148226532Y-68055593D03*
X148226532Y-70595593D03*
G04 #@! TO.P,J11,30*
X150766532Y-57895593D03*
D49*
X150766532Y-57895593D03*
D11*
X150766532Y-60435593D03*
X150766532Y-62975593D03*
X150766532Y-65515593D03*
X150766532Y-68055593D03*
X150766532Y-70595593D03*
G04 #@! TD*
G04 #@! TO.P,REF\u002A\u002A,1*
G04 #@! TO.N,N/C*
X155846532Y-35035342D03*
D12*
X155846532Y-35035342D03*
X155846532Y-35035342D03*
D13*
X155846532Y-35035342D03*
D11*
X158386532Y-35035342D03*
D13*
X158386532Y-35035342D03*
D11*
X160926532Y-35035342D03*
D13*
X160926532Y-35035342D03*
D11*
X163466532Y-35035342D03*
X163466532Y-35035342D03*
D12*
X163466532Y-35035342D03*
D13*
X163466532Y-35035342D03*
D11*
X166006532Y-35035342D03*
X166006532Y-35035342D03*
D13*
X166006532Y-35035342D03*
D11*
X168546532Y-35035342D03*
X168546532Y-35035342D03*
D13*
X168546532Y-35035342D03*
D11*
X171086532Y-35035342D03*
X171086532Y-35035342D03*
D12*
X171086532Y-35035342D03*
X171086532Y-35035342D03*
D13*
X171086532Y-35035342D03*
D11*
X173626532Y-35035342D03*
X173626532Y-35035342D03*
D13*
X173626532Y-35035342D03*
D11*
X176166532Y-35035342D03*
X176166532Y-35035342D03*
D13*
X176166532Y-35035342D03*
D11*
X178706532Y-35035342D03*
X178706532Y-35035342D03*
D12*
X178706532Y-35035342D03*
D13*
X178706532Y-35035342D03*
D11*
X181246532Y-35035342D03*
X181246532Y-35035342D03*
D13*
X181246532Y-35035342D03*
D11*
X183786532Y-35035342D03*
X183786532Y-35035342D03*
D13*
X183786532Y-35035342D03*
D11*
X186326532Y-35035342D03*
X186326532Y-35035342D03*
D12*
X186326532Y-35035342D03*
X186326532Y-35035342D03*
D13*
X186326532Y-35035342D03*
D11*
X188866532Y-35035342D03*
X188866532Y-35035342D03*
D13*
X188866532Y-35035342D03*
D11*
X191406532Y-35035342D03*
X191406532Y-35035342D03*
D13*
X191406532Y-35035342D03*
D11*
X193946532Y-35035342D03*
X193946532Y-35035342D03*
D12*
X193946532Y-35035342D03*
D13*
X193946532Y-35035342D03*
D11*
X196486532Y-35035342D03*
X196486532Y-35035342D03*
D13*
X196486532Y-35035342D03*
D11*
X199026532Y-35035342D03*
X199026532Y-35035342D03*
D13*
X199026532Y-35035342D03*
D11*
X201566532Y-35035342D03*
X201566532Y-35035342D03*
D12*
X201566532Y-35035342D03*
X201566532Y-35035342D03*
D13*
X201566532Y-35035342D03*
D11*
X204106532Y-35035342D03*
X204106532Y-35035342D03*
D13*
X204106532Y-35035342D03*
D11*
X206646532Y-35035342D03*
X206646532Y-35035342D03*
D13*
X206646532Y-35035342D03*
D11*
X209186532Y-35035342D03*
X209186532Y-35035342D03*
D12*
X209186532Y-35035342D03*
D13*
X209186532Y-35035342D03*
D11*
X211726532Y-35035342D03*
X211726532Y-35035342D03*
D13*
X211726532Y-35035342D03*
D11*
X214266532Y-35035342D03*
X214266532Y-35035342D03*
D13*
X214266532Y-35035342D03*
D11*
X216806532Y-35035342D03*
X216806532Y-35035342D03*
D12*
X216806532Y-35035342D03*
X216806532Y-35035342D03*
D13*
X216806532Y-35035342D03*
D11*
X219346532Y-35035342D03*
X219346532Y-35035342D03*
D13*
X219346532Y-35035342D03*
D11*
X221886532Y-35035342D03*
X221886532Y-35035342D03*
D13*
X221886532Y-35035342D03*
D11*
X224426532Y-35035342D03*
D13*
X224426532Y-35035342D03*
D11*
X226966532Y-35035342D03*
D13*
X226966532Y-35035342D03*
D11*
X229506532Y-35035342D03*
D13*
X229506532Y-35035342D03*
D11*
G04 #@! TO.P,REF\u002A\u002A,2*
X155846532Y-32495342D03*
D12*
X155846532Y-32495342D03*
X155846532Y-32495342D03*
D13*
X155846532Y-32495342D03*
D11*
X158386532Y-32495342D03*
D13*
X158386532Y-32495342D03*
D11*
X160926532Y-32495342D03*
D13*
X160926532Y-32495342D03*
D11*
X163466532Y-32495342D03*
D12*
X163466532Y-32495342D03*
D11*
X163466533Y-32495342D03*
D13*
X163466533Y-32495342D03*
D11*
X166006532Y-32495342D03*
X166006532Y-32495342D03*
D13*
X166006532Y-32495342D03*
D11*
X168546532Y-32495342D03*
X168546532Y-32495342D03*
D13*
X168546532Y-32495342D03*
D11*
X171086532Y-32495342D03*
D12*
X171086532Y-32495342D03*
X171086532Y-32495342D03*
D13*
X171086532Y-32495342D03*
D11*
X171086533Y-32495342D03*
X173626532Y-32495342D03*
X173626532Y-32495342D03*
D13*
X173626532Y-32495342D03*
D11*
X176166532Y-32495342D03*
X176166532Y-32495342D03*
D13*
X176166532Y-32495342D03*
D11*
X178706532Y-32495342D03*
D12*
X178706532Y-32495342D03*
D11*
X178706533Y-32495342D03*
D13*
X178706533Y-32495342D03*
D11*
X181246532Y-32495342D03*
X181246532Y-32495342D03*
D13*
X181246532Y-32495342D03*
D11*
X183786532Y-32495342D03*
X183786532Y-32495342D03*
D13*
X183786532Y-32495342D03*
D11*
X186326532Y-32495342D03*
D12*
X186326532Y-32495342D03*
X186326532Y-32495342D03*
D13*
X186326532Y-32495342D03*
D11*
X186326533Y-32495342D03*
X188866532Y-32495342D03*
X188866532Y-32495342D03*
D13*
X188866532Y-32495342D03*
D11*
X191406532Y-32495342D03*
X191406532Y-32495342D03*
D13*
X191406532Y-32495342D03*
D11*
X193946532Y-32495342D03*
D12*
X193946532Y-32495342D03*
D11*
X193946533Y-32495342D03*
D13*
X193946533Y-32495342D03*
D11*
X196486532Y-32495342D03*
X196486532Y-32495342D03*
D13*
X196486532Y-32495342D03*
D11*
X199026532Y-32495342D03*
X199026532Y-32495342D03*
D13*
X199026532Y-32495342D03*
D11*
X201566532Y-32495342D03*
D12*
X201566532Y-32495342D03*
X201566532Y-32495342D03*
D13*
X201566532Y-32495342D03*
D11*
X201566533Y-32495342D03*
X204106532Y-32495342D03*
X204106532Y-32495342D03*
D13*
X204106532Y-32495342D03*
D11*
X206646532Y-32495342D03*
X206646532Y-32495342D03*
D13*
X206646532Y-32495342D03*
D11*
X209186532Y-32495342D03*
D12*
X209186532Y-32495342D03*
D11*
X209186533Y-32495342D03*
D13*
X209186533Y-32495342D03*
D11*
X211726532Y-32495342D03*
X211726532Y-32495342D03*
D13*
X211726532Y-32495342D03*
D11*
X214266532Y-32495342D03*
X214266532Y-32495342D03*
D13*
X214266532Y-32495342D03*
D11*
X216806532Y-32495342D03*
D12*
X216806532Y-32495342D03*
X216806532Y-32495342D03*
D13*
X216806532Y-32495342D03*
D11*
X216806533Y-32495342D03*
X219346532Y-32495342D03*
X219346532Y-32495342D03*
D13*
X219346532Y-32495342D03*
D11*
X221886532Y-32495342D03*
X221886532Y-32495342D03*
D13*
X221886532Y-32495342D03*
D11*
X224426533Y-32495342D03*
D13*
X224426533Y-32495342D03*
D11*
X226966532Y-32495342D03*
D13*
X226966532Y-32495342D03*
D11*
X229506532Y-32495342D03*
D13*
X229506532Y-32495342D03*
G04 #@! TD*
D11*
G04 #@! TO.P,J18,1*
G04 #@! TO.N,N/C*
X77106532Y-42650593D03*
D49*
X77106532Y-42650593D03*
D11*
G04 #@! TO.P,J18,1,Pin_1*
G04 #@! TO.N,1*
X77106532Y-45190593D03*
G04 #@! TO.P,J18,1,Pin_3*
G04 #@! TO.N,3*
X77106532Y-47730593D03*
G04 #@! TO.P,J18,1,Pin_1*
G04 #@! TO.N,1*
X77106532Y-50270593D03*
X77106532Y-52810593D03*
X77106532Y-55350593D03*
G04 #@! TO.P,J18,2*
G04 #@! TO.N,N/C*
X79646532Y-42650593D03*
D49*
X79646532Y-42650593D03*
D11*
X79646532Y-45190593D03*
X79646532Y-47730593D03*
X79646532Y-50270593D03*
X79646532Y-52810593D03*
X79646532Y-55350593D03*
G04 #@! TO.P,J18,3*
X82186532Y-42650593D03*
D49*
X82186532Y-42650593D03*
D11*
X82186532Y-45190593D03*
X82186532Y-47730593D03*
X82186532Y-50270593D03*
X82186532Y-52810593D03*
X82186532Y-55350593D03*
G04 #@! TO.P,J18,4*
X84726532Y-42650593D03*
D49*
X84726532Y-42650593D03*
D11*
X84726532Y-45190593D03*
X84726532Y-47730593D03*
X84726532Y-50270593D03*
X84726532Y-52810593D03*
X84726532Y-55350593D03*
D49*
X87266532Y-42650593D03*
D11*
G04 #@! TO.P,J18,5*
X87266532Y-42650593D03*
X87266532Y-45190593D03*
X87266532Y-47730593D03*
X87266532Y-50270593D03*
X87266532Y-52810593D03*
X87266532Y-55350593D03*
G04 #@! TO.P,J18,6*
X89806532Y-42650593D03*
D49*
X89806532Y-42650593D03*
D11*
X89806532Y-45190593D03*
X89806532Y-47730593D03*
X89806532Y-50270593D03*
X89806532Y-52810593D03*
X89806532Y-55350593D03*
G04 #@! TO.P,J18,7*
X92346532Y-42650593D03*
D49*
X92346532Y-42650593D03*
D11*
X92346532Y-45190593D03*
X92346532Y-47730593D03*
X92346532Y-50270593D03*
X92346532Y-52810593D03*
X92346532Y-55350593D03*
D49*
X94886532Y-42650593D03*
D11*
G04 #@! TO.P,J18,8*
X94886532Y-42650593D03*
X94886532Y-45190593D03*
X94886532Y-47730593D03*
X94886532Y-50270593D03*
X94886532Y-52810593D03*
X94886532Y-55350593D03*
G04 #@! TO.P,J18,9*
X97426532Y-42650593D03*
D49*
X97426532Y-42650593D03*
D11*
X97426532Y-45190593D03*
X97426532Y-47730593D03*
X97426532Y-50270593D03*
X97426532Y-52810593D03*
X97426532Y-55350593D03*
G04 #@! TO.P,J18,10*
X99966532Y-42650593D03*
D49*
X99966532Y-42650593D03*
D11*
X99966532Y-45190593D03*
X99966532Y-47730593D03*
X99966532Y-50270593D03*
X99966532Y-52810593D03*
X99966532Y-55350593D03*
G04 #@! TO.P,J18,11*
X102506532Y-42650593D03*
D49*
X102506532Y-42650593D03*
D11*
X102506532Y-45190593D03*
X102506532Y-47730593D03*
X102506532Y-50270593D03*
X102506532Y-52810593D03*
X102506532Y-55350593D03*
G04 #@! TO.P,J18,12*
X105046532Y-42650593D03*
D49*
X105046532Y-42650593D03*
D11*
X105046532Y-45190593D03*
X105046532Y-47730593D03*
X105046532Y-50270593D03*
X105046532Y-52810593D03*
X105046532Y-55350593D03*
G04 #@! TO.P,J18,13*
X107586532Y-42650593D03*
D49*
X107586532Y-42650593D03*
D11*
X107586532Y-45190593D03*
X107586532Y-47730593D03*
X107586532Y-50270593D03*
X107586532Y-52810593D03*
X107586532Y-55350593D03*
G04 #@! TO.P,J18,14*
X110126532Y-42650593D03*
D49*
X110126532Y-42650593D03*
D11*
X110126532Y-45190593D03*
X110126532Y-47730593D03*
X110126532Y-50270593D03*
X110126532Y-52810593D03*
X110126532Y-55350593D03*
G04 #@! TO.P,J18,15*
X112666532Y-42650593D03*
D49*
X112666532Y-42650593D03*
D11*
X112666532Y-45190593D03*
X112666532Y-47730593D03*
X112666532Y-50270593D03*
X112666532Y-52810593D03*
X112666532Y-55350593D03*
G04 #@! TO.P,J18,16*
X115206532Y-42650593D03*
D49*
X115206532Y-42650593D03*
D11*
X115206532Y-45190593D03*
X115206532Y-47730593D03*
X115206532Y-50270593D03*
X115206532Y-52810593D03*
X115206532Y-55350593D03*
G04 #@! TO.P,J18,17*
X117746532Y-42650593D03*
D49*
X117746532Y-42650593D03*
D11*
X117746532Y-45190593D03*
X117746532Y-47730593D03*
X117746532Y-50270593D03*
X117746532Y-52810593D03*
X117746532Y-55350593D03*
G04 #@! TO.P,J18,18*
X120286532Y-42650593D03*
D49*
X120286532Y-42650593D03*
D11*
X120286532Y-45190593D03*
X120286532Y-47730593D03*
X120286532Y-50270593D03*
X120286532Y-52810593D03*
X120286532Y-55350593D03*
G04 #@! TO.P,J18,19*
X122826532Y-42650593D03*
D49*
X122826532Y-42650593D03*
D11*
X122826532Y-45190593D03*
X122826532Y-47730593D03*
X122826532Y-50270593D03*
X122826532Y-52810593D03*
X122826532Y-55350593D03*
G04 #@! TO.P,J18,20*
X125366532Y-42650593D03*
D49*
X125366532Y-42650593D03*
D11*
X125366532Y-45190593D03*
X125366532Y-47730593D03*
X125366532Y-50270593D03*
X125366532Y-52810593D03*
X125366532Y-55350593D03*
G04 #@! TO.P,J18,21*
X127906532Y-42650593D03*
D49*
X127906532Y-42650593D03*
D11*
X127906532Y-45190593D03*
X127906532Y-47730593D03*
X127906532Y-50270593D03*
X127906532Y-52810593D03*
X127906532Y-55350593D03*
G04 #@! TO.P,J18,22*
X130446532Y-42650593D03*
D49*
X130446532Y-42650593D03*
D11*
X130446532Y-45190593D03*
X130446532Y-47730593D03*
X130446532Y-50270593D03*
X130446532Y-52810593D03*
X130446532Y-55350593D03*
G04 #@! TO.P,J18,23*
X132986532Y-42650593D03*
D49*
X132986532Y-42650593D03*
D11*
X132986532Y-45190593D03*
X132986532Y-47730593D03*
X132986532Y-50270593D03*
X132986532Y-52810593D03*
X132986532Y-55350593D03*
G04 #@! TO.P,J18,24*
X135526532Y-42650593D03*
D49*
X135526532Y-42650593D03*
D11*
X135526532Y-45190593D03*
X135526532Y-47730593D03*
X135526532Y-50270593D03*
X135526532Y-52810593D03*
X135526532Y-55350593D03*
G04 #@! TO.P,J18,25*
X138066532Y-42650593D03*
D49*
X138066532Y-42650593D03*
D11*
X138066532Y-45190593D03*
X138066532Y-47730593D03*
X138066532Y-50270593D03*
X138066532Y-52810593D03*
X138066532Y-55350593D03*
G04 #@! TO.P,J18,26*
X140606532Y-42650593D03*
D49*
X140606532Y-42650593D03*
D11*
X140606532Y-45190593D03*
X140606532Y-47730593D03*
X140606532Y-50270593D03*
X140606532Y-52810593D03*
X140606532Y-55350593D03*
G04 #@! TO.P,J18,27*
X143146532Y-42650593D03*
D49*
X143146532Y-42650593D03*
D11*
X143146532Y-45190593D03*
X143146532Y-47730593D03*
X143146532Y-50270593D03*
X143146532Y-52810593D03*
X143146532Y-55350593D03*
G04 #@! TO.P,J18,28*
X145686532Y-42650593D03*
D49*
X145686532Y-42650593D03*
D11*
X145686532Y-45190593D03*
X145686532Y-47730593D03*
X145686532Y-50270593D03*
X145686532Y-52810593D03*
X145686532Y-55350593D03*
G04 #@! TO.P,J18,29*
X148226532Y-42650593D03*
D49*
X148226532Y-42650593D03*
D11*
X148226532Y-45190593D03*
X148226532Y-47730593D03*
X148226532Y-50270593D03*
X148226532Y-52810593D03*
X148226532Y-55350593D03*
G04 #@! TO.P,J18,30*
X150766532Y-42650593D03*
D49*
X150766532Y-42650593D03*
D11*
X150766532Y-45190593D03*
X150766532Y-47730593D03*
X150766532Y-50270593D03*
X150766532Y-52810593D03*
X150766532Y-55350593D03*
G04 #@! TD*
G04 #@! TO.P,J11,1*
G04 #@! TO.N,N/C*
X155846532Y-57895614D03*
D49*
X155846532Y-57895614D03*
D11*
G04 #@! TO.P,J11,1,Pin_1*
G04 #@! TO.N,31*
X155846532Y-60435614D03*
X155846532Y-62975614D03*
X155846532Y-65515614D03*
X155846532Y-68055614D03*
X155846532Y-70595614D03*
G04 #@! TO.P,J11,2*
G04 #@! TO.N,N/C*
X158386532Y-57895614D03*
D49*
X158386532Y-57895614D03*
D11*
X158386532Y-60435614D03*
X158386532Y-62975614D03*
X158386532Y-65515614D03*
X158386532Y-68055614D03*
X158386532Y-70595614D03*
G04 #@! TO.P,J11,3*
X160926532Y-57895614D03*
D49*
X160926532Y-57895614D03*
D11*
X160926532Y-60435614D03*
X160926532Y-62975614D03*
X160926532Y-65515614D03*
X160926532Y-68055614D03*
X160926532Y-70595614D03*
G04 #@! TO.P,J11,4*
X163466532Y-57895614D03*
D49*
X163466532Y-57895614D03*
D11*
X163466532Y-60435614D03*
X163466532Y-62975614D03*
X163466532Y-65515614D03*
X163466532Y-68055614D03*
X163466532Y-70595614D03*
D49*
X166006532Y-57895614D03*
D11*
G04 #@! TO.P,J11,5*
X166006532Y-57895614D03*
X166006532Y-60435614D03*
X166006532Y-62975614D03*
X166006532Y-65515614D03*
X166006532Y-68055614D03*
X166006532Y-70595614D03*
G04 #@! TO.P,J11,6*
X168546532Y-57895614D03*
D49*
X168546532Y-57895614D03*
D11*
X168546532Y-60435614D03*
X168546532Y-62975614D03*
X168546532Y-65515614D03*
X168546532Y-68055614D03*
X168546532Y-70595614D03*
G04 #@! TO.P,J11,7*
X171086532Y-57895614D03*
D49*
X171086532Y-57895614D03*
D11*
X171086532Y-60435614D03*
X171086532Y-62975614D03*
X171086532Y-65515614D03*
X171086532Y-68055614D03*
X171086532Y-70595614D03*
D49*
X173626532Y-57895614D03*
D11*
G04 #@! TO.P,J11,8*
X173626532Y-57895614D03*
X173626532Y-60435614D03*
X173626532Y-62975614D03*
X173626532Y-65515614D03*
X173626532Y-68055614D03*
X173626532Y-70595614D03*
G04 #@! TO.P,J11,9*
X176166532Y-57895614D03*
D49*
X176166532Y-57895614D03*
D11*
X176166532Y-60435614D03*
X176166532Y-62975614D03*
X176166532Y-65515614D03*
X176166532Y-68055614D03*
X176166532Y-70595614D03*
G04 #@! TO.P,J11,10*
X178706532Y-57895614D03*
D49*
X178706532Y-57895614D03*
D11*
X178706532Y-60435614D03*
X178706532Y-62975614D03*
X178706532Y-65515614D03*
X178706532Y-68055614D03*
X178706532Y-70595614D03*
G04 #@! TO.P,J11,11*
X181246532Y-57895614D03*
D49*
X181246532Y-57895614D03*
D11*
X181246532Y-60435614D03*
X181246532Y-62975614D03*
X181246532Y-65515614D03*
X181246532Y-68055614D03*
X181246532Y-70595614D03*
G04 #@! TO.P,J11,12*
X183786532Y-57895614D03*
D49*
X183786532Y-57895614D03*
D11*
X183786532Y-60435614D03*
X183786532Y-62975614D03*
X183786532Y-65515614D03*
X183786532Y-68055614D03*
X183786532Y-70595614D03*
G04 #@! TO.P,J11,13*
X186326532Y-57895614D03*
D49*
X186326532Y-57895614D03*
D11*
X186326532Y-60435614D03*
X186326532Y-62975614D03*
X186326532Y-65515614D03*
X186326532Y-68055614D03*
X186326532Y-70595614D03*
G04 #@! TO.P,J11,14*
X188866532Y-57895614D03*
D49*
X188866532Y-57895614D03*
D11*
X188866532Y-60435614D03*
X188866532Y-62975614D03*
X188866532Y-65515614D03*
X188866532Y-68055614D03*
X188866532Y-70595614D03*
G04 #@! TO.P,J11,15*
X191406532Y-57895614D03*
D49*
X191406532Y-57895614D03*
D11*
X191406532Y-60435614D03*
X191406532Y-62975614D03*
X191406532Y-65515614D03*
X191406532Y-68055614D03*
X191406532Y-70595614D03*
G04 #@! TO.P,J11,16*
X193946532Y-57895614D03*
D49*
X193946532Y-57895614D03*
D11*
X193946532Y-60435614D03*
X193946532Y-62975614D03*
X193946532Y-65515614D03*
X193946532Y-68055614D03*
X193946532Y-70595614D03*
G04 #@! TO.P,J11,17*
X196486532Y-57895614D03*
D49*
X196486532Y-57895614D03*
D11*
X196486532Y-60435614D03*
X196486532Y-62975614D03*
X196486532Y-65515614D03*
X196486532Y-68055614D03*
X196486532Y-70595614D03*
G04 #@! TO.P,J11,18*
X199026532Y-57895614D03*
D49*
X199026532Y-57895614D03*
D11*
X199026532Y-60435614D03*
X199026532Y-62975614D03*
X199026532Y-65515614D03*
X199026532Y-68055614D03*
X199026532Y-70595614D03*
G04 #@! TO.P,J11,19*
X201566532Y-57895614D03*
D49*
X201566532Y-57895614D03*
D11*
X201566532Y-60435614D03*
X201566532Y-62975614D03*
X201566532Y-65515614D03*
X201566532Y-68055614D03*
X201566532Y-70595614D03*
G04 #@! TO.P,J11,20*
X204106532Y-57895614D03*
D49*
X204106532Y-57895614D03*
D11*
X204106532Y-60435614D03*
X204106532Y-62975614D03*
X204106532Y-65515614D03*
X204106532Y-68055614D03*
X204106532Y-70595614D03*
G04 #@! TO.P,J11,21*
X206646532Y-57895614D03*
D49*
X206646532Y-57895614D03*
D11*
X206646532Y-60435614D03*
X206646532Y-62975614D03*
X206646532Y-65515614D03*
X206646532Y-68055614D03*
X206646532Y-70595614D03*
G04 #@! TO.P,J11,22*
X209186532Y-57895614D03*
D49*
X209186532Y-57895614D03*
D11*
X209186532Y-60435614D03*
X209186532Y-62975614D03*
X209186532Y-65515614D03*
X209186532Y-68055614D03*
X209186532Y-70595614D03*
G04 #@! TO.P,J11,23*
X211726532Y-57895614D03*
D49*
X211726532Y-57895614D03*
D11*
X211726532Y-60435614D03*
X211726532Y-62975614D03*
X211726532Y-65515614D03*
X211726532Y-68055614D03*
X211726532Y-70595614D03*
G04 #@! TO.P,J11,24*
X214266532Y-57895614D03*
D49*
X214266532Y-57895614D03*
D11*
X214266532Y-60435614D03*
X214266532Y-62975614D03*
X214266532Y-65515614D03*
X214266532Y-68055614D03*
X214266532Y-70595614D03*
G04 #@! TO.P,J11,25*
X216806532Y-57895614D03*
D49*
X216806532Y-57895614D03*
D11*
X216806532Y-60435614D03*
X216806532Y-62975614D03*
X216806532Y-65515614D03*
X216806532Y-68055614D03*
X216806532Y-70595614D03*
G04 #@! TO.P,J11,26*
X219346532Y-57895614D03*
D49*
X219346532Y-57895614D03*
D11*
X219346532Y-60435614D03*
X219346532Y-62975614D03*
X219346532Y-65515614D03*
X219346532Y-68055614D03*
X219346532Y-70595614D03*
G04 #@! TO.P,J11,27*
X221886532Y-57895614D03*
D49*
X221886532Y-57895614D03*
D11*
X221886532Y-60435614D03*
X221886532Y-62975614D03*
X221886532Y-65515614D03*
X221886532Y-68055614D03*
X221886532Y-70595614D03*
G04 #@! TO.P,J11,28*
X224426532Y-57895614D03*
D49*
X224426532Y-57895614D03*
D11*
X224426532Y-60435614D03*
X224426532Y-62975614D03*
X224426532Y-65515614D03*
X224426532Y-68055614D03*
X224426532Y-70595614D03*
G04 #@! TO.P,J11,29*
X226966532Y-57895614D03*
D49*
X226966532Y-57895614D03*
D11*
X226966532Y-60435614D03*
X226966532Y-62975614D03*
X226966532Y-65515614D03*
X226966532Y-68055614D03*
X226966532Y-70595614D03*
G04 #@! TO.P,J11,30*
X229506532Y-57895614D03*
D49*
X229506532Y-57895614D03*
D11*
X229506532Y-60435614D03*
X229506532Y-62975614D03*
X229506532Y-65515614D03*
X229506532Y-68055614D03*
X229506532Y-70595614D03*
G04 #@! TD*
D50*
G04 #@! TO.P,J2,1,Pin_1*
G04 #@! TO.N,TOP_RAIL_NEG*
X214393532Y-84311343D03*
G04 #@! TD*
D11*
G04 #@! TO.P,REF\u002A\u002A,1*
G04 #@! TO.N,N/C*
X77106532Y-80755320D03*
D12*
X77106532Y-80755320D03*
X77106532Y-80755320D03*
D13*
X77106532Y-80755320D03*
D11*
X79646532Y-80755320D03*
D13*
X79646532Y-80755320D03*
D11*
X82186532Y-80755320D03*
D13*
X82186532Y-80755320D03*
D11*
X84726532Y-80755320D03*
X84726532Y-80755320D03*
D12*
X84726532Y-80755320D03*
D13*
X84726532Y-80755320D03*
D11*
X87266532Y-80755320D03*
X87266532Y-80755320D03*
D13*
X87266532Y-80755320D03*
D11*
X89806532Y-80755320D03*
X89806532Y-80755320D03*
D13*
X89806532Y-80755320D03*
D11*
X92346532Y-80755320D03*
X92346532Y-80755320D03*
D12*
X92346532Y-80755320D03*
X92346532Y-80755320D03*
D13*
X92346532Y-80755320D03*
D11*
X94886532Y-80755320D03*
X94886532Y-80755320D03*
D13*
X94886532Y-80755320D03*
D11*
X97426532Y-80755320D03*
X97426532Y-80755320D03*
D13*
X97426532Y-80755320D03*
D11*
X99966532Y-80755320D03*
X99966532Y-80755320D03*
D12*
X99966532Y-80755320D03*
D13*
X99966532Y-80755320D03*
D11*
X102506532Y-80755320D03*
X102506532Y-80755320D03*
D13*
X102506532Y-80755320D03*
D11*
X105046532Y-80755320D03*
X105046532Y-80755320D03*
D13*
X105046532Y-80755320D03*
D11*
X107586532Y-80755320D03*
X107586532Y-80755320D03*
D12*
X107586532Y-80755320D03*
X107586532Y-80755320D03*
D13*
X107586532Y-80755320D03*
D11*
X110126532Y-80755320D03*
X110126532Y-80755320D03*
D13*
X110126532Y-80755320D03*
D11*
X112666532Y-80755320D03*
X112666532Y-80755320D03*
D13*
X112666532Y-80755320D03*
D11*
X115206532Y-80755320D03*
X115206532Y-80755320D03*
D12*
X115206532Y-80755320D03*
D13*
X115206532Y-80755320D03*
D11*
X117746532Y-80755320D03*
X117746532Y-80755320D03*
D13*
X117746532Y-80755320D03*
D11*
X120286532Y-80755320D03*
X120286532Y-80755320D03*
D13*
X120286532Y-80755320D03*
D11*
X122826532Y-80755320D03*
X122826532Y-80755320D03*
D12*
X122826532Y-80755320D03*
X122826532Y-80755320D03*
D13*
X122826532Y-80755320D03*
D11*
X125366532Y-80755320D03*
X125366532Y-80755320D03*
D13*
X125366532Y-80755320D03*
D11*
X127906532Y-80755320D03*
X127906532Y-80755320D03*
D13*
X127906532Y-80755320D03*
D11*
X130446532Y-80755320D03*
X130446532Y-80755320D03*
D12*
X130446532Y-80755320D03*
D13*
X130446532Y-80755320D03*
D11*
X132986532Y-80755320D03*
X132986532Y-80755320D03*
D13*
X132986532Y-80755320D03*
D11*
X135526532Y-80755320D03*
X135526532Y-80755320D03*
D13*
X135526532Y-80755320D03*
D11*
X138066532Y-80755320D03*
X138066532Y-80755320D03*
D12*
X138066532Y-80755320D03*
X138066532Y-80755320D03*
D13*
X138066532Y-80755320D03*
D11*
X140606532Y-80755320D03*
X140606532Y-80755320D03*
D13*
X140606532Y-80755320D03*
D11*
X143146532Y-80755320D03*
X143146532Y-80755320D03*
D13*
X143146532Y-80755320D03*
D11*
X145686532Y-80755320D03*
D13*
X145686532Y-80755320D03*
D11*
X148226532Y-80755320D03*
D13*
X148226532Y-80755320D03*
D11*
X150766532Y-80755320D03*
D13*
X150766532Y-80755320D03*
D11*
G04 #@! TO.P,REF\u002A\u002A,2*
X77106532Y-78215320D03*
D12*
X77106532Y-78215320D03*
X77106532Y-78215320D03*
D11*
X79646532Y-78215320D03*
D13*
X79646532Y-78215320D03*
D11*
X82186532Y-78215320D03*
D13*
X82186532Y-78215320D03*
D11*
X84726532Y-78215320D03*
D12*
X84726532Y-78215320D03*
D11*
X84726533Y-78215320D03*
D13*
X84726533Y-78215320D03*
D11*
X87266532Y-78215320D03*
X87266532Y-78215320D03*
D13*
X87266532Y-78215320D03*
D11*
X89806532Y-78215320D03*
X89806532Y-78215320D03*
D13*
X89806532Y-78215320D03*
D11*
X92346532Y-78215320D03*
D12*
X92346532Y-78215320D03*
X92346532Y-78215320D03*
D11*
X92346533Y-78215320D03*
X94886532Y-78215320D03*
X94886532Y-78215320D03*
D13*
X94886532Y-78215320D03*
D11*
X97426532Y-78215320D03*
X97426532Y-78215320D03*
D13*
X97426532Y-78215320D03*
D11*
X99966532Y-78215320D03*
D12*
X99966532Y-78215320D03*
D11*
X99966533Y-78215320D03*
D13*
X99966533Y-78215320D03*
D11*
X102506532Y-78215320D03*
X102506532Y-78215320D03*
D13*
X102506532Y-78215320D03*
D11*
X105046532Y-78215320D03*
X105046532Y-78215320D03*
D13*
X105046532Y-78215320D03*
D11*
X107586532Y-78215320D03*
D12*
X107586532Y-78215320D03*
X107586532Y-78215320D03*
D13*
X107586532Y-78215320D03*
D11*
X107586533Y-78215320D03*
X110126532Y-78215320D03*
X110126532Y-78215320D03*
D13*
X110126532Y-78215320D03*
D11*
X112666532Y-78215320D03*
X112666532Y-78215320D03*
D13*
X112666532Y-78215320D03*
D11*
X115206532Y-78215320D03*
D12*
X115206532Y-78215320D03*
D11*
X115206533Y-78215320D03*
D13*
X115206533Y-78215320D03*
D11*
X117746532Y-78215320D03*
X117746532Y-78215320D03*
D13*
X117746532Y-78215320D03*
D11*
X120286532Y-78215320D03*
X120286532Y-78215320D03*
D13*
X120286532Y-78215320D03*
D11*
X122826532Y-78215320D03*
D12*
X122826532Y-78215320D03*
X122826532Y-78215320D03*
D13*
X122826532Y-78215320D03*
D11*
X122826533Y-78215320D03*
X125366532Y-78215320D03*
X125366532Y-78215320D03*
D13*
X125366532Y-78215320D03*
D11*
X127906532Y-78215320D03*
X127906532Y-78215320D03*
D13*
X127906532Y-78215320D03*
D11*
X130446532Y-78215320D03*
D12*
X130446532Y-78215320D03*
D11*
X130446533Y-78215320D03*
D13*
X130446533Y-78215320D03*
D11*
X132986532Y-78215320D03*
X132986532Y-78215320D03*
D13*
X132986532Y-78215320D03*
D11*
X135526532Y-78215320D03*
X135526532Y-78215320D03*
D13*
X135526532Y-78215320D03*
D11*
X138066532Y-78215320D03*
D12*
X138066532Y-78215320D03*
X138066532Y-78215320D03*
D13*
X138066532Y-78215320D03*
D11*
X138066533Y-78215320D03*
X140606532Y-78215320D03*
X140606532Y-78215320D03*
D13*
X140606532Y-78215320D03*
D11*
X143146532Y-78215320D03*
X143146532Y-78215320D03*
D13*
X143146532Y-78215320D03*
D11*
X145686533Y-78215320D03*
D13*
X145686533Y-78215320D03*
D11*
X148226532Y-78215320D03*
D13*
X148226532Y-78215320D03*
D11*
X150766532Y-78215320D03*
D13*
X150766532Y-78215320D03*
G04 #@! TD*
D50*
G04 #@! TO.P,J1,1,Pin_1*
G04 #@! TO.N,TOP_RAIL_POS*
X134129532Y-84311322D03*
G04 #@! TD*
G04 #@! TO.P,J3,1,Pin_1*
G04 #@! TO.N,BOT_RAIL_POS*
X172483532Y-84311343D03*
G04 #@! TD*
G04 #@! TO.P,J4,1,Pin_1*
G04 #@! TO.N,BOT_RAIL_NEG*
X92219532Y-84311322D03*
G04 #@! TD*
G04 #@! TO.P,J3,1,Pin_1*
G04 #@! TO.N,BOT_RAIL_POS*
X93743532Y-84311322D03*
G04 #@! TD*
G04 #@! TO.P,J5,1,Pin_1*
G04 #@! TO.N,PASS*
X192676532Y-84311343D03*
G04 #@! TD*
D14*
G04 #@! TO.P,U1,31,Pin_31*
G04 #@! TO.N,31*
X173626531Y-85200342D03*
D15*
G04 #@! TO.P,U1,32,Pin_0*
G04 #@! TO.N,32*
X174896531Y-85200343D03*
D16*
G04 #@! TO.P,U1,33,Pin_1*
G04 #@! TO.N,33*
X176166531Y-85200343D03*
D17*
G04 #@! TO.P,U1,34,Pin_2*
G04 #@! TO.N,34*
X177436531Y-85200342D03*
D18*
G04 #@! TO.P,U1,35,Pin_3*
G04 #@! TO.N,35*
X178706531Y-85200343D03*
D19*
G04 #@! TO.P,U1,36,Pin_4*
G04 #@! TO.N,36*
X179976531Y-85200341D03*
D20*
G04 #@! TO.P,U1,37,Pin_5*
G04 #@! TO.N,37*
X181246531Y-85200343D03*
D21*
G04 #@! TO.P,U1,38,Pin_6*
G04 #@! TO.N,38*
X182516531Y-85200343D03*
D22*
G04 #@! TO.P,U1,39,Pin_7*
G04 #@! TO.N,39*
X183786531Y-85200342D03*
D23*
G04 #@! TO.P,U1,40,Pin_8*
G04 #@! TO.N,40*
X185056531Y-85200343D03*
D24*
G04 #@! TO.P,U1,41,Pin_9*
G04 #@! TO.N,41*
X186326531Y-85200343D03*
D25*
G04 #@! TO.P,U1,42,Pin_10*
G04 #@! TO.N,42*
X187596531Y-85200343D03*
D26*
G04 #@! TO.P,U1,43,Pin_11*
G04 #@! TO.N,43*
X188866531Y-85200343D03*
D27*
G04 #@! TO.P,U1,44,Pin_12*
G04 #@! TO.N,44*
X190136531Y-85200342D03*
D28*
G04 #@! TO.P,U1,45,Pin_13*
G04 #@! TO.N,45*
X191406531Y-85200343D03*
D29*
G04 #@! TO.P,U1,46,Pin_14*
G04 #@! TO.N,46*
X193946531Y-85200342D03*
D30*
G04 #@! TO.P,U1,47,Pin_15*
G04 #@! TO.N,47*
X195216531Y-85200343D03*
D31*
G04 #@! TO.P,U1,48,Pin_16*
G04 #@! TO.N,48*
X196486531Y-85200342D03*
D32*
G04 #@! TO.P,U1,49,Pin_17*
G04 #@! TO.N,49*
X197756531Y-85200343D03*
D33*
G04 #@! TO.P,U1,50,Pin_18*
G04 #@! TO.N,50*
X199026531Y-85200343D03*
D34*
G04 #@! TO.P,U1,51,Pin_19*
G04 #@! TO.N,51*
X200296531Y-85200342D03*
D35*
G04 #@! TO.P,U1,52,Pin_20*
G04 #@! TO.N,52*
X201566531Y-85200343D03*
D36*
G04 #@! TO.P,U1,53,Pin_21*
G04 #@! TO.N,53*
X202836531Y-85200343D03*
D37*
G04 #@! TO.P,U1,54,Pin_22*
G04 #@! TO.N,54*
X204106531Y-85200343D03*
D38*
G04 #@! TO.P,U1,55,Pin_23*
G04 #@! TO.N,55*
X205376531Y-85200343D03*
D39*
G04 #@! TO.P,U1,56,Pin_24*
G04 #@! TO.N,56*
X206646531Y-85200342D03*
D40*
G04 #@! TO.P,U1,57,Pin_25*
G04 #@! TO.N,57*
X207916531Y-85200343D03*
D41*
G04 #@! TO.P,U1,58,Pin_26*
G04 #@! TO.N,58*
X209186531Y-85200343D03*
D42*
G04 #@! TO.P,U1,59,Pin_27*
G04 #@! TO.N,59*
X210456531Y-85200341D03*
D43*
G04 #@! TO.P,U1,60,Pin_28*
G04 #@! TO.N,60*
X211726531Y-85200343D03*
D44*
G04 #@! TO.P,U1,63,Bot_Pos*
G04 #@! TO.N,BOT_RAIL_POS*
X172331131Y-85894342D03*
D45*
G04 #@! TO.P,U1,64,Bot_Neg*
G04 #@! TO.N,BOT_RAIL_NEG*
X171061131Y-85944342D03*
D46*
G04 #@! TO.P,U1,65,Center*
G04 #@! TO.N,PASS*
X192676531Y-83854141D03*
D47*
G04 #@! TO.P,U1,66,PadSense_Top*
G04 #@! TO.N,SENSE_TOP*
X213021932Y-85943341D03*
D48*
G04 #@! TO.P,U1,67,PadSense_Bottom*
G04 #@! TO.N,SENSE_BOTTOM*
X214281932Y-85923342D03*
G04 #@! TD*
D50*
G04 #@! TO.P,J5,1,Pin_1*
G04 #@! TO.N,PASS*
X113936532Y-84311322D03*
G04 #@! TD*
G04 #@! TO.P,J1,1,Pin_1*
G04 #@! TO.N,TOP_RAIL_POS*
X212869532Y-84311343D03*
G04 #@! TD*
G04 #@! TO.P,J4,1,Pin_1*
G04 #@! TO.N,BOT_RAIL_NEG*
X170959532Y-84311343D03*
G04 #@! TD*
D11*
G04 #@! TO.P,REF\u002A\u002A,1*
G04 #@! TO.N,N/C*
X77106532Y-35035321D03*
D12*
X77106532Y-35035321D03*
X77106532Y-35035321D03*
D13*
X77106532Y-35035321D03*
D11*
X79646532Y-35035321D03*
D13*
X79646532Y-35035321D03*
D11*
X82186532Y-35035321D03*
D13*
X82186532Y-35035321D03*
D11*
X84726532Y-35035321D03*
X84726532Y-35035321D03*
D12*
X84726532Y-35035321D03*
D13*
X84726532Y-35035321D03*
D11*
X87266532Y-35035321D03*
X87266532Y-35035321D03*
D13*
X87266532Y-35035321D03*
D11*
X89806532Y-35035321D03*
X89806532Y-35035321D03*
D13*
X89806532Y-35035321D03*
D11*
X92346532Y-35035321D03*
X92346532Y-35035321D03*
D12*
X92346532Y-35035321D03*
X92346532Y-35035321D03*
D13*
X92346532Y-35035321D03*
D11*
X94886532Y-35035321D03*
X94886532Y-35035321D03*
D13*
X94886532Y-35035321D03*
D11*
X97426532Y-35035321D03*
X97426532Y-35035321D03*
D13*
X97426532Y-35035321D03*
D11*
X99966532Y-35035321D03*
X99966532Y-35035321D03*
D12*
X99966532Y-35035321D03*
D13*
X99966532Y-35035321D03*
D11*
X102506532Y-35035321D03*
X102506532Y-35035321D03*
D13*
X102506532Y-35035321D03*
D11*
X105046532Y-35035321D03*
X105046532Y-35035321D03*
D13*
X105046532Y-35035321D03*
D11*
X107586532Y-35035321D03*
X107586532Y-35035321D03*
D12*
X107586532Y-35035321D03*
X107586532Y-35035321D03*
D13*
X107586532Y-35035321D03*
D11*
X110126532Y-35035321D03*
X110126532Y-35035321D03*
D13*
X110126532Y-35035321D03*
D11*
X112666532Y-35035321D03*
X112666532Y-35035321D03*
D13*
X112666532Y-35035321D03*
D11*
X115206532Y-35035321D03*
X115206532Y-35035321D03*
D12*
X115206532Y-35035321D03*
D13*
X115206532Y-35035321D03*
D11*
X117746532Y-35035321D03*
X117746532Y-35035321D03*
D13*
X117746532Y-35035321D03*
D11*
X120286532Y-35035321D03*
X120286532Y-35035321D03*
D13*
X120286532Y-35035321D03*
D11*
X122826532Y-35035321D03*
X122826532Y-35035321D03*
D12*
X122826532Y-35035321D03*
X122826532Y-35035321D03*
D13*
X122826532Y-35035321D03*
D11*
X125366532Y-35035321D03*
X125366532Y-35035321D03*
D13*
X125366532Y-35035321D03*
D11*
X127906532Y-35035321D03*
X127906532Y-35035321D03*
D13*
X127906532Y-35035321D03*
D11*
X130446532Y-35035321D03*
X130446532Y-35035321D03*
D12*
X130446532Y-35035321D03*
D13*
X130446532Y-35035321D03*
D11*
X132986532Y-35035321D03*
X132986532Y-35035321D03*
D13*
X132986532Y-35035321D03*
D11*
X135526532Y-35035321D03*
X135526532Y-35035321D03*
D13*
X135526532Y-35035321D03*
D11*
X138066532Y-35035321D03*
X138066532Y-35035321D03*
D12*
X138066532Y-35035321D03*
X138066532Y-35035321D03*
D13*
X138066532Y-35035321D03*
D11*
X140606532Y-35035321D03*
X140606532Y-35035321D03*
D13*
X140606532Y-35035321D03*
D11*
X143146532Y-35035321D03*
X143146532Y-35035321D03*
D13*
X143146532Y-35035321D03*
D11*
X145686532Y-35035321D03*
D13*
X145686532Y-35035321D03*
D11*
X148226532Y-35035321D03*
D13*
X148226532Y-35035321D03*
D11*
X150766532Y-35035321D03*
D13*
X150766532Y-35035321D03*
D11*
G04 #@! TO.P,REF\u002A\u002A,2*
X77106532Y-32495321D03*
D12*
X77106532Y-32495321D03*
X77106532Y-32495321D03*
D11*
X79646532Y-32495321D03*
D13*
X79646532Y-32495321D03*
D11*
X82186532Y-32495321D03*
D13*
X82186532Y-32495321D03*
D11*
X84726532Y-32495321D03*
D12*
X84726532Y-32495321D03*
D11*
X84726533Y-32495321D03*
D13*
X84726533Y-32495321D03*
D11*
X87266532Y-32495321D03*
X87266532Y-32495321D03*
D13*
X87266532Y-32495321D03*
D11*
X89806532Y-32495321D03*
X89806532Y-32495321D03*
D13*
X89806532Y-32495321D03*
D11*
X92346532Y-32495321D03*
D12*
X92346532Y-32495321D03*
X92346532Y-32495321D03*
D11*
X92346533Y-32495321D03*
X94886532Y-32495321D03*
X94886532Y-32495321D03*
D13*
X94886532Y-32495321D03*
D11*
X97426532Y-32495321D03*
X97426532Y-32495321D03*
D13*
X97426532Y-32495321D03*
D11*
X99966532Y-32495321D03*
D12*
X99966532Y-32495321D03*
D11*
X99966533Y-32495321D03*
D13*
X99966533Y-32495321D03*
D11*
X102506532Y-32495321D03*
X102506532Y-32495321D03*
D13*
X102506532Y-32495321D03*
D11*
X105046532Y-32495321D03*
X105046532Y-32495321D03*
D13*
X105046532Y-32495321D03*
D11*
X107586532Y-32495321D03*
D12*
X107586532Y-32495321D03*
X107586532Y-32495321D03*
D13*
X107586532Y-32495321D03*
D11*
X107586533Y-32495321D03*
X110126532Y-32495321D03*
X110126532Y-32495321D03*
D13*
X110126532Y-32495321D03*
D11*
X112666532Y-32495321D03*
X112666532Y-32495321D03*
D13*
X112666532Y-32495321D03*
D11*
X115206532Y-32495321D03*
D12*
X115206532Y-32495321D03*
D11*
X115206533Y-32495321D03*
D13*
X115206533Y-32495321D03*
D11*
X117746532Y-32495321D03*
X117746532Y-32495321D03*
D13*
X117746532Y-32495321D03*
D11*
X120286532Y-32495321D03*
X120286532Y-32495321D03*
D13*
X120286532Y-32495321D03*
D11*
X122826532Y-32495321D03*
D12*
X122826532Y-32495321D03*
X122826532Y-32495321D03*
D13*
X122826532Y-32495321D03*
D11*
X122826533Y-32495321D03*
X125366532Y-32495321D03*
X125366532Y-32495321D03*
D13*
X125366532Y-32495321D03*
D11*
X127906532Y-32495321D03*
X127906532Y-32495321D03*
D13*
X127906532Y-32495321D03*
D11*
X130446532Y-32495321D03*
D12*
X130446532Y-32495321D03*
D11*
X130446533Y-32495321D03*
D13*
X130446533Y-32495321D03*
D11*
X132986532Y-32495321D03*
X132986532Y-32495321D03*
D13*
X132986532Y-32495321D03*
D11*
X135526532Y-32495321D03*
X135526532Y-32495321D03*
D13*
X135526532Y-32495321D03*
D11*
X138066532Y-32495321D03*
D12*
X138066532Y-32495321D03*
X138066532Y-32495321D03*
D13*
X138066532Y-32495321D03*
D11*
X138066533Y-32495321D03*
X140606532Y-32495321D03*
X140606532Y-32495321D03*
D13*
X140606532Y-32495321D03*
D11*
X143146532Y-32495321D03*
X143146532Y-32495321D03*
D13*
X143146532Y-32495321D03*
D11*
X145686533Y-32495321D03*
D13*
X145686533Y-32495321D03*
D11*
X148226532Y-32495321D03*
D13*
X148226532Y-32495321D03*
D11*
X150766532Y-32495321D03*
D13*
X150766532Y-32495321D03*
G04 #@! TD*
D50*
G04 #@! TO.P,J2,1,Pin_1*
G04 #@! TO.N,TOP_RAIL_NEG*
X135653532Y-84311322D03*
G04 #@! TD*
D11*
G04 #@! TO.P,J18,1*
G04 #@! TO.N,N/C*
X155846532Y-42650614D03*
D49*
X155846532Y-42650614D03*
D11*
G04 #@! TO.P,J18,1,Pin_1*
G04 #@! TO.N,1*
X155846532Y-45190614D03*
G04 #@! TO.P,J18,1,Pin_3*
G04 #@! TO.N,3*
X155846532Y-47730614D03*
G04 #@! TO.P,J18,1,Pin_1*
G04 #@! TO.N,1*
X155846532Y-50270614D03*
X155846532Y-52810614D03*
X155846532Y-55350614D03*
G04 #@! TO.P,J18,2*
G04 #@! TO.N,N/C*
X158386532Y-42650614D03*
D49*
X158386532Y-42650614D03*
D11*
X158386532Y-45190614D03*
X158386532Y-47730614D03*
X158386532Y-50270614D03*
X158386532Y-52810614D03*
X158386532Y-55350614D03*
G04 #@! TO.P,J18,3*
X160926532Y-42650614D03*
D49*
X160926532Y-42650614D03*
D11*
X160926532Y-45190614D03*
X160926532Y-47730614D03*
X160926532Y-50270614D03*
X160926532Y-52810614D03*
X160926532Y-55350614D03*
G04 #@! TO.P,J18,4*
X163466532Y-42650614D03*
D49*
X163466532Y-42650614D03*
D11*
X163466532Y-45190614D03*
X163466532Y-47730614D03*
X163466532Y-50270614D03*
X163466532Y-52810614D03*
X163466532Y-55350614D03*
D49*
X166006532Y-42650614D03*
D11*
G04 #@! TO.P,J18,5*
X166006532Y-42650614D03*
X166006532Y-45190614D03*
X166006532Y-47730614D03*
X166006532Y-50270614D03*
X166006532Y-52810614D03*
X166006532Y-55350614D03*
G04 #@! TO.P,J18,6*
X168546532Y-42650614D03*
D49*
X168546532Y-42650614D03*
D11*
X168546532Y-45190614D03*
X168546532Y-47730614D03*
X168546532Y-50270614D03*
X168546532Y-52810614D03*
X168546532Y-55350614D03*
G04 #@! TO.P,J18,7*
X171086532Y-42650614D03*
D49*
X171086532Y-42650614D03*
D11*
X171086532Y-45190614D03*
X171086532Y-47730614D03*
X171086532Y-50270614D03*
X171086532Y-52810614D03*
X171086532Y-55350614D03*
D49*
X173626532Y-42650614D03*
D11*
G04 #@! TO.P,J18,8*
X173626532Y-42650614D03*
X173626532Y-45190614D03*
X173626532Y-47730614D03*
X173626532Y-50270614D03*
X173626532Y-52810614D03*
X173626532Y-55350614D03*
G04 #@! TO.P,J18,9*
X176166532Y-42650614D03*
D49*
X176166532Y-42650614D03*
D11*
X176166532Y-45190614D03*
X176166532Y-47730614D03*
X176166532Y-50270614D03*
X176166532Y-52810614D03*
X176166532Y-55350614D03*
G04 #@! TO.P,J18,10*
X178706532Y-42650614D03*
D49*
X178706532Y-42650614D03*
D11*
X178706532Y-45190614D03*
X178706532Y-47730614D03*
X178706532Y-50270614D03*
X178706532Y-52810614D03*
X178706532Y-55350614D03*
G04 #@! TO.P,J18,11*
X181246532Y-42650614D03*
D49*
X181246532Y-42650614D03*
D11*
X181246532Y-45190614D03*
X181246532Y-47730614D03*
X181246532Y-50270614D03*
X181246532Y-52810614D03*
X181246532Y-55350614D03*
G04 #@! TO.P,J18,12*
X183786532Y-42650614D03*
D49*
X183786532Y-42650614D03*
D11*
X183786532Y-45190614D03*
X183786532Y-47730614D03*
X183786532Y-50270614D03*
X183786532Y-52810614D03*
X183786532Y-55350614D03*
G04 #@! TO.P,J18,13*
X186326532Y-42650614D03*
D49*
X186326532Y-42650614D03*
D11*
X186326532Y-45190614D03*
X186326532Y-47730614D03*
X186326532Y-50270614D03*
X186326532Y-52810614D03*
X186326532Y-55350614D03*
G04 #@! TO.P,J18,14*
X188866532Y-42650614D03*
D49*
X188866532Y-42650614D03*
D11*
X188866532Y-45190614D03*
X188866532Y-47730614D03*
X188866532Y-50270614D03*
X188866532Y-52810614D03*
X188866532Y-55350614D03*
G04 #@! TO.P,J18,15*
X191406532Y-42650614D03*
D49*
X191406532Y-42650614D03*
D11*
X191406532Y-45190614D03*
X191406532Y-47730614D03*
X191406532Y-50270614D03*
X191406532Y-52810614D03*
X191406532Y-55350614D03*
G04 #@! TO.P,J18,16*
X193946532Y-42650614D03*
D49*
X193946532Y-42650614D03*
D11*
X193946532Y-45190614D03*
X193946532Y-47730614D03*
X193946532Y-50270614D03*
X193946532Y-52810614D03*
X193946532Y-55350614D03*
G04 #@! TO.P,J18,17*
X196486532Y-42650614D03*
D49*
X196486532Y-42650614D03*
D11*
X196486532Y-45190614D03*
X196486532Y-47730614D03*
X196486532Y-50270614D03*
X196486532Y-52810614D03*
X196486532Y-55350614D03*
G04 #@! TO.P,J18,18*
X199026532Y-42650614D03*
D49*
X199026532Y-42650614D03*
D11*
X199026532Y-45190614D03*
X199026532Y-47730614D03*
X199026532Y-50270614D03*
X199026532Y-52810614D03*
X199026532Y-55350614D03*
G04 #@! TO.P,J18,19*
X201566532Y-42650614D03*
D49*
X201566532Y-42650614D03*
D11*
X201566532Y-45190614D03*
X201566532Y-47730614D03*
X201566532Y-50270614D03*
X201566532Y-52810614D03*
X201566532Y-55350614D03*
G04 #@! TO.P,J18,20*
X204106532Y-42650614D03*
D49*
X204106532Y-42650614D03*
D11*
X204106532Y-45190614D03*
X204106532Y-47730614D03*
X204106532Y-50270614D03*
X204106532Y-52810614D03*
X204106532Y-55350614D03*
G04 #@! TO.P,J18,21*
X206646532Y-42650614D03*
D49*
X206646532Y-42650614D03*
D11*
X206646532Y-45190614D03*
X206646532Y-47730614D03*
X206646532Y-50270614D03*
X206646532Y-52810614D03*
X206646532Y-55350614D03*
G04 #@! TO.P,J18,22*
X209186532Y-42650614D03*
D49*
X209186532Y-42650614D03*
D11*
X209186532Y-45190614D03*
X209186532Y-47730614D03*
X209186532Y-50270614D03*
X209186532Y-52810614D03*
X209186532Y-55350614D03*
G04 #@! TO.P,J18,23*
X211726532Y-42650614D03*
D49*
X211726532Y-42650614D03*
D11*
X211726532Y-45190614D03*
X211726532Y-47730614D03*
X211726532Y-50270614D03*
X211726532Y-52810614D03*
X211726532Y-55350614D03*
G04 #@! TO.P,J18,24*
X214266532Y-42650614D03*
D49*
X214266532Y-42650614D03*
D11*
X214266532Y-45190614D03*
X214266532Y-47730614D03*
X214266532Y-50270614D03*
X214266532Y-52810614D03*
X214266532Y-55350614D03*
G04 #@! TO.P,J18,25*
X216806532Y-42650614D03*
D49*
X216806532Y-42650614D03*
D11*
X216806532Y-45190614D03*
X216806532Y-47730614D03*
X216806532Y-50270614D03*
X216806532Y-52810614D03*
X216806532Y-55350614D03*
G04 #@! TO.P,J18,26*
X219346532Y-42650614D03*
D49*
X219346532Y-42650614D03*
D11*
X219346532Y-45190614D03*
X219346532Y-47730614D03*
X219346532Y-50270614D03*
X219346532Y-52810614D03*
X219346532Y-55350614D03*
G04 #@! TO.P,J18,27*
X221886532Y-42650614D03*
D49*
X221886532Y-42650614D03*
D11*
X221886532Y-45190614D03*
X221886532Y-47730614D03*
X221886532Y-50270614D03*
X221886532Y-52810614D03*
X221886532Y-55350614D03*
G04 #@! TO.P,J18,28*
X224426532Y-42650614D03*
D49*
X224426532Y-42650614D03*
D11*
X224426532Y-45190614D03*
X224426532Y-47730614D03*
X224426532Y-50270614D03*
X224426532Y-52810614D03*
X224426532Y-55350614D03*
G04 #@! TO.P,J18,29*
X226966532Y-42650614D03*
D49*
X226966532Y-42650614D03*
D11*
X226966532Y-45190614D03*
X226966532Y-47730614D03*
X226966532Y-50270614D03*
X226966532Y-52810614D03*
X226966532Y-55350614D03*
G04 #@! TO.P,J18,30*
X229506532Y-42650614D03*
D49*
X229506532Y-42650614D03*
D11*
X229506532Y-45190614D03*
X229506532Y-47730614D03*
X229506532Y-50270614D03*
X229506532Y-52810614D03*
X229506532Y-55350614D03*
G04 #@! TD*
M02*
