G04 #@! TF.GenerationSoftware,KiCad,Pcbnew,10.0.1*
G04 #@! TF.CreationDate,2026-07-05T21:53:46-07:00*
G04 #@! TF.ProjectId,wig,7769672e-6b69-4636-9164-5f7063625858,rev?*
G04 #@! TF.SameCoordinates,Original*
G04 #@! TF.FileFunction,Profile,NP*
%FSLAX46Y46*%
G04 Gerber Fmt 4.6, Leading zero omitted, Abs format (unit mm)*
G04 Created by KiCad (PCBNEW 10.0.1) date 2026-07-05 21:53:46*
%MOMM*%
%LPD*%
G01*
G04 APERTURE LIST*
G04 #@! TA.AperFunction,Profile*
%ADD10C,0.010000*%
G04 #@! TD*
G04 #@! TA.AperFunction,Profile*
%ADD11C,0.050000*%
G04 #@! TD*
G04 APERTURE END LIST*
D10*
X153807036Y-41482336D02*
X153917278Y-41923307D01*
X153941532Y-42120321D01*
X153941532Y-71130321D01*
X153917279Y-71327335D01*
X153807036Y-71768308D01*
X153682782Y-71865322D01*
X152930282Y-71865322D01*
X152806029Y-71768308D01*
X152695786Y-71327335D01*
X152671532Y-71130321D01*
X152671532Y-42120321D01*
X152695786Y-41923307D01*
X152806028Y-41482336D01*
X152930282Y-41385322D01*
X153682782Y-41385322D01*
X153807036Y-41482336D01*
D11*
X74566532Y-31428500D02*
X74566532Y-39480300D01*
X74566532Y-31428520D02*
G75*
G02*
X75009664Y-30586050I1022368J20D01*
G01*
X74566532Y-39480300D02*
X75201532Y-42020300D01*
X74566532Y-73770300D02*
X74566532Y-81822100D01*
X75009683Y-82664563D02*
G75*
G02*
X74566571Y-81822120I579117J842363D01*
G01*
X75201532Y-42020300D02*
X75201532Y-71230300D01*
X75201532Y-71230300D02*
X74566532Y-73770300D01*
X76512818Y-29510163D02*
X75009683Y-30586077D01*
X76512818Y-29510163D02*
G75*
G02*
X77106532Y-29320331I593782J-833737D01*
G01*
X76512818Y-83740477D02*
X75009683Y-82664563D01*
X77106532Y-83930320D02*
G75*
G02*
X76512817Y-83740478I-32J1023220D01*
G01*
X88536532Y-83930320D02*
X77106564Y-83930320D01*
X139336532Y-83930321D02*
X150766500Y-83930321D01*
X150766532Y-29320321D02*
X77106532Y-29320320D01*
X150766532Y-29320321D02*
G75*
G02*
X151360243Y-29510169I-32J-1023379D01*
G01*
X151360214Y-83740478D02*
G75*
G02*
X150766500Y-83930301I-593714J833578D01*
G01*
X151360214Y-83740478D02*
X151836312Y-83427092D01*
X151360246Y-29510164D02*
X151836344Y-29823550D01*
X151836312Y-83427092D02*
G75*
G02*
X152276165Y-83295298I439888J-668208D01*
G01*
X152276165Y-83295321D02*
X154336844Y-83295321D01*
X152276197Y-29955321D02*
G75*
G02*
X151836343Y-29823551I3J800021D01*
G01*
X152276197Y-29955321D02*
X154336876Y-29955321D01*
X153306532Y-56625321D02*
X152036532Y-56625321D01*
X154336844Y-83295321D02*
G75*
G02*
X154776668Y-83427106I-44J-799979D01*
G01*
X154776715Y-29823559D02*
G75*
G02*
X154336876Y-29955305I-439815J668259D01*
G01*
X155252786Y-83740458D02*
X154776683Y-83427083D01*
X155252818Y-29510184D02*
X154776715Y-29823559D01*
X155252818Y-29510184D02*
G75*
G02*
X155846532Y-29320348I593782J-833716D01*
G01*
X155846500Y-83930301D02*
G75*
G02*
X155252788Y-83740455I100J1023601D01*
G01*
X167276532Y-83930341D02*
X155846564Y-83930341D01*
X218076532Y-83930342D02*
X229506500Y-83930342D01*
X229506532Y-29320342D02*
X155846532Y-29320341D01*
X229506532Y-29320342D02*
G75*
G02*
X230100240Y-29510193I-32J-1023358D01*
G01*
X230100246Y-29510185D02*
X231603381Y-30586099D01*
X230100246Y-83740499D02*
G75*
G02*
X229506532Y-83930336I-593746J833599D01*
G01*
X230100246Y-83740499D02*
X231603381Y-82664585D01*
X231411532Y-42020342D02*
X231411532Y-71230342D01*
X231411532Y-71230342D02*
X232046532Y-73770342D01*
X231603381Y-30586099D02*
G75*
G02*
X232046496Y-31428542I-579181J-842401D01*
G01*
X232046532Y-31428542D02*
X232046532Y-39480342D01*
X232046532Y-39480342D02*
X231411532Y-42020342D01*
X232046532Y-56625342D02*
X230776532Y-56625342D01*
X232046532Y-73770342D02*
X232046532Y-81822142D01*
X232046532Y-81822142D02*
G75*
G02*
X231603362Y-82664557I-1022332J42D01*
G01*
G04 #@! TO.C,U1*
X88536532Y-83930320D02*
X91203532Y-83930321D01*
X91203532Y-90788322D02*
X91203532Y-83930321D01*
X91203532Y-90788322D02*
X91330532Y-91550321D01*
X91330532Y-91550321D02*
X136542532Y-91550322D01*
X136542532Y-91550322D02*
X136669532Y-90788322D01*
X136669532Y-90788322D02*
X136669532Y-83930322D01*
X139336532Y-83930321D02*
X136669532Y-83930322D01*
X167276532Y-83930341D02*
X169943532Y-83930342D01*
X169943532Y-90788343D02*
X169943532Y-83930342D01*
X169943532Y-90788343D02*
X170070532Y-91550342D01*
X170070532Y-91550342D02*
X215282532Y-91550343D01*
X215282532Y-91550343D02*
X215409532Y-90788343D01*
X215409532Y-90788343D02*
X215409532Y-83930343D01*
X218076532Y-83930342D02*
X215409532Y-83930343D01*
G04 #@! TD*
M02*
