%TF.GenerationSoftware,KiCad,Pcbnew,7.0.7*%
%TF.CreationDate,2024-02-23T14:46:40-08:00*%
%TF.ProjectId,JluxR2protoboard,4a6c7578-5232-4707-926f-746f626f6172,rev?*%
%TF.SameCoordinates,Original*%
%TF.FileFunction,Copper,L1,Top*%
%TF.FilePolarity,Positive*%
%FSLAX46Y46*%
G04 Gerber Fmt 4.6, Leading zero omitted, Abs format (unit mm)*
G04 Created by KiCad (PCBNEW 7.0.7) date 2024-02-23 14:46:40*
%MOMM*%
%LPD*%
G01*
G04 APERTURE LIST*
G04 Aperture macros list*
%AMRoundRect*
0 Rectangle with rounded corners*
0 $1 Rounding radius*
0 $2 $3 $4 $5 $6 $7 $8 $9 X,Y pos of 4 corners*
0 Add a 4 corners polygon primitive as box body*
4,1,4,$2,$3,$4,$5,$6,$7,$8,$9,$2,$3,0*
0 Add four circle primitives for the rounded corners*
1,1,$1+$1,$2,$3*
1,1,$1+$1,$4,$5*
1,1,$1+$1,$6,$7*
1,1,$1+$1,$8,$9*
0 Add four rect primitives between the rounded corners*
20,1,$1+$1,$2,$3,$4,$5,0*
20,1,$1+$1,$4,$5,$6,$7,0*
20,1,$1+$1,$6,$7,$8,$9,0*
20,1,$1+$1,$8,$9,$2,$3,0*%
%AMFreePoly0*
4,1,49,0.250000,0.845344,0.338849,0.845344,0.512664,0.808398,0.675000,0.736122,0.818761,0.631673,0.937664,0.499617,1.026514,0.345726,1.081425,0.176725,1.100000,0.000000,1.081425,-0.176725,1.026514,-0.345726,0.937664,-0.499617,0.818761,-0.631673,0.675000,-0.736122,0.512664,-0.808398,0.338849,-0.845344,0.250000,-0.845344,0.250000,-0.850000,-0.250000,-0.850000,-0.250000,-0.845344,
-0.338849,-0.845344,-0.512664,-0.808398,-0.675000,-0.736122,-0.818761,-0.631673,-0.937664,-0.499617,-1.012030,-0.370812,-1.075001,-0.307840,-1.175960,-0.250000,-1.210000,-0.250000,-1.305671,-0.230970,-1.386777,-0.176777,-1.440970,-0.095671,-1.460000,0.000000,-1.440970,0.095671,-1.386777,0.176777,-1.305671,0.230970,-1.210000,0.250000,-1.175960,0.250000,-1.075001,0.307840,-1.012030,0.370812,
-0.937664,0.499617,-0.818761,0.631673,-0.675000,0.736122,-0.512664,0.808398,-0.338849,0.845344,-0.250000,0.845344,-0.250000,0.850000,0.250000,0.850000,0.250000,0.845344,0.250000,0.845344,$1*%
%AMFreePoly1*
4,1,59,0.250000,0.845344,0.338849,0.845344,0.512664,0.808398,0.675000,0.736122,0.818761,0.631673,0.937664,0.499617,1.012030,0.370812,1.075002,0.307840,1.175960,0.250000,1.210000,0.250000,1.305671,0.230970,1.386777,0.176777,1.440970,0.095671,1.460000,0.000000,1.440970,-0.095671,1.386777,-0.176777,1.305671,-0.230970,1.210000,-0.250000,1.175960,-0.250000,1.075002,-0.307840,
1.012030,-0.370812,0.937664,-0.499617,0.818761,-0.631673,0.675000,-0.736122,0.512664,-0.808398,0.338849,-0.845344,0.250000,-0.845344,0.250000,-0.850000,-0.250000,-0.850000,-0.250000,-0.845344,-0.338849,-0.845344,-0.512664,-0.808398,-0.675000,-0.736122,-0.818761,-0.631673,-0.937664,-0.499617,-1.012030,-0.370812,-1.075001,-0.307840,-1.175960,-0.250000,-1.210000,-0.250000,-1.305671,-0.230970,
-1.386777,-0.176777,-1.440970,-0.095671,-1.460000,0.000000,-1.440970,0.095671,-1.386777,0.176777,-1.305671,0.230970,-1.210000,0.250000,-1.175960,0.250000,-1.075001,0.307840,-1.012030,0.370812,-0.937664,0.499617,-0.818761,0.631673,-0.675000,0.736122,-0.512664,0.808398,-0.338849,0.845344,-0.250000,0.845344,-0.250000,0.850000,0.250000,0.850000,0.250000,0.845344,0.250000,0.845344,
$1*%
G04 Aperture macros list end*
%TA.AperFunction,ComponentPad*%
%ADD10FreePoly0,90.000000*%
%TD*%
%TA.AperFunction,ComponentPad*%
%ADD11FreePoly1,90.000000*%
%TD*%
%TA.AperFunction,ComponentPad*%
%ADD12FreePoly0,270.000000*%
%TD*%
%TA.AperFunction,ComponentPad*%
%ADD13C,1.000000*%
%TD*%
%TA.AperFunction,SMDPad,CuDef*%
%ADD14RoundRect,0.090000X-0.360000X-2.410000X0.360000X-2.410000X0.360000X2.410000X-0.360000X2.410000X0*%
%TD*%
%TA.AperFunction,SMDPad,CuDef*%
%ADD15RoundRect,0.090000X0.360000X2.410000X-0.360000X2.410000X-0.360000X-2.410000X0.360000X-2.410000X0*%
%TD*%
%TA.AperFunction,ViaPad*%
%ADD16C,0.500000*%
%TD*%
%TA.AperFunction,Conductor*%
%ADD17C,0.250000*%
%TD*%
%TA.AperFunction,Conductor*%
%ADD18C,0.350000*%
%TD*%
G04 APERTURE END LIST*
D10*
%TO.P,J1,1,Pin_1*%
%TO.N,Net-(J1-Pin_1)*%
X65151000Y-39461201D03*
D11*
X65151000Y-42001201D03*
X65151000Y-44541201D03*
X65151000Y-47081201D03*
X65151000Y-49621201D03*
X65151000Y-52161201D03*
X65151000Y-54701201D03*
D12*
X65151000Y-57241201D03*
D10*
%TO.P,J1,2,Pin_2*%
%TO.N,Net-(J1-Pin_2)*%
X67691000Y-39461201D03*
D11*
X67691000Y-42001201D03*
X67691000Y-44541201D03*
X67691000Y-47081201D03*
X67691000Y-49621201D03*
X67691000Y-52161201D03*
X67691000Y-54701201D03*
D12*
X67691000Y-57241201D03*
D10*
%TO.P,J1,3,Pin_3*%
%TO.N,Net-(J1-Pin_3)*%
X70231000Y-39461201D03*
D11*
X70231000Y-42001201D03*
X70231000Y-44541201D03*
X70231000Y-47081201D03*
X70231000Y-49621201D03*
X70231000Y-52161201D03*
X70231000Y-54701201D03*
D12*
X70231000Y-57241201D03*
D10*
%TO.P,J1,4,Pin_4*%
%TO.N,Net-(J1-Pin_4)*%
X72771000Y-39461201D03*
D11*
X72771000Y-42001201D03*
X72771000Y-44541201D03*
X72771000Y-47081201D03*
X72771000Y-49621201D03*
X72771000Y-52161201D03*
X72771000Y-54701201D03*
D12*
X72771000Y-57241201D03*
D10*
%TO.P,J1,5,Pin_5*%
%TO.N,Net-(J1-Pin_5)*%
X75311000Y-39461201D03*
D11*
X75311000Y-42001201D03*
X75311000Y-44541201D03*
X75311000Y-47081201D03*
X75311000Y-49621201D03*
X75311000Y-52161201D03*
X75311000Y-54701201D03*
D12*
X75311000Y-57241201D03*
D10*
%TO.P,J1,6,Pin_6*%
%TO.N,Net-(J1-Pin_6)*%
X77851000Y-39461201D03*
D11*
X77851000Y-42001201D03*
X77851000Y-44541201D03*
X77851000Y-47081201D03*
X77851000Y-49621201D03*
X77851000Y-52161201D03*
X77851000Y-54701201D03*
D12*
X77851000Y-57241201D03*
D10*
%TO.P,J1,7,Pin_7*%
%TO.N,Net-(J1-Pin_7)*%
X80391000Y-39461201D03*
D11*
X80391000Y-42001201D03*
X80391000Y-44541201D03*
X80391000Y-47081201D03*
X80391000Y-49621201D03*
X80391000Y-52161201D03*
X80391000Y-54701201D03*
D12*
X80391000Y-57241201D03*
D10*
%TO.P,J1,8,Pin_8*%
%TO.N,Net-(J1-Pin_8)*%
X82931000Y-39461201D03*
D11*
X82931000Y-42001201D03*
X82931000Y-44541201D03*
X82931000Y-47081201D03*
X82931000Y-49621201D03*
X82931000Y-52161201D03*
X82931000Y-54701201D03*
D12*
X82931000Y-57241201D03*
D10*
%TO.P,J1,9,Pin_9*%
%TO.N,Net-(J1-Pin_9)*%
X85471000Y-39461201D03*
D11*
X85471000Y-42001201D03*
X85471000Y-44541201D03*
X85471000Y-47081201D03*
X85471000Y-49621201D03*
X85471000Y-52161201D03*
X85471000Y-54701201D03*
D12*
X85471000Y-57241201D03*
D10*
%TO.P,J1,10,Pin_10*%
%TO.N,Net-(J1-Pin_10)*%
X88011000Y-39461201D03*
D11*
X88011000Y-42001201D03*
X88011000Y-44541201D03*
X88011000Y-47081201D03*
X88011000Y-49621201D03*
X88011000Y-52161201D03*
X88011000Y-54701201D03*
D12*
X88011000Y-57241201D03*
D10*
%TO.P,J1,11,Pin_11*%
%TO.N,Net-(J1-Pin_11)*%
X90551000Y-39461201D03*
D11*
X90551000Y-42001201D03*
X90551000Y-44541201D03*
X90551000Y-47081201D03*
X90551000Y-49621201D03*
X90551000Y-52161201D03*
X90551000Y-54701201D03*
D12*
X90551000Y-57241201D03*
D10*
%TO.P,J1,12,Pin_12*%
%TO.N,Net-(J1-Pin_12)*%
X93091000Y-39461201D03*
D11*
X93091000Y-42001201D03*
X93091000Y-44541201D03*
X93091000Y-47081201D03*
X93091000Y-49621201D03*
X93091000Y-52161201D03*
X93091000Y-54701201D03*
D12*
X93091000Y-57241201D03*
D10*
%TO.P,J1,13,Pin_13*%
%TO.N,Net-(J1-Pin_13)*%
X95631000Y-39461201D03*
D11*
X95631000Y-42001201D03*
X95631000Y-44541201D03*
X95631000Y-47081201D03*
X95631000Y-49621201D03*
X95631000Y-52161201D03*
X95631000Y-54701201D03*
D12*
X95631000Y-57241201D03*
D10*
%TO.P,J1,14,Pin_14*%
%TO.N,Net-(J1-Pin_14)*%
X98171000Y-39461201D03*
D11*
X98171000Y-42001201D03*
X98171000Y-44541201D03*
X98171000Y-47081201D03*
X98171000Y-49621201D03*
X98171000Y-52161201D03*
X98171000Y-54701201D03*
D12*
X98171000Y-57241201D03*
D10*
%TO.P,J1,15,Pin_15*%
%TO.N,Net-(J1-Pin_15)*%
X100711000Y-39461201D03*
D11*
X100711000Y-42001201D03*
X100711000Y-44541201D03*
X100711000Y-47081201D03*
X100711000Y-49621201D03*
X100711000Y-52161201D03*
X100711000Y-54701201D03*
D12*
X100711000Y-57241201D03*
D10*
%TO.P,J1,16,Pin_16*%
%TO.N,Net-(J1-Pin_16)*%
X103251000Y-39461201D03*
D11*
X103251000Y-42001201D03*
X103251000Y-44541201D03*
X103251000Y-47081201D03*
X103251000Y-49621201D03*
X103251000Y-52161201D03*
X103251000Y-54701201D03*
D12*
X103251000Y-57241201D03*
D10*
%TO.P,J1,17,Pin_17*%
%TO.N,Net-(J1-Pin_17)*%
X105791000Y-39461201D03*
D11*
X105791000Y-42001201D03*
X105791000Y-44541201D03*
X105791000Y-47081201D03*
X105791000Y-49621201D03*
X105791000Y-52161201D03*
X105791000Y-54701201D03*
D12*
X105791000Y-57241201D03*
D10*
%TO.P,J1,18,Pin_18*%
%TO.N,Net-(J1-Pin_18)*%
X108331000Y-39461201D03*
D11*
X108331000Y-42001201D03*
X108331000Y-44541201D03*
X108331000Y-47081201D03*
X108331000Y-49621201D03*
X108331000Y-52161201D03*
X108331000Y-54701201D03*
D12*
X108331000Y-57241201D03*
D10*
%TO.P,J1,19,Pin_19*%
%TO.N,Net-(J1-Pin_19)*%
X110871000Y-39461201D03*
D11*
X110871000Y-42001201D03*
X110871000Y-44541201D03*
X110871000Y-47081201D03*
X110871000Y-49621201D03*
X110871000Y-52161201D03*
X110871000Y-54701201D03*
D12*
X110871000Y-57241201D03*
D10*
%TO.P,J1,20,Pin_20*%
%TO.N,Net-(J1-Pin_20)*%
X113411000Y-39461201D03*
D11*
X113411000Y-42001201D03*
X113411000Y-44541201D03*
X113411000Y-47081201D03*
X113411000Y-49621201D03*
X113411000Y-52161201D03*
X113411000Y-54701201D03*
D12*
X113411000Y-57241201D03*
D10*
%TO.P,J1,21,Pin_21*%
%TO.N,Net-(J1-Pin_21)*%
X115951000Y-39461201D03*
D11*
X115951000Y-42001201D03*
X115951000Y-44541201D03*
X115951000Y-47081201D03*
X115951000Y-49621201D03*
X115951000Y-52161201D03*
X115951000Y-54701201D03*
D12*
X115951000Y-57241201D03*
D10*
%TO.P,J1,22,Pin_22*%
%TO.N,Net-(J1-Pin_22)*%
X118491000Y-39461201D03*
D11*
X118491000Y-42001201D03*
X118491000Y-44541201D03*
X118491000Y-47081201D03*
X118491000Y-49621201D03*
X118491000Y-52161201D03*
X118491000Y-54701201D03*
D12*
X118491000Y-57241201D03*
D10*
%TO.P,J1,23,Pin_23*%
%TO.N,Net-(J1-Pin_23)*%
X121031000Y-39461201D03*
D11*
X121031000Y-42001201D03*
X121031000Y-44541201D03*
X121031000Y-47081201D03*
X121031000Y-49621201D03*
X121031000Y-52161201D03*
X121031000Y-54701201D03*
D12*
X121031000Y-57241201D03*
D10*
%TO.P,J1,24,Pin_24*%
%TO.N,Net-(J1-Pin_24)*%
X123571000Y-39461201D03*
D11*
X123571000Y-42001201D03*
X123571000Y-44541201D03*
X123571000Y-47081201D03*
X123571000Y-49621201D03*
X123571000Y-52161201D03*
X123571000Y-54701201D03*
D12*
X123571000Y-57241201D03*
D10*
%TO.P,J1,25,Pin_25*%
%TO.N,Net-(J1-Pin_25)*%
X126111000Y-39461201D03*
D11*
X126111000Y-42001201D03*
X126111000Y-44541201D03*
X126111000Y-47081201D03*
X126111000Y-49621201D03*
X126111000Y-52161201D03*
X126111000Y-54701201D03*
D12*
X126111000Y-57241201D03*
D10*
%TO.P,J1,26,Pin_26*%
%TO.N,Net-(J1-Pin_26)*%
X128651000Y-39461201D03*
D11*
X128651000Y-42001201D03*
X128651000Y-44541201D03*
X128651000Y-47081201D03*
X128651000Y-49621201D03*
X128651000Y-52161201D03*
X128651000Y-54701201D03*
D12*
X128651000Y-57241201D03*
D10*
%TO.P,J1,27,Pin_27*%
%TO.N,Net-(J1-Pin_27)*%
X131191000Y-39461201D03*
D11*
X131191000Y-42001201D03*
X131191000Y-44541201D03*
X131191000Y-47081201D03*
X131191000Y-49621201D03*
X131191000Y-52161201D03*
X131191000Y-54701201D03*
D12*
X131191000Y-57241201D03*
D10*
%TO.P,J1,28,Pin_28*%
%TO.N,Net-(J1-Pin_28)*%
X133731000Y-39461201D03*
D11*
X133731000Y-42001201D03*
X133731000Y-44541201D03*
X133731000Y-47081201D03*
X133731000Y-49621201D03*
X133731000Y-52161201D03*
X133731000Y-54701201D03*
D12*
X133731000Y-57241201D03*
D10*
%TO.P,J1,29,Pin_29*%
%TO.N,Net-(J1-Pin_29)*%
X136271000Y-39461201D03*
D11*
X136271000Y-42001201D03*
X136271000Y-44541201D03*
X136271000Y-47081201D03*
X136271000Y-49621201D03*
X136271000Y-52161201D03*
X136271000Y-54701201D03*
D12*
X136271000Y-57241201D03*
D10*
%TO.P,J1,30,Pin_30*%
%TO.N,Net-(J1-Pin_30)*%
X138811000Y-39461201D03*
D11*
X138811000Y-42001201D03*
X138811000Y-44541201D03*
X138811000Y-47081201D03*
X138811000Y-49621201D03*
X138811000Y-52161201D03*
X138811000Y-54701201D03*
D12*
X138811000Y-57241201D03*
%TD*%
D10*
%TO.P,J2,1,Pin_1*%
%TO.N,Net-(J11-Pin_1)*%
X65151000Y-59781201D03*
D11*
X65151000Y-62321201D03*
X65151000Y-64861201D03*
X65151000Y-67401201D03*
X65151000Y-69941201D03*
X65151000Y-72481201D03*
X65151000Y-75021201D03*
D12*
X65151000Y-77561201D03*
D10*
%TO.P,J2,2,Pin_2*%
%TO.N,Net-(J11-Pin_2)*%
X67691000Y-59781201D03*
D11*
X67691000Y-62321201D03*
X67691000Y-64861201D03*
X67691000Y-67401201D03*
X67691000Y-69941201D03*
X67691000Y-72481201D03*
X67691000Y-75021201D03*
D12*
X67691000Y-77561201D03*
D10*
%TO.P,J2,3,Pin_3*%
%TO.N,Net-(J11-Pin_3)*%
X70231000Y-59781201D03*
D11*
X70231000Y-62321201D03*
X70231000Y-64861201D03*
X70231000Y-67401201D03*
X70231000Y-69941201D03*
X70231000Y-72481201D03*
X70231000Y-75021201D03*
D12*
X70231000Y-77561201D03*
D10*
%TO.P,J2,4,Pin_4*%
%TO.N,Net-(J11-Pin_4)*%
X72771000Y-59781201D03*
D11*
X72771000Y-62321201D03*
X72771000Y-64861201D03*
X72771000Y-67401201D03*
X72771000Y-69941201D03*
X72771000Y-72481201D03*
X72771000Y-75021201D03*
D12*
X72771000Y-77561201D03*
D10*
%TO.P,J2,5,Pin_5*%
%TO.N,Net-(J11-Pin_5)*%
X75311000Y-59781201D03*
D11*
X75311000Y-62321201D03*
X75311000Y-64861201D03*
X75311000Y-67401201D03*
X75311000Y-69941201D03*
X75311000Y-72481201D03*
X75311000Y-75021201D03*
D12*
X75311000Y-77561201D03*
D10*
%TO.P,J2,6,Pin_6*%
%TO.N,Net-(J11-Pin_6)*%
X77851000Y-59781201D03*
D11*
X77851000Y-62321201D03*
X77851000Y-64861201D03*
X77851000Y-67401201D03*
X77851000Y-69941201D03*
X77851000Y-72481201D03*
X77851000Y-75021201D03*
D12*
X77851000Y-77561201D03*
D10*
%TO.P,J2,7,Pin_7*%
%TO.N,Net-(J11-Pin_7)*%
X80391000Y-59781201D03*
D11*
X80391000Y-62321201D03*
X80391000Y-64861201D03*
X80391000Y-67401201D03*
X80391000Y-69941201D03*
X80391000Y-72481201D03*
X80391000Y-75021201D03*
D12*
X80391000Y-77561201D03*
D10*
%TO.P,J2,8,Pin_8*%
%TO.N,Net-(J11-Pin_8)*%
X82931000Y-59781201D03*
D11*
X82931000Y-62321201D03*
X82931000Y-64861201D03*
X82931000Y-67401201D03*
X82931000Y-69941201D03*
X82931000Y-72481201D03*
X82931000Y-75021201D03*
D12*
X82931000Y-77561201D03*
D10*
%TO.P,J2,9,Pin_9*%
%TO.N,Net-(J11-Pin_9)*%
X85471000Y-59781201D03*
D11*
X85471000Y-62321201D03*
X85471000Y-64861201D03*
X85471000Y-67401201D03*
X85471000Y-69941201D03*
X85471000Y-72481201D03*
X85471000Y-75021201D03*
D12*
X85471000Y-77561201D03*
D10*
%TO.P,J2,10,Pin_10*%
%TO.N,Net-(J11-Pin_10)*%
X88011000Y-59781201D03*
D11*
X88011000Y-62321201D03*
X88011000Y-64861201D03*
X88011000Y-67401201D03*
X88011000Y-69941201D03*
X88011000Y-72481201D03*
X88011000Y-75021201D03*
D12*
X88011000Y-77561201D03*
D10*
%TO.P,J2,11,Pin_11*%
%TO.N,Net-(J11-Pin_11)*%
X90551000Y-59781201D03*
D11*
X90551000Y-62321201D03*
X90551000Y-64861201D03*
X90551000Y-67401201D03*
X90551000Y-69941201D03*
X90551000Y-72481201D03*
X90551000Y-75021201D03*
D12*
X90551000Y-77561201D03*
D10*
%TO.P,J2,12,Pin_12*%
%TO.N,Net-(J11-Pin_12)*%
X93091000Y-59781201D03*
D11*
X93091000Y-62321201D03*
X93091000Y-64861201D03*
X93091000Y-67401201D03*
X93091000Y-69941201D03*
X93091000Y-72481201D03*
X93091000Y-75021201D03*
D12*
X93091000Y-77561201D03*
D10*
%TO.P,J2,13,Pin_13*%
%TO.N,Net-(J11-Pin_13)*%
X95631000Y-59781201D03*
D11*
X95631000Y-62321201D03*
X95631000Y-64861201D03*
X95631000Y-67401201D03*
X95631000Y-69941201D03*
X95631000Y-72481201D03*
X95631000Y-75021201D03*
D12*
X95631000Y-77561201D03*
D10*
%TO.P,J2,14,Pin_14*%
%TO.N,Net-(J11-Pin_14)*%
X98171000Y-59781201D03*
D11*
X98171000Y-62321201D03*
X98171000Y-64861201D03*
X98171000Y-67401201D03*
X98171000Y-69941201D03*
X98171000Y-72481201D03*
X98171000Y-75021201D03*
D12*
X98171000Y-77561201D03*
D10*
%TO.P,J2,15,Pin_15*%
%TO.N,Net-(J11-Pin_15)*%
X100711000Y-59781201D03*
D11*
X100711000Y-62321201D03*
X100711000Y-64861201D03*
X100711000Y-67401201D03*
X100711000Y-69941201D03*
X100711000Y-72481201D03*
X100711000Y-75021201D03*
D12*
X100711000Y-77561201D03*
D10*
%TO.P,J2,16,Pin_16*%
%TO.N,Net-(J11-Pin_16)*%
X103251000Y-59781201D03*
D11*
X103251000Y-62321201D03*
X103251000Y-64861201D03*
X103251000Y-67401201D03*
X103251000Y-69941201D03*
X103251000Y-72481201D03*
X103251000Y-75021201D03*
D12*
X103251000Y-77561201D03*
D10*
%TO.P,J2,17,Pin_17*%
%TO.N,Net-(J11-Pin_17)*%
X105791000Y-59781201D03*
D11*
X105791000Y-62321201D03*
X105791000Y-64861201D03*
X105791000Y-67401201D03*
X105791000Y-69941201D03*
X105791000Y-72481201D03*
X105791000Y-75021201D03*
D12*
X105791000Y-77561201D03*
D10*
%TO.P,J2,18,Pin_18*%
%TO.N,Net-(J11-Pin_18)*%
X108331000Y-59781201D03*
D11*
X108331000Y-62321201D03*
X108331000Y-64861201D03*
X108331000Y-67401201D03*
X108331000Y-69941201D03*
X108331000Y-72481201D03*
X108331000Y-75021201D03*
D12*
X108331000Y-77561201D03*
D10*
%TO.P,J2,19,Pin_19*%
%TO.N,Net-(J11-Pin_19)*%
X110871000Y-59781201D03*
D11*
X110871000Y-62321201D03*
X110871000Y-64861201D03*
X110871000Y-67401201D03*
X110871000Y-69941201D03*
X110871000Y-72481201D03*
X110871000Y-75021201D03*
D12*
X110871000Y-77561201D03*
D10*
%TO.P,J2,20,Pin_20*%
%TO.N,Net-(J11-Pin_20)*%
X113411000Y-59781201D03*
D11*
X113411000Y-62321201D03*
X113411000Y-64861201D03*
X113411000Y-67401201D03*
X113411000Y-69941201D03*
X113411000Y-72481201D03*
X113411000Y-75021201D03*
D12*
X113411000Y-77561201D03*
D10*
%TO.P,J2,21,Pin_21*%
%TO.N,Net-(J11-Pin_21)*%
X115951000Y-59781201D03*
D11*
X115951000Y-62321201D03*
X115951000Y-64861201D03*
X115951000Y-67401201D03*
X115951000Y-69941201D03*
X115951000Y-72481201D03*
X115951000Y-75021201D03*
D12*
X115951000Y-77561201D03*
D10*
%TO.P,J2,22,Pin_22*%
%TO.N,Net-(J11-Pin_22)*%
X118491000Y-59781201D03*
D11*
X118491000Y-62321201D03*
X118491000Y-64861201D03*
X118491000Y-67401201D03*
X118491000Y-69941201D03*
X118491000Y-72481201D03*
X118491000Y-75021201D03*
D12*
X118491000Y-77561201D03*
D10*
%TO.P,J2,23,Pin_23*%
%TO.N,Net-(J11-Pin_23)*%
X121031000Y-59781201D03*
D11*
X121031000Y-62321201D03*
X121031000Y-64861201D03*
X121031000Y-67401201D03*
X121031000Y-69941201D03*
X121031000Y-72481201D03*
X121031000Y-75021201D03*
D12*
X121031000Y-77561201D03*
D10*
%TO.P,J2,24,Pin_24*%
%TO.N,Net-(J11-Pin_24)*%
X123571000Y-59781201D03*
D11*
X123571000Y-62321201D03*
X123571000Y-64861201D03*
X123571000Y-67401201D03*
X123571000Y-69941201D03*
X123571000Y-72481201D03*
X123571000Y-75021201D03*
D12*
X123571000Y-77561201D03*
D10*
%TO.P,J2,25,Pin_25*%
%TO.N,Net-(J11-Pin_25)*%
X126111000Y-59781201D03*
D11*
X126111000Y-62321201D03*
X126111000Y-64861201D03*
X126111000Y-67401201D03*
X126111000Y-69941201D03*
X126111000Y-72481201D03*
X126111000Y-75021201D03*
D12*
X126111000Y-77561201D03*
D10*
%TO.P,J2,26,Pin_26*%
%TO.N,Net-(J11-Pin_26)*%
X128651000Y-59781201D03*
D11*
X128651000Y-62321201D03*
X128651000Y-64861201D03*
X128651000Y-67401201D03*
X128651000Y-69941201D03*
X128651000Y-72481201D03*
X128651000Y-75021201D03*
D12*
X128651000Y-77561201D03*
D10*
%TO.P,J2,27,Pin_27*%
%TO.N,Net-(J11-Pin_27)*%
X131191000Y-59781201D03*
D11*
X131191000Y-62321201D03*
X131191000Y-64861201D03*
X131191000Y-67401201D03*
X131191000Y-69941201D03*
X131191000Y-72481201D03*
X131191000Y-75021201D03*
D12*
X131191000Y-77561201D03*
D10*
%TO.P,J2,28,Pin_28*%
%TO.N,Net-(J11-Pin_28)*%
X133731000Y-59781201D03*
D11*
X133731000Y-62321201D03*
X133731000Y-64861201D03*
X133731000Y-67401201D03*
X133731000Y-69941201D03*
X133731000Y-72481201D03*
X133731000Y-75021201D03*
D12*
X133731000Y-77561201D03*
D10*
%TO.P,J2,29,Pin_29*%
%TO.N,Net-(J11-Pin_29)*%
X136271000Y-59781201D03*
D11*
X136271000Y-62321201D03*
X136271000Y-64861201D03*
X136271000Y-67401201D03*
X136271000Y-69941201D03*
X136271000Y-72481201D03*
X136271000Y-75021201D03*
D12*
X136271000Y-77561201D03*
D10*
%TO.P,J2,30,Pin_30*%
%TO.N,Net-(J11-Pin_30)*%
X138811000Y-59781201D03*
D11*
X138811000Y-62321201D03*
X138811000Y-64861201D03*
X138811000Y-67401201D03*
X138811000Y-69941201D03*
X138811000Y-72481201D03*
X138811000Y-75021201D03*
D12*
X138811000Y-77561201D03*
%TD*%
D13*
%TO.P,TP24,1,1*%
%TO.N,TOP_POS*%
X65151000Y-31826200D03*
X67691000Y-31826200D03*
X70231000Y-31826200D03*
X72771000Y-31826200D03*
X77851000Y-31826200D03*
X80391000Y-31826200D03*
X82931000Y-31826200D03*
X85471000Y-31826200D03*
X90551000Y-31826200D03*
X93091000Y-31826200D03*
X95631000Y-31826200D03*
X98171000Y-31826200D03*
X103251000Y-31826200D03*
X105791000Y-31826200D03*
X108331000Y-31826200D03*
X110871000Y-31826200D03*
X115951000Y-31826200D03*
X118491000Y-31826200D03*
X121031000Y-31826200D03*
X123571000Y-31826200D03*
X128651000Y-31826200D03*
X131191000Y-31826200D03*
X133731000Y-31826200D03*
X136271000Y-31826200D03*
%TD*%
%TO.P,TP26,1,1*%
%TO.N,TOP_NEG*%
X65151000Y-34366200D03*
X67691000Y-34366200D03*
X70231000Y-34366200D03*
X72771000Y-34366200D03*
X77851000Y-34366200D03*
X80391000Y-34366200D03*
X82931000Y-34366200D03*
X85471000Y-34366200D03*
X90551000Y-34366200D03*
X93091000Y-34366200D03*
X95631000Y-34366200D03*
X98171000Y-34366200D03*
X103251000Y-34366200D03*
X105791000Y-34366200D03*
X108331000Y-34366200D03*
X110871000Y-34366200D03*
X115951000Y-34366200D03*
X118491000Y-34366200D03*
X121031000Y-34366200D03*
X123571000Y-34366200D03*
X128651000Y-34366200D03*
X131191000Y-34366200D03*
X133731000Y-34366200D03*
X136271000Y-34366200D03*
%TD*%
%TO.P,TP28,1,1*%
%TO.N,BOT_POS*%
X65151000Y-82626200D03*
X67691000Y-82626200D03*
X70231000Y-82626200D03*
X72771000Y-82626200D03*
X77851000Y-82626200D03*
X80391000Y-82626200D03*
X82931000Y-82626200D03*
X85471000Y-82626200D03*
X90551000Y-82626200D03*
X93091000Y-82626200D03*
X95631000Y-82626200D03*
X98171000Y-82626200D03*
X103251000Y-82626200D03*
X105791000Y-82626200D03*
X108331000Y-82626200D03*
X110871000Y-82626200D03*
X115951000Y-82626200D03*
X118491000Y-82626200D03*
X121031000Y-82626200D03*
X123571000Y-82626200D03*
X128651000Y-82626200D03*
X131191000Y-82626200D03*
X133731000Y-82626200D03*
X136271000Y-82626200D03*
%TD*%
%TO.P,TP30,1,1*%
%TO.N,BOT_NEG*%
X65151000Y-85166200D03*
X67691000Y-85166200D03*
X70231000Y-85166200D03*
X72771000Y-85166200D03*
X77851000Y-85166200D03*
X80391000Y-85166200D03*
X82931000Y-85166200D03*
X85471000Y-85166200D03*
X90551000Y-85166200D03*
X93091000Y-85166200D03*
X95631000Y-85166200D03*
X98171000Y-85166200D03*
X103251000Y-85166200D03*
X105791000Y-85166200D03*
X108331000Y-85166200D03*
X110871000Y-85166200D03*
X115951000Y-85166200D03*
X118491000Y-85166200D03*
X121031000Y-85166200D03*
X123571000Y-85166200D03*
X128651000Y-85166200D03*
X131191000Y-85166200D03*
X133731000Y-85166200D03*
X136271000Y-85166200D03*
%TD*%
D14*
%TO.P,J11,31,Pin_31*%
%TO.N,Net-(J1-Pin_1)*%
X84175600Y-22453600D03*
%TO.P,J11,32,Pin_32*%
%TO.N,Net-(J1-Pin_2)*%
X85445600Y-22453600D03*
%TO.P,J11,33,Pin_33*%
%TO.N,Net-(J1-Pin_3)*%
X86715600Y-22453600D03*
%TO.P,J11,34,Pin_34*%
%TO.N,Net-(J1-Pin_4)*%
X87985600Y-22453600D03*
%TO.P,J11,35,Pin_35*%
%TO.N,Net-(J1-Pin_5)*%
X89255600Y-22453600D03*
%TO.P,J11,36,Pin_36*%
%TO.N,Net-(J1-Pin_6)*%
X90525600Y-22453600D03*
%TO.P,J11,37,Pin_37*%
%TO.N,Net-(J1-Pin_7)*%
X91795600Y-22453600D03*
%TO.P,J11,38,Pin_38*%
%TO.N,Net-(J1-Pin_8)*%
X93065600Y-22453600D03*
%TO.P,J11,39,Pin_39*%
%TO.N,Net-(J1-Pin_9)*%
X94335600Y-22453600D03*
%TO.P,J11,40,Pin_40*%
%TO.N,Net-(J1-Pin_10)*%
X95605600Y-22453600D03*
%TO.P,J11,41,Pin_41*%
%TO.N,Net-(J1-Pin_11)*%
X96875600Y-22453600D03*
%TO.P,J11,42,Pin_42*%
%TO.N,Net-(J1-Pin_12)*%
X98145600Y-22453600D03*
%TO.P,J11,43,Pin_43*%
%TO.N,Net-(J1-Pin_13)*%
X99415600Y-22453600D03*
%TO.P,J11,44,Pin_44*%
%TO.N,Net-(J1-Pin_14)*%
X100685600Y-22453600D03*
%TO.P,J11,45,Pin_45*%
%TO.N,Net-(J1-Pin_15)*%
X101955600Y-22453600D03*
%TO.P,J11,46,Pin_46*%
%TO.N,Net-(J1-Pin_16)*%
X103225600Y-22453600D03*
%TO.P,J11,47,Pin_47*%
%TO.N,Net-(J1-Pin_17)*%
X104495600Y-22453600D03*
%TO.P,J11,48,Pin_48*%
%TO.N,Net-(J1-Pin_18)*%
X105765600Y-22453600D03*
%TO.P,J11,49,Pin_49*%
%TO.N,Net-(J1-Pin_19)*%
X107035600Y-22453600D03*
%TO.P,J11,50,Pin_50*%
%TO.N,Net-(J1-Pin_20)*%
X108305600Y-22453600D03*
%TO.P,J11,51,Pin_51*%
%TO.N,Net-(J1-Pin_21)*%
X109575600Y-22453600D03*
%TO.P,J11,52,Pin_52*%
%TO.N,Net-(J1-Pin_22)*%
X110845600Y-22453600D03*
%TO.P,J11,53,Pin_53*%
%TO.N,Net-(J1-Pin_23)*%
X112115600Y-22453600D03*
%TO.P,J11,54,Pin_54*%
%TO.N,Net-(J1-Pin_24)*%
X113385600Y-22453600D03*
%TO.P,J11,55,Pin_55*%
%TO.N,Net-(J1-Pin_25)*%
X114655600Y-22453600D03*
%TO.P,J11,56,Pin_56*%
%TO.N,Net-(J1-Pin_26)*%
X115925600Y-22453600D03*
%TO.P,J11,57,Pin_57*%
%TO.N,Net-(J1-Pin_27)*%
X117195600Y-22453600D03*
%TO.P,J11,58,Pin_58*%
%TO.N,Net-(J1-Pin_28)*%
X118465600Y-22453600D03*
%TO.P,J11,59,Pin_59*%
%TO.N,Net-(J1-Pin_29)*%
X119735600Y-22453600D03*
%TO.P,J11,60,Pin_60*%
%TO.N,Net-(J1-Pin_30)*%
X121005600Y-22453600D03*
%TO.P,J11,63,Pin_63*%
%TO.N,TOP_POS*%
X122275600Y-22453600D03*
%TO.P,J11,64,Pin_64*%
%TO.N,TOP_NEG*%
X123545600Y-22453600D03*
%TO.P,J11,65,Pin_65*%
%TO.N,LED_GND*%
X80365600Y-22453600D03*
%TO.P,J11,66,Pin_66*%
%TO.N,LED_DATA_OUT*%
X81635600Y-22453600D03*
%TO.P,J11,67,Pin_67*%
%TO.N,LED_5V*%
X82905600Y-22453600D03*
%TD*%
D15*
%TO.P,J12,31,Pin_31*%
%TO.N,Net-(J1-Pin_1)*%
X84201000Y-94488000D03*
%TO.P,J12,32,Pin_32*%
%TO.N,Net-(J1-Pin_2)*%
X85471000Y-94488000D03*
%TO.P,J12,33,Pin_33*%
%TO.N,Net-(J1-Pin_3)*%
X86741000Y-94488000D03*
%TO.P,J12,34,Pin_34*%
%TO.N,Net-(J1-Pin_4)*%
X88011000Y-94488000D03*
%TO.P,J12,35,Pin_35*%
%TO.N,Net-(J1-Pin_5)*%
X89281000Y-94488000D03*
%TO.P,J12,36,Pin_36*%
%TO.N,Net-(J1-Pin_6)*%
X90551000Y-94488000D03*
%TO.P,J12,37,Pin_37*%
%TO.N,Net-(J1-Pin_7)*%
X91821000Y-94488000D03*
%TO.P,J12,38,Pin_38*%
%TO.N,Net-(J1-Pin_8)*%
X93091000Y-94488000D03*
%TO.P,J12,39,Pin_39*%
%TO.N,Net-(J1-Pin_9)*%
X94361000Y-94488000D03*
%TO.P,J12,40,Pin_40*%
%TO.N,Net-(J1-Pin_10)*%
X95631000Y-94488000D03*
%TO.P,J12,41,Pin_41*%
%TO.N,Net-(J1-Pin_11)*%
X96901000Y-94488000D03*
%TO.P,J12,42,Pin_42*%
%TO.N,Net-(J1-Pin_12)*%
X98171000Y-94488000D03*
%TO.P,J12,43,Pin_43*%
%TO.N,Net-(J1-Pin_13)*%
X99441000Y-94488000D03*
%TO.P,J12,44,Pin_44*%
%TO.N,Net-(J1-Pin_14)*%
X100711000Y-94488000D03*
%TO.P,J12,45,Pin_45*%
%TO.N,Net-(J1-Pin_15)*%
X101981000Y-94488000D03*
%TO.P,J12,46,Pin_46*%
%TO.N,Net-(J1-Pin_16)*%
X103251000Y-94488000D03*
%TO.P,J12,47,Pin_47*%
%TO.N,Net-(J1-Pin_17)*%
X104521000Y-94488000D03*
%TO.P,J12,48,Pin_48*%
%TO.N,Net-(J1-Pin_18)*%
X105791000Y-94488000D03*
%TO.P,J12,49,Pin_49*%
%TO.N,Net-(J1-Pin_19)*%
X107061000Y-94488000D03*
%TO.P,J12,50,Pin_50*%
%TO.N,Net-(J1-Pin_20)*%
X108331000Y-94488000D03*
%TO.P,J12,51,Pin_51*%
%TO.N,Net-(J1-Pin_21)*%
X109601000Y-94488000D03*
%TO.P,J12,52,Pin_52*%
%TO.N,Net-(J1-Pin_22)*%
X110871000Y-94488000D03*
%TO.P,J12,53,Pin_53*%
%TO.N,Net-(J1-Pin_23)*%
X112141000Y-94488000D03*
%TO.P,J12,54,Pin_54*%
%TO.N,Net-(J1-Pin_24)*%
X113411000Y-94488000D03*
%TO.P,J12,55,Pin_55*%
%TO.N,Net-(J1-Pin_25)*%
X114681000Y-94488000D03*
%TO.P,J12,56,Pin_56*%
%TO.N,Net-(J1-Pin_26)*%
X115951000Y-94488000D03*
%TO.P,J12,57,Pin_57*%
%TO.N,Net-(J1-Pin_27)*%
X117221000Y-94488000D03*
%TO.P,J12,58,Pin_58*%
%TO.N,Net-(J1-Pin_28)*%
X118491000Y-94488000D03*
%TO.P,J12,59,Pin_59*%
%TO.N,Net-(J1-Pin_29)*%
X119761000Y-94488000D03*
%TO.P,J12,60,Pin_60*%
%TO.N,Net-(J1-Pin_30)*%
X121031000Y-94488000D03*
%TO.P,J12,63,Pin_63*%
%TO.N,TOP_POS*%
X122301000Y-94488000D03*
%TO.P,J12,64,Pin_64*%
%TO.N,TOP_NEG*%
X123571000Y-94488000D03*
%TO.P,J12,65,Pin_65*%
%TO.N,LED_GND*%
X80391000Y-94488000D03*
%TO.P,J12,66,Pin_66*%
%TO.N,LED_DATA_OUT*%
X81661000Y-94488000D03*
%TO.P,J12,67,Pin_67*%
%TO.N,LED_5V*%
X82931000Y-94488000D03*
%TD*%
D16*
%TO.N,TOP_POS*%
X122377200Y-26466800D03*
X122171876Y-90424000D03*
%TO.N,TOP_NEG*%
X123625775Y-90255000D03*
X123823002Y-25996390D03*
%TO.N,BOT_POS*%
X121583225Y-91219751D03*
X121706041Y-25928863D03*
%TO.N,BOT_NEG*%
X123148002Y-26551566D03*
X122969024Y-90931998D03*
%TO.N,LED_GND*%
X80518000Y-26289000D03*
X80391000Y-91059000D03*
%TO.N,LED_DATA_OUT*%
X82129000Y-90424000D03*
X82296000Y-26162000D03*
%TO.N,LED_5V*%
X82931000Y-91186000D03*
X83058000Y-25654000D03*
%TO.N,LED_DATA_IN*%
X81501202Y-26321798D03*
X81133572Y-90470758D03*
%TD*%
D17*
%TO.N,Net-(J1-Pin_30)*%
X140036000Y-86278000D02*
X136684000Y-89630000D01*
X120904000Y-90671980D02*
X120904000Y-94361000D01*
X120904000Y-94361000D02*
X121031000Y-94488000D01*
X138811000Y-57277000D02*
X140036000Y-58502000D01*
X136684000Y-89630000D02*
X121945980Y-89630000D01*
X138811000Y-57241201D02*
X138811000Y-57277000D01*
X140036000Y-58502000D02*
X140036000Y-86278000D01*
X121945980Y-89630000D02*
X120904000Y-90671980D01*
X122174000Y-27432000D02*
X135382000Y-27432000D01*
X121031000Y-26289000D02*
X122174000Y-27432000D01*
X121107200Y-22453600D02*
X121031000Y-22529800D01*
X135382000Y-27432000D02*
X138811000Y-30861000D01*
X121031000Y-22529800D02*
X121031000Y-26289000D01*
X138811000Y-30861000D02*
X138811000Y-39461201D01*
%TO.N,Net-(J1-Pin_29)*%
X121666251Y-89130000D02*
X119761000Y-91035251D01*
X136271000Y-57396044D02*
X137496000Y-58621044D01*
X136271000Y-57241201D02*
X136271000Y-57396044D01*
X137496000Y-86786000D02*
X135152000Y-89130000D01*
X135152000Y-89130000D02*
X121666251Y-89130000D01*
X137496000Y-58621044D02*
X137496000Y-86786000D01*
X119761000Y-91035251D02*
X119761000Y-94488000D01*
X135128000Y-30988000D02*
X132072000Y-27932000D01*
X119761000Y-22529800D02*
X119837200Y-22453600D01*
X119761000Y-25726107D02*
X119761000Y-22529800D01*
X121966893Y-27932000D02*
X119761000Y-25726107D01*
X135128000Y-38318201D02*
X135128000Y-30988000D01*
X136271000Y-39461201D02*
X135128000Y-38318201D01*
X132072000Y-27932000D02*
X121966893Y-27932000D01*
%TO.N,Net-(J1-Pin_28)*%
X133731000Y-57436916D02*
X134956000Y-58661916D01*
X121301000Y-88630000D02*
X118491000Y-91440000D01*
X133731000Y-57241201D02*
X133731000Y-57436916D01*
X132096000Y-88630000D02*
X121301000Y-88630000D01*
X118491000Y-91440000D02*
X118491000Y-94488000D01*
X134956000Y-85770000D02*
X132096000Y-88630000D01*
X134956000Y-58661916D02*
X134956000Y-85770000D01*
X118567200Y-24434800D02*
X118567200Y-22453600D01*
X118491000Y-24511000D02*
X118567200Y-24434800D01*
X121692800Y-28432000D02*
X118491000Y-25230200D01*
X130032000Y-28432000D02*
X121692800Y-28432000D01*
X132588000Y-30988000D02*
X130032000Y-28432000D01*
X133731000Y-39461201D02*
X132588000Y-38318201D01*
X132588000Y-38318201D02*
X132588000Y-30988000D01*
X118491000Y-25230200D02*
X118491000Y-24511000D01*
%TO.N,Net-(J1-Pin_27)*%
X131191000Y-57404279D02*
X132461000Y-58674279D01*
X130014319Y-88130000D02*
X120785000Y-88130000D01*
X132461000Y-85683319D02*
X130014319Y-88130000D01*
X120785000Y-88130000D02*
X117221000Y-91694000D01*
X131191000Y-57241201D02*
X131191000Y-57404279D01*
X117221000Y-91694000D02*
X117221000Y-94488000D01*
X132461000Y-58674279D02*
X132461000Y-85683319D01*
X129794000Y-38064201D02*
X129794000Y-30988000D01*
X117221000Y-25019000D02*
X117221000Y-22529800D01*
X129794000Y-30988000D02*
X127738000Y-28932000D01*
X119364000Y-27162000D02*
X117221000Y-25019000D01*
X117221000Y-22529800D02*
X117297200Y-22453600D01*
X119715694Y-27162000D02*
X119364000Y-27162000D01*
X131191000Y-39461201D02*
X129794000Y-38064201D01*
X121485694Y-28932000D02*
X119715694Y-27162000D01*
X127738000Y-28932000D02*
X121485694Y-28932000D01*
%TO.N,Net-(J1-Pin_26)*%
X115951000Y-91821000D02*
X115951000Y-94488000D01*
X127762000Y-87630000D02*
X120142000Y-87630000D01*
X129901214Y-85490786D02*
X127762000Y-87630000D01*
X128651000Y-57241201D02*
X128651000Y-57404279D01*
X129901214Y-58654493D02*
X129901214Y-85490786D01*
X120142000Y-87630000D02*
X115951000Y-91821000D01*
X128651000Y-57404279D02*
X129901214Y-58654493D01*
X127508000Y-30988000D02*
X125952000Y-29432000D01*
X121278588Y-29432000D02*
X119524588Y-27678000D01*
X128651000Y-39461201D02*
X127508000Y-38318201D01*
X127508000Y-38318201D02*
X127508000Y-30988000D01*
X125952000Y-29432000D02*
X121278588Y-29432000D01*
X119524588Y-27678000D02*
X118610000Y-27678000D01*
X115951000Y-25019000D02*
X115951000Y-22529800D01*
X118610000Y-27678000D02*
X115951000Y-25019000D01*
X115951000Y-22529800D02*
X116027200Y-22453600D01*
%TO.N,Net-(J1-Pin_25)*%
X126111000Y-57404279D02*
X127344230Y-58637509D01*
X114681000Y-91821000D02*
X114681000Y-94488000D01*
X119934894Y-87130000D02*
X118469694Y-88595200D01*
X117906800Y-88595200D02*
X114681000Y-91821000D01*
X127344230Y-85253770D02*
X125468000Y-87130000D01*
X126111000Y-57241201D02*
X126111000Y-57404279D01*
X125468000Y-87130000D02*
X119934894Y-87130000D01*
X118469694Y-88595200D02*
X117906800Y-88595200D01*
X127344230Y-58637509D02*
X127344230Y-85253770D01*
X121071482Y-29932000D02*
X119317482Y-28178000D01*
X117840000Y-28178000D02*
X114681000Y-25019000D01*
X126111000Y-31115000D02*
X124928000Y-29932000D01*
X119317482Y-28178000D02*
X117840000Y-28178000D01*
X126111000Y-39461201D02*
X126111000Y-31115000D01*
X114681000Y-22529800D02*
X114757200Y-22453600D01*
X114681000Y-25019000D02*
X114681000Y-22529800D01*
X124928000Y-29932000D02*
X121071482Y-29932000D01*
%TO.N,Net-(J1-Pin_24)*%
X123571000Y-57404279D02*
X124804230Y-58637509D01*
X124804230Y-58637509D02*
X124804230Y-85507770D01*
X117237000Y-87995000D02*
X113411000Y-91821000D01*
X119727788Y-86630000D02*
X118362788Y-87995000D01*
X118362788Y-87995000D02*
X117237000Y-87995000D01*
X124804230Y-85507770D02*
X123682000Y-86630000D01*
X123571000Y-57241201D02*
X123571000Y-57404279D01*
X113411000Y-91821000D02*
X113411000Y-94488000D01*
X123682000Y-86630000D02*
X119727788Y-86630000D01*
X123571000Y-39461201D02*
X123606799Y-39461201D01*
X124714000Y-31214553D02*
X123931447Y-30432000D01*
X120864376Y-30432000D02*
X119110376Y-28678000D01*
X113411000Y-22529800D02*
X113487200Y-22453600D01*
X123931447Y-30432000D02*
X120864376Y-30432000D01*
X117124893Y-28678000D02*
X113411000Y-24964107D01*
X113411000Y-24964107D02*
X113411000Y-22529800D01*
X124714000Y-38354000D02*
X124714000Y-31214553D01*
X119110376Y-28678000D02*
X117124893Y-28678000D01*
X123606799Y-39461201D02*
X124714000Y-38354000D01*
%TO.N,Net-(J1-Pin_23)*%
X116586000Y-87376000D02*
X112141000Y-91821000D01*
X121031000Y-57404279D02*
X122255201Y-58628480D01*
X121319144Y-86130000D02*
X119520682Y-86130000D01*
X121031000Y-57241201D02*
X121031000Y-57404279D01*
X118274682Y-87376000D02*
X116586000Y-87376000D01*
X112141000Y-91821000D02*
X112141000Y-94488000D01*
X122255201Y-58628480D02*
X122255201Y-85193943D01*
X119520682Y-86130000D02*
X118274682Y-87376000D01*
X122255201Y-85193943D02*
X121319144Y-86130000D01*
X121486252Y-30932000D02*
X120657270Y-30932000D01*
X121031000Y-39461201D02*
X122174000Y-38318201D01*
X112141000Y-22529800D02*
X112217200Y-22453600D01*
X118903270Y-29178000D02*
X116100893Y-29178000D01*
X122174000Y-31619748D02*
X121486252Y-30932000D01*
X112141000Y-25218107D02*
X112141000Y-22529800D01*
X116100893Y-29178000D02*
X112141000Y-25218107D01*
X122174000Y-38318201D02*
X122174000Y-31619748D01*
X120657270Y-30932000D02*
X118903270Y-29178000D01*
%TO.N,Net-(J1-Pin_22)*%
X119716000Y-85227576D02*
X118177176Y-86766400D01*
X119716000Y-58661916D02*
X119716000Y-85227576D01*
X118177176Y-86766400D02*
X115925600Y-86766400D01*
X118491000Y-57436916D02*
X119716000Y-58661916D01*
X110871000Y-91821000D02*
X110871000Y-94488000D01*
X118491000Y-57241201D02*
X118491000Y-57436916D01*
X115925600Y-86766400D02*
X110871000Y-91821000D01*
X119634000Y-38318201D02*
X119634000Y-30734000D01*
X110871000Y-22529800D02*
X110947200Y-22453600D01*
X110871000Y-25273000D02*
X110871000Y-22529800D01*
X119634000Y-30734000D02*
X118578000Y-29678000D01*
X118578000Y-29678000D02*
X115276000Y-29678000D01*
X115276000Y-29678000D02*
X110871000Y-25273000D01*
X118491000Y-39461201D02*
X119634000Y-38318201D01*
%TO.N,Net-(J1-Pin_21)*%
X115181000Y-86241000D02*
X109601000Y-91821000D01*
X115951000Y-57241201D02*
X115951000Y-57404279D01*
X117184230Y-85634770D02*
X116578000Y-86241000D01*
X115951000Y-57404279D02*
X117184230Y-58637509D01*
X117184230Y-58637509D02*
X117184230Y-85634770D01*
X116578000Y-86241000D02*
X115181000Y-86241000D01*
X109601000Y-91821000D02*
X109601000Y-94488000D01*
X109601000Y-22529800D02*
X109677200Y-22453600D01*
X117094000Y-38318201D02*
X117094000Y-30768427D01*
X114554000Y-30226000D02*
X109601000Y-25273000D01*
X117094000Y-30768427D02*
X116551573Y-30226000D01*
X116551573Y-30226000D02*
X114554000Y-30226000D01*
X109601000Y-25273000D02*
X109601000Y-22529800D01*
X115951000Y-39461201D02*
X117094000Y-38318201D01*
%TO.N,Net-(J1-Pin_20)*%
X114636000Y-59010000D02*
X114636000Y-85516000D01*
X113411000Y-57241201D02*
X113411000Y-57869500D01*
X114636000Y-85516000D02*
X108331000Y-91821000D01*
X114070290Y-58444290D02*
X114636000Y-59010000D01*
X113411000Y-57869500D02*
X113985790Y-58444290D01*
X113985790Y-58444290D02*
X114070290Y-58444290D01*
X108331000Y-91821000D02*
X108331000Y-94488000D01*
X114554000Y-31496000D02*
X108331000Y-25273000D01*
X108331000Y-25273000D02*
X108331000Y-22529800D01*
X108331000Y-22529800D02*
X108407200Y-22453600D01*
X114554000Y-38354000D02*
X114554000Y-31496000D01*
X113446799Y-39461201D02*
X114554000Y-38354000D01*
X113411000Y-39461201D02*
X113446799Y-39461201D01*
%TO.N,Net-(J1-Pin_19)*%
X110871000Y-57241201D02*
X110871000Y-57404279D01*
X112096000Y-58629279D02*
X112096000Y-86786000D01*
X112096000Y-86786000D02*
X107061000Y-91821000D01*
X110871000Y-57404279D02*
X112096000Y-58629279D01*
X107061000Y-91821000D02*
X107061000Y-94488000D01*
X112014000Y-30226000D02*
X107061000Y-25273000D01*
X107061000Y-25273000D02*
X107061000Y-22529800D01*
X110871000Y-39461201D02*
X112014000Y-38318201D01*
X107061000Y-22529800D02*
X107137200Y-22453600D01*
X112014000Y-38318201D02*
X112014000Y-30226000D01*
%TO.N,Net-(J1-Pin_18)*%
X109646000Y-58708035D02*
X109646000Y-87966000D01*
X109646000Y-87966000D02*
X105791000Y-91821000D01*
X108331000Y-57393035D02*
X109646000Y-58708035D01*
X108331000Y-57241201D02*
X108331000Y-57393035D01*
X105791000Y-91821000D02*
X105791000Y-94488000D01*
X108331000Y-39461201D02*
X109474000Y-38318201D01*
X105791000Y-22529800D02*
X105867200Y-22453600D01*
X109474000Y-28956000D02*
X105791000Y-25273000D01*
X109474000Y-38318201D02*
X109474000Y-28956000D01*
X105791000Y-25273000D02*
X105791000Y-22529800D01*
%TO.N,Net-(J1-Pin_17)*%
X105791000Y-57241201D02*
X105791000Y-57404279D01*
X107016000Y-89326000D02*
X104521000Y-91821000D01*
X105791000Y-57404279D02*
X107016000Y-58629279D01*
X104521000Y-91821000D02*
X104521000Y-94488000D01*
X107016000Y-58629279D02*
X107016000Y-89326000D01*
X106934000Y-27686000D02*
X104521000Y-25273000D01*
X106934000Y-38318201D02*
X106934000Y-27686000D01*
X104521000Y-22529800D02*
X104597200Y-22453600D01*
X104521000Y-25273000D02*
X104521000Y-22529800D01*
X105791000Y-39461201D02*
X106934000Y-38318201D01*
%TO.N,Net-(J1-Pin_16)*%
X103251000Y-57869500D02*
X103825790Y-58444290D01*
X103251000Y-57241201D02*
X103251000Y-57869500D01*
X104476000Y-90596000D02*
X103251000Y-91821000D01*
X103825790Y-58444290D02*
X103887727Y-58472945D01*
X104100338Y-58634567D02*
X104476000Y-59010229D01*
X103251000Y-91821000D02*
X103251000Y-94488000D01*
X104476000Y-59010229D02*
X104476000Y-90596000D01*
X103887727Y-58472945D02*
X104100338Y-58634567D01*
X103251000Y-25273000D02*
X103251000Y-22529800D01*
X103251000Y-39461201D02*
X104394000Y-38318201D01*
X104394000Y-26416000D02*
X103251000Y-25273000D01*
X103251000Y-22529800D02*
X103327200Y-22453600D01*
X104394000Y-38318201D02*
X104394000Y-26416000D01*
%TO.N,Net-(J1-Pin_15)*%
X100711000Y-57241201D02*
X100711000Y-57404279D01*
X100711000Y-57404279D02*
X101981000Y-58674279D01*
X101981000Y-58674279D02*
X101981000Y-94488000D01*
X100711000Y-39461201D02*
X101981000Y-38191201D01*
X101981000Y-38191201D02*
X101981000Y-22529800D01*
X101981000Y-22529800D02*
X102057200Y-22453600D01*
%TO.N,Net-(J1-Pin_14)*%
X98171000Y-57241201D02*
X98171000Y-57404279D01*
X99396000Y-90506000D02*
X100711000Y-91821000D01*
X100711000Y-91821000D02*
X100711000Y-94488000D01*
X98171000Y-57404279D02*
X99396000Y-58629279D01*
X99396000Y-58629279D02*
X99396000Y-90506000D01*
X99314000Y-38318201D02*
X99314000Y-26670000D01*
X100711000Y-25273000D02*
X100711000Y-22529800D01*
X100711000Y-22529800D02*
X100787200Y-22453600D01*
X98171000Y-39461201D02*
X99314000Y-38318201D01*
X99314000Y-26670000D02*
X100711000Y-25273000D01*
%TO.N,Net-(J1-Pin_13)*%
X99441000Y-91694000D02*
X99441000Y-94488000D01*
X95631000Y-57404279D02*
X96893000Y-58666279D01*
X96893000Y-58666279D02*
X96893000Y-89146000D01*
X96893000Y-89146000D02*
X99441000Y-91694000D01*
X95631000Y-57241201D02*
X95631000Y-57404279D01*
X99441000Y-22529800D02*
X99517200Y-22453600D01*
X99441000Y-25273000D02*
X99441000Y-22529800D01*
X96774000Y-27940000D02*
X99441000Y-25273000D01*
X95631000Y-39461201D02*
X96774000Y-38318201D01*
X96774000Y-38318201D02*
X96774000Y-27940000D01*
%TO.N,Net-(J1-Pin_12)*%
X93091000Y-57241201D02*
X93091000Y-57396044D01*
X93091000Y-57396044D02*
X94316000Y-58621044D01*
X94316000Y-58621044D02*
X94316000Y-87712000D01*
X98171000Y-91567000D02*
X98171000Y-94488000D01*
X94316000Y-87712000D02*
X98171000Y-91567000D01*
X93091000Y-39461201D02*
X94488000Y-38064201D01*
X98171000Y-25273000D02*
X98171000Y-22529800D01*
X94488000Y-38064201D02*
X94488000Y-28956000D01*
X94488000Y-28956000D02*
X98171000Y-25273000D01*
X98171000Y-22529800D02*
X98247200Y-22453600D01*
%TO.N,Net-(J1-Pin_11)*%
X91866000Y-58719279D02*
X91866000Y-86786000D01*
X90551000Y-57241201D02*
X90551000Y-57404279D01*
X96901000Y-91821000D02*
X96901000Y-94488000D01*
X90551000Y-57404279D02*
X91866000Y-58719279D01*
X91866000Y-86786000D02*
X96901000Y-91821000D01*
X96901000Y-25273000D02*
X96901000Y-22529800D01*
X96901000Y-22529800D02*
X96977200Y-22453600D01*
X91694000Y-38318201D02*
X91694000Y-30480000D01*
X90551000Y-39461201D02*
X91694000Y-38318201D01*
X91694000Y-30480000D02*
X96901000Y-25273000D01*
%TO.N,Net-(J1-Pin_10)*%
X89326000Y-85516000D02*
X95631000Y-91821000D01*
X89326000Y-58719280D02*
X89326000Y-85516000D01*
X88011000Y-57241201D02*
X88011000Y-57404280D01*
X95631000Y-91821000D02*
X95631000Y-94488000D01*
X88011000Y-57404280D02*
X89326000Y-58719280D01*
X89154000Y-31750000D02*
X95631000Y-25273000D01*
X95631000Y-22529800D02*
X95707200Y-22453600D01*
X88011000Y-39461201D02*
X89154000Y-38318201D01*
X95631000Y-25273000D02*
X95631000Y-22529800D01*
X89154000Y-38318201D02*
X89154000Y-31750000D01*
%TO.N,Net-(J1-Pin_9)*%
X86696000Y-84156000D02*
X94361000Y-91821000D01*
X85471000Y-57241201D02*
X85471000Y-57436916D01*
X86696000Y-58661916D02*
X86696000Y-84156000D01*
X94361000Y-91821000D02*
X94361000Y-94488000D01*
X85471000Y-57436916D02*
X86696000Y-58661916D01*
X88442800Y-31191200D02*
X94361000Y-25273000D01*
X87122000Y-31191200D02*
X88442800Y-31191200D01*
X94361000Y-22529800D02*
X94437200Y-22453600D01*
X85471000Y-39461201D02*
X86614000Y-38318201D01*
X86614000Y-38318201D02*
X86614000Y-31699200D01*
X86614000Y-31699200D02*
X87122000Y-31191200D01*
X94361000Y-25273000D02*
X94361000Y-22529800D01*
%TO.N,Net-(J1-Pin_8)*%
X82931000Y-57436916D02*
X84156000Y-58661916D01*
X93091000Y-91821000D02*
X93091000Y-94488000D01*
X84156000Y-58661916D02*
X84156000Y-85299000D01*
X87399999Y-86129999D02*
X93091000Y-91821000D01*
X84986999Y-86129999D02*
X87399999Y-86129999D01*
X84156000Y-85299000D02*
X84986999Y-86129999D01*
X82931000Y-57241201D02*
X82931000Y-57436916D01*
X93091000Y-22529800D02*
X93167200Y-22453600D01*
X82931000Y-39461201D02*
X84074000Y-38318201D01*
X84074000Y-38318201D02*
X84074000Y-31784424D01*
X93091000Y-25245553D02*
X93091000Y-22529800D01*
X87754953Y-30581600D02*
X93091000Y-25245553D01*
X85276824Y-30581600D02*
X87754953Y-30581600D01*
X84074000Y-31784424D02*
X85276824Y-30581600D01*
%TO.N,Net-(J1-Pin_7)*%
X81706000Y-85178637D02*
X83157362Y-86629999D01*
X91821000Y-91821000D02*
X91821000Y-94488000D01*
X83157362Y-86629999D02*
X86629999Y-86629999D01*
X80391000Y-57404279D02*
X81706000Y-58719279D01*
X86629999Y-86629999D02*
X91821000Y-91821000D01*
X80391000Y-57241201D02*
X80391000Y-57404279D01*
X81706000Y-58719279D02*
X81706000Y-85178637D01*
X80391000Y-39461201D02*
X81534000Y-38318201D01*
X81534000Y-31699200D02*
X82753200Y-30480000D01*
X84671318Y-30480000D02*
X85195318Y-29956000D01*
X87237553Y-29956000D02*
X91821000Y-25372553D01*
X82753200Y-30480000D02*
X84671318Y-30480000D01*
X85195318Y-29956000D02*
X87237553Y-29956000D01*
X91821000Y-25372553D02*
X91821000Y-22529800D01*
X91821000Y-22529800D02*
X91897200Y-22453600D01*
X81534000Y-38318201D02*
X81534000Y-31699200D01*
%TO.N,Net-(J1-Pin_6)*%
X77851000Y-57476105D02*
X79076000Y-58701105D01*
X81122107Y-87146000D02*
X85876000Y-87146000D01*
X90551000Y-91821000D02*
X90551000Y-94488000D01*
X79076000Y-58701105D02*
X79076000Y-85099893D01*
X79076000Y-85099893D02*
X81122107Y-87146000D01*
X85876000Y-87146000D02*
X90551000Y-91821000D01*
X77851000Y-57241201D02*
X77851000Y-57476105D01*
X78994000Y-31856531D02*
X80870531Y-29980000D01*
X86368000Y-29456000D02*
X90551000Y-25273000D01*
X84464212Y-29980000D02*
X84988212Y-29456000D01*
X77851000Y-39461201D02*
X78994000Y-38318201D01*
X80870531Y-29980000D02*
X84464212Y-29980000D01*
X84988212Y-29456000D02*
X86368000Y-29456000D01*
X78994000Y-38318201D02*
X78994000Y-31856531D01*
X90551000Y-22529800D02*
X90627200Y-22453600D01*
X90551000Y-25273000D02*
X90551000Y-22529800D01*
%TO.N,Net-(J1-Pin_5)*%
X79082106Y-87646000D02*
X85233000Y-87646000D01*
X75311000Y-57398307D02*
X76581000Y-58668307D01*
X89281000Y-91694000D02*
X89281000Y-94488000D01*
X85233000Y-87646000D02*
X89281000Y-91694000D01*
X76581000Y-85144894D02*
X79082106Y-87646000D01*
X76581000Y-58668307D02*
X76581000Y-85144894D01*
X75311000Y-57241201D02*
X75311000Y-57398307D01*
X76454000Y-38318201D02*
X76454000Y-31750000D01*
X75311000Y-39461201D02*
X76454000Y-38318201D01*
X89281000Y-22529800D02*
X89357200Y-22453600D01*
X76454000Y-31750000D02*
X78724000Y-29480000D01*
X78724000Y-29480000D02*
X84257106Y-29480000D01*
X89281000Y-25273000D02*
X89281000Y-22529800D01*
X84781106Y-28956000D02*
X85598000Y-28956000D01*
X84257106Y-29480000D02*
X84781106Y-28956000D01*
X85598000Y-28956000D02*
X89281000Y-25273000D01*
%TO.N,Net-(J1-Pin_4)*%
X74086000Y-85262000D02*
X76970000Y-88146000D01*
X72771000Y-57241201D02*
X72771000Y-57404279D01*
X84662107Y-88146000D02*
X88011000Y-91494893D01*
X74086000Y-58719279D02*
X74086000Y-85262000D01*
X88011000Y-91494893D02*
X88011000Y-94488000D01*
X76970000Y-88146000D02*
X84662107Y-88146000D01*
X72771000Y-57404279D02*
X74086000Y-58719279D01*
X76684000Y-28980000D02*
X84050000Y-28980000D01*
X73914000Y-31750000D02*
X76684000Y-28980000D01*
X72771000Y-39461201D02*
X73914000Y-38318201D01*
X73914000Y-38318201D02*
X73914000Y-31750000D01*
X88011000Y-25019000D02*
X88011000Y-22529800D01*
X84050000Y-28980000D02*
X88011000Y-25019000D01*
X88011000Y-22529800D02*
X88087200Y-22453600D01*
%TO.N,Net-(J1-Pin_3)*%
X70231000Y-57404280D02*
X71546000Y-58719279D01*
X70231000Y-57241201D02*
X70231000Y-57404280D01*
X71546000Y-85389000D02*
X74819000Y-88662000D01*
X71546000Y-58719279D02*
X71546000Y-85389000D01*
X74819000Y-88662000D02*
X84471000Y-88662000D01*
X84471000Y-88662000D02*
X86741000Y-90932000D01*
X86741000Y-90932000D02*
X86741000Y-94488000D01*
X86741000Y-22529800D02*
X86817200Y-22453600D01*
X71374000Y-31640213D02*
X74534213Y-28480000D01*
X86741000Y-25544212D02*
X86741000Y-22529800D01*
X74534213Y-28480000D02*
X83805212Y-28480000D01*
X83805212Y-28480000D02*
X86741000Y-25544212D01*
X71374000Y-38318201D02*
X71374000Y-31640213D01*
X70231000Y-39461201D02*
X71374000Y-38318201D01*
%TO.N,Net-(J1-Pin_2)*%
X84209000Y-89162000D02*
X85471000Y-90424000D01*
X72398000Y-89162000D02*
X84209000Y-89162000D01*
X67691000Y-57241201D02*
X67691000Y-57404279D01*
X85471000Y-90424000D02*
X85471000Y-94488000D01*
X67691000Y-57404279D02*
X68916000Y-58629279D01*
X68916000Y-58629279D02*
X68916000Y-85680000D01*
X68916000Y-85680000D02*
X72398000Y-89162000D01*
X67691000Y-39461201D02*
X68834000Y-38318201D01*
X68834000Y-38318201D02*
X68834000Y-31568107D01*
X85471000Y-26107106D02*
X85471000Y-22529800D01*
X68834000Y-31568107D02*
X72422107Y-27980000D01*
X85471000Y-22529800D02*
X85547200Y-22453600D01*
X83598106Y-27980000D02*
X85471000Y-26107106D01*
X72422107Y-27980000D02*
X83598106Y-27980000D01*
%TO.N,Net-(J1-Pin_1)*%
X66466000Y-85897000D02*
X70231000Y-89662000D01*
X66466000Y-58730332D02*
X66466000Y-85897000D01*
X65151000Y-57415332D02*
X66466000Y-58730332D01*
X70231000Y-89662000D02*
X83693000Y-89662000D01*
X65151000Y-57241201D02*
X65151000Y-57415332D01*
X83693000Y-89662000D02*
X84201000Y-90170000D01*
X84201000Y-90170000D02*
X84201000Y-94488000D01*
X84201000Y-22529800D02*
X84277200Y-22453600D01*
X70310000Y-27480000D02*
X83391000Y-27480000D01*
X66294000Y-38318201D02*
X66294000Y-31496000D01*
X84201000Y-26670000D02*
X84201000Y-22529800D01*
X66294000Y-31496000D02*
X70310000Y-27480000D01*
X65151000Y-39461201D02*
X66294000Y-38318201D01*
X83391000Y-27480000D02*
X84201000Y-26670000D01*
D18*
%TO.N,TOP_POS*%
X122301000Y-90553124D02*
X122301000Y-94488000D01*
X122171876Y-90424000D02*
X122301000Y-90553124D01*
%TO.N,TOP_NEG*%
X123625775Y-90255000D02*
X123625775Y-94433225D01*
X123625775Y-94433225D02*
X123571000Y-94488000D01*
%TO.N,BOT_POS*%
X122377200Y-22453600D02*
X122301000Y-22529800D01*
X122301000Y-25333904D02*
X121706041Y-25928863D01*
X122301000Y-22529800D02*
X122301000Y-25333904D01*
%TO.N,BOT_NEG*%
X123148000Y-25434091D02*
X123148000Y-26551564D01*
X123647200Y-22453600D02*
X123571000Y-22529800D01*
X123148000Y-26551564D02*
X123148002Y-26551566D01*
X123571000Y-25011091D02*
X123148000Y-25434091D01*
X123571000Y-22529800D02*
X123571000Y-25011091D01*
%TO.N,LED_GND*%
X80391000Y-91059000D02*
X80391000Y-94488000D01*
X80391000Y-22529800D02*
X80467200Y-22453600D01*
X80518000Y-26289000D02*
X80391000Y-26162000D01*
X80391000Y-26162000D02*
X80391000Y-22529800D01*
%TO.N,LED_DATA_OUT*%
X81661000Y-90892000D02*
X82129000Y-90424000D01*
X81661000Y-94488000D02*
X81661000Y-90892000D01*
X81737200Y-22453600D02*
X81661000Y-22529800D01*
X81661000Y-25527000D02*
X82296000Y-26162000D01*
X81661000Y-22529800D02*
X81661000Y-25527000D01*
%TO.N,LED_5V*%
X82931000Y-91186000D02*
X82931000Y-94488000D01*
X82931000Y-25527000D02*
X82931000Y-22529800D01*
X83058000Y-25654000D02*
X82931000Y-25527000D01*
X82931000Y-22529800D02*
X83007200Y-22453600D01*
%TD*%
M02*
